<svg width="300" height="200" viewBox="0 0 300 200" fill="none" xmlns="http://www.w3.org/2000/svg">
<mask id="mask0_21_2406" style="mask-type:alpha" maskUnits="userSpaceOnUse" x="59" y="10" width="181" height="184">
<mask id="mask1_21_2406" style="mask-type:alpha" maskUnits="userSpaceOnUse" x="50" y="1" width="199" height="199">
<g clip-path="url(#clip0_21_2406)">
<circle cx="51.5" cy="2.5" r="1.5" fill="#D2D6DB"/>
<circle cx="60.5" cy="2.5" r="1.5" fill="#D2D6DB"/>
<circle cx="69.5" cy="2.5" r="1.5" fill="#D2D6DB"/>
<circle cx="78.5" cy="2.5" r="1.5" fill="#D2D6DB"/>
<circle cx="87.5" cy="2.5" r="1.5" fill="#D2D6DB"/>
<circle cx="96.5" cy="2.5" r="1.5" fill="#D2D6DB"/>
<circle cx="105.5" cy="2.5" r="1.5" fill="#D2D6DB"/>
<circle cx="114.5" cy="2.5" r="1.5" fill="#D2D6DB"/>
<circle cx="123.5" cy="2.5" r="1.5" fill="#D2D6DB"/>
<circle cx="132.5" cy="2.5" r="1.5" fill="#D2D6DB"/>
<circle cx="141.5" cy="2.5" r="1.5" fill="#D2D6DB"/>
<circle cx="150.5" cy="2.5" r="1.5" fill="#D2D6DB"/>
<circle cx="159.5" cy="2.5" r="1.5" fill="#D2D6DB"/>
<circle cx="168.5" cy="2.5" r="1.5" fill="#D2D6DB"/>
<circle cx="177.5" cy="2.5" r="1.5" fill="#D2D6DB"/>
<circle cx="186.5" cy="2.5" r="1.5" fill="#D2D6DB"/>
<circle cx="195.5" cy="2.5" r="1.5" fill="#D2D6DB"/>
<circle cx="204.5" cy="2.5" r="1.5" fill="#D2D6DB"/>
<circle cx="213.5" cy="2.5" r="1.5" fill="#D2D6DB"/>
<circle cx="222.5" cy="2.5" r="1.5" fill="#D2D6DB"/>
<circle cx="231.5" cy="2.5" r="1.5" fill="#D2D6DB"/>
<circle cx="240.5" cy="2.5" r="1.5" fill="#D2D6DB"/>
<circle cx="249.5" cy="2.5" r="1.5" fill="#D2D6DB"/>
<circle cx="51.5" cy="11.5" r="1.5" fill="#D2D6DB"/>
<circle cx="60.5" cy="11.5" r="1.5" fill="#D2D6DB"/>
<circle cx="69.5" cy="11.5" r="1.5" fill="#D2D6DB"/>
<circle cx="78.5" cy="11.5" r="1.5" fill="#D2D6DB"/>
<circle cx="87.5" cy="11.5" r="1.5" fill="#D2D6DB"/>
<circle cx="96.5" cy="11.5" r="1.5" fill="#D2D6DB"/>
<circle cx="105.5" cy="11.5" r="1.5" fill="#D2D6DB"/>
<circle cx="114.5" cy="11.5" r="1.5" fill="#D2D6DB"/>
<circle cx="123.5" cy="11.5" r="1.5" fill="#D2D6DB"/>
<circle cx="132.5" cy="11.5" r="1.5" fill="#D2D6DB"/>
<circle cx="141.5" cy="11.5" r="1.5" fill="#D2D6DB"/>
<circle cx="150.5" cy="11.5" r="1.5" fill="#D2D6DB"/>
<circle cx="159.5" cy="11.5" r="1.5" fill="#D2D6DB"/>
<circle cx="168.5" cy="11.5" r="1.5" fill="#D2D6DB"/>
<circle cx="177.5" cy="11.5" r="1.5" fill="#D2D6DB"/>
<circle cx="186.5" cy="11.5" r="1.5" fill="#D2D6DB"/>
<circle cx="195.5" cy="11.5" r="1.5" fill="#D2D6DB"/>
<circle cx="204.5" cy="11.5" r="1.5" fill="#D2D6DB"/>
<circle cx="213.5" cy="11.5" r="1.5" fill="#D2D6DB"/>
<circle cx="222.5" cy="11.5" r="1.5" fill="#D2D6DB"/>
<circle cx="231.5" cy="11.5" r="1.5" fill="#D2D6DB"/>
<circle cx="240.5" cy="11.5" r="1.5" fill="#D2D6DB"/>
<circle cx="249.5" cy="11.5" r="1.5" fill="#D2D6DB"/>
<circle cx="51.5" cy="20.5" r="1.5" fill="#D2D6DB"/>
<circle cx="60.5" cy="20.5" r="1.5" fill="#D2D6DB"/>
<circle cx="69.5" cy="20.5" r="1.5" fill="#D2D6DB"/>
<circle cx="78.5" cy="20.5" r="1.5" fill="#D2D6DB"/>
<circle cx="87.5" cy="20.5" r="1.5" fill="#D2D6DB"/>
<circle cx="96.5" cy="20.5" r="1.5" fill="#D2D6DB"/>
<circle cx="105.5" cy="20.5" r="1.5" fill="#D2D6DB"/>
<circle cx="114.5" cy="20.5" r="1.5" fill="#D2D6DB"/>
<circle cx="123.5" cy="20.5" r="1.5" fill="#D2D6DB"/>
<circle cx="132.5" cy="20.5" r="1.5" fill="#D2D6DB"/>
<circle cx="141.5" cy="20.5" r="1.5" fill="#D2D6DB"/>
<circle cx="150.5" cy="20.5" r="1.5" fill="#D2D6DB"/>
<circle cx="159.5" cy="20.5" r="1.5" fill="#D2D6DB"/>
<circle cx="168.5" cy="20.5" r="1.5" fill="#D2D6DB"/>
<circle cx="177.5" cy="20.5" r="1.5" fill="#D2D6DB"/>
<circle cx="186.5" cy="20.5" r="1.5" fill="#D2D6DB"/>
<circle cx="195.5" cy="20.5" r="1.5" fill="#D2D6DB"/>
<circle cx="204.5" cy="20.5" r="1.5" fill="#D2D6DB"/>
<circle cx="213.5" cy="20.5" r="1.5" fill="#D2D6DB"/>
<circle cx="222.5" cy="20.5" r="1.5" fill="#D2D6DB"/>
<circle cx="231.5" cy="20.5" r="1.5" fill="#D2D6DB"/>
<circle cx="240.5" cy="20.5" r="1.5" fill="#D2D6DB"/>
<circle cx="249.5" cy="20.5" r="1.5" fill="#D2D6DB"/>
<circle cx="51.5" cy="29.5" r="1.5" fill="#D2D6DB"/>
<circle cx="60.5" cy="29.5" r="1.5" fill="#D2D6DB"/>
<circle cx="69.5" cy="29.5" r="1.5" fill="#D2D6DB"/>
<circle cx="78.5" cy="29.5" r="1.5" fill="#D2D6DB"/>
<circle cx="87.5" cy="29.5" r="1.5" fill="#D2D6DB"/>
<circle cx="96.5" cy="29.5" r="1.5" fill="#D2D6DB"/>
<circle cx="105.5" cy="29.5" r="1.5" fill="#D2D6DB"/>
<circle cx="114.5" cy="29.5" r="1.5" fill="#D2D6DB"/>
<circle cx="123.5" cy="29.5" r="1.5" fill="#D2D6DB"/>
<circle cx="132.5" cy="29.5" r="1.5" fill="#D2D6DB"/>
<circle cx="141.5" cy="29.5" r="1.5" fill="#D2D6DB"/>
<circle cx="150.5" cy="29.5" r="1.5" fill="#D2D6DB"/>
<circle cx="159.5" cy="29.5" r="1.5" fill="#D2D6DB"/>
<circle cx="168.5" cy="29.5" r="1.5" fill="#D2D6DB"/>
<circle cx="177.5" cy="29.5" r="1.5" fill="#D2D6DB"/>
<circle cx="186.5" cy="29.5" r="1.5" fill="#D2D6DB"/>
<circle cx="195.5" cy="29.5" r="1.5" fill="#D2D6DB"/>
<circle cx="204.5" cy="29.5" r="1.5" fill="#D2D6DB"/>
<circle cx="213.5" cy="29.5" r="1.5" fill="#D2D6DB"/>
<circle cx="222.5" cy="29.5" r="1.5" fill="#D2D6DB"/>
<circle cx="231.5" cy="29.5" r="1.5" fill="#D2D6DB"/>
<circle cx="240.5" cy="29.5" r="1.5" fill="#D2D6DB"/>
<circle cx="249.5" cy="29.5" r="1.5" fill="#D2D6DB"/>
<circle cx="51.5" cy="38.5" r="1.5" fill="#D2D6DB"/>
<circle cx="60.5" cy="38.5" r="1.5" fill="#D2D6DB"/>
<circle cx="69.5" cy="38.5" r="1.5" fill="#D2D6DB"/>
<circle cx="78.5" cy="38.5" r="1.5" fill="#D2D6DB"/>
<circle cx="87.5" cy="38.5" r="1.5" fill="#D2D6DB"/>
<circle cx="96.5" cy="38.5" r="1.5" fill="#D2D6DB"/>
<circle cx="105.5" cy="38.5" r="1.5" fill="#D2D6DB"/>
<circle cx="114.5" cy="38.5" r="1.5" fill="#D2D6DB"/>
<circle cx="123.5" cy="38.5" r="1.5" fill="#D2D6DB"/>
<circle cx="132.5" cy="38.5" r="1.5" fill="#D2D6DB"/>
<circle cx="141.5" cy="38.5" r="1.5" fill="#D2D6DB"/>
<circle cx="150.5" cy="38.5" r="1.5" fill="#D2D6DB"/>
<circle cx="159.5" cy="38.5" r="1.5" fill="#D2D6DB"/>
<circle cx="168.5" cy="38.5" r="1.5" fill="#D2D6DB"/>
<circle cx="177.5" cy="38.5" r="1.5" fill="#D2D6DB"/>
<circle cx="186.5" cy="38.5" r="1.5" fill="#D2D6DB"/>
<circle cx="195.5" cy="38.5" r="1.5" fill="#D2D6DB"/>
<circle cx="204.5" cy="38.5" r="1.5" fill="#D2D6DB"/>
<circle cx="213.5" cy="38.5" r="1.5" fill="#D2D6DB"/>
<circle cx="222.5" cy="38.5" r="1.5" fill="#D2D6DB"/>
<circle cx="231.5" cy="38.5" r="1.5" fill="#D2D6DB"/>
<circle cx="240.5" cy="38.5" r="1.5" fill="#D2D6DB"/>
<circle cx="249.5" cy="38.5" r="1.5" fill="#D2D6DB"/>
<circle cx="51.5" cy="47.5" r="1.5" fill="#D2D6DB"/>
<circle cx="60.5" cy="47.5" r="1.5" fill="#D2D6DB"/>
<circle cx="69.5" cy="47.5" r="1.5" fill="#D2D6DB"/>
<circle cx="78.5" cy="47.5" r="1.5" fill="#D2D6DB"/>
<circle cx="87.5" cy="47.5" r="1.5" fill="#D2D6DB"/>
<circle cx="96.5" cy="47.5" r="1.5" fill="#D2D6DB"/>
<circle cx="105.5" cy="47.5" r="1.5" fill="#D2D6DB"/>
<circle cx="114.5" cy="47.5" r="1.5" fill="#D2D6DB"/>
<circle cx="123.5" cy="47.5" r="1.5" fill="#D2D6DB"/>
<circle cx="132.5" cy="47.5" r="1.5" fill="#D2D6DB"/>
<circle cx="141.5" cy="47.5" r="1.5" fill="#D2D6DB"/>
<circle cx="150.5" cy="47.5" r="1.5" fill="#D2D6DB"/>
<circle cx="159.5" cy="47.5" r="1.5" fill="#D2D6DB"/>
<circle cx="168.5" cy="47.5" r="1.5" fill="#D2D6DB"/>
<circle cx="177.5" cy="47.5" r="1.5" fill="#D2D6DB"/>
<circle cx="186.5" cy="47.5" r="1.5" fill="#D2D6DB"/>
<circle cx="195.5" cy="47.5" r="1.5" fill="#D2D6DB"/>
<circle cx="204.5" cy="47.5" r="1.5" fill="#D2D6DB"/>
<circle cx="213.5" cy="47.5" r="1.5" fill="#D2D6DB"/>
<circle cx="222.5" cy="47.5" r="1.5" fill="#D2D6DB"/>
<circle cx="231.5" cy="47.5" r="1.5" fill="#D2D6DB"/>
<circle cx="240.5" cy="47.5" r="1.5" fill="#D2D6DB"/>
<circle cx="249.5" cy="47.5" r="1.5" fill="#D2D6DB"/>
<circle cx="51.5" cy="56.5" r="1.5" fill="#D2D6DB"/>
<circle cx="60.5" cy="56.5" r="1.5" fill="#D2D6DB"/>
<circle cx="69.5" cy="56.5" r="1.5" fill="#D2D6DB"/>
<circle cx="78.5" cy="56.5" r="1.5" fill="#D2D6DB"/>
<circle cx="87.5" cy="56.5" r="1.5" fill="#D2D6DB"/>
<circle cx="96.5" cy="56.5" r="1.5" fill="#D2D6DB"/>
<circle cx="105.5" cy="56.5" r="1.5" fill="#D2D6DB"/>
<circle cx="114.5" cy="56.5" r="1.5" fill="#D2D6DB"/>
<circle cx="123.5" cy="56.5" r="1.5" fill="#D2D6DB"/>
<circle cx="132.5" cy="56.5" r="1.5" fill="#D2D6DB"/>
<circle cx="141.5" cy="56.5" r="1.5" fill="#D2D6DB"/>
<circle cx="150.5" cy="56.5" r="1.5" fill="#D2D6DB"/>
<circle cx="159.5" cy="56.5" r="1.5" fill="#D2D6DB"/>
<circle cx="168.5" cy="56.5" r="1.5" fill="#D2D6DB"/>
<circle cx="177.5" cy="56.5" r="1.5" fill="#D2D6DB"/>
<circle cx="186.5" cy="56.5" r="1.5" fill="#D2D6DB"/>
<circle cx="195.5" cy="56.5" r="1.5" fill="#D2D6DB"/>
<circle cx="204.5" cy="56.5" r="1.5" fill="#D2D6DB"/>
<circle cx="213.5" cy="56.5" r="1.5" fill="#D2D6DB"/>
<circle cx="222.5" cy="56.5" r="1.5" fill="#D2D6DB"/>
<circle cx="231.5" cy="56.5" r="1.5" fill="#D2D6DB"/>
<circle cx="240.5" cy="56.5" r="1.5" fill="#D2D6DB"/>
<circle cx="249.5" cy="56.5" r="1.5" fill="#D2D6DB"/>
<circle cx="51.5" cy="65.5" r="1.5" fill="#D2D6DB"/>
<circle cx="60.5" cy="65.5" r="1.5" fill="#D2D6DB"/>
<circle cx="69.5" cy="65.5" r="1.5" fill="#D2D6DB"/>
<circle cx="78.5" cy="65.5" r="1.5" fill="#D2D6DB"/>
<circle cx="87.5" cy="65.5" r="1.5" fill="#D2D6DB"/>
<circle cx="96.5" cy="65.5" r="1.5" fill="#D2D6DB"/>
<circle cx="105.5" cy="65.5" r="1.5" fill="#D2D6DB"/>
<circle cx="114.5" cy="65.5" r="1.5" fill="#D2D6DB"/>
<circle cx="123.5" cy="65.5" r="1.5" fill="#D2D6DB"/>
<circle cx="132.5" cy="65.5" r="1.5" fill="#D2D6DB"/>
<circle cx="141.5" cy="65.5" r="1.5" fill="#D2D6DB"/>
<circle cx="150.5" cy="65.5" r="1.5" fill="#D2D6DB"/>
<circle cx="159.5" cy="65.5" r="1.5" fill="#D2D6DB"/>
<circle cx="168.5" cy="65.5" r="1.5" fill="#D2D6DB"/>
<circle cx="177.5" cy="65.5" r="1.5" fill="#D2D6DB"/>
<circle cx="186.5" cy="65.5" r="1.5" fill="#D2D6DB"/>
<circle cx="195.5" cy="65.5" r="1.5" fill="#D2D6DB"/>
<circle cx="204.5" cy="65.5" r="1.5" fill="#D2D6DB"/>
<circle cx="213.5" cy="65.5" r="1.5" fill="#D2D6DB"/>
<circle cx="222.5" cy="65.5" r="1.5" fill="#D2D6DB"/>
<circle cx="231.5" cy="65.5" r="1.5" fill="#D2D6DB"/>
<circle cx="240.5" cy="65.5" r="1.5" fill="#D2D6DB"/>
<circle cx="249.5" cy="65.5" r="1.5" fill="#D2D6DB"/>
<circle cx="51.5" cy="74.5" r="1.5" fill="#D2D6DB"/>
<circle cx="60.5" cy="74.5" r="1.5" fill="#D2D6DB"/>
<circle cx="69.5" cy="74.5" r="1.5" fill="#D2D6DB"/>
<circle cx="78.5" cy="74.5" r="1.5" fill="#D2D6DB"/>
<circle cx="87.5" cy="74.5" r="1.5" fill="#D2D6DB"/>
<circle cx="96.5" cy="74.5" r="1.5" fill="#D2D6DB"/>
<circle cx="105.5" cy="74.5" r="1.5" fill="#D2D6DB"/>
<circle cx="114.5" cy="74.5" r="1.5" fill="#D2D6DB"/>
<circle cx="123.5" cy="74.5" r="1.5" fill="#D2D6DB"/>
<circle cx="132.5" cy="74.5" r="1.5" fill="#D2D6DB"/>
<circle cx="141.5" cy="74.5" r="1.5" fill="#D2D6DB"/>
<circle cx="150.5" cy="74.5" r="1.5" fill="#D2D6DB"/>
<circle cx="159.5" cy="74.5" r="1.5" fill="#D2D6DB"/>
<circle cx="168.5" cy="74.5" r="1.5" fill="#D2D6DB"/>
<circle cx="177.5" cy="74.5" r="1.5" fill="#D2D6DB"/>
<circle cx="186.5" cy="74.5" r="1.5" fill="#D2D6DB"/>
<circle cx="195.5" cy="74.5" r="1.5" fill="#D2D6DB"/>
<circle cx="204.5" cy="74.5" r="1.5" fill="#D2D6DB"/>
<circle cx="213.5" cy="74.5" r="1.5" fill="#D2D6DB"/>
<circle cx="222.5" cy="74.5" r="1.5" fill="#D2D6DB"/>
<circle cx="231.5" cy="74.5" r="1.5" fill="#D2D6DB"/>
<circle cx="240.5" cy="74.5" r="1.5" fill="#D2D6DB"/>
<circle cx="249.5" cy="74.5" r="1.5" fill="#D2D6DB"/>
<circle cx="51.5" cy="83.5" r="1.5" fill="#D2D6DB"/>
<circle cx="60.5" cy="83.5" r="1.5" fill="#D2D6DB"/>
<circle cx="69.5" cy="83.5" r="1.5" fill="#D2D6DB"/>
<circle cx="78.5" cy="83.5" r="1.5" fill="#D2D6DB"/>
<circle cx="87.5" cy="83.5" r="1.5" fill="#D2D6DB"/>
<circle cx="96.5" cy="83.5" r="1.5" fill="#D2D6DB"/>
<circle cx="105.5" cy="83.5" r="1.5" fill="#D2D6DB"/>
<circle cx="114.5" cy="83.5" r="1.5" fill="#D2D6DB"/>
<circle cx="123.5" cy="83.5" r="1.5" fill="#D2D6DB"/>
<circle cx="132.5" cy="83.5" r="1.5" fill="#D2D6DB"/>
<circle cx="141.5" cy="83.5" r="1.5" fill="#D2D6DB"/>
<circle cx="150.5" cy="83.5" r="1.5" fill="#D2D6DB"/>
<circle cx="159.5" cy="83.5" r="1.5" fill="#D2D6DB"/>
<circle cx="168.5" cy="83.5" r="1.5" fill="#D2D6DB"/>
<circle cx="177.5" cy="83.5" r="1.5" fill="#D2D6DB"/>
<circle cx="186.5" cy="83.5" r="1.5" fill="#D2D6DB"/>
<circle cx="195.5" cy="83.5" r="1.5" fill="#D2D6DB"/>
<circle cx="204.5" cy="83.5" r="1.5" fill="#D2D6DB"/>
<circle cx="213.5" cy="83.5" r="1.5" fill="#D2D6DB"/>
<circle cx="222.5" cy="83.5" r="1.5" fill="#D2D6DB"/>
<circle cx="231.5" cy="83.5" r="1.5" fill="#D2D6DB"/>
<circle cx="240.5" cy="83.5" r="1.5" fill="#D2D6DB"/>
<circle cx="249.5" cy="83.5" r="1.5" fill="#D2D6DB"/>
<circle cx="51.5" cy="92.5" r="1.5" fill="#D2D6DB"/>
<circle cx="60.5" cy="92.5" r="1.5" fill="#D2D6DB"/>
<circle cx="69.5" cy="92.5" r="1.5" fill="#D2D6DB"/>
<circle cx="78.5" cy="92.5" r="1.5" fill="#D2D6DB"/>
<circle cx="87.5" cy="92.5" r="1.5" fill="#D2D6DB"/>
<circle cx="96.5" cy="92.5" r="1.5" fill="#D2D6DB"/>
<circle cx="105.5" cy="92.5" r="1.5" fill="#D2D6DB"/>
<circle cx="114.5" cy="92.5" r="1.5" fill="#D2D6DB"/>
<circle cx="123.5" cy="92.5" r="1.5" fill="#D2D6DB"/>
<circle cx="132.5" cy="92.5" r="1.5" fill="#D2D6DB"/>
<circle cx="141.5" cy="92.5" r="1.5" fill="#D2D6DB"/>
<circle cx="150.5" cy="92.5" r="1.5" fill="#D2D6DB"/>
<circle cx="159.5" cy="92.5" r="1.5" fill="#D2D6DB"/>
<circle cx="168.5" cy="92.5" r="1.5" fill="#D2D6DB"/>
<circle cx="177.5" cy="92.5" r="1.5" fill="#D2D6DB"/>
<circle cx="186.5" cy="92.5" r="1.5" fill="#D2D6DB"/>
<circle cx="195.5" cy="92.5" r="1.5" fill="#D2D6DB"/>
<circle cx="204.5" cy="92.5" r="1.5" fill="#D2D6DB"/>
<circle cx="213.5" cy="92.5" r="1.5" fill="#D2D6DB"/>
<circle cx="222.5" cy="92.5" r="1.5" fill="#D2D6DB"/>
<circle cx="231.5" cy="92.5" r="1.5" fill="#D2D6DB"/>
<circle cx="240.5" cy="92.5" r="1.5" fill="#D2D6DB"/>
<circle cx="249.5" cy="92.5" r="1.5" fill="#D2D6DB"/>
<circle cx="51.5" cy="101.5" r="1.5" fill="#D2D6DB"/>
<circle cx="60.5" cy="101.5" r="1.5" fill="#D2D6DB"/>
<circle cx="69.5" cy="101.5" r="1.5" fill="#D2D6DB"/>
<circle cx="78.5" cy="101.5" r="1.5" fill="#D2D6DB"/>
<circle cx="87.5" cy="101.5" r="1.5" fill="#D2D6DB"/>
<circle cx="96.5" cy="101.5" r="1.5" fill="#D2D6DB"/>
<circle cx="105.5" cy="101.5" r="1.5" fill="#D2D6DB"/>
<circle cx="114.5" cy="101.5" r="1.5" fill="#D2D6DB"/>
<circle cx="123.5" cy="101.5" r="1.5" fill="#D2D6DB"/>
<circle cx="132.5" cy="101.5" r="1.5" fill="#D2D6DB"/>
<circle cx="141.5" cy="101.5" r="1.5" fill="#D2D6DB"/>
<circle cx="150.5" cy="101.5" r="1.5" fill="#D2D6DB"/>
<circle cx="159.5" cy="101.5" r="1.5" fill="#D2D6DB"/>
<circle cx="168.5" cy="101.5" r="1.5" fill="#D2D6DB"/>
<circle cx="177.5" cy="101.5" r="1.5" fill="#D2D6DB"/>
<circle cx="186.5" cy="101.5" r="1.5" fill="#D2D6DB"/>
<circle cx="195.5" cy="101.5" r="1.5" fill="#D2D6DB"/>
<circle cx="204.5" cy="101.5" r="1.5" fill="#D2D6DB"/>
<circle cx="213.5" cy="101.5" r="1.5" fill="#D2D6DB"/>
<circle cx="222.5" cy="101.5" r="1.5" fill="#D2D6DB"/>
<circle cx="231.5" cy="101.5" r="1.5" fill="#D2D6DB"/>
<circle cx="240.5" cy="101.5" r="1.5" fill="#D2D6DB"/>
<circle cx="249.5" cy="101.5" r="1.5" fill="#D2D6DB"/>
<circle cx="51.5" cy="110.5" r="1.5" fill="#D2D6DB"/>
<circle cx="60.5" cy="110.5" r="1.5" fill="#D2D6DB"/>
<circle cx="69.5" cy="110.5" r="1.5" fill="#D2D6DB"/>
<circle cx="78.5" cy="110.5" r="1.5" fill="#D2D6DB"/>
<circle cx="87.5" cy="110.5" r="1.5" fill="#D2D6DB"/>
<circle cx="96.5" cy="110.5" r="1.5" fill="#D2D6DB"/>
<circle cx="105.5" cy="110.5" r="1.5" fill="#D2D6DB"/>
<circle cx="114.5" cy="110.5" r="1.5" fill="#D2D6DB"/>
<circle cx="123.5" cy="110.5" r="1.5" fill="#D2D6DB"/>
<circle cx="132.5" cy="110.5" r="1.5" fill="#D2D6DB"/>
<circle cx="141.5" cy="110.5" r="1.5" fill="#D2D6DB"/>
<circle cx="150.5" cy="110.5" r="1.5" fill="#D2D6DB"/>
<circle cx="159.5" cy="110.5" r="1.5" fill="#D2D6DB"/>
<circle cx="168.5" cy="110.5" r="1.5" fill="#D2D6DB"/>
<circle cx="177.5" cy="110.5" r="1.5" fill="#D2D6DB"/>
<circle cx="186.5" cy="110.5" r="1.5" fill="#D2D6DB"/>
<circle cx="195.5" cy="110.5" r="1.5" fill="#D2D6DB"/>
<circle cx="204.5" cy="110.5" r="1.5" fill="#D2D6DB"/>
<circle cx="213.5" cy="110.5" r="1.5" fill="#D2D6DB"/>
<circle cx="222.5" cy="110.5" r="1.5" fill="#D2D6DB"/>
<circle cx="231.5" cy="110.5" r="1.5" fill="#D2D6DB"/>
<circle cx="240.5" cy="110.5" r="1.5" fill="#D2D6DB"/>
<circle cx="249.5" cy="110.5" r="1.5" fill="#D2D6DB"/>
<circle cx="51.5" cy="119.5" r="1.5" fill="#D2D6DB"/>
<circle cx="60.5" cy="119.5" r="1.5" fill="#D2D6DB"/>
<circle cx="69.5" cy="119.5" r="1.5" fill="#D2D6DB"/>
<circle cx="78.5" cy="119.5" r="1.5" fill="#D2D6DB"/>
<circle cx="87.5" cy="119.5" r="1.5" fill="#D2D6DB"/>
<circle cx="96.5" cy="119.5" r="1.5" fill="#D2D6DB"/>
<circle cx="105.5" cy="119.5" r="1.5" fill="#D2D6DB"/>
<circle cx="114.5" cy="119.5" r="1.5" fill="#D2D6DB"/>
<circle cx="123.5" cy="119.5" r="1.5" fill="#D2D6DB"/>
<circle cx="132.5" cy="119.5" r="1.5" fill="#D2D6DB"/>
<circle cx="141.5" cy="119.5" r="1.5" fill="#D2D6DB"/>
<circle cx="150.5" cy="119.5" r="1.5" fill="#D2D6DB"/>
<circle cx="159.5" cy="119.5" r="1.5" fill="#D2D6DB"/>
<circle cx="168.5" cy="119.5" r="1.5" fill="#D2D6DB"/>
<circle cx="177.5" cy="119.5" r="1.5" fill="#D2D6DB"/>
<circle cx="186.5" cy="119.5" r="1.5" fill="#D2D6DB"/>
<circle cx="195.5" cy="119.5" r="1.5" fill="#D2D6DB"/>
<circle cx="204.5" cy="119.5" r="1.5" fill="#D2D6DB"/>
<circle cx="213.5" cy="119.5" r="1.5" fill="#D2D6DB"/>
<circle cx="222.5" cy="119.5" r="1.5" fill="#D2D6DB"/>
<circle cx="231.5" cy="119.5" r="1.5" fill="#D2D6DB"/>
<circle cx="240.5" cy="119.5" r="1.5" fill="#D2D6DB"/>
<circle cx="249.5" cy="119.5" r="1.5" fill="#D2D6DB"/>
<circle cx="51.5" cy="128.5" r="1.5" fill="#D2D6DB"/>
<circle cx="60.5" cy="128.5" r="1.5" fill="#D2D6DB"/>
<circle cx="69.5" cy="128.5" r="1.5" fill="#D2D6DB"/>
<circle cx="78.5" cy="128.5" r="1.5" fill="#D2D6DB"/>
<circle cx="87.5" cy="128.5" r="1.5" fill="#D2D6DB"/>
<circle cx="96.5" cy="128.5" r="1.5" fill="#D2D6DB"/>
<circle cx="105.5" cy="128.5" r="1.5" fill="#D2D6DB"/>
<circle cx="114.5" cy="128.5" r="1.5" fill="#D2D6DB"/>
<circle cx="123.5" cy="128.5" r="1.5" fill="#D2D6DB"/>
<circle cx="132.5" cy="128.5" r="1.5" fill="#D2D6DB"/>
<circle cx="141.5" cy="128.5" r="1.5" fill="#D2D6DB"/>
<circle cx="150.5" cy="128.5" r="1.5" fill="#D2D6DB"/>
<circle cx="159.5" cy="128.5" r="1.5" fill="#D2D6DB"/>
<circle cx="168.5" cy="128.5" r="1.5" fill="#D2D6DB"/>
<circle cx="177.5" cy="128.5" r="1.5" fill="#D2D6DB"/>
<circle cx="186.5" cy="128.5" r="1.5" fill="#D2D6DB"/>
<circle cx="195.5" cy="128.5" r="1.5" fill="#D2D6DB"/>
<circle cx="204.5" cy="128.5" r="1.5" fill="#D2D6DB"/>
<circle cx="213.5" cy="128.5" r="1.5" fill="#D2D6DB"/>
<circle cx="222.5" cy="128.5" r="1.5" fill="#D2D6DB"/>
<circle cx="231.5" cy="128.5" r="1.5" fill="#D2D6DB"/>
<circle cx="240.5" cy="128.5" r="1.5" fill="#D2D6DB"/>
<circle cx="249.5" cy="128.5" r="1.5" fill="#D2D6DB"/>
<circle cx="51.5" cy="137.5" r="1.5" fill="#D2D6DB"/>
<circle cx="60.5" cy="137.5" r="1.5" fill="#D2D6DB"/>
<circle cx="69.5" cy="137.5" r="1.5" fill="#D2D6DB"/>
<circle cx="78.5" cy="137.5" r="1.5" fill="#D2D6DB"/>
<circle cx="87.5" cy="137.5" r="1.5" fill="#D2D6DB"/>
<circle cx="96.5" cy="137.5" r="1.5" fill="#D2D6DB"/>
<circle cx="105.5" cy="137.5" r="1.5" fill="#D2D6DB"/>
<circle cx="114.5" cy="137.5" r="1.5" fill="#D2D6DB"/>
<circle cx="123.5" cy="137.5" r="1.5" fill="#D2D6DB"/>
<circle cx="132.5" cy="137.5" r="1.5" fill="#D2D6DB"/>
<circle cx="141.5" cy="137.5" r="1.5" fill="#D2D6DB"/>
<circle cx="150.5" cy="137.5" r="1.5" fill="#D2D6DB"/>
<circle cx="159.5" cy="137.5" r="1.5" fill="#D2D6DB"/>
<circle cx="168.5" cy="137.5" r="1.5" fill="#D2D6DB"/>
<circle cx="177.5" cy="137.5" r="1.5" fill="#D2D6DB"/>
<circle cx="186.5" cy="137.5" r="1.5" fill="#D2D6DB"/>
<circle cx="195.5" cy="137.5" r="1.5" fill="#D2D6DB"/>
<circle cx="204.5" cy="137.5" r="1.5" fill="#D2D6DB"/>
<circle cx="213.5" cy="137.5" r="1.5" fill="#D2D6DB"/>
<circle cx="222.5" cy="137.5" r="1.5" fill="#D2D6DB"/>
<circle cx="231.5" cy="137.5" r="1.5" fill="#D2D6DB"/>
<circle cx="240.5" cy="137.5" r="1.5" fill="#D2D6DB"/>
<circle cx="249.5" cy="137.5" r="1.5" fill="#D2D6DB"/>
<circle cx="51.5" cy="146.5" r="1.5" fill="#D2D6DB"/>
<circle cx="60.5" cy="146.5" r="1.5" fill="#D2D6DB"/>
<circle cx="69.5" cy="146.5" r="1.5" fill="#D2D6DB"/>
<circle cx="78.5" cy="146.5" r="1.5" fill="#D2D6DB"/>
<circle cx="87.5" cy="146.5" r="1.5" fill="#D2D6DB"/>
<circle cx="96.5" cy="146.5" r="1.5" fill="#D2D6DB"/>
<circle cx="105.5" cy="146.5" r="1.5" fill="#D2D6DB"/>
<circle cx="114.5" cy="146.5" r="1.5" fill="#D2D6DB"/>
<circle cx="123.5" cy="146.5" r="1.5" fill="#D2D6DB"/>
<circle cx="132.5" cy="146.5" r="1.5" fill="#D2D6DB"/>
<circle cx="141.5" cy="146.5" r="1.5" fill="#D2D6DB"/>
<circle cx="150.5" cy="146.5" r="1.5" fill="#D2D6DB"/>
<circle cx="159.5" cy="146.5" r="1.5" fill="#D2D6DB"/>
<circle cx="168.5" cy="146.5" r="1.5" fill="#D2D6DB"/>
<circle cx="177.5" cy="146.5" r="1.5" fill="#D2D6DB"/>
<circle cx="186.5" cy="146.5" r="1.5" fill="#D2D6DB"/>
<circle cx="195.5" cy="146.5" r="1.5" fill="#D2D6DB"/>
<circle cx="204.5" cy="146.5" r="1.5" fill="#D2D6DB"/>
<circle cx="213.5" cy="146.5" r="1.5" fill="#D2D6DB"/>
<circle cx="222.5" cy="146.5" r="1.5" fill="#D2D6DB"/>
<circle cx="231.5" cy="146.5" r="1.5" fill="#D2D6DB"/>
<circle cx="240.5" cy="146.5" r="1.5" fill="#D2D6DB"/>
<circle cx="249.5" cy="146.5" r="1.5" fill="#D2D6DB"/>
<circle cx="51.5" cy="155.5" r="1.5" fill="#D2D6DB"/>
<circle cx="60.5" cy="155.5" r="1.5" fill="#D2D6DB"/>
<circle cx="69.5" cy="155.5" r="1.5" fill="#D2D6DB"/>
<circle cx="78.5" cy="155.5" r="1.5" fill="#D2D6DB"/>
<circle cx="87.5" cy="155.5" r="1.5" fill="#D2D6DB"/>
<circle cx="96.5" cy="155.5" r="1.5" fill="#D2D6DB"/>
<circle cx="105.5" cy="155.5" r="1.5" fill="#D2D6DB"/>
<circle cx="114.5" cy="155.5" r="1.5" fill="#D2D6DB"/>
<circle cx="123.5" cy="155.5" r="1.5" fill="#D2D6DB"/>
<circle cx="132.5" cy="155.5" r="1.5" fill="#D2D6DB"/>
<circle cx="141.5" cy="155.5" r="1.5" fill="#D2D6DB"/>
<circle cx="150.5" cy="155.5" r="1.5" fill="#D2D6DB"/>
<circle cx="159.5" cy="155.5" r="1.5" fill="#D2D6DB"/>
<circle cx="168.5" cy="155.5" r="1.5" fill="#D2D6DB"/>
<circle cx="177.5" cy="155.5" r="1.5" fill="#D2D6DB"/>
<circle cx="186.5" cy="155.5" r="1.5" fill="#D2D6DB"/>
<circle cx="195.5" cy="155.5" r="1.5" fill="#D2D6DB"/>
<circle cx="204.5" cy="155.5" r="1.5" fill="#D2D6DB"/>
<circle cx="213.5" cy="155.5" r="1.5" fill="#D2D6DB"/>
<circle cx="222.5" cy="155.5" r="1.5" fill="#D2D6DB"/>
<circle cx="231.5" cy="155.5" r="1.5" fill="#D2D6DB"/>
<circle cx="240.5" cy="155.5" r="1.5" fill="#D2D6DB"/>
<circle cx="249.5" cy="155.5" r="1.5" fill="#D2D6DB"/>
<circle cx="51.5" cy="164.5" r="1.5" fill="#D2D6DB"/>
<circle cx="60.5" cy="164.5" r="1.5" fill="#D2D6DB"/>
<circle cx="69.5" cy="164.5" r="1.5" fill="#D2D6DB"/>
<circle cx="78.5" cy="164.5" r="1.5" fill="#D2D6DB"/>
<circle cx="87.5" cy="164.5" r="1.5" fill="#D2D6DB"/>
<circle cx="96.5" cy="164.5" r="1.5" fill="#D2D6DB"/>
<circle cx="105.5" cy="164.5" r="1.5" fill="#D2D6DB"/>
<circle cx="114.5" cy="164.5" r="1.5" fill="#D2D6DB"/>
<circle cx="123.5" cy="164.5" r="1.5" fill="#D2D6DB"/>
<circle cx="132.5" cy="164.5" r="1.5" fill="#D2D6DB"/>
<circle cx="141.5" cy="164.5" r="1.5" fill="#D2D6DB"/>
<circle cx="150.5" cy="164.5" r="1.5" fill="#D2D6DB"/>
<circle cx="159.5" cy="164.5" r="1.5" fill="#D2D6DB"/>
<circle cx="168.5" cy="164.5" r="1.5" fill="#D2D6DB"/>
<circle cx="177.5" cy="164.5" r="1.5" fill="#D2D6DB"/>
<circle cx="186.5" cy="164.5" r="1.5" fill="#D2D6DB"/>
<circle cx="195.5" cy="164.5" r="1.5" fill="#D2D6DB"/>
<circle cx="204.5" cy="164.5" r="1.5" fill="#D2D6DB"/>
<circle cx="213.5" cy="164.5" r="1.5" fill="#D2D6DB"/>
<circle cx="222.5" cy="164.5" r="1.5" fill="#D2D6DB"/>
<circle cx="231.5" cy="164.5" r="1.5" fill="#D2D6DB"/>
<circle cx="240.5" cy="164.5" r="1.5" fill="#D2D6DB"/>
<circle cx="249.5" cy="164.5" r="1.5" fill="#D2D6DB"/>
<circle cx="51.5" cy="173.5" r="1.5" fill="#D2D6DB"/>
<circle cx="60.5" cy="173.5" r="1.5" fill="#D2D6DB"/>
<circle cx="69.5" cy="173.5" r="1.5" fill="#D2D6DB"/>
<circle cx="78.5" cy="173.5" r="1.5" fill="#D2D6DB"/>
<circle cx="87.5" cy="173.5" r="1.5" fill="#D2D6DB"/>
<circle cx="96.5" cy="173.5" r="1.5" fill="#D2D6DB"/>
<circle cx="105.5" cy="173.5" r="1.5" fill="#D2D6DB"/>
<circle cx="114.5" cy="173.5" r="1.5" fill="#D2D6DB"/>
<circle cx="123.5" cy="173.5" r="1.5" fill="#D2D6DB"/>
<circle cx="132.5" cy="173.5" r="1.5" fill="#D2D6DB"/>
<circle cx="141.5" cy="173.5" r="1.5" fill="#D2D6DB"/>
<circle cx="150.5" cy="173.5" r="1.5" fill="#D2D6DB"/>
<circle cx="159.5" cy="173.5" r="1.5" fill="#D2D6DB"/>
<circle cx="168.5" cy="173.5" r="1.5" fill="#D2D6DB"/>
<circle cx="177.5" cy="173.5" r="1.5" fill="#D2D6DB"/>
<circle cx="186.5" cy="173.5" r="1.5" fill="#D2D6DB"/>
<circle cx="195.5" cy="173.5" r="1.5" fill="#D2D6DB"/>
<circle cx="204.5" cy="173.5" r="1.5" fill="#D2D6DB"/>
<circle cx="213.5" cy="173.5" r="1.5" fill="#D2D6DB"/>
<circle cx="222.5" cy="173.5" r="1.5" fill="#D2D6DB"/>
<circle cx="231.5" cy="173.5" r="1.5" fill="#D2D6DB"/>
<circle cx="240.5" cy="173.5" r="1.5" fill="#D2D6DB"/>
<circle cx="249.5" cy="173.5" r="1.5" fill="#D2D6DB"/>
<circle cx="51.5" cy="182.5" r="1.5" fill="#D2D6DB"/>
<circle cx="60.5" cy="182.5" r="1.5" fill="#D2D6DB"/>
<circle cx="69.5" cy="182.5" r="1.5" fill="#D2D6DB"/>
<circle cx="78.5" cy="182.5" r="1.5" fill="#D2D6DB"/>
<circle cx="87.5" cy="182.5" r="1.5" fill="#D2D6DB"/>
<circle cx="96.5" cy="182.5" r="1.5" fill="#D2D6DB"/>
<circle cx="105.5" cy="182.5" r="1.5" fill="#D2D6DB"/>
<circle cx="114.5" cy="182.5" r="1.5" fill="#D2D6DB"/>
<circle cx="123.5" cy="182.5" r="1.5" fill="#D2D6DB"/>
<circle cx="132.5" cy="182.5" r="1.5" fill="#D2D6DB"/>
<circle cx="141.5" cy="182.5" r="1.5" fill="#D2D6DB"/>
<circle cx="150.5" cy="182.5" r="1.5" fill="#D2D6DB"/>
<circle cx="159.5" cy="182.5" r="1.5" fill="#D2D6DB"/>
<circle cx="168.5" cy="182.5" r="1.5" fill="#D2D6DB"/>
<circle cx="177.5" cy="182.5" r="1.5" fill="#D2D6DB"/>
<circle cx="186.5" cy="182.5" r="1.5" fill="#D2D6DB"/>
<circle cx="195.5" cy="182.5" r="1.5" fill="#D2D6DB"/>
<circle cx="204.5" cy="182.5" r="1.5" fill="#D2D6DB"/>
<circle cx="213.5" cy="182.5" r="1.5" fill="#D2D6DB"/>
<circle cx="222.5" cy="182.5" r="1.5" fill="#D2D6DB"/>
<circle cx="231.5" cy="182.5" r="1.5" fill="#D2D6DB"/>
<circle cx="240.5" cy="182.5" r="1.5" fill="#D2D6DB"/>
<circle cx="249.5" cy="182.5" r="1.5" fill="#D2D6DB"/>
<circle cx="51.5" cy="191.5" r="1.5" fill="#D2D6DB"/>
<circle cx="60.5" cy="191.5" r="1.5" fill="#D2D6DB"/>
<circle cx="69.5" cy="191.5" r="1.5" fill="#D2D6DB"/>
<circle cx="78.5" cy="191.5" r="1.5" fill="#D2D6DB"/>
<circle cx="87.5" cy="191.5" r="1.5" fill="#D2D6DB"/>
<circle cx="96.5" cy="191.5" r="1.5" fill="#D2D6DB"/>
<circle cx="105.5" cy="191.5" r="1.5" fill="#D2D6DB"/>
<circle cx="114.5" cy="191.5" r="1.5" fill="#D2D6DB"/>
<circle cx="123.5" cy="191.5" r="1.5" fill="#D2D6DB"/>
<circle cx="132.5" cy="191.5" r="1.5" fill="#D2D6DB"/>
<circle cx="141.5" cy="191.5" r="1.5" fill="#D2D6DB"/>
<circle cx="150.5" cy="191.5" r="1.5" fill="#D2D6DB"/>
<circle cx="159.5" cy="191.5" r="1.5" fill="#D2D6DB"/>
<circle cx="168.5" cy="191.5" r="1.5" fill="#D2D6DB"/>
<circle cx="177.5" cy="191.5" r="1.5" fill="#D2D6DB"/>
<circle cx="186.5" cy="191.5" r="1.5" fill="#D2D6DB"/>
<circle cx="195.5" cy="191.5" r="1.5" fill="#D2D6DB"/>
<circle cx="204.5" cy="191.5" r="1.5" fill="#D2D6DB"/>
<circle cx="213.5" cy="191.5" r="1.5" fill="#D2D6DB"/>
<circle cx="222.5" cy="191.5" r="1.5" fill="#D2D6DB"/>
<circle cx="231.5" cy="191.5" r="1.5" fill="#D2D6DB"/>
<circle cx="240.5" cy="191.5" r="1.5" fill="#D2D6DB"/>
<circle cx="249.5" cy="191.5" r="1.5" fill="#D2D6DB"/>
<circle cx="51.5" cy="200.5" r="1.5" fill="#D2D6DB"/>
<circle cx="60.5" cy="200.5" r="1.5" fill="#D2D6DB"/>
<circle cx="69.5" cy="200.5" r="1.5" fill="#D2D6DB"/>
<circle cx="78.5" cy="200.5" r="1.5" fill="#D2D6DB"/>
<circle cx="87.5" cy="200.5" r="1.5" fill="#D2D6DB"/>
<circle cx="96.5" cy="200.5" r="1.5" fill="#D2D6DB"/>
<circle cx="105.5" cy="200.5" r="1.5" fill="#D2D6DB"/>
<circle cx="114.5" cy="200.5" r="1.5" fill="#D2D6DB"/>
<circle cx="123.5" cy="200.5" r="1.5" fill="#D2D6DB"/>
<circle cx="132.5" cy="200.5" r="1.5" fill="#D2D6DB"/>
<circle cx="141.5" cy="200.5" r="1.5" fill="#D2D6DB"/>
<circle cx="150.5" cy="200.5" r="1.5" fill="#D2D6DB"/>
<circle cx="159.5" cy="200.5" r="1.5" fill="#D2D6DB"/>
<circle cx="168.5" cy="200.5" r="1.5" fill="#D2D6DB"/>
<circle cx="177.5" cy="200.5" r="1.5" fill="#D2D6DB"/>
<circle cx="186.5" cy="200.5" r="1.5" fill="#D2D6DB"/>
<circle cx="195.5" cy="200.5" r="1.5" fill="#D2D6DB"/>
<circle cx="204.5" cy="200.5" r="1.5" fill="#D2D6DB"/>
<circle cx="213.5" cy="200.5" r="1.5" fill="#D2D6DB"/>
<circle cx="222.5" cy="200.5" r="1.5" fill="#D2D6DB"/>
<circle cx="231.5" cy="200.5" r="1.5" fill="#D2D6DB"/>
<circle cx="240.5" cy="200.5" r="1.5" fill="#D2D6DB"/>
<circle cx="249.5" cy="200.5" r="1.5" fill="#D2D6DB"/>
</g>
</mask>
<g mask="url(#mask1_21_2406)">
<path d="M161.373 166.232C158.929 157.868 159.46 148.915 162.877 140.898C166.293 132.882 172.384 126.298 180.11 122.268C187.837 118.239 196.722 117.013 205.251 118.8C213.78 120.587 221.425 125.277 226.885 132.069C232.344 138.861 235.279 147.336 235.191 156.049C235.102 164.763 231.994 173.177 226.398 179.856C220.801 186.536 213.062 191.068 204.498 192.681C195.935 194.294 187.077 192.887 179.434 188.702L192.772 164.348C194.78 165.448 197.108 165.817 199.359 165.393C201.609 164.969 203.643 163.778 205.114 162.023C206.585 160.268 207.401 158.057 207.425 155.767C207.448 153.477 206.677 151.249 205.242 149.465C203.807 147.68 201.798 146.447 199.557 145.978C197.315 145.508 194.98 145.83 192.95 146.889C190.919 147.948 189.319 149.678 188.421 151.785C187.523 153.892 187.383 156.244 188.026 158.443L161.373 166.232Z" fill="#F39423"/>
<rect x="60.2668" y="113.767" width="51.74" height="15.2567" fill="#F39423"/>
<rect x="59.95" y="10.2866" width="179.1" height="94.8567" fill="#F39423"/>
<rect x="60.2668" y="137.647" width="97.51" height="55.0567" fill="#F39423"/>
</g>
</mask>
<g mask="url(#mask0_21_2406)">
<rect y="-50" width="300" height="300" fill="#F39423"/>
</g>
<defs>
<clipPath id="clip0_21_2406">
<rect width="199" height="199" fill="white" transform="translate(50 1)"/>
</clipPath>
</defs>
</svg>
