<svg width="80" height="80" viewBox="0 0 80 80" fill="none" xmlns="http://www.w3.org/2000/svg">
<g clip-path="url(#clip0_792_3523)">
<path d="M39.5003 4C19.3444 4 3 20.3414 3 40.5003C3 56.6271 13.4584 70.309 27.9611 75.1353C29.7853 75.4732 30.455 74.3435 30.455 73.3795C30.455 72.5091 30.4212 69.6338 30.4054 66.5839C20.251 68.7918 18.1083 62.2773 18.1083 62.2773C16.448 58.0584 14.0556 56.9366 14.0556 56.9366C10.744 54.6712 14.3053 54.7177 14.3053 54.7177C17.9705 54.9752 19.9005 58.4791 19.9005 58.4791C23.1559 64.0592 28.4392 62.4459 30.5221 61.5133C30.8497 59.1542 31.7956 57.544 32.8395 56.6325C24.7323 55.7096 16.2098 52.5798 16.2098 38.5939C16.2098 34.6089 17.6357 31.3529 19.9706 28.7967C19.5916 27.8774 18.3422 24.165 20.3242 19.1373C20.3242 19.1373 23.3892 18.1563 30.3643 22.8788C33.2759 22.07 36.3984 21.6645 39.5003 21.6506C42.6022 21.6645 45.7271 22.07 48.6441 22.8788C55.6108 18.1563 58.6716 19.1373 58.6716 19.1373C60.6584 24.165 59.4084 27.8774 59.0294 28.7967C61.3698 31.3529 62.786 34.6089 62.786 38.5939C62.786 52.6131 54.2472 55.6999 46.1194 56.6035C47.4286 57.7362 48.5952 59.9575 48.5952 63.3629C48.5952 68.2466 48.5528 72.1773 48.5528 73.3795C48.5528 74.3508 49.2099 75.4889 51.06 75.1305C65.5548 70.2987 76 56.6217 76 40.5003C76 20.3414 59.658 4 39.5003 4ZM16.6706 55.9955C16.5902 56.1768 16.3049 56.2312 16.045 56.1067C15.7802 55.9876 15.6315 55.7404 15.7174 55.5584C15.7959 55.3717 16.0818 55.3197 16.346 55.4448C16.6113 55.5639 16.7624 55.8135 16.6706 55.9955ZM18.466 57.5975C18.2919 57.7589 17.9516 57.6839 17.7207 57.4288C17.4819 57.1744 17.4372 56.8341 17.6137 56.6703C17.7932 56.5089 18.1232 56.5844 18.3626 56.8389C18.6014 57.0964 18.6479 57.4343 18.466 57.5975ZM19.6977 59.6472C19.474 59.8025 19.1084 59.6569 18.8823 59.3323C18.6587 59.0077 18.6587 58.6185 18.8871 58.4625C19.1138 58.3066 19.474 58.4468 19.7031 58.769C19.9262 59.099 19.9262 59.4882 19.6977 59.6472ZM21.7808 62.0211C21.5807 62.2417 21.1546 62.1825 20.8427 61.8815C20.5236 61.5871 20.4347 61.1694 20.6354 60.9488C20.8379 60.7276 21.2664 60.7899 21.5807 61.0884C21.8974 61.3822 21.9941 61.8029 21.7808 62.0211ZM24.473 62.8225C24.3847 63.1084 23.9743 63.2383 23.5609 63.1168C23.1481 62.9917 22.8779 62.6569 22.9613 62.3679C23.0471 62.0802 23.4594 61.9448 23.8758 62.0748C24.288 62.1993 24.5588 62.5317 24.473 62.8225ZM27.5368 63.1624C27.5471 63.4634 27.1965 63.713 26.7625 63.7185C26.3262 63.7281 25.9732 63.4846 25.9683 63.1884C25.9683 62.8844 26.311 62.6372 26.7474 62.6299C27.1814 62.6214 27.5368 62.8632 27.5368 63.1624ZM30.5467 63.047C30.5987 63.3408 30.2971 63.6424 29.8661 63.7228C29.4424 63.8001 29.0501 63.6188 28.9963 63.3275C28.9438 63.0265 29.2508 62.7249 29.6739 62.6469C30.1055 62.5719 30.4917 62.7484 30.5467 63.047Z" fill="#161614"/>
</g>
<defs>
<clipPath id="clip0_792_3523">
<rect width="73" height="71.2891" fill="white" transform="translate(3 4)"/>
</clipPath>
</defs>
</svg>
