<svg width="300" height="200" viewBox="0 0 300 200" fill="none" xmlns="http://www.w3.org/2000/svg">
<mask id="mask0_21_2407" style="mask-type:alpha" maskUnits="userSpaceOnUse" x="0" y="16" width="300" height="171">
<g clip-path="url(#clip0_21_2407)">
<circle cx="1.5" cy="15.5" r="1.5" fill="#D2D6DB"/>
<circle cx="10.5" cy="15.5" r="1.5" fill="#D2D6DB"/>
<circle cx="19.5" cy="15.5" r="1.5" fill="#D2D6DB"/>
<circle cx="28.5" cy="15.5" r="1.5" fill="#D2D6DB"/>
<circle cx="37.5" cy="15.5" r="1.5" fill="#D2D6DB"/>
<circle cx="46.5" cy="15.5" r="1.5" fill="#D2D6DB"/>
<circle cx="55.5" cy="15.5" r="1.5" fill="#D2D6DB"/>
<circle cx="64.5" cy="15.5" r="1.5" fill="#D2D6DB"/>
<circle cx="73.5" cy="15.5" r="1.5" fill="#D2D6DB"/>
<circle cx="82.5" cy="15.5" r="1.5" fill="#D2D6DB"/>
<circle cx="91.5" cy="15.5" r="1.5" fill="#D2D6DB"/>
<circle cx="100.5" cy="15.5" r="1.5" fill="#D2D6DB"/>
<circle cx="109.5" cy="15.5" r="1.5" fill="#D2D6DB"/>
<circle cx="118.5" cy="15.5" r="1.5" fill="#D2D6DB"/>
<circle cx="127.5" cy="15.5" r="1.5" fill="#D2D6DB"/>
<circle cx="136.5" cy="15.5" r="1.5" fill="#D2D6DB"/>
<circle cx="145.5" cy="15.5" r="1.5" fill="#D2D6DB"/>
<circle cx="154.5" cy="15.5" r="1.5" fill="#D2D6DB"/>
<circle cx="163.5" cy="15.5" r="1.5" fill="#D2D6DB"/>
<circle cx="172.5" cy="15.5" r="1.5" fill="#D2D6DB"/>
<circle cx="181.5" cy="15.5" r="1.5" fill="#D2D6DB"/>
<circle cx="190.5" cy="15.5" r="1.5" fill="#D2D6DB"/>
<circle cx="199.5" cy="15.5" r="1.5" fill="#D2D6DB"/>
<circle cx="208.5" cy="15.5" r="1.5" fill="#D2D6DB"/>
<circle cx="217.5" cy="15.5" r="1.5" fill="#D2D6DB"/>
<circle cx="226.5" cy="15.5" r="1.5" fill="#D2D6DB"/>
<circle cx="235.5" cy="15.5" r="1.5" fill="#D2D6DB"/>
<circle cx="244.5" cy="15.5" r="1.5" fill="#D2D6DB"/>
<circle cx="253.5" cy="15.5" r="1.5" fill="#D2D6DB"/>
<circle cx="262.5" cy="15.5" r="1.5" fill="#D2D6DB"/>
<circle cx="271.5" cy="15.5" r="1.5" fill="#D2D6DB"/>
<circle cx="280.5" cy="15.5" r="1.5" fill="#D2D6DB"/>
<circle cx="289.5" cy="15.5" r="1.5" fill="#D2D6DB"/>
<circle cx="298.5" cy="15.5" r="1.5" fill="#D2D6DB"/>
<circle cx="1.5" cy="24.5" r="1.5" fill="#D2D6DB"/>
<circle cx="10.5" cy="24.5" r="1.5" fill="#D2D6DB"/>
<circle cx="19.5" cy="24.5" r="1.5" fill="#D2D6DB"/>
<circle cx="28.5" cy="24.5" r="1.5" fill="#D2D6DB"/>
<circle cx="37.5" cy="24.5" r="1.5" fill="#D2D6DB"/>
<circle cx="46.5" cy="24.5" r="1.5" fill="#D2D6DB"/>
<circle cx="55.5" cy="24.5" r="1.5" fill="#D2D6DB"/>
<circle cx="64.5" cy="24.5" r="1.5" fill="#D2D6DB"/>
<circle cx="73.5" cy="24.5" r="1.5" fill="#D2D6DB"/>
<circle cx="82.5" cy="24.5" r="1.5" fill="#D2D6DB"/>
<circle cx="91.5" cy="24.5" r="1.5" fill="#D2D6DB"/>
<circle cx="100.5" cy="24.5" r="1.5" fill="#D2D6DB"/>
<circle cx="109.5" cy="24.5" r="1.5" fill="#D2D6DB"/>
<circle cx="118.5" cy="24.5" r="1.5" fill="#D2D6DB"/>
<circle cx="127.5" cy="24.5" r="1.5" fill="#D2D6DB"/>
<circle cx="136.5" cy="24.5" r="1.5" fill="#D2D6DB"/>
<circle cx="145.5" cy="24.5" r="1.5" fill="#D2D6DB"/>
<circle cx="154.5" cy="24.5" r="1.5" fill="#D2D6DB"/>
<circle cx="163.5" cy="24.5" r="1.5" fill="#D2D6DB"/>
<circle cx="172.5" cy="24.5" r="1.5" fill="#D2D6DB"/>
<circle cx="181.5" cy="24.5" r="1.5" fill="#D2D6DB"/>
<circle cx="190.5" cy="24.5" r="1.5" fill="#D2D6DB"/>
<circle cx="199.5" cy="24.5" r="1.5" fill="#D2D6DB"/>
<circle cx="208.5" cy="24.5" r="1.5" fill="#D2D6DB"/>
<circle cx="217.5" cy="24.5" r="1.5" fill="#D2D6DB"/>
<circle cx="226.5" cy="24.5" r="1.5" fill="#D2D6DB"/>
<circle cx="235.5" cy="24.5" r="1.5" fill="#D2D6DB"/>
<circle cx="244.5" cy="24.5" r="1.5" fill="#D2D6DB"/>
<circle cx="253.5" cy="24.5" r="1.5" fill="#D2D6DB"/>
<circle cx="262.5" cy="24.5" r="1.5" fill="#D2D6DB"/>
<circle cx="271.5" cy="24.5" r="1.5" fill="#D2D6DB"/>
<circle cx="280.5" cy="24.5" r="1.5" fill="#D2D6DB"/>
<circle cx="289.5" cy="24.5" r="1.5" fill="#D2D6DB"/>
<circle cx="298.5" cy="24.5" r="1.5" fill="#D2D6DB"/>
<circle cx="1.5" cy="33.5" r="1.5" fill="#D2D6DB"/>
<circle cx="10.5" cy="33.5" r="1.5" fill="#D2D6DB"/>
<circle cx="19.5" cy="33.5" r="1.5" fill="#D2D6DB"/>
<circle cx="28.5" cy="33.5" r="1.5" fill="#D2D6DB"/>
<circle cx="37.5" cy="33.5" r="1.5" fill="#D2D6DB"/>
<circle cx="46.5" cy="33.5" r="1.5" fill="#D2D6DB"/>
<circle cx="55.5" cy="33.5" r="1.5" fill="#D2D6DB"/>
<circle cx="64.5" cy="33.5" r="1.5" fill="#D2D6DB"/>
<circle cx="73.5" cy="33.5" r="1.5" fill="#D2D6DB"/>
<circle cx="82.5" cy="33.5" r="1.5" fill="#D2D6DB"/>
<circle cx="91.5" cy="33.5" r="1.5" fill="#D2D6DB"/>
<circle cx="100.5" cy="33.5" r="1.5" fill="#D2D6DB"/>
<circle cx="109.5" cy="33.5" r="1.5" fill="#D2D6DB"/>
<circle cx="118.5" cy="33.5" r="1.5" fill="#D2D6DB"/>
<circle cx="127.5" cy="33.5" r="1.5" fill="#D2D6DB"/>
<circle cx="136.5" cy="33.5" r="1.5" fill="#D2D6DB"/>
<circle cx="145.5" cy="33.5" r="1.5" fill="#D2D6DB"/>
<circle cx="154.5" cy="33.5" r="1.5" fill="#D2D6DB"/>
<circle cx="163.5" cy="33.5" r="1.5" fill="#D2D6DB"/>
<circle cx="172.5" cy="33.5" r="1.5" fill="#D2D6DB"/>
<circle cx="181.5" cy="33.5" r="1.5" fill="#D2D6DB"/>
<circle cx="190.5" cy="33.5" r="1.5" fill="#D2D6DB"/>
<circle cx="199.5" cy="33.5" r="1.5" fill="#D2D6DB"/>
<circle cx="208.5" cy="33.5" r="1.5" fill="#D2D6DB"/>
<circle cx="217.5" cy="33.5" r="1.5" fill="#D2D6DB"/>
<circle cx="226.5" cy="33.5" r="1.5" fill="#D2D6DB"/>
<circle cx="235.5" cy="33.5" r="1.5" fill="#D2D6DB"/>
<circle cx="244.5" cy="33.5" r="1.5" fill="#D2D6DB"/>
<circle cx="253.5" cy="33.5" r="1.5" fill="#D2D6DB"/>
<circle cx="262.5" cy="33.5" r="1.5" fill="#D2D6DB"/>
<circle cx="271.5" cy="33.5" r="1.5" fill="#D2D6DB"/>
<circle cx="280.5" cy="33.5" r="1.5" fill="#D2D6DB"/>
<circle cx="289.5" cy="33.5" r="1.5" fill="#D2D6DB"/>
<circle cx="298.5" cy="33.5" r="1.5" fill="#D2D6DB"/>
<circle cx="1.5" cy="42.5" r="1.5" fill="#D2D6DB"/>
<circle cx="10.5" cy="42.5" r="1.5" fill="#D2D6DB"/>
<circle cx="19.5" cy="42.5" r="1.5" fill="#D2D6DB"/>
<circle cx="28.5" cy="42.5" r="1.5" fill="#D2D6DB"/>
<circle cx="37.5" cy="42.5" r="1.5" fill="#D2D6DB"/>
<circle cx="46.5" cy="42.5" r="1.5" fill="#D2D6DB"/>
<circle cx="55.5" cy="42.5" r="1.5" fill="#D2D6DB"/>
<circle cx="64.5" cy="42.5" r="1.5" fill="#D2D6DB"/>
<circle cx="73.5" cy="42.5" r="1.5" fill="#D2D6DB"/>
<circle cx="82.5" cy="42.5" r="1.5" fill="#D2D6DB"/>
<circle cx="91.5" cy="42.5" r="1.5" fill="#D2D6DB"/>
<circle cx="100.5" cy="42.5" r="1.5" fill="#D2D6DB"/>
<circle cx="109.5" cy="42.5" r="1.5" fill="#D2D6DB"/>
<circle cx="118.5" cy="42.5" r="1.5" fill="#D2D6DB"/>
<circle cx="127.5" cy="42.5" r="1.5" fill="#D2D6DB"/>
<circle cx="136.5" cy="42.5" r="1.5" fill="#D2D6DB"/>
<circle cx="145.5" cy="42.5" r="1.5" fill="#D2D6DB"/>
<circle cx="154.5" cy="42.5" r="1.5" fill="#D2D6DB"/>
<circle cx="163.5" cy="42.5" r="1.5" fill="#D2D6DB"/>
<circle cx="172.5" cy="42.5" r="1.5" fill="#D2D6DB"/>
<circle cx="181.5" cy="42.5" r="1.5" fill="#D2D6DB"/>
<circle cx="190.5" cy="42.5" r="1.5" fill="#D2D6DB"/>
<circle cx="199.5" cy="42.5" r="1.5" fill="#D2D6DB"/>
<circle cx="208.5" cy="42.5" r="1.5" fill="#D2D6DB"/>
<circle cx="217.5" cy="42.5" r="1.5" fill="#D2D6DB"/>
<circle cx="226.5" cy="42.5" r="1.5" fill="#D2D6DB"/>
<circle cx="235.5" cy="42.5" r="1.5" fill="#D2D6DB"/>
<circle cx="244.5" cy="42.5" r="1.5" fill="#D2D6DB"/>
<circle cx="253.5" cy="42.5" r="1.5" fill="#D2D6DB"/>
<circle cx="262.5" cy="42.5" r="1.5" fill="#D2D6DB"/>
<circle cx="271.5" cy="42.5" r="1.5" fill="#D2D6DB"/>
<circle cx="280.5" cy="42.5" r="1.5" fill="#D2D6DB"/>
<circle cx="289.5" cy="42.5" r="1.5" fill="#D2D6DB"/>
<circle cx="298.5" cy="42.5" r="1.5" fill="#D2D6DB"/>
<circle cx="1.5" cy="51.5" r="1.5" fill="#D2D6DB"/>
<circle cx="10.5" cy="51.5" r="1.5" fill="#D2D6DB"/>
<circle cx="19.5" cy="51.5" r="1.5" fill="#D2D6DB"/>
<circle cx="28.5" cy="51.5" r="1.5" fill="#D2D6DB"/>
<circle cx="37.5" cy="51.5" r="1.5" fill="#D2D6DB"/>
<circle cx="46.5" cy="51.5" r="1.5" fill="#D2D6DB"/>
<circle cx="55.5" cy="51.5" r="1.5" fill="#D2D6DB"/>
<circle cx="64.5" cy="51.5" r="1.5" fill="#D2D6DB"/>
<circle cx="73.5" cy="51.5" r="1.5" fill="#D2D6DB"/>
<circle cx="82.5" cy="51.5" r="1.5" fill="#D2D6DB"/>
<circle cx="91.5" cy="51.5" r="1.5" fill="#D2D6DB"/>
<circle cx="100.5" cy="51.5" r="1.5" fill="#D2D6DB"/>
<circle cx="109.5" cy="51.5" r="1.5" fill="#D2D6DB"/>
<circle cx="118.5" cy="51.5" r="1.5" fill="#D2D6DB"/>
<circle cx="127.5" cy="51.5" r="1.5" fill="#D2D6DB"/>
<circle cx="136.5" cy="51.5" r="1.5" fill="#D2D6DB"/>
<circle cx="145.5" cy="51.5" r="1.5" fill="#D2D6DB"/>
<circle cx="154.5" cy="51.5" r="1.5" fill="#D2D6DB"/>
<circle cx="163.5" cy="51.5" r="1.5" fill="#D2D6DB"/>
<circle cx="172.5" cy="51.5" r="1.5" fill="#D2D6DB"/>
<circle cx="181.5" cy="51.5" r="1.5" fill="#D2D6DB"/>
<circle cx="190.5" cy="51.5" r="1.5" fill="#D2D6DB"/>
<circle cx="199.5" cy="51.5" r="1.5" fill="#D2D6DB"/>
<circle cx="208.5" cy="51.5" r="1.5" fill="#D2D6DB"/>
<circle cx="217.5" cy="51.5" r="1.5" fill="#D2D6DB"/>
<circle cx="226.5" cy="51.5" r="1.5" fill="#D2D6DB"/>
<circle cx="235.5" cy="51.5" r="1.5" fill="#D2D6DB"/>
<circle cx="244.5" cy="51.5" r="1.5" fill="#D2D6DB"/>
<circle cx="253.5" cy="51.5" r="1.5" fill="#D2D6DB"/>
<circle cx="262.5" cy="51.5" r="1.5" fill="#D2D6DB"/>
<circle cx="271.5" cy="51.5" r="1.5" fill="#D2D6DB"/>
<circle cx="280.5" cy="51.5" r="1.5" fill="#D2D6DB"/>
<circle cx="289.5" cy="51.5" r="1.5" fill="#D2D6DB"/>
<circle cx="298.5" cy="51.5" r="1.5" fill="#D2D6DB"/>
<circle cx="1.5" cy="60.5" r="1.5" fill="#D2D6DB"/>
<circle cx="10.5" cy="60.5" r="1.5" fill="#D2D6DB"/>
<circle cx="19.5" cy="60.5" r="1.5" fill="#D2D6DB"/>
<circle cx="28.5" cy="60.5" r="1.5" fill="#D2D6DB"/>
<circle cx="37.5" cy="60.5" r="1.5" fill="#D2D6DB"/>
<circle cx="46.5" cy="60.5" r="1.5" fill="#D2D6DB"/>
<circle cx="55.5" cy="60.5" r="1.5" fill="#D2D6DB"/>
<circle cx="64.5" cy="60.5" r="1.5" fill="#D2D6DB"/>
<circle cx="73.5" cy="60.5" r="1.5" fill="#D2D6DB"/>
<circle cx="82.5" cy="60.5" r="1.5" fill="#D2D6DB"/>
<circle cx="91.5" cy="60.5" r="1.5" fill="#D2D6DB"/>
<circle cx="100.5" cy="60.5" r="1.5" fill="#D2D6DB"/>
<circle cx="109.5" cy="60.5" r="1.5" fill="#D2D6DB"/>
<circle cx="118.5" cy="60.5" r="1.5" fill="#D2D6DB"/>
<circle cx="127.5" cy="60.5" r="1.5" fill="#D2D6DB"/>
<circle cx="136.5" cy="60.5" r="1.5" fill="#D2D6DB"/>
<circle cx="145.5" cy="60.5" r="1.5" fill="#D2D6DB"/>
<circle cx="154.5" cy="60.5" r="1.5" fill="#D2D6DB"/>
<circle cx="163.5" cy="60.5" r="1.5" fill="#D2D6DB"/>
<circle cx="172.5" cy="60.5" r="1.5" fill="#D2D6DB"/>
<circle cx="181.5" cy="60.5" r="1.5" fill="#D2D6DB"/>
<circle cx="190.5" cy="60.5" r="1.5" fill="#D2D6DB"/>
<circle cx="199.5" cy="60.5" r="1.5" fill="#D2D6DB"/>
<circle cx="208.5" cy="60.5" r="1.5" fill="#D2D6DB"/>
<circle cx="217.5" cy="60.5" r="1.5" fill="#D2D6DB"/>
<circle cx="226.5" cy="60.5" r="1.5" fill="#D2D6DB"/>
<circle cx="235.5" cy="60.5" r="1.5" fill="#D2D6DB"/>
<circle cx="244.5" cy="60.5" r="1.5" fill="#D2D6DB"/>
<circle cx="253.5" cy="60.5" r="1.5" fill="#D2D6DB"/>
<circle cx="262.5" cy="60.5" r="1.5" fill="#D2D6DB"/>
<circle cx="271.5" cy="60.5" r="1.5" fill="#D2D6DB"/>
<circle cx="280.5" cy="60.5" r="1.5" fill="#D2D6DB"/>
<circle cx="289.5" cy="60.5" r="1.5" fill="#D2D6DB"/>
<circle cx="298.5" cy="60.5" r="1.5" fill="#D2D6DB"/>
<circle cx="1.5" cy="69.5" r="1.5" fill="#D2D6DB"/>
<circle cx="10.5" cy="69.5" r="1.5" fill="#D2D6DB"/>
<circle cx="19.5" cy="69.5" r="1.5" fill="#D2D6DB"/>
<circle cx="28.5" cy="69.5" r="1.5" fill="#D2D6DB"/>
<circle cx="37.5" cy="69.5" r="1.5" fill="#D2D6DB"/>
<circle cx="46.5" cy="69.5" r="1.5" fill="#D2D6DB"/>
<circle cx="55.5" cy="69.5" r="1.5" fill="#D2D6DB"/>
<circle cx="64.5" cy="69.5" r="1.5" fill="#D2D6DB"/>
<circle cx="73.5" cy="69.5" r="1.5" fill="#D2D6DB"/>
<circle cx="82.5" cy="69.5" r="1.5" fill="#D2D6DB"/>
<circle cx="91.5" cy="69.5" r="1.5" fill="#D2D6DB"/>
<circle cx="100.5" cy="69.5" r="1.5" fill="#D2D6DB"/>
<circle cx="109.5" cy="69.5" r="1.5" fill="#D2D6DB"/>
<circle cx="118.5" cy="69.5" r="1.5" fill="#D2D6DB"/>
<circle cx="127.5" cy="69.5" r="1.5" fill="#D2D6DB"/>
<circle cx="136.5" cy="69.5" r="1.5" fill="#D2D6DB"/>
<circle cx="145.5" cy="69.5" r="1.5" fill="#D2D6DB"/>
<circle cx="154.5" cy="69.5" r="1.5" fill="#D2D6DB"/>
<circle cx="163.5" cy="69.5" r="1.5" fill="#D2D6DB"/>
<circle cx="172.5" cy="69.5" r="1.5" fill="#D2D6DB"/>
<circle cx="181.5" cy="69.5" r="1.5" fill="#D2D6DB"/>
<circle cx="190.5" cy="69.5" r="1.5" fill="#D2D6DB"/>
<circle cx="199.5" cy="69.5" r="1.5" fill="#D2D6DB"/>
<circle cx="208.5" cy="69.5" r="1.5" fill="#D2D6DB"/>
<circle cx="217.5" cy="69.5" r="1.5" fill="#D2D6DB"/>
<circle cx="226.5" cy="69.5" r="1.5" fill="#D2D6DB"/>
<circle cx="235.5" cy="69.5" r="1.5" fill="#D2D6DB"/>
<circle cx="244.5" cy="69.5" r="1.5" fill="#D2D6DB"/>
<circle cx="253.5" cy="69.5" r="1.5" fill="#D2D6DB"/>
<circle cx="262.5" cy="69.5" r="1.5" fill="#D2D6DB"/>
<circle cx="271.5" cy="69.5" r="1.5" fill="#D2D6DB"/>
<circle cx="280.5" cy="69.5" r="1.5" fill="#D2D6DB"/>
<circle cx="289.5" cy="69.5" r="1.5" fill="#D2D6DB"/>
<circle cx="298.5" cy="69.5" r="1.5" fill="#D2D6DB"/>
<circle cx="1.5" cy="78.5" r="1.5" fill="#D2D6DB"/>
<circle cx="10.5" cy="78.5" r="1.5" fill="#D2D6DB"/>
<circle cx="19.5" cy="78.5" r="1.5" fill="#D2D6DB"/>
<circle cx="28.5" cy="78.5" r="1.5" fill="#D2D6DB"/>
<circle cx="37.5" cy="78.5" r="1.5" fill="#D2D6DB"/>
<circle cx="46.5" cy="78.5" r="1.5" fill="#D2D6DB"/>
<circle cx="55.5" cy="78.5" r="1.5" fill="#D2D6DB"/>
<circle cx="64.5" cy="78.5" r="1.5" fill="#D2D6DB"/>
<circle cx="73.5" cy="78.5" r="1.5" fill="#D2D6DB"/>
<circle cx="82.5" cy="78.5" r="1.5" fill="#D2D6DB"/>
<circle cx="91.5" cy="78.5" r="1.5" fill="#D2D6DB"/>
<circle cx="100.5" cy="78.5" r="1.5" fill="#D2D6DB"/>
<circle cx="109.5" cy="78.5" r="1.5" fill="#D2D6DB"/>
<circle cx="118.5" cy="78.5" r="1.5" fill="#D2D6DB"/>
<circle cx="127.5" cy="78.5" r="1.5" fill="#D2D6DB"/>
<circle cx="136.5" cy="78.5" r="1.5" fill="#D2D6DB"/>
<circle cx="145.5" cy="78.5" r="1.5" fill="#D2D6DB"/>
<circle cx="154.5" cy="78.5" r="1.5" fill="#D2D6DB"/>
<circle cx="163.5" cy="78.5" r="1.5" fill="#D2D6DB"/>
<circle cx="172.5" cy="78.5" r="1.5" fill="#D2D6DB"/>
<circle cx="181.5" cy="78.5" r="1.5" fill="#D2D6DB"/>
<circle cx="190.5" cy="78.5" r="1.5" fill="#D2D6DB"/>
<circle cx="199.5" cy="78.5" r="1.5" fill="#D2D6DB"/>
<circle cx="208.5" cy="78.5" r="1.5" fill="#D2D6DB"/>
<circle cx="217.5" cy="78.5" r="1.5" fill="#D2D6DB"/>
<circle cx="226.5" cy="78.5" r="1.5" fill="#D2D6DB"/>
<circle cx="235.5" cy="78.5" r="1.5" fill="#D2D6DB"/>
<circle cx="244.5" cy="78.5" r="1.5" fill="#D2D6DB"/>
<circle cx="253.5" cy="78.5" r="1.5" fill="#D2D6DB"/>
<circle cx="262.5" cy="78.5" r="1.5" fill="#D2D6DB"/>
<circle cx="271.5" cy="78.5" r="1.5" fill="#D2D6DB"/>
<circle cx="280.5" cy="78.5" r="1.5" fill="#D2D6DB"/>
<circle cx="289.5" cy="78.5" r="1.5" fill="#D2D6DB"/>
<circle cx="298.5" cy="78.5" r="1.5" fill="#D2D6DB"/>
<circle cx="1.5" cy="87.5" r="1.5" fill="#D2D6DB"/>
<circle cx="10.5" cy="87.5" r="1.5" fill="#D2D6DB"/>
<circle cx="19.5" cy="87.5" r="1.5" fill="#D2D6DB"/>
<circle cx="28.5" cy="87.5" r="1.5" fill="#D2D6DB"/>
<circle cx="37.5" cy="87.5" r="1.5" fill="#D2D6DB"/>
<circle cx="46.5" cy="87.5" r="1.5" fill="#D2D6DB"/>
<circle cx="55.5" cy="87.5" r="1.5" fill="#D2D6DB"/>
<circle cx="64.5" cy="87.5" r="1.5" fill="#D2D6DB"/>
<circle cx="73.5" cy="87.5" r="1.5" fill="#D2D6DB"/>
<circle cx="82.5" cy="87.5" r="1.5" fill="#D2D6DB"/>
<circle cx="91.5" cy="87.5" r="1.5" fill="#D2D6DB"/>
<circle cx="100.5" cy="87.5" r="1.5" fill="#D2D6DB"/>
<circle cx="109.5" cy="87.5" r="1.5" fill="#D2D6DB"/>
<circle cx="118.5" cy="87.5" r="1.5" fill="#D2D6DB"/>
<circle cx="127.5" cy="87.5" r="1.5" fill="#D2D6DB"/>
<circle cx="136.5" cy="87.5" r="1.5" fill="#D2D6DB"/>
<circle cx="145.5" cy="87.5" r="1.5" fill="#D2D6DB"/>
<circle cx="154.5" cy="87.5" r="1.5" fill="#D2D6DB"/>
<circle cx="163.5" cy="87.5" r="1.5" fill="#D2D6DB"/>
<circle cx="172.5" cy="87.5" r="1.5" fill="#D2D6DB"/>
<circle cx="181.5" cy="87.5" r="1.5" fill="#D2D6DB"/>
<circle cx="190.5" cy="87.5" r="1.5" fill="#D2D6DB"/>
<circle cx="199.5" cy="87.5" r="1.5" fill="#D2D6DB"/>
<circle cx="208.5" cy="87.5" r="1.5" fill="#D2D6DB"/>
<circle cx="217.5" cy="87.5" r="1.5" fill="#D2D6DB"/>
<circle cx="226.5" cy="87.5" r="1.5" fill="#D2D6DB"/>
<circle cx="235.5" cy="87.5" r="1.5" fill="#D2D6DB"/>
<circle cx="244.5" cy="87.5" r="1.5" fill="#D2D6DB"/>
<circle cx="253.5" cy="87.5" r="1.5" fill="#D2D6DB"/>
<circle cx="262.5" cy="87.5" r="1.5" fill="#D2D6DB"/>
<circle cx="271.5" cy="87.5" r="1.5" fill="#D2D6DB"/>
<circle cx="280.5" cy="87.5" r="1.5" fill="#D2D6DB"/>
<circle cx="289.5" cy="87.5" r="1.5" fill="#D2D6DB"/>
<circle cx="298.5" cy="87.5" r="1.5" fill="#D2D6DB"/>
<circle cx="1.5" cy="96.5" r="1.5" fill="#D2D6DB"/>
<circle cx="10.5" cy="96.5" r="1.5" fill="#D2D6DB"/>
<circle cx="19.5" cy="96.5" r="1.5" fill="#D2D6DB"/>
<circle cx="28.5" cy="96.5" r="1.5" fill="#D2D6DB"/>
<circle cx="37.5" cy="96.5" r="1.5" fill="#D2D6DB"/>
<circle cx="46.5" cy="96.5" r="1.5" fill="#D2D6DB"/>
<circle cx="55.5" cy="96.5" r="1.5" fill="#D2D6DB"/>
<circle cx="64.5" cy="96.5" r="1.5" fill="#D2D6DB"/>
<circle cx="73.5" cy="96.5" r="1.5" fill="#D2D6DB"/>
<circle cx="82.5" cy="96.5" r="1.5" fill="#D2D6DB"/>
<circle cx="91.5" cy="96.5" r="1.5" fill="#D2D6DB"/>
<circle cx="100.5" cy="96.5" r="1.5" fill="#D2D6DB"/>
<circle cx="109.5" cy="96.5" r="1.5" fill="#D2D6DB"/>
<circle cx="118.5" cy="96.5" r="1.5" fill="#D2D6DB"/>
<circle cx="127.5" cy="96.5" r="1.5" fill="#D2D6DB"/>
<circle cx="136.5" cy="96.5" r="1.5" fill="#D2D6DB"/>
<circle cx="145.5" cy="96.5" r="1.5" fill="#D2D6DB"/>
<circle cx="154.5" cy="96.5" r="1.5" fill="#D2D6DB"/>
<circle cx="163.5" cy="96.5" r="1.5" fill="#D2D6DB"/>
<circle cx="172.5" cy="96.5" r="1.5" fill="#D2D6DB"/>
<circle cx="181.5" cy="96.5" r="1.5" fill="#D2D6DB"/>
<circle cx="190.5" cy="96.5" r="1.5" fill="#D2D6DB"/>
<circle cx="199.5" cy="96.5" r="1.5" fill="#D2D6DB"/>
<circle cx="208.5" cy="96.5" r="1.5" fill="#D2D6DB"/>
<circle cx="217.5" cy="96.5" r="1.5" fill="#D2D6DB"/>
<circle cx="226.5" cy="96.5" r="1.5" fill="#D2D6DB"/>
<circle cx="235.5" cy="96.5" r="1.5" fill="#D2D6DB"/>
<circle cx="244.5" cy="96.5" r="1.5" fill="#D2D6DB"/>
<circle cx="253.5" cy="96.5" r="1.5" fill="#D2D6DB"/>
<circle cx="262.5" cy="96.5" r="1.5" fill="#D2D6DB"/>
<circle cx="271.5" cy="96.5" r="1.5" fill="#D2D6DB"/>
<circle cx="280.5" cy="96.5" r="1.5" fill="#D2D6DB"/>
<circle cx="289.5" cy="96.5" r="1.5" fill="#D2D6DB"/>
<circle cx="298.5" cy="96.5" r="1.5" fill="#D2D6DB"/>
<circle cx="1.5" cy="105.5" r="1.5" fill="#D2D6DB"/>
<circle cx="10.5" cy="105.5" r="1.5" fill="#D2D6DB"/>
<circle cx="19.5" cy="105.5" r="1.5" fill="#D2D6DB"/>
<circle cx="28.5" cy="105.5" r="1.5" fill="#D2D6DB"/>
<circle cx="37.5" cy="105.5" r="1.5" fill="#D2D6DB"/>
<circle cx="46.5" cy="105.5" r="1.5" fill="#D2D6DB"/>
<circle cx="55.5" cy="105.5" r="1.5" fill="#D2D6DB"/>
<circle cx="64.5" cy="105.5" r="1.5" fill="#D2D6DB"/>
<circle cx="73.5" cy="105.5" r="1.5" fill="#D2D6DB"/>
<circle cx="82.5" cy="105.5" r="1.5" fill="#D2D6DB"/>
<circle cx="91.5" cy="105.5" r="1.5" fill="#D2D6DB"/>
<circle cx="100.5" cy="105.5" r="1.5" fill="#D2D6DB"/>
<circle cx="109.5" cy="105.5" r="1.5" fill="#D2D6DB"/>
<circle cx="118.5" cy="105.5" r="1.5" fill="#D2D6DB"/>
<circle cx="127.5" cy="105.5" r="1.5" fill="#D2D6DB"/>
<circle cx="136.5" cy="105.5" r="1.5" fill="#D2D6DB"/>
<circle cx="145.5" cy="105.5" r="1.5" fill="#D2D6DB"/>
<circle cx="154.5" cy="105.5" r="1.5" fill="#D2D6DB"/>
<circle cx="163.5" cy="105.5" r="1.5" fill="#D2D6DB"/>
<circle cx="172.5" cy="105.5" r="1.5" fill="#D2D6DB"/>
<circle cx="181.5" cy="105.5" r="1.5" fill="#D2D6DB"/>
<circle cx="190.5" cy="105.5" r="1.5" fill="#D2D6DB"/>
<circle cx="199.5" cy="105.5" r="1.5" fill="#D2D6DB"/>
<circle cx="208.5" cy="105.5" r="1.5" fill="#D2D6DB"/>
<circle cx="217.5" cy="105.5" r="1.5" fill="#D2D6DB"/>
<circle cx="226.5" cy="105.5" r="1.5" fill="#D2D6DB"/>
<circle cx="235.5" cy="105.5" r="1.5" fill="#D2D6DB"/>
<circle cx="244.5" cy="105.5" r="1.5" fill="#D2D6DB"/>
<circle cx="253.5" cy="105.5" r="1.5" fill="#D2D6DB"/>
<circle cx="262.5" cy="105.5" r="1.5" fill="#D2D6DB"/>
<circle cx="271.5" cy="105.5" r="1.5" fill="#D2D6DB"/>
<circle cx="280.5" cy="105.5" r="1.5" fill="#D2D6DB"/>
<circle cx="289.5" cy="105.5" r="1.5" fill="#D2D6DB"/>
<circle cx="298.5" cy="105.5" r="1.5" fill="#D2D6DB"/>
<circle cx="1.5" cy="114.5" r="1.5" fill="#D2D6DB"/>
<circle cx="10.5" cy="114.5" r="1.5" fill="#D2D6DB"/>
<circle cx="19.5" cy="114.5" r="1.5" fill="#D2D6DB"/>
<circle cx="28.5" cy="114.5" r="1.5" fill="#D2D6DB"/>
<circle cx="37.5" cy="114.5" r="1.5" fill="#D2D6DB"/>
<circle cx="46.5" cy="114.5" r="1.5" fill="#D2D6DB"/>
<circle cx="55.5" cy="114.5" r="1.5" fill="#D2D6DB"/>
<circle cx="64.5" cy="114.5" r="1.5" fill="#D2D6DB"/>
<circle cx="73.5" cy="114.5" r="1.5" fill="#D2D6DB"/>
<circle cx="82.5" cy="114.5" r="1.5" fill="#D2D6DB"/>
<circle cx="91.5" cy="114.5" r="1.5" fill="#D2D6DB"/>
<circle cx="100.5" cy="114.5" r="1.5" fill="#D2D6DB"/>
<circle cx="109.5" cy="114.5" r="1.5" fill="#D2D6DB"/>
<circle cx="118.5" cy="114.5" r="1.5" fill="#D2D6DB"/>
<circle cx="127.5" cy="114.5" r="1.5" fill="#D2D6DB"/>
<circle cx="136.5" cy="114.5" r="1.5" fill="#D2D6DB"/>
<circle cx="145.5" cy="114.5" r="1.5" fill="#D2D6DB"/>
<circle cx="154.5" cy="114.5" r="1.5" fill="#D2D6DB"/>
<circle cx="163.5" cy="114.5" r="1.5" fill="#D2D6DB"/>
<circle cx="172.5" cy="114.5" r="1.5" fill="#D2D6DB"/>
<circle cx="181.5" cy="114.5" r="1.5" fill="#D2D6DB"/>
<circle cx="190.5" cy="114.5" r="1.5" fill="#D2D6DB"/>
<circle cx="199.5" cy="114.5" r="1.5" fill="#D2D6DB"/>
<circle cx="208.5" cy="114.5" r="1.5" fill="#D2D6DB"/>
<circle cx="217.5" cy="114.5" r="1.5" fill="#D2D6DB"/>
<circle cx="226.5" cy="114.5" r="1.5" fill="#D2D6DB"/>
<circle cx="235.5" cy="114.5" r="1.5" fill="#D2D6DB"/>
<circle cx="244.5" cy="114.5" r="1.5" fill="#D2D6DB"/>
<circle cx="253.5" cy="114.5" r="1.5" fill="#D2D6DB"/>
<circle cx="262.5" cy="114.5" r="1.5" fill="#D2D6DB"/>
<circle cx="271.5" cy="114.5" r="1.5" fill="#D2D6DB"/>
<circle cx="280.5" cy="114.5" r="1.5" fill="#D2D6DB"/>
<circle cx="289.5" cy="114.5" r="1.5" fill="#D2D6DB"/>
<circle cx="298.5" cy="114.5" r="1.5" fill="#D2D6DB"/>
<circle cx="1.5" cy="123.5" r="1.5" fill="#D2D6DB"/>
<circle cx="10.5" cy="123.5" r="1.5" fill="#D2D6DB"/>
<circle cx="19.5" cy="123.5" r="1.5" fill="#D2D6DB"/>
<circle cx="28.5" cy="123.5" r="1.5" fill="#D2D6DB"/>
<circle cx="37.5" cy="123.5" r="1.5" fill="#D2D6DB"/>
<circle cx="46.5" cy="123.5" r="1.5" fill="#D2D6DB"/>
<circle cx="55.5" cy="123.5" r="1.5" fill="#D2D6DB"/>
<circle cx="64.5" cy="123.5" r="1.5" fill="#D2D6DB"/>
<circle cx="73.5" cy="123.5" r="1.5" fill="#D2D6DB"/>
<circle cx="82.5" cy="123.5" r="1.5" fill="#D2D6DB"/>
<circle cx="91.5" cy="123.5" r="1.5" fill="#D2D6DB"/>
<circle cx="100.5" cy="123.5" r="1.5" fill="#D2D6DB"/>
<circle cx="109.5" cy="123.5" r="1.5" fill="#D2D6DB"/>
<circle cx="118.5" cy="123.5" r="1.5" fill="#D2D6DB"/>
<circle cx="127.5" cy="123.5" r="1.5" fill="#D2D6DB"/>
<circle cx="136.5" cy="123.5" r="1.5" fill="#D2D6DB"/>
<circle cx="145.5" cy="123.5" r="1.5" fill="#D2D6DB"/>
<circle cx="154.5" cy="123.5" r="1.5" fill="#D2D6DB"/>
<circle cx="163.5" cy="123.5" r="1.5" fill="#D2D6DB"/>
<circle cx="172.5" cy="123.5" r="1.5" fill="#D2D6DB"/>
<circle cx="181.5" cy="123.5" r="1.5" fill="#D2D6DB"/>
<circle cx="190.5" cy="123.5" r="1.5" fill="#D2D6DB"/>
<circle cx="199.5" cy="123.5" r="1.5" fill="#D2D6DB"/>
<circle cx="208.5" cy="123.5" r="1.5" fill="#D2D6DB"/>
<circle cx="217.5" cy="123.5" r="1.5" fill="#D2D6DB"/>
<circle cx="226.5" cy="123.5" r="1.5" fill="#D2D6DB"/>
<circle cx="235.5" cy="123.5" r="1.5" fill="#D2D6DB"/>
<circle cx="244.5" cy="123.5" r="1.5" fill="#D2D6DB"/>
<circle cx="253.5" cy="123.5" r="1.5" fill="#D2D6DB"/>
<circle cx="262.5" cy="123.5" r="1.5" fill="#D2D6DB"/>
<circle cx="271.5" cy="123.5" r="1.5" fill="#D2D6DB"/>
<circle cx="280.5" cy="123.5" r="1.5" fill="#D2D6DB"/>
<circle cx="289.5" cy="123.5" r="1.5" fill="#D2D6DB"/>
<circle cx="298.5" cy="123.5" r="1.5" fill="#D2D6DB"/>
<circle cx="1.5" cy="132.5" r="1.5" fill="#D2D6DB"/>
<circle cx="10.5" cy="132.5" r="1.5" fill="#D2D6DB"/>
<circle cx="19.5" cy="132.5" r="1.5" fill="#D2D6DB"/>
<circle cx="28.5" cy="132.5" r="1.5" fill="#D2D6DB"/>
<circle cx="37.5" cy="132.5" r="1.5" fill="#D2D6DB"/>
<circle cx="46.5" cy="132.5" r="1.5" fill="#D2D6DB"/>
<circle cx="55.5" cy="132.5" r="1.5" fill="#D2D6DB"/>
<circle cx="64.5" cy="132.5" r="1.5" fill="#D2D6DB"/>
<circle cx="73.5" cy="132.5" r="1.5" fill="#D2D6DB"/>
<circle cx="82.5" cy="132.5" r="1.5" fill="#D2D6DB"/>
<circle cx="91.5" cy="132.5" r="1.5" fill="#D2D6DB"/>
<circle cx="100.5" cy="132.5" r="1.5" fill="#D2D6DB"/>
<circle cx="109.5" cy="132.5" r="1.5" fill="#D2D6DB"/>
<circle cx="118.5" cy="132.5" r="1.5" fill="#D2D6DB"/>
<circle cx="127.5" cy="132.5" r="1.5" fill="#D2D6DB"/>
<circle cx="136.5" cy="132.5" r="1.5" fill="#D2D6DB"/>
<circle cx="145.5" cy="132.5" r="1.5" fill="#D2D6DB"/>
<circle cx="154.5" cy="132.5" r="1.5" fill="#D2D6DB"/>
<circle cx="163.5" cy="132.5" r="1.5" fill="#D2D6DB"/>
<circle cx="172.5" cy="132.5" r="1.5" fill="#D2D6DB"/>
<circle cx="181.5" cy="132.5" r="1.5" fill="#D2D6DB"/>
<circle cx="190.5" cy="132.5" r="1.5" fill="#D2D6DB"/>
<circle cx="199.5" cy="132.5" r="1.5" fill="#D2D6DB"/>
<circle cx="208.5" cy="132.5" r="1.5" fill="#D2D6DB"/>
<circle cx="217.5" cy="132.5" r="1.5" fill="#D2D6DB"/>
<circle cx="226.5" cy="132.5" r="1.5" fill="#D2D6DB"/>
<circle cx="235.5" cy="132.5" r="1.5" fill="#D2D6DB"/>
<circle cx="244.5" cy="132.5" r="1.5" fill="#D2D6DB"/>
<circle cx="253.5" cy="132.5" r="1.5" fill="#D2D6DB"/>
<circle cx="262.5" cy="132.5" r="1.5" fill="#D2D6DB"/>
<circle cx="271.5" cy="132.5" r="1.5" fill="#D2D6DB"/>
<circle cx="280.5" cy="132.5" r="1.5" fill="#D2D6DB"/>
<circle cx="289.5" cy="132.5" r="1.5" fill="#D2D6DB"/>
<circle cx="298.5" cy="132.5" r="1.5" fill="#D2D6DB"/>
<circle cx="1.5" cy="141.5" r="1.5" fill="#D2D6DB"/>
<circle cx="10.5" cy="141.5" r="1.5" fill="#D2D6DB"/>
<circle cx="19.5" cy="141.5" r="1.5" fill="#D2D6DB"/>
<circle cx="28.5" cy="141.5" r="1.5" fill="#D2D6DB"/>
<circle cx="37.5" cy="141.5" r="1.5" fill="#D2D6DB"/>
<circle cx="46.5" cy="141.5" r="1.5" fill="#D2D6DB"/>
<circle cx="55.5" cy="141.5" r="1.5" fill="#D2D6DB"/>
<circle cx="64.5" cy="141.5" r="1.5" fill="#D2D6DB"/>
<circle cx="73.5" cy="141.5" r="1.5" fill="#D2D6DB"/>
<circle cx="82.5" cy="141.5" r="1.5" fill="#D2D6DB"/>
<circle cx="91.5" cy="141.5" r="1.5" fill="#D2D6DB"/>
<circle cx="100.5" cy="141.5" r="1.5" fill="#D2D6DB"/>
<circle cx="109.5" cy="141.5" r="1.5" fill="#D2D6DB"/>
<circle cx="118.5" cy="141.5" r="1.5" fill="#D2D6DB"/>
<circle cx="127.5" cy="141.5" r="1.5" fill="#D2D6DB"/>
<circle cx="136.5" cy="141.5" r="1.5" fill="#D2D6DB"/>
<circle cx="145.5" cy="141.5" r="1.5" fill="#D2D6DB"/>
<circle cx="154.5" cy="141.5" r="1.5" fill="#D2D6DB"/>
<circle cx="163.5" cy="141.5" r="1.5" fill="#D2D6DB"/>
<circle cx="172.5" cy="141.5" r="1.5" fill="#D2D6DB"/>
<circle cx="181.5" cy="141.5" r="1.5" fill="#D2D6DB"/>
<circle cx="190.5" cy="141.5" r="1.5" fill="#D2D6DB"/>
<circle cx="199.5" cy="141.5" r="1.5" fill="#D2D6DB"/>
<circle cx="208.5" cy="141.5" r="1.5" fill="#D2D6DB"/>
<circle cx="217.5" cy="141.5" r="1.5" fill="#D2D6DB"/>
<circle cx="226.5" cy="141.5" r="1.5" fill="#D2D6DB"/>
<circle cx="235.5" cy="141.5" r="1.5" fill="#D2D6DB"/>
<circle cx="244.5" cy="141.5" r="1.5" fill="#D2D6DB"/>
<circle cx="253.5" cy="141.5" r="1.5" fill="#D2D6DB"/>
<circle cx="262.5" cy="141.5" r="1.5" fill="#D2D6DB"/>
<circle cx="271.5" cy="141.5" r="1.5" fill="#D2D6DB"/>
<circle cx="280.5" cy="141.5" r="1.5" fill="#D2D6DB"/>
<circle cx="289.5" cy="141.5" r="1.5" fill="#D2D6DB"/>
<circle cx="298.5" cy="141.5" r="1.5" fill="#D2D6DB"/>
<circle cx="1.5" cy="150.5" r="1.5" fill="#D2D6DB"/>
<circle cx="10.5" cy="150.5" r="1.5" fill="#D2D6DB"/>
<circle cx="19.5" cy="150.5" r="1.5" fill="#D2D6DB"/>
<circle cx="28.5" cy="150.5" r="1.5" fill="#D2D6DB"/>
<circle cx="37.5" cy="150.5" r="1.5" fill="#D2D6DB"/>
<circle cx="46.5" cy="150.5" r="1.5" fill="#D2D6DB"/>
<circle cx="55.5" cy="150.5" r="1.5" fill="#D2D6DB"/>
<circle cx="64.5" cy="150.5" r="1.5" fill="#D2D6DB"/>
<circle cx="73.5" cy="150.5" r="1.5" fill="#D2D6DB"/>
<circle cx="82.5" cy="150.5" r="1.5" fill="#D2D6DB"/>
<circle cx="91.5" cy="150.5" r="1.5" fill="#D2D6DB"/>
<circle cx="100.5" cy="150.5" r="1.5" fill="#D2D6DB"/>
<circle cx="109.5" cy="150.5" r="1.5" fill="#D2D6DB"/>
<circle cx="118.5" cy="150.5" r="1.5" fill="#D2D6DB"/>
<circle cx="127.5" cy="150.5" r="1.5" fill="#D2D6DB"/>
<circle cx="136.5" cy="150.5" r="1.5" fill="#D2D6DB"/>
<circle cx="145.5" cy="150.5" r="1.5" fill="#D2D6DB"/>
<circle cx="154.5" cy="150.5" r="1.5" fill="#D2D6DB"/>
<circle cx="163.5" cy="150.5" r="1.5" fill="#D2D6DB"/>
<circle cx="172.5" cy="150.5" r="1.5" fill="#D2D6DB"/>
<circle cx="181.5" cy="150.5" r="1.5" fill="#D2D6DB"/>
<circle cx="190.5" cy="150.5" r="1.5" fill="#D2D6DB"/>
<circle cx="199.5" cy="150.5" r="1.5" fill="#D2D6DB"/>
<circle cx="208.5" cy="150.5" r="1.5" fill="#D2D6DB"/>
<circle cx="217.5" cy="150.5" r="1.5" fill="#D2D6DB"/>
<circle cx="226.5" cy="150.5" r="1.5" fill="#D2D6DB"/>
<circle cx="235.5" cy="150.5" r="1.5" fill="#D2D6DB"/>
<circle cx="244.5" cy="150.5" r="1.5" fill="#D2D6DB"/>
<circle cx="253.5" cy="150.5" r="1.5" fill="#D2D6DB"/>
<circle cx="262.5" cy="150.5" r="1.5" fill="#D2D6DB"/>
<circle cx="271.5" cy="150.5" r="1.5" fill="#D2D6DB"/>
<circle cx="280.5" cy="150.5" r="1.5" fill="#D2D6DB"/>
<circle cx="289.5" cy="150.5" r="1.5" fill="#D2D6DB"/>
<circle cx="298.5" cy="150.5" r="1.5" fill="#D2D6DB"/>
<circle cx="1.5" cy="159.5" r="1.5" fill="#D2D6DB"/>
<circle cx="10.5" cy="159.5" r="1.5" fill="#D2D6DB"/>
<circle cx="19.5" cy="159.5" r="1.5" fill="#D2D6DB"/>
<circle cx="28.5" cy="159.5" r="1.5" fill="#D2D6DB"/>
<circle cx="37.5" cy="159.5" r="1.5" fill="#D2D6DB"/>
<circle cx="46.5" cy="159.5" r="1.5" fill="#D2D6DB"/>
<circle cx="55.5" cy="159.5" r="1.5" fill="#D2D6DB"/>
<circle cx="64.5" cy="159.5" r="1.5" fill="#D2D6DB"/>
<circle cx="73.5" cy="159.5" r="1.5" fill="#D2D6DB"/>
<circle cx="82.5" cy="159.5" r="1.5" fill="#D2D6DB"/>
<circle cx="91.5" cy="159.5" r="1.5" fill="#D2D6DB"/>
<circle cx="100.5" cy="159.5" r="1.5" fill="#D2D6DB"/>
<circle cx="109.5" cy="159.5" r="1.5" fill="#D2D6DB"/>
<circle cx="118.5" cy="159.5" r="1.5" fill="#D2D6DB"/>
<circle cx="127.5" cy="159.5" r="1.5" fill="#D2D6DB"/>
<circle cx="136.5" cy="159.5" r="1.5" fill="#D2D6DB"/>
<circle cx="145.5" cy="159.5" r="1.5" fill="#D2D6DB"/>
<circle cx="154.5" cy="159.5" r="1.5" fill="#D2D6DB"/>
<circle cx="163.5" cy="159.5" r="1.5" fill="#D2D6DB"/>
<circle cx="172.5" cy="159.5" r="1.5" fill="#D2D6DB"/>
<circle cx="181.5" cy="159.5" r="1.5" fill="#D2D6DB"/>
<circle cx="190.5" cy="159.5" r="1.5" fill="#D2D6DB"/>
<circle cx="199.5" cy="159.5" r="1.5" fill="#D2D6DB"/>
<circle cx="208.5" cy="159.5" r="1.5" fill="#D2D6DB"/>
<circle cx="217.5" cy="159.5" r="1.5" fill="#D2D6DB"/>
<circle cx="226.5" cy="159.5" r="1.5" fill="#D2D6DB"/>
<circle cx="235.5" cy="159.5" r="1.5" fill="#D2D6DB"/>
<circle cx="244.5" cy="159.5" r="1.5" fill="#D2D6DB"/>
<circle cx="253.5" cy="159.5" r="1.5" fill="#D2D6DB"/>
<circle cx="262.5" cy="159.5" r="1.5" fill="#D2D6DB"/>
<circle cx="271.5" cy="159.5" r="1.5" fill="#D2D6DB"/>
<circle cx="280.5" cy="159.5" r="1.5" fill="#D2D6DB"/>
<circle cx="289.5" cy="159.5" r="1.5" fill="#D2D6DB"/>
<circle cx="298.5" cy="159.5" r="1.5" fill="#D2D6DB"/>
<circle cx="1.5" cy="168.5" r="1.5" fill="#D2D6DB"/>
<circle cx="10.5" cy="168.5" r="1.5" fill="#D2D6DB"/>
<circle cx="19.5" cy="168.5" r="1.5" fill="#D2D6DB"/>
<circle cx="28.5" cy="168.5" r="1.5" fill="#D2D6DB"/>
<circle cx="37.5" cy="168.5" r="1.5" fill="#D2D6DB"/>
<circle cx="46.5" cy="168.5" r="1.5" fill="#D2D6DB"/>
<circle cx="55.5" cy="168.5" r="1.5" fill="#D2D6DB"/>
<circle cx="64.5" cy="168.5" r="1.5" fill="#D2D6DB"/>
<circle cx="73.5" cy="168.5" r="1.5" fill="#D2D6DB"/>
<circle cx="82.5" cy="168.5" r="1.5" fill="#D2D6DB"/>
<circle cx="91.5" cy="168.5" r="1.5" fill="#D2D6DB"/>
<circle cx="100.5" cy="168.5" r="1.5" fill="#D2D6DB"/>
<circle cx="109.5" cy="168.5" r="1.5" fill="#D2D6DB"/>
<circle cx="118.5" cy="168.5" r="1.5" fill="#D2D6DB"/>
<circle cx="127.5" cy="168.5" r="1.5" fill="#D2D6DB"/>
<circle cx="136.5" cy="168.5" r="1.5" fill="#D2D6DB"/>
<circle cx="145.5" cy="168.5" r="1.5" fill="#D2D6DB"/>
<circle cx="154.5" cy="168.5" r="1.5" fill="#D2D6DB"/>
<circle cx="163.5" cy="168.5" r="1.5" fill="#D2D6DB"/>
<circle cx="172.5" cy="168.5" r="1.5" fill="#D2D6DB"/>
<circle cx="181.5" cy="168.5" r="1.5" fill="#D2D6DB"/>
<circle cx="190.5" cy="168.5" r="1.5" fill="#D2D6DB"/>
<circle cx="199.5" cy="168.5" r="1.5" fill="#D2D6DB"/>
<circle cx="208.5" cy="168.5" r="1.5" fill="#D2D6DB"/>
<circle cx="217.5" cy="168.5" r="1.5" fill="#D2D6DB"/>
<circle cx="226.5" cy="168.5" r="1.5" fill="#D2D6DB"/>
<circle cx="235.5" cy="168.5" r="1.5" fill="#D2D6DB"/>
<circle cx="244.5" cy="168.5" r="1.5" fill="#D2D6DB"/>
<circle cx="253.5" cy="168.5" r="1.5" fill="#D2D6DB"/>
<circle cx="262.5" cy="168.5" r="1.5" fill="#D2D6DB"/>
<circle cx="271.5" cy="168.5" r="1.5" fill="#D2D6DB"/>
<circle cx="280.5" cy="168.5" r="1.5" fill="#D2D6DB"/>
<circle cx="289.5" cy="168.5" r="1.5" fill="#D2D6DB"/>
<circle cx="298.5" cy="168.5" r="1.5" fill="#D2D6DB"/>
<circle cx="1.5" cy="177.5" r="1.5" fill="#D2D6DB"/>
<circle cx="10.5" cy="177.5" r="1.5" fill="#D2D6DB"/>
<circle cx="19.5" cy="177.5" r="1.5" fill="#D2D6DB"/>
<circle cx="28.5" cy="177.5" r="1.5" fill="#D2D6DB"/>
<circle cx="37.5" cy="177.5" r="1.5" fill="#D2D6DB"/>
<circle cx="46.5" cy="177.5" r="1.5" fill="#D2D6DB"/>
<circle cx="55.5" cy="177.5" r="1.5" fill="#D2D6DB"/>
<circle cx="64.5" cy="177.5" r="1.5" fill="#D2D6DB"/>
<circle cx="73.5" cy="177.5" r="1.5" fill="#D2D6DB"/>
<circle cx="82.5" cy="177.5" r="1.5" fill="#D2D6DB"/>
<circle cx="91.5" cy="177.5" r="1.5" fill="#D2D6DB"/>
<circle cx="100.5" cy="177.5" r="1.5" fill="#D2D6DB"/>
<circle cx="109.5" cy="177.5" r="1.5" fill="#D2D6DB"/>
<circle cx="118.5" cy="177.5" r="1.5" fill="#D2D6DB"/>
<circle cx="127.5" cy="177.5" r="1.5" fill="#D2D6DB"/>
<circle cx="136.5" cy="177.5" r="1.5" fill="#D2D6DB"/>
<circle cx="145.5" cy="177.5" r="1.5" fill="#D2D6DB"/>
<circle cx="154.5" cy="177.5" r="1.5" fill="#D2D6DB"/>
<circle cx="163.5" cy="177.5" r="1.5" fill="#D2D6DB"/>
<circle cx="172.5" cy="177.5" r="1.5" fill="#D2D6DB"/>
<circle cx="181.5" cy="177.5" r="1.5" fill="#D2D6DB"/>
<circle cx="190.5" cy="177.5" r="1.5" fill="#D2D6DB"/>
<circle cx="199.5" cy="177.5" r="1.5" fill="#D2D6DB"/>
<circle cx="208.5" cy="177.5" r="1.5" fill="#D2D6DB"/>
<circle cx="217.5" cy="177.5" r="1.5" fill="#D2D6DB"/>
<circle cx="226.5" cy="177.5" r="1.5" fill="#D2D6DB"/>
<circle cx="235.5" cy="177.5" r="1.5" fill="#D2D6DB"/>
<circle cx="244.5" cy="177.5" r="1.5" fill="#D2D6DB"/>
<circle cx="253.5" cy="177.5" r="1.5" fill="#D2D6DB"/>
<circle cx="262.5" cy="177.5" r="1.5" fill="#D2D6DB"/>
<circle cx="271.5" cy="177.5" r="1.5" fill="#D2D6DB"/>
<circle cx="280.5" cy="177.5" r="1.5" fill="#D2D6DB"/>
<circle cx="289.5" cy="177.5" r="1.5" fill="#D2D6DB"/>
<circle cx="298.5" cy="177.5" r="1.5" fill="#D2D6DB"/>
<circle cx="1.5" cy="186.5" r="1.5" fill="#D2D6DB"/>
<circle cx="10.5" cy="186.5" r="1.5" fill="#D2D6DB"/>
<circle cx="19.5" cy="186.5" r="1.5" fill="#D2D6DB"/>
<circle cx="28.5" cy="186.5" r="1.5" fill="#D2D6DB"/>
<circle cx="37.5" cy="186.5" r="1.5" fill="#D2D6DB"/>
<circle cx="46.5" cy="186.5" r="1.5" fill="#D2D6DB"/>
<circle cx="55.5" cy="186.5" r="1.5" fill="#D2D6DB"/>
<circle cx="64.5" cy="186.5" r="1.5" fill="#D2D6DB"/>
<circle cx="73.5" cy="186.5" r="1.5" fill="#D2D6DB"/>
<circle cx="82.5" cy="186.5" r="1.5" fill="#D2D6DB"/>
<circle cx="91.5" cy="186.5" r="1.5" fill="#D2D6DB"/>
<circle cx="100.5" cy="186.5" r="1.5" fill="#D2D6DB"/>
<circle cx="109.5" cy="186.5" r="1.5" fill="#D2D6DB"/>
<circle cx="118.5" cy="186.5" r="1.5" fill="#D2D6DB"/>
<circle cx="127.5" cy="186.5" r="1.5" fill="#D2D6DB"/>
<circle cx="136.5" cy="186.5" r="1.5" fill="#D2D6DB"/>
<circle cx="145.5" cy="186.5" r="1.5" fill="#D2D6DB"/>
<circle cx="154.5" cy="186.5" r="1.5" fill="#D2D6DB"/>
<circle cx="163.5" cy="186.5" r="1.5" fill="#D2D6DB"/>
<circle cx="172.5" cy="186.5" r="1.5" fill="#D2D6DB"/>
<circle cx="181.5" cy="186.5" r="1.5" fill="#D2D6DB"/>
<circle cx="190.5" cy="186.5" r="1.5" fill="#D2D6DB"/>
<circle cx="199.5" cy="186.5" r="1.5" fill="#D2D6DB"/>
<circle cx="208.5" cy="186.5" r="1.5" fill="#D2D6DB"/>
<circle cx="217.5" cy="186.5" r="1.5" fill="#D2D6DB"/>
<circle cx="226.5" cy="186.5" r="1.5" fill="#D2D6DB"/>
<circle cx="235.5" cy="186.5" r="1.5" fill="#D2D6DB"/>
<circle cx="244.5" cy="186.5" r="1.5" fill="#D2D6DB"/>
<circle cx="253.5" cy="186.5" r="1.5" fill="#D2D6DB"/>
<circle cx="262.5" cy="186.5" r="1.5" fill="#D2D6DB"/>
<circle cx="271.5" cy="186.5" r="1.5" fill="#D2D6DB"/>
<circle cx="280.5" cy="186.5" r="1.5" fill="#D2D6DB"/>
<circle cx="289.5" cy="186.5" r="1.5" fill="#D2D6DB"/>
<circle cx="298.5" cy="186.5" r="1.5" fill="#D2D6DB"/>
</g>
</mask>
<g mask="url(#mask0_21_2407)">
<path d="M103.118 140.461L10 105.053V79.622L103.118 44.2138V68.4713L37.9744 92.3376L103.118 116.008V140.461Z" fill="#80EF7E"/>
<path d="M106.477 180.369L163.208 18H188.64L131.908 180.369H106.477Z" fill="#80EF7E"/>
<path d="M195.882 140.461V116.008L261.026 92.3376L195.882 68.4713V44.2138L289 79.622V105.053L195.882 140.461Z" fill="#80EF7E"/>
</g>
<defs>
<clipPath id="clip0_21_2407">
<rect width="300" height="171" fill="white" transform="translate(0 16)"/>
</clipPath>
</defs>
</svg>
