<svg width="352" height="147" viewBox="0 0 352 147" fill="none" xmlns="http://www.w3.org/2000/svg">
<path d="M5.6 90.8C13.6 90.4 24.6 90 33.2 90H134.2C139.6 90 146.8 90.4 152.2 90.8C155.4 91 157.4 89 157.4 85.8V60.2C157.4 57 155.2 55 152 55.2C146.8 55.6 140.2 56.2 134.2 56.2H33.2C25.8 56.2 14 55.6 5.8 55.2C2.6 55 0.400002 57 0.400002 60.2V85.8C0.400002 88.8 2.6 90.8 5.6 90.8ZM213 3.79999L207.2 15C205.8 17.6 206.6 20.4 209.2 21.8L298.6 69.2C303.6 71.8 303.6 75.4 298.6 78L209.2 125.4C206.6 126.8 205.8 129.6 207.2 132.2L213 143.6C214.4 146.2 217.2 147 219.8 145.6L346.8 78C351.8 75.4 351.8 71.8 346.8 69.2L219.8 1.8C217.2 0.399991 214.4 1.19999 213 3.79999Z" fill="#F39423"/>
</svg>
