<svg width="588" height="355" viewBox="0 0 588 355" fill="none" xmlns="http://www.w3.org/2000/svg">
<path d="M89.7 37.2001V27.9001C89.7 26.4 88.7 25.4 87.2 25.4H55.9C54.3 25.4 53.3 24.3 53.4 22.7C53.9 16.1 54 9.60005 54.1 3.30005C54.1 1.80005 53.1 0.800049 51.6 0.800049H41.4C39.9 0.800049 38.9 1.80005 38.9 3.30005C38.8 9.70005 38.8 16.3001 38.4 23.1C38.4 24.5 37.4 25.4 36 25.4H7C5.5 25.4 4.5 26.4 4.5 27.9001V37.2001C4.5 38.7 5.5 39.7001 7 39.7001H32.8C34.7 39.7001 35.7 40.9001 35.2 42.8001C31.3 56.1001 23.2 68.3001 6.5 77.0001C4.2 78.2001 4 79.9001 5.9 81.6001C8.1 83.8001 10.3 86.3001 11.8 88.6001C12.6 89.8001 13.9 90.2001 15.2 89.5001C30.2 81.6001 39.3 71.0001 44.9 59.2001C46.5 55.9001 48.3 55.8001 49.9 59.1001C56.8 72.5001 66.1 82.8001 79.7 89.6001C81 90.2001 82.2 89.8001 83 88.6001C84.7 86.0001 87 82.9001 89.2 80.4001C90.8 78.6001 90.5 76.9001 88.3 75.9001C74.1 69.3001 64.5 57.4001 58.7 43.0001C57.9 41.0001 58.8 39.7001 60.9 39.7001H87.2C88.7 39.7001 89.7 38.7 89.7 37.2001Z" fill="#F7F7F7"/>
<path d="M126.4 59.0001C125.1 59.0001 125 58.5001 125 54.4001V40.0001C125 38.7001 125.8 37.7 127 37.5L141.6 34.8C143 34.6 143.8 33.4001 143.6 32.0001L142.2 24.4C142 22.9 140.8 22.1 139.3 22.3001L127.9 24.4C126.2 24.7 125 23.7001 125 21.9001V6.20005C125 4.70005 124 3.70005 122.5 3.70005H113.8C112.3 3.70005 111.3 4.70005 111.3 6.20005V25.3C111.3 26.6 110.5 27.5001 109.2 27.8L103.5 28.8001C102 29.0001 101.2 30.2001 101.4 31.7001L102.8 39.5001C103 41.0001 104.2 41.8001 105.7 41.5L108.3 41C110.1 40.7001 111.3 41.7 111.3 43.5V54.4001C111.3 67.9001 113.8 72.1001 123.7 72.1001H130.5C138.1 72.1001 141.5 67.7001 143 55.0001C143.1 53.7001 142.3 52.6001 141.1 52.2001C139.2 51.7001 137.2 50.8001 135.3 49.9001C132.6 48.5001 131 49.3001 130.8 52.4001C130.6 57.7001 130.2 59.0001 129 59.0001H126.4ZM137.4 9.60005V17.7001C137.4 19.2 138.4 20.2001 139.9 20.2001H147.8C149.3 20.2001 150.3 21.2 150.3 22.7C149.8 46.7001 148.4 65.9001 131.7 78.4001C129.9 79.7001 129.8 81.3001 131.4 82.9001C133.4 84.8001 135.4 87.2001 136.9 89.4001C137.8 90.7001 139.2 91.1001 140.5 90.1001C160.8 75.0001 163.4 51.1 164.1 22.6C164.2 21.2 165.2 20.2001 166.6 20.2001H173.5C175 20.2001 176 21.2 175.9 22.8001C175.3 57.0001 174.3 71.4001 171.9 74.4001C170.8 75.9001 169.9 76.4001 168.2 76.4001C166.7 76.4001 164.6 76.4001 162 76.3001C159.1 76.2001 158.2 77.6001 159.2 80.3001C160.1 82.9001 160.9 85.6001 161.2 88.0001C161.5 89.4001 162.4 90.3001 163.8 90.3001C168.2 90.4001 172.4 90.4001 175.5 89.7001C179.4 88.7 182.1 87.4001 184.9 83.0001C188.5 77.6001 189.4 60.8001 190.3 14.1001V13.9C190.4 13 190.4 11.2001 190.4 9.60005C190.5 8.10005 189.5 7.10005 188 7.10005H139.9C138.4 7.10005 137.4 8.10005 137.4 9.60005Z" fill="#F7F7F7"/>
<path d="M250.7 15.3C249.3 15.6 247.8 16 246.3 16.3001C243.9 16.8001 242.8 15.6 243.4 13.2C243.8 11.5 244.2 10 244.5 8.60005C244.9 6.90005 244.1 5.70005 242.3 5.50005L232.2 4.60005C230.6 4.40005 229.6 5.40005 229.4 6.90005C229.2 10.3001 228.6 13.9 227.8 17.3001C227.6 18.3001 226.7 19.1001 225.7 19.1001C223.8 19.2001 222 19.3 220.1 19.3C217.7 19.3 213.8 19.1001 210.2 18.6001C208.3 18.4 207.1 19.5001 207.3 21.4001L207.9 29.6C208 30.9 208.9 31.8 210.2 31.9C213.7 32.1001 216.9 32.1001 220.2 32.1001H221.8C222.7 32.1001 223.1 32.6001 222.7 33.4001C218.9 42.0001 213 52.7 206.7 61.3C205.6 62.7001 205.9 64.3001 207.6 65.1001L216.7 69.6001C217.8 70.2001 219.1 69.9001 219.8 68.8001C226.7 58.4001 233.6 44.2001 237.8 32.1001C238.1 31.3001 238.9 30.6001 239.8 30.5C244.5 29.7001 248.9 28.8001 252.3 28C253.4 27.7 254.2 26.7 254.1 25.5001L253.9 17.6C253.8 15.7 252.6 14.8 250.7 15.3ZM288.1 27.7001C282.9 24.4001 274.1 19.7001 268.1 17C267 16.4001 265.7 16.8001 265.1 17.9001L260.5 24.9C259.5 26.4 260 27.9001 261.6 28.6C267.3 31.4 274.8 35.8001 279.9 39.4001C281.3 40.3001 282.7 40.1001 283.6 38.8001L288.7 31C289.6 29.8001 289.3 28.4001 288.1 27.7001ZM253.2 37.2001C253.5 41.4001 253.7 46.6001 254 51.4001C254 52.9001 253.1 53.8001 251.7 53.7001C250.9 53.6001 250 53.6001 249.2 53.6001C234.7 53.6001 227.2 61.7001 227.2 71.1001C227.2 82.0001 236.9 87.8001 249.4 87.8001C260.8 87.8001 266.2 83.2001 267.9 76.5001C268.6 73.9001 270 73.1001 272.2 74.8001C274.2 76.5001 276 78.1001 277.7 79.6001C279 80.8001 280.5 80.6001 281.5 79.0001L286.3 71.1001C287 70.1001 286.8 68.8001 285.9 68.0001C281.6 64.3001 276.1 60.5001 269.4 57.7001C268.5 57.3001 267.9 56.4001 267.8 55.5001C267.6 52.4001 267.5 49.6001 267.4 47.8001C267.3 44.1001 267.2 40.6 267.3 37.3C267.3 35.7 266.3 34.6 264.7 34.6H255.7C254.2 34.6 253.2 35.7 253.2 37.2001ZM254.6 67.4001C254.3 72.0001 252.5 74.8001 247.3 74.8001C243.3 74.8001 240.7 72.7001 240.7 69.6001C240.7 67.0001 243.6 65.1001 248.2 65.1001C250 65.1001 251.7 65.4001 253.4 65.8001C254.1 65.9001 254.6 66.7001 254.6 67.4001Z" fill="#F7F7F7"/>
<path d="M389.1 54.4001H384.1C382.6 54.4001 381.6 53.4001 381.6 51.9001V45.3001C381.6 43.8001 380.6 42.8001 379.1 42.8001H355.2C354.3 42.8001 353.7 42.2 353.7 41.3001C353.7 40.5001 354.3 39.9001 355.2 39.9001H377.4C378.9 39.9001 379.9 38.9 379.9 37.4001V22.3001C379.9 20.8 378.9 19.8 377.4 19.8H355.2C354.3 19.8 353.7 19.2 353.7 18.3C353.7 17.5 354.3 16.9001 355.2 16.9001H386.7C388.2 16.9001 389.2 15.9001 389.2 14.4V8.70005C389.2 7.20005 388.2 6.20005 386.7 6.20005H356.2C354.7 6.20005 353.7 5.00005 353.7 3.50005C353.7 2.00005 352.7 0.800049 351.2 0.800049H342.1C340.6 0.800049 339.6 2.00005 339.6 3.50005C339.6 5.00005 338.6 6.20005 337.1 6.20005H307.4C305.9 6.20005 304.9 7.20005 304.9 8.70005V14.4C304.9 15.9001 305.9 16.9001 307.4 16.9001H338.2C339 16.9001 339.6 17.5 339.6 18.3C339.6 19.2 339 19.8 338.2 19.8H317C315.5 19.8 314.5 20.8 314.5 22.3001V37.4001C314.5 38.9 315.5 39.9001 317 39.9001H338.2C339 39.9001 339.6 40.5001 339.6 41.3001C339.6 42.2 339 42.8001 338.2 42.8001H314.9C313.4 42.8001 312.4 43.8001 312.4 45.3001V49.4001C312.4 50.9 313.4 51.9001 314.9 51.9001H338.4C339.1 51.9001 339.6 52.4001 339.6 53.1001C339.6 53.9001 339.1 54.4001 338.4 54.4001H305C303.5 54.4001 302.5 55.4001 302.5 56.9001V62.3C302.5 63.8 303.5 64.8001 305 64.8001H338.2C339 64.8001 339.6 65.4001 339.6 66.2001C339.6 67.1001 339 67.7001 338.2 67.7001H314.3C312.8 67.7001 311.8 68.7001 311.8 70.2001V74.9001C311.8 76.4001 312.8 77.4001 314.3 77.4001H339C339.4 77.4001 339.6 77.6001 339.6 78.0001V78.6001C339.6 80.2001 339 80.8001 337.2 80.9001H331C328.1 80.8001 327.2 82.3001 328.4 84.9001C329.1 86.4001 329.7 88.0001 330.2 89.4001C330.5 90.5001 331.5 91.3001 332.7 91.3001C339.7 91.3001 344.4 91.0001 348.1 89.4001C352.2 87.5001 353.7 84.9001 353.7 78.6001V78.0001C353.7 77.6001 353.9 77.4001 354.3 77.4001H365.6C366.7 77.4001 367.5 78.2001 367.5 79.3001C367.5 80.5001 368.3 81.3001 369.5 81.3001H379.1C380.6 81.3001 381.6 80.3001 381.6 78.8001V67.3001C381.6 65.8001 382.6 64.8001 384.1 64.8001H389.1C390.6 64.8001 391.6 63.8 391.6 62.3V56.9001C391.6 55.4001 390.6 54.4001 389.1 54.4001ZM327.7 30V29.7001C327.7 28.8001 328.3 28.2001 329.2 28.2001H338.1C339 28.2001 339.6 28.8001 339.6 29.7001V30C339.6 30.9 339 31.5001 338.1 31.5001H329.2C328.3 31.5001 327.7 30.9 327.7 30ZM365.7 29.7001V30C365.7 30.9 365.1 31.5001 364.2 31.5001H355.2C354.3 31.5001 353.7 30.9 353.7 30V29.7001C353.7 28.8001 354.3 28.2001 355.2 28.2001H364.2C365.1 28.2001 365.7 28.8001 365.7 29.7001ZM355 51.9001H366.3C367 51.9001 367.5 52.4001 367.5 53.1001C367.5 53.9001 367 54.4001 366.3 54.4001H355C354.2 54.4001 353.7 53.9001 353.7 53.1001C353.7 52.4001 354.2 51.9001 355 51.9001ZM366.1 67.7001H355.2C354.3 67.7001 353.7 67.1001 353.7 66.2001C353.7 65.4001 354.3 64.8001 355.2 64.8001H366.1C366.9 64.8001 367.5 65.4001 367.5 66.2001C367.5 67.1001 366.9 67.7001 366.1 67.7001Z" fill="#F7F7F7"/>
<path d="M490.2 67.5001C486.5 64.1001 481.6 60.3001 475.1 57.3001C474.3 56.9001 473.7 56.1001 473.6 55.1001C473.3 50.5001 473 45.0001 472.8 38.3001C472.7 36.8001 473.6 35.8001 475.1 35.7001C478.3 35.4001 481.4 35.1001 484.4 34.7001C485.6 34.5 486.5 33.5001 486.5 32.2001V23.3001C486.5 21.4001 485.3 20.5001 483.5 20.8C480.9 21.3 478.3 21.7 475.6 22C473.9 22.2 472.8 21.2 472.9 19.5001C473 16.9001 473 14.8 473.1 13.5C473.2 12.4 473.2 11.2001 473.3 10.1C473.5 8.40005 472.5 7.20005 470.7 7.20005H460.4C458.7 7.20005 457.7 8.30005 457.9 10.1C458.1 11.5 458.2 12.9 458.2 13.7C458.3 15.1 458.3 17.6 458.4 20.9001C458.4 22.3001 457.4 23.4001 456 23.4001H453.1C448.4 23.4001 443.7 23.2001 439.1 22.8001C437.4 22.6 436.3 23.6 436.3 25.3L436.4 33.8001C436.4 35.2001 437.3 36.2001 438.7 36.3001C443.5 36.6001 448.4 36.7001 453.2 36.7001H455.9C457.5 36.7001 458.5 37.6001 458.6 39.2001C458.7 43.3001 458.9 47.2001 459.1 50.8001C459.1 52.2001 458.2 53.1001 456.9 53.1001H456.7C455.9 53.0001 455.2 53 454.4 53C441.3 53 432.7 59.8001 432.7 70.3001C432.7 81.0001 441.4 86.7001 454.6 86.7001C465 86.7001 470.7 82.8001 473 76.3001C473.9 74.0001 475.4 73.3001 477.3 74.9001C478.8 76.1001 480.3 77.4001 481.9 78.8001C483.2 80.1001 484.7 79.9001 485.7 78.3001L490.6 70.6001C491.3 69.6001 491.1 68.3001 490.2 67.5001ZM412.3 9.80005C412.1 12.6001 411.7 15.6 411.4 17.8C410.3 24.7 407.7 42.4001 407.7 56.8001C407.7 68.4001 409.3 78.5001 411 85.0001C411.4 86.2001 412.4 86.9001 413.5 86.8001L422.3 86.2001C423.5 86.2001 424.3 85.2001 424.3 84.0001V81.8001C424.3 80.9001 424.6 78.7001 424.9 77.3001C425.9 72.3001 428.5 63.6 431.2 55.7001C431.5 54.7001 431.2 53.6001 430.3 52.9001L427.3 50.5C425.8 49.3001 424.2 49.6001 423.4 51.3001C422.8 52.4001 422.3 53.5001 421.7 54.7001V54.9001C421.5 55.4001 421.2 55.4001 421.2 54.7001V53.6001C421.2 44.9001 424.4 22.9001 425.5 18.1C425.8 17.0001 426.4 14.2 427.1 11.8C427.6 9.80005 426.7 8.40005 424.7 8.20005L415 7.30005C413.5 7.20005 412.4 8.20005 412.3 9.80005ZM459.6 65.6001C459.6 70.7001 457.8 73.2001 453.3 73.2001C449.3 73.2001 446 72.0001 446 68.7001C446 65.8001 448.9 64.0001 453.3 64.0001C455.4 64.0001 457.3 64.3001 459.3 64.8001C459.5 64.9001 459.6 65.0001 459.6 65.2001V65.6001Z" fill="#F7F7F7"/>
<path d="M533.5 76.9001C529.3 71.8001 522.1 64.4001 516.3 59.4001C515.3 58.6001 514.1 58.6001 513.1 59.5001L504.8 66.5001C503.5 67.7001 503.5 69.2001 504.8 70.3001C510.2 75.3001 516.3 81.6001 521.2 87.2001C522.2 88.4001 523.6 88.5001 524.7 87.5001L533.2 80.2001C534.3 79.3001 534.4 77.9001 533.5 76.9001Z" fill="#F7F7F7"/>
<path d="M49.3 157.3C46.9 155.5 44.1 153.7 41.1 151.8C39.6 150.8 39.4 149.3 40.6 147.9C42.7 145.5 44.6 142.9 46.4 140.2C47.4 138.7 46.9 137.3 45.2 136.6L36.9 133.4C35.6 132.9 34.4 133.4 33.7 134.5C32.2 137 30.4 139.4 28.4 141.8C27.6 142.8 26.4 143 25.3 142.4C21.9 140.6 18.4 139 15.1 137.5C14.2 137.1 13.1 137.3 12.4 138L6.9 143.2C5.4 144.7 5.6 146.3 7.6 147.3C9.9 148.4 12.3 149.7 14.6 151C16.5 152 16.7 153.6 15 155C11.8 157.5 8.4 159.7 4.9 161.6C2.7 162.7 2.5 164.4 4.2 166.1C5.8 167.7 7.4 169.6 8.7 171.1C9.5 172.2 10.8 172.5 11.9 171.8C17.4 168.7 22.7 165.1 27.6 160.9C28.4 160.2 29.6 160.1 30.6 160.7C34.2 163 37.4 165.4 40.1 167.6C41.3 168.6 42.7 168.5 43.6 167.4L49.6 160.9C50.7 159.7 50.6 158.2 49.3 157.3ZM74.7 137.3V206.7C74.7 208.5 74 209.1 72.2 209.1C70.6 209.1 66.6 209.1 62.1 209C59.5 208.9 58.6 210.3 59.6 212.7C60.6 215.4 61.6 218.5 62.2 221C62.5 222.2 63.5 223.1 64.8 223.1C72.4 223 78.6 222.4 82.6 220.5C87 218.2 88.4 214.5 88.4 206.8V137.3C88.4 135.8 87.4 134.8 85.9 134.8H77.2C75.7 134.8 74.7 135.8 74.7 137.3ZM64.2 141.5H55.8C54.3 141.5 53.3 142.5 53.3 144V193.4C53.3 194.9 54.3 195.9 55.8 195.9H64.2C65.7 195.9 66.7 194.9 66.7 193.4V144C66.7 142.5 65.7 141.5 64.2 141.5ZM35.9 188.3H48.2C49.7 188.3 50.7 187.3 50.7 185.8V179C50.7 177.5 49.7 176.5 48.2 176.5H37.1C35.6 176.5 34.6 175.5 34.6 174V168.5C34.6 167 33.6 166 32.1 166H23.9C22.4 166 21.4 167 21.4 168.5V174C21.4 175.5 20.4 176.5 18.9 176.5H6.1C4.6 176.5 3.6 177.5 3.6 179V185.8C3.6 187.3 4.6 188.3 6.1 188.3H13.4C16.3 188.3 17.1 189.9 15.3 192.1C11.7 196.5 7.3 200.9 2.8 204.1C1.6 204.9 1.3 206.2 2 207.5C3.3 210 4.7 212.9 5.8 215.6C6.6 217.6 8.2 218.2 9.8 216.7C12.2 214.7 14.4 212.3 16.6 209.7C19.6 206.1 21.4 206.7 21.4 211.4V220C21.4 221.5 22.4 222.5 23.9 222.5H32.1C33.6 222.5 34.6 221.5 34.6 220V209.4C34.6 206.2 36.2 205.4 38.6 207.5L41.2 209.8C42.5 210.9 44 210.8 45 209.5L49.9 202.9C50.9 201.6 50.6 200.2 49.3 199.4C45.8 197.2 39.9 193.7 35.7 191.4C35 191 34.6 190.3 34.6 189.5C34.6 188.8 35.1 188.3 35.9 188.3Z" fill="#F7F7F7"/>
<path d="M181.9 136.7L181.4 136.9H181.2L180.8 137H155.4C153.9 137 152.9 138 152.9 139.5V220.3C152.9 221.8 153.9 222.8 155.4 222.8H163.4C164.9 222.8 165.9 221.8 165.9 220.3V204.1C165.9 200.2 167.1 199.9 168.1 203.5C168.5 205 168.8 206.4 169 207.7C169.2 209.1 170.1 210 171.5 210C173.9 210 176.2 209.9 177.9 209.7C180.6 209.3 183 208.5 185 207.2C189.1 204.5 191 199.7 191 192.2C191 186.6 189.7 179.6 182.7 172C182 171.2 181.8 170.1 182.2 169.1C185.6 161.7 189.1 152.7 192.2 144.6C192.6 143.5 192.2 142.3 191.2 141.6L184 137H183.8C183.3 136.7 182.6 136.6 182.1 136.7H181.9ZM103.4 140V147.5C103.4 149 104.4 150 105.9 150H111.6C113.1 150 114.1 151 114.1 152.5V156.5C114 157.9 113 158.9 111.6 158.9H106.8C105.3 158.9 104.3 159.9 104.3 161.4V168.5C104.3 170 105.3 171 106.8 171H110.8C112.5 171 113.5 172.1 113.3 173.8L113 177.5C112.8 178.7 111.8 179.6 110.5 179.6H105.6C104.1 179.6 103.1 180.6 103.1 182.1V189.2C103.1 190.7 104.1 191.7 105.6 191.7H107.4C109.3 191.7 110.3 192.9 109.8 194.8C108.1 200.8 105.7 206.2 102.5 210.6C101.5 212 101.7 213.4 103 214.5C105.2 216.2 107.9 218.6 109.8 220.6C111.2 222 112.8 222 113.9 220.3C118.8 213 122 204 124.1 193.7C124.4 192.5 125.3 191.7 126.6 191.7H131.1C132.7 191.7 133.7 192.7 133.6 194.3C133.3 200.5 132.9 203.7 132.2 205C131.4 206.6 130.6 207.2 129.2 207.2C128.2 207.2 126.9 207.2 125.5 207.1C123.3 207.1 122.5 208.2 123.3 210.2C124.5 213.2 125.3 216.5 125.7 219.3C125.9 220.7 126.8 221.6 128.2 221.6C131.7 221.7 134.9 221.5 137.4 220.8C140.7 219.9 142.7 218.6 145.1 214.5C148 209.5 147.9 192.1 148 144.3C148 143.4 148 141.6 148.1 140C148.1 138.5 147.1 137.5 145.6 137.5H105.9C104.4 137.5 103.4 138.5 103.4 140ZM167.4 149.9H173.8C175.1 149.9 175.7 150.7 175.3 151.9C173.2 158.3 170.7 165.8 168.5 171.4C168.3 172 168.4 172.7 168.9 173.1C175.9 179.7 178 186.1 178 190.7C178 193.8 177.3 195.6 175.5 196.5C174.3 197.1 172.7 197.3 171.3 197.3C170.2 197.3 168.9 197.3 167.3 197.2C166.4 197.2 165.9 196.5 165.9 195.7V151.4C165.9 150.5 166.5 149.9 167.4 149.9ZM134.2 151.5L134.1 157.4C134.1 158.3 133.5 158.9 132.6 158.9H129.2C128.2 158.9 127.6 158.3 127.7 157.3C127.7 155.4 127.8 153.5 127.8 151.5C127.8 150.6 128.4 150 129.3 150H132.7C133.6 150 134.2 150.6 134.2 151.5ZM126.5 177.9C126.6 176.1 126.8 174.2 127 172.3C127 171.5 127.6 171 128.5 171H132.5C133.4 171 134 171.6 134 172.5V178.1C134 179 133.4 179.6 132.5 179.6H128C127 179.6 126.4 178.9 126.5 177.9Z" fill="#F7F7F7"/>
<path d="M253.6 218.5C277 214 288.2 199.7 288.2 180.4C288.2 159 273 142.5 249.1 142.5C223.9 142.5 204.6 161.5 204.6 183.8C204.6 199.8 213.6 212.5 225.2 212.5C236.3 212.5 244.7 199.8 250.3 181C252.6 173.4 254.2 166 255.4 159.2C255.6 157.6 256.9 156.7 258.4 157.3C267.6 160.5 272.6 168.7 272.6 179.9C272.6 192.2 264.6 200.6 252.6 203.5C250.9 203.9 249.3 204.3 247.3 204.7C245 205.1 244.2 206.6 245.5 208.6L251.1 217.4C251.6 218.2 252.7 218.7 253.6 218.5ZM235.5 178.1C232.2 189 229.3 194.7 225.5 194.7C222.3 194.7 219.5 190.4 219.5 182.3C219.5 173.7 225.7 162 238.2 157.5C239.5 157 240.3 157.7 240 159.1C238.9 165.7 237.4 172.4 235.5 178.1Z" fill="#F7F7F7"/>
<path d="M350.7 155.2H335.2C333.7 155.2 332.7 156.2 332.7 157.7V179.4C332.7 180.9 333.7 181.9 335.2 181.9H340.8C344.2 181.9 345 183.6 342.4 185.7C339.1 188.6 335.1 191.1 330.9 193.1C328.7 194.2 328.3 195.8 330 197.6C331.6 199.4 333.2 201.4 334.5 203.2C335.3 204.4 336.6 204.8 337.9 204.1C341.4 202 344.7 199.5 347.8 196.7C350.8 193.9 352.5 194.4 352.5 198.6V203.5C352.5 205 353.5 206 355 206H363.4C364.9 206 365.9 205 365.9 203.5V198.6C365.9 194.9 367.6 194.2 370.4 196.7C373.5 199.4 376.8 201.9 380.2 203.8C381.4 204.6 382.7 204.2 383.5 203.1C384.9 201.1 386.7 199 388.5 197.1C390.3 195.2 390 193.5 387.6 192.5C383.5 190.7 379.4 188.4 375.7 185.9C372.5 183.7 373.2 181.9 377.2 181.9H384.5C386 181.9 387 180.9 387 179.4V157.7C387 156.2 386 155.2 384.5 155.2H367.8C366.6 155.2 365.9 154.5 365.9 153.3C365.9 152.2 366.6 151.5 367.8 151.5H387.2C388.7 151.5 389.7 150.5 389.7 149V142.6C389.7 141.1 388.7 140.1 387.2 140.1H368.4C366.9 140.1 365.9 139.1 365.9 137.6V135.4C365.9 133.9 364.9 132.9 363.4 132.9H355C353.5 132.9 352.5 133.9 352.5 135.4V137.6C352.5 139.1 351.5 140.1 350 140.1H332.7C331.2 140.1 330.2 141.1 330.2 142.6V149C330.2 150.5 331.2 151.5 332.7 151.5H350.7C351.8 151.5 352.5 152.2 352.5 153.3C352.5 154.5 351.8 155.2 350.7 155.2ZM327.4 147.3C324.2 143.6 319.2 139.4 314.8 136.1C313.9 135.4 312.7 135.5 311.8 136.2L305.5 141.2C304 142.4 304 144 305.4 145.2C309.3 148.5 313.5 152.5 316.2 155.9C317.2 157.2 318.7 157.5 320 156.4L327 150.6C328.2 149.7 328.3 148.3 327.4 147.3ZM346.8 165.5H351C351.9 165.5 352.5 166.1 352.5 167V170.1C352.5 171 351.9 171.6 351 171.6H346.8C345.9 171.6 345.3 171 345.3 170.1V167C345.3 166.1 345.9 165.5 346.8 165.5ZM373.6 167V170.1C373.6 171 373 171.6 372.1 171.6H367.4C366.5 171.6 365.9 171 365.9 170.1V167C365.9 166.1 366.5 165.5 367.4 165.5H372.1C373 165.5 373.6 166.1 373.6 167ZM324.2 169.5H305.9C304.4 169.5 303.4 170.5 303.4 172V179.8C303.4 181.3 304.4 182.3 305.9 182.3H310.7C312.2 182.3 313.2 183.3 313.2 184.8V198.6C313.2 199.4 312.8 200.2 312.2 200.6C309.1 202.8 305.9 204.7 302.9 206.5C301.7 207.1 301.3 208.4 301.9 209.7L306.3 219.2C307.1 220.9 308.6 221.3 310.1 220.1C313.3 217.5 316 215.1 318.7 212.8C319.8 211.8 321.2 211.9 322.3 213C328.3 218.9 335.4 220.8 345.7 221.3C356.9 221.9 374.5 221.7 386.5 221.1C387.7 221 388.6 220.2 388.9 219.1C389.5 216.5 390.4 213.5 391.3 211C392.2 208.6 391.2 207.2 388.6 207.3C375 208.3 356.4 208.5 346 208C336.9 207.6 330.6 205.5 327.1 200C326.8 199.6 326.7 199.1 326.7 198.7V172C326.7 170.5 325.7 169.5 324.2 169.5Z" fill="#F7F7F7"/>
<path d="M476.4 146.3C472.6 147.8 468.4 149.2 463.8 150.2C462.6 150.5 461.5 149.9 461 148.8C459.4 144.8 457.9 141.2 456.8 137.6C456.4 136.3 455.2 135.6 453.9 135.8L443.5 137.9C441.4 138.3 440.8 139.8 441.8 141.7C443 143.7 443.8 145.5 445 148.2C445.3 149 445.7 149.8 446.1 150.7C446.8 152.2 446.2 153.3 444.6 153.4C441.7 153.6 438.7 153.7 435 153.7C429.1 153.7 422.8 152.7 417.4 151.7C415.5 151.3 414.3 152.3 414.4 154.3L414.9 163.9C415 165.2 415.8 166.1 417.1 166.2C422.3 166.8 430.4 167.4 435.6 167.4C441.1 167.4 446.6 167.1 451.4 166.6C452.5 166.5 453.5 167 454 168C455.3 170.7 456.6 173.4 457.9 175.9C459 178.1 458 179.5 455.5 179.3L452.3 179C450.9 178.9 449.8 179.8 449.6 181.2L448.9 188.1C448.7 189.5 449.6 190.6 451 190.8C457.4 191.7 464.6 193 469.7 193.9C470.6 194.1 471.5 193.8 472 193.2L477.8 187C478.5 186.2 478.6 185.1 478.1 184.1C475 178.5 471.7 172.5 468.8 166.6C468 164.9 468.7 163.5 470.5 163.1C474 162.2 477.2 161.3 480 160.3C481.2 159.9 481.8 158.8 481.6 157.5L479.9 148.2C479.5 146.3 478.1 145.6 476.4 146.3ZM415.2 186.6C414.4 190.8 413.9 194.9 413.9 198.5C413.9 212.4 424.4 219.2 444.1 219.2C452.6 219.2 460.3 218.7 465.3 217.9C466.5 217.7 467.3 216.8 467.4 215.6L467.8 205.9C467.8 204 466.7 203 464.8 203.3C459.4 204.3 454.4 204.9 444.1 204.9C431.1 204.9 428.9 200.6 428.9 194.5C428.9 192.7 429.2 190.6 429.7 188.6C430.1 186.8 429.2 185.5 427.4 185.4L417.8 184.7C416.5 184.6 415.4 185.4 415.2 186.6Z" fill="#F7F7F7"/>
<path d="M506.2 150.3L507.1 160.3C507.3 162 508.5 162.9 510.2 162.5C518.2 160.9 528.1 159.6 535.7 158.7C540.3 158.2 541 159.9 538.4 163.5C534.7 168.8 531.4 176.4 531.4 185.3C531.4 204.8 548.3 216.1 568.5 218.2C569.6 218.3 570.6 217.7 571 216.5L574.7 205.6C575.3 203.7 574.4 202.4 572.4 202.3C557.7 200.8 546.4 195.2 546.4 182.3C546.4 171.2 555.2 160.1 565.3 157.9C569.8 157 576.1 156.8 580.9 156.7C582.4 156.7 583.4 155.7 583.4 154.2L583.3 144.7C583.3 143.1 582.3 142.1 580.7 142.2C573.9 142.5 564.2 143 555.9 143.7C538.7 145.2 524.5 146.4 515.7 147.1C514.2 147.3 511.6 147.4 508.7 147.5C507.1 147.6 506.1 148.7 506.2 150.3ZM579.1 160.8L575.6 162.4C573.9 163.2 573.6 164.7 574.6 166.2C576.4 168.8 577.8 171.1 579.4 174.2C580.1 175.5 581.4 176 582.7 175.3L586.5 173.5C587.9 172.9 588.4 171.5 587.6 170.1C586 167.4 583.9 164.3 582.2 161.7C581.5 160.7 580.3 160.3 579.1 160.8ZM568.4 165.4L564.9 166.8C563.2 167.5 562.7 169 563.8 170.6C565.4 173.2 566.7 175.6 568.2 178.8C568.8 180.1 570.1 180.6 571.5 180L575.3 178.3C576.7 177.7 577.2 176.4 576.5 175C575.1 172.2 573.1 168.9 571.4 166.3C570.8 165.3 569.6 164.9 568.4 165.4Z" fill="#F7F7F7"/>
<path d="M21.6 267.2C16.9 278.8 9.5 290.2 1.8 298C0.899999 298.8 0.699999 300.1 1.3 301.2C2.8 303.7 4.5 307.2 5.8 310.1C6.8 312.3 8.5 312.7 10.1 310.9L10.6 310.3C12.6 308.1 13.8 308.5 13.8 311.5V352.2C13.8 353.7 14.8 354.7 16.3 354.7H24.4C25.9 354.7 26.9 353.7 26.9 352.2V287.2L27.2 286.4C27.2 286.3 27.2 286.1 27.3 286C29.9 281.3 32.2 276.3 34.2 271.6C34.9 270.1 34.3 268.8 32.7 268.3L24.8 265.7C23.4 265.3 22.2 265.9 21.6 267.2ZM85.1 270.8H40C38.5 270.8 37.5 271.8 37.5 273.3V281.5C37.5 283 38.5 284 40 284H85.1C86.6 284 87.6 283 87.6 281.5V273.3C87.6 271.8 86.6 270.8 85.1 270.8ZM93.1 347.1C90.8 339 85.3 328.4 79.8 319.8C79.2 318.7 77.9 318.3 76.8 318.8L69.1 322C67.5 322.7 67 324.1 67.8 325.6C69 327.6 70.1 329.7 71.1 331.8C72.1 333.7 71.3 335.1 69.1 335.3L57.4 336.2C54.9 336.4 54 335 54.9 332.7C57.3 326.8 59.7 320.1 61.9 313.7C62.3 312.7 63.2 312 64.3 312H89.9C91.4 312 92.4 311 92.4 309.5V301.2C92.4 299.7 91.4 298.7 89.9 298.7H33.3C31.8 298.7 30.8 299.7 30.8 301.2V309.5C30.8 311 31.8 312 33.3 312H43.4C45.3 312 46.3 313.2 45.9 315.1C44.1 322.2 41.8 329.8 39.3 336.1C38.9 336.9 38.2 337.5 37.3 337.6H37.1C35.6 337.8 34.3 337.8 32.9 337.9C31.3 338 30.4 339.2 30.7 340.8L32.2 349.7C32.4 351.1 33.5 351.9 34.9 351.8C46.6 350.7 61.5 349.2 76 347.7C77.2 347.6 78.3 348.3 78.6 349.4C78.9 350.3 79.1 351.1 79.4 351.8V352C79.9 353.7 81.3 354.5 83 353.7L91.7 349.9C92.8 349.4 93.4 348.3 93.1 347.1Z" fill="#F7F7F7"/>
<path d="M128.9 270.6L127.5 278.8C127.3 280.3 128.1 281.5 129.6 281.7C140 283.2 154.6 284.8 164.2 285.6C165.7 285.7 166.7 284.9 166.9 283.5L168 275.1C168.3 273.6 167.3 272.4 165.7 272.3C156.1 271.6 141.7 270 131.8 268.5C130.3 268.3 129.1 269.1 128.9 270.6ZM170.6 297.5L165.4 291.6C164.7 290.8 163.5 290.5 162.5 290.8C161.3 291.1 159.7 291.4 158.5 291.5C150.2 292.5 129.2 293.2 125.2 293.2C122.9 293.2 120.6 293.1 118.7 293C116.9 292.9 115.8 294 115.9 295.8L116.8 305.7C116.9 307.4 118.1 308.3 119.8 308C121.4 307.7 123.4 307.4 125.4 307.2C129.2 306.9 134.6 306.4 139.6 306.1C143.1 305.9 143.8 307.6 141.4 310.1C132.9 319.1 120.8 331.1 116.1 335.8C114.4 337.6 112.7 339.1 111.2 340.5C109.7 341.8 109.7 343.4 111.4 344.5L120.1 350.6C121.2 351.4 122.6 351.2 123.5 350.1C129.8 342.1 134.6 336.8 137.5 333.6C139.8 331.3 141.7 329.7 143.1 329.7C144.7 329.7 146.7 330.7 147.8 333.8V334C148.3 336.2 149.3 339.9 150.3 342.7C152.7 348.8 157.7 350.8 167.3 350.8C171.4 350.8 179.6 350.4 184.3 349.8C185.4 349.6 186.3 348.7 186.3 347.6L187 337.8C187.1 335.9 185.9 334.8 184 335.1C179.7 335.7 174.6 336.1 168.4 336.1C165.3 336.1 163.4 334.6 162.6 332.1C161.8 330 161.1 327.1 160.2 324.7C159 321.5 157.4 319.6 155.4 318.5C154.9 318.3 154.3 318 153.7 317.9H153.5C152.5 317.6 152.3 316.9 153.1 316.2C155.9 313.4 162 308 165.8 304.8C167.2 303.7 168.5 302.5 170.2 301.3C171.6 300.2 171.7 298.8 170.6 297.5Z" fill="#F7F7F7"/>
<path d="M254.9 279C251.5 279.8 247.9 280.4 244.4 281C243.9 281.1 243.7 280.8 243.8 280.3L244 279.5L245.4 272.6C245.8 270.9 244.9 269.7 243.2 269.6L231.7 268.7C230 268.6 228.9 269.7 228.9 271.4C228.9 273.6 228.8 276.3 228.5 279C228.4 279.6 228.4 280.3 228.3 280.9C228.1 282 227.1 282.8 226.1 282.9H225.9C224.1 282.9 222.3 283 220.4 283C217.1 283 214.6 282.9 211 282.6C209.3 282.4 208.2 283.4 208.3 285.1L208.5 294.1C208.6 295.5 209.5 296.5 210.9 296.5C213.6 296.7 216.6 296.8 220.3 296.8H222.7C224.1 296.8 224.9 297.6 224.5 299L223.3 303.3C220.1 315.3 213.7 333 208.3 343.1C207.5 344.7 208 346.2 209.8 346.8L220.6 350.4C221.8 350.8 223.1 350.3 223.6 349.1C228.7 337.3 234.5 319.7 237.7 307.3C238.5 304.1 239.3 300.6 240.1 297.2C240.3 296.2 241.2 295.4 242.3 295.3C247 294.7 251.8 293.8 256 292.9C257.2 292.7 258 291.7 258 290.5V281.5C258 279.6 256.8 278.6 254.9 279ZM252.7 311.2C257.7 310.7 262.7 310.5 268.5 310.5C273.2 310.5 278 310.9 282 311.4C283.7 311.6 284.8 310.6 284.9 308.9L285 300.3C285.1 298.9 284.2 297.9 282.8 297.8C277.9 297.4 273 297.2 268.5 297.2C263.1 297.2 257.1 297.5 252.1 298C250.8 298.1 249.9 299.1 249.9 300.4V308.7C249.9 310.4 251 311.4 252.7 311.2ZM243.1 323.1C242.5 326.4 241.9 330.6 241.9 334.4C241.9 344 250.1 350 266.6 350C273.5 350 279.1 349.5 284.1 348.9C285.3 348.8 286.2 347.8 286.3 346.6L286.7 337.2C286.7 335.3 285.6 334.3 283.7 334.6C277.7 335.6 272.1 336.1 266.7 336.1C258.4 336.1 255.9 333.6 255.9 329.8C255.9 328.6 256.1 326.9 256.5 325.1C256.9 323.4 256 322.1 254.2 321.9L245.8 321.2C244.5 321.1 243.4 321.8 243.1 323.1Z" fill="#F7F7F7"/>
<path d="M323.3 277.4L311.9 277.2C310 277.2 309.1 278.4 309.3 280.3C309.6 282.8 309.7 285.4 309.7 287.4C309.7 293.4 309.8 304.1 310.7 313C313.4 338.8 322.6 348.3 333.7 348.3C341.8 348.3 347.7 342.7 354 327.2C354.3 326.3 354.1 325.3 353.6 324.7L346.3 315.8C344.3 313.3 342.6 313.8 341.8 316.8C340.1 322.9 337.4 329.8 334 329.8C328.6 329.8 326.7 321.2 325.5 308.9C325 302.6 325 296.4 325 290.2C325 288.1 325.3 284 325.8 280.4C326.1 278.6 325.1 277.4 323.3 277.4ZM370.7 279.7L361.4 282.8C359.2 283.5 358.8 285.1 360.2 287C368.7 298.4 372.3 316.3 374.1 329.2C374.3 331.1 375.7 331.9 377.5 331.3L388.1 327.2C389.2 326.8 389.8 325.7 389.7 324.6C388.1 311.7 381.6 291.2 373.4 280.5C372.7 279.7 371.7 279.4 370.7 279.7Z" fill="#F7F7F7"/>
<path d="M417.8 322.2C409.1 322.2 402 329.4 402 338.1C402 346.9 409.1 354 417.8 354C426.7 354 433.7 346.9 433.7 338.1C433.7 329.4 426.7 322.2 417.8 322.2ZM417.8 346C413.6 346 410 342.5 410 338.1C410 333.7 413.6 330.2 417.8 330.2C422.2 330.2 425.7 333.7 425.7 338.1C425.7 342.5 422.2 346 417.8 346Z" fill="#F7F7F7"/>
</svg>
