<svg width="80" height="80" viewBox="0 0 80 80" fill="none" xmlns="http://www.w3.org/2000/svg">
<g clip-path="url(#clip0_792_3524)">
<path d="M74 18.8597C71.4612 19.9856 68.7329 20.7465 65.8694 21.0888C68.7923 19.3367 71.0367 16.5625 72.0937 13.257C69.3586 14.8791 66.329 16.0572 63.1045 16.6922C60.522 13.9409 56.843 12.2217 52.7715 12.2217C44.9533 12.2217 38.6149 18.5599 38.6149 26.3775C38.6149 27.487 38.7403 28.5675 38.9816 29.6036C27.2163 29.0132 16.7854 23.3774 9.80342 14.8129C8.5849 16.9037 7.8868 19.3355 7.8868 21.9297C7.8868 26.8409 10.3862 31.1739 14.1846 33.7124C11.8639 33.639 9.68127 33.0022 7.77247 31.9419C7.77146 32.001 7.77146 32.0603 7.77146 32.1198C7.77146 38.9787 12.6511 44.7003 19.1271 46.0006C17.9391 46.3242 16.6885 46.4971 15.3973 46.4971C14.4852 46.4971 13.5983 46.4085 12.7341 46.2432C14.5354 51.8673 19.7634 55.96 25.9579 56.0744C21.1131 59.871 15.0092 62.1342 8.37693 62.1342C7.23438 62.1342 6.10747 62.0673 5 61.9366C11.2647 65.953 18.7059 68.2965 26.7002 68.2965C52.7384 68.2965 66.9771 46.7257 66.9771 28.0191C66.9771 27.4053 66.9635 26.7947 66.9362 26.1878C69.7019 24.1919 72.1021 21.6985 74 18.8597Z" fill="#55ACEE"/>
</g>
<defs>
<clipPath id="clip0_792_3524">
<rect width="69" height="56.332" fill="white" transform="translate(5 12)"/>
</clipPath>
</defs>
</svg>
