<svg width="455" height="497" viewBox="0 0 455 497" fill="none" xmlns="http://www.w3.org/2000/svg">
<rect width="455" height="497" rx="4" fill="#E7E7E7"/>
<g clip-path="url(#clip0_702_10799)">
<rect x="125.863" y="280.337" width="207.003" height="19" rx="1.20059" fill="#121212"/>
<path d="M133.536 294.337C132.879 294.321 132.287 294.205 131.759 293.989C131.23 293.764 130.778 293.464 130.402 293.088C130.026 292.704 129.734 292.26 129.526 291.755C129.325 291.251 129.225 290.711 129.225 290.135C129.225 289.558 129.325 289.018 129.526 288.514C129.734 288.01 130.026 287.569 130.402 287.193C130.778 286.809 131.23 286.505 131.759 286.281C132.287 286.057 132.879 285.941 133.536 285.933H134.844V287.445H133.572C133.187 287.453 132.835 287.525 132.515 287.661C132.195 287.798 131.915 287.986 131.675 288.226C131.442 288.466 131.262 288.75 131.134 289.078C131.006 289.398 130.942 289.75 130.942 290.135C130.942 290.519 131.006 290.875 131.134 291.203C131.262 291.523 131.442 291.803 131.675 292.044C131.915 292.284 132.195 292.472 132.515 292.608C132.835 292.744 133.187 292.816 133.572 292.824H134.844V294.337H133.536ZM136.766 294.337V285.933H139.6C140.496 285.933 141.272 286.113 141.929 286.473C142.585 286.833 143.093 287.329 143.453 287.962C143.822 288.594 144.006 289.318 144.006 290.135C144.006 290.951 143.822 291.675 143.453 292.308C143.093 292.94 142.585 293.436 141.929 293.796C141.272 294.157 140.496 294.337 139.6 294.337H136.766ZM138.483 292.824H139.6C140.12 292.824 140.58 292.716 140.98 292.5C141.388 292.284 141.709 291.976 141.941 291.575C142.173 291.167 142.289 290.687 142.289 290.135C142.289 289.574 142.173 289.094 141.941 288.694C141.709 288.294 141.388 287.986 140.98 287.77C140.58 287.553 140.12 287.445 139.6 287.445H138.483V292.824ZM151.475 294.481C150.979 294.481 150.542 294.369 150.166 294.145C149.79 293.913 149.498 293.608 149.29 293.232C149.082 292.848 148.978 292.428 148.978 291.972V288.094C148.978 287.95 148.942 287.818 148.87 287.697C148.797 287.577 148.701 287.481 148.581 287.409C148.461 287.337 148.329 287.301 148.185 287.301C148.041 287.301 147.909 287.337 147.789 287.409C147.677 287.481 147.585 287.577 147.513 287.697C147.441 287.818 147.405 287.95 147.405 288.094V294.337H145.688V288.298C145.688 287.834 145.792 287.413 146 287.037C146.208 286.661 146.5 286.361 146.877 286.137C147.253 285.905 147.689 285.789 148.185 285.789C148.689 285.789 149.13 285.905 149.506 286.137C149.882 286.361 150.174 286.661 150.382 287.037C150.59 287.413 150.694 287.834 150.694 288.298V292.176C150.694 292.32 150.73 292.452 150.802 292.572C150.875 292.692 150.967 292.788 151.079 292.86C151.199 292.932 151.331 292.968 151.475 292.968C151.619 292.968 151.751 292.932 151.871 292.86C151.991 292.788 152.087 292.692 152.159 292.572C152.231 292.452 152.267 292.32 152.267 292.176V285.933H153.984V291.972C153.984 292.428 153.88 292.848 153.672 293.232C153.464 293.608 153.172 293.913 152.795 294.145C152.419 294.369 151.979 294.481 151.475 294.481ZM157.977 296.498C157.464 295.881 157.036 295.121 156.692 294.217C156.348 293.304 156.176 292.244 156.176 291.035C156.176 289.827 156.348 288.766 156.692 287.854C157.036 286.941 157.464 286.181 157.977 285.572H159.813C159.269 286.181 158.813 286.941 158.445 287.854C158.077 288.766 157.892 289.827 157.892 291.035C157.892 292.244 158.077 293.304 158.445 294.217C158.813 295.121 159.269 295.881 159.813 296.498H157.977ZM164.72 294.337C164.064 294.321 163.472 294.205 162.943 293.989C162.415 293.764 161.963 293.464 161.587 293.088C161.211 292.704 160.918 292.26 160.71 291.755C160.51 291.251 160.41 290.711 160.41 290.135C160.41 289.558 160.51 289.018 160.71 288.514C160.918 288.01 161.211 287.569 161.587 287.193C161.963 286.809 162.415 286.505 162.943 286.281C163.472 286.057 164.064 285.941 164.72 285.933H166.029V287.445H164.756C164.372 287.453 164.02 287.525 163.7 287.661C163.38 287.798 163.099 287.986 162.859 288.226C162.627 288.466 162.447 288.75 162.319 289.078C162.191 289.398 162.127 289.75 162.127 290.135C162.127 290.519 162.191 290.875 162.319 291.203C162.447 291.523 162.627 291.803 162.859 292.044C163.099 292.284 163.38 292.472 163.7 292.608C164.02 292.744 164.372 292.816 164.756 292.824H166.029V294.337H164.72ZM170.832 294.481C170.2 294.481 169.636 294.341 169.139 294.061C168.643 293.772 168.251 293.388 167.963 292.908C167.675 292.42 167.531 291.876 167.531 291.275C167.531 290.675 167.675 290.135 167.963 289.654C168.251 289.166 168.643 288.782 169.139 288.502C169.636 288.214 170.2 288.07 170.832 288.07C171.465 288.07 172.029 288.214 172.525 288.502C173.021 288.782 173.414 289.166 173.702 289.654C173.99 290.135 174.134 290.675 174.134 291.275C174.134 291.876 173.99 292.42 173.702 292.908C173.414 293.388 173.021 293.772 172.525 294.061C172.029 294.341 171.465 294.481 170.832 294.481ZM170.832 293.076C171.168 293.076 171.457 292.996 171.697 292.836C171.945 292.676 172.133 292.46 172.261 292.188C172.397 291.916 172.465 291.611 172.465 291.275C172.465 290.939 172.397 290.635 172.261 290.363C172.133 290.091 171.945 289.875 171.697 289.714C171.457 289.554 171.168 289.474 170.832 289.474C170.496 289.474 170.204 289.554 169.956 289.714C169.716 289.875 169.528 290.091 169.392 290.363C169.264 290.635 169.199 290.939 169.199 291.275C169.199 291.611 169.264 291.916 169.392 292.188C169.528 292.46 169.716 292.676 169.956 292.836C170.204 292.996 170.496 293.076 170.832 293.076ZM175.936 294.337V290.819C175.936 290.315 176.052 289.855 176.284 289.438C176.524 289.022 176.869 288.69 177.317 288.442C177.765 288.194 178.301 288.07 178.926 288.07C179.558 288.07 180.094 288.194 180.534 288.442C180.983 288.69 181.323 289.022 181.555 289.438C181.795 289.855 181.915 290.315 181.915 290.819V294.337H180.27V290.819C180.27 290.571 180.21 290.347 180.09 290.147C179.97 289.939 179.806 289.775 179.598 289.654C179.398 289.534 179.174 289.474 178.926 289.474C178.678 289.474 178.449 289.534 178.241 289.654C178.041 289.775 177.881 289.939 177.761 290.147C177.641 290.347 177.581 290.571 177.581 290.819V294.337H175.936ZM186.2 294.337C185.656 294.337 185.228 294.181 184.916 293.869C184.612 293.556 184.459 293.132 184.459 292.596V286.677H186.104V292.548C186.104 292.652 186.14 292.744 186.212 292.824C186.292 292.896 186.384 292.932 186.488 292.932H187.821V294.337H186.2ZM183.415 289.618V288.214H187.821V289.618H183.415ZM192.533 294.337C191.837 294.337 191.228 294.205 190.708 293.941C190.196 293.668 189.796 293.3 189.507 292.836C189.227 292.372 189.087 291.852 189.087 291.275C189.087 290.627 189.219 290.063 189.483 289.582C189.748 289.102 190.108 288.73 190.564 288.466C191.02 288.202 191.536 288.07 192.113 288.07C192.801 288.07 193.357 288.214 193.782 288.502C194.214 288.79 194.53 289.178 194.73 289.666C194.93 290.147 195.03 290.683 195.03 291.275C195.03 291.355 195.026 291.451 195.018 291.563C195.01 291.667 194.998 291.747 194.982 291.803H190.84C190.904 292.052 191.012 292.26 191.164 292.428C191.324 292.596 191.52 292.724 191.753 292.812C191.993 292.892 192.261 292.932 192.557 292.932H194.262V294.337H192.533ZM190.828 290.699H193.385C193.369 290.547 193.341 290.407 193.301 290.279C193.261 290.143 193.205 290.023 193.133 289.919C193.061 289.815 192.977 289.726 192.881 289.654C192.785 289.582 192.673 289.526 192.545 289.486C192.417 289.446 192.277 289.426 192.125 289.426C191.925 289.426 191.745 289.462 191.584 289.534C191.432 289.606 191.304 289.702 191.2 289.823C191.096 289.943 191.012 290.079 190.948 290.231C190.892 290.383 190.852 290.539 190.828 290.699ZM196.789 294.337V290.819C196.789 290.315 196.905 289.855 197.137 289.438C197.378 289.022 197.722 288.69 198.17 288.442C198.618 288.194 199.154 288.07 199.779 288.07C200.411 288.07 200.947 288.194 201.388 288.442C201.836 288.69 202.176 289.022 202.408 289.438C202.648 289.855 202.768 290.315 202.768 290.819V294.337H201.123V290.819C201.123 290.571 201.063 290.347 200.943 290.147C200.823 289.939 200.659 289.775 200.451 289.654C200.251 289.534 200.027 289.474 199.779 289.474C199.531 289.474 199.303 289.534 199.094 289.654C198.894 289.775 198.734 289.939 198.614 290.147C198.494 290.347 198.434 290.571 198.434 290.819V294.337H196.789ZM207.053 294.337C206.509 294.337 206.081 294.181 205.769 293.869C205.465 293.556 205.313 293.132 205.313 292.596V286.677H206.957V292.548C206.957 292.652 206.993 292.744 207.065 292.824C207.146 292.896 207.238 292.932 207.342 292.932H208.674V294.337H207.053ZM204.268 289.618V288.214H208.674V289.618H204.268ZM214.373 294.337V285.933H217.206C218.103 285.933 218.879 286.113 219.535 286.473C220.192 286.833 220.7 287.329 221.06 287.962C221.428 288.594 221.612 289.318 221.612 290.135C221.612 290.951 221.428 291.675 221.06 292.308C220.7 292.94 220.192 293.436 219.535 293.796C218.879 294.157 218.103 294.337 217.206 294.337H214.373ZM216.09 292.824H217.206C217.726 292.824 218.187 292.716 218.587 292.5C218.995 292.284 219.315 291.976 219.547 291.575C219.779 291.167 219.895 290.687 219.895 290.135C219.895 289.574 219.779 289.094 219.547 288.694C219.315 288.294 218.995 287.986 218.587 287.77C218.187 287.553 217.726 287.445 217.206 287.445H216.09V292.824ZM226.44 294.337C225.744 294.337 225.135 294.205 224.615 293.941C224.103 293.668 223.703 293.3 223.415 292.836C223.135 292.372 222.994 291.852 222.994 291.275C222.994 290.627 223.127 290.063 223.391 289.582C223.655 289.102 224.015 288.73 224.471 288.466C224.927 288.202 225.444 288.07 226.02 288.07C226.708 288.07 227.265 288.214 227.689 288.502C228.121 288.79 228.437 289.178 228.637 289.666C228.837 290.147 228.937 290.683 228.937 291.275C228.937 291.355 228.933 291.451 228.925 291.563C228.917 291.667 228.905 291.747 228.889 291.803H224.747C224.811 292.052 224.919 292.26 225.071 292.428C225.232 292.596 225.428 292.724 225.66 292.812C225.9 292.892 226.168 292.932 226.464 292.932H228.169V294.337H226.44ZM224.735 290.699H227.293C227.277 290.547 227.249 290.407 227.208 290.279C227.168 290.143 227.112 290.023 227.04 289.919C226.968 289.815 226.884 289.726 226.788 289.654C226.692 289.582 226.58 289.526 226.452 289.486C226.324 289.446 226.184 289.426 226.032 289.426C225.832 289.426 225.652 289.462 225.492 289.534C225.34 289.606 225.212 289.702 225.107 289.823C225.003 289.943 224.919 290.079 224.855 290.231C224.799 290.383 224.759 290.539 224.735 290.699ZM230.696 294.337V285.572H232.341V294.337H230.696ZM234.498 294.337V288.214H236.154V294.337H234.498ZM235.326 287.481C235.046 287.481 234.802 287.381 234.594 287.181C234.394 286.973 234.293 286.729 234.293 286.449C234.293 286.169 234.394 285.929 234.594 285.729C234.802 285.52 235.046 285.416 235.326 285.416C235.606 285.416 235.846 285.52 236.046 285.729C236.254 285.929 236.358 286.169 236.358 286.449C236.358 286.729 236.254 286.973 236.046 287.181C235.846 287.381 235.606 287.481 235.326 287.481ZM240.976 294.481C240.616 294.481 240.288 294.385 239.991 294.193C239.703 294.001 239.503 293.748 239.391 293.436L237.638 288.214H239.427L240.844 292.764C240.86 292.796 240.88 292.82 240.904 292.836C240.928 292.852 240.956 292.86 240.988 292.86C241.02 292.86 241.048 292.852 241.072 292.836C241.104 292.82 241.124 292.796 241.132 292.764L242.561 288.214H244.314L242.561 293.424C242.449 293.736 242.245 293.993 241.948 294.193C241.66 294.385 241.336 294.481 240.976 294.481ZM248.667 294.337C247.971 294.337 247.363 294.205 246.842 293.941C246.33 293.668 245.93 293.3 245.642 292.836C245.362 292.372 245.222 291.852 245.222 291.275C245.222 290.627 245.354 290.063 245.618 289.582C245.882 289.102 246.242 288.73 246.698 288.466C247.155 288.202 247.671 288.07 248.247 288.07C248.936 288.07 249.492 288.214 249.916 288.502C250.348 288.79 250.664 289.178 250.864 289.666C251.065 290.147 251.165 290.683 251.165 291.275C251.165 291.355 251.161 291.451 251.153 291.563C251.145 291.667 251.133 291.747 251.117 291.803H246.975C247.039 292.052 247.147 292.26 247.299 292.428C247.459 292.596 247.655 292.724 247.887 292.812C248.127 292.892 248.395 292.932 248.691 292.932H250.396V294.337H248.667ZM246.963 290.699H249.52C249.504 290.547 249.476 290.407 249.436 290.279C249.396 290.143 249.34 290.023 249.268 289.919C249.196 289.815 249.112 289.726 249.016 289.654C248.919 289.582 248.807 289.526 248.679 289.486C248.551 289.446 248.411 289.426 248.259 289.426C248.059 289.426 247.879 289.462 247.719 289.534C247.567 289.606 247.439 289.702 247.335 289.823C247.231 289.943 247.147 290.079 247.083 290.231C247.027 290.383 246.987 290.539 246.963 290.699ZM252.864 294.337V289.955C252.864 289.41 253.016 288.986 253.32 288.682C253.632 288.37 254.06 288.214 254.605 288.214H256.297V289.618H254.893C254.789 289.618 254.697 289.654 254.617 289.726C254.545 289.799 254.509 289.891 254.509 290.003V294.337H252.864ZM259.989 296.774V294.397C259.524 294.301 259.128 294.125 258.8 293.869C258.48 293.612 258.232 293.3 258.056 292.932C257.887 292.556 257.803 292.156 257.803 291.731V288.214H259.448V291.731C259.448 291.98 259.508 292.208 259.628 292.416C259.748 292.616 259.908 292.776 260.109 292.896C260.317 293.016 260.545 293.076 260.793 293.076C261.041 293.076 261.265 293.016 261.465 292.896C261.673 292.776 261.837 292.616 261.957 292.416C262.078 292.208 262.138 291.98 262.138 291.731V288.214H263.782V291.731C263.782 292.156 263.698 292.552 263.53 292.92C263.362 293.28 263.118 293.592 262.798 293.856C262.478 294.113 262.09 294.289 261.633 294.385V296.774H259.989ZM275.447 294.481C274.951 294.481 274.515 294.369 274.138 294.145C273.762 293.913 273.47 293.608 273.262 293.232C273.054 292.848 272.95 292.428 272.95 291.972V288.094C272.95 287.95 272.914 287.818 272.842 287.697C272.77 287.577 272.674 287.481 272.554 287.409C272.434 287.337 272.301 287.301 272.157 287.301C272.013 287.301 271.881 287.337 271.761 287.409C271.649 287.481 271.557 287.577 271.485 287.697C271.413 287.818 271.377 287.95 271.377 288.094V294.337H269.66V288.298C269.66 287.834 269.764 287.413 269.972 287.037C270.18 286.661 270.473 286.361 270.849 286.137C271.225 285.905 271.661 285.789 272.157 285.789C272.662 285.789 273.102 285.905 273.478 286.137C273.854 286.361 274.146 286.661 274.354 287.037C274.563 287.413 274.667 287.834 274.667 288.298V292.176C274.667 292.32 274.703 292.452 274.775 292.572C274.847 292.692 274.939 292.788 275.051 292.86C275.171 292.932 275.303 292.968 275.447 292.968C275.591 292.968 275.723 292.932 275.843 292.86C275.963 292.788 276.059 292.692 276.131 292.572C276.203 292.452 276.239 292.32 276.239 292.176V285.933H277.956V291.972C277.956 292.428 277.852 292.848 277.644 293.232C277.436 293.608 277.144 293.913 276.768 294.145C276.391 294.369 275.951 294.481 275.447 294.481ZM283.137 294.337C282.441 294.337 281.833 294.205 281.312 293.941C280.8 293.668 280.4 293.3 280.112 292.836C279.832 292.372 279.692 291.852 279.692 291.275C279.692 290.627 279.824 290.063 280.088 289.582C280.352 289.102 280.712 288.73 281.168 288.466C281.625 288.202 282.141 288.07 282.717 288.07C283.405 288.07 283.962 288.214 284.386 288.502C284.818 288.79 285.134 289.178 285.334 289.666C285.534 290.147 285.635 290.683 285.635 291.275C285.635 291.355 285.631 291.451 285.623 291.563C285.615 291.667 285.603 291.747 285.587 291.803H281.444C281.509 292.052 281.617 292.26 281.769 292.428C281.929 292.596 282.125 292.724 282.357 292.812C282.597 292.892 282.865 292.932 283.161 292.932H284.866V294.337H283.137ZM281.432 290.699H283.99C283.974 290.547 283.946 290.407 283.906 290.279C283.866 290.143 283.81 290.023 283.738 289.919C283.666 289.815 283.582 289.726 283.485 289.654C283.389 289.582 283.277 289.526 283.149 289.486C283.021 289.446 282.881 289.426 282.729 289.426C282.529 289.426 282.349 289.462 282.189 289.534C282.037 289.606 281.909 289.702 281.805 289.823C281.701 289.943 281.617 290.079 281.553 290.231C281.497 290.383 281.456 290.539 281.432 290.699ZM289.519 294.337C288.974 294.337 288.546 294.181 288.234 293.869C287.93 293.556 287.778 293.132 287.778 292.596V286.677H289.423V292.548C289.423 292.652 289.459 292.744 289.531 292.824C289.611 292.896 289.703 292.932 289.807 292.932H291.139V294.337H289.519ZM286.733 289.618V288.214H291.139V289.618H286.733ZM295.269 294.481C294.853 294.481 294.473 294.401 294.129 294.241C293.785 294.073 293.509 293.82 293.3 293.484C293.1 293.148 293 292.724 293 292.212V288.214H294.645V292.452C294.645 292.564 294.673 292.668 294.729 292.764C294.785 292.86 294.861 292.936 294.957 292.992C295.053 293.048 295.157 293.076 295.269 293.076C295.381 293.076 295.486 293.048 295.582 292.992C295.678 292.936 295.754 292.86 295.81 292.764C295.866 292.668 295.894 292.564 295.894 292.452V290.339C295.894 289.859 295.986 289.45 296.17 289.114C296.362 288.778 296.626 288.522 296.962 288.346C297.306 288.162 297.707 288.07 298.163 288.07C298.619 288.07 299.015 288.162 299.351 288.346C299.696 288.522 299.96 288.778 300.144 289.114C300.336 289.45 300.432 289.859 300.432 290.339V292.452C300.432 292.564 300.46 292.668 300.516 292.764C300.572 292.86 300.648 292.936 300.744 292.992C300.84 293.048 300.944 293.076 301.056 293.076C301.176 293.076 301.28 293.048 301.368 292.992C301.464 292.936 301.54 292.86 301.596 292.764C301.653 292.668 301.681 292.564 301.681 292.452V288.214H303.325V292.212C303.325 292.724 303.221 293.148 303.013 293.484C302.813 293.82 302.541 294.073 302.197 294.241C301.853 294.401 301.472 294.481 301.056 294.481C300.648 294.481 300.272 294.401 299.928 294.241C299.584 294.073 299.307 293.82 299.099 293.484C298.891 293.148 298.787 292.724 298.787 292.212V290.099C298.787 289.979 298.759 289.875 298.703 289.787C298.647 289.69 298.571 289.614 298.475 289.558C298.387 289.502 298.283 289.474 298.163 289.474C298.051 289.474 297.947 289.502 297.851 289.558C297.755 289.614 297.679 289.69 297.623 289.787C297.567 289.875 297.539 289.979 297.539 290.099V292.212C297.539 292.724 297.434 293.148 297.226 293.484C297.018 293.82 296.742 294.073 296.398 294.241C296.062 294.401 295.686 294.481 295.269 294.481ZM308.431 294.481C307.798 294.481 307.234 294.341 306.738 294.061C306.242 293.772 305.849 293.388 305.561 292.908C305.273 292.42 305.129 291.876 305.129 291.275C305.129 290.675 305.273 290.135 305.561 289.654C305.849 289.166 306.242 288.782 306.738 288.502C307.234 288.214 307.798 288.07 308.431 288.07C309.063 288.07 309.627 288.214 310.123 288.502C310.62 288.782 311.012 289.166 311.3 289.654C311.588 290.135 311.732 290.675 311.732 291.275C311.732 291.876 311.588 292.42 311.3 292.908C311.012 293.388 310.62 293.772 310.123 294.061C309.627 294.341 309.063 294.481 308.431 294.481ZM308.431 293.076C308.767 293.076 309.055 292.996 309.295 292.836C309.543 292.676 309.731 292.46 309.859 292.188C309.995 291.916 310.063 291.611 310.063 291.275C310.063 290.939 309.995 290.635 309.859 290.363C309.731 290.091 309.543 289.875 309.295 289.714C309.055 289.554 308.767 289.474 308.431 289.474C308.094 289.474 307.802 289.554 307.554 289.714C307.314 289.875 307.126 290.091 306.99 290.363C306.862 290.635 306.798 290.939 306.798 291.275C306.798 291.611 306.862 291.916 306.99 292.188C307.126 292.46 307.314 292.676 307.554 292.836C307.802 292.996 308.094 293.076 308.431 293.076ZM313.475 294.337V289.955C313.475 289.41 313.627 288.986 313.931 288.682C314.243 288.37 314.671 288.214 315.215 288.214H316.908V289.618H315.504C315.399 289.618 315.307 289.654 315.227 289.726C315.155 289.799 315.119 289.891 315.119 290.003V294.337H313.475ZM318.414 294.337V285.572H320.059V290.555H321.032L322.508 288.214H324.309L322.628 290.807C323.149 291.023 323.553 291.355 323.841 291.803C324.129 292.252 324.273 292.752 324.273 293.304V294.337H322.628V293.304C322.628 293.056 322.564 292.832 322.436 292.632C322.316 292.424 322.156 292.26 321.956 292.14C321.756 292.02 321.532 291.96 321.284 291.96H320.059V294.337H318.414ZM325.046 296.498C325.59 295.881 326.047 295.121 326.415 294.217C326.783 293.304 326.967 292.244 326.967 291.035C326.967 289.827 326.783 288.766 326.415 287.854C326.047 286.941 325.59 286.181 325.046 285.572H326.883C327.395 286.181 327.823 286.941 328.168 287.854C328.512 288.766 328.684 289.827 328.684 291.035C328.684 292.244 328.512 293.304 328.168 294.217C327.823 295.121 327.395 295.881 326.883 296.498H325.046Z" fill="#EDEDED"/>
<path d="M184.174 235.833C184.174 233.725 185 231.703 186.47 230.212C187.941 228.721 189.935 227.884 192.014 227.884H215.532C217.611 227.884 219.605 228.721 221.076 230.212C222.546 231.703 223.372 233.725 223.372 235.833H235.131V223.909H225.998C222.592 223.915 219.295 222.691 216.696 220.458C214.098 218.224 212.369 215.126 211.817 211.718C211.266 208.309 211.928 204.813 213.686 201.855C215.444 198.896 218.182 196.668 221.412 195.57C223.204 191.78 226.136 188.664 229.785 186.669C233.434 184.675 237.612 183.905 241.72 184.471C245.828 185.036 249.653 186.907 252.645 189.816C255.638 192.724 257.644 196.52 258.375 200.657C261.03 201.542 263.287 203.356 264.742 205.775C266.197 208.194 266.756 211.059 266.317 213.857C265.878 216.656 264.471 219.204 262.348 221.046C260.225 222.888 257.524 223.903 254.73 223.909H242.971V255.706C242.971 256.76 242.558 257.771 241.823 258.517C241.087 259.262 240.09 259.681 239.051 259.681H223.372C223.372 261.789 222.546 263.811 221.076 265.302C219.605 266.793 217.611 267.63 215.532 267.63H192.014C189.935 267.63 187.941 266.793 186.47 265.302C185 263.811 184.174 261.789 184.174 259.681V251.732C184.189 250.332 184.567 248.961 185.272 247.757C184.567 246.553 184.189 245.182 184.174 243.782V235.833ZM254.73 215.96C255.77 215.96 256.767 215.541 257.502 214.796C258.237 214.05 258.65 213.039 258.65 211.985C258.65 210.931 258.237 209.92 257.502 209.175C256.767 208.429 255.77 208.011 254.73 208.011C253.69 208.011 252.693 207.592 251.958 206.846C251.223 206.101 250.81 205.09 250.81 204.036C250.842 201.199 249.875 198.444 248.084 196.266C246.292 194.087 243.794 192.627 241.036 192.148C238.279 191.669 235.444 192.203 233.039 193.654C230.635 195.104 228.82 197.376 227.919 200.061C227.689 200.737 227.283 201.337 226.745 201.799C226.207 202.26 225.556 202.566 224.861 202.685C223.322 202.943 221.926 203.757 220.932 204.977C219.938 206.197 219.412 207.74 219.452 209.322C219.452 211.083 220.142 212.771 221.369 214.016C222.597 215.261 224.262 215.96 225.998 215.96H254.73ZM223.372 251.732H235.131V243.782H223.372C223.357 245.182 222.979 246.553 222.274 247.757C222.979 248.961 223.357 250.332 223.372 251.732V251.732ZM215.532 259.681V251.732H192.014V259.681H215.532ZM215.532 243.782V235.833H192.014V243.782H215.532Z" fill="#121212"/>
<path d="M206.223 45.5603C206.223 43.9445 207.565 42.6226 209.206 42.6226H256.92C258.56 42.6226 259.902 41.3006 259.902 39.6848C259.902 38.069 258.56 36.747 256.92 36.747H206.223C202.943 36.747 200.259 39.391 200.259 42.6226V74.9379H198.768C196.293 74.9379 194.295 76.9062 194.295 79.3445C194.295 81.7829 196.293 83.7512 198.768 83.7512H236.045V74.9379H206.223V45.5603ZM262.884 48.4981H244.991C243.351 48.4981 242.009 49.8201 242.009 51.4358V80.8134C242.009 82.4292 243.351 83.7512 244.991 83.7512H262.884C264.524 83.7512 265.866 82.4292 265.866 80.8134V51.4358C265.866 49.8201 264.524 48.4981 262.884 48.4981ZM259.902 74.9379H247.973V54.3736H259.902V74.9379Z" fill="#121212"/>
<path d="M198.459 6.60315C193.572 6.60856 188.887 8.52325 185.432 11.9272C181.976 15.3311 180.033 19.9462 180.027 24.76C180.036 29.573 181.98 34.1865 185.435 37.5898C188.89 40.9931 193.573 42.9087 198.459 42.9169C203.347 42.9169 208.035 41.004 211.491 37.5989C214.948 34.1938 216.89 29.5755 216.89 24.76C216.89 19.9445 214.948 15.3263 211.491 11.9212C208.035 8.5161 203.347 6.60315 198.459 6.60315ZM209.669 35.237C208.634 33.1804 207.036 31.4496 205.055 30.24C203.075 29.0304 200.791 28.3902 198.46 28.3914C196.13 28.3926 193.846 29.0354 191.867 30.2471C189.888 31.4588 188.292 33.1912 187.259 35.249C184.503 32.4333 182.967 28.6716 182.976 24.76C182.976 20.715 184.607 16.8357 187.511 13.9754C190.414 11.1151 194.352 9.50825 198.459 9.50825C202.565 9.50825 206.503 11.1151 209.406 13.9754C212.31 16.8357 213.941 20.715 213.941 24.76C213.95 28.6659 212.418 32.4225 209.669 35.237ZM198.459 13.8659C197.146 13.8659 195.863 14.2493 194.772 14.9675C193.681 15.6857 192.831 16.7066 192.328 17.901C191.826 19.0954 191.695 20.4096 191.951 21.6776C192.207 22.9455 192.839 24.1102 193.767 25.0244C194.695 25.9385 195.877 26.561 197.164 26.8133C198.451 27.0655 199.785 26.936 200.998 26.4413C202.21 25.9466 203.246 25.1088 203.975 24.0338C204.705 22.9589 205.094 21.6952 205.094 20.4024C205.094 19.544 204.922 18.694 204.589 17.901C204.255 17.1079 203.766 16.3874 203.15 15.7804C202.534 15.1734 201.803 14.6919 200.998 14.3635C200.193 14.035 199.33 13.8659 198.459 13.8659Z" fill="#121212"/>
<rect x="170.885" y="93.6456" width="132.003" height="19" rx="1.20059" fill="#121212"/>
<path d="M183.563 99.8538L182.315 99.2295C182.111 99.3136 181.51 99.3856 181.198 99.3856H177.404C176.996 99.3856 176.444 99.3376 176.06 99.2896V100.982C176.492 100.946 176.936 100.934 177.416 100.934H181.558C181.534 101.715 181.114 104.26 180.886 105.569H175.928C175.556 105.569 175.123 105.533 174.739 105.473V107.213C175.147 107.177 175.568 107.153 175.928 107.153H183.936C184.212 107.153 184.716 107.165 185.052 107.213V105.473C184.74 105.509 184.356 105.569 183.936 105.569H182.639C182.867 104.224 183.299 101.487 183.443 100.394C183.455 100.298 183.515 100.022 183.563 99.8538ZM187.597 102.087V103.972C188.042 103.936 188.846 103.912 189.53 103.912H195.977C196.482 103.912 197.094 103.96 197.382 103.972V102.087C197.07 102.111 196.542 102.159 195.977 102.159H189.53C188.906 102.159 188.03 102.123 187.597 102.087ZM208.673 98.3051L207.869 98.5692C208.097 99.0494 208.313 99.7098 208.481 100.214L209.31 99.9499C209.178 99.4816 208.901 98.7853 208.673 98.3051ZM209.91 97.9209L209.094 98.185C209.346 98.6532 209.574 99.3016 209.742 99.8178L210.57 99.5537C210.414 99.0975 210.138 98.4011 209.91 97.9209ZM207.641 102.519V102.123H208.541C209.166 102.123 209.586 102.135 209.85 102.159V100.562C209.526 100.622 209.166 100.646 208.529 100.646H207.641V99.3856C207.641 98.9054 207.689 98.5212 207.725 98.2691H206.008C206.044 98.5092 206.08 98.9054 206.08 99.3856V100.646H203.235V99.4696C203.235 98.9894 203.283 98.6052 203.307 98.3771H201.602C201.638 98.7493 201.674 99.1095 201.674 99.4576V100.646H200.653C200.053 100.646 199.573 100.574 199.357 100.538V102.171C199.621 102.159 200.053 102.123 200.653 102.123H201.674V103.756C201.674 104.296 201.638 104.776 201.602 105.016H203.283C203.271 104.776 203.235 104.296 203.235 103.756V102.123H206.08V102.579C206.08 105.533 205.06 106.565 202.742 107.382L204.027 108.594C206.932 107.309 207.641 105.497 207.641 102.519ZM212.575 102.087V103.972C213.019 103.936 213.824 103.912 214.508 103.912H220.955C221.46 103.912 222.072 103.96 222.36 103.972V102.087C222.048 102.111 221.52 102.159 220.955 102.159H214.508C213.884 102.159 213.007 102.123 212.575 102.087ZM232.037 103.083C232.037 105.653 233.105 107.574 234.402 108.846L235.542 108.342C234.342 107.045 233.393 105.389 233.393 103.083C233.393 100.778 234.342 99.1215 235.542 97.8248L234.402 97.3206C233.105 98.5932 232.037 100.514 232.037 103.083ZM245.795 97.5247L244.811 97.9329C245.039 98.2811 245.279 98.7013 245.483 99.0975C245.267 99.1215 245.063 99.1215 244.919 99.1215H239.36C238.964 99.1215 238.28 99.0734 237.932 99.0254V100.718C238.244 100.694 238.808 100.67 239.36 100.67H244.943C244.787 101.703 244.331 103.059 243.538 104.056C242.566 105.28 241.209 106.325 238.832 106.877L240.141 108.318C242.29 107.622 243.886 106.433 244.967 104.992C245.976 103.66 246.492 101.799 246.78 100.622C246.84 100.37 246.924 100.022 247.044 99.7938L246.276 99.2896L246.72 99.1095C246.504 98.6773 246.108 97.9809 245.795 97.5247ZM247.476 97.2245L246.48 97.6207C246.804 98.065 247.176 98.7493 247.44 99.2415L248.437 98.8093C248.209 98.3891 247.776 97.6568 247.476 97.2245ZM251.966 98.4371V99.9859C252.315 99.9619 252.831 99.9499 253.215 99.9499H257.813C258.246 99.9499 258.81 99.9619 259.134 99.9859V98.4371C258.798 98.4852 258.209 98.4972 257.837 98.4972H253.215C252.807 98.4972 252.303 98.4852 251.966 98.4371ZM260.142 101.919L259.074 101.259C258.906 101.331 258.582 101.379 258.197 101.379H252.255C251.882 101.379 251.366 101.343 250.862 101.307V102.867C251.366 102.819 251.966 102.807 252.255 102.807H258.053C257.837 103.48 257.465 104.224 256.817 104.884C255.904 105.821 254.464 106.613 252.663 106.985L253.851 108.342C255.388 107.91 256.925 107.093 258.137 105.749C259.038 104.752 259.554 103.588 259.914 102.423C259.962 102.291 260.058 102.075 260.142 101.919ZM268.763 97.8368H266.914C266.998 98.3531 267.01 98.6052 267.01 98.9414V99.8658H264.441C263.984 99.8658 263.624 99.8538 263.216 99.8058C263.264 100.094 263.276 100.574 263.276 100.838V102.915C263.276 103.239 263.252 103.624 263.216 103.924H264.873C264.849 103.684 264.837 103.312 264.837 103.035V101.283H270.792C270.648 102.351 270.335 103.492 269.723 104.368C269.051 105.341 267.994 106.049 266.998 106.421C266.506 106.613 265.845 106.793 265.305 106.889L266.554 108.33C268.691 107.778 270.491 106.505 271.452 104.728C272.04 103.636 272.364 102.483 272.568 101.331C272.617 101.09 272.713 100.634 272.809 100.37L271.764 99.7338C271.56 99.8058 271.272 99.8658 270.768 99.8658H268.679V98.9414C268.679 98.6052 268.703 98.3531 268.763 97.8368ZM284.31 98.3051L283.506 98.5692C283.734 99.0494 283.95 99.7098 284.118 100.214L284.947 99.9499C284.814 99.4816 284.538 98.7853 284.31 98.3051ZM285.547 97.9209L284.73 98.185C284.983 98.6532 285.211 99.3016 285.379 99.8178L286.207 99.5537C286.051 99.0975 285.775 98.4011 285.547 97.9209ZM283.278 102.519V102.123H284.178C284.802 102.123 285.223 102.135 285.487 102.159V100.562C285.163 100.622 284.802 100.646 284.166 100.646H283.278V99.3856C283.278 98.9054 283.326 98.5212 283.362 98.2691H281.645C281.681 98.5092 281.717 98.9054 281.717 99.3856V100.646H278.872V99.4696C278.872 98.9894 278.92 98.6052 278.944 98.3771H277.239C277.275 98.7493 277.311 99.1095 277.311 99.4576V100.646H276.29C275.69 100.646 275.21 100.574 274.994 100.538V102.171C275.258 102.159 275.69 102.123 276.29 102.123H277.311V103.756C277.311 104.296 277.275 104.776 277.239 105.016H278.92C278.908 104.776 278.872 104.296 278.872 103.756V102.123H281.717V102.579C281.717 105.533 280.696 106.565 278.379 107.382L279.664 108.594C282.569 107.309 283.278 105.497 283.278 102.519ZM291.154 103.083C291.154 100.514 290.085 98.5932 288.788 97.3206L287.648 97.8248C288.848 99.1215 289.797 100.778 289.797 103.083C289.797 105.389 288.848 107.045 287.648 108.342L288.788 108.846C290.085 107.574 291.154 105.653 291.154 103.083Z" fill="#EDEDED"/>
<path d="M231.212 383.287C231.212 383.287 237.815 387.789 231.212 397.094C224.609 406.398 231.212 412.701 231.212 412.701" stroke="#2C9A2A" stroke-width="2.21508"/>
<g clip-path="url(#clip1_702_10799)">
<rect x="190.689" y="479.034" width="54.8023" height="13.2323" rx="1.20059" fill="#121212"/>
<path d="M197.34 481.457V482.07H195.455V481.457H197.34ZM195.455 483.655V483.006H197.34V483.655H195.455ZM198.685 484.687V480.437H194.062V491.194H195.455V484.687H198.685ZM198.492 487.328V486.428H199.609V487.328H198.492ZM202.178 488.493V487.328H200.858V486.428H201.986V485.299H196.187V486.428H197.28V487.328H196.019V488.493H197.232C197.112 489.105 196.776 489.886 196.007 490.366C196.283 490.558 196.716 490.93 196.92 491.182C197.94 490.486 198.336 489.321 198.456 488.493H199.609V490.966H200.858V488.493H202.178ZM200.834 483.679V483.006H202.779V483.679H200.834ZM202.779 481.457V482.07H200.834V481.457H202.779ZM204.183 480.437H199.477V484.711H202.779V489.513C202.779 489.681 202.719 489.754 202.526 489.754C202.346 489.766 201.758 489.766 201.218 489.742C201.41 490.114 201.602 490.762 201.65 491.158C202.562 491.158 203.187 491.122 203.619 490.882C204.051 490.654 204.183 490.258 204.183 489.525V480.437ZM212.383 486.74H210.907V485.383H212.383V486.74ZM214.965 485.383V484.999C215.421 485.347 215.913 485.648 216.441 485.9C216.657 485.515 217.09 484.951 217.426 484.675C216.741 484.399 216.117 484.027 215.553 483.571C216.081 483.198 216.657 482.73 217.15 482.274L216.105 481.53C215.769 481.938 215.241 482.43 214.748 482.826C214.568 482.622 214.388 482.418 214.22 482.202C214.712 481.842 215.265 481.373 215.757 480.929L214.676 480.161C214.4 480.497 214.004 480.917 213.608 481.277C213.368 480.869 213.176 480.437 213.008 479.993L211.723 480.353C212.251 481.77 212.972 483.018 213.908 484.027H209.562C210.402 483.162 211.087 482.094 211.507 480.833L210.558 480.389L210.306 480.437H207.173V481.662H209.622C209.406 482.046 209.154 482.406 208.866 482.742C208.529 482.454 208.073 482.106 207.713 481.854L206.813 482.598C207.209 482.898 207.689 483.306 208.001 483.619C207.389 484.147 206.704 484.567 206.008 484.855C206.284 485.119 206.68 485.612 206.873 485.936C207.425 485.672 207.965 485.359 208.469 484.987V485.383H209.478V486.74H206.909V488.049H209.286C208.986 488.853 208.265 489.597 206.608 490.102C206.909 490.366 207.341 490.918 207.521 491.242C209.742 490.498 210.534 489.309 210.798 488.049H212.383V489.357C212.383 490.69 212.707 491.11 214.004 491.11H215.313C216.369 491.11 216.741 490.63 216.885 489.045C216.477 488.961 215.901 488.721 215.601 488.481C215.553 489.609 215.493 489.85 215.181 489.85H214.256C213.92 489.85 213.872 489.778 213.872 489.345V488.049H216.429V486.74H213.872V485.383H214.965ZM228.243 482.094H227.463V481.313H228.243V482.094ZM226.562 482.094H225.806V481.313H226.562V482.094ZM224.893 482.094H224.161V481.313H224.893V482.094ZM229.432 480.353H223.02V483.054H229.432V480.353ZM222.492 484.579H229.876V483.45H222.492V484.579ZM222.696 487.22L221.376 487.568V485.527H222.468V484.267H221.376V482.082H222.624V480.833H218.782V482.082H220.115V484.267H218.89V485.527H220.115V487.881C219.551 488.025 219.035 488.145 218.602 488.241L218.902 489.561C220.055 489.273 221.508 488.877 222.876 488.481L222.696 487.22ZM228.699 487.821C228.423 488.085 227.991 488.445 227.631 488.697C227.355 488.421 227.114 488.133 226.922 487.821H228.699ZM224.461 486.032H227.907V486.812H224.461V486.032ZM228.783 487.821H229.227V485.011H223.213V487.821H225.157C224.197 488.565 222.876 489.237 221.676 489.597C221.952 489.85 222.336 490.318 222.516 490.618C223.249 490.33 224.029 489.922 224.761 489.441V491.194H226.106V488.613C226.802 489.766 227.787 490.702 229.023 491.194C229.227 490.846 229.624 490.342 229.912 490.09C229.384 489.922 228.891 489.669 228.447 489.369C228.831 489.141 229.3 488.829 229.72 488.505L228.783 487.821ZM239.757 481.842C239.661 482.13 239.516 482.478 239.396 482.742L239.456 482.754H237.932L238.088 482.718C238.028 482.466 237.908 482.13 237.752 481.842H239.757ZM242.47 482.754H240.753C240.885 482.514 241.041 482.226 241.197 481.902L240.897 481.842H242.254V480.737H239.408V480.005H238.004V480.737H235.398V481.842H236.863L236.419 481.938C236.539 482.178 236.659 482.49 236.719 482.754H235.134V483.919H242.47V482.754ZM235.11 486.392C234.738 486.548 234.366 486.716 233.994 486.872V484.171H235.086V482.826H233.994V480.149H232.673V482.826H231.485V484.171H232.673V487.412C232.121 487.628 231.617 487.821 231.208 487.965L231.689 489.393C232.781 488.889 234.162 488.265 235.422 487.653L235.11 486.392ZM237.139 486.692H240.513V487.304H237.139V486.692ZM237.139 485.263H240.513V485.864H237.139V485.263ZM240.693 489.922C240.477 489.922 240.441 489.886 240.441 489.585V488.193H241.918V484.387H235.807V488.193H236.827C236.611 489.069 236.083 489.669 234.198 490.03C234.474 490.306 234.846 490.882 234.978 491.23C237.271 490.642 237.968 489.633 238.232 488.193H239.084V489.597C239.084 490.738 239.324 491.134 240.453 491.134H241.389C242.23 491.134 242.566 490.774 242.698 489.393C242.326 489.321 241.774 489.093 241.509 488.889C241.485 489.802 241.425 489.922 241.233 489.922H240.693Z" fill="#EDEDED"/>
</g>
<path d="M257.093 413.001H194.125C190.277 413.001 187.129 415.816 187.129 419.257V456.788C187.129 460.228 190.277 463.043 194.125 463.043H211.616V466.171C211.616 467.891 213.191 469.299 215.115 469.299H236.104C238.028 469.299 239.602 467.891 239.602 466.171V463.043H257.093C260.941 463.043 264.09 460.228 264.09 456.788V419.257C264.09 415.816 260.941 413.001 257.093 413.001ZM253.595 456.788H197.624C195.7 456.788 194.125 455.381 194.125 453.66V422.384C194.125 420.664 195.7 419.257 197.624 419.257H253.595C255.519 419.257 257.093 420.664 257.093 422.384V453.66C257.093 455.381 255.519 456.788 253.595 456.788ZM246.599 428.639H215.115C213.191 428.639 211.616 430.047 211.616 431.767C211.616 433.487 213.191 434.895 215.115 434.895H246.599C248.523 434.895 250.097 433.487 250.097 431.767C250.097 430.047 248.523 428.639 246.599 428.639ZM246.599 441.15H215.115C213.191 441.15 211.616 442.557 211.616 444.278C211.616 445.998 213.191 447.405 215.115 447.405H246.599C248.523 447.405 250.097 445.998 250.097 444.278C250.097 442.557 248.523 441.15 246.599 441.15ZM208.118 428.639H201.122V434.895H208.118V428.639ZM208.118 441.15H201.122V447.405H208.118V441.15Z" fill="#121212"/>
<rect width="39.6193" height="61.8023" transform="translate(16.1582 165.181)" fill="#F39423"/>
<path d="M26.1193 208.583C25.1588 208.583 24.3184 208.378 23.5981 207.97C22.8777 207.538 22.3135 206.974 21.9053 206.277C21.5211 205.581 21.329 204.801 21.329 203.936C21.329 203.12 21.5331 202.328 21.9413 201.559C22.3735 200.791 22.9258 200.166 23.5981 199.686L31.3419 194.14C31.8701 193.755 32.2663 193.299 32.5304 192.771C32.7946 192.243 32.9266 191.69 32.9266 191.114C32.9266 190.442 32.7826 189.877 32.4944 189.421C32.2063 188.941 31.7981 188.569 31.2698 188.305C30.7416 188.041 30.1053 187.908 29.3609 187.908H22.6976V183.37H29.9732C31.63 183.37 33.0587 183.718 34.2593 184.415C35.4599 185.111 36.3843 186.048 37.0326 187.224C37.705 188.377 38.0411 189.673 38.0411 191.114C38.0411 192.555 37.753 193.827 37.1767 194.932C36.6244 196.012 35.712 196.985 34.4394 197.849L26.6956 203.108C26.6476 203.132 26.5875 203.192 26.5155 203.288C26.4435 203.36 26.4075 203.456 26.4075 203.576C26.4075 203.744 26.4555 203.864 26.5515 203.936C26.6476 204.008 26.7796 204.044 26.9477 204.044H38.7975V208.583H26.1193ZM45.0131 209.015C44.1006 209.015 43.3082 208.691 42.6359 208.042C41.9876 207.37 41.6634 206.578 41.6634 205.665C41.6634 204.753 41.9876 203.972 42.6359 203.324C43.3082 202.652 44.1006 202.316 45.0131 202.316C45.9255 202.316 46.7059 202.652 47.3542 203.324C48.0265 203.972 48.3627 204.753 48.3627 205.665C48.3627 206.265 48.2066 206.83 47.8945 207.358C47.6063 207.862 47.2101 208.27 46.7059 208.583C46.2016 208.871 45.6374 209.015 45.0131 209.015Z" fill="#EDEDED"/>
<path d="M64.4172 182.083C63.7937 182.067 63.2311 181.957 62.7292 181.752C62.2274 181.539 61.7978 181.254 61.4404 180.896C61.083 180.531 60.8055 180.109 60.6078 179.63C60.4177 179.151 60.3226 178.638 60.3226 178.091C60.3226 177.543 60.4177 177.03 60.6078 176.551C60.8055 176.072 61.083 175.654 61.4404 175.296C61.7978 174.931 62.2274 174.642 62.7292 174.429C63.2311 174.216 63.7937 174.106 64.4172 174.099H65.6604V175.536H64.4514C64.0865 175.543 63.7519 175.612 63.4478 175.741C63.1436 175.87 62.8775 176.049 62.6494 176.277C62.4289 176.505 62.2578 176.775 62.1361 177.087C62.0145 177.391 61.9536 177.726 61.9536 178.091C61.9536 178.456 62.0145 178.794 62.1361 179.106C62.2578 179.41 62.4289 179.676 62.6494 179.904C62.8775 180.132 63.1436 180.311 63.4478 180.44C63.7519 180.569 64.0865 180.638 64.4514 180.645H65.6604V182.083H64.4172ZM66.916 182.083V174.099H69.6077C70.4594 174.099 71.1969 174.27 71.8204 174.612C72.4439 174.954 72.9268 175.425 73.2689 176.026C73.6187 176.627 73.7936 177.315 73.7936 178.091C73.7936 178.866 73.6187 179.554 73.2689 180.155C72.9268 180.756 72.4439 181.227 71.8204 181.569C71.1969 181.911 70.4594 182.083 69.6077 182.083H66.916ZM68.547 180.645H69.6077C70.102 180.645 70.5392 180.543 70.9194 180.337C71.3072 180.132 71.6113 179.839 71.8318 179.459C72.0523 179.071 72.1626 178.615 72.1626 178.091C72.1626 177.558 72.0523 177.102 71.8318 176.722C71.6113 176.342 71.3072 176.049 70.9194 175.844C70.5392 175.638 70.102 175.536 69.6077 175.536H68.547V180.645ZM80.319 182.219C79.8476 182.219 79.4332 182.113 79.0758 181.9C78.7184 181.68 78.4409 181.391 78.2432 181.033C78.0455 180.668 77.9466 180.269 77.9466 179.836V176.152C77.9466 176.015 77.9124 175.889 77.844 175.775C77.7756 175.661 77.6843 175.57 77.5703 175.502C77.4562 175.433 77.3307 175.399 77.1939 175.399C77.057 175.399 76.9315 175.433 76.8175 175.502C76.711 175.57 76.6236 175.661 76.5552 175.775C76.4867 175.889 76.4525 176.015 76.4525 176.152V182.083H74.8215V176.346C74.8215 175.905 74.9204 175.505 75.1181 175.148C75.3158 174.791 75.5933 174.505 75.9507 174.293C76.308 174.072 76.7224 173.962 77.1939 173.962C77.6729 173.962 78.0911 174.072 78.4485 174.293C78.8059 174.505 79.0834 174.791 79.2811 175.148C79.4788 175.505 79.5776 175.905 79.5776 176.346V180.03C79.5776 180.166 79.6118 180.292 79.6803 180.406C79.7487 180.52 79.8362 180.611 79.9426 180.68C80.0567 180.748 80.1821 180.782 80.319 180.782C80.4559 180.782 80.5813 180.748 80.6954 180.68C80.8094 180.611 80.9007 180.52 80.9691 180.406C81.0375 180.292 81.0718 180.166 81.0718 180.03V174.099H82.7028V179.836C82.7028 180.269 82.6039 180.668 82.4062 181.033C82.2085 181.391 81.931 181.68 81.5736 181.9C81.2162 182.113 80.798 182.219 80.319 182.219ZM88.6513 173.072L86.9519 172.901C86.9633 173.62 86.872 174.452 86.7123 175.319C86.1307 175.365 85.5946 175.399 85.241 175.41C84.819 175.422 84.4312 175.444 84.0206 175.41L84.1575 176.961C84.4997 176.904 85.1042 176.825 85.4235 176.768C85.6402 176.745 85.9938 176.699 86.4044 176.653C85.9938 178.216 85.2068 180.52 84.1005 182.014L85.5832 182.607C86.6325 180.931 87.4765 178.227 87.9099 176.494C88.2293 176.471 88.5144 176.448 88.6969 176.448C89.4155 176.448 89.8033 176.574 89.8033 177.486C89.8033 178.615 89.655 179.995 89.347 180.645C89.1645 181.022 88.868 181.136 88.4916 181.136C88.1837 181.136 87.5335 181.022 87.0887 180.896L87.3397 182.402C87.7274 182.482 88.2635 182.562 88.7083 182.562C89.5637 182.562 90.2024 182.311 90.5788 181.512C91.0693 180.52 91.2289 178.672 91.2289 177.326C91.2289 175.684 90.3735 175.148 89.1645 175.148C88.925 175.148 88.5829 175.171 88.2065 175.194C88.2863 174.783 88.3662 174.361 88.446 174.019C88.503 173.734 88.5829 173.369 88.6513 173.072ZM92.5748 174.144L91.2175 174.726C92.0273 175.73 92.8371 177.794 93.1337 179.06L94.5822 178.387C94.24 177.304 93.2819 175.125 92.5748 174.144ZM98.5969 172.901L98.232 174.27C99.1216 174.498 101.665 175.034 102.817 175.182L103.159 173.791C102.167 173.677 99.6805 173.243 98.5969 172.901ZM98.6654 175.194L97.137 174.977C97.0572 176.391 96.7949 178.627 96.5668 179.744L97.8784 180.075C97.981 179.847 98.0951 179.665 98.3004 179.414C99.0189 178.547 100.182 178.068 101.471 178.068C102.463 178.068 103.171 178.615 103.171 179.357C103.171 180.805 101.357 181.638 97.9354 181.17L98.3688 182.664C103.114 183.063 104.756 181.467 104.756 179.391C104.756 178.011 103.593 176.779 101.597 176.779C100.399 176.779 99.2699 177.11 98.232 177.862C98.3118 177.212 98.5171 175.821 98.6654 175.194ZM64.4743 196.638C64.2918 196.319 63.4478 195.007 63.1284 194.562V194.026H64.269V192.772H63.1284V190.422H61.8966V192.772H60.5279V194.026H61.794C61.5088 195.372 60.9043 196.957 60.2656 197.847C60.4595 198.155 60.7332 198.668 60.8587 199.045C61.2465 198.474 61.6001 197.676 61.8966 196.798V201.063H63.1284V196.205C63.3793 196.718 63.6302 197.254 63.7785 197.608L64.4743 196.638ZM68.2039 198.292V197.744H69.219V198.292H68.2039ZM66.014 197.744H66.9835V198.292H66.014V197.744ZM66.9835 196.376V196.866H66.014V196.376H66.9835ZM69.219 196.376V196.866H68.2039V196.376H69.219ZM66.9721 193.57H68.2267V194.049H66.9721V193.57ZM66.9721 192.19H68.2267V192.657H66.9721V192.19ZM71.0895 198.292H70.4736V195.44H68.2039V195.007H70.9754V194.049H69.4927V193.57H70.5876V192.657H69.4927V192.19H70.7701V191.255H69.4927V190.422H68.2267V191.255H66.9721V190.422H65.7175V191.255H64.5427V192.19H65.7175V192.657H64.7822V193.57H65.7175V194.049H64.3032V195.007H66.9835V195.44H64.7936V198.292H64.0979V199.284H64.7936V200.984H66.014V199.284H69.219V199.763C69.219 199.9 69.1734 199.934 69.0251 199.934C68.8882 199.934 68.4206 199.946 67.9986 199.923C68.1469 200.231 68.2951 200.676 68.3522 200.995C69.0707 200.995 69.6068 200.984 69.9831 200.812C70.3595 200.63 70.4736 200.345 70.4736 199.775V199.284H71.0895V198.292ZM73.8953 192.281C74.1006 192.635 74.3059 193.034 74.3857 193.319L75.4806 193C75.4122 192.806 75.2753 192.543 75.1271 192.281H76.7238C76.5756 192.418 76.4273 192.543 76.279 192.657C76.5984 192.794 77.1915 193.102 77.4652 193.308C77.7731 193.034 78.0811 192.68 78.3662 192.281H78.9935C79.2559 192.623 79.5068 193.034 79.6208 193.308L80.7728 192.977C80.6816 192.783 80.5219 192.532 80.3394 192.281H82.3354V191.22H79.0278C79.1304 191.027 79.2217 190.833 79.3015 190.639L78.0127 190.331C77.7731 190.958 77.3854 191.574 76.9291 192.064V191.22H74.3857C74.4883 191.038 74.5796 190.855 74.6594 190.673L73.3934 190.331C73.0512 191.175 72.4125 192.019 71.7282 192.566C72.0361 192.726 72.5722 193.091 72.8231 193.308C73.1197 193.034 73.4276 192.68 73.7128 192.281H73.8953ZM79.7121 194.266V195.418C79.4041 195.121 78.9593 194.79 78.5943 194.528L78.0241 195.018C78.0355 194.859 78.0469 194.71 78.0469 194.551V194.266H79.7121ZM82.2555 198.417V197.357H77.7389V196.672H77.0888C77.5907 196.284 77.853 195.805 77.967 195.315C78.389 195.657 78.8453 196.079 79.0734 196.376L79.7235 195.794C79.7463 196.227 79.8261 196.41 79.9744 196.57C80.1683 196.764 80.4763 196.843 80.7614 196.843H81.3203C81.5142 196.843 81.7651 196.809 81.9248 196.729C82.0959 196.638 82.2213 196.49 82.3012 196.284C82.3696 196.102 82.4152 195.634 82.4494 195.201C82.1757 195.098 81.7765 194.916 81.5712 194.733C81.5598 195.098 81.5484 195.395 81.5256 195.52C81.5028 195.657 81.4685 195.726 81.4343 195.748C81.4001 195.783 81.3545 195.783 81.2975 195.783H81.115C81.0694 195.783 81.0351 195.771 81.0123 195.726C80.9781 195.691 80.9895 195.577 80.9895 195.383V193.376H76.8151V194.517C76.8151 194.927 76.7352 195.338 76.336 195.703L76.3018 195.144L74.8875 195.349V194.368H76.3132V193.433H72.2186V194.368H73.6557V195.52C73.017 195.612 72.4353 195.691 71.9563 195.748L72.1046 196.821C73.0284 196.672 74.1918 196.501 75.378 196.319C75.6403 196.513 76.0623 196.935 76.2106 197.163C76.2904 197.128 76.3589 197.106 76.4273 197.071V197.357H71.9449V198.417H75.435C74.4769 199.01 73.0626 199.478 71.7282 199.695C72.0019 199.968 72.3669 200.482 72.5608 200.801C73.9523 200.47 75.3894 199.82 76.4273 198.988V201.041H77.7389V199.01C78.7882 199.843 80.2139 200.47 81.594 200.767C81.7879 200.436 82.1757 199.9 82.4608 199.615C81.0808 199.421 79.6208 198.988 78.64 198.417H82.2555ZM85.5061 196.433C84.856 197.767 84.0348 199.204 83.4645 200.071L84.6507 200.915C85.2894 199.797 85.9623 198.486 86.5326 197.277L85.5061 196.433ZM85.9737 194.631C85.5175 194.243 84.5709 193.798 83.8637 193.547L83.1452 194.562C83.8637 194.87 84.7648 195.372 85.1982 195.76L85.9737 194.631ZM91.4826 195.623V196.091H88.6883V195.589H87.7302C88.5514 195.372 89.327 195.11 90.0341 194.779C90.8439 195.167 91.7336 195.418 92.6688 195.623H91.4826ZM88.6198 198.007C88.6655 197.733 88.6769 197.459 88.6883 197.22H91.4826V198.007H88.6198ZM91.0948 192.623C90.8211 192.931 90.4903 193.205 90.1026 193.444C89.7034 193.228 89.327 192.954 88.962 192.623H91.0948ZM93.6839 192.623V191.449H90.7755V190.433H89.3726V191.449H86.5098V191.528C86.0308 191.163 85.1868 190.73 84.5366 190.479L83.7953 191.483C84.5138 191.791 85.4035 192.315 85.8141 192.715L86.5098 191.722V192.623H87.3994C87.8329 193.205 88.3119 193.661 88.8251 194.049C87.9925 194.346 87.0345 194.551 86.0422 194.688C86.2475 194.95 86.5668 195.52 86.6809 195.828C86.9204 195.783 87.1599 195.726 87.388 195.669V196.912C87.388 197.881 87.2398 199.467 85.9623 200.47C86.2931 200.619 86.8064 200.984 87.0459 201.189C87.753 200.619 88.1522 199.877 88.3917 199.124H91.4826V201.052H92.8171V195.657L93.2277 195.737C93.3531 195.315 93.6611 194.825 93.9576 194.517C93.0224 194.391 92.1556 194.231 91.3458 193.981C91.8476 193.593 92.281 193.148 92.6232 192.623H93.6839ZM96.6379 191.449L96.695 192.92C96.9915 192.874 97.3907 192.84 97.6188 192.829C98.1435 192.794 99.1244 192.76 99.5806 192.737C99.3183 193.273 98.9875 194.049 98.6681 194.802C96.3756 194.904 94.7674 196.25 94.7674 198.018C94.7674 199.17 95.5202 199.866 96.5239 199.866C97.2995 199.866 97.8469 199.546 98.3032 198.862C98.7024 198.235 99.1814 197.094 99.592 196.125C100.573 196.262 101.485 196.604 102.295 197.049C101.919 198.087 101.12 199.17 99.3981 199.911L100.607 200.904C102.135 200.105 103.002 199.102 103.504 197.813C103.858 198.075 104.188 198.337 104.485 198.611L105.146 197.026C104.816 196.798 104.405 196.535 103.926 196.262C104.04 195.623 104.097 194.916 104.143 194.152L102.649 193.981C102.683 194.323 102.683 194.779 102.649 195.224C102.637 195.349 102.626 195.475 102.614 195.612C101.873 195.292 101.029 195.018 100.139 194.882C100.55 193.912 100.983 192.92 101.28 192.429C101.371 192.27 101.508 192.121 101.668 191.95L100.755 191.243C100.561 191.323 100.265 191.391 99.9798 191.403C99.4437 191.449 98.2347 191.506 97.5846 191.506C97.3337 191.506 96.9459 191.483 96.6379 191.449ZM96.1019 197.801C96.1019 197.083 96.8204 196.307 98.0979 196.113C97.7785 196.832 97.4706 197.55 97.174 197.972C96.9687 198.258 96.809 198.372 96.5809 198.372C96.3186 198.372 96.1019 198.178 96.1019 197.801ZM116.176 196.068C116.176 193.581 114.396 191.62 111.568 191.62C108.614 191.62 106.333 193.866 106.333 196.501C106.333 198.429 107.382 199.82 108.648 199.82C109.891 199.82 110.872 198.406 111.556 196.102C111.887 195.03 112.081 193.981 112.241 193.011C113.781 193.273 114.636 194.448 114.636 196.022C114.636 197.687 113.495 198.737 112.035 199.079C111.728 199.147 111.408 199.216 110.975 199.261L111.83 200.619C114.704 200.174 116.176 198.474 116.176 196.068ZM107.793 196.353C107.793 195.098 108.808 193.433 110.69 193.045C110.564 193.992 110.347 194.961 110.085 195.805C109.617 197.345 109.173 198.064 108.694 198.064C108.249 198.064 107.793 197.505 107.793 196.353ZM125.255 193.102C125.255 192.703 125.574 192.372 125.973 192.372C126.372 192.372 126.703 192.703 126.703 193.102C126.703 193.502 126.372 193.821 125.973 193.821C125.574 193.821 125.255 193.502 125.255 193.102ZM124.502 193.102C124.502 193.924 125.152 194.574 125.973 194.574C126.794 194.574 127.456 193.924 127.456 193.102C127.456 192.281 126.794 191.62 125.973 191.62C125.152 191.62 124.502 192.281 124.502 193.102ZM117.407 196.832L118.776 198.246C118.981 197.95 119.255 197.55 119.518 197.186C119.974 196.57 120.784 195.44 121.228 194.87C121.559 194.46 121.799 194.437 122.164 194.802C122.574 195.224 123.589 196.33 124.251 197.117C124.924 197.904 125.893 199.079 126.657 200.025L127.912 198.68C127.034 197.744 125.87 196.478 125.106 195.669C124.422 194.927 123.544 194.015 122.779 193.296C121.89 192.464 121.217 192.589 120.544 193.387C119.757 194.323 118.867 195.44 118.354 195.965C118.001 196.307 117.75 196.558 117.407 196.832ZM129.463 194.802V196.592C129.885 196.558 130.649 196.535 131.299 196.535H137.424C137.903 196.535 138.485 196.581 138.759 196.592V194.802C138.462 194.825 137.96 194.87 137.424 194.87H131.299C130.706 194.87 129.874 194.836 129.463 194.802ZM147.923 191.323L146.965 191.722C147.375 192.304 147.638 192.794 147.968 193.513L148.961 193.091C148.698 192.566 148.242 191.802 147.923 191.323ZM149.485 190.776L148.516 191.175C148.938 191.745 149.223 192.19 149.588 192.908L150.557 192.475C150.284 191.973 149.839 191.232 149.485 190.776ZM142.961 191.106L142.14 192.361C142.893 192.783 144.079 193.547 144.718 193.992L145.562 192.737C144.969 192.315 143.714 191.517 142.961 191.106ZM140.851 199.204L141.707 200.698C142.71 200.516 144.353 199.946 145.516 199.296C147.375 198.212 148.995 196.775 150.044 195.19L149.166 193.638C148.265 195.269 146.668 196.832 144.729 197.915C143.497 198.6 142.129 198.988 140.851 199.204ZM141.205 193.707L140.384 194.961C141.148 195.372 142.334 196.136 142.984 196.592L143.817 195.315C143.235 194.904 141.98 194.117 141.205 193.707ZM156.545 190.935L155.04 190.81C155.017 191.22 154.937 191.665 154.812 192.121C154.629 192.121 154.435 192.121 154.264 192.121C153.683 192.121 152.839 192.076 152.257 191.985V193.319C152.884 193.365 153.717 193.387 154.184 193.387C154.23 193.387 154.276 193.387 154.333 193.387C153.819 194.414 153.01 195.429 151.812 196.535L153.032 197.448C153.42 196.946 153.751 196.535 154.093 196.193C154.527 195.771 155.234 195.406 155.872 195.406C156.192 195.406 156.5 195.509 156.671 195.794C155.371 196.467 154.002 197.379 154.002 198.839C154.002 200.311 155.325 200.744 157.116 200.744C158.188 200.744 159.591 200.653 160.343 200.55L160.389 199.079C159.385 199.273 158.119 199.398 157.15 199.398C156.032 199.398 155.496 199.227 155.496 198.6C155.496 198.03 155.952 197.585 156.808 197.094C156.796 197.596 156.785 198.144 156.751 198.486H158.119C158.108 197.961 158.085 197.117 158.074 196.478C158.769 196.159 159.42 195.908 159.933 195.703C160.321 195.555 160.925 195.326 161.29 195.224L160.72 193.901C160.298 194.117 159.899 194.3 159.454 194.494C158.986 194.699 158.507 194.893 157.914 195.167C157.663 194.585 157.093 194.288 156.397 194.288C156.021 194.288 155.405 194.38 155.108 194.517C155.336 194.186 155.564 193.775 155.758 193.353C156.99 193.319 158.393 193.228 159.477 193.068L159.488 191.745C158.484 191.916 157.344 192.019 156.26 192.076C156.408 191.597 156.488 191.22 156.545 190.935ZM69.1734 210.68L67.9872 210.087C67.7933 210.167 67.223 210.235 66.9265 210.235H63.3223C62.9345 210.235 62.4099 210.19 62.0449 210.144V211.752C62.4555 211.718 62.8775 211.707 63.3337 211.707H67.2686C67.2458 212.448 66.8466 214.866 66.6299 216.109H61.9194C61.5658 216.109 61.1552 216.075 60.7903 216.018V217.672C61.1781 217.638 61.5772 217.615 61.9194 217.615H69.5269C69.7893 217.615 70.2683 217.626 70.5876 217.672V216.018C70.2911 216.052 69.9261 216.109 69.5269 216.109H68.2951C68.5118 214.832 68.9224 212.231 69.0593 211.194C69.0707 211.102 69.1277 210.84 69.1734 210.68ZM72.4353 212.802V214.592C72.8573 214.558 73.6215 214.535 74.2716 214.535H80.3964C80.8755 214.535 81.4571 214.581 81.7309 214.592V212.802C81.4343 212.825 80.9325 212.87 80.3964 212.87H74.2716C73.6785 212.87 72.8459 212.836 72.4353 212.802ZM91.8872 209.209L91.123 209.46C91.3397 209.916 91.545 210.543 91.7047 211.022L92.4917 210.772C92.3662 210.327 92.1039 209.665 91.8872 209.209ZM93.0619 208.844L92.2864 209.095C92.5259 209.54 92.7426 210.156 92.9023 210.646L93.6893 210.395C93.541 209.962 93.2787 209.3 93.0619 208.844ZM90.9063 213.212V212.836H91.7617C92.3548 212.836 92.754 212.847 93.0049 212.87V211.353C92.697 211.41 92.3548 211.433 91.7503 211.433H90.9063V210.235C90.9063 209.779 90.9519 209.414 90.9861 209.175H89.3551C89.3894 209.403 89.4236 209.779 89.4236 210.235V211.433H86.7205V210.315C86.7205 209.859 86.7661 209.494 86.7889 209.277H85.1693C85.2035 209.631 85.2377 209.973 85.2377 210.304V211.433H84.2683C83.698 211.433 83.2418 211.365 83.0365 211.33V212.882C83.2874 212.87 83.698 212.836 84.2683 212.836H85.2377V214.387C85.2377 214.9 85.2035 215.357 85.1693 215.585H86.7661C86.7547 215.357 86.7205 214.9 86.7205 214.387V212.836H89.4236V213.269C89.4236 216.075 88.4541 217.056 86.2528 217.832L87.4732 218.984C90.2334 217.763 90.9063 216.041 90.9063 213.212ZM95.0237 212.802V214.592C95.4457 214.558 96.2099 214.535 96.86 214.535H102.985C103.464 214.535 104.046 214.581 104.319 214.592V212.802C104.023 212.825 103.521 212.87 102.985 212.87H96.86C96.2669 212.87 95.4343 212.836 95.0237 212.802ZM110.49 210.11V211.57C111.927 211.707 113.991 211.695 115.394 211.57V210.099C114.162 210.247 111.893 210.304 110.49 210.11ZM111.402 214.98L110.09 214.855C109.965 215.436 109.897 215.893 109.897 216.337C109.897 217.512 110.843 218.208 112.805 218.208C114.094 218.208 115.006 218.128 115.748 217.991L115.725 216.452C114.721 216.657 113.877 216.748 112.862 216.748C111.699 216.748 111.265 216.44 111.265 215.938C111.265 215.63 111.311 215.357 111.402 214.98ZM108.733 209.346L107.136 209.209C107.125 209.574 107.057 210.007 107.022 210.327C106.897 211.205 106.543 213.133 106.543 214.843C106.543 216.394 106.76 217.786 106.988 218.573L108.311 218.482C108.3 218.322 108.288 218.14 108.288 218.014C108.288 217.9 108.311 217.649 108.345 217.478C108.471 216.874 108.847 215.63 109.167 214.684L108.459 214.125C108.3 214.501 108.117 214.9 107.946 215.288C107.912 215.06 107.901 214.764 107.901 214.547C107.901 213.406 108.3 211.125 108.448 210.361C108.494 210.156 108.642 209.585 108.733 209.346ZM125.477 212.403C125.248 213.018 124.952 213.577 124.576 214.068C124.176 213.577 123.857 213.018 123.617 212.403H125.477ZM126.264 211.159L126.013 211.194H122.408V210.133H127.381V208.867H121.108V211.513C121.108 212.95 121.006 214.935 119.933 216.292C120.253 216.417 120.834 216.794 121.074 217.022C121.998 215.813 122.294 214.056 122.386 212.574C122.705 213.509 123.127 214.319 123.663 215.014C123.093 215.493 122.42 215.87 121.69 216.109C121.952 216.372 122.294 216.908 122.454 217.25C123.252 216.931 123.971 216.52 124.598 215.995C125.26 216.554 126.035 216.988 126.971 217.284C127.153 216.919 127.541 216.372 127.838 216.109C126.936 215.87 126.184 215.505 125.545 215.014C126.275 214.091 126.822 212.904 127.13 211.433L126.264 211.159ZM120.196 210.429C119.819 209.893 118.998 209.175 118.337 208.684L117.322 209.494C117.983 210.007 118.781 210.783 119.112 211.319L120.196 210.429ZM119.899 212.847H117.322V214.091H118.576V216.497C118.086 216.885 117.527 217.273 117.071 217.546L117.732 218.961C118.337 218.482 118.827 218.037 119.318 217.592C120.059 218.482 121.006 218.801 122.42 218.858C123.789 218.915 126.081 218.892 127.461 218.824C127.518 218.436 127.723 217.775 127.883 217.455C126.366 217.569 123.777 217.603 122.443 217.546C121.245 217.501 120.378 217.193 119.899 216.429V212.847ZM131.898 215.094C132.103 215.471 132.308 215.881 132.502 216.303L130.666 216.497C130.985 215.733 131.328 214.809 131.636 213.965H134.27V212.71H132.126V211.262H133.917V210.03H132.126V208.422H130.803V210.03H128.932V211.262H130.803V212.71H128.567V213.965H130.119C129.925 214.843 129.617 215.858 129.32 216.634L128.567 216.702L128.761 218.014L133.004 217.467C133.13 217.797 133.232 218.094 133.289 218.356L134.476 217.854C134.247 216.976 133.586 215.653 132.993 214.649L131.898 215.094ZM138.764 209.106H134.612V219.075H135.935V210.372H137.441V215.744C137.441 215.881 137.395 215.927 137.259 215.927C137.122 215.938 136.7 215.938 136.289 215.915C136.472 216.292 136.677 216.919 136.722 217.318C137.407 217.318 137.897 217.273 138.274 217.045C138.661 216.805 138.764 216.383 138.764 215.779V209.106Z" fill="#F39423"/>
<rect x="15.8582" y="164.881" width="151.274" height="62.4026" rx="2.10102" stroke="#F39423" stroke-width="3.00146"/>
<path d="M183.039 223.806L188.238 218.607L183.039 213.409L177.84 218.607L183.039 223.806ZM183.676 129.127C183.324 128.776 182.754 128.776 182.402 129.127L176.672 134.858C176.32 135.209 176.32 135.78 176.672 136.131C177.024 136.483 177.594 136.483 177.945 136.131L183.039 131.038L188.133 136.131C188.484 136.483 189.054 136.483 189.406 136.131C189.758 135.78 189.758 135.209 189.406 134.858L183.676 129.127ZM183.94 218.607V129.764H182.139V218.607H183.94Z" fill="#F39423"/>
<g clip-path="url(#clip2_702_10799)">
<path d="M259.723 126.652L254.524 131.851L259.723 137.05L264.921 131.851L259.723 126.652ZM259.086 169.505C259.438 169.856 260.008 169.856 260.359 169.505L266.09 163.774C266.441 163.423 266.441 162.852 266.09 162.501C265.738 162.149 265.168 162.149 264.816 162.501L259.723 167.594L254.629 162.501C254.277 162.149 253.707 162.149 253.356 162.501C253.004 162.852 253.004 163.423 253.356 163.774L259.086 169.505ZM258.822 131.851V168.868H260.623V131.851H258.822Z" fill="#121212"/>
<rect width="39.6193" height="61.8023" transform="translate(275.932 119.458)" fill="#121212"/>
<path d="M284.143 162.859V158.321H288.897V142.185H284.539V137.647H294.12V158.321H298.37V162.859H284.143ZM305.528 163.292C304.615 163.292 303.823 162.968 303.151 162.319C302.502 161.647 302.178 160.854 302.178 159.942C302.178 159.03 302.502 158.249 303.151 157.601C303.823 156.929 304.615 156.592 305.528 156.592C306.44 156.592 307.221 156.929 307.869 157.601C308.541 158.249 308.877 159.03 308.877 159.942C308.877 160.542 308.721 161.107 308.409 161.635C308.121 162.139 307.725 162.547 307.221 162.859C306.716 163.148 306.152 163.292 305.528 163.292Z" fill="#EDEDED"/>
<path d="M323.814 154.496C323.168 154.496 322.594 154.363 322.092 154.097C321.598 153.831 321.206 153.455 320.917 152.968C320.636 152.474 320.495 151.888 320.495 151.212V146.376H322.126V151.314C322.126 151.634 322.195 151.926 322.332 152.192C322.468 152.451 322.662 152.66 322.913 152.82C323.172 152.979 323.476 153.059 323.826 153.059C324.168 153.059 324.464 152.979 324.715 152.82C324.966 152.66 325.16 152.451 325.297 152.192C325.434 151.926 325.502 151.634 325.502 151.314V146.376H327.133V151.212C327.133 151.888 326.989 152.474 326.7 152.968C326.419 153.455 326.027 153.831 325.525 154.097C325.031 154.363 324.461 154.496 323.814 154.496ZM328.672 154.359V146.376H332.242C332.767 146.376 333.242 146.493 333.668 146.729C334.101 146.957 334.443 147.277 334.694 147.687C334.953 148.098 335.082 148.577 335.082 149.124C335.082 149.657 334.957 150.128 334.706 150.539C334.455 150.942 334.124 151.261 333.713 151.497L334.443 152.774C334.474 152.82 334.512 152.858 334.557 152.888C334.603 152.911 334.656 152.922 334.717 152.922H335.493V154.359H334.466C334.147 154.359 333.854 154.28 333.588 154.12C333.329 153.96 333.124 153.751 332.972 153.493L332.071 151.873C332.003 151.873 331.93 151.873 331.854 151.873C331.786 151.873 331.717 151.873 331.649 151.873H330.303V154.359H328.672ZM330.303 150.436H332.048C332.307 150.436 332.542 150.386 332.755 150.288C332.968 150.181 333.135 150.029 333.257 149.831C333.386 149.634 333.451 149.398 333.451 149.124C333.451 148.851 333.386 148.615 333.257 148.417C333.128 148.219 332.957 148.071 332.744 147.972C332.539 147.866 332.307 147.813 332.048 147.813H330.303V150.436ZM338.693 154.359C338.222 154.359 337.807 154.253 337.45 154.04C337.093 153.82 336.815 153.531 336.617 153.173C336.42 152.808 336.321 152.409 336.321 151.976V146.376H337.952V152.17C337.952 152.375 338.024 152.554 338.169 152.706C338.313 152.85 338.488 152.922 338.693 152.922H340.803V154.359H338.693ZM341.45 150.961L342.841 152.386C343.035 152.09 343.298 151.679 343.56 151.303C344.05 150.653 344.86 149.523 345.316 148.953C345.647 148.531 345.864 148.474 346.263 148.919C346.799 149.523 347.655 150.607 348.362 151.451C349.08 152.295 350.05 153.401 350.871 154.177L352.046 152.808C350.962 151.839 349.993 150.812 349.263 150.014C348.59 149.284 347.677 148.109 346.902 147.356C346.069 146.547 345.328 146.626 344.529 147.528C343.822 148.349 342.944 149.523 342.419 150.071C342.077 150.436 341.792 150.698 341.45 150.961ZM363.326 146.638L362.425 145.794C362.208 145.862 361.581 145.897 361.261 145.897H355.114C354.635 145.897 354.156 145.851 353.722 145.782V147.368C354.258 147.322 354.635 147.288 355.114 147.288H361.056C360.76 147.847 359.87 148.851 358.957 149.409L360.144 150.356C361.261 149.558 362.345 148.121 362.881 147.231C362.984 147.06 363.2 146.786 363.326 146.638ZM358.672 148.178H357.019C357.076 148.543 357.098 148.851 357.098 149.204C357.098 151.075 356.825 152.284 355.376 153.287C354.954 153.595 354.544 153.789 354.179 153.915L355.513 154.998C358.615 153.333 358.672 151.006 358.672 148.178ZM369.806 145.463L368.141 144.916C368.039 145.303 367.799 145.828 367.628 146.113C367.058 147.094 366.065 148.565 364.069 149.786L365.347 150.732C366.465 149.968 367.457 148.965 368.221 147.972H371.426C371.244 148.828 370.582 150.196 369.806 151.086C368.814 152.215 367.548 153.207 365.21 153.903L366.556 155.112C368.7 154.268 370.08 153.219 371.164 151.896C372.19 150.618 372.84 149.101 373.148 148.086C373.239 147.801 373.399 147.482 373.525 147.265L372.361 146.547C372.099 146.626 371.723 146.683 371.369 146.683H369.076C369.088 146.661 369.099 146.649 369.111 146.626C369.248 146.376 369.544 145.862 369.806 145.463ZM377.893 152.842C377.893 154.188 378.269 154.816 380.87 154.816C382.09 154.816 383.459 154.702 384.406 154.565L384.451 153.014C383.322 153.242 382.056 153.401 380.858 153.401C379.604 153.401 379.398 153.15 379.398 152.443V149.421C381.018 149.09 382.558 148.794 382.911 148.714C382.592 149.318 381.839 150.356 381.087 151.029L382.341 151.77C383.162 150.961 384.2 149.398 384.702 148.451C384.805 148.246 384.976 147.984 385.078 147.824L383.984 146.98C383.767 147.094 383.493 147.174 383.174 147.242C382.66 147.368 381.064 147.687 379.398 148.007V146.661C379.398 146.273 379.456 145.703 379.501 145.349H377.802C377.859 145.703 377.893 146.284 377.893 146.661V148.292C376.764 148.497 375.76 148.668 375.224 148.736L375.498 150.231C375.977 150.117 376.878 149.934 377.893 149.729V152.842ZM395.594 146.626L394.659 145.931C394.431 146.011 393.975 146.079 393.484 146.079H389.458C389.116 146.079 388.42 146.045 388.112 145.999V147.619C388.352 147.607 388.979 147.539 389.458 147.539H393.325C393.074 148.349 392.378 149.478 391.625 150.333C390.553 151.531 388.785 152.922 386.949 153.607L388.124 154.838C389.686 154.097 391.203 152.911 392.412 151.634C393.484 152.671 394.545 153.835 395.286 154.861L396.587 153.732C395.914 152.911 394.534 151.451 393.405 150.47C394.169 149.444 394.807 148.223 395.195 147.334C395.298 147.105 395.503 146.752 395.594 146.626Z" fill="#121212"/>
<rect x="275.632" y="119.158" width="151.274" height="62.4026" rx="2.10102" stroke="#121212" stroke-width="3.00146"/>
</g>
<rect width="39.6193" height="61.8023" transform="translate(151.072 320.556)" fill="#2C9A2A"/>
<path d="M165.188 364.39C163.363 364.39 161.73 363.994 160.29 363.201C158.849 362.409 157.708 361.34 156.868 359.996C156.052 358.627 155.643 357.102 155.643 355.421V347.281C155.643 345.601 156.052 344.088 156.868 342.743C157.708 341.375 158.849 340.294 160.29 339.502C161.73 338.709 163.363 338.313 165.188 338.313C166.989 338.313 168.598 338.709 170.014 339.502C171.455 340.294 172.584 341.375 173.4 342.743C174.241 344.088 174.661 345.601 174.661 347.281V355.421C174.661 357.102 174.241 358.627 173.4 359.996C172.584 361.34 171.455 362.409 170.014 363.201C168.598 363.994 166.989 364.39 165.188 364.39ZM165.188 359.852C165.981 359.852 166.701 359.671 167.349 359.311C167.998 358.927 168.514 358.423 168.898 357.799C169.306 357.174 169.51 356.49 169.51 355.746V346.957C169.51 346.189 169.306 345.505 168.898 344.904C168.514 344.28 167.998 343.788 167.349 343.428C166.701 343.043 165.981 342.851 165.188 342.851C164.396 342.851 163.663 343.043 162.991 343.428C162.319 343.788 161.778 344.28 161.37 344.904C160.986 345.505 160.794 346.189 160.794 346.957V355.746C160.794 356.49 160.986 357.174 161.37 357.799C161.778 358.423 162.319 358.927 162.991 359.311C163.663 359.671 164.396 359.852 165.188 359.852ZM181.628 364.39C180.715 364.39 179.923 364.066 179.251 363.417C178.602 362.745 178.278 361.953 178.278 361.04C178.278 360.128 178.602 359.347 179.251 358.699C179.923 358.027 180.715 357.691 181.628 357.691C182.54 357.691 183.321 358.027 183.969 358.699C184.641 359.347 184.978 360.128 184.978 361.04C184.978 361.64 184.821 362.205 184.509 362.733C184.221 363.237 183.825 363.645 183.321 363.958C182.816 364.246 182.252 364.39 181.628 364.39Z" fill="#EDEDED"/>
<path d="M199.388 334.013C199.206 333.694 198.362 332.382 198.042 331.937V331.401H199.183V330.147H198.042V327.797H196.811V330.147H195.442V331.401H196.708C196.423 332.747 195.818 334.332 195.18 335.222C195.374 335.53 195.647 336.043 195.773 336.42C196.161 335.849 196.514 335.051 196.811 334.173V338.438H198.042V333.58C198.293 334.093 198.544 334.629 198.693 334.983L199.388 334.013ZM203.118 335.667V335.119H204.133V335.667H203.118ZM200.928 335.119H201.898V335.667H200.928V335.119ZM201.898 333.751V334.241H200.928V333.751H201.898ZM204.133 333.751V334.241H203.118V333.751H204.133ZM201.886 330.945H203.141V331.424H201.886V330.945ZM201.886 329.565H203.141V330.032H201.886V329.565ZM206.004 335.667H205.388V332.815H203.118V332.382H205.889V331.424H204.407V330.945H205.502V330.032H204.407V329.565H205.684V328.63H204.407V327.797H203.141V328.63H201.886V327.797H200.632V328.63H199.457V329.565H200.632V330.032H199.696V330.945H200.632V331.424H199.217V332.382H201.898V332.815H199.708V335.667H199.012V336.659H199.708V338.359H200.928V336.659H204.133V337.138C204.133 337.275 204.087 337.309 203.939 337.309C203.802 337.309 203.335 337.321 202.913 337.298C203.061 337.606 203.209 338.051 203.266 338.37C203.985 338.37 204.521 338.359 204.897 338.187C205.274 338.005 205.388 337.72 205.388 337.15V336.659H206.004V335.667ZM208.809 329.656C209.015 330.01 209.22 330.409 209.3 330.694L210.395 330.375C210.326 330.181 210.189 329.918 210.041 329.656H211.638C211.49 329.793 211.341 329.918 211.193 330.032C211.512 330.169 212.106 330.477 212.379 330.683C212.687 330.409 212.995 330.055 213.28 329.656H213.908C214.17 329.998 214.421 330.409 214.535 330.683L215.687 330.352C215.596 330.158 215.436 329.907 215.253 329.656H217.249V328.595H213.942C214.044 328.402 214.136 328.208 214.216 328.014L212.927 327.706C212.687 328.333 212.299 328.949 211.843 329.439V328.595H209.3C209.402 328.413 209.494 328.23 209.573 328.048L208.307 327.706C207.965 328.55 207.327 329.394 206.642 329.941C206.95 330.101 207.486 330.466 207.737 330.683C208.034 330.409 208.342 330.055 208.627 329.656H208.809ZM214.626 331.641V332.793C214.318 332.496 213.873 332.165 213.508 331.903L212.938 332.393C212.95 332.234 212.961 332.085 212.961 331.926V331.641H214.626ZM217.17 335.792V334.732H212.653V334.047H212.003C212.505 333.659 212.767 333.18 212.881 332.69C213.303 333.032 213.759 333.454 213.987 333.751L214.638 333.169C214.66 333.602 214.74 333.785 214.888 333.945C215.082 334.139 215.39 334.218 215.675 334.218H216.234C216.428 334.218 216.679 334.184 216.839 334.104C217.01 334.013 217.135 333.865 217.215 333.659C217.284 333.477 217.329 333.009 217.363 332.576C217.09 332.473 216.691 332.291 216.485 332.108C216.474 332.473 216.462 332.77 216.44 332.895C216.417 333.032 216.383 333.101 216.348 333.123C216.314 333.158 216.269 333.158 216.212 333.158H216.029C215.983 333.158 215.949 333.146 215.926 333.101C215.892 333.066 215.904 332.952 215.904 332.758V330.751H211.729V331.892C211.729 332.302 211.649 332.713 211.25 333.078L211.216 332.519L209.802 332.724V331.743H211.227V330.808H207.133V331.743H208.57V332.895C207.931 332.987 207.349 333.066 206.87 333.123L207.019 334.196C207.942 334.047 209.106 333.876 210.292 333.694C210.554 333.888 210.976 334.31 211.125 334.538C211.204 334.503 211.273 334.481 211.341 334.446V334.732H206.859V335.792H210.349C209.391 336.385 207.977 336.853 206.642 337.07C206.916 337.343 207.281 337.857 207.475 338.176C208.866 337.845 210.303 337.195 211.341 336.363V338.416H212.653V336.385C213.702 337.218 215.128 337.845 216.508 338.142C216.702 337.811 217.09 337.275 217.375 336.99C215.995 336.796 214.535 336.363 213.554 335.792H217.17ZM223.488 329.36C223.557 329.553 223.625 329.793 223.716 330.055C222.507 330.135 221.047 330.101 219.337 329.896L219.359 331.356C221.31 331.515 222.872 331.504 224.23 331.401C224.549 332.165 224.96 332.918 225.302 333.466C224.948 333.443 224.195 333.374 223.637 333.329L223.522 334.538C224.481 334.618 225.918 334.766 226.556 334.891L227.264 333.865C227.058 333.637 226.842 333.386 226.648 333.101C226.362 332.69 225.963 331.983 225.633 331.241C226.351 331.139 227.081 331.002 227.663 330.831L227.48 329.394C226.762 329.61 225.963 329.793 225.142 329.918C224.948 329.348 224.777 328.732 224.663 328.128L223.123 328.31C223.272 328.687 223.397 329.097 223.488 329.36ZM221.618 333.785L220.192 333.454C219.804 334.23 219.588 334.88 219.588 335.576C219.588 337.218 221.059 338.119 223.386 338.13C224.777 338.13 225.804 337.982 226.454 337.857L226.534 336.42C225.724 336.579 224.72 336.693 223.477 336.693C221.914 336.693 221.059 336.283 221.059 335.325C221.059 334.823 221.253 334.321 221.618 333.785ZM232.214 329.234C232.214 329.36 232.191 329.679 232.168 330.112C231.677 330.181 231.176 330.238 230.845 330.261C230.446 330.283 230.183 330.283 229.853 330.272L230.001 331.732C230.64 331.641 231.518 331.527 232.077 331.458C232.065 331.732 232.042 332.006 232.02 332.268C231.37 333.226 230.229 334.732 229.579 335.53L230.48 336.773C230.879 336.237 231.438 335.405 231.917 334.686C231.906 335.644 231.894 336.306 231.871 337.195C231.871 337.378 231.86 337.777 231.837 338.039H233.411C233.377 337.777 233.343 337.366 233.331 337.161C233.263 336.089 233.263 335.131 233.263 334.196C233.263 333.899 233.274 333.591 233.286 333.272C234.221 332.245 235.453 331.196 236.297 331.196C236.776 331.196 237.072 331.481 237.072 332.04C237.072 333.078 236.662 334.754 236.662 335.986C236.662 337.093 237.232 337.708 238.087 337.708C239.011 337.708 239.707 337.355 240.232 336.864L240.049 335.256C239.524 335.781 238.988 336.077 238.566 336.077C238.281 336.077 238.133 335.861 238.133 335.564C238.133 334.389 238.509 332.713 238.509 331.527C238.509 330.569 237.951 329.839 236.719 329.839C235.612 329.839 234.301 330.762 233.4 331.549C233.411 331.458 233.411 331.378 233.423 331.299C233.616 331.002 233.845 330.626 234.004 330.42L233.582 329.873C233.662 329.166 233.765 328.584 233.833 328.265L232.168 328.208C232.225 328.561 232.214 328.903 232.214 329.234ZM247.212 334.675L245.855 334.538C245.763 334.994 245.649 335.541 245.649 336.066C245.649 337.218 246.687 337.88 248.603 337.88C249.516 337.88 250.291 337.8 250.93 337.72L250.987 336.26C250.166 336.408 249.379 336.499 248.615 336.499C247.394 336.499 247.052 336.123 247.052 335.621C247.052 335.37 247.121 334.994 247.212 334.675ZM245.923 328.356L244.178 328.219C244.212 328.481 244.189 328.949 244.144 329.371C244.121 329.553 244.087 329.77 244.041 330.021C243.688 330.044 243.345 330.055 243.015 330.055C242.547 330.055 242.159 330.032 241.577 329.964L241.612 331.39C242.011 331.413 242.444 331.435 242.992 331.435C243.231 331.435 243.482 331.424 243.745 331.413C243.676 331.743 243.585 332.063 243.505 332.371C243.083 333.967 242.216 336.363 241.532 337.503L243.117 338.039C243.756 336.682 244.52 334.355 244.931 332.758C245.056 332.291 245.17 331.789 245.273 331.299C246.037 331.207 246.813 331.082 247.497 330.922V329.496C246.87 329.645 246.231 329.77 245.592 329.861C245.626 329.702 245.661 329.553 245.684 329.428C245.729 329.177 245.832 328.664 245.923 328.356ZM246.596 331.8V333.135C247.314 333.055 248.022 333.021 248.797 333.021C249.493 333.021 250.189 333.089 250.759 333.158L250.793 331.789C250.12 331.721 249.436 331.686 248.786 331.686C248.056 331.686 247.235 331.743 246.596 331.8ZM262.609 329.987C262.358 329.451 261.788 328.641 261.332 328.048L260.317 328.607C260.75 329.257 261.286 330.101 261.503 330.637L262.609 329.987ZM262.792 332.302V330.956H259.781V330.717V327.82H258.435V330.717V330.956H256.12V332.302H258.355C258.173 333.967 257.591 335.838 255.834 337.423V327.786H254.489V330.911C254.192 330.386 253.77 329.736 253.405 329.246L252.344 329.861C252.801 330.546 253.359 331.492 253.576 332.074L254.489 331.515V333.135C253.667 333.842 252.823 334.503 252.276 334.903L252.96 336.066C253.439 335.678 253.964 335.211 254.489 334.743V338.427H255.834V337.686C256.177 337.914 256.53 338.199 256.758 338.438C258.161 337.218 258.948 335.781 259.347 334.332C259.975 336.055 260.853 337.492 262.13 338.416C262.347 338.039 262.792 337.526 263.111 337.275C261.537 336.306 260.511 334.435 259.963 332.302H262.792ZM272.692 331.492C273.639 331.492 273.992 331.196 274.118 330.078C273.775 330.021 273.274 329.839 273.023 329.668C272.988 330.318 272.909 330.42 272.566 330.42H271.221C270.764 330.42 270.707 330.375 270.707 330.067V329.747C271.7 329.542 272.829 329.246 273.684 328.881L272.749 328.071C272.258 328.333 271.483 328.595 270.707 328.801V327.877H269.453V330.067C269.453 331.162 269.761 331.492 271.061 331.492H272.692ZM272.749 335.347C273.707 335.347 274.061 335.028 274.186 333.865C273.855 333.808 273.342 333.625 273.091 333.443C273.045 334.15 272.977 334.264 272.623 334.264H271.232C270.764 334.264 270.707 334.23 270.707 333.888V333.591C271.757 333.386 272.931 333.066 273.81 332.667L272.874 331.857C272.35 332.143 271.529 332.416 270.707 332.633V331.595H269.453V333.899C269.453 335.005 269.761 335.347 271.072 335.347H272.749ZM263.944 330.329C265.084 330.283 266.624 330.238 268.141 330.158C268.232 330.329 268.324 330.489 268.381 330.637L269.396 330.067C269.145 329.519 268.517 328.732 267.947 328.173L267 328.675C267.149 328.835 267.308 329.017 267.457 329.2L266.054 329.234C266.316 328.869 266.59 328.459 266.841 328.059L265.506 327.74C265.335 328.185 265.05 328.766 264.765 329.268L263.887 329.28L263.944 330.329ZM264.765 338.245C265.598 337.743 266.099 336.933 266.407 336.089L265.255 335.655C264.993 336.385 264.434 337.081 263.704 337.503L264.765 338.245ZM265.677 333.158V332.736H267.525V333.158H265.677ZM267.525 331.606V332.006H265.677V331.606H267.525ZM267.822 335.576C268.438 335.884 269.156 336.408 269.476 336.796L270.354 335.975C269.989 335.587 269.259 335.119 268.666 334.834C268.723 334.686 268.746 334.503 268.746 334.253V330.728H264.468V335.347H265.677V333.91H267.525V334.253C267.525 334.367 267.48 334.401 267.354 334.412C267.263 334.412 266.875 334.412 266.533 334.401C266.67 334.64 266.829 335.028 266.886 335.325C267.468 335.325 267.924 335.313 268.255 335.176L267.822 335.576ZM268.654 337.252C268.152 337.252 268.05 337.218 268.05 336.921V335.781H266.727V336.933C266.727 338.005 267.08 338.336 268.495 338.336H270.365C271.392 338.336 271.757 338.028 271.893 336.819C271.551 336.75 271.015 336.579 270.753 336.385C270.707 337.138 270.627 337.252 270.217 337.252H268.654ZM271.369 336.146C272.11 336.762 272.897 337.651 273.182 338.267L274.357 337.606C274.015 336.944 273.194 336.123 272.441 335.553L271.369 336.146ZM285.306 333.443C285.306 330.956 283.527 328.995 280.699 328.995C277.745 328.995 275.463 331.241 275.463 333.876C275.463 335.804 276.513 337.195 277.779 337.195C279.022 337.195 280.003 335.781 280.687 333.477C281.018 332.405 281.212 331.356 281.372 330.386C282.911 330.648 283.767 331.823 283.767 333.397C283.767 335.062 282.626 336.112 281.166 336.454C280.858 336.522 280.539 336.591 280.105 336.636L280.961 337.994C283.835 337.549 285.306 335.849 285.306 333.443ZM276.923 333.728C276.923 332.473 277.938 330.808 279.82 330.42C279.695 331.367 279.478 332.336 279.216 333.18C278.748 334.72 278.303 335.439 277.824 335.439C277.38 335.439 276.923 334.88 276.923 333.728ZM201.419 346.139H199.662C199.742 346.63 199.753 346.869 199.753 347.188V348.067H197.313C196.879 348.067 196.537 348.055 196.149 348.01C196.195 348.283 196.206 348.74 196.206 348.991V350.964C196.206 351.272 196.183 351.637 196.149 351.922H197.723C197.7 351.694 197.689 351.34 197.689 351.078V349.413H203.346C203.209 350.428 202.913 351.511 202.331 352.344C201.692 353.268 200.689 353.941 199.742 354.294C199.274 354.477 198.647 354.648 198.134 354.739L199.32 356.108C201.35 355.583 203.061 354.374 203.973 352.686C204.532 351.648 204.84 350.553 205.034 349.458C205.08 349.23 205.171 348.797 205.262 348.546L204.27 347.941C204.076 348.01 203.802 348.067 203.323 348.067H201.339V347.188C201.339 346.869 201.361 346.63 201.419 346.139ZM208.547 349.276V350.713C208.798 350.69 209.209 350.667 209.448 350.667H211.227V354.34H208.901C208.615 354.34 208.262 354.306 207.965 354.271V355.765C208.273 355.72 208.627 355.708 208.901 355.708H215.208C215.402 355.708 215.824 355.72 216.075 355.765V354.271C215.835 354.294 215.516 354.34 215.208 354.34H212.721V350.667H214.672C214.934 350.667 215.276 350.69 215.561 350.713V349.276C215.288 349.31 214.946 349.333 214.672 349.333H209.448C209.197 349.333 208.798 349.321 208.547 349.276ZM226.362 345.843L225.427 346.23C225.644 346.561 225.872 346.96 226.066 347.337C225.861 347.36 225.667 347.36 225.53 347.36H220.249C219.873 347.36 219.223 347.314 218.892 347.268V348.877C219.188 348.854 219.724 348.831 220.249 348.831H225.553C225.404 349.812 224.971 351.101 224.218 352.047C223.294 353.211 222.006 354.203 219.747 354.728L220.99 356.096C223.032 355.435 224.549 354.306 225.575 352.937C226.534 351.671 227.024 349.903 227.298 348.785C227.355 348.546 227.435 348.215 227.549 347.998L226.819 347.519L227.241 347.348C227.035 346.938 226.659 346.276 226.362 345.843ZM227.959 345.557L227.013 345.934C227.321 346.356 227.674 347.006 227.925 347.474L228.872 347.063C228.655 346.664 228.244 345.968 227.959 345.557ZM237.357 348.477C237.357 348.078 237.677 347.747 238.076 347.747C238.475 347.747 238.806 348.078 238.806 348.477C238.806 348.877 238.475 349.196 238.076 349.196C237.677 349.196 237.357 348.877 237.357 348.477ZM236.605 348.477C236.605 349.299 237.255 349.949 238.076 349.949C238.897 349.949 239.559 349.299 239.559 348.477C239.559 347.656 238.897 346.995 238.076 346.995C237.255 346.995 236.605 347.656 236.605 348.477ZM229.51 352.207L230.879 353.621C231.084 353.325 231.358 352.925 231.62 352.561C232.077 351.945 232.886 350.815 233.331 350.245C233.662 349.835 233.902 349.812 234.267 350.177C234.677 350.599 235.692 351.705 236.354 352.492C237.027 353.279 237.996 354.454 238.76 355.4L240.015 354.055C239.137 353.119 237.973 351.853 237.209 351.044C236.525 350.302 235.647 349.39 234.882 348.671C233.993 347.839 233.32 347.964 232.647 348.762C231.86 349.698 230.97 350.815 230.457 351.34C230.104 351.682 229.853 351.933 229.51 352.207ZM241.566 350.177V351.967C241.988 351.933 242.752 351.91 243.402 351.91H249.527C250.006 351.91 250.588 351.956 250.862 351.967V350.177C250.565 350.2 250.063 350.245 249.527 350.245H243.402C242.809 350.245 241.977 350.211 241.566 350.177ZM260.026 346.698L259.068 347.097C259.478 347.679 259.74 348.169 260.071 348.888L261.064 348.466C260.801 347.941 260.345 347.177 260.026 346.698ZM261.588 346.151L260.619 346.55C261.041 347.12 261.326 347.565 261.691 348.283L262.66 347.85C262.387 347.348 261.942 346.607 261.588 346.151ZM255.064 346.481L254.243 347.736C254.996 348.158 256.182 348.922 256.821 349.367L257.665 348.112C257.072 347.69 255.817 346.892 255.064 346.481ZM252.954 354.579L253.81 356.073C254.813 355.891 256.456 355.321 257.619 354.671C259.478 353.587 261.098 352.15 262.147 350.565L261.269 349.013C260.368 350.644 258.771 352.207 256.832 353.29C255.6 353.975 254.232 354.363 252.954 354.579ZM253.308 349.082L252.487 350.336C253.251 350.747 254.437 351.511 255.087 351.967L255.92 350.69C255.338 350.279 254.083 349.492 253.308 349.082ZM268.648 346.31L267.143 346.185C267.12 346.595 267.04 347.04 266.915 347.496C266.732 347.496 266.538 347.496 266.367 347.496C265.785 347.496 264.941 347.451 264.36 347.36V348.694C264.987 348.74 265.82 348.762 266.287 348.762C266.333 348.762 266.379 348.762 266.436 348.762C265.922 349.789 265.113 350.804 263.915 351.91L265.135 352.823C265.523 352.321 265.854 351.91 266.196 351.568C266.629 351.146 267.337 350.781 267.975 350.781C268.295 350.781 268.603 350.884 268.774 351.169C267.473 351.842 266.105 352.754 266.105 354.214C266.105 355.686 267.428 356.119 269.219 356.119C270.291 356.119 271.694 356.028 272.446 355.925L272.492 354.454C271.488 354.648 270.222 354.773 269.253 354.773C268.135 354.773 267.599 354.602 267.599 353.975C267.599 353.405 268.055 352.96 268.911 352.469C268.899 352.971 268.888 353.519 268.854 353.861H270.222C270.211 353.336 270.188 352.492 270.177 351.853C270.872 351.534 271.522 351.283 272.036 351.078C272.423 350.93 273.028 350.701 273.393 350.599L272.823 349.276C272.401 349.492 272.001 349.675 271.557 349.869C271.089 350.074 270.61 350.268 270.017 350.542C269.766 349.96 269.196 349.663 268.5 349.663C268.124 349.663 267.508 349.755 267.211 349.892C267.439 349.561 267.667 349.15 267.861 348.728C269.093 348.694 270.496 348.603 271.579 348.443L271.591 347.12C270.587 347.291 269.447 347.394 268.363 347.451C268.511 346.972 268.591 346.595 268.648 346.31ZM199.331 373.458C198.708 373.442 198.145 373.332 197.643 373.127C197.141 372.914 196.712 372.629 196.354 372.271C195.997 371.906 195.72 371.484 195.522 371.005C195.332 370.526 195.237 370.013 195.237 369.466C195.237 368.918 195.332 368.405 195.522 367.926C195.72 367.447 195.997 367.029 196.354 366.671C196.712 366.306 197.141 366.017 197.643 365.804C198.145 365.591 198.708 365.481 199.331 365.474H200.575V366.911H199.366C199.001 366.918 198.666 366.987 198.362 367.116C198.058 367.245 197.792 367.424 197.563 367.652C197.343 367.88 197.172 368.15 197.05 368.462C196.929 368.766 196.868 369.101 196.868 369.466C196.868 369.831 196.929 370.169 197.05 370.481C197.172 370.785 197.343 371.051 197.563 371.279C197.792 371.507 198.058 371.686 198.362 371.815C198.666 371.944 199.001 372.013 199.366 372.02H200.575V373.458H199.331ZM201.83 373.458V365.474H204.522C205.373 365.474 206.111 365.645 206.734 365.987C207.358 366.329 207.841 366.8 208.183 367.401C208.533 368.002 208.708 368.69 208.708 369.466C208.708 370.241 208.533 370.929 208.183 371.53C207.841 372.131 207.358 372.602 206.734 372.944C206.111 373.286 205.373 373.458 204.522 373.458H201.83ZM203.461 372.02H204.522C205.016 372.02 205.453 371.918 205.833 371.712C206.221 371.507 206.525 371.214 206.746 370.834C206.966 370.446 207.077 369.99 207.077 369.466C207.077 368.933 206.966 368.477 206.746 368.097C206.525 367.717 206.221 367.424 205.833 367.219C205.453 367.013 205.016 366.911 204.522 366.911H203.461V372.02ZM215.233 373.594C214.762 373.594 214.347 373.488 213.99 373.275C213.632 373.055 213.355 372.766 213.157 372.408C212.96 372.043 212.861 371.644 212.861 371.211V367.527C212.861 367.39 212.826 367.264 212.758 367.15C212.69 367.036 212.598 366.945 212.484 366.877C212.37 366.808 212.245 366.774 212.108 366.774C211.971 366.774 211.846 366.808 211.732 366.877C211.625 366.945 211.538 367.036 211.469 367.15C211.401 367.264 211.367 367.39 211.367 367.527V373.458H209.736V367.721C209.736 367.28 209.834 366.88 210.032 366.523C210.23 366.166 210.507 365.88 210.865 365.668C211.222 365.447 211.637 365.337 212.108 365.337C212.587 365.337 213.005 365.447 213.363 365.668C213.72 365.88 213.997 366.166 214.195 366.523C214.393 366.88 214.492 367.28 214.492 367.721V371.405C214.492 371.541 214.526 371.667 214.594 371.781C214.663 371.895 214.75 371.986 214.857 372.055C214.971 372.123 215.096 372.157 215.233 372.157C215.37 372.157 215.495 372.123 215.609 372.055C215.723 371.986 215.815 371.895 215.883 371.781C215.952 371.667 215.986 371.541 215.986 371.405V365.474H217.617V371.211C217.617 371.644 217.518 372.043 217.32 372.408C217.123 372.766 216.845 373.055 216.488 373.275C216.13 373.488 215.712 373.594 215.233 373.594ZM223.406 365.485V366.945C224.843 367.082 226.907 367.07 228.31 366.945V365.474C227.078 365.622 224.809 365.679 223.406 365.485ZM224.318 370.355L223.006 370.23C222.881 370.811 222.813 371.268 222.813 371.712C222.813 372.887 223.759 373.583 225.721 373.583C227.01 373.583 227.922 373.503 228.664 373.366L228.641 371.827C227.637 372.032 226.793 372.123 225.778 372.123C224.615 372.123 224.181 371.815 224.181 371.313C224.181 371.005 224.227 370.732 224.318 370.355ZM221.649 364.721L220.052 364.584C220.041 364.949 219.973 365.382 219.938 365.702C219.813 366.58 219.459 368.508 219.459 370.218C219.459 371.769 219.676 373.161 219.904 373.948L221.227 373.857C221.216 373.697 221.204 373.515 221.204 373.389C221.204 373.275 221.227 373.024 221.261 372.853C221.387 372.249 221.763 371.005 222.083 370.059L221.375 369.5C221.216 369.876 221.033 370.275 220.862 370.663C220.828 370.435 220.817 370.139 220.817 369.922C220.817 368.781 221.216 366.5 221.364 365.736C221.41 365.531 221.558 364.96 221.649 364.721ZM239.579 368.04L239.328 368.131H237.526L237.799 367.686C237.537 367.561 237.195 367.435 236.819 367.287C237.777 366.637 238.723 365.85 239.453 365.12L238.484 364.356L238.176 364.436H231.355V365.679H236.864C236.419 366.067 235.906 366.443 235.416 366.751C234.777 366.512 234.138 366.295 233.625 366.112L232.952 367.139C233.682 367.413 234.606 367.778 235.45 368.131H230.26V369.42H234.766V372.921C234.766 373.093 234.697 373.138 234.48 373.15C234.252 373.15 233.408 373.15 232.735 373.127C232.941 373.48 233.157 374.039 233.226 374.427C234.207 374.427 234.948 374.416 235.473 374.222C236.02 374.028 236.18 373.686 236.18 372.967V369.42H238.586C238.301 369.933 237.971 370.446 237.697 370.823L238.86 371.496C239.499 370.732 240.172 369.591 240.685 368.519L239.579 368.04ZM249.08 364.516L247.506 364.367C247.506 364.63 247.471 365.12 247.414 365.451C247.392 365.622 247.357 365.804 247.312 365.998C246.434 366.032 245.589 366.249 244.723 366.683C244.643 366.443 244.574 366.204 244.517 365.987C244.426 365.645 244.335 365.268 244.266 364.892L242.772 365.36C242.978 365.77 243.103 366.135 243.229 366.546C243.331 366.854 243.422 367.162 243.536 367.47C242.499 368.382 241.848 369.774 241.848 371.074C241.848 372.545 242.715 373.343 243.662 373.343C244.506 373.343 245.145 372.967 245.909 372.134C246.023 372.283 246.16 372.431 246.297 372.579L247.449 371.667C247.232 371.462 247.027 371.222 246.821 370.983C247.471 369.99 247.973 368.679 248.372 367.356C249.513 367.663 250.22 368.61 250.22 369.876C250.22 371.302 249.228 372.591 246.73 372.796L247.597 374.119C249.969 373.754 251.691 372.374 251.691 369.956C251.691 367.96 250.505 366.512 248.715 366.101C248.749 365.953 248.783 365.816 248.817 365.668C248.886 365.382 248.988 364.824 249.08 364.516ZM243.183 370.96C243.183 370.253 243.491 369.443 244.027 368.815C244.358 369.671 244.723 370.446 245.088 371.005C244.666 371.519 244.244 371.872 243.833 371.872C243.422 371.872 243.183 371.519 243.183 370.96ZM245.133 367.926C245.669 367.606 246.274 367.367 246.97 367.287C246.707 368.131 246.365 369.021 245.954 369.751C245.681 369.294 245.396 368.633 245.133 367.926ZM259.231 364.322H257.543C257.577 364.516 257.634 365.017 257.634 365.314V366.226H254.737C254.383 366.226 253.984 366.181 253.642 366.147V367.652C253.961 367.618 254.395 367.606 254.737 367.606H257.634V367.618C257.634 368.154 257.634 371.769 257.622 372.192C257.611 372.488 257.508 372.602 257.212 372.602C256.927 372.602 256.425 372.556 255.934 372.465L256.083 373.88C256.653 373.959 257.326 373.982 257.93 373.982C258.74 373.982 259.128 373.572 259.128 372.91V367.606H261.785C262.105 367.606 262.55 367.618 262.903 367.641V366.147C262.595 366.192 262.105 366.226 261.774 366.226H259.128V365.314C259.128 365.029 259.196 364.481 259.231 364.322ZM256.55 369.226L255.25 368.622C254.782 369.591 253.87 370.846 253.106 371.564L254.349 372.408C254.965 371.735 256.026 370.241 256.55 369.226ZM261.443 368.587L260.2 369.26C260.759 369.967 261.569 371.347 262.059 372.317L263.394 371.587C262.937 370.754 262.025 369.317 261.443 368.587ZM273.43 365.725L272.495 365.029C272.267 365.109 271.811 365.177 271.32 365.177H267.294C266.952 365.177 266.256 365.143 265.948 365.097V366.717C266.188 366.705 266.815 366.637 267.294 366.637H271.161C270.91 367.447 270.214 368.576 269.461 369.431C268.389 370.629 266.621 372.02 264.785 372.705L265.96 373.937C267.522 373.195 269.039 372.009 270.248 370.732C271.32 371.769 272.381 372.933 273.123 373.959L274.423 372.83C273.75 372.009 272.37 370.549 271.241 369.568C272.005 368.542 272.643 367.321 273.031 366.432C273.134 366.204 273.339 365.85 273.43 365.725ZM278.905 372.363C278.905 372.819 278.86 373.503 278.791 373.959H280.57C280.525 373.492 280.468 372.693 280.468 372.363V369.135C281.7 369.557 283.41 370.218 284.585 370.834L285.235 369.26C284.186 368.747 281.996 367.937 280.468 367.492V365.804C280.468 365.337 280.525 364.835 280.57 364.436H278.791C278.871 364.835 278.905 365.405 278.905 365.804V372.363Z" fill="#2C9A2A"/>
<rect x="150.772" y="320.256" width="151.274" height="62.4026" rx="2.10102" stroke="#2C9A2A" stroke-width="3.00146"/>
<path d="M317.953 374.979L323.152 369.78L317.953 364.582L312.754 369.78L317.953 374.979ZM318.59 315.718C318.238 315.366 317.668 315.366 317.316 315.718L311.586 321.448C311.234 321.8 311.234 322.37 311.586 322.721C311.938 323.073 312.508 323.073 312.859 322.721L317.953 317.628L323.047 322.721C323.398 323.073 323.969 323.073 324.32 322.721C324.672 322.37 324.672 321.8 324.32 321.448L318.59 315.718ZM318.854 369.78V316.354H317.053V369.78H318.854Z" fill="#2C9A2A"/>
</g>
<defs>
<clipPath id="clip0_702_10799">
<rect x="18.4082" width="424.557" height="495.242" rx="4" fill="white"/>
</clipPath>
<clipPath id="clip1_702_10799">
<rect x="190.689" y="479.034" width="54.8023" height="13.2323" rx="1.20059" fill="white"/>
</clipPath>
<clipPath id="clip2_702_10799">
<rect width="186.691" height="73.8082" fill="white" transform="translate(253.721 112.855)"/>
</clipPath>
</defs>
</svg>
