<svg width="456" height="497" viewBox="0 0 456 497" fill="none" xmlns="http://www.w3.org/2000/svg">
<rect x="0.632812" width="455" height="497" rx="4" fill="#E7E7E7"/>
<g clip-path="url(#clip0_711_15915)">
<path d="M238.274 269.006C237.6 269.006 236.94 269.227 236.379 269.641C235.819 270.054 235.381 270.643 235.123 271.331C234.865 272.019 234.798 272.776 234.929 273.506C235.061 274.236 235.386 274.907 235.863 275.434C236.34 275.96 236.947 276.319 237.609 276.464C238.27 276.61 238.956 276.535 239.579 276.25C240.202 275.965 240.735 275.482 241.11 274.863C241.485 274.244 241.685 273.516 241.685 272.771C241.685 271.773 241.325 270.815 240.686 270.109C240.046 269.403 239.179 269.006 238.274 269.006ZM217.811 269.006H207.58C206.675 269.006 205.808 269.403 205.168 270.109C204.528 270.815 204.169 271.773 204.169 272.771C204.169 273.77 204.528 274.728 205.168 275.434C205.808 276.14 206.675 276.537 207.58 276.537H217.811C218.716 276.537 219.583 276.14 220.223 275.434C220.862 274.728 221.222 273.77 221.222 272.771C221.222 271.773 220.862 270.815 220.223 270.109C219.583 269.403 218.716 269.006 217.811 269.006ZM248.506 269.006C247.831 269.006 247.172 269.227 246.611 269.641C246.05 270.054 245.613 270.643 245.355 271.331C245.097 272.019 245.029 272.776 245.161 273.506C245.292 274.236 245.617 274.907 246.094 275.434C246.571 275.96 247.179 276.319 247.84 276.464C248.502 276.61 249.188 276.535 249.811 276.25C250.434 275.965 250.967 275.482 251.341 274.863C251.716 274.244 251.916 273.516 251.916 272.771C251.916 271.773 251.557 270.815 250.917 270.109C250.278 269.403 249.41 269.006 248.506 269.006ZM238.274 246.415C237.6 246.415 236.94 246.636 236.379 247.05C235.819 247.463 235.381 248.051 235.123 248.739C234.865 249.427 234.798 250.184 234.929 250.915C235.061 251.645 235.386 252.316 235.863 252.843C236.34 253.369 236.947 253.728 237.609 253.873C238.27 254.018 238.956 253.944 239.579 253.659C240.202 253.374 240.735 252.891 241.11 252.272C241.485 251.653 241.685 250.925 241.685 250.18C241.685 249.182 241.325 248.224 240.686 247.518C240.046 246.812 239.179 246.415 238.274 246.415ZM217.811 246.415H207.58C206.675 246.415 205.808 246.812 205.168 247.518C204.528 248.224 204.169 249.182 204.169 250.18C204.169 251.179 204.528 252.137 205.168 252.843C205.808 253.549 206.675 253.945 207.58 253.945H217.811C218.716 253.945 219.583 253.549 220.223 252.843C220.862 252.137 221.222 251.179 221.222 250.18C221.222 249.182 220.862 248.224 220.223 247.518C219.583 246.812 218.716 246.415 217.811 246.415ZM248.506 223.824C247.831 223.824 247.172 224.045 246.611 224.459C246.05 224.872 245.613 225.46 245.355 226.148C245.097 226.836 245.029 227.593 245.161 228.324C245.292 229.054 245.617 229.725 246.094 230.252C246.571 230.778 247.179 231.137 247.84 231.282C248.502 231.427 249.188 231.353 249.811 231.068C250.434 230.783 250.967 230.3 251.341 229.681C251.716 229.062 251.916 228.334 251.916 227.589C251.916 226.591 251.557 225.633 250.917 224.927C250.278 224.221 249.41 223.824 248.506 223.824ZM248.506 246.415C247.831 246.415 247.172 246.636 246.611 247.05C246.05 247.463 245.613 248.051 245.355 248.739C245.097 249.427 245.029 250.184 245.161 250.915C245.292 251.645 245.617 252.316 246.094 252.843C246.571 253.369 247.179 253.728 247.84 253.873C248.502 254.018 249.188 253.944 249.811 253.659C250.434 253.374 250.967 252.891 251.341 252.272C251.716 251.653 251.916 250.925 251.916 250.18C251.916 249.182 251.557 248.224 250.917 247.518C250.278 246.812 249.41 246.415 248.506 246.415ZM262.148 223.824C262.148 220.828 261.07 217.955 259.151 215.837C257.232 213.718 254.63 212.528 251.916 212.528H204.169C201.455 212.528 198.853 213.718 196.934 215.837C195.015 217.955 193.938 220.828 193.938 223.824V231.354C193.953 234.141 194.9 236.823 196.598 238.885C194.9 240.947 193.953 243.629 193.938 246.415V253.945C193.953 256.732 194.9 259.414 196.598 261.476C194.9 263.538 193.953 266.22 193.938 269.006V276.537C193.938 279.532 195.015 282.405 196.934 284.524C198.853 286.642 201.455 287.832 204.169 287.832H251.916C254.63 287.832 257.232 286.642 259.151 284.524C261.07 282.405 262.148 279.532 262.148 276.537V269.006C262.133 266.22 261.185 263.538 259.488 261.476C261.185 259.414 262.133 256.732 262.148 253.945V246.415C262.133 243.629 261.185 240.947 259.488 238.885C261.185 236.823 262.133 234.141 262.148 231.354V223.824ZM255.327 276.537C255.327 277.535 254.967 278.493 254.328 279.199C253.688 279.905 252.821 280.302 251.916 280.302H204.169C203.265 280.302 202.397 279.905 201.757 279.199C201.118 278.493 200.759 277.535 200.759 276.537V269.006C200.759 268.008 201.118 267.05 201.757 266.344C202.397 265.638 203.265 265.241 204.169 265.241H251.916C252.821 265.241 253.688 265.638 254.328 266.344C254.967 267.05 255.327 268.008 255.327 269.006V276.537ZM255.327 253.945C255.327 254.944 254.967 255.902 254.328 256.608C253.688 257.314 252.821 257.711 251.916 257.711H204.169C203.265 257.711 202.397 257.314 201.757 256.608C201.118 255.902 200.759 254.944 200.759 253.945V246.415C200.759 245.417 201.118 244.459 201.757 243.753C202.397 243.047 203.265 242.65 204.169 242.65H251.916C252.821 242.65 253.688 243.047 254.328 243.753C254.967 244.459 255.327 245.417 255.327 246.415V253.945ZM255.327 231.354C255.327 232.353 254.967 233.311 254.328 234.017C253.688 234.723 252.821 235.12 251.916 235.12H204.169C203.265 235.12 202.397 234.723 201.757 234.017C201.118 233.311 200.759 232.353 200.759 231.354V223.824C200.759 222.825 201.118 221.868 201.757 221.162C202.397 220.455 203.265 220.059 204.169 220.059H251.916C252.821 220.059 253.688 220.455 254.328 221.162C254.967 221.868 255.327 222.825 255.327 223.824V231.354ZM238.274 223.824C237.6 223.824 236.94 224.045 236.379 224.459C235.819 224.872 235.381 225.46 235.123 226.148C234.865 226.836 234.798 227.593 234.929 228.324C235.061 229.054 235.386 229.725 235.863 230.252C236.34 230.778 236.947 231.137 237.609 231.282C238.27 231.427 238.956 231.353 239.579 231.068C240.202 230.783 240.735 230.3 241.11 229.681C241.485 229.062 241.685 228.334 241.685 227.589C241.685 226.591 241.325 225.633 240.686 224.927C240.046 224.221 239.179 223.824 238.274 223.824ZM217.811 223.824H207.58C206.675 223.824 205.808 224.221 205.168 224.927C204.528 225.633 204.169 226.591 204.169 227.589C204.169 228.588 204.528 229.545 205.168 230.252C205.808 230.958 206.675 231.354 207.58 231.354H217.811C218.716 231.354 219.583 230.958 220.223 230.252C220.862 229.545 221.222 228.588 221.222 227.589C221.222 226.591 220.862 225.633 220.223 224.927C219.583 224.221 218.716 223.824 217.811 223.824Z" fill="#121212"/>
<rect x="205.631" y="295.03" width="45.4962" height="21" rx="1.29924" fill="#121212"/>
<path d="M218.597 304.288V303.859H219.559C220.247 303.859 220.702 303.872 220.988 303.898V302.17C220.637 302.235 220.247 302.261 219.559 302.261H218.597V300.897C218.597 300.377 218.649 299.948 218.688 299.688H216.83C216.869 299.948 216.908 300.377 216.908 300.897V302.261H213.829V300.975C213.829 300.468 213.868 300.052 213.907 299.805H212.062C212.101 300.195 212.14 300.598 212.14 300.975V302.261H211.036C210.386 302.261 209.853 302.183 209.632 302.144V303.911C209.918 303.885 210.386 303.859 211.036 303.859H212.14V305.626C212.14 306.211 212.101 306.73 212.062 306.99H213.881C213.868 306.73 213.829 306.198 213.829 305.626V303.859H216.908V304.353C216.908 307.549 215.804 308.666 213.296 309.537L214.687 310.849C217.818 309.472 218.597 307.51 218.597 304.288ZM223.067 304.015V306.055C223.547 306.016 224.418 305.99 225.158 305.99H232.135C232.681 305.99 233.344 306.042 233.655 306.055V304.015C233.318 304.041 232.746 304.093 232.135 304.093H225.158C224.483 304.093 223.534 304.054 223.067 304.015ZM244.871 299.662L243.845 300.091C244.195 300.585 244.585 301.364 244.858 301.897L245.897 301.442C245.651 300.962 245.196 300.143 244.871 299.662ZM246.404 299.078L245.378 299.506C245.728 299.987 246.157 300.754 246.417 301.286L247.456 300.845C247.223 300.39 246.742 299.571 246.404 299.078ZM237.231 305.99C236.79 307.133 236.023 308.536 235.205 309.602L237.024 310.368C237.712 309.394 238.479 307.913 238.946 306.652C239.401 305.444 239.869 303.651 240.051 302.742C240.103 302.456 240.246 301.819 240.363 301.442L238.466 301.053C238.31 302.703 237.816 304.535 237.231 305.99ZM243.65 305.717C244.169 307.12 244.637 308.757 245.001 310.303L246.924 309.68C246.56 308.393 245.871 306.314 245.417 305.145C244.923 303.885 244.026 301.884 243.494 300.884L241.766 301.442C242.311 302.43 243.156 304.353 243.65 305.717Z" fill="#EDEDED"/>
<path d="M203.072 48.5761C203.072 46.8351 204.539 45.4106 206.331 45.4106H258.464C260.256 45.4106 261.722 43.9861 261.722 42.2451C261.722 40.504 260.256 39.0795 258.464 39.0795H203.072C199.488 39.0795 196.556 41.9285 196.556 45.4106V80.2314H194.927C192.222 80.2314 190.039 82.3523 190.039 84.9797C190.039 87.607 192.222 89.7279 194.927 89.7279H235.656V80.2314H203.072V48.5761ZM264.981 51.7416H245.431C243.639 51.7416 242.172 53.1661 242.172 54.9072V86.5624C242.172 88.3035 243.639 89.7279 245.431 89.7279H264.981C266.773 89.7279 268.239 88.3035 268.239 86.5624V54.9072C268.239 53.1661 266.773 51.7416 264.981 51.7416ZM261.722 80.2314H248.689V58.0727H261.722V80.2314Z" fill="#121212"/>
<path d="M194.587 6.59848C189.248 6.60431 184.13 8.66745 180.354 12.3353C176.579 16.0031 174.455 20.976 174.449 26.1631C174.458 31.3492 176.583 36.3204 180.358 39.9876C184.132 43.6548 189.249 45.7189 194.587 45.7277C199.928 45.7277 205.051 43.6664 208.827 39.9973C212.604 36.3283 214.726 31.3519 214.726 26.1631C214.726 20.9742 212.604 15.9979 208.827 12.3288C205.051 8.65974 199.928 6.59848 194.587 6.59848ZM206.837 37.4524C205.705 35.2363 203.959 33.3713 201.795 32.068C199.631 30.7646 197.135 30.0747 194.589 30.076C192.043 30.0773 189.548 30.7699 187.386 32.0755C185.223 33.3812 183.479 35.248 182.35 37.4653C179.339 34.4313 177.661 30.3779 177.671 26.1631C177.671 21.8044 179.454 17.6243 182.626 14.5423C185.798 11.4603 190.101 9.72882 194.587 9.72882C199.074 9.72882 203.377 11.4603 206.549 14.5423C209.721 17.6243 211.504 21.8044 211.504 26.1631C211.514 30.3718 209.84 34.4196 206.837 37.4524ZM194.587 14.4243C193.154 14.4243 191.752 14.8374 190.56 15.6113C189.367 16.3852 188.438 17.4853 187.89 18.7722C187.341 20.0592 187.197 21.4754 187.477 22.8417C187.757 24.2079 188.447 25.4629 189.461 26.4479C190.475 27.4329 191.767 28.1037 193.173 28.3755C194.579 28.6473 196.037 28.5078 197.362 27.9747C198.687 27.4416 199.819 26.5389 200.615 25.3806C201.412 24.2223 201.837 22.8606 201.837 21.4676C201.837 20.5426 201.65 19.6268 201.285 18.7722C200.921 17.9177 200.387 17.1413 199.714 16.4872C199.041 15.8332 198.241 15.3144 197.362 14.9605C196.482 14.6065 195.54 14.4243 194.587 14.4243Z" fill="#121212"/>
<rect x="160.807" y="98.1951" width="136.496" height="21" rx="1.29924" fill="#121212"/>
<path d="M174.527 104.763L173.175 104.087C172.954 104.178 172.305 104.256 171.967 104.256H167.861C167.42 104.256 166.822 104.204 166.406 104.152V105.984C166.874 105.945 167.355 105.932 167.874 105.932H172.357C172.331 106.777 171.876 109.531 171.629 110.947H166.263C165.861 110.947 165.393 110.908 164.977 110.843V112.727C165.419 112.688 165.874 112.662 166.263 112.662H174.929C175.228 112.662 175.774 112.675 176.138 112.727V110.843C175.8 110.882 175.384 110.947 174.929 110.947H173.526C173.773 109.492 174.241 106.53 174.397 105.348C174.41 105.244 174.475 104.945 174.527 104.763ZM178.242 107.18V109.219C178.723 109.18 179.594 109.154 180.334 109.154H187.311C187.857 109.154 188.519 109.206 188.831 109.219V107.18C188.493 107.206 187.922 107.258 187.311 107.258H180.334C179.659 107.258 178.71 107.219 178.242 107.18ZM200.401 103.087L199.53 103.373C199.777 103.893 200.011 104.607 200.193 105.153L201.089 104.867C200.946 104.36 200.647 103.607 200.401 103.087ZM201.739 102.671L200.855 102.957C201.128 103.464 201.375 104.165 201.557 104.724L202.453 104.438C202.284 103.944 201.986 103.191 201.739 102.671ZM199.283 107.647V107.219H200.258C200.933 107.219 201.388 107.232 201.674 107.258V105.53C201.323 105.595 200.933 105.62 200.245 105.62H199.283V104.256C199.283 103.737 199.335 103.321 199.374 103.048H197.516C197.555 103.308 197.594 103.737 197.594 104.256V105.62H194.515V104.347C194.515 103.828 194.567 103.412 194.593 103.165H192.748C192.787 103.568 192.826 103.957 192.826 104.334V105.62H191.722C191.072 105.62 190.552 105.543 190.318 105.504V107.271C190.604 107.258 191.072 107.219 191.722 107.219H192.826V108.986C192.826 109.57 192.787 110.09 192.748 110.35H194.567C194.554 110.09 194.515 109.57 194.515 108.986V107.219H197.594V107.712C197.594 110.908 196.49 112.026 193.982 112.909L195.373 114.221C198.517 112.831 199.283 110.869 199.283 107.647ZM203.974 107.18V109.219C204.454 109.18 205.325 109.154 206.065 109.154H213.042C213.588 109.154 214.251 109.206 214.562 109.219V107.18C214.225 107.206 213.653 107.258 213.042 107.258H206.065C205.39 107.258 204.441 107.219 203.974 107.18ZM224.385 108.258C224.385 111.038 225.541 113.117 226.944 114.494L228.178 113.949C226.879 112.545 225.853 110.753 225.853 108.258C225.853 105.763 226.879 103.97 228.178 102.567L226.944 102.022C225.541 103.399 224.385 105.478 224.385 108.258ZM238.624 102.242L237.559 102.684C237.806 103.061 238.066 103.516 238.286 103.944C238.053 103.97 237.832 103.97 237.676 103.97H231.66C231.232 103.97 230.491 103.918 230.114 103.867V105.698C230.452 105.672 231.063 105.646 231.66 105.646H237.702C237.533 106.764 237.039 108.232 236.182 109.31C235.129 110.636 233.661 111.766 231.089 112.364L232.505 113.923C234.831 113.169 236.559 111.883 237.728 110.324C238.819 108.882 239.378 106.868 239.69 105.595C239.755 105.322 239.846 104.945 239.976 104.698L239.144 104.152L239.625 103.957C239.391 103.49 238.962 102.736 238.624 102.242ZM240.443 101.918L239.365 102.346C239.716 102.827 240.118 103.568 240.404 104.1L241.483 103.633C241.236 103.178 240.768 102.385 240.443 101.918ZM244.653 103.23V104.906C245.03 104.88 245.588 104.867 246.004 104.867H250.98C251.448 104.867 252.058 104.88 252.409 104.906V103.23C252.045 103.282 251.409 103.295 251.006 103.295H246.004C245.562 103.295 245.017 103.282 244.653 103.23ZM253.501 106.998L252.344 106.283C252.162 106.361 251.812 106.413 251.396 106.413H244.965C244.562 106.413 244.003 106.374 243.457 106.335V108.024C244.003 107.972 244.653 107.959 244.965 107.959H251.24C251.006 108.687 250.603 109.492 249.902 110.207C248.914 111.22 247.355 112.078 245.406 112.48L246.693 113.949C248.356 113.481 250.019 112.597 251.331 111.142C252.305 110.064 252.864 108.804 253.254 107.543C253.306 107.4 253.41 107.167 253.501 106.998ZM262.18 102.58H260.179C260.27 103.139 260.283 103.412 260.283 103.776V104.776H257.502C257.009 104.776 256.619 104.763 256.177 104.711C256.229 105.023 256.242 105.543 256.242 105.828V108.076C256.242 108.427 256.216 108.843 256.177 109.167H257.97C257.944 108.908 257.931 108.505 257.931 108.206V106.309H264.375C264.219 107.465 263.882 108.7 263.219 109.648C262.491 110.701 261.348 111.467 260.27 111.87C259.737 112.078 259.022 112.273 258.438 112.377L259.789 113.936C262.102 113.338 264.05 111.961 265.09 110.038C265.726 108.856 266.077 107.608 266.298 106.361C266.35 106.101 266.454 105.607 266.558 105.322L265.428 104.633C265.207 104.711 264.895 104.776 264.349 104.776H262.089V103.776C262.089 103.412 262.115 103.139 262.18 102.58ZM278.355 103.087L277.485 103.373C277.731 103.893 277.965 104.607 278.147 105.153L279.044 104.867C278.901 104.36 278.602 103.607 278.355 103.087ZM279.693 102.671L278.81 102.957C279.083 103.464 279.33 104.165 279.511 104.724L280.408 104.438C280.239 103.944 279.94 103.191 279.693 102.671ZM277.238 107.647V107.219H278.212C278.888 107.219 279.343 107.232 279.628 107.258V105.53C279.278 105.595 278.888 105.62 278.199 105.62H277.238V104.256C277.238 103.737 277.29 103.321 277.329 103.048H275.471C275.51 103.308 275.549 103.737 275.549 104.256V105.62H272.47V104.347C272.47 103.828 272.522 103.412 272.548 103.165H270.703C270.742 103.568 270.781 103.957 270.781 104.334V105.62H269.676C269.027 105.62 268.507 105.543 268.273 105.504V107.271C268.559 107.258 269.027 107.219 269.676 107.219H270.781V108.986C270.781 109.57 270.742 110.09 270.703 110.35H272.522C272.509 110.09 272.47 109.57 272.47 108.986V107.219H275.549V107.712C275.549 110.908 274.444 112.026 271.937 112.909L273.327 114.221C276.471 112.831 277.238 110.869 277.238 107.647ZM285.111 108.258C285.111 105.478 283.955 103.399 282.552 102.022L281.317 102.567C282.617 103.97 283.643 105.763 283.643 108.258C283.643 110.753 282.617 112.545 281.317 113.949L282.552 114.494C283.955 113.117 285.111 111.038 285.111 108.258Z" fill="#EDEDED"/>
<path d="M210.988 431.74C210.145 431.74 209.321 431.983 208.62 432.438C207.919 432.893 207.372 433.54 207.049 434.297C206.727 435.054 206.642 435.886 206.807 436.69C206.971 437.493 207.377 438.231 207.974 438.81C208.57 439.39 209.329 439.784 210.156 439.944C210.983 440.104 211.841 440.022 212.62 439.708C213.399 439.395 214.064 438.864 214.533 438.183C215.001 437.502 215.251 436.701 215.251 435.882C215.251 434.783 214.802 433.73 214.003 432.953C213.203 432.176 212.119 431.74 210.988 431.74V431.74ZM228.041 371.686C210.988 371.686 193.936 377.36 193.936 388.252V437.953C193.936 448.845 210.988 454.519 228.041 454.519C245.093 454.519 262.146 448.845 262.146 437.953V388.252C262.146 377.36 245.093 371.686 228.041 371.686ZM253.619 437.953C253.619 440.893 243.9 446.236 228.041 446.236C212.182 446.236 202.462 440.893 202.462 437.953V424.409C210.443 428.095 219.207 429.898 228.041 429.669C236.874 429.898 245.639 428.095 253.619 424.409V437.953ZM253.619 413.103C253.619 416.043 243.9 421.386 228.041 421.386C212.182 421.386 202.462 416.043 202.462 413.103V399.559C210.443 403.245 219.207 405.047 228.041 404.819C236.874 405.047 245.639 403.245 253.619 399.559V413.103ZM228.041 396.536C212.182 396.536 202.462 391.193 202.462 388.252C202.462 385.312 212.182 379.969 228.041 379.969C243.9 379.969 253.619 385.312 253.619 388.252C253.619 391.193 243.9 396.536 228.041 396.536ZM210.988 406.89C210.145 406.89 209.321 407.133 208.62 407.588C207.919 408.043 207.372 408.69 207.049 409.447C206.727 410.204 206.642 411.036 206.807 411.84C206.971 412.643 207.377 413.381 207.974 413.96C208.57 414.54 209.329 414.934 210.156 415.094C210.983 415.254 211.841 415.172 212.62 414.858C213.399 414.545 214.064 414.014 214.533 413.333C215.001 412.652 215.251 411.851 215.251 411.032C215.251 409.933 214.802 408.88 214.003 408.103C213.203 407.326 212.119 406.89 210.988 406.89V406.89Z" fill="#121212"/>
<rect x="172.498" y="463.282" width="112.496" height="21" rx="1.29924" fill="#121212"/>
<path d="M178.189 468.473V470.149C178.578 470.123 179.137 470.11 179.579 470.11H183.827C184.282 470.11 184.789 470.123 185.231 470.149V468.473C184.789 468.538 184.269 468.577 183.827 468.577H179.579C179.137 468.577 178.604 468.538 178.189 468.473ZM176.682 471.799V473.501C177.045 473.475 177.552 473.449 177.929 473.449H181.502C181.45 474.54 181.229 475.515 180.696 476.32C180.177 477.087 179.267 477.827 178.345 478.178L179.865 479.283C181.021 478.698 182.021 477.698 182.476 476.788C182.944 475.879 183.23 474.787 183.308 473.449H186.439C186.803 473.449 187.296 473.462 187.621 473.488V471.799C187.283 471.851 186.712 471.877 186.439 471.877H177.929C177.526 471.877 177.071 471.851 176.682 471.799ZM186.01 467.576L184.971 468.005C185.322 468.499 185.724 469.278 185.997 469.811L187.037 469.356C186.79 468.876 186.335 468.057 186.01 467.576ZM187.543 466.992L186.517 467.421C186.868 467.914 187.283 468.668 187.556 469.213L188.596 468.759C188.362 468.304 187.881 467.485 187.543 466.992ZM189.934 472.267V474.307C190.415 474.268 191.285 474.242 192.026 474.242H199.003C199.548 474.242 200.211 474.294 200.523 474.307V472.267C200.185 472.293 199.613 472.345 199.003 472.345H192.026C191.35 472.345 190.402 472.306 189.934 472.267ZM209.124 467.992L207.24 467.408C207.123 467.849 206.85 468.447 206.642 468.759C205.992 469.889 204.784 471.669 202.51 473.085L203.914 474.164C205.226 473.254 206.434 472.007 207.344 470.799H211.06C210.865 471.604 210.306 472.734 209.63 473.67C208.812 473.124 207.993 472.592 207.305 472.202L206.148 473.384C206.811 473.8 207.668 474.384 208.513 475.008C207.435 476.086 205.992 477.139 203.745 477.827L205.252 479.14C207.279 478.373 208.76 477.269 209.903 476.06C210.436 476.489 210.917 476.892 211.267 477.217L212.502 475.749C212.125 475.437 211.618 475.06 211.06 474.657C211.982 473.358 212.632 471.968 212.982 470.915C213.099 470.591 213.268 470.24 213.411 469.993L212.086 469.175C211.8 469.265 211.358 469.317 210.956 469.317H208.318C208.474 469.032 208.799 468.447 209.124 467.992ZM223.935 469.278L222.805 469.746C223.285 470.409 223.61 471.045 223.987 471.864L225.156 471.357C224.87 470.76 224.299 469.811 223.935 469.278ZM225.676 468.564L224.559 469.071C225.039 469.72 225.39 470.318 225.806 471.136L226.936 470.591C226.637 470.006 226.053 469.084 225.676 468.564ZM215.178 474.579L216.737 476.19C216.971 475.853 217.283 475.398 217.582 474.982C218.101 474.281 219.024 472.994 219.531 472.345C219.907 471.877 220.18 471.851 220.596 472.267C221.064 472.747 222.22 474.008 222.974 474.904C223.74 475.801 224.844 477.139 225.715 478.217L227.144 476.684C226.144 475.619 224.818 474.177 223.948 473.254C223.168 472.41 222.168 471.37 221.298 470.552C220.284 469.603 219.518 469.746 218.751 470.656C217.855 471.721 216.841 472.994 216.256 473.592C215.854 473.982 215.568 474.268 215.178 474.579ZM228.911 472.267V474.307C229.392 474.268 230.262 474.242 231.003 474.242H237.98C238.525 474.242 239.188 474.294 239.5 474.307V472.267C239.162 472.293 238.59 472.345 237.98 472.345H231.003C230.327 472.345 229.379 472.306 228.911 472.267ZM250.897 469.473L249.831 468.681C249.572 468.772 249.052 468.85 248.493 468.85H243.907C243.517 468.85 242.725 468.811 242.374 468.759V470.604C242.647 470.591 243.361 470.513 243.907 470.513H248.311C248.025 471.435 247.233 472.721 246.375 473.696C245.154 475.06 243.14 476.645 241.049 477.425L242.387 478.828C244.167 477.983 245.895 476.632 247.272 475.177C248.493 476.359 249.702 477.685 250.546 478.854L252.027 477.568C251.261 476.632 249.689 474.969 248.402 473.852C249.273 472.682 250 471.292 250.442 470.279C250.559 470.019 250.793 469.616 250.897 469.473ZM255.951 480.621C255.397 479.954 254.933 479.131 254.561 478.152C254.188 477.165 254.002 476.017 254.002 474.709C254.002 473.401 254.188 472.254 254.561 471.266C254.933 470.279 255.397 469.456 255.951 468.798H257.939C257.35 469.456 256.856 470.279 256.458 471.266C256.059 472.254 255.86 473.401 255.86 474.709C255.86 476.017 256.059 477.165 256.458 478.152C256.856 479.131 257.35 479.954 257.939 480.621H255.951ZM258.848 478.282V469.187H261.914C262.884 469.187 263.724 469.382 264.435 469.772C265.145 470.162 265.695 470.699 266.085 471.383C266.483 472.067 266.682 472.851 266.682 473.735C266.682 474.618 266.483 475.402 266.085 476.086C265.695 476.771 265.145 477.308 264.435 477.698C263.724 478.087 262.884 478.282 261.914 478.282H258.848ZM260.706 476.645H261.914C262.477 476.645 262.975 476.528 263.408 476.294C263.85 476.06 264.196 475.727 264.448 475.294C264.699 474.852 264.824 474.332 264.824 473.735C264.824 473.129 264.699 472.609 264.448 472.176C264.196 471.743 263.85 471.409 263.408 471.175C262.975 470.941 262.477 470.825 261.914 470.825H260.706V476.645ZM267.983 478.282V469.187H273.089C273.522 469.187 273.912 469.287 274.259 469.486C274.614 469.677 274.895 469.945 275.103 470.292C275.32 470.638 275.428 471.05 275.428 471.526C275.428 471.829 275.367 472.119 275.246 472.397C275.125 472.665 274.96 472.899 274.752 473.098C274.544 473.297 274.302 473.453 274.025 473.566C274.345 473.67 274.627 473.839 274.869 474.073C275.12 474.298 275.315 474.566 275.454 474.878C275.601 475.181 275.675 475.51 275.675 475.866C275.675 476.351 275.562 476.775 275.337 477.139C275.12 477.503 274.83 477.784 274.466 477.983C274.103 478.183 273.696 478.282 273.245 478.282H267.983ZM269.841 476.645H272.712C272.92 476.645 273.107 476.598 273.271 476.502C273.436 476.398 273.566 476.264 273.661 476.099C273.765 475.926 273.817 475.74 273.817 475.541C273.817 475.333 273.765 475.147 273.661 474.982C273.566 474.818 273.436 474.688 273.271 474.592C273.107 474.488 272.92 474.436 272.712 474.436H269.841V476.645ZM269.841 472.877H272.544C272.734 472.877 272.907 472.834 273.063 472.747C273.219 472.652 273.34 472.527 273.427 472.371C273.522 472.215 273.57 472.042 273.57 471.851C273.57 471.66 273.522 471.487 273.427 471.331C273.34 471.175 273.219 471.054 273.063 470.967C272.907 470.872 272.734 470.825 272.544 470.825H269.841V472.877ZM276.196 480.621C276.785 479.954 277.279 479.131 277.677 478.152C278.076 477.165 278.275 476.017 278.275 474.709C278.275 473.401 278.076 472.254 277.677 471.266C277.279 470.279 276.785 469.456 276.196 468.798H278.184C278.738 469.456 279.202 470.279 279.574 471.266C279.947 472.254 280.133 473.401 280.133 474.709C280.133 476.017 279.947 477.165 279.574 478.152C279.202 479.131 278.738 479.954 278.184 480.621H276.196Z" fill="#EDEDED"/>
<rect width="42.875" height="67.197" transform="translate(9.44531 162.508)" fill="#F39423"/>
<path d="M26.4077 210.106V204.298H18.8851C17.8977 204.298 16.9882 204.065 16.1567 203.597C15.3252 203.129 14.6626 202.505 14.1689 201.726C13.6752 200.946 13.4283 200.089 13.4283 199.153C13.4283 198.634 13.4933 198.114 13.6232 197.594C13.7531 197.075 13.922 196.607 14.1299 196.191L21.2238 182.822H27.4991L19.197 198.179C19.119 198.335 19.067 198.452 19.041 198.53C19.0151 198.608 19.0021 198.712 19.0021 198.842C19.0021 198.998 19.054 199.127 19.158 199.231C19.2619 199.335 19.4048 199.387 19.5867 199.387H26.4077V190.189H31.9815V199.387H35.4895V204.298H31.9815V210.106H26.4077ZM42.2142 210.574C41.2268 210.574 40.3693 210.223 39.6417 209.521C38.9402 208.794 38.5894 207.936 38.5894 206.949C38.5894 205.961 38.9402 205.117 39.6417 204.415C40.3693 203.688 41.2268 203.324 42.2142 203.324C43.2017 203.324 44.0462 203.688 44.7478 204.415C45.4753 205.117 45.8391 205.961 45.8391 206.949C45.8391 207.599 45.6702 208.209 45.3324 208.781C45.0206 209.327 44.5919 209.768 44.0462 210.106C43.5005 210.418 42.8899 210.574 42.2142 210.574Z" fill="#EDEDED"/>
<path d="M66.0996 174.651V174.243H67.013C67.6671 174.243 68.0991 174.256 68.3707 174.28V172.639C68.0374 172.7 67.6671 172.725 67.013 172.725H66.0996V171.429C66.0996 170.935 66.149 170.528 66.186 170.281H64.421C64.458 170.528 64.495 170.935 64.495 171.429V172.725H61.5698V171.503C61.5698 171.022 61.6068 170.627 61.6439 170.392H59.8912C59.9282 170.763 59.9652 171.145 59.9652 171.503V172.725H58.9161C58.299 172.725 57.7929 172.651 57.5831 172.614V174.293C57.8546 174.268 58.299 174.243 58.9161 174.243H59.9652V175.922C59.9652 176.477 59.9282 176.971 59.8912 177.218H61.6192C61.6068 176.971 61.5698 176.465 61.5698 175.922V174.243H64.495V174.712C64.495 177.749 63.4459 178.81 61.0637 179.637L62.3844 180.884C65.359 179.575 66.0996 177.712 66.0996 174.651ZM70.3455 174.391V176.329C70.8022 176.292 71.6292 176.267 72.3327 176.267H78.9608C79.4792 176.267 80.1087 176.317 80.4049 176.329V174.391C80.084 174.416 79.5409 174.465 78.9608 174.465H72.3327C71.6909 174.465 70.7899 174.428 70.3455 174.391ZM91.0596 170.257L90.0846 170.664C90.4178 171.133 90.7881 171.873 91.0473 172.379L92.0347 171.947C91.8002 171.491 91.3682 170.713 91.0596 170.257ZM92.5161 169.701L91.541 170.108C91.8743 170.565 92.2816 171.293 92.5284 171.799L93.5159 171.38C93.2937 170.948 92.837 170.17 92.5161 169.701ZM83.8021 176.267C83.3824 177.354 82.6542 178.687 81.8766 179.699L83.6046 180.427C84.2588 179.501 84.987 178.094 85.4313 176.897C85.8633 175.749 86.3077 174.046 86.4805 173.182C86.5298 172.91 86.6656 172.305 86.7767 171.947L84.9746 171.577C84.8265 173.145 84.3575 174.885 83.8021 176.267ZM89.8994 176.008C90.3931 177.341 90.8375 178.896 91.1831 180.365L93.0098 179.773C92.6642 178.551 92.01 176.576 91.578 175.465C91.109 174.268 90.2574 172.367 89.7513 171.417L88.1097 171.947C88.6281 172.886 89.4304 174.712 89.8994 176.008ZM94.9106 174.391V176.329C95.3673 176.292 96.1942 176.267 96.8978 176.267H103.526C104.044 176.267 104.674 176.317 104.97 176.329V174.391C104.649 174.416 104.106 174.465 103.526 174.465H96.8978C96.256 174.465 95.3549 174.428 94.9106 174.391ZM111.734 170.442L109.895 170.257C109.919 171.034 109.808 171.935 109.636 172.861C109.006 172.923 108.426 172.96 108.043 172.972C107.587 172.984 107.179 173.009 106.723 172.972L106.871 174.651C107.253 174.589 107.895 174.502 108.253 174.441C108.475 174.416 108.87 174.367 109.315 174.317C108.858 176.008 108.006 178.501 106.809 180.118L108.414 180.76C109.549 178.946 110.463 176.021 110.932 174.144C111.289 174.12 111.598 174.095 111.796 174.095C112.561 174.095 112.993 174.231 112.993 175.218C112.993 176.44 112.82 177.934 112.487 178.637C112.289 179.045 111.981 179.168 111.561 179.168C111.24 179.168 110.524 179.045 110.055 178.909L110.314 180.538C110.734 180.624 111.327 180.711 111.796 180.711C112.734 180.711 113.412 180.439 113.82 179.575C114.351 178.501 114.523 176.502 114.523 175.046C114.523 173.268 113.598 172.688 112.289 172.688C112.03 172.688 111.672 172.713 111.252 172.737C111.339 172.293 111.438 171.836 111.512 171.466C111.573 171.158 111.66 170.763 111.734 170.442ZM117.226 169.417L116.239 169.812C116.585 170.281 116.98 171.009 117.239 171.515L118.214 171.096C118.004 170.664 117.547 169.886 117.226 169.417ZM115.758 169.973L114.783 170.38C115.066 170.775 115.375 171.367 115.622 171.836L114.511 172.318C115.387 173.404 116.264 175.576 116.585 176.946L118.152 176.23C117.806 175.132 116.881 173.071 116.14 171.923L116.745 171.664C116.51 171.207 116.066 170.429 115.758 169.973ZM61.7303 196.379C61.5328 196.033 60.6194 194.614 60.2738 194.132V193.552H61.5081V192.194H60.2738V189.652H58.9408V192.194H57.4596V193.552H58.8297C58.5211 195.008 57.867 196.724 57.1758 197.687C57.3856 198.02 57.6818 198.576 57.8176 198.983C58.2372 198.366 58.6199 197.502 58.9408 196.551V201.168H60.2738V195.91C60.5453 196.465 60.8169 197.045 60.9773 197.428L61.7303 196.379ZM65.7663 198.168V197.576H66.8649V198.168H65.7663ZM63.3965 197.576H64.4457V198.168H63.3965V197.576ZM64.4457 196.095V196.625H63.3965V196.095H64.4457ZM66.8649 196.095V196.625H65.7663V196.095H66.8649ZM64.4333 193.058H65.791V193.577H64.4333V193.058ZM64.4333 191.565H65.791V192.071H64.4333V191.565ZM68.8891 198.168H68.2226V195.083H65.7663V194.614H68.7656V193.577H67.1611V193.058H68.346V192.071H67.1611V191.565H68.5435V190.553H67.1611V189.652H65.791V190.553H64.4333V189.652H63.0756V190.553H61.8043V191.565H63.0756V192.071H62.0635V193.058H63.0756V193.577H61.5451V194.614H64.4457V195.083H62.0759V198.168H61.3229V199.242H62.0759V201.081H63.3965V199.242H66.8649V199.76C66.8649 199.909 66.8155 199.946 66.655 199.946C66.5069 199.946 66.0009 199.958 65.5442 199.933C65.7046 200.267 65.8651 200.748 65.9268 201.093C66.7044 201.093 67.2845 201.081 67.6918 200.896C68.0991 200.699 68.2226 200.39 68.2226 199.773V199.242H68.8891V198.168ZM71.9254 191.664C72.1476 192.046 72.3697 192.478 72.4561 192.787L73.6411 192.441C73.567 192.231 73.4189 191.947 73.2584 191.664H74.9864C74.826 191.812 74.6655 191.947 74.5051 192.071C74.8507 192.219 75.4925 192.552 75.7887 192.774C76.122 192.478 76.4552 192.096 76.7638 191.664H77.4426C77.7265 192.034 77.9981 192.478 78.1215 192.774L79.3681 192.416C79.2694 192.207 79.0966 191.935 78.8991 191.664H81.0591V190.516H77.4797C77.5908 190.306 77.6895 190.096 77.7759 189.886L76.3812 189.553C76.122 190.232 75.7023 190.898 75.2086 191.429V190.516H72.4561C72.5672 190.318 72.666 190.121 72.7524 189.923L71.3823 189.553C71.012 190.466 70.3208 191.38 69.5803 191.972C69.9135 192.145 70.4936 192.54 70.7652 192.774C71.0861 192.478 71.4194 192.096 71.7279 191.664H71.9254ZM78.2202 193.811V195.058C77.887 194.737 77.4056 194.379 77.0106 194.095L76.3935 194.626C76.4058 194.453 76.4182 194.293 76.4182 194.12V193.811H78.2202ZM80.9727 198.304V197.156H76.0849V196.416H75.3814C75.9245 195.996 76.2084 195.478 76.3318 194.947C76.7885 195.317 77.2822 195.774 77.529 196.095L78.2326 195.465C78.2573 195.934 78.3437 196.132 78.5041 196.304C78.7139 196.514 79.0472 196.601 79.3558 196.601H79.9606C80.1704 196.601 80.4419 196.564 80.6147 196.477C80.7999 196.379 80.9357 196.218 81.0221 195.996C81.0961 195.798 81.1455 195.292 81.1825 194.823C80.8863 194.712 80.4543 194.515 80.2321 194.317C80.2198 194.712 80.2074 195.033 80.1827 195.169C80.1581 195.317 80.121 195.391 80.084 195.416C80.047 195.453 79.9976 195.453 79.9359 195.453H79.7384C79.689 195.453 79.652 195.44 79.6273 195.391C79.5903 195.354 79.6026 195.231 79.6026 195.021V192.848H75.0852V194.083C75.0852 194.527 74.9988 194.971 74.5668 195.366L74.5297 194.762L72.9992 194.984V193.922H74.5421V192.91H70.111V193.922H71.6662V195.169C70.975 195.268 70.3455 195.354 69.8271 195.416L69.9876 196.576C70.9874 196.416 72.2463 196.23 73.53 196.033C73.8139 196.243 74.2705 196.699 74.431 196.946C74.5174 196.909 74.5915 196.885 74.6655 196.848V197.156H69.8148V198.304H73.5917C72.5549 198.946 71.0244 199.452 69.5803 199.686C69.8765 199.983 70.2715 200.538 70.4813 200.884C71.9871 200.526 73.5423 199.822 74.6655 198.921V201.143H76.0849V198.946C77.2205 199.847 78.7633 200.526 80.2568 200.847C80.4666 200.489 80.8863 199.909 81.1949 199.6C79.7014 199.39 78.1215 198.921 77.06 198.304H80.9727ZM86.132 190.318L84.1448 190.294C84.2559 190.787 84.3052 191.38 84.3052 191.96C84.3052 193.021 84.1818 196.267 84.1818 197.921C84.1818 200.032 85.4901 200.921 87.5144 200.921C90.3285 200.921 92.0812 199.267 92.8711 198.082L91.7479 196.724C90.8593 198.069 89.5633 199.242 87.5267 199.242C86.564 199.242 85.8234 198.835 85.8234 197.588C85.8234 196.058 85.9221 193.293 85.9715 191.96C85.9962 191.466 86.0579 190.837 86.132 190.318ZM101.141 197.094L99.672 196.946C99.5733 197.44 99.4499 198.032 99.4499 198.6C99.4499 199.847 100.573 200.563 102.647 200.563C103.634 200.563 104.473 200.476 105.165 200.39L105.226 198.81C104.338 198.971 103.486 199.069 102.659 199.069C101.338 199.069 100.968 198.662 100.968 198.119C100.968 197.847 101.042 197.44 101.141 197.094ZM99.7461 190.257L97.8576 190.108C97.8947 190.392 97.87 190.898 97.8206 191.355C97.7959 191.552 97.7589 191.787 97.7095 192.059C97.3269 192.083 96.9566 192.096 96.5987 192.096C96.0926 192.096 95.673 192.071 95.0435 191.997L95.0805 193.54C95.5125 193.564 95.9815 193.589 96.574 193.589C96.8332 193.589 97.1047 193.577 97.3886 193.564C97.3145 193.922 97.2158 194.268 97.1294 194.601C96.6727 196.329 95.7347 198.921 94.9941 200.155L96.7098 200.736C97.4009 199.267 98.2279 196.749 98.6723 195.021C98.808 194.515 98.9315 193.972 99.0425 193.441C99.8695 193.342 100.709 193.206 101.449 193.034V191.491C100.771 191.651 100.079 191.787 99.3881 191.886C99.4252 191.713 99.4622 191.552 99.4869 191.417C99.5363 191.145 99.6473 190.59 99.7461 190.257ZM100.474 193.984V195.428C101.252 195.342 102.017 195.305 102.856 195.305C103.609 195.305 104.362 195.379 104.979 195.453L105.016 193.972C104.288 193.898 103.548 193.861 102.844 193.861C102.054 193.861 101.166 193.922 100.474 193.984ZM115.162 192.552C115.162 192.12 115.508 191.762 115.94 191.762C116.372 191.762 116.73 192.12 116.73 192.552C116.73 192.984 116.372 193.33 115.94 193.33C115.508 193.33 115.162 192.984 115.162 192.552ZM114.348 192.552C114.348 193.441 115.051 194.144 115.94 194.144C116.829 194.144 117.544 193.441 117.544 192.552C117.544 191.664 116.829 190.948 115.94 190.948C115.051 190.948 114.348 191.664 114.348 192.552ZM106.67 196.588L108.152 198.119C108.374 197.798 108.67 197.366 108.954 196.971C109.448 196.304 110.324 195.083 110.805 194.465C111.163 194.021 111.422 193.996 111.817 194.391C112.262 194.848 113.36 196.045 114.076 196.897C114.804 197.749 115.853 199.02 116.68 200.044L118.038 198.588C117.088 197.576 115.829 196.206 115.002 195.329C114.261 194.527 113.311 193.54 112.484 192.762C111.521 191.861 110.793 191.997 110.065 192.861C109.213 193.873 108.25 195.083 107.695 195.65C107.312 196.021 107.041 196.292 106.67 196.588ZM119.717 194.391V196.329C120.173 196.292 121 196.267 121.704 196.267H128.332C128.85 196.267 129.48 196.317 129.776 196.329V194.391C129.455 194.416 128.912 194.465 128.332 194.465H121.704C121.062 194.465 120.161 194.428 119.717 194.391ZM139.693 190.627L138.656 191.059C139.101 191.688 139.385 192.219 139.743 192.997L140.816 192.54C140.532 191.972 140.039 191.145 139.693 190.627ZM141.384 190.034L140.335 190.466C140.792 191.083 141.1 191.565 141.495 192.342L142.544 191.873C142.248 191.33 141.767 190.528 141.384 190.034ZM134.324 190.392L133.435 191.75C134.25 192.207 135.534 193.034 136.225 193.515L137.138 192.157C136.496 191.701 135.139 190.837 134.324 190.392ZM132.041 199.156L132.966 200.773C134.053 200.575 135.83 199.958 137.089 199.254C139.101 198.082 140.853 196.527 141.989 194.811L141.039 193.132C140.063 194.897 138.335 196.588 136.237 197.761C134.904 198.501 133.423 198.921 132.041 199.156ZM132.423 193.206L131.535 194.564C132.362 195.008 133.645 195.835 134.349 196.329L135.25 194.947C134.62 194.502 133.263 193.651 132.423 193.206ZM149.024 190.207L147.395 190.071C147.37 190.516 147.284 190.997 147.148 191.491C146.951 191.491 146.741 191.491 146.556 191.491C145.926 191.491 145.013 191.441 144.383 191.343V192.787C145.062 192.836 145.963 192.861 146.469 192.861C146.519 192.861 146.568 192.861 146.63 192.861C146.074 193.972 145.198 195.07 143.902 196.267L145.223 197.255C145.642 196.712 146 196.267 146.371 195.897C146.84 195.44 147.605 195.046 148.296 195.046C148.642 195.046 148.975 195.157 149.16 195.465C147.753 196.193 146.272 197.181 146.272 198.761C146.272 200.353 147.704 200.822 149.641 200.822C150.802 200.822 152.32 200.723 153.134 200.612L153.184 199.02C152.098 199.23 150.728 199.365 149.679 199.365C148.469 199.365 147.889 199.18 147.889 198.501C147.889 197.884 148.383 197.403 149.308 196.872C149.296 197.415 149.284 198.008 149.247 198.378H150.728C150.715 197.81 150.691 196.897 150.678 196.206C151.431 195.86 152.135 195.589 152.69 195.366C153.11 195.206 153.764 194.959 154.159 194.848L153.542 193.416C153.085 193.651 152.653 193.848 152.172 194.058C151.666 194.28 151.147 194.49 150.505 194.786C150.234 194.157 149.617 193.836 148.864 193.836C148.457 193.836 147.79 193.935 147.469 194.083C147.716 193.725 147.963 193.28 148.173 192.824C149.506 192.787 151.024 192.688 152.196 192.515L152.209 191.083C151.123 191.269 149.888 191.38 148.716 191.441C148.876 190.923 148.963 190.516 149.024 190.207ZM66.8155 212.096L65.5318 211.454C65.322 211.54 64.7049 211.614 64.384 211.614H60.4836C60.064 211.614 59.4962 211.565 59.1012 211.515V213.256C59.5456 213.219 60.0023 213.206 60.496 213.206H64.7542C64.7296 214.009 64.2976 216.625 64.063 217.971H58.9655C58.5828 217.971 58.1385 217.934 57.7435 217.872V219.662C58.1632 219.625 58.5952 219.6 58.9655 219.6H67.1981C67.482 219.6 68.0004 219.612 68.346 219.662V217.872C68.0251 217.909 67.6301 217.971 67.1981 217.971H65.8651C66.0996 216.588 66.5439 213.774 66.6921 212.651C66.7044 212.552 66.7661 212.268 66.8155 212.096ZM70.3455 214.391V216.329C70.8022 216.292 71.6292 216.267 72.3327 216.267H78.9608C79.4792 216.267 80.1087 216.317 80.4049 216.329V214.391C80.084 214.416 79.5409 214.465 78.9608 214.465H72.3327C71.6909 214.465 70.7899 214.428 70.3455 214.391ZM91.3958 210.503L90.5688 210.775C90.8033 211.269 91.0255 211.947 91.1983 212.466L92.05 212.194C91.9142 211.713 91.6303 210.997 91.3958 210.503ZM92.6671 210.108L91.8278 210.38C92.087 210.861 92.3215 211.528 92.4943 212.059L93.346 211.787C93.1855 211.318 92.9016 210.602 92.6671 210.108ZM90.3343 214.836V214.428H91.26C91.9018 214.428 92.3338 214.441 92.6054 214.465V212.824C92.2721 212.886 91.9018 212.91 91.2477 212.91H90.3343V211.614C90.3343 211.12 90.3837 210.726 90.4207 210.466H88.6557C88.6927 210.713 88.7297 211.12 88.7297 211.614V212.91H85.8045V211.701C85.8045 211.207 85.8539 210.812 85.8786 210.577H84.1259C84.1629 210.96 84.1999 211.33 84.1999 211.688V212.91H83.1508C82.5337 212.91 82.0399 212.836 81.8178 212.799V214.478C82.0893 214.465 82.5337 214.428 83.1508 214.428H84.1999V216.107C84.1999 216.662 84.1629 217.156 84.1259 217.403H85.8539C85.8415 217.156 85.8045 216.662 85.8045 216.107V214.428H88.7297V214.897C88.7297 217.934 87.6806 218.995 85.2984 219.835L86.6191 221.081C89.6061 219.76 90.3343 217.897 90.3343 214.836ZM94.7901 214.391V216.329C95.2467 216.292 96.0737 216.267 96.7773 216.267H103.405C103.924 216.267 104.553 216.317 104.849 216.329V214.391C104.529 214.416 103.985 214.465 103.405 214.465H96.7773C96.1354 214.465 95.2344 214.428 94.7901 214.391ZM111.527 211.478V213.058C113.082 213.206 115.316 213.194 116.834 213.058V211.466C115.501 211.627 113.045 211.688 111.527 211.478ZM112.514 216.749L111.095 216.613C110.959 217.243 110.885 217.736 110.885 218.218C110.885 219.489 111.91 220.242 114.032 220.242C115.427 220.242 116.415 220.155 117.217 220.007L117.192 218.341C116.106 218.563 115.193 218.662 114.094 218.662C112.835 218.662 112.366 218.329 112.366 217.786C112.366 217.452 112.416 217.156 112.514 216.749ZM109.626 210.651L107.898 210.503C107.886 210.898 107.812 211.367 107.775 211.713C107.639 212.663 107.256 214.749 107.256 216.601C107.256 218.279 107.491 219.785 107.738 220.637L109.169 220.538C109.157 220.365 109.145 220.168 109.145 220.032C109.145 219.909 109.169 219.637 109.206 219.452C109.342 218.798 109.75 217.452 110.095 216.428L109.33 215.823C109.157 216.23 108.96 216.662 108.774 217.082C108.737 216.835 108.725 216.514 108.725 216.28C108.725 215.046 109.157 212.577 109.318 211.75C109.367 211.528 109.527 210.911 109.626 210.651ZM127.745 213.959C127.498 214.626 127.178 215.231 126.77 215.761C126.338 215.231 125.993 214.626 125.733 213.959H127.745ZM128.597 212.614L128.325 212.651H124.425V211.503H129.807V210.133H123.018V212.997C123.018 214.552 122.907 216.699 121.747 218.168C122.092 218.304 122.722 218.711 122.981 218.958C123.981 217.65 124.302 215.749 124.4 214.144C124.746 215.157 125.203 216.033 125.783 216.786C125.166 217.304 124.437 217.712 123.648 217.971C123.931 218.255 124.302 218.835 124.474 219.205C125.338 218.859 126.116 218.415 126.795 217.847C127.511 218.452 128.35 218.921 129.362 219.242C129.56 218.847 129.979 218.255 130.3 217.971C129.325 217.712 128.511 217.317 127.819 216.786C128.609 215.786 129.202 214.502 129.535 212.91L128.597 212.614ZM122.031 211.824C121.623 211.244 120.735 210.466 120.019 209.936L118.92 210.812C119.636 211.367 120.5 212.207 120.858 212.787L122.031 211.824ZM121.71 214.441H118.92V215.786H120.278V218.39C119.747 218.81 119.142 219.23 118.649 219.526L119.365 221.056C120.019 220.538 120.549 220.057 121.08 219.575C121.883 220.538 122.907 220.884 124.437 220.945C125.919 221.007 128.4 220.982 129.893 220.908C129.955 220.489 130.177 219.773 130.35 219.427C128.708 219.551 125.906 219.588 124.462 219.526C123.166 219.477 122.228 219.143 121.71 218.316V214.441ZM134.694 216.872C134.917 217.28 135.139 217.724 135.349 218.181L133.361 218.39C133.707 217.563 134.077 216.564 134.41 215.65H137.262V214.293H134.941V212.725H136.879V211.392H134.941V209.652H133.509V211.392H131.485V212.725H133.509V214.293H131.09V215.65H132.769C132.559 216.601 132.226 217.699 131.905 218.539L131.09 218.613L131.3 220.032L135.892 219.44C136.027 219.797 136.138 220.118 136.2 220.402L137.484 219.859C137.237 218.909 136.521 217.477 135.879 216.391L134.694 216.872ZM142.125 210.392H137.632V221.18H139.064V211.762H140.693V217.576C140.693 217.724 140.644 217.773 140.495 217.773C140.347 217.786 139.891 217.786 139.446 217.761C139.644 218.168 139.866 218.847 139.915 219.279C140.656 219.279 141.187 219.23 141.594 218.983C142.014 218.724 142.125 218.267 142.125 217.613V210.392Z" fill="#F39423"/>
<rect x="9.12015" y="162.183" width="163.705" height="67.8466" rx="2.27367" stroke="#F39423" stroke-width="3.24811"/>
<path d="M190.041 201.914L195.667 196.288L190.041 190.662L184.415 196.288L190.041 201.914ZM190.73 143.629C190.35 143.249 189.733 143.249 189.352 143.629L183.151 149.83C182.77 150.211 182.77 150.828 183.151 151.208C183.531 151.589 184.148 151.589 184.529 151.208L190.041 145.696L195.553 151.208C195.934 151.589 196.551 151.589 196.931 151.208C197.312 150.828 197.312 150.211 196.931 149.83L190.73 143.629ZM191.015 196.288V144.318H189.067V196.288H191.015Z" fill="#F39423"/>
<path d="M267.994 154.283L262.368 159.909L267.994 165.535L273.62 159.909L267.994 154.283ZM267.305 212.568C267.686 212.948 268.303 212.948 268.683 212.568L274.884 206.367C275.265 205.986 275.265 205.369 274.884 204.989C274.504 204.608 273.887 204.608 273.506 204.989L267.994 210.501L262.482 204.989C262.101 204.608 261.484 204.608 261.104 204.989C260.723 205.369 260.723 205.986 261.104 206.367L267.305 212.568ZM267.02 159.909V211.879H268.969V159.909H267.02Z" fill="#121212"/>
<rect width="42.875" height="67.197" transform="translate(283.584 126.129)" fill="#121212"/>
<path d="M292.121 173.727V168.816H297.266V151.354H292.549V146.443H302.917V168.816H307.517V173.727H292.121ZM315.263 174.195C314.276 174.195 313.418 173.844 312.691 173.143C311.989 172.415 311.638 171.558 311.638 170.57C311.638 169.583 311.989 168.738 312.691 168.037C313.418 167.309 314.276 166.945 315.263 166.945C316.251 166.945 317.095 167.309 317.797 168.037C318.524 168.738 318.888 169.583 318.888 170.57C318.888 171.22 318.719 171.83 318.381 172.402C318.07 172.948 317.641 173.389 317.095 173.727C316.549 174.039 315.939 174.195 315.263 174.195Z" fill="#EDEDED"/>
<path d="M335.4 163.875C334.7 163.875 334.079 163.731 333.536 163.443C333.001 163.155 332.578 162.748 332.265 162.221C331.96 161.687 331.808 161.053 331.808 160.321V155.087H333.573V160.432C333.573 160.777 333.647 161.094 333.795 161.382C333.943 161.662 334.153 161.888 334.425 162.061C334.705 162.234 335.034 162.32 335.412 162.32C335.783 162.32 336.103 162.234 336.375 162.061C336.647 161.888 336.856 161.662 337.004 161.382C337.153 161.094 337.227 160.777 337.227 160.432V155.087H338.992V160.321C338.992 161.053 338.835 161.687 338.523 162.221C338.218 162.748 337.794 163.155 337.251 163.443C336.716 163.731 336.099 163.875 335.4 163.875ZM340.657 163.727V155.087H344.52C345.088 155.087 345.602 155.215 346.063 155.47C346.532 155.717 346.902 156.062 347.174 156.507C347.454 156.951 347.594 157.469 347.594 158.062C347.594 158.638 347.458 159.148 347.186 159.592C346.915 160.029 346.557 160.374 346.112 160.629L346.902 162.012C346.935 162.061 346.976 162.102 347.026 162.135C347.075 162.16 347.133 162.172 347.199 162.172H348.038V163.727H346.927C346.581 163.727 346.265 163.641 345.977 163.468C345.697 163.295 345.475 163.069 345.31 162.789L344.335 161.037C344.261 161.037 344.183 161.037 344.101 161.037C344.026 161.037 343.952 161.037 343.878 161.037H342.422V163.727H340.657ZM342.422 159.481H344.31C344.59 159.481 344.845 159.428 345.076 159.321C345.306 159.206 345.487 159.041 345.619 158.827C345.759 158.613 345.829 158.358 345.829 158.062C345.829 157.766 345.759 157.511 345.619 157.297C345.479 157.083 345.294 156.922 345.063 156.815C344.841 156.7 344.59 156.643 344.31 156.643H342.422V159.481ZM351.501 163.727C350.991 163.727 350.543 163.612 350.156 163.382C349.769 163.143 349.469 162.83 349.255 162.444C349.041 162.049 348.934 161.617 348.934 161.148V155.087H350.699V161.357C350.699 161.58 350.777 161.773 350.934 161.938C351.09 162.094 351.279 162.172 351.501 162.172H353.785V163.727H351.501ZM354.485 160.049L355.991 161.592C356.2 161.271 356.484 160.827 356.768 160.419C357.299 159.716 358.175 158.494 358.669 157.877C359.027 157.42 359.261 157.358 359.693 157.84C360.274 158.494 361.199 159.666 361.964 160.58C362.742 161.493 363.791 162.69 364.68 163.53L365.951 162.049C364.779 161 363.73 159.889 362.94 159.025C362.211 158.235 361.224 156.963 360.385 156.149C359.484 155.272 358.681 155.359 357.817 156.334C357.052 157.223 356.102 158.494 355.534 159.086C355.164 159.481 354.855 159.765 354.485 160.049ZM378.158 155.371L377.183 154.458C376.949 154.532 376.27 154.569 375.924 154.569H369.271C368.753 154.569 368.235 154.52 367.766 154.445V156.161C368.346 156.112 368.753 156.075 369.271 156.075H375.702C375.381 156.68 374.418 157.766 373.431 158.371L374.715 159.395C375.924 158.531 377.097 156.976 377.677 156.013C377.788 155.828 378.022 155.532 378.158 155.371ZM373.122 157.037H371.333C371.394 157.432 371.419 157.766 371.419 158.148C371.419 160.173 371.123 161.481 369.555 162.567C369.099 162.9 368.654 163.11 368.259 163.246L369.703 164.418C373.061 162.616 373.122 160.098 373.122 157.037ZM385.171 154.1L383.369 153.507C383.258 153.927 382.999 154.495 382.814 154.803C382.197 155.865 381.123 157.457 378.963 158.778L380.345 159.802C381.555 158.975 382.629 157.889 383.456 156.815H386.924C386.727 157.741 386.011 159.222 385.171 160.185C384.098 161.407 382.728 162.481 380.197 163.234L381.654 164.542C383.974 163.629 385.468 162.493 386.64 161.061C387.751 159.679 388.455 158.037 388.788 156.939C388.887 156.63 389.059 156.285 389.195 156.05L387.936 155.272C387.652 155.359 387.245 155.421 386.862 155.421H384.381C384.394 155.396 384.406 155.384 384.418 155.359C384.567 155.087 384.887 154.532 385.171 154.1ZM393.922 162.086C393.922 163.542 394.33 164.221 397.144 164.221C398.465 164.221 399.946 164.098 400.97 163.949L401.02 162.271C399.798 162.518 398.428 162.69 397.132 162.69C395.774 162.69 395.552 162.419 395.552 161.654V158.383C397.304 158.025 398.971 157.704 399.353 157.618C399.008 158.272 398.193 159.395 397.378 160.123L398.736 160.925C399.625 160.049 400.748 158.358 401.291 157.334C401.402 157.112 401.587 156.828 401.698 156.655L400.513 155.741C400.279 155.865 399.983 155.951 399.637 156.025C399.082 156.161 397.354 156.507 395.552 156.852V155.396C395.552 154.976 395.613 154.359 395.663 153.976H393.824C393.885 154.359 393.922 154.989 393.922 155.396V157.161C392.7 157.383 391.614 157.568 391.034 157.642L391.33 159.259C391.849 159.136 392.824 158.938 393.922 158.716V162.086ZM413.078 155.359L412.066 154.606C411.819 154.692 411.326 154.766 410.795 154.766H406.438C406.068 154.766 405.315 154.729 404.982 154.68V156.433C405.241 156.42 405.92 156.346 406.438 156.346H410.622C410.351 157.223 409.598 158.445 408.783 159.37C407.623 160.666 405.71 162.172 403.723 162.913L404.994 164.246C406.685 163.443 408.326 162.16 409.635 160.777C410.795 161.901 411.943 163.16 412.745 164.27L414.152 163.048C413.424 162.16 411.931 160.58 410.709 159.518C411.536 158.408 412.227 157.087 412.646 156.124C412.758 155.877 412.98 155.495 413.078 155.359Z" fill="#121212"/>
<rect x="283.259" y="125.804" width="163.705" height="67.8466" rx="2.27367" stroke="#121212" stroke-width="3.24811"/>
<g clip-path="url(#clip1_711_15915)">
<path d="M266.693 305.645L261.067 311.271L266.693 316.897L272.319 311.271L266.693 305.645ZM266.004 363.93C266.385 364.31 267.002 364.31 267.382 363.93L273.584 357.728C273.964 357.348 273.964 356.731 273.584 356.35C273.203 355.97 272.586 355.97 272.206 356.35L266.693 361.863L261.181 356.35C260.801 355.97 260.184 355.97 259.803 356.35C259.423 356.731 259.423 357.348 259.803 357.728L266.004 363.93ZM265.719 311.271V363.241H267.668V311.271H265.719Z" fill="#121212"/>
<rect width="42.875" height="67.197" transform="translate(283.584 277.491)" fill="#121212"/>
<path d="M295.72 325.089C294.681 325.089 293.771 324.868 292.992 324.426C292.212 323.959 291.601 323.348 291.16 322.594C290.744 321.841 290.536 320.996 290.536 320.061C290.536 319.177 290.757 318.32 291.199 317.488C291.666 316.657 292.264 315.981 292.992 315.462L301.372 309.459C301.943 309.043 302.372 308.55 302.658 307.978C302.944 307.406 303.087 306.809 303.087 306.185C303.087 305.457 302.931 304.847 302.619 304.353C302.307 303.833 301.865 303.431 301.294 303.145C300.722 302.859 300.034 302.716 299.228 302.716H292.017V297.805H299.891C301.684 297.805 303.23 298.182 304.529 298.935C305.828 299.689 306.829 300.702 307.53 301.975C308.258 303.223 308.622 304.626 308.622 306.185C308.622 307.744 308.31 309.121 307.686 310.317C307.088 311.486 306.101 312.538 304.724 313.474L296.344 319.164C296.292 319.19 296.227 319.255 296.149 319.359C296.071 319.437 296.032 319.541 296.032 319.671C296.032 319.853 296.084 319.983 296.188 320.061C296.292 320.139 296.435 320.178 296.617 320.178H309.44V325.089H295.72ZM316.166 325.557C315.179 325.557 314.321 325.206 313.594 324.504C312.892 323.777 312.541 322.919 312.541 321.932C312.541 320.944 312.892 320.1 313.594 319.398C314.321 318.671 315.179 318.307 316.166 318.307C317.154 318.307 317.998 318.671 318.7 319.398C319.427 320.1 319.791 320.944 319.791 321.932C319.791 322.581 319.622 323.192 319.285 323.764C318.973 324.309 318.544 324.751 317.998 325.089C317.453 325.401 316.842 325.557 316.166 325.557Z" fill="#EDEDED"/>
<path d="M339.93 287.535C339.93 287.103 340.275 286.745 340.707 286.745C341.139 286.745 341.497 287.103 341.497 287.535C341.497 287.967 341.139 288.313 340.707 288.313C340.275 288.313 339.93 287.967 339.93 287.535ZM339.115 287.535C339.115 288.424 339.819 289.127 340.707 289.127C341.596 289.127 342.312 288.424 342.312 287.535C342.312 286.647 341.596 285.931 340.707 285.931C339.819 285.931 339.115 286.647 339.115 287.535ZM331.438 291.571L332.919 293.102C333.141 292.781 333.437 292.349 333.721 291.954C334.215 291.287 335.091 290.065 335.573 289.448C335.931 289.004 336.19 288.979 336.585 289.374C337.029 289.831 338.128 291.028 338.844 291.88C339.572 292.732 340.621 294.003 341.448 295.027L342.806 293.571C341.855 292.559 340.596 291.189 339.769 290.312C339.029 289.51 338.078 288.523 337.251 287.745C336.289 286.844 335.56 286.98 334.832 287.844C333.98 288.856 333.018 290.065 332.462 290.633C332.08 291.004 331.808 291.275 331.438 291.571ZM344.484 289.374V291.312C344.941 291.275 345.768 291.25 346.471 291.25H353.099C353.618 291.25 354.247 291.3 354.544 291.312V289.374C354.223 289.399 353.68 289.448 353.099 289.448H346.471C345.83 289.448 344.929 289.411 344.484 289.374ZM364.461 285.61L363.424 286.042C363.868 286.671 364.152 287.202 364.51 287.98L365.584 287.523C365.3 286.955 364.806 286.128 364.461 285.61ZM366.152 285.017L365.102 285.449C365.559 286.066 365.868 286.548 366.263 287.325L367.312 286.856C367.016 286.313 366.534 285.511 366.152 285.017ZM359.092 285.375L358.203 286.733C359.017 287.19 360.301 288.017 360.992 288.498L361.906 287.14C361.264 286.684 359.906 285.82 359.092 285.375ZM356.808 294.139L357.734 295.756C358.82 295.558 360.597 294.941 361.856 294.237C363.868 293.065 365.621 291.51 366.756 289.794L365.806 288.115C364.831 289.88 363.103 291.571 361.005 292.744C359.672 293.484 358.19 293.904 356.808 294.139ZM357.191 288.189L356.302 289.547C357.129 289.991 358.413 290.818 359.116 291.312L360.017 289.93C359.388 289.485 358.03 288.634 357.191 288.189ZM372.656 291.361C372.459 291.016 371.545 289.596 371.2 289.115V288.535H372.434V287.177H371.2V284.635H369.867V287.177H368.386V288.535H369.756C369.447 289.991 368.793 291.707 368.102 292.67C368.312 293.003 368.608 293.559 368.744 293.966C369.163 293.349 369.546 292.485 369.867 291.534V296.15H371.2V290.892C371.471 291.448 371.743 292.028 371.903 292.411L372.656 291.361ZM376.692 293.151V292.559H377.791V293.151H376.692ZM374.323 292.559H375.372V293.151H374.323V292.559ZM375.372 291.078V291.608H374.323V291.078H375.372ZM377.791 291.078V291.608H376.692V291.078H377.791ZM375.359 288.041H376.717V288.56H375.359V288.041ZM375.359 286.548H376.717V287.054H375.359V286.548ZM379.815 293.151H379.149V290.065H376.692V289.596H379.692V288.56H378.087V288.041H379.272V287.054H378.087V286.548H379.469V285.536H378.087V284.635H376.717V285.536H375.359V284.635H374.002V285.536H372.73V286.548H374.002V287.054H372.99V288.041H374.002V288.56H372.471V289.596H375.372V290.065H373.002V293.151H372.249V294.225H373.002V296.064H374.323V294.225H377.791V294.743C377.791 294.892 377.741 294.929 377.581 294.929C377.433 294.929 376.927 294.941 376.47 294.916C376.631 295.249 376.791 295.731 376.853 296.076C377.63 296.076 378.211 296.064 378.618 295.879C379.025 295.681 379.149 295.373 379.149 294.756V294.225H379.815V293.151ZM382.851 286.647C383.074 287.029 383.296 287.461 383.382 287.77L384.567 287.424C384.493 287.214 384.345 286.93 384.184 286.647H385.912C385.752 286.795 385.592 286.93 385.431 287.054C385.777 287.202 386.418 287.535 386.715 287.757C387.048 287.461 387.381 287.079 387.69 286.647H388.369C388.653 287.017 388.924 287.461 389.048 287.757L390.294 287.399C390.195 287.19 390.023 286.918 389.825 286.647H391.985V285.499H388.406C388.517 285.289 388.616 285.079 388.702 284.869L387.307 284.536C387.048 285.215 386.628 285.881 386.135 286.412V285.499H383.382C383.493 285.301 383.592 285.104 383.678 284.906L382.308 284.536C381.938 285.449 381.247 286.363 380.506 286.955C380.84 287.128 381.42 287.523 381.691 287.757C382.012 287.461 382.345 287.079 382.654 286.647H382.851ZM389.146 288.794V290.041C388.813 289.72 388.332 289.362 387.937 289.078L387.32 289.609C387.332 289.436 387.344 289.276 387.344 289.103V288.794H389.146ZM391.899 293.287V292.139H387.011V291.399H386.307C386.85 290.979 387.134 290.46 387.258 289.93C387.714 290.3 388.208 290.757 388.455 291.078L389.159 290.448C389.183 290.917 389.27 291.115 389.43 291.287C389.64 291.497 389.973 291.584 390.282 291.584H390.887C391.096 291.584 391.368 291.547 391.541 291.46C391.726 291.361 391.862 291.201 391.948 290.979C392.022 290.781 392.071 290.275 392.109 289.806C391.812 289.695 391.38 289.498 391.158 289.3C391.146 289.695 391.133 290.016 391.109 290.152C391.084 290.3 391.047 290.374 391.01 290.399C390.973 290.436 390.924 290.436 390.862 290.436H390.664C390.615 290.436 390.578 290.423 390.553 290.374C390.516 290.337 390.529 290.214 390.529 290.004V287.831H386.011V289.066C386.011 289.51 385.925 289.954 385.493 290.349L385.456 289.745L383.925 289.967V288.905H385.468V287.893H381.037V288.905H382.592V290.152C381.901 290.251 381.272 290.337 380.753 290.399L380.914 291.559C381.913 291.399 383.172 291.213 384.456 291.016C384.74 291.226 385.197 291.682 385.357 291.929C385.443 291.892 385.517 291.868 385.592 291.831V292.139H380.741V293.287H384.518C383.481 293.929 381.95 294.435 380.506 294.669C380.803 294.966 381.197 295.521 381.407 295.867C382.913 295.509 384.468 294.805 385.592 293.904V296.126H387.011V293.929C388.146 294.83 389.689 295.509 391.183 295.83C391.393 295.472 391.812 294.892 392.121 294.583C390.627 294.373 389.048 293.904 387.986 293.287H391.899ZM398.008 286.461V288.041C399.564 288.189 401.798 288.177 403.316 288.041V286.449C401.983 286.61 399.527 286.671 398.008 286.461ZM398.996 291.732L397.576 291.596C397.441 292.225 397.367 292.719 397.367 293.201C397.367 294.472 398.391 295.225 400.514 295.225C401.909 295.225 402.896 295.138 403.698 294.99L403.674 293.324C402.588 293.546 401.674 293.645 400.576 293.645C399.317 293.645 398.848 293.312 398.848 292.769C398.848 292.435 398.897 292.139 398.996 291.732ZM396.108 285.634L394.38 285.486C394.367 285.881 394.293 286.35 394.256 286.696C394.12 287.646 393.738 289.732 393.738 291.584C393.738 293.262 393.972 294.768 394.219 295.62L395.651 295.521C395.639 295.348 395.626 295.151 395.626 295.015C395.626 294.892 395.651 294.62 395.688 294.435C395.824 293.781 396.231 292.435 396.577 291.411L395.811 290.806C395.639 291.213 395.441 291.645 395.256 292.065C395.219 291.818 395.207 291.497 395.207 291.263C395.207 290.028 395.639 287.56 395.799 286.733C395.848 286.511 396.009 285.894 396.108 285.634ZM412.437 286.721C411.734 286.178 410.487 285.264 409.487 284.622L408.537 285.696C409.5 286.363 410.758 287.325 411.474 287.918L412.437 286.721ZM406.426 287.967C406.204 289.411 405.735 290.979 405.13 292.04L406.55 292.571C407.167 291.51 407.562 289.782 407.821 288.325L406.426 287.967ZM410.684 294.558C410.055 294.558 409.956 294.472 409.956 293.842V293.089C412.437 291.065 414.375 288.523 415.72 285.943L414.239 285.363C413.301 287.338 411.82 289.387 409.956 291.139V287.412H408.389V292.46C407.389 293.225 406.303 293.892 405.155 294.41C405.451 294.694 405.895 295.237 406.118 295.57C406.908 295.188 407.685 294.743 408.401 294.25C408.487 295.607 409.006 296.027 410.524 296.027H412.684C414.202 296.027 414.634 295.299 414.832 293.077C414.4 292.978 413.745 292.719 413.388 292.46C413.301 294.2 413.19 294.558 412.561 294.558H410.684ZM413.659 289.424C414.387 290.584 415.153 292.164 415.436 293.188L416.843 292.472C416.535 291.46 415.757 289.954 414.98 288.794L413.659 289.424ZM421.953 292.472H424.965C424.669 292.929 424.299 293.312 423.842 293.62C423.089 293.423 422.311 293.238 421.546 293.077L421.953 292.472ZM419.88 288.202H421.176V289.35H419.88V288.202ZM422.558 286.338H423.953V287.042H422.558V286.338ZM426.816 288.202V289.35H425.335V288.202H426.816ZM422.558 289.35V288.202H423.953V289.35H422.558ZM428.976 292.472V291.287H422.743C422.916 291.016 423.077 290.757 423.237 290.497H428.285V287.042H425.335V286.338H428.68V285.067H417.93V286.338H421.176V287.042H418.497V290.497H421.558C421.398 290.757 421.238 291.016 421.065 291.287H417.707V292.472H420.275C419.905 293.003 419.547 293.484 419.238 293.879L420.657 294.324L420.793 294.139C421.201 294.225 421.595 294.324 421.99 294.423C420.892 294.706 419.559 294.854 417.93 294.916C418.152 295.237 418.386 295.756 418.485 296.175C420.88 295.99 422.706 295.669 424.089 294.99C425.483 295.398 426.73 295.83 427.668 296.212L428.569 295.015C427.73 294.719 426.656 294.385 425.459 294.052C425.915 293.62 426.298 293.102 426.607 292.472H428.976ZM435.333 285.153L433.63 284.98C433.605 285.622 433.469 286.363 433.296 287.042C432.914 287.079 432.544 287.091 432.173 287.091C431.717 287.091 431.062 287.066 430.532 287.004L430.643 288.436C431.173 288.473 431.68 288.486 432.186 288.486C432.395 288.486 432.605 288.486 432.827 288.473C432.284 289.806 431.285 291.621 430.309 292.83L431.803 293.596C432.803 292.201 433.852 290.041 434.444 288.313C435.271 288.189 436.037 288.029 436.604 287.881L436.555 286.449C436.074 286.597 435.493 286.733 434.889 286.844C435.074 286.178 435.234 285.548 435.333 285.153ZM434.691 293.694C434.691 293.262 435.148 292.941 435.864 292.941C436.209 292.941 436.543 292.991 436.864 293.065C436.864 293.164 436.864 293.238 436.864 293.312C436.864 293.991 436.604 294.46 435.753 294.46C435.074 294.46 434.691 294.151 434.691 293.694ZM438.221 288.992H436.678C436.703 289.745 436.765 290.843 436.814 291.756C436.53 291.732 436.259 291.707 435.962 291.707C434.247 291.707 433.235 292.633 433.235 293.842C433.235 295.2 434.444 295.879 435.975 295.879C437.728 295.879 438.357 294.99 438.357 293.842C438.357 293.805 438.357 293.756 438.357 293.719C439.036 294.126 439.591 294.645 440.023 295.04L440.85 293.719C440.221 293.151 439.357 292.534 438.295 292.139C438.271 291.522 438.234 290.929 438.221 290.572C438.209 290.028 438.184 289.51 438.221 288.992ZM440.344 289.646L441.221 288.35C440.591 287.893 439.061 287.054 438.172 286.671L437.382 287.893C438.221 288.276 439.628 289.078 440.344 289.646ZM333.326 305.77V307.362C333.697 307.338 334.227 307.325 334.647 307.325H338.683C339.115 307.325 339.596 307.338 340.016 307.362V305.77C339.596 305.832 339.103 305.869 338.683 305.869H334.647C334.227 305.869 333.721 305.832 333.326 305.77ZM331.895 308.93V310.547C332.24 310.522 332.722 310.497 333.079 310.497H336.474C336.424 311.534 336.215 312.46 335.708 313.225C335.215 313.953 334.351 314.657 333.474 314.99L334.919 316.039C336.017 315.484 336.967 314.534 337.399 313.67C337.844 312.806 338.115 311.769 338.189 310.497H341.164C341.51 310.497 341.979 310.51 342.287 310.535V308.93C341.966 308.979 341.423 309.004 341.164 309.004H333.079C332.697 309.004 332.265 308.979 331.895 308.93ZM340.757 304.919L339.769 305.326C340.103 305.795 340.485 306.535 340.744 307.042L341.732 306.61C341.497 306.153 341.065 305.375 340.757 304.919ZM342.213 304.363L341.238 304.77C341.571 305.239 341.966 305.955 342.225 306.474L343.213 306.042C342.991 305.61 342.534 304.832 342.213 304.363ZM344.484 309.374V311.312C344.941 311.275 345.768 311.25 346.471 311.25H353.099C353.618 311.25 354.247 311.3 354.544 311.312V309.374C354.223 309.399 353.68 309.448 353.099 309.448H346.471C345.83 309.448 344.929 309.411 344.484 309.374ZM362.715 305.314L360.925 304.758C360.814 305.178 360.555 305.746 360.357 306.042C359.74 307.116 358.592 308.807 356.432 310.152L357.765 311.176C359.012 310.312 360.16 309.127 361.024 307.98H364.554C364.368 308.745 363.838 309.819 363.196 310.707C362.418 310.189 361.641 309.683 360.987 309.313L359.888 310.436C360.517 310.831 361.332 311.386 362.134 311.979C361.11 313.003 359.74 314.003 357.605 314.657L359.036 315.904C360.962 315.175 362.369 314.126 363.455 312.978C363.961 313.386 364.418 313.768 364.751 314.077L365.924 312.682C365.566 312.386 365.084 312.028 364.554 311.645C365.43 310.411 366.047 309.09 366.38 308.091C366.491 307.782 366.652 307.449 366.788 307.214L365.529 306.437C365.257 306.523 364.837 306.572 364.455 306.572H361.949C362.097 306.301 362.406 305.746 362.715 305.314ZM374.033 305.19L372.404 305.054C372.379 305.499 372.293 305.98 372.157 306.474C371.959 306.474 371.749 306.474 371.564 306.474C370.935 306.474 370.021 306.424 369.392 306.326V307.77C370.071 307.819 370.972 307.844 371.478 307.844C371.527 307.844 371.577 307.844 371.638 307.844C371.083 308.955 370.207 310.053 368.911 311.25L370.231 312.238C370.651 311.695 371.009 311.25 371.379 310.88C371.848 310.423 372.613 310.028 373.305 310.028C373.65 310.028 373.983 310.14 374.169 310.448C372.762 311.176 371.28 312.164 371.28 313.744C371.28 315.336 372.712 315.805 374.65 315.805C375.81 315.805 377.328 315.706 378.143 315.595L378.192 314.003C377.106 314.213 375.736 314.348 374.687 314.348C373.477 314.348 372.897 314.163 372.897 313.484C372.897 312.867 373.391 312.386 374.317 311.855C374.304 312.398 374.292 312.991 374.255 313.361H375.736C375.724 312.793 375.699 311.88 375.687 311.189C376.44 310.843 377.143 310.572 377.699 310.349C378.118 310.189 378.773 309.942 379.167 309.831L378.55 308.399C378.094 308.634 377.662 308.831 377.18 309.041C376.674 309.263 376.156 309.473 375.514 309.769C375.242 309.14 374.625 308.819 373.872 308.819C373.465 308.819 372.799 308.918 372.478 309.066C372.725 308.708 372.971 308.263 373.181 307.807C374.514 307.77 376.032 307.671 377.205 307.498L377.217 306.066C376.131 306.252 374.897 306.363 373.724 306.424C373.885 305.906 373.971 305.499 374.033 305.19ZM381.241 315.089V306.449H384.154C385.076 306.449 385.874 306.634 386.548 307.004C387.223 307.375 387.746 307.885 388.116 308.535C388.495 309.185 388.684 309.93 388.684 310.769C388.684 311.608 388.495 312.353 388.116 313.003C387.746 313.653 387.223 314.163 386.548 314.534C385.874 314.904 385.076 315.089 384.154 315.089H381.241ZM383.006 313.534H384.154C384.689 313.534 385.162 313.423 385.573 313.201C385.993 312.978 386.322 312.662 386.561 312.25C386.799 311.831 386.919 311.337 386.919 310.769C386.919 310.193 386.799 309.699 386.561 309.288C386.322 308.876 385.993 308.56 385.573 308.337C385.162 308.115 384.689 308.004 384.154 308.004H383.006V313.534ZM389.92 315.089V306.449H394.77C395.182 306.449 395.552 306.544 395.881 306.733C396.219 306.914 396.486 307.169 396.683 307.498C396.889 307.827 396.992 308.218 396.992 308.671C396.992 308.959 396.934 309.234 396.819 309.498C396.704 309.753 396.548 309.975 396.35 310.164C396.153 310.353 395.922 310.502 395.659 310.609C395.963 310.707 396.231 310.868 396.461 311.09C396.7 311.304 396.885 311.559 397.017 311.855C397.157 312.143 397.227 312.456 397.227 312.793C397.227 313.254 397.12 313.657 396.906 314.003C396.7 314.348 396.424 314.616 396.079 314.805C395.733 314.994 395.346 315.089 394.918 315.089H389.92ZM391.685 313.534H394.412C394.61 313.534 394.787 313.489 394.943 313.398C395.099 313.299 395.223 313.172 395.313 313.015C395.412 312.851 395.462 312.674 395.462 312.485C395.462 312.287 395.412 312.11 395.313 311.954C395.223 311.798 395.099 311.674 394.943 311.584C394.787 311.485 394.61 311.436 394.412 311.436H391.685V313.534ZM391.685 309.954H394.252C394.433 309.954 394.598 309.913 394.746 309.831C394.894 309.74 395.009 309.621 395.091 309.473C395.182 309.325 395.227 309.16 395.227 308.979C395.227 308.798 395.182 308.634 395.091 308.486C395.009 308.337 394.894 308.222 394.746 308.14C394.598 308.05 394.433 308.004 394.252 308.004H391.685V309.954ZM398.179 311.411L399.685 312.954C399.894 312.633 400.178 312.188 400.462 311.781C400.993 311.078 401.869 309.856 402.363 309.239C402.721 308.782 402.955 308.72 403.387 309.201C403.968 309.856 404.893 311.028 405.658 311.942C406.436 312.855 407.485 314.052 408.374 314.892L409.645 313.41C408.473 312.361 407.424 311.25 406.634 310.386C405.905 309.596 404.918 308.325 404.079 307.511C403.178 306.634 402.375 306.721 401.511 307.696C400.746 308.584 399.796 309.856 399.228 310.448C398.858 310.843 398.549 311.127 398.179 311.411ZM340.917 325.511H339.053C339.103 325.857 339.127 326.252 339.127 326.745V329.09C339.127 331.016 338.967 331.942 338.115 332.867C337.375 333.67 336.375 334.139 335.153 334.423L336.437 335.78C337.338 335.496 338.621 334.892 339.436 334.003C340.349 332.991 340.868 331.843 340.868 329.189V326.745C340.868 326.252 340.892 325.857 340.917 325.511ZM335.19 325.61H333.413C333.45 325.894 333.462 326.326 333.462 326.56V330.72C333.462 331.09 333.413 331.571 333.4 331.806H335.19C335.165 331.522 335.153 331.041 335.153 330.732V326.56C335.153 326.165 335.165 325.894 335.19 325.61ZM350.421 325.462L348.619 324.869C348.508 325.289 348.249 325.857 348.064 326.165C347.446 327.227 346.373 328.819 344.213 330.14L345.595 331.164C346.805 330.337 347.878 329.251 348.705 328.177H352.174C351.976 329.103 351.26 330.584 350.421 331.547C349.347 332.769 347.977 333.842 345.447 334.595L346.903 335.904C349.224 334.99 350.717 333.855 351.89 332.423C353.001 331.041 353.704 329.399 354.038 328.3C354.136 327.992 354.309 327.646 354.445 327.412L353.186 326.634C352.902 326.721 352.495 326.782 352.112 326.782H349.631C349.643 326.758 349.656 326.745 349.668 326.721C349.816 326.449 350.137 325.894 350.421 325.462ZM357.407 326.474V328.165C357.716 328.14 358.246 328.115 358.58 328.115H360.962V333.151H357.827C357.444 333.151 357 333.114 356.617 333.052V334.842C357.024 334.793 357.456 334.78 357.827 334.78H365.961C366.245 334.78 366.763 334.793 367.121 334.842V333.052C366.8 333.102 366.405 333.151 365.961 333.151H362.69V328.115H365.294C365.652 328.115 366.084 328.14 366.454 328.165V326.474C366.096 326.511 365.664 326.548 365.294 326.548H358.58C358.234 326.548 357.728 326.511 357.407 326.474ZM378.328 326.721L377.316 325.968C377.069 326.054 376.575 326.128 376.045 326.128H371.688C371.317 326.128 370.565 326.091 370.231 326.042V327.794C370.49 327.782 371.169 327.708 371.688 327.708H375.872C375.6 328.584 374.847 329.806 374.033 330.732C372.873 332.028 370.96 333.534 368.972 334.274L370.244 335.607C371.935 334.805 373.576 333.521 374.885 332.139C376.045 333.262 377.193 334.521 377.995 335.632L379.402 334.41C378.674 333.521 377.18 331.942 375.958 330.88C376.785 329.769 377.477 328.449 377.896 327.486C378.007 327.239 378.229 326.856 378.328 326.721ZM384.253 333.904C384.253 334.398 384.203 335.138 384.129 335.632H386.055C386.005 335.126 385.944 334.262 385.944 333.904V330.411C387.277 330.868 389.128 331.584 390.399 332.25L391.103 330.547C389.967 329.991 387.598 329.115 385.944 328.634V326.807C385.944 326.301 386.005 325.758 386.055 325.326H384.129C384.216 325.758 384.253 326.375 384.253 326.807V333.904Z" fill="#121212"/>
<rect x="283.259" y="277.166" width="163.705" height="67.8466" rx="2.27367" stroke="#121212" stroke-width="3.24811"/>
</g>
<rect width="42.875" height="67.197" transform="translate(9.44531 326.862)" fill="#121212"/>
<path d="M15.3571 374.46V369.549H24.6726C25.2703 369.549 25.816 369.406 26.3097 369.12C26.8034 368.835 27.1932 368.445 27.479 367.951C27.7648 367.457 27.9077 366.912 27.9077 366.314C27.9077 365.716 27.7648 365.171 27.479 364.677C27.1932 364.183 26.8034 363.793 26.3097 363.508C25.816 363.196 25.2703 363.04 24.6726 363.04H16.6823V358.129H24.9065C25.4782 358.129 25.9849 357.999 26.4266 357.739C26.8684 357.453 27.2191 357.089 27.479 356.648C27.7648 356.18 27.9077 355.673 27.9077 355.127C27.9077 354.556 27.7648 354.049 27.479 353.607C27.2191 353.14 26.8684 352.776 26.4266 352.516C25.9849 352.23 25.4782 352.087 24.9065 352.087H15.3571V347.176H25.5301C27.0113 347.176 28.3495 347.54 29.5448 348.267C30.7401 348.969 31.6885 349.918 32.3901 351.113C33.1177 352.308 33.4815 353.646 33.4815 355.127C33.4815 356.193 33.2476 357.206 32.7799 358.168C32.3122 359.129 31.6756 359.974 30.87 360.701C31.4157 361.169 31.8834 361.702 32.2732 362.299C32.663 362.897 32.9618 363.534 33.1697 364.209C33.3776 364.885 33.4815 365.586 33.4815 366.314C33.4815 367.821 33.1177 369.198 32.3901 370.446C31.6626 371.667 30.6751 372.641 29.4279 373.369C28.2066 374.096 26.8424 374.46 25.3352 374.46H15.3571ZM40.8214 374.928C39.834 374.928 38.9765 374.577 38.2489 373.876C37.5473 373.148 37.1965 372.29 37.1965 371.303C37.1965 370.316 37.5473 369.471 38.2489 368.77C38.9765 368.042 39.834 367.678 40.8214 367.678C41.8088 367.678 42.6533 368.042 43.3549 368.77C44.0825 369.471 44.4463 370.316 44.4463 371.303C44.4463 371.953 44.2774 372.563 43.9396 373.135C43.6278 373.681 43.199 374.122 42.6533 374.46C42.1077 374.772 41.497 374.928 40.8214 374.928Z" fill="#EDEDED"/>
<path d="M66.0996 339.005V338.597H67.013C67.6671 338.597 68.0991 338.61 68.3707 338.634V336.993C68.0374 337.055 67.6671 337.079 67.013 337.079H66.0996V335.783C66.0996 335.29 66.149 334.882 66.186 334.635H64.421C64.458 334.882 64.495 335.29 64.495 335.783V337.079H61.5698V335.857C61.5698 335.376 61.6068 334.981 61.6439 334.746H59.8912C59.9282 335.117 59.9652 335.499 59.9652 335.857V337.079H58.9161C58.299 337.079 57.7929 337.005 57.5831 336.968V338.647C57.8546 338.622 58.299 338.597 58.9161 338.597H59.9652V340.276C59.9652 340.831 59.9282 341.325 59.8912 341.572H61.6192C61.6068 341.325 61.5698 340.819 61.5698 340.276V338.597H64.495V339.066C64.495 342.103 63.4459 343.164 61.0637 343.991L62.3844 345.238C65.359 343.929 66.0996 342.066 66.0996 339.005ZM70.3455 338.746V340.683C70.8022 340.646 71.6292 340.622 72.3327 340.622H78.9608C79.4792 340.622 80.1087 340.671 80.4049 340.683V338.746C80.084 338.77 79.5409 338.82 78.9608 338.82H72.3327C71.6909 338.82 70.7899 338.783 70.3455 338.746ZM91.0596 334.611L90.0846 335.018C90.4178 335.487 90.7881 336.228 91.0473 336.734L92.0347 336.302C91.8002 335.845 91.3682 335.067 91.0596 334.611ZM92.5161 334.055L91.541 334.463C91.8743 334.919 92.2816 335.647 92.5284 336.154L93.5159 335.734C93.2937 335.302 92.837 334.524 92.5161 334.055ZM83.8021 340.622C83.3824 341.708 82.6542 343.041 81.8766 344.053L83.6046 344.781C84.2588 343.855 84.987 342.448 85.4313 341.251C85.8633 340.103 86.3077 338.4 86.4805 337.536C86.5298 337.264 86.6656 336.66 86.7767 336.302L84.9746 335.931C84.8265 337.499 84.3575 339.239 83.8021 340.622ZM89.8994 340.362C90.3931 341.695 90.8375 343.251 91.1831 344.719L93.0098 344.127C92.6642 342.905 92.01 340.93 91.578 339.819C91.109 338.622 90.2574 336.721 89.7513 335.771L88.1097 336.302C88.6281 337.24 89.4304 339.066 89.8994 340.362ZM99.4774 334.709L97.6384 334.524C97.6507 335.302 97.552 336.203 97.3792 337.141C96.7497 337.19 96.1696 337.227 95.7869 337.24C95.3303 337.252 94.9106 337.277 94.4663 337.24L94.6144 338.918C94.9847 338.857 95.6388 338.77 95.9844 338.708C96.2189 338.684 96.6016 338.634 97.0459 338.585C96.6016 340.276 95.7499 342.769 94.5527 344.386L96.1572 345.028C97.2928 343.214 98.2061 340.288 98.6752 338.412C99.0207 338.388 99.3293 338.363 99.5268 338.363C100.304 338.363 100.724 338.499 100.724 339.486C100.724 340.708 100.564 342.201 100.23 342.905C100.033 343.312 99.7119 343.436 99.3046 343.436C98.9714 343.436 98.2678 343.312 97.7865 343.177L98.058 344.806C98.4777 344.892 99.0578 344.979 99.5391 344.979C100.465 344.979 101.156 344.707 101.563 343.843C102.094 342.769 102.267 340.77 102.267 339.313C102.267 337.536 101.341 336.956 100.033 336.956C99.7737 336.956 99.4034 336.98 98.9961 337.005C99.0825 336.561 99.1689 336.104 99.2553 335.734C99.317 335.425 99.4034 335.03 99.4774 334.709ZM103.723 335.87L102.255 336.499C103.131 337.585 104.007 339.819 104.328 341.189L105.896 340.461C105.525 339.289 104.489 336.931 103.723 335.87ZM110.24 334.524L109.845 336.005C110.808 336.252 113.561 336.832 114.807 336.993L115.177 335.487C114.104 335.364 111.413 334.895 110.24 334.524ZM110.314 337.005L108.66 336.771C108.574 338.301 108.29 340.72 108.043 341.93L109.463 342.288C109.574 342.041 109.697 341.844 109.919 341.572C110.697 340.634 111.956 340.116 113.351 340.116C114.425 340.116 115.19 340.708 115.19 341.51C115.19 343.078 113.227 343.979 109.524 343.473L109.993 345.09C115.128 345.522 116.905 343.794 116.905 341.547C116.905 340.054 115.647 338.721 113.487 338.721C112.191 338.721 110.969 339.079 109.845 339.893C109.932 339.19 110.154 337.684 110.314 337.005ZM66.7785 354.882H64.9147C64.9641 355.228 64.9888 355.623 64.9888 356.116V358.462C64.9888 360.387 64.8283 361.313 63.9766 362.239C63.2361 363.041 62.2363 363.51 61.0144 363.794L62.298 365.151C63.199 364.868 64.4827 364.263 65.2973 363.374C66.2107 362.362 66.7291 361.214 66.7291 358.56V356.116C66.7291 355.623 66.7538 355.228 66.7785 354.882ZM61.0514 354.981H59.274C59.3111 355.265 59.3234 355.697 59.3234 355.931V360.091C59.3234 360.461 59.274 360.943 59.2617 361.177H61.0514C61.0267 360.893 61.0144 360.412 61.0144 360.103V355.931C61.0144 355.536 61.0267 355.265 61.0514 354.981ZM76.2824 354.833L74.4804 354.24C74.3693 354.66 74.1101 355.228 73.9249 355.536C73.3078 356.598 72.234 358.19 70.074 359.511L71.4564 360.535C72.666 359.708 73.7398 358.622 74.5668 357.548H78.0351C77.8376 358.474 77.1217 359.955 76.2824 360.918C75.2086 362.14 73.8385 363.214 71.3083 363.967L72.7647 365.275C75.0852 364.361 76.5786 363.226 77.7512 361.794C78.8621 360.412 79.5656 358.77 79.8989 357.672C79.9976 357.363 80.1704 357.018 80.3062 356.783L79.0472 356.005C78.7633 356.092 78.356 356.154 77.9734 356.154H75.4925C75.5048 356.129 75.5172 356.116 75.5295 356.092C75.6776 355.82 75.9985 355.265 76.2824 354.833ZM83.2684 355.845V357.536C83.577 357.511 84.1078 357.487 84.441 357.487H86.8232V362.522H83.6881C83.3055 362.522 82.8611 362.485 82.4785 362.424V364.213C82.8858 364.164 83.3178 364.152 83.6881 364.152H91.822C92.1059 364.152 92.6243 364.164 92.9822 364.213V362.424C92.6613 362.473 92.2663 362.522 91.822 362.522H88.5512V357.487H91.1555C91.5134 357.487 91.9454 357.511 92.3157 357.536V355.845C91.9578 355.882 91.5258 355.919 91.1555 355.919H84.441C84.0954 355.919 83.5894 355.882 83.2684 355.845ZM104.189 356.092L103.177 355.339C102.931 355.425 102.437 355.499 101.906 355.499H97.5491C97.1788 355.499 96.4259 355.462 96.0926 355.413V357.166C96.3518 357.153 97.0307 357.079 97.5491 357.079H101.733C101.462 357.956 100.709 359.178 99.8942 360.103C98.734 361.399 96.8208 362.905 94.8336 363.646L96.105 364.979C97.7959 364.176 99.4375 362.893 100.746 361.51C101.906 362.633 103.054 363.892 103.856 365.003L105.263 363.781C104.535 362.893 103.042 361.313 101.82 360.251C102.647 359.14 103.338 357.82 103.757 356.857C103.869 356.61 104.091 356.228 104.189 356.092ZM110.114 363.275C110.114 363.769 110.065 364.51 109.991 365.003H111.916C111.867 364.497 111.805 363.633 111.805 363.275V359.782C113.138 360.239 114.989 360.955 116.261 361.621L116.964 359.918C115.829 359.363 113.459 358.486 111.805 358.005V356.178C111.805 355.672 111.867 355.129 111.916 354.697H109.991C110.077 355.129 110.114 355.746 110.114 356.178V363.275ZM130.023 360.116C130.023 357.425 128.098 355.302 125.036 355.302C121.84 355.302 119.371 357.733 119.371 360.585C119.371 362.671 120.507 364.176 121.877 364.176C123.222 364.176 124.284 362.646 125.024 360.153C125.382 358.992 125.592 357.857 125.765 356.808C127.431 357.092 128.357 358.363 128.357 360.066C128.357 361.868 127.122 363.004 125.543 363.374C125.209 363.448 124.864 363.522 124.395 363.572L125.32 365.04C128.431 364.559 130.023 362.72 130.023 360.116ZM120.951 360.424C120.951 359.066 122.05 357.264 124.086 356.845C123.95 357.869 123.716 358.918 123.432 359.832C122.926 361.498 122.444 362.276 121.926 362.276C121.445 362.276 120.951 361.671 120.951 360.424ZM137.046 354.524L135.441 354.487C135.454 354.697 135.429 354.993 135.417 355.228C135.392 355.438 135.367 355.66 135.343 355.894C135.182 355.894 135.022 355.894 134.849 355.894C134.096 355.894 133.01 355.796 132.578 355.722L132.615 357.153C133.195 357.178 134.158 357.227 134.8 357.227C134.935 357.227 135.059 357.227 135.195 357.227C135.145 357.733 135.108 358.252 135.084 358.783C133.356 359.597 132.047 361.251 132.047 362.843C132.047 364.09 132.812 364.633 133.713 364.633C134.368 364.633 135.022 364.436 135.627 364.139C135.676 364.312 135.738 364.485 135.787 364.645L137.206 364.213C137.108 363.917 137.009 363.609 136.923 363.3C137.861 362.522 138.848 361.226 139.515 359.548C140.366 359.881 140.798 360.535 140.798 361.276C140.798 362.485 139.835 363.695 137.453 363.954L138.268 365.25C141.304 364.793 142.329 363.103 142.329 361.35C142.329 359.918 141.378 358.795 139.947 358.326C140.021 358.091 140.119 357.832 140.169 357.696L138.663 357.338C138.651 357.524 138.601 357.832 138.552 358.079C138.478 358.079 138.404 358.079 138.33 358.079C137.725 358.079 137.083 358.165 136.491 358.301C136.503 357.931 136.54 357.548 136.577 357.178C138.095 357.116 139.749 356.968 140.959 356.746L140.946 355.314C139.589 355.635 138.256 355.796 136.75 355.857C136.787 355.61 136.836 355.388 136.873 355.178C136.923 354.993 136.972 354.771 137.046 354.524ZM133.504 362.522C133.504 361.819 134.121 360.881 135.046 360.251C135.071 361.103 135.17 361.955 135.306 362.72C134.861 362.979 134.417 363.127 134.071 363.127C133.676 363.127 133.504 362.917 133.504 362.522ZM136.441 359.647V359.609C136.923 359.461 137.49 359.35 138.145 359.338C137.725 360.338 137.169 361.091 136.589 361.695C136.491 361.078 136.441 360.399 136.441 359.647ZM145.032 359.239L145.674 360.844C146.723 360.399 149.191 359.375 150.623 359.375C151.697 359.375 152.388 360.017 152.388 360.943C152.388 362.621 150.315 363.374 147.488 363.448L148.142 364.966C152.067 364.719 154.03 363.201 154.03 360.967C154.03 359.103 152.721 357.943 150.771 357.943C149.278 357.943 147.179 358.647 146.34 358.906C145.97 359.017 145.402 359.165 145.032 359.239ZM162.855 361.449L161.386 361.3C161.287 361.794 161.164 362.387 161.164 362.954C161.164 364.201 162.287 364.917 164.361 364.917C165.348 364.917 166.187 364.831 166.879 364.744L166.94 363.164C166.052 363.325 165.2 363.423 164.373 363.423C163.052 363.423 162.682 363.016 162.682 362.473C162.682 362.201 162.756 361.794 162.855 361.449ZM161.46 354.611L159.572 354.463C159.609 354.746 159.584 355.252 159.535 355.709C159.51 355.907 159.473 356.141 159.424 356.413C159.041 356.437 158.671 356.45 158.313 356.45C157.807 356.45 157.387 356.425 156.757 356.351L156.795 357.894C157.227 357.919 157.696 357.943 158.288 357.943C158.547 357.943 158.819 357.931 159.103 357.919C159.029 358.276 158.93 358.622 158.843 358.955C158.387 360.683 157.449 363.275 156.708 364.51L158.424 365.09C159.115 363.621 159.942 361.103 160.386 359.375C160.522 358.869 160.645 358.326 160.757 357.795C161.584 357.696 162.423 357.561 163.163 357.388V355.845C162.485 356.005 161.793 356.141 161.102 356.24C161.139 356.067 161.176 355.907 161.201 355.771C161.25 355.499 161.361 354.944 161.46 354.611ZM162.188 358.338V359.782C162.966 359.696 163.731 359.659 164.57 359.659C165.323 359.659 166.076 359.733 166.693 359.807L166.73 358.326C166.002 358.252 165.262 358.215 164.558 358.215C163.768 358.215 162.88 358.276 162.188 358.338ZM59.1876 375.141V376.734C59.5579 376.709 60.0887 376.697 60.5083 376.697H64.5444C64.9764 376.697 65.4578 376.709 65.8774 376.734V375.141C65.4578 375.203 64.9641 375.24 64.5444 375.24H60.5083C60.0887 375.24 59.5826 375.203 59.1876 375.141ZM57.7559 378.301V379.918C58.1015 379.893 58.5828 379.869 58.9408 379.869H62.335C62.2857 380.905 62.0759 381.831 61.5698 382.596C61.0761 383.325 60.2121 384.028 59.3357 384.361L60.7799 385.411C61.8784 384.855 62.8288 383.905 63.2608 383.041C63.7051 382.177 63.9766 381.14 64.0507 379.869H67.0253C67.3709 379.869 67.8399 379.881 68.1485 379.906V378.301C67.8276 378.351 67.2845 378.375 67.0253 378.375H58.9408C58.5582 378.375 58.1262 378.351 57.7559 378.301ZM66.618 374.29L65.6306 374.697C65.9638 375.166 66.3465 375.907 66.6057 376.413L67.5931 375.981C67.3586 375.524 66.9266 374.746 66.618 374.29ZM68.0745 373.734L67.0994 374.142C67.4326 374.611 67.8276 375.327 68.0868 375.845L69.0742 375.413C68.852 374.981 68.3954 374.203 68.0745 373.734ZM70.3455 378.746V380.683C70.8022 380.646 71.6292 380.622 72.3327 380.622H78.9608C79.4792 380.622 80.1087 380.671 80.4049 380.683V378.746C80.084 378.77 79.5409 378.82 78.9608 378.82H72.3327C71.6909 378.82 70.7899 378.783 70.3455 378.746ZM88.5758 374.685L86.7861 374.129C86.6751 374.549 86.4159 375.117 86.2184 375.413C85.6012 376.487 84.4534 378.178 82.2934 379.523L83.6264 380.548C84.873 379.684 86.0209 378.499 86.8849 377.351H90.4149C90.2298 378.116 89.699 379.19 89.0572 380.079C88.2796 379.56 87.502 379.054 86.8479 378.684L85.7493 379.807C86.3788 380.202 87.1935 380.757 87.9957 381.35C86.9713 382.374 85.6012 383.374 83.4659 384.028L84.8977 385.275C86.8232 384.547 88.2302 383.497 89.3164 382.35C89.8225 382.757 90.2792 383.14 90.6124 383.448L91.785 382.053C91.427 381.757 90.9457 381.399 90.4149 381.017C91.2913 379.782 91.9084 378.462 92.2417 377.462C92.3527 377.153 92.5132 376.82 92.649 376.586L91.39 375.808C91.1185 375.894 90.6988 375.944 90.3162 375.944H87.8106C87.9587 375.672 88.2673 375.117 88.5758 374.685ZM99.8942 374.561L98.2649 374.426C98.2403 374.87 98.1539 375.351 98.0181 375.845C97.8206 375.845 97.6108 375.845 97.4256 375.845C96.7962 375.845 95.8828 375.796 95.2533 375.697V377.141C95.9322 377.19 96.8332 377.215 97.3392 377.215C97.3886 377.215 97.438 377.215 97.4997 377.215C96.9443 378.326 96.0679 379.424 94.7719 380.622L96.0926 381.609C96.5123 381.066 96.8702 380.622 97.2405 380.251C97.7095 379.795 98.4748 379.4 99.166 379.4C99.5116 379.4 99.8448 379.511 100.03 379.819C98.6229 380.548 97.1417 381.535 97.1417 383.115C97.1417 384.707 98.5735 385.176 100.511 385.176C101.672 385.176 103.19 385.077 104.004 384.966L104.054 383.374C102.968 383.584 101.598 383.72 100.548 383.72C99.3388 383.72 98.7587 383.535 98.7587 382.856C98.7587 382.239 99.2524 381.757 100.178 381.226C100.166 381.769 100.153 382.362 100.116 382.732H101.598C101.585 382.164 101.56 381.251 101.548 380.56C102.301 380.214 103.005 379.943 103.56 379.721C103.98 379.56 104.634 379.313 105.029 379.202L104.412 377.77C103.955 378.005 103.523 378.202 103.042 378.412C102.536 378.634 102.017 378.844 101.375 379.14C101.104 378.511 100.487 378.19 99.7337 378.19C99.3264 378.19 98.6599 378.289 98.339 378.437C98.5859 378.079 98.8327 377.635 99.0425 377.178C100.376 377.141 101.894 377.042 103.066 376.869L103.079 375.438C101.992 375.623 100.758 375.734 99.5856 375.796C99.7461 375.277 99.8325 374.87 99.8942 374.561ZM115.644 378.314C115.397 378.98 115.076 379.585 114.669 380.116C114.237 379.585 113.891 378.98 113.632 378.314H115.644ZM116.495 376.968L116.224 377.005H112.323V375.857H117.705V374.487H110.916V377.351C110.916 378.906 110.805 381.054 109.645 382.522C109.991 382.658 110.62 383.065 110.879 383.312C111.879 382.004 112.2 380.103 112.299 378.499C112.644 379.511 113.101 380.387 113.681 381.14C113.064 381.658 112.336 382.066 111.546 382.325C111.83 382.609 112.2 383.189 112.373 383.559C113.237 383.214 114.014 382.769 114.693 382.201C115.409 382.806 116.248 383.275 117.261 383.596C117.458 383.201 117.878 382.609 118.199 382.325C117.223 382.066 116.409 381.671 115.718 381.14C116.508 380.14 117.1 378.857 117.433 377.264L116.495 376.968ZM109.929 376.178C109.522 375.598 108.633 374.82 107.917 374.29L106.819 375.166C107.534 375.722 108.398 376.561 108.756 377.141L109.929 376.178ZM109.608 378.795H106.819V380.14H108.176V382.745C107.645 383.164 107.041 383.584 106.547 383.88L107.263 385.411C107.917 384.892 108.448 384.411 108.978 383.929C109.781 384.892 110.805 385.238 112.336 385.3C113.817 385.361 116.298 385.337 117.791 385.263C117.853 384.843 118.075 384.127 118.248 383.781C116.606 383.905 113.805 383.942 112.36 383.88C111.064 383.831 110.126 383.497 109.608 382.671V378.795ZM122.593 381.226C122.815 381.634 123.037 382.078 123.247 382.535L121.26 382.745C121.605 381.918 121.975 380.918 122.309 380.004H125.16V378.647H122.839V377.079H124.777V375.746H122.839V374.006H121.408V375.746H119.383V377.079H121.408V378.647H118.989V380.004H120.667C120.457 380.955 120.124 382.053 119.803 382.893L118.989 382.967L119.198 384.386L123.79 383.794C123.926 384.152 124.037 384.473 124.098 384.756L125.382 384.213C125.135 383.263 124.419 381.831 123.778 380.745L122.593 381.226ZM130.023 374.746H125.53V385.534H126.962V376.116H128.591V381.93C128.591 382.078 128.542 382.127 128.394 382.127C128.246 382.14 127.789 382.14 127.345 382.115C127.542 382.522 127.764 383.201 127.814 383.633C128.554 383.633 129.085 383.584 129.492 383.337C129.912 383.078 130.023 382.621 130.023 381.967V374.746Z" fill="#121212"/>
<rect x="9.12015" y="326.537" width="163.705" height="67.8466" rx="2.27367" stroke="#121212" stroke-width="3.24811"/>
<path d="M189.715 366.27L195.341 360.644L189.715 355.018L184.089 360.644L189.715 366.27ZM190.404 307.985C190.023 307.605 189.406 307.605 189.026 307.985L182.825 314.186C182.444 314.567 182.444 315.184 182.825 315.564C183.205 315.945 183.822 315.945 184.203 315.564L189.715 310.052L195.227 315.564C195.608 315.945 196.225 315.945 196.605 315.564C196.986 315.184 196.986 314.567 196.605 314.186L190.404 307.985ZM190.689 360.644V308.674H188.74V360.644H190.689Z" fill="#121212"/>
</g>
<defs>
<clipPath id="clip0_711_15915">
<rect width="454.735" height="489.814" fill="white" transform="translate(1 4)"/>
</clipPath>
<clipPath id="clip1_711_15915">
<rect width="202.032" height="109.136" fill="white" transform="translate(259.549 270.345)"/>
</clipPath>
</defs>
</svg>
