<svg width="1280" height="630" viewBox="0 0 1280 630" fill="none" xmlns="http://www.w3.org/2000/svg">
<rect width="1280" height="630" fill="#121212"/>
<path d="M179.743 174.4V165.1C179.743 163.6 178.743 162.6 177.243 162.6H145.943C144.343 162.6 143.343 161.5 143.443 159.9C143.943 153.3 144.043 146.8 144.143 140.5C144.143 139 143.143 138 141.643 138H131.443C129.943 138 128.943 139 128.943 140.5C128.843 146.9 128.843 153.5 128.443 160.3C128.443 161.7 127.443 162.6 126.043 162.6H97.043C95.543 162.6 94.543 163.6 94.543 165.1V174.4C94.543 175.9 95.543 176.9 97.043 176.9H122.843C124.743 176.9 125.743 178.1 125.243 180C121.343 193.3 113.243 205.5 96.543 214.2C94.243 215.4 94.043 217.1 95.943 218.8C98.143 221 100.343 223.5 101.843 225.8C102.643 227 103.943 227.4 105.243 226.7C120.243 218.8 129.343 208.2 134.943 196.4C136.543 193.1 138.343 193 139.943 196.3C146.843 209.7 156.143 220 169.743 226.8C171.043 227.4 172.243 227 173.043 225.8C174.743 223.2 177.043 220.1 179.243 217.6C180.843 215.8 180.543 214.1 178.343 213.1C164.143 206.5 154.543 194.6 148.743 180.2C147.943 178.2 148.843 176.9 150.943 176.9H177.243C178.743 176.9 179.743 175.9 179.743 174.4Z" fill="#F7F7F7"/>
<path d="M216.443 196.2C215.143 196.2 215.043 195.7 215.043 191.6V177.2C215.043 175.9 215.843 174.9 217.043 174.7L231.643 172C233.043 171.8 233.843 170.6 233.643 169.2L232.243 161.6C232.043 160.1 230.843 159.3 229.343 159.5L217.943 161.6C216.243 161.9 215.043 160.9 215.043 159.1V143.4C215.043 141.9 214.043 140.9 212.543 140.9H203.843C202.343 140.9 201.343 141.9 201.343 143.4V162.5C201.343 163.8 200.543 164.7 199.243 165L193.543 166C192.043 166.2 191.243 167.4 191.443 168.9L192.843 176.7C193.043 178.2 194.243 179 195.743 178.7L198.343 178.2C200.143 177.9 201.343 178.9 201.343 180.7V191.6C201.343 205.1 203.843 209.3 213.743 209.3H220.543C228.143 209.3 231.543 204.9 233.043 192.2C233.143 190.9 232.343 189.8 231.143 189.4C229.243 188.9 227.243 188 225.343 187.1C222.643 185.7 221.043 186.5 220.843 189.6C220.643 194.9 220.243 196.2 219.043 196.2H216.443ZM227.443 146.8V154.9C227.443 156.4 228.443 157.4 229.943 157.4H237.843C239.343 157.4 240.343 158.4 240.343 159.9C239.843 183.9 238.443 203.1 221.743 215.6C219.943 216.9 219.843 218.5 221.443 220.1C223.443 222 225.443 224.4 226.943 226.6C227.843 227.9 229.243 228.3 230.543 227.3C250.843 212.2 253.443 188.3 254.143 159.8C254.243 158.4 255.243 157.4 256.643 157.4H263.543C265.043 157.4 266.043 158.4 265.943 160C265.343 194.2 264.343 208.6 261.943 211.6C260.843 213.1 259.943 213.6 258.243 213.6C256.743 213.6 254.643 213.6 252.043 213.5C249.143 213.4 248.243 214.8 249.243 217.5C250.143 220.1 250.943 222.8 251.243 225.2C251.543 226.6 252.443 227.5 253.843 227.5C258.243 227.6 262.443 227.6 265.543 226.9C269.443 225.9 272.143 224.6 274.943 220.2C278.543 214.8 279.443 198 280.343 151.3V151.1C280.443 150.2 280.443 148.4 280.443 146.8C280.543 145.3 279.543 144.3 278.043 144.3H229.943C228.443 144.3 227.443 145.3 227.443 146.8Z" fill="#F7F7F7"/>
<path d="M340.743 152.5C339.343 152.8 337.843 153.2 336.343 153.5C333.943 154 332.843 152.8 333.443 150.4C333.843 148.7 334.243 147.2 334.543 145.8C334.943 144.1 334.143 142.9 332.343 142.7L322.243 141.8C320.643 141.6 319.643 142.6 319.443 144.1C319.243 147.5 318.643 151.1 317.843 154.5C317.643 155.5 316.743 156.3 315.743 156.3C313.843 156.4 312.043 156.5 310.143 156.5C307.743 156.5 303.843 156.3 300.243 155.8C298.343 155.6 297.143 156.7 297.343 158.6L297.943 166.8C298.043 168.1 298.943 169 300.243 169.1C303.743 169.3 306.943 169.3 310.243 169.3H311.843C312.743 169.3 313.143 169.8 312.743 170.6C308.943 179.2 303.043 189.9 296.743 198.5C295.643 199.9 295.943 201.5 297.643 202.3L306.743 206.8C307.843 207.4 309.143 207.1 309.843 206C316.743 195.6 323.643 181.4 327.843 169.3C328.143 168.5 328.943 167.8 329.843 167.7C334.543 166.9 338.943 166 342.343 165.2C343.443 164.9 344.243 163.9 344.143 162.7L343.943 154.8C343.843 152.9 342.643 152 340.743 152.5ZM378.143 164.9C372.943 161.6 364.143 156.9 358.143 154.2C357.043 153.6 355.743 154 355.143 155.1L350.543 162.1C349.543 163.6 350.043 165.1 351.643 165.8C357.343 168.6 364.843 173 369.943 176.6C371.343 177.5 372.743 177.3 373.643 176L378.743 168.2C379.643 167 379.343 165.6 378.143 164.9ZM343.243 174.4C343.543 178.6 343.743 183.8 344.043 188.6C344.043 190.1 343.143 191 341.743 190.9C340.943 190.8 340.043 190.8 339.243 190.8C324.743 190.8 317.243 198.9 317.243 208.3C317.243 219.2 326.943 225 339.443 225C350.843 225 356.243 220.4 357.943 213.7C358.643 211.1 360.043 210.3 362.243 212C364.243 213.7 366.043 215.3 367.743 216.8C369.043 218 370.543 217.8 371.543 216.2L376.343 208.3C377.043 207.3 376.843 206 375.943 205.2C371.643 201.5 366.143 197.7 359.443 194.9C358.543 194.5 357.943 193.6 357.843 192.7C357.643 189.6 357.543 186.8 357.443 185C357.343 181.3 357.243 177.8 357.343 174.5C357.343 172.9 356.343 171.8 354.743 171.8H345.743C344.243 171.8 343.243 172.9 343.243 174.4ZM344.643 204.6C344.343 209.2 342.543 212 337.343 212C333.343 212 330.743 209.9 330.743 206.8C330.743 204.2 333.643 202.3 338.243 202.3C340.043 202.3 341.743 202.6 343.443 203C344.143 203.1 344.643 203.9 344.643 204.6Z" fill="#F7F7F7"/>
<path d="M479.143 191.6H474.143C472.643 191.6 471.643 190.6 471.643 189.1V182.5C471.643 181 470.643 180 469.143 180H445.243C444.343 180 443.743 179.4 443.743 178.5C443.743 177.7 444.343 177.1 445.243 177.1H467.443C468.943 177.1 469.943 176.1 469.943 174.6V159.5C469.943 158 468.943 157 467.443 157H445.243C444.343 157 443.743 156.4 443.743 155.5C443.743 154.7 444.343 154.1 445.243 154.1H476.743C478.243 154.1 479.243 153.1 479.243 151.6V145.9C479.243 144.4 478.243 143.4 476.743 143.4H446.243C444.743 143.4 443.743 142.2 443.743 140.7C443.743 139.2 442.743 138 441.243 138H432.143C430.643 138 429.643 139.2 429.643 140.7C429.643 142.2 428.643 143.4 427.143 143.4H397.443C395.943 143.4 394.943 144.4 394.943 145.9V151.6C394.943 153.1 395.943 154.1 397.443 154.1H428.243C429.043 154.1 429.643 154.7 429.643 155.5C429.643 156.4 429.043 157 428.243 157H407.043C405.543 157 404.543 158 404.543 159.5V174.6C404.543 176.1 405.543 177.1 407.043 177.1H428.243C429.043 177.1 429.643 177.7 429.643 178.5C429.643 179.4 429.043 180 428.243 180H404.943C403.443 180 402.443 181 402.443 182.5V186.6C402.443 188.1 403.443 189.1 404.943 189.1H428.443C429.143 189.1 429.643 189.6 429.643 190.3C429.643 191.1 429.143 191.6 428.443 191.6H395.043C393.543 191.6 392.543 192.6 392.543 194.1V199.5C392.543 201 393.543 202 395.043 202H428.243C429.043 202 429.643 202.6 429.643 203.4C429.643 204.3 429.043 204.9 428.243 204.9H404.343C402.843 204.9 401.843 205.9 401.843 207.4V212.1C401.843 213.6 402.843 214.6 404.343 214.6H429.043C429.443 214.6 429.643 214.8 429.643 215.2V215.8C429.643 217.4 429.043 218 427.243 218.1H421.043C418.143 218 417.243 219.5 418.443 222.1C419.143 223.6 419.743 225.2 420.243 226.6C420.543 227.7 421.543 228.5 422.743 228.5C429.743 228.5 434.443 228.2 438.143 226.6C442.243 224.7 443.743 222.1 443.743 215.8V215.2C443.743 214.8 443.943 214.6 444.343 214.6H455.643C456.743 214.6 457.543 215.4 457.543 216.5C457.543 217.7 458.343 218.5 459.543 218.5H469.143C470.643 218.5 471.643 217.5 471.643 216V204.5C471.643 203 472.643 202 474.143 202H479.143C480.643 202 481.643 201 481.643 199.5V194.1C481.643 192.6 480.643 191.6 479.143 191.6ZM417.743 167.2V166.9C417.743 166 418.343 165.4 419.243 165.4H428.143C429.043 165.4 429.643 166 429.643 166.9V167.2C429.643 168.1 429.043 168.7 428.143 168.7H419.243C418.343 168.7 417.743 168.1 417.743 167.2ZM455.743 166.9V167.2C455.743 168.1 455.143 168.7 454.243 168.7H445.243C444.343 168.7 443.743 168.1 443.743 167.2V166.9C443.743 166 444.343 165.4 445.243 165.4H454.243C455.143 165.4 455.743 166 455.743 166.9ZM445.043 189.1H456.343C457.043 189.1 457.543 189.6 457.543 190.3C457.543 191.1 457.043 191.6 456.343 191.6H445.043C444.243 191.6 443.743 191.1 443.743 190.3C443.743 189.6 444.243 189.1 445.043 189.1ZM456.143 204.9H445.243C444.343 204.9 443.743 204.3 443.743 203.4C443.743 202.6 444.343 202 445.243 202H456.143C456.943 202 457.543 202.6 457.543 203.4C457.543 204.3 456.943 204.9 456.143 204.9Z" fill="#F7F7F7"/>
<path d="M580.243 204.7C576.543 201.3 571.643 197.5 565.143 194.5C564.343 194.1 563.743 193.3 563.643 192.3C563.343 187.7 563.043 182.2 562.843 175.5C562.743 174 563.643 173 565.143 172.9C568.343 172.6 571.443 172.3 574.443 171.9C575.643 171.7 576.543 170.7 576.543 169.4V160.5C576.543 158.6 575.343 157.7 573.543 158C570.943 158.5 568.343 158.9 565.643 159.2C563.943 159.4 562.843 158.4 562.943 156.7C563.043 154.1 563.043 152 563.143 150.7C563.243 149.6 563.243 148.4 563.343 147.3C563.543 145.6 562.543 144.4 560.743 144.4H550.443C548.743 144.4 547.743 145.5 547.943 147.3C548.143 148.7 548.243 150.1 548.243 150.9C548.343 152.3 548.343 154.8 548.443 158.1C548.443 159.5 547.443 160.6 546.043 160.6H543.143C538.443 160.6 533.743 160.4 529.143 160C527.443 159.8 526.343 160.8 526.343 162.5L526.443 171C526.443 172.4 527.343 173.4 528.743 173.5C533.543 173.8 538.443 173.9 543.243 173.9H545.943C547.543 173.9 548.543 174.8 548.643 176.4C548.743 180.5 548.943 184.4 549.143 188C549.143 189.4 548.243 190.3 546.943 190.3H546.743C545.943 190.2 545.243 190.2 544.443 190.2C531.343 190.2 522.743 197 522.743 207.5C522.743 218.2 531.443 223.9 544.643 223.9C555.043 223.9 560.743 220 563.043 213.5C563.943 211.2 565.443 210.5 567.343 212.1C568.843 213.3 570.343 214.6 571.943 216C573.243 217.3 574.743 217.1 575.743 215.5L580.643 207.8C581.343 206.8 581.143 205.5 580.243 204.7ZM502.343 147C502.143 149.8 501.743 152.8 501.443 155C500.343 161.9 497.743 179.6 497.743 194C497.743 205.6 499.343 215.7 501.043 222.2C501.443 223.4 502.443 224.1 503.543 224L512.343 223.4C513.543 223.4 514.343 222.4 514.343 221.2V219C514.343 218.1 514.643 215.9 514.943 214.5C515.943 209.5 518.543 200.8 521.243 192.9C521.543 191.9 521.243 190.8 520.343 190.1L517.343 187.7C515.843 186.5 514.243 186.8 513.443 188.5C512.843 189.6 512.343 190.7 511.743 191.9V192.1C511.543 192.6 511.243 192.6 511.243 191.9V190.8C511.243 182.1 514.443 160.1 515.543 155.3C515.843 154.2 516.443 151.4 517.143 149C517.643 147 516.743 145.6 514.743 145.4L505.043 144.5C503.543 144.4 502.443 145.4 502.343 147ZM549.643 202.8C549.643 207.9 547.843 210.4 543.343 210.4C539.343 210.4 536.043 209.2 536.043 205.9C536.043 203 538.943 201.2 543.343 201.2C545.443 201.2 547.343 201.5 549.343 202C549.543 202.1 549.643 202.2 549.643 202.4V202.8Z" fill="#F7F7F7"/>
<path d="M623.543 214.1C619.343 209 612.143 201.6 606.343 196.6C605.343 195.8 604.143 195.8 603.143 196.7L594.843 203.7C593.543 204.9 593.543 206.4 594.843 207.5C600.243 212.5 606.343 218.8 611.243 224.4C612.243 225.6 613.643 225.7 614.743 224.7L623.243 217.4C624.343 216.5 624.443 215.1 623.543 214.1Z" fill="#F7F7F7"/>
<path d="M139.343 294.5C136.943 292.7 134.143 290.9 131.143 289C129.643 288 129.443 286.5 130.643 285.1C132.743 282.7 134.643 280.1 136.443 277.4C137.443 275.9 136.943 274.5 135.243 273.8L126.943 270.6C125.643 270.1 124.443 270.6 123.743 271.7C122.243 274.2 120.443 276.6 118.443 279C117.643 280 116.443 280.2 115.343 279.6C111.943 277.8 108.443 276.2 105.143 274.7C104.243 274.3 103.143 274.5 102.443 275.2L96.943 280.4C95.443 281.9 95.643 283.5 97.643 284.5C99.943 285.6 102.343 286.9 104.643 288.2C106.543 289.2 106.743 290.8 105.043 292.2C101.843 294.7 98.443 296.9 94.943 298.8C92.743 299.9 92.543 301.6 94.243 303.3C95.843 304.9 97.443 306.8 98.743 308.3C99.543 309.4 100.843 309.7 101.943 309C107.443 305.9 112.743 302.3 117.643 298.1C118.443 297.4 119.643 297.3 120.643 297.9C124.243 300.2 127.443 302.6 130.143 304.8C131.343 305.8 132.743 305.7 133.643 304.6L139.643 298.1C140.743 296.9 140.643 295.4 139.343 294.5ZM164.743 274.5V343.9C164.743 345.7 164.043 346.3 162.243 346.3C160.643 346.3 156.643 346.3 152.143 346.2C149.543 346.1 148.643 347.5 149.643 349.9C150.643 352.6 151.643 355.7 152.243 358.2C152.543 359.4 153.543 360.3 154.843 360.3C162.443 360.2 168.643 359.6 172.643 357.7C177.043 355.4 178.443 351.7 178.443 344V274.5C178.443 273 177.443 272 175.943 272H167.243C165.743 272 164.743 273 164.743 274.5ZM154.243 278.7H145.843C144.343 278.7 143.343 279.7 143.343 281.2V330.6C143.343 332.1 144.343 333.1 145.843 333.1H154.243C155.743 333.1 156.743 332.1 156.743 330.6V281.2C156.743 279.7 155.743 278.7 154.243 278.7ZM125.943 325.5H138.243C139.743 325.5 140.743 324.5 140.743 323V316.2C140.743 314.7 139.743 313.7 138.243 313.7H127.143C125.643 313.7 124.643 312.7 124.643 311.2V305.7C124.643 304.2 123.643 303.2 122.143 303.2H113.943C112.443 303.2 111.443 304.2 111.443 305.7V311.2C111.443 312.7 110.443 313.7 108.943 313.7H96.143C94.643 313.7 93.643 314.7 93.643 316.2V323C93.643 324.5 94.643 325.5 96.143 325.5H103.443C106.343 325.5 107.143 327.1 105.343 329.3C101.743 333.7 97.343 338.1 92.843 341.3C91.643 342.1 91.343 343.4 92.043 344.7C93.343 347.2 94.743 350.1 95.843 352.8C96.643 354.8 98.243 355.4 99.843 353.9C102.243 351.9 104.443 349.5 106.643 346.9C109.643 343.3 111.443 343.9 111.443 348.6V357.2C111.443 358.7 112.443 359.7 113.943 359.7H122.143C123.643 359.7 124.643 358.7 124.643 357.2V346.6C124.643 343.4 126.243 342.6 128.643 344.7L131.243 347C132.543 348.1 134.043 348 135.043 346.7L139.943 340.1C140.943 338.8 140.643 337.4 139.343 336.6C135.843 334.4 129.943 330.9 125.743 328.6C125.043 328.2 124.643 327.5 124.643 326.7C124.643 326 125.143 325.5 125.943 325.5Z" fill="#F7F7F7"/>
<path d="M271.943 273.9L271.443 274.1H271.243L270.843 274.2H245.443C243.943 274.2 242.943 275.2 242.943 276.7V357.5C242.943 359 243.943 360 245.443 360H253.443C254.943 360 255.943 359 255.943 357.5V341.3C255.943 337.4 257.143 337.1 258.143 340.7C258.543 342.2 258.843 343.6 259.043 344.9C259.243 346.3 260.143 347.2 261.543 347.2C263.943 347.2 266.243 347.1 267.943 346.9C270.643 346.5 273.043 345.7 275.043 344.4C279.143 341.7 281.043 336.9 281.043 329.4C281.043 323.8 279.743 316.8 272.743 309.2C272.043 308.4 271.843 307.3 272.243 306.3C275.643 298.9 279.143 289.9 282.243 281.8C282.643 280.7 282.243 279.5 281.243 278.8L274.043 274.2H273.843C273.343 273.9 272.643 273.8 272.143 273.9H271.943ZM193.443 277.2V284.7C193.443 286.2 194.443 287.2 195.943 287.2H201.643C203.143 287.2 204.143 288.2 204.143 289.7V293.7C204.043 295.1 203.043 296.1 201.643 296.1H196.843C195.343 296.1 194.343 297.1 194.343 298.6V305.7C194.343 307.2 195.343 308.2 196.843 308.2H200.843C202.543 308.2 203.543 309.3 203.343 311L203.043 314.7C202.843 315.9 201.843 316.8 200.543 316.8H195.643C194.143 316.8 193.143 317.8 193.143 319.3V326.4C193.143 327.9 194.143 328.9 195.643 328.9H197.443C199.343 328.9 200.343 330.1 199.843 332C198.143 338 195.743 343.4 192.543 347.8C191.543 349.2 191.743 350.6 193.043 351.7C195.243 353.4 197.943 355.8 199.843 357.8C201.243 359.2 202.843 359.2 203.943 357.5C208.843 350.2 212.043 341.2 214.143 330.9C214.443 329.7 215.343 328.9 216.643 328.9H221.143C222.743 328.9 223.743 329.9 223.643 331.5C223.343 337.7 222.943 340.9 222.243 342.2C221.443 343.8 220.643 344.4 219.243 344.4C218.243 344.4 216.943 344.4 215.543 344.3C213.343 344.3 212.543 345.4 213.343 347.4C214.543 350.4 215.343 353.7 215.743 356.5C215.943 357.9 216.843 358.8 218.243 358.8C221.743 358.9 224.943 358.7 227.443 358C230.743 357.1 232.743 355.8 235.143 351.7C238.043 346.7 237.943 329.3 238.043 281.5C238.043 280.6 238.043 278.8 238.143 277.2C238.143 275.7 237.143 274.7 235.643 274.7H195.943C194.443 274.7 193.443 275.7 193.443 277.2ZM257.443 287.1H263.843C265.143 287.1 265.743 287.9 265.343 289.1C263.243 295.5 260.743 303 258.543 308.6C258.343 309.2 258.443 309.9 258.943 310.3C265.943 316.9 268.043 323.3 268.043 327.9C268.043 331 267.343 332.8 265.543 333.7C264.343 334.3 262.743 334.5 261.343 334.5C260.243 334.5 258.943 334.5 257.343 334.4C256.443 334.4 255.943 333.7 255.943 332.9V288.6C255.943 287.7 256.543 287.1 257.443 287.1ZM224.243 288.7L224.143 294.6C224.143 295.5 223.543 296.1 222.643 296.1H219.243C218.243 296.1 217.643 295.5 217.743 294.5C217.743 292.6 217.843 290.7 217.843 288.7C217.843 287.8 218.443 287.2 219.343 287.2H222.743C223.643 287.2 224.243 287.8 224.243 288.7ZM216.543 315.1C216.643 313.3 216.843 311.4 217.043 309.5C217.043 308.7 217.643 308.2 218.543 308.2H222.543C223.443 308.2 224.043 308.8 224.043 309.7V315.3C224.043 316.2 223.443 316.8 222.543 316.8H218.043C217.043 316.8 216.443 316.1 216.543 315.1Z" fill="#F7F7F7"/>
<path d="M343.643 355.7C367.043 351.2 378.243 336.9 378.243 317.6C378.243 296.2 363.043 279.7 339.143 279.7C313.943 279.7 294.643 298.7 294.643 321C294.643 337 303.643 349.7 315.243 349.7C326.343 349.7 334.743 337 340.343 318.2C342.643 310.6 344.243 303.2 345.443 296.4C345.643 294.8 346.943 293.9 348.443 294.5C357.643 297.7 362.643 305.9 362.643 317.1C362.643 329.4 354.643 337.8 342.643 340.7C340.943 341.1 339.343 341.5 337.343 341.9C335.043 342.3 334.243 343.8 335.543 345.8L341.143 354.6C341.643 355.4 342.743 355.9 343.643 355.7ZM325.543 315.3C322.243 326.2 319.343 331.9 315.543 331.9C312.343 331.9 309.543 327.6 309.543 319.5C309.543 310.9 315.743 299.2 328.243 294.7C329.543 294.2 330.343 294.9 330.043 296.3C328.943 302.9 327.443 309.6 325.543 315.3Z" fill="#F7F7F7"/>
<path d="M440.743 292.4H425.243C423.743 292.4 422.743 293.4 422.743 294.9V316.6C422.743 318.1 423.743 319.1 425.243 319.1H430.843C434.243 319.1 435.043 320.8 432.443 322.9C429.143 325.8 425.143 328.3 420.943 330.3C418.743 331.4 418.343 333 420.043 334.8C421.643 336.6 423.243 338.6 424.543 340.4C425.343 341.6 426.643 342 427.943 341.3C431.443 339.2 434.743 336.7 437.843 333.9C440.843 331.1 442.543 331.6 442.543 335.8V340.7C442.543 342.2 443.543 343.2 445.043 343.2H453.443C454.943 343.2 455.943 342.2 455.943 340.7V335.8C455.943 332.1 457.643 331.4 460.443 333.9C463.543 336.6 466.843 339.1 470.243 341C471.443 341.8 472.743 341.4 473.543 340.3C474.943 338.3 476.743 336.2 478.543 334.3C480.343 332.4 480.043 330.7 477.643 329.7C473.543 327.9 469.443 325.6 465.743 323.1C462.543 320.9 463.243 319.1 467.243 319.1H474.543C476.043 319.1 477.043 318.1 477.043 316.6V294.9C477.043 293.4 476.043 292.4 474.543 292.4H457.843C456.643 292.4 455.943 291.7 455.943 290.5C455.943 289.4 456.643 288.7 457.843 288.7H477.243C478.743 288.7 479.743 287.7 479.743 286.2V279.8C479.743 278.3 478.743 277.3 477.243 277.3H458.443C456.943 277.3 455.943 276.3 455.943 274.8V272.6C455.943 271.1 454.943 270.1 453.443 270.1H445.043C443.543 270.1 442.543 271.1 442.543 272.6V274.8C442.543 276.3 441.543 277.3 440.043 277.3H422.743C421.243 277.3 420.243 278.3 420.243 279.8V286.2C420.243 287.7 421.243 288.7 422.743 288.7H440.743C441.843 288.7 442.543 289.4 442.543 290.5C442.543 291.7 441.843 292.4 440.743 292.4ZM417.443 284.5C414.243 280.8 409.243 276.6 404.843 273.3C403.943 272.6 402.743 272.7 401.843 273.4L395.543 278.4C394.043 279.6 394.043 281.2 395.443 282.4C399.343 285.7 403.543 289.7 406.243 293.1C407.243 294.4 408.743 294.7 410.043 293.6L417.043 287.8C418.243 286.9 418.343 285.5 417.443 284.5ZM436.843 302.7H441.043C441.943 302.7 442.543 303.3 442.543 304.2V307.3C442.543 308.2 441.943 308.8 441.043 308.8H436.843C435.943 308.8 435.343 308.2 435.343 307.3V304.2C435.343 303.3 435.943 302.7 436.843 302.7ZM463.643 304.2V307.3C463.643 308.2 463.043 308.8 462.143 308.8H457.443C456.543 308.8 455.943 308.2 455.943 307.3V304.2C455.943 303.3 456.543 302.7 457.443 302.7H462.143C463.043 302.7 463.643 303.3 463.643 304.2ZM414.243 306.7H395.943C394.443 306.7 393.443 307.7 393.443 309.2V317C393.443 318.5 394.443 319.5 395.943 319.5H400.743C402.243 319.5 403.243 320.5 403.243 322V335.8C403.243 336.6 402.843 337.4 402.243 337.8C399.143 340 395.943 341.9 392.943 343.7C391.743 344.3 391.343 345.6 391.943 346.9L396.343 356.4C397.143 358.1 398.643 358.5 400.143 357.3C403.343 354.7 406.043 352.3 408.743 350C409.843 349 411.243 349.1 412.343 350.2C418.343 356.1 425.443 358 435.743 358.5C446.943 359.1 464.543 358.9 476.543 358.3C477.743 358.2 478.643 357.4 478.943 356.3C479.543 353.7 480.443 350.7 481.343 348.2C482.243 345.8 481.243 344.4 478.643 344.5C465.043 345.5 446.443 345.7 436.043 345.2C426.943 344.8 420.643 342.7 417.143 337.2C416.843 336.8 416.743 336.3 416.743 335.9V309.2C416.743 307.7 415.743 306.7 414.243 306.7Z" fill="#F7F7F7"/>
<path d="M566.443 283.5C562.643 285 558.443 286.4 553.843 287.4C552.643 287.7 551.543 287.1 551.043 286C549.443 282 547.943 278.4 546.843 274.8C546.443 273.5 545.243 272.8 543.943 273L533.543 275.1C531.443 275.5 530.843 277 531.843 278.9C533.043 280.9 533.843 282.7 535.043 285.4C535.343 286.2 535.743 287 536.143 287.9C536.843 289.4 536.243 290.5 534.643 290.6C531.743 290.8 528.743 290.9 525.043 290.9C519.143 290.9 512.843 289.9 507.443 288.9C505.543 288.5 504.343 289.5 504.443 291.5L504.943 301.1C505.043 302.4 505.843 303.3 507.143 303.4C512.343 304 520.443 304.6 525.643 304.6C531.143 304.6 536.643 304.3 541.443 303.8C542.543 303.7 543.543 304.2 544.043 305.2C545.343 307.9 546.643 310.6 547.943 313.1C549.043 315.3 548.043 316.7 545.543 316.5L542.343 316.2C540.943 316.1 539.843 317 539.643 318.4L538.943 325.3C538.743 326.7 539.643 327.8 541.043 328C547.443 328.9 554.643 330.2 559.743 331.1C560.643 331.3 561.543 331 562.043 330.4L567.843 324.2C568.543 323.4 568.643 322.3 568.143 321.3C565.043 315.7 561.743 309.7 558.843 303.8C558.043 302.1 558.743 300.7 560.543 300.3C564.043 299.4 567.243 298.5 570.043 297.5C571.243 297.1 571.843 296 571.643 294.7L569.943 285.4C569.543 283.5 568.143 282.8 566.443 283.5ZM505.243 323.8C504.443 328 503.943 332.1 503.943 335.7C503.943 349.6 514.443 356.4 534.143 356.4C542.643 356.4 550.343 355.9 555.343 355.1C556.543 354.9 557.343 354 557.443 352.8L557.843 343.1C557.843 341.2 556.743 340.2 554.843 340.5C549.443 341.5 544.443 342.1 534.143 342.1C521.143 342.1 518.943 337.8 518.943 331.7C518.943 329.9 519.243 327.8 519.743 325.8C520.143 324 519.243 322.7 517.443 322.6L507.843 321.9C506.543 321.8 505.443 322.6 505.243 323.8Z" fill="#F7F7F7"/>
<path d="M596.243 287.5L597.143 297.5C597.343 299.2 598.543 300.1 600.243 299.7C608.243 298.1 618.143 296.8 625.743 295.9C630.343 295.4 631.043 297.1 628.443 300.7C624.743 306 621.443 313.6 621.443 322.5C621.443 342 638.343 353.3 658.543 355.4C659.643 355.5 660.643 354.9 661.043 353.7L664.743 342.8C665.343 340.9 664.443 339.6 662.443 339.5C647.743 338 636.443 332.4 636.443 319.5C636.443 308.4 645.243 297.3 655.343 295.1C659.843 294.2 666.143 294 670.943 293.9C672.443 293.9 673.443 292.9 673.443 291.4L673.343 281.9C673.343 280.3 672.343 279.3 670.743 279.4C663.943 279.7 654.243 280.2 645.943 280.9C628.743 282.4 614.543 283.6 605.743 284.3C604.243 284.5 601.643 284.6 598.743 284.7C597.143 284.8 596.143 285.9 596.243 287.5ZM669.143 298L665.643 299.6C663.943 300.4 663.643 301.9 664.643 303.4C666.443 306 667.843 308.3 669.443 311.4C670.143 312.7 671.443 313.2 672.743 312.5L676.543 310.7C677.943 310.1 678.443 308.7 677.643 307.3C676.043 304.6 673.943 301.5 672.243 298.9C671.543 297.9 670.343 297.5 669.143 298ZM658.443 302.6L654.943 304C653.243 304.7 652.743 306.2 653.843 307.8C655.443 310.4 656.743 312.8 658.243 316C658.843 317.3 660.143 317.8 661.543 317.2L665.343 315.5C666.743 314.9 667.243 313.6 666.543 312.2C665.143 309.4 663.143 306.1 661.443 303.5C660.843 302.5 659.643 302.1 658.443 302.6Z" fill="#F7F7F7"/>
<path d="M111.643 404.4C106.943 416 99.543 427.4 91.843 435.2C90.943 436 90.743 437.3 91.343 438.4C92.843 440.9 94.543 444.4 95.843 447.3C96.843 449.5 98.543 449.9 100.143 448.1L100.643 447.5C102.643 445.3 103.843 445.7 103.843 448.7V489.4C103.843 490.9 104.843 491.9 106.343 491.9H114.443C115.943 491.9 116.943 490.9 116.943 489.4V424.4L117.243 423.6C117.243 423.5 117.243 423.3 117.343 423.2C119.943 418.5 122.243 413.5 124.243 408.8C124.943 407.3 124.343 406 122.743 405.5L114.843 402.9C113.443 402.5 112.243 403.1 111.643 404.4ZM175.143 408H130.043C128.543 408 127.543 409 127.543 410.5V418.7C127.543 420.2 128.543 421.2 130.043 421.2H175.143C176.643 421.2 177.643 420.2 177.643 418.7V410.5C177.643 409 176.643 408 175.143 408ZM183.143 484.3C180.843 476.2 175.343 465.6 169.843 457C169.243 455.9 167.943 455.5 166.843 456L159.143 459.2C157.543 459.9 157.043 461.3 157.843 462.8C159.043 464.8 160.143 466.9 161.143 469C162.143 470.9 161.343 472.3 159.143 472.5L147.443 473.4C144.943 473.6 144.043 472.2 144.943 469.9C147.343 464 149.743 457.3 151.943 450.9C152.343 449.9 153.243 449.2 154.343 449.2H179.943C181.443 449.2 182.443 448.2 182.443 446.7V438.4C182.443 436.9 181.443 435.9 179.943 435.9H123.343C121.843 435.9 120.843 436.9 120.843 438.4V446.7C120.843 448.2 121.843 449.2 123.343 449.2H133.443C135.343 449.2 136.343 450.4 135.943 452.3C134.143 459.4 131.843 467 129.343 473.3C128.943 474.1 128.243 474.7 127.343 474.8H127.143C125.643 475 124.343 475 122.943 475.1C121.343 475.2 120.443 476.4 120.743 478L122.243 486.9C122.443 488.3 123.543 489.1 124.943 489C136.643 487.9 151.543 486.4 166.043 484.9C167.243 484.8 168.343 485.5 168.643 486.6C168.943 487.5 169.143 488.3 169.443 489V489.2C169.943 490.9 171.343 491.7 173.043 490.9L181.743 487.1C182.843 486.6 183.443 485.5 183.143 484.3Z" fill="#F7F7F7"/>
<path d="M218.943 407.8L217.543 416C217.343 417.5 218.143 418.7 219.643 418.9C230.043 420.4 244.643 422 254.243 422.8C255.743 422.9 256.743 422.1 256.943 420.7L258.043 412.3C258.343 410.8 257.343 409.6 255.743 409.5C246.143 408.8 231.743 407.2 221.843 405.7C220.343 405.5 219.143 406.3 218.943 407.8ZM260.643 434.7L255.443 428.8C254.743 428 253.543 427.7 252.543 428C251.343 428.3 249.743 428.6 248.543 428.7C240.243 429.7 219.243 430.4 215.243 430.4C212.943 430.4 210.643 430.3 208.743 430.2C206.943 430.1 205.843 431.2 205.943 433L206.843 442.9C206.943 444.6 208.143 445.5 209.843 445.2C211.443 444.9 213.443 444.6 215.443 444.4C219.243 444.1 224.643 443.6 229.643 443.3C233.143 443.1 233.843 444.8 231.443 447.3C222.943 456.3 210.843 468.3 206.143 473C204.443 474.8 202.743 476.3 201.243 477.7C199.743 479 199.743 480.6 201.443 481.7L210.143 487.8C211.243 488.6 212.643 488.4 213.543 487.3C219.843 479.3 224.643 474 227.543 470.8C229.843 468.5 231.743 466.9 233.143 466.9C234.743 466.9 236.743 467.9 237.843 471V471.2C238.343 473.4 239.343 477.1 240.343 479.9C242.743 486 247.743 488 257.343 488C261.443 488 269.643 487.6 274.343 487C275.443 486.8 276.343 485.9 276.343 484.8L277.043 475C277.143 473.1 275.943 472 274.043 472.3C269.743 472.9 264.643 473.3 258.443 473.3C255.343 473.3 253.443 471.8 252.643 469.3C251.843 467.2 251.143 464.3 250.243 461.9C249.043 458.7 247.443 456.8 245.443 455.7C244.943 455.5 244.343 455.2 243.743 455.1H243.543C242.543 454.8 242.343 454.1 243.143 453.4C245.943 450.6 252.043 445.2 255.843 442C257.243 440.9 258.543 439.7 260.243 438.5C261.643 437.4 261.743 436 260.643 434.7Z" fill="#F7F7F7"/>
<path d="M344.943 416.2C341.543 417 337.943 417.6 334.443 418.2C333.943 418.3 333.743 418 333.843 417.5L334.043 416.7L335.443 409.8C335.843 408.1 334.943 406.9 333.243 406.8L321.743 405.9C320.043 405.8 318.943 406.9 318.943 408.6C318.943 410.8 318.843 413.5 318.543 416.2C318.443 416.8 318.443 417.5 318.343 418.1C318.143 419.2 317.143 420 316.143 420.1H315.943C314.143 420.1 312.343 420.2 310.443 420.2C307.143 420.2 304.643 420.1 301.043 419.8C299.343 419.6 298.243 420.6 298.343 422.3L298.543 431.3C298.643 432.7 299.543 433.7 300.943 433.7C303.643 433.9 306.643 434 310.343 434H312.743C314.143 434 314.943 434.8 314.543 436.2L313.343 440.5C310.143 452.5 303.743 470.2 298.343 480.3C297.543 481.9 298.043 483.4 299.843 484L310.643 487.6C311.843 488 313.143 487.5 313.643 486.3C318.743 474.5 324.543 456.9 327.743 444.5C328.543 441.3 329.343 437.8 330.143 434.4C330.343 433.4 331.243 432.6 332.343 432.5C337.043 431.9 341.843 431 346.043 430.1C347.243 429.9 348.043 428.9 348.043 427.7V418.7C348.043 416.8 346.843 415.8 344.943 416.2ZM342.743 448.4C347.743 447.9 352.743 447.7 358.543 447.7C363.243 447.7 368.043 448.1 372.043 448.6C373.743 448.8 374.843 447.8 374.943 446.1L375.043 437.5C375.143 436.1 374.243 435.1 372.843 435C367.943 434.6 363.043 434.4 358.543 434.4C353.143 434.4 347.143 434.7 342.143 435.2C340.843 435.3 339.943 436.3 339.943 437.6V445.9C339.943 447.6 341.043 448.6 342.743 448.4ZM333.143 460.3C332.543 463.6 331.943 467.8 331.943 471.6C331.943 481.2 340.143 487.2 356.643 487.2C363.543 487.2 369.143 486.7 374.143 486.1C375.343 486 376.243 485 376.343 483.8L376.743 474.4C376.743 472.5 375.643 471.5 373.743 471.8C367.743 472.8 362.143 473.3 356.743 473.3C348.443 473.3 345.943 470.8 345.943 467C345.943 465.8 346.143 464.1 346.543 462.3C346.943 460.6 346.043 459.3 344.243 459.1L335.843 458.4C334.543 458.3 333.443 459 333.143 460.3Z" fill="#F7F7F7"/>
<path d="M413.343 414.6L401.943 414.4C400.043 414.4 399.143 415.6 399.343 417.5C399.643 420 399.743 422.6 399.743 424.6C399.743 430.6 399.843 441.3 400.743 450.2C403.443 476 412.643 485.5 423.743 485.5C431.843 485.5 437.743 479.9 444.043 464.4C444.343 463.5 444.143 462.5 443.643 461.9L436.343 453C434.343 450.5 432.643 451 431.843 454C430.143 460.1 427.443 467 424.043 467C418.643 467 416.743 458.4 415.543 446.1C415.043 439.8 415.043 433.6 415.043 427.4C415.043 425.3 415.343 421.2 415.843 417.6C416.143 415.8 415.143 414.6 413.343 414.6ZM460.743 416.9L451.443 420C449.243 420.7 448.843 422.3 450.243 424.2C458.743 435.6 462.343 453.5 464.143 466.4C464.343 468.3 465.743 469.1 467.543 468.5L478.143 464.4C479.243 464 479.843 462.9 479.743 461.8C478.143 448.9 471.643 428.4 463.443 417.7C462.743 416.9 461.743 416.6 460.743 416.9Z" fill="#F7F7F7"/>
<path d="M507.843 459.4C499.143 459.4 492.043 466.6 492.043 475.3C492.043 484.1 499.143 491.2 507.843 491.2C516.743 491.2 523.743 484.1 523.743 475.3C523.743 466.6 516.743 459.4 507.843 459.4ZM507.843 483.2C503.643 483.2 500.043 479.7 500.043 475.3C500.043 470.9 503.643 467.4 507.843 467.4C512.243 467.4 515.743 470.9 515.743 475.3C515.743 479.7 512.243 483.2 507.843 483.2Z" fill="#F7F7F7"/>
<path fill-rule="evenodd" clip-rule="evenodd" d="M825.412 219.496C825.807 236.449 829.541 253.158 836.399 268.67C843.088 264.577 848.036 262.474 851.182 261.137C852.228 260.693 853.074 260.333 853.72 260.012C855.08 259.338 855.816 258.395 856.396 257.651C856.92 256.98 857.316 256.472 857.93 256.473C859.222 256.477 873.127 251.998 881.542 246.534C884.611 244.541 887.541 243.626 890.593 242.672C895.912 241.011 901.602 239.234 909.046 231.439C911.372 229.004 908.735 227.669 907.153 226.868C906.293 226.433 905.744 226.155 906.477 225.944C908.135 225.468 910.9 225.566 914.256 225.687C920.423 225.907 928.59 226.2 935.561 223.122C941.742 220.393 945.72 218.156 949.434 216.068C955.046 212.912 960.053 210.097 971.145 206.437C980.879 206.21 968.732 200.011 961.804 196.475V196.474H961.803C959.446 195.271 957.693 194.377 957.612 194.131C957.535 193.897 959.27 194.499 961.975 195.437C970.446 198.377 988.419 204.612 989.905 198.744C991.252 193.427 987.713 191.75 985.052 190.489C983.837 189.913 982.805 189.423 982.504 188.714C982.145 187.871 984.565 188.426 988.179 189.255C994.259 190.65 1003.71 192.819 1008.99 190.405C1017.4 186.555 1072.8 164.304 1072.8 164.304C1065.95 148.792 1056.1 134.782 1043.82 123.075C1031.55 111.366 1017.08 102.189 1001.26 96.0664C985.432 89.9439 968.555 86.9961 951.59 87.3913C934.624 87.7865 917.903 91.517 902.38 98.3698C886.857 105.223 872.838 115.063 861.121 127.331C849.404 139.598 840.22 154.051 834.093 169.864C827.967 185.678 825.017 202.543 825.412 219.496ZM873.726 335.049C871.677 333.351 869.683 331.593 867.747 329.776C872.552 329.311 876.563 316.883 876.506 312.757C876.438 307.856 880.088 302.759 880.088 302.759C884.925 298.154 886.235 302.535 887.237 305.883C887.845 307.917 888.339 309.57 889.44 308.597C890.32 307.821 891.643 305.404 893.232 302.502C896.914 295.779 902.016 286.46 906.297 288.953C910.631 291.477 910.149 300.734 909.918 305.164C909.822 306.998 909.77 308.005 910.12 307.365C911.082 305.607 912.042 299.209 913.078 292.301C914.419 283.366 915.887 273.578 917.653 271.876C925.017 264.781 929.383 287.213 932.44 302.918C933.822 310.013 934.936 315.736 935.938 316.743C936.804 317.613 937.166 315.145 937.72 311.368C939.229 301.083 942.163 281.086 960.561 292.279C977.809 302.772 978.733 285.542 979.38 273.469C979.678 267.934 979.917 263.483 981.644 263.285C982.153 263.223 982.908 262.697 983.809 262.068C987.475 259.508 993.574 255.251 995.555 273.655C998.025 296.583 1010.6 263.368 1005.26 251.731C999.92 240.094 1001.5 221.243 1002.44 220.409C1003.27 219.679 1004.63 218.386 1006.26 216.841L1006.26 216.838V216.837C1012.65 210.764 1023.15 200.788 1021.6 205.672C1020.61 208.76 1021.74 207.74 1023.51 206.135C1025.25 204.556 1027.62 202.408 1029.22 203.053C1030.81 203.691 1031.38 204.636 1031.93 205.549C1032.5 206.498 1033.06 207.413 1034.7 207.911C1035.99 207.51 1039.36 203.57 1042.77 199.579C1046.28 195.465 1049.85 191.297 1051.23 190.888C1055.63 189.585 1057.17 192.632 1057.97 194.21C1058.26 194.784 1058.45 195.164 1058.65 195.067C1059.42 194.684 1060.63 191.961 1062.11 188.615C1064.05 184.243 1066.47 178.807 1069 176.133L1070.48 175.35C1078.41 190.346 1083.3 206.754 1084.87 223.638C1086.45 240.523 1084.69 257.552 1079.68 273.755C1074.67 289.956 1066.52 305.015 1055.69 318.069C1044.85 331.122 1031.56 341.917 1016.55 349.835C1001.54 357.753 985.122 362.64 968.225 364.217C951.329 365.794 934.287 364.029 918.073 359.025C901.859 354.02 886.789 345.874 873.726 335.049ZM1070.21 175.085C1069.8 175.355 1069.4 175.709 1069 176.133L956.209 235.646L841.937 295.941C848.617 308.584 857.344 320.014 867.747 329.776C867.716 329.779 867.684 329.782 867.652 329.784C867.521 329.792 866.633 329.157 866.041 328.488C865.925 328.364 865.798 328.258 865.659 328.145C865.391 327.924 865.084 327.671 864.752 327.192C864.666 327.068 864.551 326.992 864.421 326.907C864.218 326.772 863.983 326.617 863.786 326.221C859.741 322.457 858.419 342.028 857.319 358.3C856.595 369.018 855.967 378.306 854.722 378.551C852.744 379.263 853.002 374.005 853.397 365.972C853.712 359.554 854.114 351.366 853.532 343.037C852.231 324.409 845.613 303.148 841.664 295.676L955.937 235.38L1070.21 175.085ZM825.842 292.388L1093.93 156.857L1094.81 158.586L826.717 294.118L825.842 292.388ZM848.068 225.892C849.262 226.596 850.85 227.235 852.847 227.431C853.437 227.488 853.889 228.016 853.797 228.602C853.727 229.054 853.352 229.395 852.898 229.455C851.222 229.673 848.616 230.262 846.029 230.908C843.421 231.56 841.39 228.487 843.07 226.388C844.206 224.967 846.502 224.967 848.068 225.892ZM883.808 213.708C884.42 214.11 885.22 213.608 885.128 212.882C885.093 212.614 884.94 212.381 884.707 212.244C883.195 211.354 877.134 207.687 869.021 201.417C862.306 196.228 858.108 192.287 856.255 190.457C855.614 189.823 854.599 189.733 853.872 190.268C852.923 190.965 852.907 192.374 853.845 193.087C856.811 195.341 862.729 199.777 867.271 202.796C872.184 206.061 880.4 211.467 883.808 213.708ZM890.412 222.477C890.597 222.786 890.336 223.169 889.981 223.109C888.005 222.771 883.242 221.956 880.388 221.454C878.932 221.198 876.007 221.264 873.006 221.436C871.097 221.546 870.315 218.832 872.018 217.963C872.578 217.676 873.253 217.713 873.814 217.999C874.947 218.576 877.214 219.566 880.904 220.489C885.791 221.714 889.241 222.171 890.097 222.273C890.229 222.289 890.344 222.364 890.412 222.477ZM881.177 334.284C883.991 325.365 887.08 314.225 886.234 310.627C886.178 310.384 886.133 310.151 886.135 309.902C886.153 307.683 887.093 307.605 887.193 309.822C887.6 318.769 887.636 331.31 887.636 335.467C887.636 336.36 887.259 337.208 886.599 337.81C884.139 340.053 880.175 337.459 881.177 334.284Z" fill="#7E8BEF"/>
<path d="M776.311 492.933V474.559H820.06C822.199 474.559 824.143 474.024 825.893 472.955C827.643 471.885 829.053 470.476 830.122 468.725C831.191 466.879 831.726 464.886 831.726 462.747C831.726 460.511 831.191 458.518 830.122 456.767C829.053 454.921 827.643 453.462 825.893 452.393C824.143 451.323 822.199 450.788 820.06 450.788H802.998C797.262 450.788 792.061 449.622 787.394 447.289C782.728 444.956 778.985 441.602 776.165 437.226C773.443 432.754 772.082 427.407 772.082 421.185C772.082 415.061 773.394 409.762 776.019 405.29C778.644 400.721 782.193 397.172 786.665 394.644C791.137 392.117 796.095 390.853 801.54 390.853H845.872V409.227H803.581C801.637 409.227 799.838 409.762 798.185 410.831C796.533 411.804 795.22 413.116 794.248 414.769C793.373 416.422 792.936 418.269 792.936 420.31C792.936 422.352 793.373 424.199 794.248 425.852C795.22 427.504 796.533 428.817 798.185 429.789C799.838 430.761 801.637 431.247 803.581 431.247H821.226C827.546 431.247 833.039 432.463 837.705 434.893C842.372 437.324 845.969 440.726 848.496 445.101C851.121 449.476 852.434 454.58 852.434 460.413C852.434 467.316 851.073 473.198 848.351 478.059C845.726 482.92 842.129 486.614 837.559 489.142C833.087 491.669 828.129 492.933 822.685 492.933H776.311ZM893.846 492.933C888.207 492.933 883.055 491.572 878.388 488.85C873.819 486.128 870.173 482.482 867.451 477.913C864.729 473.246 863.368 468.094 863.368 462.455C863.368 458.372 864.243 454.532 865.992 450.935C867.743 447.337 870.125 444.178 873.138 441.455C870.125 438.733 867.743 435.574 865.992 431.977C864.243 428.38 863.368 424.588 863.368 420.602C863.368 415.061 864.68 410.054 867.305 405.581C870.027 401.11 873.624 397.561 878.097 394.936C882.666 392.214 887.673 390.853 893.117 390.853H935.116V409.227H895.45C893.409 409.227 891.513 409.762 889.763 410.831C888.11 411.804 886.749 413.165 885.68 414.914C884.708 416.567 884.221 418.463 884.221 420.602C884.221 422.644 884.708 424.539 885.68 426.289C886.749 427.942 888.11 429.303 889.763 430.373C891.513 431.345 893.409 431.831 895.45 431.831H930.158V450.205H896.325C894.089 450.205 892.048 450.788 890.2 451.955C888.353 453.025 886.895 454.483 885.825 456.33C884.756 458.177 884.221 460.219 884.221 462.455C884.221 464.691 884.756 466.733 885.825 468.58C886.895 470.427 888.353 471.885 890.2 472.955C892.048 474.024 894.089 474.559 896.325 474.559H935.116V492.933H893.846ZM946.821 464.642V446.414H988.091V464.642H946.821ZM1018.46 492.933C1014.58 492.933 1011.17 492.107 1008.26 490.454C1005.34 488.704 1003.05 486.42 1001.4 483.6C999.846 480.781 999.069 477.621 999.069 474.121C999.069 470.816 999.895 467.608 1001.55 464.497C1003.3 461.385 1005.53 458.858 1008.26 456.914L1039.61 434.456C1041.75 432.9 1043.35 431.053 1044.42 428.914C1045.49 426.775 1046.03 424.539 1046.03 422.206C1046.03 419.484 1045.44 417.199 1044.28 415.352C1043.11 413.408 1041.46 411.901 1039.32 410.831C1037.18 409.762 1034.6 409.227 1031.59 409.227H1004.61V390.853H1034.07C1040.78 390.853 1046.56 392.262 1051.42 395.082C1056.28 397.901 1060.03 401.693 1062.65 406.457C1065.37 411.123 1066.73 416.373 1066.73 422.206C1066.73 428.039 1065.57 433.192 1063.23 437.664C1061 442.039 1057.3 445.976 1052.15 449.476L1020.8 470.767C1020.6 470.865 1020.36 471.108 1020.07 471.497C1019.78 471.788 1019.63 472.177 1019.63 472.663C1019.63 473.343 1019.83 473.83 1020.21 474.121C1020.6 474.413 1021.14 474.559 1021.82 474.559H1069.8V492.933H1018.46ZM1084.46 492.933L1127.19 413.748C1127.68 412.776 1127.92 411.949 1127.92 411.269C1127.92 410.686 1127.72 410.199 1127.34 409.811C1126.95 409.422 1126.41 409.227 1125.73 409.227H1079.21V390.853H1128.36C1132.15 390.853 1135.55 391.728 1138.57 393.478C1141.68 395.228 1144.16 397.561 1146 400.478C1147.85 403.297 1148.77 406.505 1148.77 410.102C1148.77 412.047 1148.53 413.991 1148.04 415.935C1147.56 417.783 1146.93 419.532 1146.15 421.185L1108.09 492.933H1084.46Z" fill="#7E8BEF"/>
<path d="M1001.7 532.336C1000.57 532.336 999.589 532.046 998.752 531.467C997.915 530.888 997.264 530.115 996.797 529.15C996.346 528.168 996.121 527.09 996.121 525.915C996.121 524.708 996.379 523.614 996.894 522.632C997.425 521.65 998.181 520.878 999.163 520.315C1000.14 519.735 1001.32 519.446 1002.69 519.446C1004.07 519.446 1005.24 519.735 1006.19 520.315C1007.14 520.894 1007.86 521.674 1008.36 522.656C1008.86 523.638 1009.11 524.724 1009.11 525.915V532.046H1005.8V529.995H1005.75C1005.51 530.429 1005.21 530.823 1004.84 531.177C1004.48 531.531 1004.05 531.813 1003.53 532.022C1003.02 532.231 1002.41 532.336 1001.7 532.336ZM1002.64 529.512C1003.28 529.512 1003.84 529.351 1004.3 529.029C1004.77 528.707 1005.13 528.273 1005.37 527.725C1005.62 527.162 1005.75 526.543 1005.75 525.867C1005.75 525.191 1005.62 524.587 1005.37 524.056C1005.13 523.509 1004.77 523.075 1004.3 522.753C1003.84 522.431 1003.28 522.27 1002.64 522.27C1001.98 522.27 1001.41 522.431 1000.92 522.753C1000.46 523.075 1000.1 523.509 999.839 524.056C999.597 524.587 999.476 525.191 999.476 525.867C999.476 526.543 999.597 527.162 999.839 527.725C1000.1 528.273 1000.46 528.707 1000.92 529.029C1001.41 529.351 1001.98 529.512 1002.64 529.512Z" fill="#7E8BEF"/>
<path d="M1012.24 532.046V524.974C1012.24 523.96 1012.47 523.034 1012.94 522.197C1013.42 521.361 1014.11 520.693 1015.01 520.194C1015.92 519.695 1016.99 519.446 1018.25 519.446C1019.52 519.446 1020.6 519.695 1021.48 520.194C1022.39 520.693 1023.07 521.361 1023.54 522.197C1024.02 523.034 1024.26 523.96 1024.26 524.974V532.046H1020.95V524.974C1020.95 524.475 1020.83 524.024 1020.59 523.622C1020.35 523.203 1020.02 522.873 1019.6 522.632C1019.2 522.391 1018.75 522.27 1018.25 522.27C1017.75 522.27 1017.29 522.391 1016.87 522.632C1016.47 522.873 1016.15 523.203 1015.91 523.622C1015.67 524.024 1015.55 524.475 1015.55 524.974V532.046H1012.24Z" fill="#7E8BEF"/>
<path d="M1033.17 532.336C1032.14 532.336 1031.21 532.175 1030.39 531.853C1029.59 531.515 1028.91 531.049 1028.36 530.453C1027.82 529.842 1027.4 529.134 1027.11 528.329C1026.82 527.508 1026.67 526.615 1026.67 525.649C1026.67 524.426 1026.91 523.356 1027.4 522.439C1027.9 521.505 1028.59 520.773 1029.47 520.242C1030.37 519.711 1031.42 519.446 1032.61 519.446C1033.13 519.446 1033.62 519.518 1034.08 519.663C1034.57 519.808 1035 520.017 1035.39 520.29C1035.77 520.564 1036.09 520.886 1036.33 521.256H1036.35V514.425H1039.66V525.649C1039.66 527.001 1039.39 528.184 1038.86 529.198C1038.33 530.196 1037.58 530.968 1036.62 531.515C1035.65 532.063 1034.5 532.336 1033.17 532.336ZM1033.17 529.512C1033.83 529.512 1034.39 529.351 1034.86 529.029C1035.32 528.707 1035.68 528.273 1035.92 527.725C1036.18 527.178 1036.3 526.567 1036.3 525.891C1036.3 525.215 1036.18 524.603 1035.92 524.056C1035.68 523.509 1035.32 523.075 1034.86 522.753C1034.39 522.431 1033.83 522.27 1033.17 522.27C1032.52 522.27 1031.96 522.431 1031.48 522.753C1031.01 523.075 1030.65 523.509 1030.39 524.056C1030.15 524.603 1030.03 525.215 1030.03 525.891C1030.03 526.567 1030.15 527.178 1030.39 527.725C1030.65 528.273 1031.01 528.707 1031.48 529.029C1031.96 529.351 1032.52 529.512 1033.17 529.512Z" fill="#7E8BEF"/>
<path d="M1059.97 532.336C1058.94 532.336 1058.01 532.175 1057.19 531.853C1056.39 531.515 1055.71 531.049 1055.16 530.453C1054.62 529.842 1054.2 529.134 1053.91 528.329C1053.62 527.508 1053.47 526.615 1053.47 525.649C1053.47 524.426 1053.72 523.356 1054.2 522.439C1054.7 521.505 1055.39 520.773 1056.27 520.242C1057.18 519.711 1058.22 519.446 1059.41 519.446C1059.93 519.446 1060.42 519.518 1060.89 519.663C1061.37 519.808 1061.8 520.017 1062.19 520.29C1062.58 520.564 1062.89 520.886 1063.13 521.256H1063.15V514.425H1066.46V525.649C1066.46 527.001 1066.2 528.184 1065.67 529.198C1065.13 530.196 1064.39 530.968 1063.42 531.515C1062.45 532.062 1061.3 532.336 1059.97 532.336ZM1059.97 529.512C1060.63 529.512 1061.19 529.351 1061.66 529.029C1062.12 528.707 1062.48 528.273 1062.72 527.725C1062.98 527.178 1063.11 526.567 1063.11 525.891C1063.11 525.215 1062.98 524.603 1062.72 524.056C1062.48 523.509 1062.12 523.075 1061.66 522.753C1061.19 522.431 1060.63 522.27 1059.97 522.27C1059.32 522.27 1058.76 522.431 1058.28 522.753C1057.81 523.075 1057.45 523.509 1057.19 524.056C1056.95 524.603 1056.83 525.215 1056.83 525.891C1056.83 526.567 1056.95 527.178 1057.19 527.725C1057.45 528.273 1057.81 528.707 1058.28 529.029C1058.76 529.351 1059.32 529.512 1059.97 529.512Z" fill="#7E8BEF"/>
<path d="M1075.68 532.046C1074.28 532.046 1073.06 531.781 1072.01 531.25C1070.98 530.703 1070.17 529.962 1069.6 529.029C1069.03 528.096 1068.75 527.05 1068.75 525.891C1068.75 524.587 1069.02 523.453 1069.55 522.487C1070.08 521.522 1070.8 520.773 1071.72 520.242C1072.64 519.711 1073.67 519.446 1074.83 519.446C1076.22 519.446 1077.34 519.735 1078.19 520.315C1079.06 520.894 1079.69 521.674 1080.1 522.656C1080.5 523.622 1080.7 524.7 1080.7 525.891C1080.7 526.052 1080.69 526.245 1080.68 526.47C1080.66 526.679 1080.64 526.84 1080.6 526.953H1072.27C1072.4 527.452 1072.62 527.87 1072.93 528.208C1073.25 528.546 1073.64 528.804 1074.11 528.981C1074.59 529.142 1075.13 529.222 1075.73 529.222H1079.15V532.046H1075.68ZM1072.25 524.732H1077.39C1077.36 524.426 1077.3 524.145 1077.22 523.887C1077.14 523.614 1077.03 523.372 1076.89 523.163C1076.74 522.954 1076.57 522.777 1076.38 522.632C1076.19 522.487 1075.96 522.374 1075.7 522.294C1075.45 522.214 1075.16 522.173 1074.86 522.173C1074.46 522.173 1074.09 522.246 1073.77 522.391C1073.47 522.535 1073.21 522.729 1073 522.97C1072.79 523.211 1072.62 523.485 1072.49 523.791C1072.38 524.096 1072.3 524.41 1072.25 524.732Z" fill="#7E8BEF"/>
<path d="M1083.08 532.046V529.222H1089.09C1089.28 529.222 1089.45 529.182 1089.6 529.101C1089.76 529.021 1089.88 528.908 1089.96 528.763C1090.05 528.619 1090.1 528.458 1090.1 528.281C1090.1 528.088 1090.05 527.919 1089.96 527.774C1089.88 527.629 1089.76 527.516 1089.6 527.436C1089.45 527.339 1089.28 527.291 1089.09 527.291H1086.77C1085.98 527.291 1085.27 527.17 1084.62 526.929C1084 526.671 1083.49 526.269 1083.1 525.722C1082.73 525.159 1082.55 524.426 1082.55 523.525C1082.55 522.833 1082.72 522.206 1083.05 521.642C1083.41 521.063 1083.87 520.604 1084.45 520.266C1085.05 519.912 1085.7 519.735 1086.41 519.735H1092.18V522.56H1086.72C1086.48 522.56 1086.26 522.64 1086.07 522.801C1085.89 522.962 1085.81 523.171 1085.81 523.429C1085.81 523.686 1085.89 523.903 1086.07 524.08C1086.25 524.241 1086.47 524.322 1086.72 524.322H1089.04C1089.93 524.322 1090.69 524.459 1091.33 524.732C1091.98 524.99 1092.48 525.4 1092.83 525.963C1093.18 526.526 1093.36 527.267 1093.36 528.184C1093.36 528.892 1093.18 529.544 1092.83 530.139C1092.48 530.719 1092 531.185 1091.41 531.539C1090.81 531.877 1090.14 532.046 1089.4 532.046H1083.08Z" fill="#7E8BEF"/>
<path d="M1095.95 532.046V519.735H1099.28V532.046H1095.95ZM1097.61 518.263C1097.05 518.263 1096.56 518.062 1096.14 517.659C1095.74 517.241 1095.54 516.75 1095.54 516.187C1095.54 515.623 1095.74 515.141 1096.14 514.738C1096.56 514.32 1097.05 514.111 1097.61 514.111C1098.18 514.111 1098.66 514.32 1099.06 514.738C1099.48 515.141 1099.69 515.623 1099.69 516.187C1099.69 516.75 1099.48 517.241 1099.06 517.659C1098.66 518.062 1098.18 518.263 1097.61 518.263Z" fill="#7E8BEF"/>
<path d="M1104.24 536.947V534.122H1110.57C1110.79 534.122 1110.98 534.042 1111.12 533.881C1111.27 533.736 1111.34 533.559 1111.34 533.35V530.332H1111.32C1110.95 530.751 1110.57 531.089 1110.18 531.346C1109.79 531.604 1109.38 531.797 1108.93 531.926C1108.49 532.038 1108.01 532.095 1107.48 532.095C1106.38 532.095 1105.39 531.837 1104.51 531.322C1103.64 530.791 1102.95 530.051 1102.43 529.101C1101.92 528.152 1101.66 527.05 1101.66 525.794C1101.66 524.603 1101.91 523.533 1102.41 522.584C1102.92 521.618 1103.66 520.854 1104.63 520.29C1105.59 519.727 1106.77 519.446 1108.15 519.446C1109.49 519.446 1110.64 519.719 1111.6 520.266C1112.57 520.813 1113.32 521.586 1113.85 522.584C1114.38 523.581 1114.65 524.764 1114.65 526.132V533.446C1114.65 534.525 1114.33 535.378 1113.71 536.005C1113.09 536.633 1112.24 536.947 1111.15 536.947H1104.24ZM1108.15 529.27C1108.81 529.27 1109.38 529.117 1109.84 528.812C1110.31 528.506 1110.66 528.104 1110.9 527.605C1111.16 527.09 1111.29 526.518 1111.29 525.891C1111.29 525.215 1111.16 524.603 1110.9 524.056C1110.66 523.509 1110.31 523.075 1109.84 522.753C1109.38 522.431 1108.81 522.27 1108.15 522.27C1107.51 522.27 1106.95 522.431 1106.46 522.753C1106 523.058 1105.63 523.477 1105.38 524.008C1105.14 524.539 1105.01 525.134 1105.01 525.794C1105.01 526.438 1105.14 527.025 1105.38 527.556C1105.63 528.071 1106 528.49 1106.46 528.812C1106.95 529.117 1107.51 529.27 1108.15 529.27Z" fill="#7E8BEF"/>
<path d="M1117.66 532.046V524.974C1117.66 523.96 1117.89 523.034 1118.36 522.197C1118.84 521.361 1119.53 520.693 1120.44 520.194C1121.34 519.695 1122.41 519.446 1123.67 519.446C1124.94 519.446 1126.02 519.695 1126.9 520.194C1127.81 520.693 1128.49 521.361 1128.96 522.197C1129.44 523.034 1129.68 523.96 1129.68 524.974V532.046H1126.37V524.974C1126.37 524.475 1126.25 524.024 1126.01 523.622C1125.77 523.203 1125.44 522.873 1125.02 522.632C1124.62 522.391 1124.17 522.27 1123.67 522.27C1123.17 522.27 1122.71 522.391 1122.29 522.632C1121.89 522.873 1121.57 523.203 1121.33 523.622C1121.09 524.024 1120.97 524.475 1120.97 524.974V532.046H1117.66Z" fill="#7E8BEF"/>
<path d="M1134.46 532.336C1133.85 532.336 1133.32 532.119 1132.87 531.684C1132.43 531.234 1132.21 530.703 1132.21 530.091C1132.21 529.48 1132.43 528.957 1132.87 528.522C1133.32 528.071 1133.85 527.846 1134.46 527.846C1135.07 527.846 1135.59 528.071 1136.03 528.522C1136.48 528.957 1136.7 529.48 1136.7 530.091C1136.7 530.493 1136.6 530.872 1136.39 531.226C1136.2 531.564 1135.93 531.837 1135.59 532.046C1135.26 532.24 1134.88 532.336 1134.46 532.336Z" fill="#7E8BEF"/>
<path d="M778.213 532.336C777.376 532.336 776.612 532.175 775.92 531.853C775.228 531.515 774.672 531.008 774.254 530.333C773.852 529.657 773.65 528.804 773.65 527.774V519.735H776.958V528.257C776.958 528.482 777.014 528.691 777.126 528.884C777.239 529.077 777.392 529.23 777.585 529.343C777.778 529.455 777.987 529.512 778.213 529.512C778.438 529.512 778.647 529.455 778.84 529.343C779.034 529.23 779.186 529.077 779.299 528.884C779.412 528.691 779.468 528.482 779.468 528.257V524.008C779.468 523.042 779.653 522.222 780.023 521.546C780.409 520.87 780.941 520.355 781.616 520.001C782.308 519.631 783.113 519.446 784.03 519.446C784.948 519.446 785.744 519.631 786.42 520.001C787.112 520.355 787.643 520.87 788.013 521.546C788.4 522.222 788.593 523.042 788.593 524.008V528.257C788.593 528.482 788.649 528.691 788.762 528.884C788.874 529.077 789.027 529.23 789.22 529.343C789.414 529.455 789.623 529.512 789.848 529.512C790.089 529.512 790.299 529.455 790.476 529.343C790.669 529.23 790.822 529.077 790.934 528.884C791.047 528.691 791.103 528.482 791.103 528.257V519.735H794.41V527.774C794.41 528.804 794.201 529.657 793.783 530.333C793.38 531.008 792.833 531.515 792.141 531.853C791.449 532.175 790.685 532.336 789.848 532.336C789.027 532.336 788.271 532.175 787.579 531.853C786.887 531.515 786.332 531.008 785.913 530.333C785.495 529.657 785.286 528.804 785.286 527.774V523.525C785.286 523.284 785.229 523.075 785.117 522.898C785.004 522.704 784.851 522.552 784.658 522.439C784.481 522.326 784.272 522.27 784.03 522.27C783.805 522.27 783.596 522.326 783.403 522.439C783.21 522.552 783.057 522.704 782.944 522.898C782.831 523.075 782.775 523.284 782.775 523.525V527.774C782.775 528.804 782.566 529.657 782.148 530.333C781.729 531.008 781.174 531.515 780.482 531.853C779.806 532.175 779.05 532.336 778.213 532.336Z" fill="#7E8BEF"/>
<path d="M803.758 532.046C802.358 532.046 801.135 531.781 800.089 531.25C799.059 530.703 798.254 529.962 797.675 529.029C797.112 528.096 796.83 527.05 796.83 525.891C796.83 524.587 797.096 523.453 797.627 522.487C798.158 521.522 798.882 520.773 799.799 520.242C800.716 519.711 801.754 519.446 802.913 519.446C804.297 519.446 805.416 519.735 806.269 520.315C807.138 520.894 807.773 521.674 808.176 522.656C808.578 523.622 808.779 524.7 808.779 525.891C808.779 526.052 808.771 526.245 808.755 526.47C808.739 526.679 808.715 526.84 808.683 526.953H800.354C800.483 527.452 800.7 527.87 801.006 528.208C801.328 528.546 801.722 528.804 802.189 528.981C802.672 529.142 803.211 529.222 803.806 529.222H807.234V532.046H803.758ZM800.33 524.732H805.472C805.44 524.426 805.383 524.145 805.303 523.887C805.223 523.614 805.11 523.372 804.965 523.163C804.82 522.954 804.651 522.777 804.458 522.632C804.265 522.487 804.04 522.375 803.782 522.294C803.525 522.214 803.243 522.173 802.937 522.173C802.535 522.173 802.173 522.246 801.851 522.391C801.545 522.535 801.288 522.729 801.079 522.97C800.869 523.211 800.7 523.485 800.572 523.791C800.459 524.096 800.379 524.41 800.33 524.732Z" fill="#7E8BEF"/>
<path d="M817.482 532.336C816.162 532.336 815.012 532.063 814.03 531.515C813.064 530.968 812.316 530.196 811.785 529.198C811.254 528.184 810.988 527.001 810.988 525.649V514.425H814.296V521.256H814.32C814.577 520.886 814.891 520.564 815.261 520.29C815.647 520.017 816.074 519.808 816.54 519.663C817.023 519.518 817.522 519.446 818.037 519.446C819.244 519.446 820.29 519.711 821.175 520.242C822.06 520.773 822.744 521.505 823.227 522.439C823.726 523.356 823.975 524.426 823.975 525.649C823.975 526.615 823.831 527.508 823.541 528.329C823.251 529.134 822.833 529.842 822.286 530.453C821.739 531.049 821.063 531.515 820.258 531.853C819.453 532.175 818.528 532.336 817.482 532.336ZM817.482 529.512C818.142 529.512 818.705 529.351 819.172 529.029C819.638 528.707 819.992 528.273 820.234 527.725C820.491 527.178 820.62 526.567 820.62 525.891C820.62 525.215 820.491 524.603 820.234 524.056C819.992 523.509 819.638 523.075 819.172 522.753C818.705 522.431 818.142 522.27 817.482 522.27C816.838 522.27 816.275 522.431 815.792 522.753C815.325 523.075 814.963 523.509 814.706 524.056C814.464 524.603 814.344 525.215 814.344 525.891C814.344 526.567 814.464 527.178 814.706 527.725C814.963 528.273 815.325 528.707 815.792 529.029C816.275 529.351 816.838 529.512 817.482 529.512Z" fill="#7E8BEF"/>
<path d="M838.543 532.336C837.513 532.336 836.587 532.175 835.767 531.853C834.962 531.515 834.286 531.049 833.739 530.453C833.192 529.842 832.773 529.134 832.484 528.329C832.194 527.508 832.049 526.615 832.049 525.649C832.049 524.426 832.291 523.356 832.773 522.439C833.272 521.505 833.964 520.773 834.849 520.242C835.751 519.711 836.797 519.446 837.988 519.446C838.503 519.446 838.993 519.518 839.46 519.663C839.943 519.808 840.377 520.017 840.764 520.29C841.15 520.564 841.464 520.886 841.705 521.256H841.729V514.425H845.036V525.649C845.036 527.001 844.771 528.184 844.24 529.198C843.709 530.196 842.96 530.968 841.995 531.515C841.029 532.063 839.878 532.336 838.543 532.336ZM838.543 529.512C839.203 529.512 839.766 529.351 840.232 529.029C840.699 528.707 841.053 528.273 841.295 527.725C841.552 527.178 841.681 526.567 841.681 525.891C841.681 525.215 841.552 524.603 841.295 524.056C841.053 523.509 840.699 523.075 840.232 522.753C839.766 522.431 839.203 522.27 838.543 522.27C837.899 522.27 837.336 522.431 836.853 522.753C836.386 523.075 836.024 523.509 835.767 524.056C835.525 524.603 835.405 525.215 835.405 525.891C835.405 526.567 835.525 527.178 835.767 527.725C836.024 528.273 836.386 528.707 836.853 529.029C837.336 529.351 837.899 529.512 838.543 529.512Z" fill="#7E8BEF"/>
<path d="M854.253 532.046C852.853 532.046 851.63 531.781 850.584 531.25C849.554 530.703 848.749 529.962 848.17 529.029C847.607 528.096 847.325 527.05 847.325 525.891C847.325 524.587 847.591 523.453 848.122 522.487C848.653 521.522 849.377 520.773 850.294 520.242C851.211 519.711 852.249 519.446 853.408 519.446C854.792 519.446 855.911 519.735 856.764 520.315C857.633 520.894 858.268 521.674 858.671 522.656C859.073 523.622 859.274 524.7 859.274 525.891C859.274 526.052 859.266 526.245 859.25 526.47C859.234 526.679 859.21 526.84 859.178 526.953H850.849C850.978 527.452 851.195 527.87 851.501 528.208C851.823 528.546 852.217 528.804 852.684 528.981C853.167 529.142 853.706 529.222 854.301 529.222H857.729V532.046H854.253ZM850.825 524.732H855.967C855.935 524.426 855.878 524.145 855.798 523.887C855.718 523.614 855.605 523.372 855.46 523.163C855.315 522.954 855.146 522.777 854.953 522.632C854.76 522.487 854.535 522.375 854.277 522.294C854.02 522.214 853.738 522.173 853.432 522.173C853.03 522.173 852.668 522.246 852.346 522.391C852.04 522.535 851.783 522.729 851.574 522.97C851.364 523.211 851.195 523.485 851.067 523.791C850.954 524.096 850.873 524.41 850.825 524.732Z" fill="#7E8BEF"/>
<path d="M866.751 532.336C866.027 532.336 865.367 532.143 864.772 531.757C864.193 531.371 863.79 530.864 863.565 530.236L860.041 519.735H863.637L866.486 528.884C866.518 528.949 866.558 528.997 866.607 529.029C866.655 529.061 866.711 529.077 866.776 529.077C866.84 529.077 866.896 529.061 866.945 529.029C867.009 528.997 867.049 528.949 867.065 528.884L869.938 519.735H873.462L869.938 530.212C869.713 530.839 869.302 531.354 868.707 531.757C868.127 532.143 867.476 532.336 866.751 532.336Z" fill="#7E8BEF"/>
<path d="M881.009 532.046C879.609 532.046 878.386 531.781 877.34 531.25C876.31 530.703 875.505 529.962 874.926 529.029C874.363 528.096 874.081 527.05 874.081 525.891C874.081 524.587 874.347 523.453 874.878 522.487C875.409 521.522 876.133 520.773 877.05 520.242C877.968 519.711 879.006 519.446 880.164 519.446C881.548 519.446 882.667 519.735 883.52 520.315C884.389 520.894 885.024 521.674 885.427 522.656C885.829 523.622 886.03 524.7 886.03 525.891C886.03 526.052 886.022 526.245 886.006 526.47C885.99 526.679 885.966 526.84 885.934 526.953H877.606C877.734 527.452 877.952 527.87 878.257 528.208C878.579 528.546 878.973 528.804 879.44 528.981C879.923 529.142 880.462 529.222 881.058 529.222H884.485V532.046H881.009ZM877.581 524.732H882.723C882.691 524.426 882.635 524.145 882.554 523.887C882.474 523.614 882.361 523.372 882.216 523.163C882.071 522.954 881.902 522.777 881.709 522.632C881.516 522.487 881.291 522.375 881.033 522.294C880.776 522.214 880.494 522.173 880.189 522.173C879.786 522.173 879.424 522.246 879.102 522.391C878.796 522.535 878.539 522.729 878.33 522.97C878.121 523.211 877.952 523.485 877.823 523.791C877.71 524.096 877.63 524.41 877.581 524.732Z" fill="#7E8BEF"/>
<path d="M888.36 532.046V514.425H891.667V532.046H888.36Z" fill="#7E8BEF"/>
<path d="M900.71 532.336C899.439 532.336 898.304 532.054 897.306 531.491C896.309 530.912 895.52 530.139 894.941 529.174C894.361 528.192 894.072 527.098 894.072 525.891C894.072 524.684 894.361 523.598 894.941 522.632C895.52 521.65 896.309 520.878 897.306 520.315C898.304 519.735 899.439 519.446 900.71 519.446C901.981 519.446 903.116 519.735 904.114 520.315C905.112 520.878 905.9 521.65 906.479 522.632C907.059 523.598 907.349 524.684 907.349 525.891C907.349 527.098 907.059 528.192 906.479 529.174C905.9 530.139 905.112 530.912 904.114 531.491C903.116 532.054 901.981 532.336 900.71 532.336ZM900.71 529.512C901.386 529.512 901.965 529.351 902.448 529.029C902.947 528.707 903.325 528.273 903.583 527.725C903.856 527.178 903.993 526.567 903.993 525.891C903.993 525.215 903.856 524.603 903.583 524.056C903.325 523.509 902.947 523.075 902.448 522.753C901.965 522.431 901.386 522.27 900.71 522.27C900.034 522.27 899.447 522.431 898.948 522.753C898.465 523.075 898.087 523.509 897.813 524.056C897.556 524.603 897.427 525.215 897.427 525.891C897.427 526.567 897.556 527.178 897.813 527.725C898.087 528.273 898.465 528.707 898.948 529.029C899.447 529.351 900.034 529.512 900.71 529.512Z" fill="#7E8BEF"/>
<path d="M916.138 519.446C917.184 519.446 918.11 519.615 918.914 519.953C919.719 520.274 920.395 520.741 920.942 521.353C921.489 521.948 921.907 522.656 922.197 523.477C922.487 524.282 922.632 525.167 922.632 526.132C922.632 527.339 922.382 528.409 921.883 529.343C921.401 530.276 920.717 531.008 919.831 531.539C918.946 532.071 917.9 532.336 916.693 532.336C916.178 532.336 915.679 532.264 915.197 532.119C914.73 531.974 914.304 531.765 913.917 531.491C913.547 531.218 913.233 530.896 912.976 530.526H912.952V537.357H909.645V526.132C909.645 524.764 909.91 523.581 910.441 522.584C910.972 521.586 911.721 520.813 912.686 520.266C913.668 519.719 914.819 519.446 916.138 519.446ZM916.138 522.27C915.494 522.27 914.931 522.431 914.448 522.753C913.982 523.075 913.62 523.509 913.362 524.056C913.121 524.603 913 525.215 913 525.891C913 526.567 913.121 527.178 913.362 527.725C913.62 528.273 913.982 528.707 914.448 529.029C914.931 529.351 915.494 529.512 916.138 529.512C916.798 529.512 917.361 529.351 917.828 529.029C918.295 528.707 918.649 528.273 918.89 527.725C919.148 527.178 919.276 526.567 919.276 525.891C919.276 525.215 919.148 524.603 918.89 524.056C918.649 523.509 918.295 523.075 917.828 522.753C917.361 522.431 916.798 522.27 916.138 522.27Z" fill="#7E8BEF"/>
<path d="M925.041 532.046V524.732C925.041 523.767 925.274 522.881 925.741 522.077C926.208 521.272 926.876 520.636 927.745 520.17C928.63 519.687 929.692 519.446 930.931 519.446C931.527 519.446 932.074 519.518 932.573 519.663C933.088 519.792 933.562 519.985 933.997 520.242C934.431 520.5 934.81 520.805 935.131 521.159H935.156C935.493 520.805 935.88 520.5 936.314 520.242C936.749 519.985 937.224 519.792 937.738 519.663C938.253 519.518 938.809 519.446 939.404 519.446C940.643 519.446 941.697 519.687 942.566 520.17C943.451 520.636 944.127 521.272 944.594 522.077C945.061 522.881 945.294 523.767 945.294 524.732V532.046H941.987V524.732C941.987 524.282 941.866 523.871 941.625 523.501C941.4 523.131 941.094 522.833 940.708 522.608C940.321 522.383 939.887 522.27 939.404 522.27C938.937 522.27 938.503 522.383 938.101 522.608C937.714 522.833 937.401 523.131 937.159 523.501C936.934 523.871 936.821 524.282 936.821 524.732V532.046H933.514V524.732C933.514 524.282 933.393 523.871 933.152 523.501C932.927 523.131 932.621 522.833 932.235 522.608C931.848 522.383 931.414 522.27 930.931 522.27C930.464 522.27 930.03 522.383 929.628 522.608C929.241 522.833 928.928 523.131 928.686 523.501C928.461 523.871 928.348 524.282 928.348 524.732V532.046H925.041Z" fill="#7E8BEF"/>
<path d="M954.63 532.046C953.23 532.046 952.007 531.781 950.961 531.25C949.931 530.703 949.126 529.962 948.547 529.029C947.984 528.096 947.702 527.05 947.702 525.891C947.702 524.587 947.968 523.453 948.499 522.487C949.03 521.522 949.754 520.773 950.671 520.242C951.589 519.711 952.627 519.446 953.785 519.446C955.169 519.446 956.288 519.735 957.141 520.315C958.01 520.894 958.645 521.674 959.048 522.656C959.45 523.622 959.651 524.7 959.651 525.891C959.651 526.052 959.643 526.245 959.627 526.47C959.611 526.679 959.587 526.84 959.555 526.953H951.226C951.355 527.452 951.572 527.87 951.878 528.208C952.2 528.546 952.594 528.804 953.061 528.981C953.544 529.142 954.083 529.222 954.678 529.222H958.106V532.046H954.63ZM951.202 524.732H956.344C956.312 524.426 956.256 524.145 956.175 523.887C956.095 523.614 955.982 523.372 955.837 523.163C955.692 522.954 955.523 522.777 955.33 522.632C955.137 522.487 954.912 522.375 954.654 522.294C954.397 522.214 954.115 522.173 953.809 522.173C953.407 522.173 953.045 522.246 952.723 522.391C952.417 522.535 952.16 522.729 951.951 522.97C951.741 523.211 951.572 523.485 951.444 523.791C951.331 524.096 951.251 524.41 951.202 524.732Z" fill="#7E8BEF"/>
<path d="M961.981 532.046V524.974C961.981 523.96 962.215 523.034 962.681 522.197C963.164 521.361 963.856 520.693 964.757 520.194C965.658 519.695 966.737 519.446 967.992 519.446C969.263 519.446 970.341 519.695 971.227 520.194C972.128 520.693 972.812 521.361 973.278 522.197C973.761 523.034 974.003 523.96 974.003 524.974V532.046H970.696V524.974C970.696 524.475 970.575 524.024 970.333 523.622C970.092 523.203 969.762 522.873 969.344 522.632C968.941 522.391 968.491 522.27 967.992 522.27C967.493 522.27 967.034 522.391 966.616 522.632C966.214 522.873 965.892 523.203 965.65 523.622C965.409 524.024 965.288 524.475 965.288 524.974V532.046H961.981Z" fill="#7E8BEF"/>
<path d="M981.412 532.046C980.317 532.046 979.456 531.733 978.829 531.105C978.217 530.477 977.912 529.624 977.912 528.546V516.645H981.219V528.45C981.219 528.659 981.291 528.844 981.436 529.005C981.597 529.15 981.782 529.222 981.991 529.222H984.671V532.046H981.412ZM975.811 522.56V519.735H984.671V522.56H975.811Z" fill="#7E8BEF"/>
</svg>
