<svg xmlns="http://www.w3.org/2000/svg" version="1.1" xmlns:xlink="http://www.w3.org/1999/xlink" xmlns:svgjs="http://svgjs.com/svgjs" width="270" height="292"><svg width="270" height="292" viewBox="0 0 270 292" fill="none" xmlns="http://www.w3.org/2000/svg">
<path fill-rule="evenodd" clip-rule="evenodd" d="M0.412038 132.496C0.807442 149.449 4.54117 166.158 11.3987 181.67C18.0883 177.577 23.036 175.474 26.1818 174.137C27.2278 173.693 28.0742 173.333 28.7202 173.012C30.0796 172.338 30.8161 171.395 31.3957 170.651C31.9203 169.98 32.3164 169.472 32.9301 169.473C34.2223 169.477 48.1267 164.998 56.5419 159.534C59.6108 157.541 62.5408 156.626 65.5929 155.672C70.9115 154.011 76.6016 152.234 84.0458 144.439C86.3717 142.004 83.735 140.669 82.1534 139.868C81.2928 139.433 80.7443 139.155 81.4769 138.944C83.1354 138.468 85.9 138.566 89.2558 138.687C95.4233 138.908 103.59 139.2 110.561 136.122C116.742 133.393 120.72 131.156 124.434 129.068C130.046 125.912 135.053 123.097 146.145 119.437C155.879 119.21 143.732 113.011 136.804 109.475V109.474H136.803C134.446 108.271 132.693 107.377 132.612 107.131C132.535 106.897 134.27 107.499 136.975 108.437C145.446 111.377 163.419 117.612 164.905 111.744C166.252 106.427 162.713 104.75 160.052 103.489C158.837 102.913 157.805 102.423 157.504 101.714C157.145 100.871 159.565 101.426 163.179 102.255C169.259 103.65 178.715 105.819 183.99 103.405C192.401 99.5545 247.804 77.304 247.804 77.304C240.947 61.7922 231.099 47.7825 218.823 36.0748C206.547 24.3664 192.083 15.1888 176.258 9.06645C160.432 2.94389 143.555 -0.00393286 126.59 0.391277C109.624 0.786487 92.9029 4.51698 77.3801 11.3698C61.8573 18.2228 47.8379 28.0633 36.1211 40.3305C24.4044 52.5977 15.2203 67.0507 9.09349 82.8642C2.96666 98.6784 0.0166344 115.543 0.412038 132.496ZM48.7262 248.049C46.6769 246.351 44.6831 244.593 42.7467 242.776C47.5523 242.311 51.5632 229.883 51.5064 225.757C51.4379 220.856 55.0882 215.759 55.0882 215.759C59.9255 211.154 61.2351 215.535 62.2365 218.883C62.8451 220.917 63.3394 222.57 64.4403 221.597C65.3197 220.821 66.6435 218.404 68.2322 215.502C71.9136 208.779 77.0164 199.46 81.2967 201.953C85.6306 204.477 85.1486 213.734 84.918 218.164C84.8223 219.998 84.77 221.005 85.1202 220.365C86.0822 218.607 87.0417 212.209 88.078 205.301C89.4186 196.366 90.8865 186.578 92.6529 184.876C100.017 177.781 104.383 200.213 107.44 215.918C108.822 223.013 109.936 228.736 110.938 229.743C111.804 230.613 112.166 228.145 112.72 224.368C114.229 214.083 117.163 194.086 135.561 205.279C152.809 215.772 153.733 198.542 154.38 186.469C154.678 180.934 154.917 176.483 156.644 176.285C157.153 176.223 157.908 175.697 158.809 175.068C162.475 172.508 168.574 168.251 170.555 186.655C173.025 209.583 185.601 176.368 180.26 164.731C174.92 153.094 176.496 134.243 177.442 133.409C178.27 132.679 179.63 131.386 181.257 129.841L181.261 129.838V129.837C187.654 123.764 198.155 113.788 196.596 118.672C195.61 121.76 196.735 120.74 198.507 119.135C200.252 117.556 202.624 115.408 204.225 116.053C205.807 116.691 206.379 117.636 206.931 118.549C207.505 119.498 208.058 120.413 209.703 120.911C210.988 120.51 214.356 116.57 217.768 112.579C221.284 108.465 224.848 104.297 226.228 103.888C230.627 102.585 232.169 105.632 232.968 107.21C233.259 107.784 233.451 108.164 233.647 108.067C234.419 107.684 235.628 104.961 237.113 101.615C239.054 97.2428 241.468 91.8067 243.998 89.1332L245.481 88.3501C253.405 103.346 258.295 119.754 259.874 136.638C261.452 153.523 259.686 170.552 254.678 186.755C249.67 202.956 241.517 218.015 230.686 231.069C219.854 244.122 206.555 254.917 191.548 262.835C176.542 270.753 160.122 275.64 143.225 277.217C126.329 278.794 109.287 277.029 93.0729 272.025C76.8587 267.02 61.7894 258.874 48.7262 248.049ZM245.208 88.0846C244.803 88.3546 244.399 88.7093 243.998 89.1332L131.209 148.646L16.937 208.941C23.6175 221.584 32.3441 233.014 42.7467 242.776C42.7157 242.779 42.6841 242.782 42.6524 242.784C42.5213 242.792 41.6329 242.157 41.0411 241.488C40.9254 241.364 40.7975 241.258 40.6592 241.145C40.3911 240.924 40.0842 240.671 39.7521 240.192C39.6662 240.068 39.5506 239.992 39.4213 239.907C39.2178 239.772 38.9827 239.617 38.7862 239.221C34.7411 235.457 33.4186 255.028 32.3189 271.3C31.5947 282.018 30.9673 291.306 29.7217 291.551C27.744 292.263 28.0024 287.005 28.3966 278.972C28.7118 272.554 29.1137 264.366 28.5316 256.037C27.231 237.409 20.6125 216.148 16.6643 208.676L130.937 148.38L245.208 88.0846ZM0.84169 205.388L268.933 69.8566L269.808 71.5862L1.71713 207.118L0.84169 205.388ZM23.0683 138.892C24.2616 139.596 25.8503 140.235 27.8467 140.431C28.4373 140.488 28.8889 141.016 28.7971 141.602C28.7267 142.054 28.352 142.395 27.8984 142.454C26.2225 142.673 23.6162 143.262 21.0286 143.908C18.421 144.56 16.3904 141.487 18.0695 139.388C19.206 137.967 21.5015 137.967 23.0683 138.892ZM58.8084 126.708C59.4202 127.11 60.2201 126.608 60.1277 125.882C60.0935 125.614 59.9397 125.381 59.7071 125.244C58.1946 124.354 52.1343 120.687 44.0215 114.417C37.3061 109.228 33.1078 105.287 31.2555 103.457C30.6139 102.823 29.5989 102.733 28.8721 103.268C27.923 103.965 27.9068 105.374 28.8449 106.087C31.8111 108.341 37.7292 112.777 42.2712 115.796C47.184 119.061 55.3997 124.467 58.8084 126.708ZM65.412 135.477C65.5968 135.786 65.3358 136.169 64.9811 136.109C63.0054 135.771 58.2424 134.956 55.388 134.454C53.9324 134.198 51.0069 134.264 48.0059 134.436C46.0967 134.546 45.3149 131.832 47.018 130.963C47.5782 130.676 48.2533 130.713 48.8141 130.999C49.9467 131.576 52.2138 132.566 55.9043 133.489C60.7912 134.714 64.2413 135.171 65.0967 135.273C65.2286 135.289 65.3436 135.364 65.412 135.477ZM56.1769 247.284C58.9906 238.365 62.0795 227.225 61.2345 223.627C61.1776 223.384 61.133 223.151 61.1349 222.902C61.153 220.683 62.0931 220.605 62.1932 222.822C62.5996 231.769 62.6358 244.31 62.6365 248.467C62.6365 249.36 62.2591 250.208 61.5988 250.81C59.1392 253.053 55.1748 250.459 56.1769 247.284Z" fill="#7E8BEF"></path>
</svg><style>@media (prefers-color-scheme: light) { :root { filter: none; } }
</style></svg>