<svg width="335" height="148" viewBox="0 0 335 148" fill="none" xmlns="http://www.w3.org/2000/svg">
<mask id="mask0_19_4" style="mask-type:alpha" maskUnits="userSpaceOnUse" x="0" y="0" width="335" height="148">
<rect y="0.853271" width="335" height="146.294" fill="#C4C4C4"/>
</mask>
<g mask="url(#mask0_19_4)">
<mask id="mask1_19_4" style="mask-type:alpha" maskUnits="userSpaceOnUse" x="-6" y="-162" width="330" height="356">
<mask id="mask2_19_4" style="mask-type:alpha" maskUnits="userSpaceOnUse" x="-56" y="-191" width="417" height="417">
<g clip-path="url(#clip0_19_4)">
<g clip-path="url(#clip1_19_4)">
</g>
<g clip-path="url(#clip2_19_4)">
</g>
<g clip-path="url(#clip3_19_4)">
<circle r="1.5" transform="matrix(0.129732 0.991549 0.991549 -0.129732 -0.763635 124.45)" fill="#F37D27"/>
<circle r="1.5" transform="matrix(0.129732 0.991549 0.991549 -0.129732 0.40409 133.374)" fill="#F37D27"/>
<circle r="1.5" transform="matrix(0.129732 0.991549 0.991549 -0.129732 1.57157 142.298)" fill="#F37D27"/>
</g>
<g clip-path="url(#clip4_19_4)">
<circle r="1.5" transform="matrix(0.129732 0.991549 0.991549 -0.129732 -1.18038 51.8909)" fill="#F37D27"/>
<circle r="1.5" transform="matrix(0.129732 0.991549 0.991549 -0.129732 -0.0129025 60.8149)" fill="#F37D27"/>
<circle r="1.5" transform="matrix(0.129732 0.991549 0.991549 -0.129732 1.15482 69.7388)" fill="#F37D27"/>
<circle r="1.5" transform="matrix(0.129732 0.991549 0.991549 -0.129732 2.3223 78.6628)" fill="#F37D27"/>
<circle r="1.5" transform="matrix(0.129732 0.991549 0.991549 -0.129732 3.48978 87.5867)" fill="#F37D27"/>
<circle r="1.5" transform="matrix(0.129732 0.991549 0.991549 -0.129732 4.65751 96.5106)" fill="#F37D27"/>
<circle r="1.5" transform="matrix(0.129732 0.991549 0.991549 -0.129732 5.82499 105.435)" fill="#F37D27"/>
<circle r="1.5" transform="matrix(0.129732 0.991549 0.991549 -0.129732 6.99271 114.359)" fill="#F37D27"/>
<circle r="1.5" transform="matrix(0.129732 0.991549 0.991549 -0.129732 8.16019 123.282)" fill="#F37D27"/>
<circle r="1.5" transform="matrix(0.129732 0.991549 0.991549 -0.129732 9.32792 132.206)" fill="#F37D27"/>
<circle r="1.5" transform="matrix(0.129732 0.991549 0.991549 -0.129732 10.4954 141.13)" fill="#F37D27"/>
</g>
<g clip-path="url(#clip5_19_4)">
<circle r="1.5" transform="matrix(0.129732 0.991549 0.991549 -0.129732 1.90555 6.10367)" fill="#F37D27"/>
<circle r="1.5" transform="matrix(0.129732 0.991549 0.991549 -0.129732 3.07328 15.0276)" fill="#F37D27"/>
<circle r="1.5" transform="matrix(0.129732 0.991549 0.991549 -0.129732 4.24076 23.9515)" fill="#F37D27"/>
<circle r="1.5" transform="matrix(0.129732 0.991549 0.991549 -0.129732 5.40848 32.8755)" fill="#F37D27"/>
<circle r="1.5" transform="matrix(0.129732 0.991549 0.991549 -0.129732 6.57596 41.7994)" fill="#F37D27"/>
<circle r="1.5" transform="matrix(0.129732 0.991549 0.991549 -0.129732 7.74369 50.7234)" fill="#F37D27"/>
<circle r="1.5" transform="matrix(0.129732 0.991549 0.991549 -0.129732 8.91117 59.6473)" fill="#F37D27"/>
<circle r="1.5" transform="matrix(0.129732 0.991549 0.991549 -0.129732 10.0789 68.5712)" fill="#F37D27"/>
<circle r="1.5" transform="matrix(0.129732 0.991549 0.991549 -0.129732 11.2464 77.4952)" fill="#F37D27"/>
<circle r="1.5" transform="matrix(0.129732 0.991549 0.991549 -0.129732 12.4139 86.4192)" fill="#F37D27"/>
<circle r="1.5" transform="matrix(0.129732 0.991549 0.991549 -0.129732 13.5816 95.3431)" fill="#F37D27"/>
<circle r="1.5" transform="matrix(0.129732 0.991549 0.991549 -0.129732 14.7491 104.267)" fill="#F37D27"/>
<circle r="1.5" transform="matrix(0.129732 0.991549 0.991549 -0.129732 15.9168 113.191)" fill="#F37D27"/>
<circle r="1.5" transform="matrix(0.129732 0.991549 0.991549 -0.129732 17.0843 122.115)" fill="#F37D27"/>
<circle r="1.5" transform="matrix(0.129732 0.991549 0.991549 -0.129732 18.252 131.039)" fill="#F37D27"/>
<circle r="1.5" transform="matrix(0.129732 0.991549 0.991549 -0.129732 19.4195 139.963)" fill="#F37D27"/>
</g>
<g clip-path="url(#clip6_19_4)">
<circle r="1.5" transform="matrix(0.129732 0.991549 0.991549 -0.129732 10.8294 4.93607)" fill="#F37D27"/>
<circle r="1.5" transform="matrix(0.129732 0.991549 0.991549 -0.129732 11.9971 13.86)" fill="#F37D27"/>
<circle r="1.5" transform="matrix(0.129732 0.991549 0.991549 -0.129732 13.1646 22.7839)" fill="#F37D27"/>
<circle r="1.5" transform="matrix(0.129732 0.991549 0.991549 -0.129732 14.3323 31.7079)" fill="#F37D27"/>
<circle r="1.5" transform="matrix(0.129732 0.991549 0.991549 -0.129732 15.4998 40.6318)" fill="#F37D27"/>
<circle r="1.5" transform="matrix(0.129732 0.991549 0.991549 -0.129732 16.6675 49.5558)" fill="#F37D27"/>
<circle r="1.5" transform="matrix(0.129732 0.991549 0.991549 -0.129732 17.835 58.4797)" fill="#F37D27"/>
<circle r="1.5" transform="matrix(0.129732 0.991549 0.991549 -0.129732 19.0027 67.4036)" fill="#F37D27"/>
<circle r="1.5" transform="matrix(0.129732 0.991549 0.991549 -0.129732 20.1702 76.3276)" fill="#F37D27"/>
<circle r="1.5" transform="matrix(0.129732 0.991549 0.991549 -0.129732 21.3377 85.2516)" fill="#F37D27"/>
<circle r="1.5" transform="matrix(0.129732 0.991549 0.991549 -0.129732 22.5054 94.1755)" fill="#F37D27"/>
<circle r="1.5" transform="matrix(0.129732 0.991549 0.991549 -0.129732 23.6729 103.099)" fill="#F37D27"/>
<circle r="1.5" transform="matrix(0.129732 0.991549 0.991549 -0.129732 24.8406 112.023)" fill="#F37D27"/>
<circle r="1.5" transform="matrix(0.129732 0.991549 0.991549 -0.129732 26.0081 120.947)" fill="#F37D27"/>
<circle r="1.5" transform="matrix(0.129732 0.991549 0.991549 -0.129732 27.1758 129.871)" fill="#F37D27"/>
<circle r="1.5" transform="matrix(0.129732 0.991549 0.991549 -0.129732 28.3433 138.795)" fill="#F37D27"/>
<circle r="1.5" transform="matrix(0.129732 0.991549 0.991549 -0.129732 29.511 147.719)" fill="#F37D27"/>
</g>
<g clip-path="url(#clip7_19_4)">
<circle r="1.5" transform="matrix(0.129732 0.991549 0.991549 -0.129732 19.7535 3.76849)" fill="#F37D27"/>
<circle r="1.5" transform="matrix(0.129732 0.991549 0.991549 -0.129732 20.9212 12.6924)" fill="#F37D27"/>
<circle r="1.5" transform="matrix(0.129732 0.991549 0.991549 -0.129732 22.0887 21.6164)" fill="#F37D27"/>
<circle r="1.5" transform="matrix(0.129732 0.991549 0.991549 -0.129732 23.2564 30.5403)" fill="#F37D27"/>
<circle r="1.5" transform="matrix(0.129732 0.991549 0.991549 -0.129732 24.4239 39.4643)" fill="#F37D27"/>
<circle r="1.5" transform="matrix(0.129732 0.991549 0.991549 -0.129732 25.5916 48.3882)" fill="#F37D27"/>
<circle r="1.5" transform="matrix(0.129732 0.991549 0.991549 -0.129732 26.7591 57.3121)" fill="#F37D27"/>
<circle r="1.5" transform="matrix(0.129732 0.991549 0.991549 -0.129732 27.9268 66.2361)" fill="#F37D27"/>
<circle r="1.5" transform="matrix(0.129732 0.991549 0.991549 -0.129732 29.0943 75.16)" fill="#F37D27"/>
<circle r="1.5" transform="matrix(0.129732 0.991549 0.991549 -0.129732 30.2618 84.084)" fill="#F37D27"/>
<circle r="1.5" transform="matrix(0.129732 0.991549 0.991549 -0.129732 31.4295 93.0079)" fill="#F37D27"/>
<circle r="1.5" transform="matrix(0.129732 0.991549 0.991549 -0.129732 32.597 101.932)" fill="#F37D27"/>
<circle r="1.5" transform="matrix(0.129732 0.991549 0.991549 -0.129732 33.7647 110.856)" fill="#F37D27"/>
<circle r="1.5" transform="matrix(0.129732 0.991549 0.991549 -0.129732 34.9322 119.78)" fill="#F37D27"/>
<circle r="1.5" transform="matrix(0.129732 0.991549 0.991549 -0.129732 36.0999 128.704)" fill="#F37D27"/>
<circle r="1.5" transform="matrix(0.129732 0.991549 0.991549 -0.129732 37.2674 137.628)" fill="#F37D27"/>
<circle r="1.5" transform="matrix(0.129732 0.991549 0.991549 -0.129732 38.4351 146.552)" fill="#F37D27"/>
</g>
<g clip-path="url(#clip8_19_4)">
<circle r="1.5" transform="matrix(0.129732 0.991549 0.991549 -0.129732 28.6773 2.60089)" fill="#F37D27"/>
<circle r="1.5" transform="matrix(0.129732 0.991549 0.991549 -0.129732 29.845 11.5248)" fill="#F37D27"/>
<circle r="1.5" transform="matrix(0.129732 0.991549 0.991549 -0.129732 31.0125 20.4488)" fill="#F37D27"/>
<circle r="1.5" transform="matrix(0.129732 0.991549 0.991549 -0.129732 32.1802 29.3727)" fill="#F37D27"/>
<circle r="1.5" transform="matrix(0.129732 0.991549 0.991549 -0.129732 33.3477 38.2967)" fill="#F37D27"/>
<circle r="1.5" transform="matrix(0.129732 0.991549 0.991549 -0.129732 34.5154 47.2206)" fill="#F37D27"/>
<circle r="1.5" transform="matrix(0.129732 0.991549 0.991549 -0.129732 35.6829 56.1445)" fill="#F37D27"/>
<circle r="1.5" transform="matrix(0.129732 0.991549 0.991549 -0.129732 36.8506 65.0685)" fill="#F37D27"/>
<circle r="1.5" transform="matrix(0.129732 0.991549 0.991549 -0.129732 38.0181 73.9924)" fill="#F37D27"/>
<circle r="1.5" transform="matrix(0.129732 0.991549 0.991549 -0.129732 39.1856 82.9164)" fill="#F37D27"/>
<circle r="1.5" transform="matrix(0.129732 0.991549 0.991549 -0.129732 40.3533 91.8403)" fill="#F37D27"/>
<circle r="1.5" transform="matrix(0.129732 0.991549 0.991549 -0.129732 41.5208 100.764)" fill="#F37D27"/>
<circle r="1.5" transform="matrix(0.129732 0.991549 0.991549 -0.129732 42.6885 109.688)" fill="#F37D27"/>
<circle r="1.5" transform="matrix(0.129732 0.991549 0.991549 -0.129732 43.856 118.612)" fill="#F37D27"/>
<circle r="1.5" transform="matrix(0.129732 0.991549 0.991549 -0.129732 45.0237 127.536)" fill="#F37D27"/>
<circle r="1.5" transform="matrix(0.129732 0.991549 0.991549 -0.129732 46.1912 136.46)" fill="#F37D27"/>
<circle r="1.5" transform="matrix(0.129732 0.991549 0.991549 -0.129732 47.3589 145.384)" fill="#F37D27"/>
</g>
<g clip-path="url(#clip9_19_4)">
<circle r="1.5" transform="matrix(0.129732 0.991549 0.991549 -0.129732 37.6014 1.43332)" fill="#F37D27"/>
<circle r="1.5" transform="matrix(0.129732 0.991549 0.991549 -0.129732 38.7691 10.3572)" fill="#F37D27"/>
<circle r="1.5" transform="matrix(0.129732 0.991549 0.991549 -0.129732 39.9366 19.2812)" fill="#F37D27"/>
<circle r="1.5" transform="matrix(0.129732 0.991549 0.991549 -0.129732 41.1043 28.2051)" fill="#F37D27"/>
<circle r="1.5" transform="matrix(0.129732 0.991549 0.991549 -0.129732 42.2718 37.1291)" fill="#F37D27"/>
<circle r="1.5" transform="matrix(0.129732 0.991549 0.991549 -0.129732 43.4395 46.053)" fill="#F37D27"/>
<circle r="1.5" transform="matrix(0.129732 0.991549 0.991549 -0.129732 44.607 54.9769)" fill="#F37D27"/>
<circle r="1.5" transform="matrix(0.129732 0.991549 0.991549 -0.129732 45.7747 63.9009)" fill="#F37D27"/>
<circle r="1.5" transform="matrix(0.129732 0.991549 0.991549 -0.129732 46.9422 72.8248)" fill="#F37D27"/>
<circle r="1.5" transform="matrix(0.129732 0.991549 0.991549 -0.129732 48.1097 81.7488)" fill="#F37D27"/>
<circle r="1.5" transform="matrix(0.129732 0.991549 0.991549 -0.129732 49.2774 90.6727)" fill="#F37D27"/>
<circle r="1.5" transform="matrix(0.129732 0.991549 0.991549 -0.129732 50.4449 99.5967)" fill="#F37D27"/>
<circle r="1.5" transform="matrix(0.129732 0.991549 0.991549 -0.129732 51.6126 108.521)" fill="#F37D27"/>
<circle r="1.5" transform="matrix(0.129732 0.991549 0.991549 -0.129732 52.7801 117.445)" fill="#F37D27"/>
<circle r="1.5" transform="matrix(0.129732 0.991549 0.991549 -0.129732 53.9478 126.368)" fill="#F37D27"/>
<circle r="1.5" transform="matrix(0.129732 0.991549 0.991549 -0.129732 55.1153 135.292)" fill="#F37D27"/>
<circle r="1.5" transform="matrix(0.129732 0.991549 0.991549 -0.129732 56.283 144.216)" fill="#F37D27"/>
</g>
<g clip-path="url(#clip10_19_4)">
<circle r="1.5" transform="matrix(0.129732 0.991549 0.991549 -0.129732 46.5252 0.265718)" fill="#F37D27"/>
<circle r="1.5" transform="matrix(0.129732 0.991549 0.991549 -0.129732 47.6929 9.18964)" fill="#F37D27"/>
<circle r="1.5" transform="matrix(0.129732 0.991549 0.991549 -0.129732 48.8604 18.1136)" fill="#F37D27"/>
<circle r="1.5" transform="matrix(0.129732 0.991549 0.991549 -0.129732 50.0281 27.0375)" fill="#F37D27"/>
<circle r="1.5" transform="matrix(0.129732 0.991549 0.991549 -0.129732 51.1956 35.9615)" fill="#F37D27"/>
<circle r="1.5" transform="matrix(0.129732 0.991549 0.991549 -0.129732 52.3633 44.8854)" fill="#F37D27"/>
<circle r="1.5" transform="matrix(0.129732 0.991549 0.991549 -0.129732 53.5308 53.8093)" fill="#F37D27"/>
<circle r="1.5" transform="matrix(0.129732 0.991549 0.991549 -0.129732 54.6985 62.7333)" fill="#F37D27"/>
<circle r="1.5" transform="matrix(0.129732 0.991549 0.991549 -0.129732 55.866 71.6572)" fill="#F37D27"/>
<circle r="1.5" transform="matrix(0.129732 0.991549 0.991549 -0.129732 57.0335 80.5812)" fill="#F37D27"/>
<circle r="1.5" transform="matrix(0.129732 0.991549 0.991549 -0.129732 58.2012 89.5051)" fill="#F37D27"/>
<circle r="1.5" transform="matrix(0.129732 0.991549 0.991549 -0.129732 59.3687 98.4291)" fill="#F37D27"/>
<circle r="1.5" transform="matrix(0.129732 0.991549 0.991549 -0.129732 60.5364 107.353)" fill="#F37D27"/>
<circle r="1.5" transform="matrix(0.129732 0.991549 0.991549 -0.129732 61.7039 116.277)" fill="#F37D27"/>
<circle r="1.5" transform="matrix(0.129732 0.991549 0.991549 -0.129732 62.8716 125.201)" fill="#F37D27"/>
<circle r="1.5" transform="matrix(0.129732 0.991549 0.991549 -0.129732 64.0391 134.125)" fill="#F37D27"/>
<circle r="1.5" transform="matrix(0.129732 0.991549 0.991549 -0.129732 65.2068 143.049)" fill="#F37D27"/>
</g>
<g clip-path="url(#clip11_19_4)">
<circle r="1.5" transform="matrix(0.129732 0.991549 0.991549 -0.129732 56.617 8.02207)" fill="#F37D27"/>
<circle r="1.5" transform="matrix(0.129732 0.991549 0.991549 -0.129732 57.7845 16.946)" fill="#F37D27"/>
<circle r="1.5" transform="matrix(0.129732 0.991549 0.991549 -0.129732 58.9522 25.87)" fill="#F37D27"/>
<circle r="1.5" transform="matrix(0.129732 0.991549 0.991549 -0.129732 60.1197 34.7939)" fill="#F37D27"/>
<circle r="1.5" transform="matrix(0.129732 0.991549 0.991549 -0.129732 61.2874 43.7178)" fill="#F37D27"/>
<circle r="1.5" transform="matrix(0.129732 0.991549 0.991549 -0.129732 62.4549 52.6418)" fill="#F37D27"/>
<circle r="1.5" transform="matrix(0.129732 0.991549 0.991549 -0.129732 63.6226 61.5657)" fill="#F37D27"/>
<circle r="1.5" transform="matrix(0.129732 0.991549 0.991549 -0.129732 64.7901 70.4897)" fill="#F37D27"/>
<circle r="1.5" transform="matrix(0.129732 0.991549 0.991549 -0.129732 65.9576 79.4136)" fill="#F37D27"/>
<circle r="1.5" transform="matrix(0.129732 0.991549 0.991549 -0.129732 67.1253 88.3375)" fill="#F37D27"/>
<circle r="1.5" transform="matrix(0.129732 0.991549 0.991549 -0.129732 68.2928 97.2615)" fill="#F37D27"/>
<circle r="1.5" transform="matrix(0.129732 0.991549 0.991549 -0.129732 69.4605 106.185)" fill="#F37D27"/>
<circle r="1.5" transform="matrix(0.129732 0.991549 0.991549 -0.129732 70.628 115.109)" fill="#F37D27"/>
<circle r="1.5" transform="matrix(0.129732 0.991549 0.991549 -0.129732 71.7957 124.033)" fill="#F37D27"/>
<circle r="1.5" transform="matrix(0.129732 0.991549 0.991549 -0.129732 72.9632 132.957)" fill="#F37D27"/>
<circle r="1.5" transform="matrix(0.129732 0.991549 0.991549 -0.129732 74.1309 141.881)" fill="#F37D27"/>
</g>
<g clip-path="url(#clip12_19_4)">
<circle r="1.5" transform="matrix(0.129732 0.991549 0.991549 -0.129732 65.5408 6.85446)" fill="#F37D27"/>
<circle r="1.5" transform="matrix(0.129732 0.991549 0.991549 -0.129732 66.7083 15.7784)" fill="#F37D27"/>
<circle r="1.5" transform="matrix(0.129732 0.991549 0.991549 -0.129732 67.876 24.7024)" fill="#F37D27"/>
<circle r="1.5" transform="matrix(0.129732 0.991549 0.991549 -0.129732 69.0435 33.6263)" fill="#F37D27"/>
<circle r="1.5" transform="matrix(0.129732 0.991549 0.991549 -0.129732 70.2112 42.5502)" fill="#F37D27"/>
<circle r="1.5" transform="matrix(0.129732 0.991549 0.991549 -0.129732 71.3787 51.4742)" fill="#F37D27"/>
<circle r="1.5" transform="matrix(0.129732 0.991549 0.991549 -0.129732 72.5464 60.3981)" fill="#F37D27"/>
<circle r="1.5" transform="matrix(0.129732 0.991549 0.991549 -0.129732 73.7139 69.3221)" fill="#F37D27"/>
<circle r="1.5" transform="matrix(0.129732 0.991549 0.991549 -0.129732 74.8814 78.246)" fill="#F37D27"/>
<circle r="1.5" transform="matrix(0.129732 0.991549 0.991549 -0.129732 76.0491 87.1699)" fill="#F37D27"/>
<circle r="1.5" transform="matrix(0.129732 0.991549 0.991549 -0.129732 77.2166 96.0939)" fill="#F37D27"/>
<circle r="1.5" transform="matrix(0.129732 0.991549 0.991549 -0.129732 78.3843 105.018)" fill="#F37D27"/>
<circle r="1.5" transform="matrix(0.129732 0.991549 0.991549 -0.129732 79.5518 113.942)" fill="#F37D27"/>
<circle r="1.5" transform="matrix(0.129732 0.991549 0.991549 -0.129732 80.7195 122.866)" fill="#F37D27"/>
<circle r="1.5" transform="matrix(0.129732 0.991549 0.991549 -0.129732 81.887 131.79)" fill="#F37D27"/>
<circle r="1.5" transform="matrix(0.129732 0.991549 0.991549 -0.129732 83.0547 140.714)" fill="#F37D27"/>
</g>
<g clip-path="url(#clip13_19_4)">
<circle r="1.5" transform="matrix(0.129732 0.991549 0.991549 -0.129732 74.4649 5.68689)" fill="#F37D27"/>
<circle r="1.5" transform="matrix(0.129732 0.991549 0.991549 -0.129732 75.6324 14.6108)" fill="#F37D27"/>
<circle r="1.5" transform="matrix(0.129732 0.991549 0.991549 -0.129732 76.8001 23.5348)" fill="#F37D27"/>
<circle r="1.5" transform="matrix(0.129732 0.991549 0.991549 -0.129732 77.9676 32.4587)" fill="#F37D27"/>
<circle r="1.5" transform="matrix(0.129732 0.991549 0.991549 -0.129732 79.1353 41.3827)" fill="#F37D27"/>
<circle r="1.5" transform="matrix(0.129732 0.991549 0.991549 -0.129732 80.3028 50.3066)" fill="#F37D27"/>
<circle r="1.5" transform="matrix(0.129732 0.991549 0.991549 -0.129732 81.4705 59.2305)" fill="#F37D27"/>
<circle r="1.5" transform="matrix(0.129732 0.991549 0.991549 -0.129732 82.638 68.1545)" fill="#F37D27"/>
<circle r="1.5" transform="matrix(0.129732 0.991549 0.991549 -0.129732 83.8055 77.0785)" fill="#F37D27"/>
<circle r="1.5" transform="matrix(0.129732 0.991549 0.991549 -0.129732 84.9732 86.0024)" fill="#F37D27"/>
<circle r="1.5" transform="matrix(0.129732 0.991549 0.991549 -0.129732 86.1407 94.9263)" fill="#F37D27"/>
<circle r="1.5" transform="matrix(0.129732 0.991549 0.991549 -0.129732 87.3084 103.85)" fill="#F37D27"/>
<circle r="1.5" transform="matrix(0.129732 0.991549 0.991549 -0.129732 88.4759 112.774)" fill="#F37D27"/>
<circle r="1.5" transform="matrix(0.129732 0.991549 0.991549 -0.129732 89.6436 121.698)" fill="#F37D27"/>
<circle r="1.5" transform="matrix(0.129732 0.991549 0.991549 -0.129732 90.8111 130.622)" fill="#F37D27"/>
<circle r="1.5" transform="matrix(0.129732 0.991549 0.991549 -0.129732 91.9788 139.546)" fill="#F37D27"/>
<circle r="1.5" transform="matrix(0.129732 0.991549 0.991549 -0.129732 93.1463 148.47)" fill="#F37D27"/>
</g>
<g clip-path="url(#clip14_19_4)">
<circle r="1.5" transform="matrix(0.129732 0.991549 0.991549 -0.129732 83.3887 4.51929)" fill="#F37D27"/>
<circle r="1.5" transform="matrix(0.129732 0.991549 0.991549 -0.129732 84.5562 13.4432)" fill="#F37D27"/>
<circle r="1.5" transform="matrix(0.129732 0.991549 0.991549 -0.129732 85.7239 22.3672)" fill="#F37D27"/>
<circle r="1.5" transform="matrix(0.129732 0.991549 0.991549 -0.129732 86.8914 31.2911)" fill="#F37D27"/>
<circle r="1.5" transform="matrix(0.129732 0.991549 0.991549 -0.129732 88.0591 40.2151)" fill="#F37D27"/>
<circle r="1.5" transform="matrix(0.129732 0.991549 0.991549 -0.129732 89.2266 49.139)" fill="#F37D27"/>
<circle r="1.5" transform="matrix(0.129732 0.991549 0.991549 -0.129732 90.3943 58.0629)" fill="#F37D27"/>
<circle r="1.5" transform="matrix(0.129732 0.991549 0.991549 -0.129732 91.5618 66.9869)" fill="#F37D27"/>
<circle r="1.5" transform="matrix(0.129732 0.991549 0.991549 -0.129732 92.7293 75.9109)" fill="#F37D27"/>
<circle r="1.5" transform="matrix(0.129732 0.991549 0.991549 -0.129732 93.897 84.8348)" fill="#F37D27"/>
<circle r="1.5" transform="matrix(0.129732 0.991549 0.991549 -0.129732 95.0645 93.7587)" fill="#F37D27"/>
<circle r="1.5" transform="matrix(0.129732 0.991549 0.991549 -0.129732 96.2322 102.683)" fill="#F37D27"/>
<circle r="1.5" transform="matrix(0.129732 0.991549 0.991549 -0.129732 97.3997 111.607)" fill="#F37D27"/>
<circle r="1.5" transform="matrix(0.129732 0.991549 0.991549 -0.129732 98.5674 120.531)" fill="#F37D27"/>
<circle r="1.5" transform="matrix(0.129732 0.991549 0.991549 -0.129732 99.7349 129.454)" fill="#F37D27"/>
<circle r="1.5" transform="matrix(0.129732 0.991549 0.991549 -0.129732 100.903 138.378)" fill="#F37D27"/>
<circle r="1.5" transform="matrix(0.129732 0.991549 0.991549 -0.129732 102.07 147.302)" fill="#F37D27"/>
</g>
<g clip-path="url(#clip15_19_4)">
<circle r="1.5" transform="matrix(0.129732 0.991549 0.991549 -0.129732 92.3128 3.35169)" fill="#F37D27"/>
<circle r="1.5" transform="matrix(0.129732 0.991549 0.991549 -0.129732 93.4803 12.2756)" fill="#F37D27"/>
<circle r="1.5" transform="matrix(0.129732 0.991549 0.991549 -0.129732 94.648 21.1996)" fill="#F37D27"/>
<circle r="1.5" transform="matrix(0.129732 0.991549 0.991549 -0.129732 95.8155 30.1235)" fill="#F37D27"/>
<circle r="1.5" transform="matrix(0.129732 0.991549 0.991549 -0.129732 96.9832 39.0475)" fill="#F37D27"/>
<circle r="1.5" transform="matrix(0.129732 0.991549 0.991549 -0.129732 98.1507 47.9714)" fill="#F37D27"/>
<circle r="1.5" transform="matrix(0.129732 0.991549 0.991549 -0.129732 99.3184 56.8953)" fill="#F37D27"/>
<circle r="1.5" transform="matrix(0.129732 0.991549 0.991549 -0.129732 100.486 65.8193)" fill="#F37D27"/>
<circle r="1.5" transform="matrix(0.129732 0.991549 0.991549 -0.129732 101.653 74.7433)" fill="#F37D27"/>
<circle r="1.5" transform="matrix(0.129732 0.991549 0.991549 -0.129732 102.821 83.6672)" fill="#F37D27"/>
<circle r="1.5" transform="matrix(0.129732 0.991549 0.991549 -0.129732 103.989 92.5911)" fill="#F37D27"/>
<circle r="1.5" transform="matrix(0.129732 0.991549 0.991549 -0.129732 105.156 101.515)" fill="#F37D27"/>
<circle r="1.5" transform="matrix(0.129732 0.991549 0.991549 -0.129732 106.324 110.439)" fill="#F37D27"/>
<circle r="1.5" transform="matrix(0.129732 0.991549 0.991549 -0.129732 107.491 119.363)" fill="#F37D27"/>
<circle r="1.5" transform="matrix(0.129732 0.991549 0.991549 -0.129732 108.659 128.287)" fill="#F37D27"/>
<circle r="1.5" transform="matrix(0.129732 0.991549 0.991549 -0.129732 109.827 137.211)" fill="#F37D27"/>
<circle r="1.5" transform="matrix(0.129732 0.991549 0.991549 -0.129732 110.994 146.135)" fill="#F37D27"/>
</g>
<g clip-path="url(#clip16_19_4)">
<circle r="1.5" transform="matrix(0.129732 0.991549 0.991549 -0.129732 101.237 2.18411)" fill="#F37D27"/>
<circle r="1.5" transform="matrix(0.129732 0.991549 0.991549 -0.129732 102.404 11.1081)" fill="#F37D27"/>
<circle r="1.5" transform="matrix(0.129732 0.991549 0.991549 -0.129732 103.572 20.032)" fill="#F37D27"/>
<circle r="1.5" transform="matrix(0.129732 0.991549 0.991549 -0.129732 104.739 28.956)" fill="#F37D27"/>
<circle r="1.5" transform="matrix(0.129732 0.991549 0.991549 -0.129732 105.907 37.8799)" fill="#F37D27"/>
<circle r="1.5" transform="matrix(0.129732 0.991549 0.991549 -0.129732 107.074 46.8038)" fill="#F37D27"/>
<circle r="1.5" transform="matrix(0.129732 0.991549 0.991549 -0.129732 108.242 55.7278)" fill="#F37D27"/>
<circle r="1.5" transform="matrix(0.129732 0.991549 0.991549 -0.129732 109.41 64.6517)" fill="#F37D27"/>
<circle r="1.5" transform="matrix(0.129732 0.991549 0.991549 -0.129732 110.577 73.5757)" fill="#F37D27"/>
<circle r="1.5" transform="matrix(0.129732 0.991549 0.991549 -0.129732 111.745 82.4996)" fill="#F37D27"/>
<circle r="1.5" transform="matrix(0.129732 0.991549 0.991549 -0.129732 112.912 91.4235)" fill="#F37D27"/>
<circle r="1.5" transform="matrix(0.129732 0.991549 0.991549 -0.129732 114.08 100.347)" fill="#F37D27"/>
<circle r="1.5" transform="matrix(0.129732 0.991549 0.991549 -0.129732 115.248 109.271)" fill="#F37D27"/>
<circle r="1.5" transform="matrix(0.129732 0.991549 0.991549 -0.129732 116.415 118.195)" fill="#F37D27"/>
<circle r="1.5" transform="matrix(0.129732 0.991549 0.991549 -0.129732 117.583 127.119)" fill="#F37D27"/>
<circle r="1.5" transform="matrix(0.129732 0.991549 0.991549 -0.129732 118.751 136.043)" fill="#F37D27"/>
<circle r="1.5" transform="matrix(0.129732 0.991549 0.991549 -0.129732 119.918 144.967)" fill="#F37D27"/>
</g>
<g clip-path="url(#clip17_19_4)">
<circle r="1.5" transform="matrix(0.129732 0.991549 0.991549 -0.129732 110.16 1.01654)" fill="#F37D27"/>
<circle r="1.5" transform="matrix(0.129732 0.991549 0.991549 -0.129732 111.328 9.94049)" fill="#F37D27"/>
<circle r="1.5" transform="matrix(0.129732 0.991549 0.991549 -0.129732 112.496 18.8644)" fill="#F37D27"/>
<circle r="1.5" transform="matrix(0.129732 0.991549 0.991549 -0.129732 113.663 27.7884)" fill="#F37D27"/>
<circle r="1.5" transform="matrix(0.129732 0.991549 0.991549 -0.129732 114.831 36.7123)" fill="#F37D27"/>
<circle r="1.5" transform="matrix(0.129732 0.991549 0.991549 -0.129732 115.998 45.6362)" fill="#F37D27"/>
<circle r="1.5" transform="matrix(0.129732 0.991549 0.991549 -0.129732 117.166 54.5602)" fill="#F37D27"/>
<circle r="1.5" transform="matrix(0.129732 0.991549 0.991549 -0.129732 118.334 63.4841)" fill="#F37D27"/>
<circle r="1.5" transform="matrix(0.129732 0.991549 0.991549 -0.129732 119.501 72.4081)" fill="#F37D27"/>
<circle r="1.5" transform="matrix(0.129732 0.991549 0.991549 -0.129732 120.669 81.332)" fill="#F37D27"/>
<circle r="1.5" transform="matrix(0.129732 0.991549 0.991549 -0.129732 121.836 90.256)" fill="#F37D27"/>
<circle r="1.5" transform="matrix(0.129732 0.991549 0.991549 -0.129732 123.004 99.1799)" fill="#F37D27"/>
<circle r="1.5" transform="matrix(0.129732 0.991549 0.991549 -0.129732 124.171 108.104)" fill="#F37D27"/>
<circle r="1.5" transform="matrix(0.129732 0.991549 0.991549 -0.129732 125.339 117.028)" fill="#F37D27"/>
<circle r="1.5" transform="matrix(0.129732 0.991549 0.991549 -0.129732 126.507 125.952)" fill="#F37D27"/>
<circle r="1.5" transform="matrix(0.129732 0.991549 0.991549 -0.129732 127.674 134.876)" fill="#F37D27"/>
<circle r="1.5" transform="matrix(0.129732 0.991549 0.991549 -0.129732 128.842 143.8)" fill="#F37D27"/>
</g>
<g clip-path="url(#clip18_19_4)">
<circle r="1.5" transform="matrix(0.129732 0.991549 0.991549 -0.129732 119.085 -0.151061)" fill="#F37D27"/>
<circle r="1.5" transform="matrix(0.129732 0.991549 0.991549 -0.129732 120.252 8.77289)" fill="#F37D27"/>
<circle r="1.5" transform="matrix(0.129732 0.991549 0.991549 -0.129732 121.42 17.6968)" fill="#F37D27"/>
<circle r="1.5" transform="matrix(0.129732 0.991549 0.991549 -0.129732 122.587 26.6208)" fill="#F37D27"/>
<circle r="1.5" transform="matrix(0.129732 0.991549 0.991549 -0.129732 123.755 35.5447)" fill="#F37D27"/>
<circle r="1.5" transform="matrix(0.129732 0.991549 0.991549 -0.129732 124.922 44.4686)" fill="#F37D27"/>
<circle r="1.5" transform="matrix(0.129732 0.991549 0.991549 -0.129732 126.09 53.3926)" fill="#F37D27"/>
<circle r="1.5" transform="matrix(0.129732 0.991549 0.991549 -0.129732 127.258 62.3165)" fill="#F37D27"/>
<circle r="1.5" transform="matrix(0.129732 0.991549 0.991549 -0.129732 128.425 71.2405)" fill="#F37D27"/>
<circle r="1.5" transform="matrix(0.129732 0.991549 0.991549 -0.129732 129.593 80.1644)" fill="#F37D27"/>
<circle r="1.5" transform="matrix(0.129732 0.991549 0.991549 -0.129732 130.76 89.0884)" fill="#F37D27"/>
<circle r="1.5" transform="matrix(0.129732 0.991549 0.991549 -0.129732 131.928 98.0123)" fill="#F37D27"/>
<circle r="1.5" transform="matrix(0.129732 0.991549 0.991549 -0.129732 133.095 106.936)" fill="#F37D27"/>
<circle r="1.5" transform="matrix(0.129732 0.991549 0.991549 -0.129732 134.263 115.86)" fill="#F37D27"/>
<circle r="1.5" transform="matrix(0.129732 0.991549 0.991549 -0.129732 135.431 124.784)" fill="#F37D27"/>
<circle r="1.5" transform="matrix(0.129732 0.991549 0.991549 -0.129732 136.598 133.708)" fill="#F37D27"/>
<circle r="1.5" transform="matrix(0.129732 0.991549 0.991549 -0.129732 137.766 142.632)" fill="#F37D27"/>
</g>
<g clip-path="url(#clip19_19_4)">
<circle r="1.5" transform="matrix(0.129732 0.991549 0.991549 -0.129732 129.176 7.60532)" fill="#F37D27"/>
<circle r="1.5" transform="matrix(0.129732 0.991549 0.991549 -0.129732 130.344 16.5293)" fill="#F37D27"/>
<circle r="1.5" transform="matrix(0.129732 0.991549 0.991549 -0.129732 131.511 25.4532)" fill="#F37D27"/>
<circle r="1.5" transform="matrix(0.129732 0.991549 0.991549 -0.129732 132.679 34.3771)" fill="#F37D27"/>
<circle r="1.5" transform="matrix(0.129732 0.991549 0.991549 -0.129732 133.846 43.3011)" fill="#F37D27"/>
<circle r="1.5" transform="matrix(0.129732 0.991549 0.991549 -0.129732 135.014 52.225)" fill="#F37D27"/>
<circle r="1.5" transform="matrix(0.129732 0.991549 0.991549 -0.129732 136.181 61.149)" fill="#F37D27"/>
<circle r="1.5" transform="matrix(0.129732 0.991549 0.991549 -0.129732 137.349 70.0729)" fill="#F37D27"/>
<circle r="1.5" transform="matrix(0.129732 0.991549 0.991549 -0.129732 138.517 78.9968)" fill="#F37D27"/>
<circle r="1.5" transform="matrix(0.129732 0.991549 0.991549 -0.129732 139.684 87.9208)" fill="#F37D27"/>
<circle r="1.5" transform="matrix(0.129732 0.991549 0.991549 -0.129732 140.852 96.8447)" fill="#F37D27"/>
<circle r="1.5" transform="matrix(0.129732 0.991549 0.991549 -0.129732 142.019 105.769)" fill="#F37D27"/>
<circle r="1.5" transform="matrix(0.129732 0.991549 0.991549 -0.129732 143.187 114.693)" fill="#F37D27"/>
<circle r="1.5" transform="matrix(0.129732 0.991549 0.991549 -0.129732 144.355 123.617)" fill="#F37D27"/>
<circle r="1.5" transform="matrix(0.129732 0.991549 0.991549 -0.129732 145.522 132.541)" fill="#F37D27"/>
<circle r="1.5" transform="matrix(0.129732 0.991549 0.991549 -0.129732 146.69 141.464)" fill="#F37D27"/>
</g>
<g clip-path="url(#clip20_19_4)">
<circle r="1.5" transform="matrix(0.129732 0.991549 0.991549 -0.129732 138.1 6.43771)" fill="#F37D27"/>
<circle r="1.5" transform="matrix(0.129732 0.991549 0.991549 -0.129732 139.268 15.3617)" fill="#F37D27"/>
<circle r="1.5" transform="matrix(0.129732 0.991549 0.991549 -0.129732 140.435 24.2856)" fill="#F37D27"/>
<circle r="1.5" transform="matrix(0.129732 0.991549 0.991549 -0.129732 141.603 33.2095)" fill="#F37D27"/>
<circle r="1.5" transform="matrix(0.129732 0.991549 0.991549 -0.129732 142.77 42.1335)" fill="#F37D27"/>
<circle r="1.5" transform="matrix(0.129732 0.991549 0.991549 -0.129732 143.938 51.0574)" fill="#F37D27"/>
<circle r="1.5" transform="matrix(0.129732 0.991549 0.991549 -0.129732 145.106 59.9814)" fill="#F37D27"/>
<circle r="1.5" transform="matrix(0.129732 0.991549 0.991549 -0.129732 146.273 68.9053)" fill="#F37D27"/>
<circle r="1.5" transform="matrix(0.129732 0.991549 0.991549 -0.129732 147.441 77.8292)" fill="#F37D27"/>
<circle r="1.5" transform="matrix(0.129732 0.991549 0.991549 -0.129732 148.608 86.7532)" fill="#F37D27"/>
<circle r="1.5" transform="matrix(0.129732 0.991549 0.991549 -0.129732 149.776 95.6771)" fill="#F37D27"/>
<circle r="1.5" transform="matrix(0.129732 0.991549 0.991549 -0.129732 150.943 104.601)" fill="#F37D27"/>
<circle r="1.5" transform="matrix(0.129732 0.991549 0.991549 -0.129732 152.111 113.525)" fill="#F37D27"/>
<circle r="1.5" transform="matrix(0.129732 0.991549 0.991549 -0.129732 153.279 122.449)" fill="#F37D27"/>
<circle r="1.5" transform="matrix(0.129732 0.991549 0.991549 -0.129732 154.446 131.373)" fill="#F37D27"/>
<circle r="1.5" transform="matrix(0.129732 0.991549 0.991549 -0.129732 155.614 140.297)" fill="#F37D27"/>
</g>
<g clip-path="url(#clip21_19_4)">
<circle r="1.5" transform="matrix(0.129732 0.991549 0.991549 -0.129732 147.024 5.27011)" fill="#F37D27"/>
<circle r="1.5" transform="matrix(0.129732 0.991549 0.991549 -0.129732 148.191 14.1941)" fill="#F37D27"/>
<circle r="1.5" transform="matrix(0.129732 0.991549 0.991549 -0.129732 149.359 23.118)" fill="#F37D27"/>
<circle r="1.5" transform="matrix(0.129732 0.991549 0.991549 -0.129732 150.527 32.0419)" fill="#F37D27"/>
<circle r="1.5" transform="matrix(0.129732 0.991549 0.991549 -0.129732 151.694 40.9659)" fill="#F37D27"/>
<circle r="1.5" transform="matrix(0.129732 0.991549 0.991549 -0.129732 152.862 49.8898)" fill="#F37D27"/>
<circle r="1.5" transform="matrix(0.129732 0.991549 0.991549 -0.129732 154.029 58.8138)" fill="#F37D27"/>
<circle r="1.5" transform="matrix(0.129732 0.991549 0.991549 -0.129732 155.197 67.7377)" fill="#F37D27"/>
<circle r="1.5" transform="matrix(0.129732 0.991549 0.991549 -0.129732 156.365 76.6616)" fill="#F37D27"/>
<circle r="1.5" transform="matrix(0.129732 0.991549 0.991549 -0.129732 157.532 85.5856)" fill="#F37D27"/>
<circle r="1.5" transform="matrix(0.129732 0.991549 0.991549 -0.129732 158.7 94.5095)" fill="#F37D27"/>
<circle r="1.5" transform="matrix(0.129732 0.991549 0.991549 -0.129732 159.867 103.433)" fill="#F37D27"/>
<circle r="1.5" transform="matrix(0.129732 0.991549 0.991549 -0.129732 161.035 112.357)" fill="#F37D27"/>
<circle r="1.5" transform="matrix(0.129732 0.991549 0.991549 -0.129732 162.202 121.281)" fill="#F37D27"/>
<circle r="1.5" transform="matrix(0.129732 0.991549 0.991549 -0.129732 163.37 130.205)" fill="#F37D27"/>
<circle r="1.5" transform="matrix(0.129732 0.991549 0.991549 -0.129732 164.538 139.129)" fill="#F37D27"/>
<circle r="1.5" transform="matrix(0.129732 0.991549 0.991549 -0.129732 165.705 148.053)" fill="#F37D27"/>
</g>
<g clip-path="url(#clip22_19_4)">
<circle r="1.5" transform="matrix(0.129732 0.991549 0.991549 -0.129732 155.948 4.10254)" fill="#F37D27"/>
<circle r="1.5" transform="matrix(0.129732 0.991549 0.991549 -0.129732 157.116 13.0265)" fill="#F37D27"/>
<circle r="1.5" transform="matrix(0.129732 0.991549 0.991549 -0.129732 158.283 21.9504)" fill="#F37D27"/>
<circle r="1.5" transform="matrix(0.129732 0.991549 0.991549 -0.129732 159.451 30.8744)" fill="#F37D27"/>
<circle r="1.5" transform="matrix(0.129732 0.991549 0.991549 -0.129732 160.618 39.7983)" fill="#F37D27"/>
<circle r="1.5" transform="matrix(0.129732 0.991549 0.991549 -0.129732 161.786 48.7222)" fill="#F37D27"/>
<circle r="1.5" transform="matrix(0.129732 0.991549 0.991549 -0.129732 162.953 57.6462)" fill="#F37D27"/>
<circle r="1.5" transform="matrix(0.129732 0.991549 0.991549 -0.129732 164.121 66.5702)" fill="#F37D27"/>
<circle r="1.5" transform="matrix(0.129732 0.991549 0.991549 -0.129732 165.289 75.4941)" fill="#F37D27"/>
<circle r="1.5" transform="matrix(0.129732 0.991549 0.991549 -0.129732 166.456 84.418)" fill="#F37D27"/>
<circle r="1.5" transform="matrix(0.129732 0.991549 0.991549 -0.129732 167.624 93.342)" fill="#F37D27"/>
<circle r="1.5" transform="matrix(0.129732 0.991549 0.991549 -0.129732 168.791 102.266)" fill="#F37D27"/>
<circle r="1.5" transform="matrix(0.129732 0.991549 0.991549 -0.129732 169.959 111.19)" fill="#F37D27"/>
<circle r="1.5" transform="matrix(0.129732 0.991549 0.991549 -0.129732 171.127 120.114)" fill="#F37D27"/>
<circle r="1.5" transform="matrix(0.129732 0.991549 0.991549 -0.129732 172.294 129.038)" fill="#F37D27"/>
<circle r="1.5" transform="matrix(0.129732 0.991549 0.991549 -0.129732 173.462 137.962)" fill="#F37D27"/>
<circle r="1.5" transform="matrix(0.129732 0.991549 0.991549 -0.129732 174.629 146.886)" fill="#F37D27"/>
</g>
<g clip-path="url(#clip23_19_4)">
<circle r="1.5" transform="matrix(0.129732 0.991549 0.991549 -0.129732 164.872 2.93494)" fill="#F37D27"/>
<circle r="1.5" transform="matrix(0.129732 0.991549 0.991549 -0.129732 166.039 11.8589)" fill="#F37D27"/>
<circle r="1.5" transform="matrix(0.129732 0.991549 0.991549 -0.129732 167.207 20.7828)" fill="#F37D27"/>
<circle r="1.5" transform="matrix(0.129732 0.991549 0.991549 -0.129732 168.375 29.7068)" fill="#F37D27"/>
<circle r="1.5" transform="matrix(0.129732 0.991549 0.991549 -0.129732 169.542 38.6307)" fill="#F37D27"/>
<circle r="1.5" transform="matrix(0.129732 0.991549 0.991549 -0.129732 170.71 47.5546)" fill="#F37D27"/>
<circle r="1.5" transform="matrix(0.129732 0.991549 0.991549 -0.129732 171.877 56.4786)" fill="#F37D27"/>
<circle r="1.5" transform="matrix(0.129732 0.991549 0.991549 -0.129732 173.045 65.4026)" fill="#F37D27"/>
<circle r="1.5" transform="matrix(0.129732 0.991549 0.991549 -0.129732 174.212 74.3265)" fill="#F37D27"/>
<circle r="1.5" transform="matrix(0.129732 0.991549 0.991549 -0.129732 175.38 83.2504)" fill="#F37D27"/>
<circle r="1.5" transform="matrix(0.129732 0.991549 0.991549 -0.129732 176.548 92.1744)" fill="#F37D27"/>
<circle r="1.5" transform="matrix(0.129732 0.991549 0.991549 -0.129732 177.715 101.098)" fill="#F37D27"/>
<circle r="1.5" transform="matrix(0.129732 0.991549 0.991549 -0.129732 178.883 110.022)" fill="#F37D27"/>
<circle r="1.5" transform="matrix(0.129732 0.991549 0.991549 -0.129732 180.05 118.946)" fill="#F37D27"/>
<circle r="1.5" transform="matrix(0.129732 0.991549 0.991549 -0.129732 181.218 127.87)" fill="#F37D27"/>
<circle r="1.5" transform="matrix(0.129732 0.991549 0.991549 -0.129732 182.386 136.794)" fill="#F37D27"/>
<circle r="1.5" transform="matrix(0.129732 0.991549 0.991549 -0.129732 183.553 145.718)" fill="#F37D27"/>
</g>
<g clip-path="url(#clip24_19_4)">
<circle r="1.5" transform="matrix(0.129732 0.991549 0.991549 -0.129732 173.796 1.76737)" fill="#F37D27"/>
<circle r="1.5" transform="matrix(0.129732 0.991549 0.991549 -0.129732 174.963 10.6913)" fill="#F37D27"/>
<circle r="1.5" transform="matrix(0.129732 0.991549 0.991549 -0.129732 176.131 19.6153)" fill="#F37D27"/>
<circle r="1.5" transform="matrix(0.129732 0.991549 0.991549 -0.129732 177.299 28.5392)" fill="#F37D27"/>
<circle r="1.5" transform="matrix(0.129732 0.991549 0.991549 -0.129732 178.466 37.4631)" fill="#F37D27"/>
<circle r="1.5" transform="matrix(0.129732 0.991549 0.991549 -0.129732 179.634 46.3871)" fill="#F37D27"/>
<circle r="1.5" transform="matrix(0.129732 0.991549 0.991549 -0.129732 180.801 55.311)" fill="#F37D27"/>
<circle r="1.5" transform="matrix(0.129732 0.991549 0.991549 -0.129732 181.969 64.235)" fill="#F37D27"/>
<circle r="1.5" transform="matrix(0.129732 0.991549 0.991549 -0.129732 183.137 73.1589)" fill="#F37D27"/>
<circle r="1.5" transform="matrix(0.129732 0.991549 0.991549 -0.129732 184.304 82.0828)" fill="#F37D27"/>
<circle r="1.5" transform="matrix(0.129732 0.991549 0.991549 -0.129732 185.472 91.0068)" fill="#F37D27"/>
<circle r="1.5" transform="matrix(0.129732 0.991549 0.991549 -0.129732 186.639 99.9307)" fill="#F37D27"/>
<circle r="1.5" transform="matrix(0.129732 0.991549 0.991549 -0.129732 187.807 108.855)" fill="#F37D27"/>
<circle r="1.5" transform="matrix(0.129732 0.991549 0.991549 -0.129732 188.974 117.779)" fill="#F37D27"/>
<circle r="1.5" transform="matrix(0.129732 0.991549 0.991549 -0.129732 190.142 126.703)" fill="#F37D27"/>
<circle r="1.5" transform="matrix(0.129732 0.991549 0.991549 -0.129732 191.31 135.627)" fill="#F37D27"/>
<circle r="1.5" transform="matrix(0.129732 0.991549 0.991549 -0.129732 192.477 144.55)" fill="#F37D27"/>
</g>
<g clip-path="url(#clip25_19_4)">
<circle r="1.5" transform="matrix(0.129732 0.991549 0.991549 -0.129732 182.72 0.599763)" fill="#F37D27"/>
<circle r="1.5" transform="matrix(0.129732 0.991549 0.991549 -0.129732 183.887 9.52371)" fill="#F37D27"/>
<circle r="1.5" transform="matrix(0.129732 0.991549 0.991549 -0.129732 185.055 18.4477)" fill="#F37D27"/>
<circle r="1.5" transform="matrix(0.129732 0.991549 0.991549 -0.129732 186.222 27.3716)" fill="#F37D27"/>
<circle r="1.5" transform="matrix(0.129732 0.991549 0.991549 -0.129732 187.39 36.2955)" fill="#F37D27"/>
<circle r="1.5" transform="matrix(0.129732 0.991549 0.991549 -0.129732 188.558 45.2195)" fill="#F37D27"/>
<circle r="1.5" transform="matrix(0.129732 0.991549 0.991549 -0.129732 189.725 54.1434)" fill="#F37D27"/>
<circle r="1.5" transform="matrix(0.129732 0.991549 0.991549 -0.129732 190.893 63.0674)" fill="#F37D27"/>
<circle r="1.5" transform="matrix(0.129732 0.991549 0.991549 -0.129732 192.06 71.9913)" fill="#F37D27"/>
<circle r="1.5" transform="matrix(0.129732 0.991549 0.991549 -0.129732 193.228 80.9152)" fill="#F37D27"/>
<circle r="1.5" transform="matrix(0.129732 0.991549 0.991549 -0.129732 194.396 89.8392)" fill="#F37D27"/>
<circle r="1.5" transform="matrix(0.129732 0.991549 0.991549 -0.129732 195.563 98.7631)" fill="#F37D27"/>
<circle r="1.5" transform="matrix(0.129732 0.991549 0.991549 -0.129732 196.731 107.687)" fill="#F37D27"/>
<circle r="1.5" transform="matrix(0.129732 0.991549 0.991549 -0.129732 197.898 116.611)" fill="#F37D27"/>
<circle r="1.5" transform="matrix(0.129732 0.991549 0.991549 -0.129732 199.066 125.535)" fill="#F37D27"/>
<circle r="1.5" transform="matrix(0.129732 0.991549 0.991549 -0.129732 200.233 134.459)" fill="#F37D27"/>
<circle r="1.5" transform="matrix(0.129732 0.991549 0.991549 -0.129732 201.401 143.383)" fill="#F37D27"/>
</g>
<g clip-path="url(#clip26_19_4)">
<circle r="1.5" transform="matrix(0.129732 0.991549 0.991549 -0.129732 191.644 -0.567809)" fill="#F37D27"/>
<circle r="1.5" transform="matrix(0.129732 0.991549 0.991549 -0.129732 192.811 8.35614)" fill="#F37D27"/>
<circle r="1.5" transform="matrix(0.129732 0.991549 0.991549 -0.129732 193.979 17.2801)" fill="#F37D27"/>
<circle r="1.5" transform="matrix(0.129732 0.991549 0.991549 -0.129732 195.147 26.204)" fill="#F37D27"/>
<circle r="1.5" transform="matrix(0.129732 0.991549 0.991549 -0.129732 196.314 35.128)" fill="#F37D27"/>
<circle r="1.5" transform="matrix(0.129732 0.991549 0.991549 -0.129732 197.482 44.0519)" fill="#F37D27"/>
<circle r="1.5" transform="matrix(0.129732 0.991549 0.991549 -0.129732 198.649 52.9758)" fill="#F37D27"/>
<circle r="1.5" transform="matrix(0.129732 0.991549 0.991549 -0.129732 199.817 61.8998)" fill="#F37D27"/>
<circle r="1.5" transform="matrix(0.129732 0.991549 0.991549 -0.129732 200.984 70.8237)" fill="#F37D27"/>
<circle r="1.5" transform="matrix(0.129732 0.991549 0.991549 -0.129732 202.152 79.7477)" fill="#F37D27"/>
<circle r="1.5" transform="matrix(0.129732 0.991549 0.991549 -0.129732 203.32 88.6716)" fill="#F37D27"/>
<circle r="1.5" transform="matrix(0.129732 0.991549 0.991549 -0.129732 204.487 97.5956)" fill="#F37D27"/>
<circle r="1.5" transform="matrix(0.129732 0.991549 0.991549 -0.129732 205.655 106.519)" fill="#F37D27"/>
<circle r="1.5" transform="matrix(0.129732 0.991549 0.991549 -0.129732 206.822 115.443)" fill="#F37D27"/>
<circle r="1.5" transform="matrix(0.129732 0.991549 0.991549 -0.129732 207.99 124.367)" fill="#F37D27"/>
<circle r="1.5" transform="matrix(0.129732 0.991549 0.991549 -0.129732 209.158 133.291)" fill="#F37D27"/>
<circle r="1.5" transform="matrix(0.129732 0.991549 0.991549 -0.129732 210.325 142.215)" fill="#F37D27"/>
</g>
<g clip-path="url(#clip27_19_4)">
<circle r="1.5" transform="matrix(0.129732 0.991549 0.991549 -0.129732 201.735 7.18854)" fill="#F37D27"/>
<circle r="1.5" transform="matrix(0.129732 0.991549 0.991549 -0.129732 202.903 16.1125)" fill="#F37D27"/>
<circle r="1.5" transform="matrix(0.129732 0.991549 0.991549 -0.129732 204.07 25.0364)" fill="#F37D27"/>
<circle r="1.5" transform="matrix(0.129732 0.991549 0.991549 -0.129732 205.238 33.9604)" fill="#F37D27"/>
<circle r="1.5" transform="matrix(0.129732 0.991549 0.991549 -0.129732 206.406 42.8843)" fill="#F37D27"/>
<circle r="1.5" transform="matrix(0.129732 0.991549 0.991549 -0.129732 207.573 51.8082)" fill="#F37D27"/>
<circle r="1.5" transform="matrix(0.129732 0.991549 0.991549 -0.129732 208.741 60.7322)" fill="#F37D27"/>
<circle r="1.5" transform="matrix(0.129732 0.991549 0.991549 -0.129732 209.908 69.6561)" fill="#F37D27"/>
<circle r="1.5" transform="matrix(0.129732 0.991549 0.991549 -0.129732 211.076 78.5801)" fill="#F37D27"/>
<circle r="1.5" transform="matrix(0.129732 0.991549 0.991549 -0.129732 212.243 87.504)" fill="#F37D27"/>
<circle r="1.5" transform="matrix(0.129732 0.991549 0.991549 -0.129732 213.411 96.428)" fill="#F37D27"/>
<circle r="1.5" transform="matrix(0.129732 0.991549 0.991549 -0.129732 214.579 105.352)" fill="#F37D27"/>
<circle r="1.5" transform="matrix(0.129732 0.991549 0.991549 -0.129732 215.746 114.276)" fill="#F37D27"/>
<circle r="1.5" transform="matrix(0.129732 0.991549 0.991549 -0.129732 216.914 123.2)" fill="#F37D27"/>
<circle r="1.5" transform="matrix(0.129732 0.991549 0.991549 -0.129732 218.081 132.124)" fill="#F37D27"/>
<circle r="1.5" transform="matrix(0.129732 0.991549 0.991549 -0.129732 219.249 141.048)" fill="#F37D27"/>
</g>
<g clip-path="url(#clip28_19_4)">
<circle r="1.5" transform="matrix(0.129732 0.991549 0.991549 -0.129732 210.659 6.02097)" fill="#F37D27"/>
<circle r="1.5" transform="matrix(0.129732 0.991549 0.991549 -0.129732 211.827 14.9449)" fill="#F37D27"/>
<circle r="1.5" transform="matrix(0.129732 0.991549 0.991549 -0.129732 212.994 23.8688)" fill="#F37D27"/>
<circle r="1.5" transform="matrix(0.129732 0.991549 0.991549 -0.129732 214.162 32.7928)" fill="#F37D27"/>
<circle r="1.5" transform="matrix(0.129732 0.991549 0.991549 -0.129732 215.33 41.7167)" fill="#F37D27"/>
<circle r="1.5" transform="matrix(0.129732 0.991549 0.991549 -0.129732 216.497 50.6407)" fill="#F37D27"/>
<circle r="1.5" transform="matrix(0.129732 0.991549 0.991549 -0.129732 217.665 59.5646)" fill="#F37D27"/>
<circle r="1.5" transform="matrix(0.129732 0.991549 0.991549 -0.129732 218.832 68.4885)" fill="#F37D27"/>
<circle r="1.5" transform="matrix(0.129732 0.991549 0.991549 -0.129732 220 77.4125)" fill="#F37D27"/>
<circle r="1.5" transform="matrix(0.129732 0.991549 0.991549 -0.129732 221.168 86.3364)" fill="#F37D27"/>
<circle r="1.5" transform="matrix(0.129732 0.991549 0.991549 -0.129732 222.335 95.2604)" fill="#F37D27"/>
<circle r="1.5" transform="matrix(0.129732 0.991549 0.991549 -0.129732 223.503 104.184)" fill="#F37D27"/>
<circle r="1.5" transform="matrix(0.129732 0.991549 0.991549 -0.129732 224.67 113.108)" fill="#F37D27"/>
<circle r="1.5" transform="matrix(0.129732 0.991549 0.991549 -0.129732 225.838 122.032)" fill="#F37D27"/>
<circle r="1.5" transform="matrix(0.129732 0.991549 0.991549 -0.129732 227.005 130.956)" fill="#F37D27"/>
<circle r="1.5" transform="matrix(0.129732 0.991549 0.991549 -0.129732 228.173 139.88)" fill="#F37D27"/>
<circle r="1.5" transform="matrix(0.129732 0.991549 0.991549 -0.129732 229.341 148.804)" fill="#F37D27"/>
</g>
<g clip-path="url(#clip29_19_4)">
<circle r="1.5" transform="matrix(0.129732 0.991549 0.991549 -0.129732 219.583 4.85336)" fill="#F37D27"/>
<circle r="1.5" transform="matrix(0.129732 0.991549 0.991549 -0.129732 220.751 13.7773)" fill="#F37D27"/>
<circle r="1.5" transform="matrix(0.129732 0.991549 0.991549 -0.129732 221.918 22.7012)" fill="#F37D27"/>
<circle r="1.5" transform="matrix(0.129732 0.991549 0.991549 -0.129732 223.086 31.6252)" fill="#F37D27"/>
<circle r="1.5" transform="matrix(0.129732 0.991549 0.991549 -0.129732 224.253 40.5491)" fill="#F37D27"/>
<circle r="1.5" transform="matrix(0.129732 0.991549 0.991549 -0.129732 225.421 49.4731)" fill="#F37D27"/>
<circle r="1.5" transform="matrix(0.129732 0.991549 0.991549 -0.129732 226.588 58.397)" fill="#F37D27"/>
<circle r="1.5" transform="matrix(0.129732 0.991549 0.991549 -0.129732 227.756 67.3209)" fill="#F37D27"/>
<circle r="1.5" transform="matrix(0.129732 0.991549 0.991549 -0.129732 228.924 76.2449)" fill="#F37D27"/>
<circle r="1.5" transform="matrix(0.129732 0.991549 0.991549 -0.129732 230.091 85.1688)" fill="#F37D27"/>
<circle r="1.5" transform="matrix(0.129732 0.991549 0.991549 -0.129732 231.259 94.0928)" fill="#F37D27"/>
<circle r="1.5" transform="matrix(0.129732 0.991549 0.991549 -0.129732 232.427 103.017)" fill="#F37D27"/>
<circle r="1.5" transform="matrix(0.129732 0.991549 0.991549 -0.129732 233.594 111.941)" fill="#F37D27"/>
<circle r="1.5" transform="matrix(0.129732 0.991549 0.991549 -0.129732 234.762 120.865)" fill="#F37D27"/>
<circle r="1.5" transform="matrix(0.129732 0.991549 0.991549 -0.129732 235.929 129.789)" fill="#F37D27"/>
<circle r="1.5" transform="matrix(0.129732 0.991549 0.991549 -0.129732 237.097 138.712)" fill="#F37D27"/>
<circle r="1.5" transform="matrix(0.129732 0.991549 0.991549 -0.129732 238.264 147.636)" fill="#F37D27"/>
</g>
<g clip-path="url(#clip30_19_4)">
<circle r="1.5" transform="matrix(0.129732 0.991549 0.991549 -0.129732 228.507 3.68579)" fill="#F37D27"/>
<circle r="1.5" transform="matrix(0.129732 0.991549 0.991549 -0.129732 229.675 12.6097)" fill="#F37D27"/>
<circle r="1.5" transform="matrix(0.129732 0.991549 0.991549 -0.129732 230.842 21.5337)" fill="#F37D27"/>
<circle r="1.5" transform="matrix(0.129732 0.991549 0.991549 -0.129732 232.01 30.4576)" fill="#F37D27"/>
<circle r="1.5" transform="matrix(0.129732 0.991549 0.991549 -0.129732 233.178 39.3816)" fill="#F37D27"/>
<circle r="1.5" transform="matrix(0.129732 0.991549 0.991549 -0.129732 234.345 48.3055)" fill="#F37D27"/>
<circle r="1.5" transform="matrix(0.129732 0.991549 0.991549 -0.129732 235.512 57.2295)" fill="#F37D27"/>
<circle r="1.5" transform="matrix(0.129732 0.991549 0.991549 -0.129732 236.68 66.1534)" fill="#F37D27"/>
<circle r="1.5" transform="matrix(0.129732 0.991549 0.991549 -0.129732 237.848 75.0773)" fill="#F37D27"/>
<circle r="1.5" transform="matrix(0.129732 0.991549 0.991549 -0.129732 239.015 84.0013)" fill="#F37D27"/>
<circle r="1.5" transform="matrix(0.129732 0.991549 0.991549 -0.129732 240.183 92.9252)" fill="#F37D27"/>
<circle r="1.5" transform="matrix(0.129732 0.991549 0.991549 -0.129732 241.351 101.849)" fill="#F37D27"/>
<circle r="1.5" transform="matrix(0.129732 0.991549 0.991549 -0.129732 242.518 110.773)" fill="#F37D27"/>
<circle r="1.5" transform="matrix(0.129732 0.991549 0.991549 -0.129732 243.686 119.697)" fill="#F37D27"/>
<circle r="1.5" transform="matrix(0.129732 0.991549 0.991549 -0.129732 244.853 128.621)" fill="#F37D27"/>
<circle r="1.5" transform="matrix(0.129732 0.991549 0.991549 -0.129732 246.021 137.545)" fill="#F37D27"/>
<circle r="1.5" transform="matrix(0.129732 0.991549 0.991549 -0.129732 247.189 146.469)" fill="#F37D27"/>
</g>
<g clip-path="url(#clip31_19_4)">
<circle r="1.5" transform="matrix(0.129732 0.991549 0.991549 -0.129732 237.431 2.51819)" fill="#F37D27"/>
<circle r="1.5" transform="matrix(0.129732 0.991549 0.991549 -0.129732 238.598 11.4421)" fill="#F37D27"/>
<circle r="1.5" transform="matrix(0.129732 0.991549 0.991549 -0.129732 239.766 20.3661)" fill="#F37D27"/>
<circle r="1.5" transform="matrix(0.129732 0.991549 0.991549 -0.129732 240.934 29.29)" fill="#F37D27"/>
<circle r="1.5" transform="matrix(0.129732 0.991549 0.991549 -0.129732 242.101 38.214)" fill="#F37D27"/>
<circle r="1.5" transform="matrix(0.129732 0.991549 0.991549 -0.129732 243.269 47.1379)" fill="#F37D27"/>
<circle r="1.5" transform="matrix(0.129732 0.991549 0.991549 -0.129732 244.436 56.0619)" fill="#F37D27"/>
<circle r="1.5" transform="matrix(0.129732 0.991549 0.991549 -0.129732 245.604 64.9858)" fill="#F37D27"/>
<circle r="1.5" transform="matrix(0.129732 0.991549 0.991549 -0.129732 246.772 73.9097)" fill="#F37D27"/>
<circle r="1.5" transform="matrix(0.129732 0.991549 0.991549 -0.129732 247.939 82.8337)" fill="#F37D27"/>
<circle r="1.5" transform="matrix(0.129732 0.991549 0.991549 -0.129732 249.107 91.7576)" fill="#F37D27"/>
<circle r="1.5" transform="matrix(0.129732 0.991549 0.991549 -0.129732 250.274 100.682)" fill="#F37D27"/>
<circle r="1.5" transform="matrix(0.129732 0.991549 0.991549 -0.129732 251.442 109.605)" fill="#F37D27"/>
<circle r="1.5" transform="matrix(0.129732 0.991549 0.991549 -0.129732 252.61 118.529)" fill="#F37D27"/>
<circle r="1.5" transform="matrix(0.129732 0.991549 0.991549 -0.129732 253.777 127.453)" fill="#F37D27"/>
<circle r="1.5" transform="matrix(0.129732 0.991549 0.991549 -0.129732 254.945 136.377)" fill="#F37D27"/>
<circle r="1.5" transform="matrix(0.129732 0.991549 0.991549 -0.129732 256.112 145.301)" fill="#F37D27"/>
</g>
<g clip-path="url(#clip32_19_4)">
<circle r="1.5" transform="matrix(0.129732 0.991549 0.991549 -0.129732 246.355 1.35059)" fill="#F37D27"/>
<circle r="1.5" transform="matrix(0.129732 0.991549 0.991549 -0.129732 247.522 10.2745)" fill="#F37D27"/>
<circle r="1.5" transform="matrix(0.129732 0.991549 0.991549 -0.129732 248.69 19.1985)" fill="#F37D27"/>
<circle r="1.5" transform="matrix(0.129732 0.991549 0.991549 -0.129732 249.857 28.1224)" fill="#F37D27"/>
<circle r="1.5" transform="matrix(0.129732 0.991549 0.991549 -0.129732 251.025 37.0464)" fill="#F37D27"/>
<circle r="1.5" transform="matrix(0.129732 0.991549 0.991549 -0.129732 252.193 45.9703)" fill="#F37D27"/>
<circle r="1.5" transform="matrix(0.129732 0.991549 0.991549 -0.129732 253.36 54.8943)" fill="#F37D27"/>
<circle r="1.5" transform="matrix(0.129732 0.991549 0.991549 -0.129732 254.528 63.8182)" fill="#F37D27"/>
<circle r="1.5" transform="matrix(0.129732 0.991549 0.991549 -0.129732 255.695 72.7421)" fill="#F37D27"/>
<circle r="1.5" transform="matrix(0.129732 0.991549 0.991549 -0.129732 256.863 81.6661)" fill="#F37D27"/>
<circle r="1.5" transform="matrix(0.129732 0.991549 0.991549 -0.129732 258.031 90.59)" fill="#F37D27"/>
<circle r="1.5" transform="matrix(0.129732 0.991549 0.991549 -0.129732 259.198 99.5139)" fill="#F37D27"/>
<circle r="1.5" transform="matrix(0.129732 0.991549 0.991549 -0.129732 260.366 108.438)" fill="#F37D27"/>
<circle r="1.5" transform="matrix(0.129732 0.991549 0.991549 -0.129732 261.533 117.362)" fill="#F37D27"/>
<circle r="1.5" transform="matrix(0.129732 0.991549 0.991549 -0.129732 262.701 126.286)" fill="#F37D27"/>
<circle r="1.5" transform="matrix(0.129732 0.991549 0.991549 -0.129732 263.868 135.21)" fill="#F37D27"/>
<circle r="1.5" transform="matrix(0.129732 0.991549 0.991549 -0.129732 265.036 144.134)" fill="#F37D27"/>
</g>
<g clip-path="url(#clip33_19_4)">
<circle r="1.5" transform="matrix(0.129732 0.991549 0.991549 -0.129732 255.279 0.183015)" fill="#F37D27"/>
<circle r="1.5" transform="matrix(0.129732 0.991549 0.991549 -0.129732 256.446 9.10697)" fill="#F37D27"/>
<circle r="1.5" transform="matrix(0.129732 0.991549 0.991549 -0.129732 257.614 18.0309)" fill="#F37D27"/>
<circle r="1.5" transform="matrix(0.129732 0.991549 0.991549 -0.129732 258.782 26.9548)" fill="#F37D27"/>
<circle r="1.5" transform="matrix(0.129732 0.991549 0.991549 -0.129732 259.949 35.8788)" fill="#F37D27"/>
<circle r="1.5" transform="matrix(0.129732 0.991549 0.991549 -0.129732 261.117 44.8027)" fill="#F37D27"/>
<circle r="1.5" transform="matrix(0.129732 0.991549 0.991549 -0.129732 262.284 53.7267)" fill="#F37D27"/>
<circle r="1.5" transform="matrix(0.129732 0.991549 0.991549 -0.129732 263.452 62.6506)" fill="#F37D27"/>
<circle r="1.5" transform="matrix(0.129732 0.991549 0.991549 -0.129732 264.619 71.5745)" fill="#F37D27"/>
<circle r="1.5" transform="matrix(0.129732 0.991549 0.991549 -0.129732 265.787 80.4985)" fill="#F37D27"/>
<circle r="1.5" transform="matrix(0.129732 0.991549 0.991549 -0.129732 266.955 89.4224)" fill="#F37D27"/>
<circle r="1.5" transform="matrix(0.129732 0.991549 0.991549 -0.129732 268.122 98.3464)" fill="#F37D27"/>
<circle r="1.5" transform="matrix(0.129732 0.991549 0.991549 -0.129732 269.29 107.27)" fill="#F37D27"/>
<circle r="1.5" transform="matrix(0.129732 0.991549 0.991549 -0.129732 270.458 116.194)" fill="#F37D27"/>
<circle r="1.5" transform="matrix(0.129732 0.991549 0.991549 -0.129732 271.625 125.118)" fill="#F37D27"/>
<circle r="1.5" transform="matrix(0.129732 0.991549 0.991549 -0.129732 272.793 134.042)" fill="#F37D27"/>
<circle r="1.5" transform="matrix(0.129732 0.991549 0.991549 -0.129732 273.96 142.966)" fill="#F37D27"/>
</g>
<g clip-path="url(#clip34_19_4)">
<circle r="1.5" transform="matrix(0.129732 0.991549 0.991549 -0.129732 265.37 7.93939)" fill="#F37D27"/>
<circle r="1.5" transform="matrix(0.129732 0.991549 0.991549 -0.129732 266.538 16.8633)" fill="#F37D27"/>
<circle r="1.5" transform="matrix(0.129732 0.991549 0.991549 -0.129732 267.705 25.7873)" fill="#F37D27"/>
<circle r="1.5" transform="matrix(0.129732 0.991549 0.991549 -0.129732 268.873 34.7112)" fill="#F37D27"/>
<circle r="1.5" transform="matrix(0.129732 0.991549 0.991549 -0.129732 270.041 43.6351)" fill="#F37D27"/>
<circle r="1.5" transform="matrix(0.129732 0.991549 0.991549 -0.129732 271.208 52.5591)" fill="#F37D27"/>
<circle r="1.5" transform="matrix(0.129732 0.991549 0.991549 -0.129732 272.376 61.483)" fill="#F37D27"/>
<circle r="1.5" transform="matrix(0.129732 0.991549 0.991549 -0.129732 273.543 70.407)" fill="#F37D27"/>
<circle r="1.5" transform="matrix(0.129732 0.991549 0.991549 -0.129732 274.711 79.3309)" fill="#F37D27"/>
<circle r="1.5" transform="matrix(0.129732 0.991549 0.991549 -0.129732 275.878 88.2549)" fill="#F37D27"/>
<circle r="1.5" transform="matrix(0.129732 0.991549 0.991549 -0.129732 277.046 97.1788)" fill="#F37D27"/>
<circle r="1.5" transform="matrix(0.129732 0.991549 0.991549 -0.129732 278.214 106.103)" fill="#F37D27"/>
<circle r="1.5" transform="matrix(0.129732 0.991549 0.991549 -0.129732 279.381 115.027)" fill="#F37D27"/>
<circle r="1.5" transform="matrix(0.129732 0.991549 0.991549 -0.129732 280.549 123.951)" fill="#F37D27"/>
<circle r="1.5" transform="matrix(0.129732 0.991549 0.991549 -0.129732 281.716 132.875)" fill="#F37D27"/>
<circle r="1.5" transform="matrix(0.129732 0.991549 0.991549 -0.129732 282.884 141.799)" fill="#F37D27"/>
</g>
<g clip-path="url(#clip35_19_4)">
<circle r="1.5" transform="matrix(0.129732 0.991549 0.991549 -0.129732 274.294 6.77179)" fill="#F37D27"/>
<circle r="1.5" transform="matrix(0.129732 0.991549 0.991549 -0.129732 275.462 15.6957)" fill="#F37D27"/>
<circle r="1.5" transform="matrix(0.129732 0.991549 0.991549 -0.129732 276.629 24.6197)" fill="#F37D27"/>
<circle r="1.5" transform="matrix(0.129732 0.991549 0.991549 -0.129732 277.797 33.5436)" fill="#F37D27"/>
<circle r="1.5" transform="matrix(0.129732 0.991549 0.991549 -0.129732 278.965 42.4675)" fill="#F37D27"/>
<circle r="1.5" transform="matrix(0.129732 0.991549 0.991549 -0.129732 280.132 51.3915)" fill="#F37D27"/>
<circle r="1.5" transform="matrix(0.129732 0.991549 0.991549 -0.129732 281.3 60.3154)" fill="#F37D27"/>
<circle r="1.5" transform="matrix(0.129732 0.991549 0.991549 -0.129732 282.467 69.2394)" fill="#F37D27"/>
<circle r="1.5" transform="matrix(0.129732 0.991549 0.991549 -0.129732 283.635 78.1633)" fill="#F37D27"/>
<circle r="1.5" transform="matrix(0.129732 0.991549 0.991549 -0.129732 284.803 87.0873)" fill="#F37D27"/>
<circle r="1.5" transform="matrix(0.129732 0.991549 0.991549 -0.129732 285.97 96.0112)" fill="#F37D27"/>
<circle r="1.5" transform="matrix(0.129732 0.991549 0.991549 -0.129732 287.138 104.935)" fill="#F37D27"/>
<circle r="1.5" transform="matrix(0.129732 0.991549 0.991549 -0.129732 288.305 113.859)" fill="#F37D27"/>
<circle r="1.5" transform="matrix(0.129732 0.991549 0.991549 -0.129732 289.473 122.783)" fill="#F37D27"/>
<circle r="1.5" transform="matrix(0.129732 0.991549 0.991549 -0.129732 290.64 131.707)" fill="#F37D27"/>
<circle r="1.5" transform="matrix(0.129732 0.991549 0.991549 -0.129732 291.808 140.631)" fill="#F37D27"/>
</g>
<g clip-path="url(#clip36_19_4)">
<circle r="1.5" transform="matrix(0.129732 0.991549 0.991549 -0.129732 283.218 5.60422)" fill="#F37D27"/>
<circle r="1.5" transform="matrix(0.129732 0.991549 0.991549 -0.129732 284.386 14.5281)" fill="#F37D27"/>
<circle r="1.5" transform="matrix(0.129732 0.991549 0.991549 -0.129732 285.553 23.4521)" fill="#F37D27"/>
<circle r="1.5" transform="matrix(0.129732 0.991549 0.991549 -0.129732 286.721 32.376)" fill="#F37D27"/>
<circle r="1.5" transform="matrix(0.129732 0.991549 0.991549 -0.129732 287.888 41.3)" fill="#F37D27"/>
<circle r="1.5" transform="matrix(0.129732 0.991549 0.991549 -0.129732 289.056 50.2239)" fill="#F37D27"/>
<circle r="1.5" transform="matrix(0.129732 0.991549 0.991549 -0.129732 290.224 59.1478)" fill="#F37D27"/>
<circle r="1.5" transform="matrix(0.129732 0.991549 0.991549 -0.129732 291.391 68.0718)" fill="#F37D27"/>
<circle r="1.5" transform="matrix(0.129732 0.991549 0.991549 -0.129732 292.559 76.9957)" fill="#F37D27"/>
<circle r="1.5" transform="matrix(0.129732 0.991549 0.991549 -0.129732 293.726 85.9197)" fill="#F37D27"/>
<circle r="1.5" transform="matrix(0.129732 0.991549 0.991549 -0.129732 294.894 94.8436)" fill="#F37D27"/>
<circle r="1.5" transform="matrix(0.129732 0.991549 0.991549 -0.129732 296.062 103.768)" fill="#F37D27"/>
<circle r="1.5" transform="matrix(0.129732 0.991549 0.991549 -0.129732 297.229 112.692)" fill="#F37D27"/>
<circle r="1.5" transform="matrix(0.129732 0.991549 0.991549 -0.129732 298.397 121.615)" fill="#F37D27"/>
<circle r="1.5" transform="matrix(0.129732 0.991549 0.991549 -0.129732 299.564 130.539)" fill="#F37D27"/>
<circle r="1.5" transform="matrix(0.129732 0.991549 0.991549 -0.129732 300.732 139.463)" fill="#F37D27"/>
<circle r="1.5" transform="matrix(0.129732 0.991549 0.991549 -0.129732 301.899 148.387)" fill="#F37D27"/>
</g>
<g clip-path="url(#clip37_19_4)">
<circle r="1.5" transform="matrix(0.129732 0.991549 0.991549 -0.129732 292.142 4.43662)" fill="#F37D27"/>
<circle r="1.5" transform="matrix(0.129732 0.991549 0.991549 -0.129732 293.31 13.3605)" fill="#F37D27"/>
<circle r="1.5" transform="matrix(0.129732 0.991549 0.991549 -0.129732 294.477 22.2845)" fill="#F37D27"/>
<circle r="1.5" transform="matrix(0.129732 0.991549 0.991549 -0.129732 295.645 31.2084)" fill="#F37D27"/>
<circle r="1.5" transform="matrix(0.129732 0.991549 0.991549 -0.129732 296.813 40.1324)" fill="#F37D27"/>
<circle r="1.5" transform="matrix(0.129732 0.991549 0.991549 -0.129732 297.98 49.0563)" fill="#F37D27"/>
<circle r="1.5" transform="matrix(0.129732 0.991549 0.991549 -0.129732 299.148 57.9802)" fill="#F37D27"/>
<circle r="1.5" transform="matrix(0.129732 0.991549 0.991549 -0.129732 300.315 66.9042)" fill="#F37D27"/>
<circle r="1.5" transform="matrix(0.129732 0.991549 0.991549 -0.129732 301.483 75.8281)" fill="#F37D27"/>
<circle r="1.5" transform="matrix(0.129732 0.991549 0.991549 -0.129732 302.65 84.7521)" fill="#F37D27"/>
<circle r="1.5" transform="matrix(0.129732 0.991549 0.991549 -0.129732 303.818 93.676)" fill="#F37D27"/>
<circle r="1.5" transform="matrix(0.129732 0.991549 0.991549 -0.129732 304.986 102.6)" fill="#F37D27"/>
<circle r="1.5" transform="matrix(0.129732 0.991549 0.991549 -0.129732 306.153 111.524)" fill="#F37D27"/>
<circle r="1.5" transform="matrix(0.129732 0.991549 0.991549 -0.129732 307.321 120.448)" fill="#F37D27"/>
<circle r="1.5" transform="matrix(0.129732 0.991549 0.991549 -0.129732 308.488 129.372)" fill="#F37D27"/>
<circle r="1.5" transform="matrix(0.129732 0.991549 0.991549 -0.129732 309.656 138.296)" fill="#F37D27"/>
<circle r="1.5" transform="matrix(0.129732 0.991549 0.991549 -0.129732 310.824 147.22)" fill="#F37D27"/>
</g>
<g clip-path="url(#clip38_19_4)">
<circle r="1.5" transform="matrix(0.129732 0.991549 0.991549 -0.129732 301.066 3.26901)" fill="#F37D27"/>
<circle r="1.5" transform="matrix(0.129732 0.991549 0.991549 -0.129732 302.234 12.1929)" fill="#F37D27"/>
<circle r="1.5" transform="matrix(0.129732 0.991549 0.991549 -0.129732 303.401 21.1169)" fill="#F37D27"/>
<circle r="1.5" transform="matrix(0.129732 0.991549 0.991549 -0.129732 304.569 30.0408)" fill="#F37D27"/>
<circle r="1.5" transform="matrix(0.129732 0.991549 0.991549 -0.129732 305.736 38.9648)" fill="#F37D27"/>
<circle r="1.5" transform="matrix(0.129732 0.991549 0.991549 -0.129732 306.904 47.8887)" fill="#F37D27"/>
<circle r="1.5" transform="matrix(0.129732 0.991549 0.991549 -0.129732 308.072 56.8126)" fill="#F37D27"/>
<circle r="1.5" transform="matrix(0.129732 0.991549 0.991549 -0.129732 309.239 65.7366)" fill="#F37D27"/>
<circle r="1.5" transform="matrix(0.129732 0.991549 0.991549 -0.129732 310.407 74.6605)" fill="#F37D27"/>
<circle r="1.5" transform="matrix(0.129732 0.991549 0.991549 -0.129732 311.574 83.5845)" fill="#F37D27"/>
<circle r="1.5" transform="matrix(0.129732 0.991549 0.991549 -0.129732 312.742 92.5084)" fill="#F37D27"/>
<circle r="1.5" transform="matrix(0.129732 0.991549 0.991549 -0.129732 313.909 101.432)" fill="#F37D27"/>
<circle r="1.5" transform="matrix(0.129732 0.991549 0.991549 -0.129732 315.077 110.356)" fill="#F37D27"/>
<circle r="1.5" transform="matrix(0.129732 0.991549 0.991549 -0.129732 316.245 119.28)" fill="#F37D27"/>
<circle r="1.5" transform="matrix(0.129732 0.991549 0.991549 -0.129732 317.412 128.204)" fill="#F37D27"/>
<circle r="1.5" transform="matrix(0.129732 0.991549 0.991549 -0.129732 318.58 137.128)" fill="#F37D27"/>
<circle r="1.5" transform="matrix(0.129732 0.991549 0.991549 -0.129732 319.747 146.052)" fill="#F37D27"/>
</g>
<g clip-path="url(#clip39_19_4)">
<circle r="1.5" transform="matrix(0.129732 0.991549 0.991549 -0.129732 309.99 2.10144)" fill="#F37D27"/>
<circle r="1.5" transform="matrix(0.129732 0.991549 0.991549 -0.129732 311.158 11.0254)" fill="#F37D27"/>
<circle r="1.5" transform="matrix(0.129732 0.991549 0.991549 -0.129732 312.325 19.9493)" fill="#F37D27"/>
<circle r="1.5" transform="matrix(0.129732 0.991549 0.991549 -0.129732 313.493 28.8733)" fill="#F37D27"/>
<circle r="1.5" transform="matrix(0.129732 0.991549 0.991549 -0.129732 314.66 37.7972)" fill="#F37D27"/>
<circle r="1.5" transform="matrix(0.129732 0.991549 0.991549 -0.129732 315.828 46.7212)" fill="#F37D27"/>
<circle r="1.5" transform="matrix(0.129732 0.991549 0.991549 -0.129732 316.996 55.6451)" fill="#F37D27"/>
<circle r="1.5" transform="matrix(0.129732 0.991549 0.991549 -0.129732 318.163 64.569)" fill="#F37D27"/>
<circle r="1.5" transform="matrix(0.129732 0.991549 0.991549 -0.129732 319.331 73.493)" fill="#F37D27"/>
<circle r="1.5" transform="matrix(0.129732 0.991549 0.991549 -0.129732 320.498 82.4169)" fill="#F37D27"/>
<circle r="1.5" transform="matrix(0.129732 0.991549 0.991549 -0.129732 321.666 91.3408)" fill="#F37D27"/>
<circle r="1.5" transform="matrix(0.129732 0.991549 0.991549 -0.129732 322.834 100.265)" fill="#F37D27"/>
<circle r="1.5" transform="matrix(0.129732 0.991549 0.991549 -0.129732 324.001 109.189)" fill="#F37D27"/>
<circle r="1.5" transform="matrix(0.129732 0.991549 0.991549 -0.129732 325.169 118.113)" fill="#F37D27"/>
<circle r="1.5" transform="matrix(0.129732 0.991549 0.991549 -0.129732 326.336 127.037)" fill="#F37D27"/>
<circle r="1.5" transform="matrix(0.129732 0.991549 0.991549 -0.129732 327.504 135.961)" fill="#F37D27"/>
<circle r="1.5" transform="matrix(0.129732 0.991549 0.991549 -0.129732 328.671 144.885)" fill="#F37D27"/>
</g>
<g clip-path="url(#clip40_19_4)">
<circle r="1.5" transform="matrix(0.129732 0.991549 0.991549 -0.129732 318.914 0.933839)" fill="#F37D27"/>
<circle r="1.5" transform="matrix(0.129732 0.991549 0.991549 -0.129732 320.082 9.85776)" fill="#F37D27"/>
<circle r="1.5" transform="matrix(0.129732 0.991549 0.991549 -0.129732 321.249 18.7817)" fill="#F37D27"/>
<circle r="1.5" transform="matrix(0.129732 0.991549 0.991549 -0.129732 322.417 27.7057)" fill="#F37D27"/>
<circle r="1.5" transform="matrix(0.129732 0.991549 0.991549 -0.129732 323.584 36.6296)" fill="#F37D27"/>
<circle r="1.5" transform="matrix(0.129732 0.991549 0.991549 -0.129732 324.752 45.5536)" fill="#F37D27"/>
<circle r="1.5" transform="matrix(0.129732 0.991549 0.991549 -0.129732 325.919 54.4775)" fill="#F37D27"/>
<circle r="1.5" transform="matrix(0.129732 0.991549 0.991549 -0.129732 327.087 63.4014)" fill="#F37D27"/>
<circle r="1.5" transform="matrix(0.129732 0.991549 0.991549 -0.129732 328.255 72.3254)" fill="#F37D27"/>
<circle r="1.5" transform="matrix(0.129732 0.991549 0.991549 -0.129732 329.422 81.2493)" fill="#F37D27"/>
<circle r="1.5" transform="matrix(0.129732 0.991549 0.991549 -0.129732 330.59 90.1732)" fill="#F37D27"/>
<circle r="1.5" transform="matrix(0.129732 0.991549 0.991549 -0.129732 331.757 99.0972)" fill="#F37D27"/>
<circle r="1.5" transform="matrix(0.129732 0.991549 0.991549 -0.129732 332.925 108.021)" fill="#F37D27"/>
<circle r="1.5" transform="matrix(0.129732 0.991549 0.991549 -0.129732 334.093 116.945)" fill="#F37D27"/>
<circle r="1.5" transform="matrix(0.129732 0.991549 0.991549 -0.129732 335.26 125.869)" fill="#F37D27"/>
<circle r="1.5" transform="matrix(0.129732 0.991549 0.991549 -0.129732 336.428 134.793)" fill="#F37D27"/>
</g>
<g clip-path="url(#clip41_19_4)">
<circle r="1.5" transform="matrix(0.129732 0.991549 0.991549 -0.129732 327.838 -0.233733)" fill="#F37D27"/>
<circle r="1.5" transform="matrix(0.129732 0.991549 0.991549 -0.129732 329.006 8.69019)" fill="#F37D27"/>
<circle r="1.5" transform="matrix(0.129732 0.991549 0.991549 -0.129732 330.173 17.6141)" fill="#F37D27"/>
<circle r="1.5" transform="matrix(0.129732 0.991549 0.991549 -0.129732 331.341 26.5381)" fill="#F37D27"/>
<circle r="1.5" transform="matrix(0.129732 0.991549 0.991549 -0.129732 332.508 35.462)" fill="#F37D27"/>
<circle r="1.5" transform="matrix(0.129732 0.991549 0.991549 -0.129732 333.676 44.386)" fill="#F37D27"/>
<circle r="1.5" transform="matrix(0.129732 0.991549 0.991549 -0.129732 334.844 53.3099)" fill="#F37D27"/>
<circle r="1.5" transform="matrix(0.129732 0.991549 0.991549 -0.129732 336.011 62.2338)" fill="#F37D27"/>
</g>
<g clip-path="url(#clip42_19_4)">
</g>
<g clip-path="url(#clip43_19_4)">
</g>
<g clip-path="url(#clip44_19_4)">
</g>
</g>
</mask>
<g mask="url(#mask2_19_4)">
<path fill-rule="evenodd" clip-rule="evenodd" d="M-4.4496 65.6329C2.49924 120.557 47.5147 163.473 98.3243 185.458C141.985 204.35 189.419 187.652 232.891 168.329C271.889 150.994 314.304 127.771 322.382 85.8649C329.874 46.9989 284.995 22.7252 267.834 -12.9426C243.631 -63.2469 257.914 -142.567 204.567 -159.008C150.127 -175.786 104.132 -117.06 65.327 -75.3549C27.7471 -34.9657 -11.3741 10.901 -4.4496 65.6329Z" fill="#F37D27"/>
</g>
</mask>
<g mask="url(#mask1_19_4)">
<path d="M196.441 135.405L315.641 70.1268C321.173 67.0768 320.39 58.9539 314.378 57.0163L184.906 15.7007C180.004 14.0876 175.139 18.0802 175.627 23.1392L178.721 55.9936C179.064 59.5562 181.996 62.366 185.599 62.4502L287.577 66.215L188.188 89.3125C184.673 90.1546 182.332 93.4725 182.676 97.0352L185.912 129.876C186.4 134.935 191.938 137.925 196.441 135.405Z" fill="#EDEDED"/>
<path d="M25.541 102.844C127.644 149.892 135.127 38.7955 104.067 46.745C73.0072 54.6945 92.9213 138.014 164.374 93.5881" stroke="#80EF7E" stroke-width="7.38219" stroke-linecap="round" stroke-linejoin="round"/>
</g>
</g>
<defs>
<clipPath id="clip0_19_4">
<rect width="370.658" height="370.658" fill="white" transform="matrix(0.129732 0.991549 0.991549 -0.129732 -55.321 -142.226)"/>
</clipPath>
<clipPath id="clip1_19_4">
<rect width="600" height="9" fill="white" transform="matrix(0.129732 0.991549 0.991549 -0.129732 -55.321 -142.226)"/>
</clipPath>
<clipPath id="clip2_19_4">
<rect width="600" height="9" fill="white" transform="matrix(0.129732 0.991549 0.991549 -0.129732 -46.3972 -143.393)"/>
</clipPath>
<clipPath id="clip3_19_4">
<rect width="600" height="9" fill="white" transform="matrix(0.129732 0.991549 0.991549 -0.129732 -37.4731 -144.561)"/>
</clipPath>
<clipPath id="clip4_19_4">
<rect width="600" height="9" fill="white" transform="matrix(0.129732 0.991549 0.991549 -0.129732 -28.5493 -145.729)"/>
</clipPath>
<clipPath id="clip5_19_4">
<rect width="600" height="9" fill="white" transform="matrix(0.129732 0.991549 0.991549 -0.129732 -19.6252 -146.896)"/>
</clipPath>
<clipPath id="clip6_19_4">
<rect width="600" height="9" fill="white" transform="matrix(0.129732 0.991549 0.991549 -0.129732 -10.7014 -148.064)"/>
</clipPath>
<clipPath id="clip7_19_4">
<rect width="600" height="9" fill="white" transform="matrix(0.129732 0.991549 0.991549 -0.129732 -1.77734 -149.231)"/>
</clipPath>
<clipPath id="clip8_19_4">
<rect width="600" height="9" fill="white" transform="matrix(0.129732 0.991549 0.991549 -0.129732 7.14648 -150.399)"/>
</clipPath>
<clipPath id="clip9_19_4">
<rect width="600" height="9" fill="white" transform="matrix(0.129732 0.991549 0.991549 -0.129732 16.0706 -151.566)"/>
</clipPath>
<clipPath id="clip10_19_4">
<rect width="600" height="9" fill="white" transform="matrix(0.129732 0.991549 0.991549 -0.129732 24.9944 -152.734)"/>
</clipPath>
<clipPath id="clip11_19_4">
<rect width="600" height="9" fill="white" transform="matrix(0.129732 0.991549 0.991549 -0.129732 33.9185 -153.902)"/>
</clipPath>
<clipPath id="clip12_19_4">
<rect width="600" height="9" fill="white" transform="matrix(0.129732 0.991549 0.991549 -0.129732 42.8423 -155.069)"/>
</clipPath>
<clipPath id="clip13_19_4">
<rect width="600" height="9" fill="white" transform="matrix(0.129732 0.991549 0.991549 -0.129732 51.7664 -156.237)"/>
</clipPath>
<clipPath id="clip14_19_4">
<rect width="600" height="9" fill="white" transform="matrix(0.129732 0.991549 0.991549 -0.129732 60.6902 -157.404)"/>
</clipPath>
<clipPath id="clip15_19_4">
<rect width="600" height="9" fill="white" transform="matrix(0.129732 0.991549 0.991549 -0.129732 69.6143 -158.572)"/>
</clipPath>
<clipPath id="clip16_19_4">
<rect width="600" height="9" fill="white" transform="matrix(0.129732 0.991549 0.991549 -0.129732 78.5381 -159.74)"/>
</clipPath>
<clipPath id="clip17_19_4">
<rect width="600" height="9" fill="white" transform="matrix(0.129732 0.991549 0.991549 -0.129732 87.4619 -160.907)"/>
</clipPath>
<clipPath id="clip18_19_4">
<rect width="600" height="9" fill="white" transform="matrix(0.129732 0.991549 0.991549 -0.129732 96.386 -162.075)"/>
</clipPath>
<clipPath id="clip19_19_4">
<rect width="600" height="9" fill="white" transform="matrix(0.129732 0.991549 0.991549 -0.129732 105.31 -163.242)"/>
</clipPath>
<clipPath id="clip20_19_4">
<rect width="600" height="9" fill="white" transform="matrix(0.129732 0.991549 0.991549 -0.129732 114.234 -164.41)"/>
</clipPath>
<clipPath id="clip21_19_4">
<rect width="600" height="9" fill="white" transform="matrix(0.129732 0.991549 0.991549 -0.129732 123.158 -165.578)"/>
</clipPath>
<clipPath id="clip22_19_4">
<rect width="600" height="9" fill="white" transform="matrix(0.129732 0.991549 0.991549 -0.129732 132.082 -166.745)"/>
</clipPath>
<clipPath id="clip23_19_4">
<rect width="600" height="9" fill="white" transform="matrix(0.129732 0.991549 0.991549 -0.129732 141.006 -167.913)"/>
</clipPath>
<clipPath id="clip24_19_4">
<rect width="600" height="9" fill="white" transform="matrix(0.129732 0.991549 0.991549 -0.129732 149.93 -169.08)"/>
</clipPath>
<clipPath id="clip25_19_4">
<rect width="600" height="9" fill="white" transform="matrix(0.129732 0.991549 0.991549 -0.129732 158.854 -170.248)"/>
</clipPath>
<clipPath id="clip26_19_4">
<rect width="600" height="9" fill="white" transform="matrix(0.129732 0.991549 0.991549 -0.129732 167.778 -171.415)"/>
</clipPath>
<clipPath id="clip27_19_4">
<rect width="600" height="9" fill="white" transform="matrix(0.129732 0.991549 0.991549 -0.129732 176.701 -172.583)"/>
</clipPath>
<clipPath id="clip28_19_4">
<rect width="600" height="9" fill="white" transform="matrix(0.129732 0.991549 0.991549 -0.129732 185.625 -173.751)"/>
</clipPath>
<clipPath id="clip29_19_4">
<rect width="600" height="9" fill="white" transform="matrix(0.129732 0.991549 0.991549 -0.129732 194.549 -174.918)"/>
</clipPath>
<clipPath id="clip30_19_4">
<rect width="600" height="9" fill="white" transform="matrix(0.129732 0.991549 0.991549 -0.129732 203.473 -176.086)"/>
</clipPath>
<clipPath id="clip31_19_4">
<rect width="600" height="9" fill="white" transform="matrix(0.129732 0.991549 0.991549 -0.129732 212.397 -177.253)"/>
</clipPath>
<clipPath id="clip32_19_4">
<rect width="600" height="9" fill="white" transform="matrix(0.129732 0.991549 0.991549 -0.129732 221.321 -178.421)"/>
</clipPath>
<clipPath id="clip33_19_4">
<rect width="600" height="9" fill="white" transform="matrix(0.129732 0.991549 0.991549 -0.129732 230.245 -179.589)"/>
</clipPath>
<clipPath id="clip34_19_4">
<rect width="600" height="9" fill="white" transform="matrix(0.129732 0.991549 0.991549 -0.129732 239.169 -180.756)"/>
</clipPath>
<clipPath id="clip35_19_4">
<rect width="600" height="9" fill="white" transform="matrix(0.129732 0.991549 0.991549 -0.129732 248.093 -181.924)"/>
</clipPath>
<clipPath id="clip36_19_4">
<rect width="600" height="9" fill="white" transform="matrix(0.129732 0.991549 0.991549 -0.129732 257.017 -183.091)"/>
</clipPath>
<clipPath id="clip37_19_4">
<rect width="600" height="9" fill="white" transform="matrix(0.129732 0.991549 0.991549 -0.129732 265.941 -184.259)"/>
</clipPath>
<clipPath id="clip38_19_4">
<rect width="600" height="9" fill="white" transform="matrix(0.129732 0.991549 0.991549 -0.129732 274.865 -185.427)"/>
</clipPath>
<clipPath id="clip39_19_4">
<rect width="600" height="9" fill="white" transform="matrix(0.129732 0.991549 0.991549 -0.129732 283.789 -186.594)"/>
</clipPath>
<clipPath id="clip40_19_4">
<rect width="600" height="9" fill="white" transform="matrix(0.129732 0.991549 0.991549 -0.129732 292.713 -187.762)"/>
</clipPath>
<clipPath id="clip41_19_4">
<rect width="600" height="9" fill="white" transform="matrix(0.129732 0.991549 0.991549 -0.129732 301.637 -188.929)"/>
</clipPath>
<clipPath id="clip42_19_4">
<rect width="600" height="9" fill="white" transform="matrix(0.129732 0.991549 0.991549 -0.129732 310.561 -190.097)"/>
</clipPath>
<clipPath id="clip43_19_4">
<rect width="600" height="9" fill="white" transform="matrix(0.129732 0.991549 0.991549 -0.129732 319.485 -191.264)"/>
</clipPath>
<clipPath id="clip44_19_4">
<rect width="600" height="9" fill="white" transform="matrix(0.129732 0.991549 0.991549 -0.129732 328.408 -192.432)"/>
</clipPath>
</defs>
</svg>
