<svg width="184" height="43" viewBox="0 0 184 43" fill="none" xmlns="http://www.w3.org/2000/svg">
<rect width="183.779" height="42.894" rx="1" fill="#EDEDED"/>
<path d="M36.9397 36.7179L66.073 25.5128C66.7133 25.2567 67.0974 24.6805 67.0974 24.0402V18.8538C67.0974 18.2135 66.7133 17.6372 66.073 17.3811L36.9397 6.17601C35.6591 5.66378 34.7627 6.30407 34.7627 7.64868V13.0912C34.7627 13.7955 35.2109 14.3718 35.8512 14.6279L46.6081 18.0214L56.1484 21.2869V21.6071L46.6081 24.8085L35.8512 28.2661C35.2109 28.5222 34.7627 29.0985 34.7627 29.8028V35.2453C34.7627 36.5899 35.6591 37.2302 36.9397 36.7179Z" fill="#121212"/>
<path d="M7.91779 25.8446C9.32978 25.7542 11.2713 25.6639 12.7892 25.6639H30.6155C31.5686 25.6639 32.8394 25.7542 33.7925 25.8446C34.3573 25.8897 34.7103 25.4381 34.7103 24.7155V18.9349C34.7103 18.2123 34.322 17.7607 33.7572 17.8058C32.8394 17.8962 31.6745 18.0316 30.6155 18.0316H12.7892C11.4831 18.0316 9.40038 17.8962 7.95309 17.8058C7.3883 17.7607 7 18.2123 7 18.9349V24.7155C7 25.3929 7.3883 25.8446 7.91779 25.8446Z" fill="#121212"/>
<path d="M73.6698 35.5764V30.4898H85.7807C86.3729 30.4898 86.9111 30.3418 87.3956 30.0458C87.88 29.7496 88.2703 29.3594 88.5663 28.875C88.8623 28.3637 89.0103 27.812 89.0103 27.2198C89.0103 26.6008 88.8623 26.0491 88.5663 25.5646C88.2703 25.0533 87.88 24.6496 87.3956 24.3536C86.9111 24.0574 86.3729 23.9094 85.7807 23.9094H81.0575C79.4696 23.9094 78.0297 23.5865 76.7379 22.9406C75.446 22.2947 74.4099 21.3662 73.6294 20.1551C72.8758 18.917 72.499 17.4368 72.499 15.7143C72.499 14.0189 72.8624 12.552 73.589 11.3141C74.3157 10.0491 75.298 9.06672 76.536 8.36698C77.774 7.66725 79.1466 7.31738 80.6538 7.31738H92.9262V12.404H81.219C80.6807 12.404 80.1828 12.552 79.7253 12.848C79.2677 13.1173 78.9044 13.4805 78.6353 13.9381C78.393 14.3956 78.2719 14.9069 78.2719 15.4722C78.2719 16.0373 78.393 16.5487 78.6353 17.0063C78.9044 17.4637 79.2677 17.8271 79.7253 18.0962C80.1828 18.3653 80.6807 18.4999 81.219 18.4999H86.1037C87.8532 18.4999 89.3737 18.8364 90.6655 19.5092C91.9574 20.182 92.9532 21.1239 93.6529 22.335C94.3796 23.5462 94.743 24.959 94.743 26.5739C94.743 28.4848 94.3662 30.113 93.6126 31.4586C92.8859 32.8044 91.8902 33.8271 90.6252 34.5268C89.3871 35.2266 88.0146 35.5764 86.5074 35.5764H73.6698ZM106.207 35.5764C104.646 35.5764 103.22 35.1996 101.928 34.4461C100.663 33.6925 99.6536 32.6832 98.9001 31.4183C98.1465 30.1264 97.7697 28.7 97.7697 27.139C97.7697 26.0088 98.012 24.9456 98.4963 23.9499C98.9808 22.954 99.6402 22.0793 100.474 21.3257C99.6402 20.5722 98.9808 19.6975 98.4963 18.7017C98.012 17.706 97.7697 16.6564 97.7697 15.5529C97.7697 14.0189 98.1331 12.6328 98.8597 11.3947C99.6133 10.1568 100.609 9.17441 101.847 8.44776C103.112 7.69417 104.498 7.31738 106.005 7.31738H117.632V12.404H106.651C106.086 12.404 105.561 12.552 105.077 12.848C104.619 13.1173 104.242 13.494 103.946 13.9784C103.677 14.436 103.543 14.9608 103.543 15.5529C103.543 16.1181 103.677 16.6429 103.946 17.1273C104.242 17.5849 104.619 17.9616 105.077 18.2577C105.561 18.5268 106.086 18.6614 106.651 18.6614H116.259V23.748H106.893C106.274 23.748 105.709 23.9094 105.198 24.2324C104.687 24.5285 104.283 24.9321 103.987 25.4435C103.691 25.9549 103.543 26.5201 103.543 27.139C103.543 27.7581 103.691 28.3232 103.987 28.8346C104.283 29.3459 104.687 29.7496 105.198 30.0458C105.709 30.3418 106.274 30.4898 106.893 30.4898H117.632V35.5764H106.207ZM120.872 27.7446V22.6984H132.297V27.7446H120.872ZM140.705 35.5764C139.629 35.5764 138.687 35.3476 137.879 34.8901C137.072 34.4057 136.439 33.7732 135.982 32.9927C135.551 32.2122 135.336 31.3376 135.336 30.3687C135.336 29.4536 135.565 28.5656 136.022 27.7043C136.507 26.843 137.126 26.1433 137.879 25.6051L146.559 19.3881C147.151 18.9575 147.595 18.446 147.891 17.854C148.187 17.2618 148.335 16.6429 148.335 15.997C148.335 15.2434 148.174 14.6109 147.851 14.0996C147.528 13.5613 147.07 13.1442 146.478 12.848C145.886 12.552 145.173 12.404 144.339 12.404H136.87V7.31738H145.025C146.882 7.31738 148.483 7.70756 149.829 8.48806C151.174 9.26857 152.211 10.3182 152.937 11.637C153.691 12.9288 154.068 14.3821 154.068 15.997C154.068 17.6117 153.745 19.0382 153.099 20.2761C152.48 21.4873 151.457 22.5772 150.031 23.5462L141.351 29.4402C141.297 29.4671 141.23 29.5344 141.149 29.6421C141.068 29.7227 141.028 29.8304 141.028 29.965C141.028 30.1533 141.082 30.288 141.19 30.3687C141.297 30.4494 141.445 30.4898 141.634 30.4898H154.915V35.5764H140.705ZM158.976 35.5764L170.804 13.6555C170.939 13.3864 171.006 13.1576 171.006 12.9692C171.006 12.8077 170.952 12.6731 170.844 12.5655C170.737 12.4578 170.589 12.404 170.4 12.404H157.522V7.31738H171.127C172.176 7.31738 173.119 7.55956 173.953 8.04404C174.814 8.52853 175.5 9.17441 176.012 9.98184C176.523 10.7623 176.779 11.6504 176.779 12.6462C176.779 13.1845 176.711 13.7228 176.577 14.261C176.442 14.7724 176.267 15.2568 176.052 15.7143L165.515 35.5764H158.976Z" fill="#121212"/>
</svg>
