<svg width="1120" height="554" viewBox="0 0 1120 554" fill="none" xmlns="http://www.w3.org/2000/svg">
<g clip-path="url(#clip0_798_6410)">
<g clip-path="url(#clip1_798_6410)">
<path fill-rule="evenodd" clip-rule="evenodd" d="M29.2196 260.278C31.2939 258.895 33.23 259.448 34.6129 261.384C37.9319 265.671 41.804 267.607 45.6761 267.607C53.2821 267.607 57.4308 263.735 57.4308 251.013V191.686C57.4308 189.612 58.8136 188.229 60.888 188.229H77.4828C79.5571 188.229 80.9401 189.612 80.9401 191.686V252.949C80.9401 272.033 70.8449 287.798 48.8568 287.798C34.7512 287.798 25.2092 282.819 18.1564 272.448C17.0501 270.926 17.4649 269.129 18.9861 268.022L29.2196 260.278ZM18.3899 267.219L28.64 259.463L28.6649 259.446C29.8787 258.637 31.1582 258.331 32.3964 258.611C33.6119 258.886 34.6276 259.691 35.415 260.787C38.5836 264.873 42.1799 266.607 45.6761 266.607C49.3115 266.607 51.89 265.689 53.616 263.467C55.3947 261.178 56.4308 257.31 56.4308 251.013V191.686C56.4308 190.422 56.8566 189.29 57.6744 188.473C58.4922 187.655 59.6236 187.229 60.888 187.229H77.4828C78.7472 187.229 79.8786 187.655 80.6964 188.473C81.5142 189.29 81.9401 190.422 81.9401 191.686V252.949C81.9401 262.654 79.374 271.616 73.9122 278.17C68.4281 284.751 60.1119 288.798 48.8568 288.798C41.6857 288.798 35.6116 287.532 30.4109 284.905C25.21 282.277 20.942 278.319 17.3379 273.022C16.6389 272.054 16.3924 270.948 16.6054 269.883C16.8165 268.828 17.461 267.898 18.3899 267.219ZM143.357 281.814L143.347 281.822C137.687 286.067 131.259 288.798 123.94 288.798C116.763 288.798 110.96 286.135 106.956 281.804C102.962 277.483 100.813 271.561 100.813 265.118C100.813 257.277 103.789 251.056 110.252 246.398C116.642 241.793 126.381 238.758 139.846 237.022C140.602 236.913 141.173 236.572 141.485 236.162C141.776 235.782 141.902 235.274 141.667 234.616L141.662 234.601L141.657 234.586C141.1 232.855 140.1 231.503 138.576 230.568C137.035 229.622 134.882 229.056 131.96 229.056C127.074 229.056 122.126 230.637 116.121 233.913L116.105 233.921L116.089 233.929C114.934 234.507 113.7 234.667 112.566 234.32C111.429 233.971 110.504 233.147 109.913 231.972L104.943 222.584C104.943 222.583 104.942 222.582 104.941 222.581C104.353 221.486 104.19 220.313 104.521 219.226C104.852 218.139 105.641 217.254 106.732 216.666C115.814 211.776 125.659 208.387 136.386 208.387C146.249 208.387 154.128 211.139 159.526 217.026C164.909 222.897 167.671 231.721 167.671 243.545V282.543C167.671 283.807 167.245 284.939 166.428 285.756C165.61 286.574 164.478 287 163.214 287H150.215C148.252 287 146.456 285.736 145.926 283.615L145.649 282.509C145.412 281.561 145.049 281.311 144.856 281.251C144.635 281.183 144.147 281.207 143.357 281.814ZM105.824 222.11C104.856 220.312 105.409 218.514 107.207 217.546C116.195 212.706 125.876 209.387 136.386 209.387C155.746 209.387 166.671 220.174 166.671 243.545V282.543C166.671 284.617 165.288 286 163.214 286H150.215C148.693 286 147.311 285.032 146.896 283.372L146.619 282.266C146.066 280.053 144.545 279.639 142.747 281.022C137.215 285.17 130.992 287.798 123.94 287.798C110.111 287.798 101.813 277.564 101.813 265.118C101.813 250.045 113.153 241.471 139.981 238.013C141.917 237.737 143.3 236.216 142.609 234.279C141.364 230.407 138.045 228.056 131.96 228.056C126.844 228.056 121.727 229.716 115.642 233.035C113.706 234.003 111.77 233.45 110.802 231.514L105.824 222.11ZM142.033 263.589L142.04 263.581C142.072 263.549 142.145 263.454 142.208 263.307C142.27 263.164 142.3 263.021 142.3 262.906V254.193C142.3 253.742 142.149 253.482 141.985 253.338C141.819 253.194 141.531 253.072 141.076 253.111C134.725 254.139 130.663 255.659 128.209 257.44C125.808 259.182 124.94 261.17 124.94 263.32C124.94 265.187 125.615 266.466 126.737 267.31C127.9 268.186 129.663 268.682 131.96 268.682C136.003 268.682 138.802 266.954 142.026 263.596L142.033 263.589ZM140.949 252.119C128.088 254.193 123.94 258.342 123.94 263.32C123.94 267.607 127.12 269.682 131.96 269.682C136.386 269.682 139.428 267.746 142.747 264.288C143.024 264.012 143.3 263.459 143.3 262.906V254.193C143.3 252.81 142.332 251.981 140.949 252.119ZM210.294 215.887C210.847 218.791 212.507 219.344 214.719 217.408C219.974 212.845 226.059 209.387 234.218 209.387C242.654 209.387 248.324 212.153 252.196 217.546C253.994 219.897 256.068 220.312 258.281 218.238C263.674 213.259 269.897 209.387 278.056 209.387C294.374 209.387 301.427 221.142 301.427 239.811V282.543C301.427 284.617 300.044 286 297.97 286H281.513C279.439 286 278.056 284.617 278.056 282.543V242.577C278.056 232.343 275.429 229.439 269.482 229.439C266.44 229.439 262.568 231.237 258.557 235.109C258.004 235.662 257.589 236.63 257.589 237.46V282.543C257.589 284.617 256.206 286 254.132 286H237.537C235.463 286 234.08 284.617 234.08 282.543V242.577C234.08 232.343 231.452 229.439 225.506 229.439C222.325 229.439 218.592 231.237 214.581 235.109C214.028 235.662 213.613 236.63 213.613 237.46V282.543C213.613 284.617 212.23 286 210.156 286H193.699C191.625 286 190.242 284.617 190.242 282.543V214.642C190.242 212.568 191.625 211.185 193.699 211.185H206.422C208.22 211.185 209.603 212.291 209.879 213.951L210.294 215.887ZM210.862 213.762L211.274 215.689L211.276 215.7C211.537 217.069 211.985 217.441 212.207 217.516C212.432 217.593 213.017 217.569 214.061 216.656L214.064 216.653C219.426 211.997 225.735 208.387 234.218 208.387C242.905 208.387 248.905 211.256 252.999 216.95C253.815 218.014 254.569 218.473 255.217 218.561C255.837 218.645 256.622 218.422 257.597 217.508L257.602 217.503C263.085 212.442 269.54 208.387 278.056 208.387C286.487 208.387 292.654 211.442 296.672 217.013C300.65 222.528 302.427 230.378 302.427 239.811V282.543C302.427 283.807 302.001 284.939 301.184 285.756C300.366 286.574 299.234 287 297.97 287H281.513C280.249 287 279.118 286.574 278.3 285.756C277.482 284.939 277.056 283.807 277.056 282.543V242.577C277.056 237.486 276.39 234.477 275.179 232.743C274.044 231.118 272.295 230.439 269.482 230.439C266.808 230.439 263.175 232.043 259.259 235.822C258.894 236.191 258.589 236.901 258.589 237.46V282.543C258.589 283.807 258.163 284.939 257.346 285.756C256.528 286.574 255.396 287 254.132 287H237.537C236.273 287 235.141 286.574 234.324 285.756C233.506 284.939 233.08 283.807 233.08 282.543V242.577C233.08 237.486 232.414 234.477 231.203 232.743C230.068 231.118 228.318 230.439 225.506 230.439C222.698 230.439 219.204 232.038 215.283 235.822C214.917 236.191 214.613 236.901 214.613 237.46V282.543C214.613 283.807 214.187 284.939 213.369 285.756C212.552 286.574 211.42 287 210.156 287H193.699C192.435 287 191.304 286.574 190.486 285.756C189.668 284.939 189.242 283.807 189.242 282.543V214.642C189.242 213.378 189.668 212.247 190.486 211.429C191.304 210.611 192.435 210.185 193.699 210.185H206.422C208.651 210.185 210.487 211.587 210.862 213.762ZM359.077 239.98L359.09 239.985C363.742 241.79 368.804 244.093 372.702 247.722C376.641 251.389 379.365 256.384 379.365 263.459C379.365 270.584 376.549 276.956 371.072 281.53C365.609 286.091 357.582 288.798 347.25 288.798C338.319 288.798 328.024 285.407 320.399 280.042L320.393 280.037L320.387 280.032C319.434 279.339 318.82 278.387 318.655 277.3C318.491 276.219 318.784 275.107 319.451 274.105L319.462 274.09L325.961 265.102C325.963 265.099 325.965 265.096 325.967 265.093C326.729 263.996 327.758 263.341 328.926 263.177C330.075 263.016 331.241 263.347 332.285 263.99L332.306 264.002L332.325 264.016C337.89 267.816 342.951 269.65 347.803 269.65C350.753 269.65 352.685 269.108 353.857 268.265C354.969 267.465 355.515 266.307 355.515 264.703C355.515 263.119 354.242 261.745 351.502 260.298C349.558 259.271 347.141 258.339 344.484 257.315C343.469 256.923 342.419 256.518 341.347 256.09C332.365 252.497 321.219 246.188 321.219 233.173C321.219 225.756 324.254 219.525 329.553 215.166C334.835 210.822 342.302 208.387 351.122 208.387C361.601 208.387 369.537 211.933 375.744 216.164C376.782 216.858 377.443 217.855 377.609 218.992C377.774 220.125 377.433 221.286 376.676 222.295L376.673 222.299L370.185 230.857C370.183 230.86 370.181 230.863 370.179 230.866C368.727 232.854 366.204 233.149 364.171 231.963L364.161 231.957L364.152 231.951C359.921 229.358 355.825 227.674 351.952 227.674C349.407 227.674 347.675 228.114 346.604 228.847C345.602 229.533 345.069 230.549 345.069 232.067C345.069 233.641 346.265 234.916 348.932 236.215C350.825 237.138 353.194 237.949 355.846 238.857C356.88 239.211 357.956 239.58 359.064 239.976L359.077 239.98ZM369.376 230.269L375.876 221.695C377.12 220.036 376.844 218.1 375.184 216.993C369.1 212.845 361.355 209.387 351.122 209.387C333.836 209.387 322.219 218.929 322.219 233.173C322.219 245.481 332.729 251.566 341.718 255.161C342.754 255.576 343.783 255.972 344.787 256.359C351.15 258.813 356.515 260.881 356.515 264.703C356.515 268.437 353.888 270.65 347.803 270.65C342.686 270.65 337.431 268.714 331.761 264.842C329.964 263.735 328.028 263.874 326.783 265.671L320.283 274.66C319.177 276.32 319.454 278.117 320.975 279.224C328.442 284.479 338.538 287.798 347.25 287.798C367.578 287.798 378.365 277.149 378.365 263.459C378.365 249.906 367.993 244.513 358.728 240.917C357.659 240.536 356.606 240.175 355.584 239.825C349.207 237.641 344.069 235.881 344.069 232.067C344.069 228.471 346.697 226.674 351.952 226.674C356.1 226.674 360.387 228.471 364.674 231.099C366.334 232.067 368.27 231.79 369.376 230.269ZM434.478 269.129C436.553 268.714 438.074 269.682 438.489 271.618L440.84 281.99C441.255 283.787 440.287 285.447 438.489 285.862C434.893 286.968 430.33 287.798 424.522 287.798C405.714 287.798 398.108 276.043 398.108 258.342V232.897C398.108 230.822 396.725 229.439 394.651 229.439H391.47C389.396 229.439 388.013 228.056 388.013 225.982V215.334C388.013 213.398 389.258 212.015 391.194 211.877L396.725 211.462C398.385 211.323 399.629 210.079 399.906 208.419L401.704 194.59C401.98 192.792 403.363 191.548 405.161 191.548H418.022C420.096 191.548 421.479 192.931 421.479 195.005V207.728C421.479 209.802 422.862 211.185 424.936 211.185H435.723C437.797 211.185 439.18 212.568 439.18 214.642V225.982C439.18 228.056 437.797 229.439 435.723 229.439H424.936C422.862 229.439 421.479 230.822 421.479 232.897V258.065C421.479 266.224 425.49 269.543 431.021 269.543C432.128 269.543 433.372 269.405 434.478 269.129ZM398.917 208.271L400.712 194.461L400.714 194.45L400.715 194.438C401.063 192.18 402.842 190.548 405.161 190.548H418.022C419.286 190.548 420.418 190.974 421.236 191.792C422.053 192.609 422.479 193.741 422.479 195.005V207.728C422.479 208.538 422.745 209.135 423.137 209.527C423.529 209.919 424.126 210.185 424.936 210.185H435.723C436.987 210.185 438.119 210.611 438.937 211.429C439.754 212.247 440.18 213.378 440.18 214.642V225.982C440.18 227.247 439.754 228.378 438.937 229.196C438.119 230.014 436.987 230.439 435.723 230.439H424.936C424.126 230.439 423.529 230.705 423.137 231.097C422.745 231.489 422.479 232.087 422.479 232.897V258.065C422.479 261.993 423.445 264.585 424.913 266.189C426.37 267.78 428.457 268.543 431.021 268.543C432.053 268.543 433.216 268.413 434.236 268.158L434.259 268.153L434.282 268.148C435.511 267.902 436.683 268.048 437.636 268.644C438.593 269.242 439.21 270.219 439.465 271.401C439.466 271.404 439.466 271.406 439.467 271.408L441.814 281.765M398.917 208.271C398.703 209.512 397.801 210.367 396.646 210.465C396.645 210.465 396.643 210.465 396.642 210.465L391.122 210.879C391.122 210.879 391.121 210.879 391.121 210.879C389.925 210.965 388.882 211.443 388.139 212.256C387.397 213.068 387.013 214.148 387.013 215.334V225.982C387.013 227.247 387.439 228.378 388.257 229.196C389.074 230.014 390.206 230.439 391.47 230.439H394.651C395.461 230.439 396.058 230.705 396.45 231.097C396.843 231.489 397.108 232.087 397.108 232.897V258.342C397.108 267.313 399.032 274.943 403.491 280.344C407.978 285.78 414.898 288.798 424.522 288.798C430.411 288.798 435.064 287.958 438.751 286.827C441.095 286.267 442.341 284.057 441.815 281.768M495.564 281.814L495.554 281.822C489.894 286.067 483.466 288.798 476.147 288.798C468.971 288.798 463.167 286.135 459.164 281.804C455.169 277.483 453.021 271.561 453.021 265.118C453.021 257.277 455.996 251.056 462.459 246.398C468.849 241.793 478.588 238.758 492.053 237.023C492.809 236.913 493.38 236.572 493.693 236.162C493.983 235.782 494.109 235.274 493.874 234.616L493.869 234.601L493.864 234.586C493.308 232.855 492.307 231.503 490.784 230.568C489.242 229.622 487.089 229.056 484.168 229.056C479.281 229.056 474.333 230.637 468.328 233.913L468.313 233.921L468.297 233.929C467.141 234.507 465.908 234.667 464.774 234.32C463.636 233.971 462.711 233.147 462.12 231.971C462.118 231.968 462.117 231.964 462.115 231.961L457.15 222.584C457.15 222.583 457.149 222.581 457.148 222.58C456.56 221.485 456.398 220.313 456.729 219.226C457.059 218.139 457.848 217.254 458.94 216.666C468.022 211.776 477.867 208.387 488.593 208.387C498.456 208.387 506.335 211.139 511.733 217.026C517.116 222.897 519.879 231.721 519.879 243.545V282.543C519.879 283.807 519.453 284.939 518.635 285.756C517.817 286.574 516.686 287 515.421 287H502.422C500.459 287 498.663 285.736 498.133 283.615L497.856 282.509C497.62 281.561 497.257 281.311 497.063 281.251C496.842 281.183 496.354 281.207 495.564 281.814ZM458.031 222.11C457.063 220.312 457.616 218.514 459.414 217.546C468.403 212.706 478.083 209.387 488.593 209.387C507.954 209.387 518.879 220.174 518.879 243.545V282.543C518.879 284.617 517.496 286 515.421 286H502.422C500.901 286 499.518 285.032 499.103 283.372L498.827 282.266C498.273 280.053 496.752 279.639 494.954 281.022C489.423 285.17 483.2 287.798 476.147 287.798C462.318 287.798 454.021 277.564 454.021 265.118C454.021 250.045 465.36 241.471 492.189 238.013C494.125 237.737 495.508 236.216 494.816 234.279C493.571 230.407 490.253 228.056 484.168 228.056C479.051 228.056 473.934 229.716 467.85 233.035C465.913 234.003 463.977 233.45 463.009 231.514L458.031 222.11ZM494.954 264.288C495.231 264.012 495.508 263.459 495.508 262.906V254.193C495.508 252.81 494.54 251.981 493.157 252.119C480.296 254.193 476.147 258.342 476.147 263.32C476.147 267.607 479.328 269.682 484.168 269.682C488.593 269.682 491.635 267.746 494.954 264.288ZM493.283 253.111C486.932 254.139 482.871 255.659 480.416 257.44C478.015 259.182 477.147 261.17 477.147 263.32C477.147 265.187 477.823 266.466 478.944 267.31C480.108 268.186 481.87 268.682 484.168 268.682C488.211 268.682 491.01 266.954 494.233 263.596L494.24 263.589L494.247 263.581C494.28 263.549 494.352 263.454 494.416 263.307C494.477 263.164 494.508 263.021 494.508 262.906V254.193C494.508 253.742 494.356 253.482 494.192 253.338C494.027 253.194 493.738 253.072 493.283 253.111ZM597.074 276.596C597.904 278.117 597.627 279.915 596.244 280.883C589.33 285.862 580.894 287.798 573.841 287.798C552.821 287.798 536.641 273.416 536.641 248.662C536.641 223.908 555.034 209.387 575.916 209.387C583.798 209.387 590.021 211.738 595.276 215.472C596.797 216.578 597.074 218.376 595.829 220.036L589.053 229.301C587.67 231.099 585.734 231.375 583.936 230.269C581.586 228.886 579.511 228.333 577.298 228.333C566.927 228.333 560.565 236.216 560.565 248.662C560.565 260.969 567.203 268.852 576.469 268.852C579.926 268.852 583.245 267.607 586.149 265.81C588.223 264.565 590.298 264.98 591.404 267.054L597.074 276.596ZM592.275 266.563L597.943 276.101L597.952 276.117C598.98 278.002 598.69 280.386 596.824 281.698C589.705 286.822 581.055 288.798 573.841 288.798C563.1 288.798 553.534 285.12 546.651 278.219C539.765 271.315 535.641 261.263 535.641 248.662C535.641 223.291 554.548 208.387 575.916 208.387C584.019 208.387 590.442 210.811 595.855 214.657L595.864 214.663C596.815 215.355 597.438 216.313 597.582 217.417C597.725 218.514 597.38 219.632 596.635 220.629C596.633 220.631 596.631 220.633 596.629 220.636L589.853 229.901L589.846 229.911C589.029 230.973 587.991 231.653 586.824 231.859C585.663 232.064 584.487 231.78 583.421 231.126C581.212 229.828 579.314 229.333 577.298 229.333C572.388 229.333 568.498 231.187 565.816 234.463C563.115 237.763 561.565 242.598 561.565 248.662C561.565 254.643 563.178 259.453 565.822 262.746C568.453 266.023 572.144 267.852 576.469 267.852C579.687 267.852 582.824 266.692 585.623 264.959L585.635 264.952C586.835 264.232 588.134 263.934 589.36 264.212C590.596 264.492 591.608 265.323 592.275 266.563ZM639.86 267.461L639.836 267.485C639.526 267.795 639.299 268.475 639.299 268.99V282.543C639.299 283.807 638.874 284.939 638.056 285.756C637.238 286.574 636.107 287 634.842 287H618.939C617.674 287 616.543 286.574 615.725 285.756C614.907 284.939 614.482 283.807 614.482 282.543V184.495C614.482 183.231 614.907 182.099 615.725 181.281C616.543 180.464 617.674 180.038 618.939 180.038H634.842C636.107 180.038 637.238 180.464 638.056 181.281C638.872 182.098 639.298 183.227 639.299 184.489M639.299 184.495L639.576 229.986L639.576 229.993C639.576 231.389 639.728 232.403 639.965 233.077C640.206 233.762 640.47 233.931 640.591 233.972C640.715 234.014 641.035 234.039 641.654 233.643C642.261 233.254 643.011 232.545 643.875 231.448L643.88 231.441L659.542 211.9L659.896 211.545L659.94 211.511C660.689 210.911 661.881 210.185 663.192 210.185H679.372C680.55 210.185 681.581 210.331 682.416 210.651C683.257 210.974 683.962 211.503 684.338 212.295C684.714 213.089 684.675 213.972 684.383 214.832C684.094 215.684 683.537 216.579 682.765 217.498L682.76 217.504L662.847 240.875L662.838 240.885C662.178 241.639 662.046 242.813 662.658 243.846C662.661 243.851 662.664 243.856 662.666 243.86L686.157 280.062L686.162 280.069L686.166 280.077C687.248 281.807 687.747 283.587 686.977 285.021C686.201 286.466 684.441 287 682.414 287H665.404C663.835 287 662.229 286.143 661.482 284.677L648.634 262.297L648.627 262.285C648.036 261.222 647.385 260.855 646.854 260.807C646.305 260.758 645.553 261.019 644.711 261.917C644.708 261.921 644.704 261.924 644.7 261.928L639.86 267.461M643.969 261.246L639.129 266.778C638.576 267.331 638.299 268.299 638.299 268.99V282.543C638.299 284.617 636.917 286 634.842 286H618.939C616.865 286 615.482 284.617 615.482 282.543V184.495C615.482 182.421 616.865 181.038 618.939 181.038H634.842C636.917 181.038 638.299 182.421 638.299 184.495L638.576 229.993C638.576 235.801 641.065 236.63 644.661 232.067L660.288 212.568L660.564 212.291C661.256 211.738 662.224 211.185 663.192 211.185H679.372C683.797 211.185 684.903 213.398 681.999 216.855L662.085 240.226C661.117 241.332 660.979 242.992 661.809 244.375L685.318 280.607C687.392 283.926 686.286 286 682.414 286H665.404C664.16 286 662.915 285.309 662.362 284.202L649.501 261.799C648.118 259.31 645.905 259.172 643.969 261.246Z" fill="#F39423"/>
<path fill-rule="evenodd" clip-rule="evenodd" d="M62.4468 316.73L62.4698 316.722C63.4409 316.369 64.4868 316.637 65.1358 317.471L65.3465 317.742V317.856C66.5358 319.451 67.6977 321.38 68.6056 322.994L68.6111 323.003L68.6164 323.013C68.9261 323.594 69.0436 324.259 68.8156 324.903C68.5904 325.539 68.0904 325.977 67.5217 326.243L67.5151 326.246L64.9243 327.409C64.9226 327.41 64.9208 327.411 64.9191 327.411C64.3814 327.658 63.7784 327.725 63.2028 327.538C62.6227 327.348 62.1686 326.932 61.8781 326.393L61.8774 326.392C60.8883 324.548 60.1819 323.345 59.2554 322.036C60.031 323.296 60.7804 324.597 61.4134 325.757L61.422 325.773L61.43 325.789C61.7193 326.368 61.7928 327.02 61.5774 327.629C61.3619 328.237 60.894 328.696 60.3003 328.952L57.53 330.178L57.507 330.187C56.9503 330.401 56.3443 330.416 55.7908 330.195C55.239 329.974 54.8084 329.545 54.5513 328.995C53.5037 326.848 52.7834 325.461 51.7081 323.77C51.3038 323.174 51.1062 322.458 51.3211 321.746C51.5369 321.031 52.0999 320.549 52.7446 320.283L52.7505 320.281L55.2214 319.282C56.2402 318.832 57.4562 319.187 58.0443 320.141C58.1859 320.353 58.3281 320.57 58.4705 320.791C58.292 320.331 58.234 319.829 58.3758 319.328C58.5779 318.614 59.123 318.122 59.7807 317.85C59.7819 317.849 59.7831 317.849 59.7843 317.848L62.4468 316.73ZM60.165 318.773C59.2652 319.144 59.0535 319.938 59.5828 320.784C60.8002 322.425 61.5941 323.749 62.7586 325.919C63.1291 326.607 63.8172 326.818 64.5053 326.501L67.0989 325.336C67.8928 324.966 68.1575 324.278 67.734 323.484C66.7813 321.79 65.5639 319.779 64.3465 318.191V318.085C63.976 317.609 63.3938 317.45 62.8115 317.662L60.165 318.773ZM57.2009 320.679C56.8834 320.149 56.1953 319.938 55.613 320.202L53.1253 321.208C52.2255 321.578 51.9609 322.372 52.5431 323.219C53.6546 324.966 54.3957 326.395 55.4543 328.565C55.7718 329.253 56.4599 329.518 57.148 329.253L59.9004 328.036C60.6414 327.718 60.906 326.977 60.5355 326.236C59.5828 324.49 58.3654 322.425 57.2009 320.679ZM33.0894 319.103L33.103 319.085C33.7745 318.161 35.0052 317.716 36.1543 318.381C39.2006 320.092 43.1372 322.592 45.8349 324.338L45.8465 324.346C46.3791 324.701 46.7338 325.227 46.8344 325.844C46.9328 326.447 46.7747 327.044 46.4609 327.554L46.4507 327.571L43.4324 332.072C43.0885 332.621 42.5711 333 41.9459 333.115C41.3301 333.228 40.7241 333.064 40.2156 332.751L40.2021 332.743L40.1889 332.734C37.5598 330.999 33.878 328.685 30.9328 326.949C30.3536 326.634 29.8958 326.139 29.7371 325.477C29.5785 324.816 29.7613 324.168 30.1065 323.631L30.1126 323.622L33.0894 319.103ZM31.424 326.077C34.3881 327.824 38.0932 330.153 40.7397 331.9C41.4278 332.323 42.1688 332.217 42.5923 331.529L45.6093 327.03C46.0327 326.342 45.9269 325.601 45.2917 325.178C42.5923 323.431 38.6754 320.943 35.6584 319.25C35.0233 318.879 34.3352 319.091 33.9117 319.673L30.9477 324.172C30.4713 324.913 30.6301 325.654 31.424 326.077ZM25.2558 330.695L25.2694 330.676C25.9402 329.754 27.169 329.309 28.3172 329.971C31.4157 331.681 35.3507 334.127 38.0089 335.882L38.0128 335.884C38.5264 336.227 38.8943 336.733 39.0193 337.333C39.1441 337.932 39.0093 338.545 38.6647 339.065L35.6564 343.709C35.3237 344.244 34.817 344.647 34.1845 344.776C33.5516 344.905 32.9239 344.734 32.3977 344.372C29.6997 342.573 26.0789 340.213 23.1009 338.541L23.0942 338.537C22.5417 338.222 22.0953 337.731 21.9279 337.087C21.7589 336.437 21.9134 335.782 22.2728 335.223L22.2789 335.213L25.2558 330.695ZM32.959 343.544C33.6471 344.021 34.3881 343.862 34.8116 343.174L37.8286 338.516C38.252 337.881 38.0932 337.14 37.4581 336.716C34.8116 334.97 30.8947 332.535 27.8248 330.841C27.1896 330.471 26.5015 330.682 26.0781 331.265L23.114 335.764C22.6377 336.505 22.8494 337.246 23.5904 337.669C26.6074 339.363 30.2596 341.745 32.959 343.544ZM28.407 361.488L25.2312 355.877C24.649 354.871 25.0195 354.13 26.131 353.919C31.2652 352.913 36.5053 351.431 41.5337 348.679C49.4202 344.338 56.0365 338.146 60.165 331.635C60.959 330.418 61.8588 330.418 62.5469 331.635L65.6697 337.246C65.9344 337.669 65.9344 338.198 65.6168 338.622C60.8002 345.45 53.8134 351.484 45.7151 356.089C40.9514 358.735 34.1764 361.17 29.7832 362.123C29.2539 362.229 28.7246 361.964 28.407 361.488ZM66.4267 339.209C61.5116 346.172 54.4087 352.296 46.2094 356.958L46.2008 356.963C41.3475 359.659 34.4797 362.128 29.9951 363.1L29.9872 363.102L29.9793 363.103C28.9792 363.303 28.0726 362.789 27.575 362.042L27.5547 362.012L24.3658 356.378C24.3649 356.377 24.3641 356.375 24.3632 356.374C23.988 355.724 23.7879 354.925 24.1412 354.174C24.4912 353.43 25.2262 353.074 25.9413 352.937C31.021 351.942 36.1499 350.485 41.053 347.802C48.8042 343.536 55.29 337.455 59.3205 331.1L59.3274 331.089C59.7804 330.394 60.4655 329.722 61.3956 329.722C62.3538 329.722 63.013 330.428 63.4174 331.143L63.4207 331.149L66.5329 336.74C66.9862 337.486 66.9901 338.446 66.4267 339.209ZM113.201 332.482L116.959 335.129C117.488 335.499 117.647 336.187 117.329 336.769C115.106 341.057 110.925 347.514 107.696 351.325C107.273 351.854 106.585 351.96 106.002 351.59L101.874 349.102C100.974 348.573 100.921 347.726 101.662 346.985C102.932 345.662 104.256 344.127 105.367 342.75C106.32 341.427 105.791 340.686 104.15 341.004C103.638 341.11 103.08 341.221 102.482 341.341C101.286 341.58 99.9331 341.851 98.4863 342.168C97.6924 342.327 97.269 342.962 97.4807 343.809C99.2274 349.843 100.974 355.877 101.768 358.471L102.721 361.594C102.985 362.44 102.615 363.181 101.715 363.393L96.475 364.663C95.6281 364.822 94.94 364.399 94.8342 363.552C94.6225 362.44 94.3578 361.17 94.0402 360.164C93.2835 357.541 91.7575 351.793 90.2413 346.081L90.0175 345.238C89.8058 344.497 89.2236 344.127 88.4826 344.285L81.7075 345.767C80.9136 345.926 80.3314 345.556 80.1196 344.762L78.9022 340.051C78.6905 339.151 79.1669 338.516 80.0667 338.41C80.1195 338.405 80.1724 338.4 80.2255 338.394C81.2363 338.293 82.2949 338.188 83.4013 337.987C83.6231 337.942 83.9378 337.889 84.3299 337.822C84.8735 337.729 85.5658 337.611 86.3654 337.457C87.2652 337.352 87.6886 336.663 87.424 335.817L86.8417 333.699C86.63 332.905 86.3124 332.111 85.9949 331.37C85.5714 330.418 85.889 329.677 86.8947 329.465L91.8701 328.248C92.664 328.089 93.3521 328.512 93.5109 329.359L94.1461 332.059L94.8342 334.652C95.0459 335.34 95.6281 335.711 96.3691 335.605C99.2009 335.049 102.046 334.48 104.428 334.004C106.81 333.527 108.728 333.144 109.708 332.958C110.449 332.8 111.242 332.588 111.878 332.323C112.301 332.164 112.777 332.217 113.095 332.482H113.201ZM113.39 331.482H113.518L117.532 334.309C117.532 334.309 117.532 334.309 117.532 334.309C118.486 334.977 118.761 336.221 118.213 337.238C115.962 341.577 111.749 348.086 108.467 351.962C107.715 352.89 106.468 353.064 105.477 352.441L101.367 349.964C101.365 349.963 101.364 349.962 101.362 349.961C100.723 349.584 100.226 348.99 100.157 348.212C100.089 347.456 100.449 346.787 100.947 346.286C102.184 344.997 103.478 343.496 104.571 342.145C104.625 342.068 104.67 341.998 104.707 341.935C104.605 341.942 104.485 341.958 104.346 341.984C103.824 342.092 103.262 342.205 102.663 342.324C101.473 342.562 100.139 342.829 98.7008 343.145L98.6916 343.147L98.6825 343.149C98.5065 343.184 98.4616 343.249 98.4533 343.262C98.4456 343.275 98.4004 343.352 98.4472 343.552C100.193 349.584 101.934 355.597 102.724 358.178L103.675 361.295C103.676 361.297 103.676 361.298 103.676 361.299C103.872 361.927 103.858 362.61 103.534 363.208C103.205 363.814 102.627 364.205 101.948 364.366C101.946 364.366 101.945 364.366 101.944 364.367L96.6851 365.641L96.6593 365.646C96.0327 365.764 95.3741 365.681 94.8264 365.32C94.2754 364.957 93.939 364.378 93.8466 363.711C93.6361 362.609 93.3824 361.402 93.0866 360.466L93.0829 360.454L93.0794 360.442C92.3196 357.808 90.7915 352.051 89.2777 346.349L89.0539 345.506C89.003 345.332 88.9355 345.283 88.9185 345.272C88.9059 345.264 88.8481 345.23 88.694 345.263C88.6934 345.263 88.6927 345.263 88.6921 345.263L81.9125 346.746L81.9037 346.748C81.3113 346.866 80.6928 346.804 80.1597 346.466C79.6291 346.13 79.308 345.599 79.1534 345.019L79.1514 345.012L77.9313 340.291L77.9288 340.28C77.772 339.614 77.8463 338.917 78.2565 338.348C78.6631 337.784 79.2924 337.494 79.9499 337.417L79.9585 337.416L80.1163 337.4C81.132 337.299 82.1515 337.197 83.2142 337.004C83.4507 336.957 83.7799 336.901 84.1659 336.835C84.2409 336.823 84.3181 336.809 84.3972 336.796C84.8977 336.71 85.4985 336.606 86.1765 336.475L86.2123 336.469L86.2485 336.464C86.3582 336.451 86.4211 336.425 86.4515 336.407C86.4799 336.391 86.4867 336.38 86.4877 336.378C86.489 336.376 86.4975 336.363 86.5007 336.326C86.5042 336.288 86.5017 336.218 86.4695 336.115L86.4643 336.098L85.8755 333.957C85.6836 333.237 85.3907 332.5 85.0781 331.77C84.7996 331.14 84.6875 330.402 85.0004 329.722C85.3213 329.024 85.9701 328.642 86.6713 328.49L91.6531 327.271L91.674 327.267C92.2958 327.143 92.941 327.237 93.479 327.591C94.0145 327.944 94.3614 328.501 94.489 329.15L95.1163 331.816L95.7947 334.373C95.8376 334.503 95.8962 334.555 95.9332 334.578C95.9707 334.602 96.052 334.636 96.2068 334.618C99.0168 334.066 101.847 333.5 104.222 333.025C106.602 332.549 108.524 332.165 109.51 331.978C110.223 331.825 110.944 331.629 111.493 331.4L111.51 331.393L111.527 331.387C112.103 331.171 112.802 331.169 113.39 331.482ZM156.233 341.268C155.704 340.369 155.915 339.575 156.868 339.204L161.949 337.14C162.532 336.875 163.22 337.087 163.537 337.669C166.819 342.962 171 351.166 173.382 356.724C173.7 357.412 173.435 358.1 172.747 358.418L166.978 360.958C166.184 361.329 165.443 361.011 165.178 360.217L163.802 356.883C163.59 356.353 163.061 356.036 162.426 356.089C156.297 356.821 147.473 357.75 140.861 358.446C138.394 358.706 136.234 358.933 134.638 359.106L130.88 359.582C130.138 359.688 129.503 359.212 129.397 358.471L128.445 352.384C128.286 351.484 128.815 350.849 129.715 350.849C131.25 350.849 132.944 350.849 134.161 350.796L134.532 350.743H134.638C134.796 350.743 135.008 350.584 135.114 350.425V350.319C137.972 342.75 141.783 330.471 143.265 325.231C143.847 323.219 144.165 321.684 144.377 320.255C144.535 319.461 145.118 318.985 145.965 319.144L152.581 320.52C153.586 320.732 153.957 321.42 153.586 322.372C153.128 323.456 152.703 324.67 152.258 325.938C152.138 326.281 152.017 326.628 151.893 326.977C151.136 329.12 150.02 332.475 148.801 336.14C147.46 340.17 145.995 344.573 144.747 348.149C144.324 349.314 144.906 350.002 146.123 349.896C150.252 349.473 154.539 348.996 158.244 348.573C159.356 348.467 159.779 347.673 159.25 346.667C158.244 344.656 157.239 342.803 156.233 341.268ZM146.03 348.9C150.15 348.478 154.43 348.002 158.131 347.579L158.14 347.578L158.15 347.577C158.356 347.558 158.444 347.51 158.476 347.487C158.479 347.446 158.472 347.337 158.365 347.133L158.36 347.124L158.356 347.114C157.357 345.117 156.371 343.304 155.397 341.816L155.383 341.796L155.371 341.775C155.02 341.178 154.826 340.464 155.036 339.754C155.252 339.024 155.823 338.54 156.498 338.275C156.501 338.274 156.503 338.273 156.506 338.272L161.557 336.22C162.59 335.763 163.822 336.136 164.4 337.163C167.707 342.5 171.9 350.729 174.297 356.319C174.55 356.877 174.592 357.494 174.377 358.063C174.161 358.635 173.719 359.07 173.166 359.326L173.158 359.329L167.401 361.865C167.397 361.866 167.393 361.868 167.39 361.87C166.785 362.149 166.111 362.204 165.495 361.948C164.885 361.694 164.457 361.185 164.242 360.57L162.873 357.254C162.851 357.198 162.816 357.159 162.769 357.131C162.722 357.104 162.643 357.077 162.523 357.084C156.387 357.817 147.562 358.746 140.956 359.442C138.497 359.701 136.345 359.927 134.754 360.099L131.012 360.573C129.73 360.752 128.595 359.9 128.409 358.619C128.408 358.617 128.408 358.614 128.408 358.612L127.458 352.547C127.342 351.872 127.467 351.178 127.913 350.64C128.363 350.098 129.026 349.849 129.715 349.849C131.237 349.849 132.882 349.849 134.069 349.799L134.251 349.773C137.087 342.225 140.838 330.139 142.303 324.958L142.305 324.953C142.875 322.982 143.183 321.491 143.387 320.109L143.391 320.084L143.396 320.059C143.513 319.473 143.807 318.912 144.322 318.535C144.849 318.15 145.496 318.038 146.149 318.161L146.159 318.163L152.787 319.541C153.467 319.684 154.121 320.032 154.479 320.692C154.837 321.352 154.77 322.089 154.518 322.735L154.513 322.749L154.507 322.762C154.063 323.813 153.651 324.988 153.208 326.251C153.087 326.598 152.963 326.951 152.836 327.31C152.083 329.443 150.969 332.79 149.748 336.46L149.567 337.006C148.277 340.881 146.885 345.057 145.691 348.479L145.687 348.491C145.615 348.688 145.607 348.81 145.61 348.866C145.61 348.867 145.611 348.868 145.611 348.869C145.661 348.889 145.782 348.921 146.03 348.9ZM215.444 320.155H215.61C216.131 320.096 216.82 320.165 217.394 320.626L220.814 323.099C221.7 323.743 222.065 324.916 221.543 325.932V326.01L221.425 326.23C221.246 326.567 221.06 326.896 220.878 327.217C220.583 327.738 220.3 328.238 220.078 328.713C218.523 332.251 216.115 336.852 213.113 341.143C213.023 341.28 213.021 341.37 213.026 341.413C213.032 341.459 213.058 341.539 213.167 341.637C217.434 345.478 222.387 350.643 225.22 353.957L225.227 353.965L225.234 353.974C225.619 354.444 225.824 355.027 225.774 355.634C225.724 356.241 225.429 356.785 224.974 357.199L224.966 357.206L220.03 361.505L220.024 361.51C219.523 361.934 218.891 362.196 218.204 362.101C217.525 362.008 216.988 361.595 216.611 361.07C213.789 357.256 210.282 353.277 206.507 349.607L206.497 349.597C206.359 349.459 206.271 349.454 206.252 349.454C206.232 349.454 206.146 349.459 206.008 349.595C201.13 354.527 195.176 359.036 189.146 362.107C188.24 362.599 187.135 362.364 186.437 361.665L186.43 361.659L182.181 357.251C181.643 356.678 181.25 355.916 181.438 355.076C181.623 354.248 182.292 353.723 182.992 353.423L182.995 353.422C190.306 350.311 197.28 344.794 201.269 340.288C203.968 337.224 206.282 333.717 207.501 330.875C207.556 330.744 207.567 330.66 207.568 330.62C207.528 330.601 207.436 330.571 207.258 330.571H193.443C191.855 330.571 189.991 330.725 188.521 330.883L188.499 330.885L188.477 330.886C187.829 330.927 187.19 330.746 186.705 330.3C186.217 329.851 185.985 329.224 185.985 328.565V322.849C185.985 322.179 186.208 321.527 186.727 321.06C187.238 320.599 187.908 320.437 188.576 320.474L188.595 320.475L188.614 320.477C190.285 320.634 192.37 320.737 193.443 320.737H210.222C212.267 320.737 214.143 320.48 215.325 320.185L215.444 320.155ZM208.422 331.265C207.152 334.229 204.77 337.828 202.017 340.951C197.942 345.556 190.849 351.166 183.386 354.342C182.275 354.818 182.063 355.665 182.91 356.565L187.144 360.958C187.568 361.382 188.203 361.488 188.679 361.223C194.607 358.206 200.482 353.76 205.299 348.89C205.881 348.308 206.622 348.308 207.205 348.89C211.016 352.595 214.562 356.618 217.42 360.482C217.949 361.223 218.69 361.329 219.378 360.747L224.301 356.459C224.883 355.93 224.936 355.189 224.46 354.607C221.654 351.325 216.732 346.191 212.498 342.38C211.968 341.904 211.862 341.215 212.286 340.58C215.25 336.346 217.632 331.794 219.167 328.301C219.403 327.794 219.726 327.222 220.039 326.668C220.216 326.355 220.39 326.047 220.543 325.76V325.654C220.966 325.072 220.808 324.331 220.225 323.907L216.785 321.42C216.467 321.155 216.044 321.102 215.673 321.155H215.568C214.297 321.473 212.339 321.737 210.222 321.737H193.443C192.331 321.737 190.214 321.631 188.52 321.473C187.568 321.42 186.985 321.949 186.985 322.849V328.565C186.985 329.412 187.568 329.941 188.414 329.888C189.896 329.73 191.802 329.571 193.443 329.571H207.258C208.316 329.571 208.845 330.259 208.422 331.265ZM269.93 322.571L269.949 322.567C270.598 322.404 271.383 322.469 272.033 322.928C272.036 322.93 272.04 322.933 272.043 322.935L276.198 325.775C276.199 325.776 276.2 325.777 276.202 325.777C276.697 326.109 277.065 326.587 277.204 327.168C277.341 327.741 277.234 328.321 276.948 328.826C276.483 329.758 275.988 330.855 275.697 331.777L275.694 331.785L275.692 331.793C273.6 338.068 271.069 343.245 267.294 348.421L267.292 348.424C262.054 355.551 255.197 360.687 249.277 363.402L249.267 363.407C248.502 363.747 247.469 363.711 246.749 363.013L242.054 358.845C241.461 358.315 240.926 357.551 241.096 356.64C241.263 355.743 242.023 355.208 242.759 354.901L242.763 354.9C247.766 352.836 251.531 350.104 254.583 347.259L254.587 347.256C254.674 347.175 254.707 347.117 254.719 347.09C254.724 347.077 254.726 347.07 254.726 347.068C254.726 347.067 254.726 347.067 254.726 347.067L254.726 347.065C254.726 347.065 254.725 347.064 254.725 347.062C254.725 347.061 254.724 347.06 254.723 347.058C254.722 347.054 254.72 347.05 254.717 347.044C254.714 347.037 254.709 347.028 254.702 347.018C254.677 346.979 254.625 346.918 254.527 346.848C252.74 345.586 250.798 344.274 248.701 342.963L248.689 342.955L248.676 342.947C248.108 342.569 247.665 342.009 247.571 341.3C247.478 340.592 247.76 339.942 248.219 339.439L251.606 335.523C252.352 334.685 253.499 334.513 254.474 335.045L254.486 335.051L254.497 335.058C256.786 336.389 259.018 337.771 261.033 339.043C261.215 339.154 261.312 339.14 261.32 339.138C261.323 339.137 261.326 339.137 261.333 339.131C261.343 339.124 261.373 339.095 261.41 339.022L261.424 338.993L261.44 338.966C262.722 336.761 263.755 334.337 264.481 332.266C264.521 332.143 264.521 332.068 264.518 332.037C264.517 332.03 264.516 332.025 264.515 332.021C264.492 332.003 264.4 331.947 264.157 331.947H253.73C253.634 331.947 253.514 331.999 253.435 332.107C250.381 336.499 246.239 341.241 241.898 344.499C241.065 345.141 239.936 345.142 239.103 344.503L234.552 341.169L234.544 341.163C233.937 340.699 233.483 340.045 233.497 339.24C233.51 338.455 233.966 337.82 234.521 337.369L234.536 337.358L234.551 337.346C241.842 331.865 246.306 324.608 247.911 321.453C248.52 320.183 249.027 318.862 249.434 317.44L249.437 317.428L249.441 317.416C249.627 316.821 249.982 316.275 250.55 315.952C251.128 315.623 251.784 315.609 252.394 315.809C252.398 315.811 252.402 315.812 252.405 315.813L258.511 317.708C258.514 317.709 258.517 317.709 258.519 317.71C259.197 317.912 259.78 318.357 260.047 319.037C260.313 319.715 260.191 320.442 259.842 321.063L259.835 321.075L259.828 321.087C259.533 321.578 259.285 322.074 259.018 322.608L259.005 322.633L258.991 322.657C258.894 322.828 258.859 322.947 258.848 323.013C258.912 323.037 259.034 323.066 259.235 323.066H265.904C267.173 323.066 268.764 322.911 269.911 322.577L269.93 322.571ZM258.229 318.667L252.089 316.762C251.295 316.497 250.66 316.868 250.395 317.715C249.972 319.197 249.443 320.573 248.808 321.896C247.167 325.125 242.615 332.535 235.152 338.146C234.305 338.834 234.252 339.68 235.152 340.369L239.704 343.703C240.18 344.074 240.815 344.074 241.291 343.703C245.526 340.527 249.601 335.87 252.618 331.529C252.883 331.159 253.307 330.947 253.73 330.947H264.157C265.216 330.947 265.745 331.635 265.428 332.588C264.687 334.705 263.628 337.193 262.305 339.469C261.934 340.21 261.193 340.316 260.505 339.892C258.494 338.622 256.271 337.246 253.995 335.922C253.412 335.605 252.777 335.711 252.354 336.187L248.966 340.104C248.331 340.792 248.437 341.586 249.231 342.115C251.348 343.439 253.307 344.762 255.106 346.032C255.847 346.561 255.953 347.355 255.265 347.99C252.142 350.902 248.278 353.707 243.144 355.824C241.874 356.353 241.715 357.2 242.721 358.1L247.431 362.282C247.802 362.652 248.384 362.705 248.86 362.493C254.63 359.847 261.352 354.818 266.486 347.832C270.191 342.75 272.679 337.669 274.743 331.476C275.061 330.471 275.59 329.306 276.066 328.353C276.437 327.718 276.278 327.03 275.643 326.607L271.462 323.749C271.091 323.484 270.615 323.431 270.191 323.537C268.921 323.907 267.227 324.066 265.904 324.066H259.235C257.964 324.066 257.488 323.272 258.123 322.161C258.388 321.631 258.653 321.102 258.97 320.573C259.446 319.726 259.129 318.932 258.229 318.667ZM306.713 340.898C305.972 338.516 304.702 334.917 303.59 332.376C303.22 331.529 303.537 330.788 304.384 330.524L309.095 328.989C309.73 328.777 310.418 329.042 310.683 329.73C311.635 332.059 313.17 336.081 314.017 338.516C314.282 339.257 313.964 339.892 313.223 340.157L308.46 341.798C307.666 342.062 306.978 341.745 306.713 340.898ZM314.962 338.187C315.166 338.765 315.171 339.391 314.896 339.954C314.622 340.516 314.128 340.896 313.56 341.099L313.549 341.102L308.776 342.746C308.183 342.944 307.53 342.954 306.941 342.659C306.347 342.362 305.955 341.825 305.758 341.196L305.758 341.195C305.024 338.836 303.766 335.273 302.674 332.777C302.404 332.161 302.34 331.471 302.611 330.838C302.885 330.199 303.433 329.775 304.079 329.571C304.081 329.57 304.084 329.57 304.086 329.569L308.779 328.04C308.78 328.039 308.781 328.039 308.783 328.039C309.877 327.676 311.136 328.14 311.611 329.359C312.57 331.703 314.109 335.736 314.962 338.187ZM298.985 359.318C298.032 358.312 298.297 357.465 299.62 357.042C304.596 355.295 310.577 351.801 314.229 347.249C317.246 343.439 319.522 337.457 320.21 331.688C320.316 330.682 321.004 330.206 321.957 330.524L327.673 332.323C328.467 332.588 328.785 333.276 328.52 334.07C328.164 335.094 327.92 335.931 327.694 336.706C327.651 336.853 327.609 336.997 327.567 337.14C326.244 341.956 324.127 347.091 320.845 351.431C316.346 357.253 310.418 361.541 304.596 363.922C304.119 364.134 303.537 363.975 303.167 363.605L298.985 359.318ZM304.986 364.843C304.066 365.243 303.061 364.914 302.46 364.312L302.451 364.303L298.264 360.011L298.259 360.005C297.694 359.409 297.228 358.587 297.488 357.684C297.74 356.811 298.539 356.34 299.301 356.094C304.158 354.387 309.949 350.984 313.447 346.626C316.324 342.99 318.544 337.2 319.216 331.577C319.291 330.878 319.589 330.197 320.207 329.78C320.832 329.359 321.581 329.347 322.264 329.572C322.267 329.573 322.27 329.574 322.273 329.575L327.982 331.372L327.989 331.375C328.602 331.579 329.115 331.98 329.396 332.567C329.674 333.148 329.667 333.793 329.469 334.386L329.465 334.398C329.118 335.396 328.881 336.207 328.656 336.981C328.613 337.126 328.572 337.27 328.529 337.413C327.184 342.306 325.022 347.565 321.643 352.034L321.637 352.042C317.031 358.003 310.964 362.395 304.986 364.843ZM291.893 335.393C291.522 334.493 291.787 333.752 292.687 333.435L297.45 331.741C298.138 331.476 298.773 331.741 299.038 332.376C300.256 335.023 301.843 338.992 302.849 341.692C303.114 342.433 302.796 343.068 302.055 343.333L297.133 345.185C296.339 345.45 295.651 345.132 295.386 344.338C294.539 341.798 293.057 337.828 291.893 335.393ZM302.4 344.271C302.397 344.272 302.394 344.273 302.391 344.274L297.467 346.128L297.449 346.134C296.855 346.332 296.211 346.339 295.629 346.061C295.043 345.78 294.641 345.267 294.437 344.655C293.596 342.13 292.129 338.205 290.99 335.825L290.978 335.8L290.968 335.774C290.718 335.167 290.628 334.479 290.882 333.831C291.144 333.164 291.696 332.725 292.352 332.493M292.354 332.492L297.091 330.808C297.096 330.806 297.1 330.804 297.105 330.802C297.648 330.597 298.239 330.576 298.778 330.794C299.319 331.013 299.726 331.44 299.953 331.973C301.184 334.65 302.778 338.636 303.786 341.343L303.791 341.355C303.998 341.936 304.004 342.564 303.728 343.13C303.455 343.689 302.964 344.068 302.4 344.271M375.928 322.907H376.094C376.617 322.847 377.271 322.919 377.823 323.287L377.835 323.295L382.028 326.267L382.038 326.274C383.079 327.031 383.214 328.278 382.715 329.277L382.71 329.287L382.704 329.298C382.233 330.188 381.736 331.186 381.393 332.216L381.388 332.23L381.383 332.244C379.84 336.448 377.205 342.969 372.823 348.704C368.506 354.37 362.244 359.882 355.087 363.189L355.053 363.205L355.019 363.218C354.315 363.482 353.334 363.423 352.641 362.829L352.632 362.821L347.884 358.653C347.881 358.651 347.878 358.649 347.876 358.647C347.257 358.123 346.743 357.367 346.893 356.467C347.041 355.579 347.761 355.016 348.499 354.695L348.501 354.695C356.163 351.381 360.7 347.203 364.219 342.959L364.228 342.948L364.237 342.938C366.762 340.059 368.775 335.75 369.867 332.628L369.873 332.612L369.879 332.596C369.925 332.479 369.93 332.408 369.929 332.378C369.893 332.357 369.798 332.318 369.594 332.318H359.378C359.282 332.318 359.161 332.37 359.082 332.478C356.133 336.661 352.472 340.812 348.676 343.849L348.665 343.857C347.832 344.506 346.698 344.509 345.862 343.867C345.858 343.864 345.854 343.861 345.849 343.857L341.258 340.48L341.251 340.475C340.647 340.013 340.182 339.353 340.211 338.534C340.238 337.738 340.724 337.106 341.304 336.663L341.312 336.657C347.863 331.757 351.538 325.661 353.524 322.001L353.525 321.999C354.123 320.903 354.893 319.06 355.407 317.416C355.593 316.821 355.948 316.275 356.516 315.952C357.094 315.623 357.749 315.609 358.36 315.809C358.364 315.811 358.368 315.812 358.371 315.813L364.496 317.714C365.201 317.936 365.813 318.386 366.083 319.102C366.348 319.803 366.198 320.533 365.873 321.147L365.854 321.182L365.833 321.215C365.606 321.571 365.415 321.903 365.219 322.242C365.103 322.443 364.985 322.646 364.857 322.859C364.75 323.071 364.715 323.215 364.708 323.294C364.707 323.3 364.707 323.305 364.706 323.31C364.71 323.311 364.715 323.313 364.719 323.315C364.795 323.346 364.946 323.384 365.201 323.384H371.764C373.081 323.384 374.637 323.23 375.809 322.937L375.928 322.907ZM363.983 322.372C364.1 322.178 364.216 321.977 364.335 321.771C364.541 321.416 364.754 321.047 364.989 320.679C365.465 319.779 365.201 318.985 364.195 318.667L358.055 316.762C357.261 316.497 356.626 316.868 356.361 317.715C355.832 319.408 355.038 321.314 354.403 322.478C352.392 326.183 348.634 332.429 341.911 337.457C341.012 338.146 340.959 338.992 341.859 339.68L346.463 343.068C346.94 343.439 347.575 343.439 348.051 343.068C351.756 340.104 355.356 336.028 358.267 331.9C358.531 331.529 358.955 331.318 359.378 331.318H369.594C370.652 331.318 371.182 332.006 370.811 332.958C369.7 336.134 367.635 340.58 364.989 343.597C361.39 347.938 356.732 352.225 348.898 355.612C347.681 356.142 347.522 357.042 348.528 357.888L353.291 362.07C353.662 362.387 354.244 362.44 354.668 362.282C361.654 359.053 367.794 353.654 372.029 348.096C376.316 342.486 378.91 336.081 380.444 331.9C380.815 330.788 381.344 329.73 381.821 328.83C382.138 328.195 382.032 327.507 381.45 327.083L377.269 324.119C376.951 323.907 376.528 323.854 376.157 323.907H376.051C374.781 324.225 373.14 324.384 371.764 324.384H365.201C363.824 324.384 363.348 323.59 363.983 322.372Z" fill="#F39423"/>
<path fill-rule="evenodd" clip-rule="evenodd" d="M474.322 327.425C474.337 327.451 474.352 327.476 474.368 327.502C474.371 327.508 474.374 327.514 474.378 327.52C474.385 327.533 474.393 327.546 474.401 327.559C474.935 328.475 475.509 329.506 475.927 330.314C475.927 330.315 475.928 330.315 475.928 330.316C475.93 330.32 475.933 330.324 475.935 330.329C475.943 330.344 475.95 330.359 475.957 330.374C476.087 330.668 475.975 330.952 475.648 331.083C475.298 331.223 475.124 331.572 475.194 331.921L475.648 334.471C475.717 334.89 475.473 335.274 475.089 335.414C474.111 335.763 472.993 336.113 471.77 336.427C471.142 336.567 470.897 337.056 471.212 337.65C472.19 339.676 473.342 341.806 474.425 343.728C474.6 344.077 474.565 344.461 474.32 344.74L472.294 346.941C472.12 347.151 471.805 347.255 471.491 347.186C471.315 347.155 471.133 347.122 470.944 347.089C469.216 346.783 466.974 346.386 464.959 346.103C464.47 346.033 464.156 345.649 464.226 345.16L464.47 342.749C464.505 342.26 464.889 341.946 465.378 341.981L466.531 342.086C467.404 342.156 467.753 341.667 467.334 340.898C467.156 340.526 466.964 340.147 466.768 339.76C466.504 339.238 466.232 338.7 465.972 338.139C465.832 337.789 465.483 337.615 465.099 337.65C463.387 337.789 461.501 337.894 459.58 337.894C457.763 337.894 454.934 337.72 453.118 337.51C452.664 337.475 452.384 337.161 452.349 336.707L452.175 333.353C452.14 332.655 452.559 332.305 453.223 332.445C455.109 332.794 457.309 333.109 459.37 333.109C460.663 333.109 461.711 333.074 462.689 333.039C463.282 333.004 463.492 332.62 463.282 332.096V332.026L462.863 331.188C462.444 330.245 462.165 329.651 461.78 328.917C461.396 328.254 461.606 327.73 462.374 327.59L465.972 326.891C466.426 326.821 466.845 327.066 466.985 327.52C467.369 328.743 467.893 330.035 468.452 331.397C468.627 331.816 469.011 332.026 469.465 331.921C470.164 331.747 470.862 331.572 471.526 331.362C472.085 331.188 472.294 330.699 472.015 330.175C471.772 329.659 471.477 329.17 471.198 328.708C471.156 328.637 471.113 328.567 471.072 328.498C470.722 327.904 470.897 327.38 471.491 327.136L472.958 326.577C473.342 326.402 473.796 326.542 474.006 326.891C474.108 327.062 474.214 327.24 474.322 327.425ZM472.578 325.651L471.123 326.206L471.11 326.211C470.613 326.416 470.159 326.799 469.974 327.386C469.791 327.966 469.937 328.54 470.21 329.005L470.214 329.013C470.258 329.085 470.301 329.157 470.344 329.229C470.598 329.649 470.839 330.049 471.044 330.465C470.503 330.629 469.933 330.773 469.338 330.922C468.793 329.592 468.301 328.37 467.94 327.223C467.647 326.276 466.742 325.761 465.82 325.903L465.801 325.906L462.189 326.607C461.63 326.71 461.011 327.005 460.728 327.659C460.454 328.291 460.637 328.929 460.903 329.398C461.27 330.098 461.538 330.669 461.949 331.594L461.959 331.615L462.179 332.056C461.34 332.085 460.44 332.109 459.37 332.109C457.403 332.109 455.276 331.808 453.415 331.464C452.892 331.357 452.275 331.406 451.786 331.826C451.293 332.248 451.149 332.859 451.176 333.403L451.351 336.771L451.352 336.783C451.384 337.196 451.534 337.615 451.847 337.949C452.161 338.284 452.577 338.466 453.019 338.505C454.87 338.718 457.727 338.894 459.58 338.894C461.509 338.894 463.398 338.791 465.108 338.652C465.356 339.18 465.634 339.733 465.896 340.251C466.039 340.535 466.177 340.808 466.301 341.061L465.459 340.984L465.449 340.984C464.447 340.912 463.559 341.6 463.474 342.661L463.232 345.042C463.168 345.534 463.292 346.021 463.598 346.408C463.904 346.796 464.347 347.025 464.818 347.093L464.82 347.093C466.816 347.374 469.04 347.767 470.77 348.074C470.952 348.106 471.129 348.137 471.3 348.167C471.923 348.297 472.608 348.107 473.043 347.604L475.065 345.409L475.073 345.399C475.614 344.781 475.655 343.952 475.319 343.28L475.308 343.258L475.296 343.237C474.243 341.369 473.13 339.312 472.179 337.354C473.37 337.043 474.462 336.7 475.425 336.356L475.43 336.354C476.241 336.059 476.788 335.228 476.634 334.307L476.209 331.922C476.485 331.771 476.73 331.539 476.877 331.221C477.319 331.418 477.836 331.444 478.347 331.248L478.361 331.242L479.895 330.6L479.913 330.592C480.367 330.38 480.765 330.014 480.946 329.494C481.128 328.968 481.038 328.426 480.781 327.973C480.26 327.037 479.587 325.831 478.979 324.864C478.503 324.084 477.519 323.794 476.696 324.151L475.285 324.702C475.285 324.702 475.285 324.702 475.285 324.702C474.821 324.882 474.39 325.213 474.176 325.721C473.695 325.462 473.104 325.425 472.578 325.651ZM475.193 326.933C475.204 326.954 475.216 326.975 475.228 326.996C475.239 327.013 475.249 327.029 475.259 327.046C475.802 327.932 476.375 328.944 476.819 329.862C476.824 329.873 476.83 329.884 476.835 329.895C476.837 329.899 476.84 329.903 476.842 329.906C477.088 330.317 477.538 330.488 477.988 330.314L479.49 329.686C480.014 329.441 480.189 328.952 479.909 328.463C479.385 327.52 478.721 326.332 478.128 325.389C477.918 325.04 477.464 324.9 477.08 325.075L475.648 325.634C475.041 325.87 474.89 326.365 475.193 326.933ZM453.362 343.937L456.681 344.217C457.344 344.251 457.624 344.706 457.484 345.334C457.344 345.998 457.205 346.766 457.205 347.395C457.205 349.526 458.008 350.993 462.514 350.993C466.147 350.993 467.893 350.783 469.779 350.469C470.443 350.329 470.827 350.714 470.827 351.342L470.688 354.765C470.653 355.185 470.373 355.499 469.954 355.569C468.173 355.813 465.518 356.023 462.514 356.023C455.668 356.023 452 353.613 452 348.792C452 347.535 452.175 346.103 452.419 344.636C452.489 344.182 452.873 343.902 453.362 343.937ZM451.432 344.476C451.594 343.445 452.498 342.873 453.434 342.94L453.446 342.941L456.751 343.219C457.3 343.252 457.855 343.475 458.207 343.985C458.548 344.48 458.568 345.059 458.462 345.545C458.322 346.208 458.205 346.883 458.205 347.395C458.205 348.357 458.389 348.876 458.808 349.223C459.291 349.624 460.315 349.993 462.514 349.993C466.082 349.993 467.774 349.789 469.597 349.486C470.143 349.376 470.743 349.454 471.212 349.866C471.671 350.269 471.827 350.838 471.827 351.342V351.363L471.686 354.827L471.684 354.848C471.612 355.71 471.002 356.408 470.118 356.555L470.104 356.558L470.09 356.56C468.26 356.811 465.56 357.023 462.514 357.023C459.002 357.023 456.139 356.41 454.127 355.042C452.051 353.631 451 351.496 451 348.792C451 347.455 451.185 345.961 451.432 344.476ZM488.362 339.187C489.305 339.012 490.318 338.733 490.982 338.488C491.269 338.401 491.65 338.278 492.103 338.131C494.573 337.33 499.187 335.833 502.404 335.833C508.412 335.833 511.591 339.396 511.591 344.251C511.591 349.805 507.399 354.661 496.606 355.429C496.256 355.464 495.907 355.254 495.767 354.905L494.405 351.796C494.091 351.098 494.37 350.609 495.139 350.574C501.74 350.085 506.386 348.583 506.386 344.147C506.386 342.016 504.709 340.514 502.09 340.514C498.527 340.514 493.357 342.749 490.144 344.182C489.62 344.391 489.166 344.182 488.956 343.693L487.698 340.409C487.454 339.815 487.698 339.326 488.362 339.187ZM486.768 340.777C486.571 340.289 486.519 339.7 486.806 339.159C487.097 338.612 487.623 338.32 488.156 338.208L488.168 338.206L488.18 338.203C489.074 338.038 490.032 337.772 490.636 337.55L490.664 337.539L490.693 337.531C490.95 337.453 491.311 337.336 491.748 337.194C492.764 336.865 494.191 336.402 495.693 335.987C497.853 335.39 500.356 334.833 502.404 334.833C505.607 334.833 508.174 335.787 509.946 337.504C511.719 339.221 512.591 341.602 512.591 344.251C512.591 347.303 511.427 350.194 508.787 352.402C506.176 354.585 502.204 356.031 496.688 356.426C495.895 356.497 495.149 356.029 494.846 355.295L493.493 352.207C493.492 352.205 493.492 352.203 493.491 352.202C493.267 351.702 493.147 351.032 493.505 350.427C493.868 349.815 494.518 349.604 495.077 349.576C498.348 349.333 500.991 348.844 502.792 347.946C503.679 347.503 504.318 346.981 504.737 346.382C505.148 345.792 505.386 345.07 505.386 344.147C505.386 343.361 505.086 342.734 504.568 342.29C504.039 341.835 503.213 341.514 502.09 341.514C500.481 341.514 498.427 342.027 496.312 342.756C494.217 343.479 492.156 344.38 490.551 345.095L490.533 345.103L490.515 345.11C490.048 345.297 489.526 345.326 489.04 345.119C488.559 344.914 488.225 344.525 488.037 344.087L488.029 344.069L486.768 340.777ZM536.272 326.366L536.282 326.355C536.595 326.014 537.028 325.733 537.561 325.682C538.108 325.629 538.602 325.832 538.993 326.163L539.002 326.17L542.076 328.895C542.077 328.896 542.079 328.898 542.08 328.899C542.486 329.252 542.819 329.763 542.796 330.399C542.773 331.027 542.411 331.509 542.011 331.829L541.994 331.842L541.976 331.855C541.397 332.278 540.874 332.677 540.382 333.052C540.105 333.264 539.839 333.467 539.578 333.663C537.547 335.203 533.453 338.361 531.421 340.118L531.415 340.123C531.005 340.472 530.765 340.7 530.629 340.866C530.626 340.87 530.623 340.874 530.62 340.878C530.629 340.889 530.64 340.902 530.651 340.916C530.802 341.094 531.051 341.326 531.457 341.68C532.15 342.277 533.348 343.255 534.759 344.407C537.292 346.475 540.51 349.103 542.718 351.088L542.738 351.105L542.757 351.124C543.101 351.469 543.338 351.931 543.338 352.46C543.338 352.989 543.101 353.451 542.757 353.796L542.743 353.809L539.369 356.938C539.022 357.253 538.557 357.471 538.031 357.45C537.505 357.428 537.052 357.172 536.725 356.791C535.927 355.93 535.1 355.068 534.319 354.254L534.14 354.069C534.139 354.067 534.138 354.066 534.137 354.065C532.322 352.217 527.685 348.201 524.671 345.643L524.664 345.637C522.955 344.159 521.828 342.655 521.927 340.933C522.023 339.251 523.275 337.794 525.033 336.352L525.036 336.35C527.663 334.213 531.823 330.781 534.024 328.682C534.82 327.921 535.631 327.109 536.263 326.377L536.272 326.366ZM537.474 356.128C537.823 356.547 538.312 356.547 538.696 356.198L542.05 353.089C542.434 352.705 542.434 352.216 542.05 351.831C539.847 349.851 536.708 347.289 534.196 345.239C532.765 344.071 531.537 343.069 530.802 342.435C529.195 341.038 529.125 340.758 530.767 339.361C532.828 337.58 536.95 334.401 538.976 332.864C539.224 332.678 539.486 332.478 539.762 332.268C540.26 331.888 540.801 331.475 541.386 331.048C541.91 330.629 541.945 330.105 541.421 329.651L538.347 326.926C537.893 326.542 537.404 326.612 537.02 327.031C536.356 327.799 535.518 328.638 534.714 329.406C532.479 331.537 528.287 334.995 525.667 337.126C522.174 339.99 521.965 341.981 525.318 344.88C528.322 347.43 533.003 351.482 534.854 353.368L535.04 353.562C535.826 354.38 536.665 355.254 537.474 356.128ZM559.095 330.664C559.235 329.721 559.305 328.673 559.34 327.799C559.34 327.241 559.689 326.891 560.248 326.926L563.671 327.066C564.335 327.101 564.649 327.52 564.475 328.149C564.37 328.672 564.23 329.266 564.091 329.86C563.741 331.501 564.23 331.712 565.522 330.664C567.059 329.441 568.946 328.533 571.251 328.533C575.932 328.533 579.739 333.039 579.739 340.479C579.739 349.666 574.29 354.311 565.592 356.093C565.278 356.163 564.894 355.988 564.719 355.709L562.728 352.705C562.309 352.041 562.519 351.517 563.322 351.342C569.994 350.12 574.29 347.779 574.29 340.479C574.29 335.519 572.613 333.179 570.308 333.179C566.57 333.179 563.357 338.977 563.357 343.273C563.357 343.797 563.392 344.531 563.462 345.509C563.531 346.068 563.217 346.452 562.658 346.487L559.445 346.697C558.956 346.732 558.606 346.452 558.536 345.963C558.397 344.706 558.222 342.959 558.222 341.143C558.222 338.104 558.571 334.471 559.095 330.664ZM559.516 347.694C559.515 347.694 559.514 347.694 559.512 347.694C559.059 347.726 558.59 347.614 558.206 347.305C557.821 346.995 557.611 346.558 557.547 346.104L557.544 346.089L557.543 346.073C557.402 344.809 557.222 343.017 557.222 341.143C557.222 338.037 557.578 334.353 558.105 330.527L558.106 330.517C558.238 329.631 558.305 328.63 558.34 327.777C558.345 327.297 558.502 326.798 558.887 326.423C559.281 326.041 559.797 325.899 560.298 325.927L563.724 326.067C564.244 326.095 564.816 326.286 565.19 326.788C565.558 327.283 565.579 327.873 565.449 328.377C565.366 328.786 565.264 329.233 565.16 329.679C566.78 328.456 568.795 327.533 571.251 327.533C576.734 327.533 580.739 332.776 580.739 340.479C580.739 345.285 579.306 349.008 576.646 351.758C574.008 354.485 570.26 356.157 565.799 357.071C565.396 357.158 565.006 357.083 564.697 356.945C564.389 356.808 564.087 356.577 563.88 356.252L561.888 353.248L561.883 353.239C561.587 352.771 561.363 352.113 561.647 351.448C561.928 350.786 562.557 350.485 563.109 350.365L563.126 350.362L563.142 350.359C566.439 349.754 568.957 348.901 570.654 347.434C572.292 346.016 573.29 343.912 573.29 340.479C573.29 338.089 572.882 336.465 572.301 335.475C571.747 334.531 571.057 334.179 570.308 334.179C568.96 334.179 567.484 335.26 566.273 337.154C565.091 339.003 564.357 341.342 564.357 343.273C564.357 343.757 564.389 344.455 564.457 345.415C564.511 345.898 564.41 346.413 564.069 346.829C563.719 347.255 563.22 347.454 562.722 347.485C562.721 347.485 562.721 347.485 562.721 347.485L559.516 347.694ZM618.791 328.708C618.651 333.912 618.372 336.322 617.638 337.231C617.044 337.999 616.346 338.313 615.472 338.453C615.431 338.461 615.388 338.469 615.343 338.477C615.022 338.53 614.627 338.56 614.18 338.59C614.168 338.591 614.157 338.592 614.145 338.593H614.18C614.285 338.593 614.39 338.698 614.39 338.802V340.479C614.39 341.003 614.739 341.352 615.263 341.352H618.092C618.616 341.352 618.965 341.702 618.965 342.226V344.496C618.965 345.02 618.616 345.369 618.092 345.369H615.263C614.739 345.369 614.39 345.719 614.39 346.242V346.906C614.39 347.43 614.739 347.779 615.263 347.779H618.791C619.315 347.779 619.664 348.129 619.664 348.653V351.028C619.664 351.552 619.315 351.901 618.791 351.901H615.263C614.739 351.901 614.39 352.25 614.39 352.774V356.093C614.39 356.617 614.04 356.966 613.516 356.966H610.687C610.163 356.966 609.814 356.617 609.814 356.093V352.774C609.814 352.25 609.464 351.901 608.94 351.901H604.993C604.86 351.901 604.739 351.879 604.631 351.837C604.315 351.713 604.12 351.419 604.12 351.028V348.653C604.12 348.262 604.315 347.968 604.631 347.844C604.702 347.816 604.78 347.797 604.863 347.787C604.905 347.782 604.949 347.779 604.993 347.779H608.94C609.464 347.779 609.814 347.43 609.814 346.906V346.242C609.814 345.719 609.464 345.369 608.94 345.369H608.172C607.823 345.369 607.508 345.614 607.334 345.928L606.949 346.732C606.941 346.748 606.932 346.764 606.923 346.779C606.637 347.262 606.13 347.352 605.622 347.081L604.889 346.627H604.819C604.138 346.286 603.657 346.576 603.632 347.334C603.631 347.354 603.631 347.374 603.631 347.395V352.635C603.631 354.381 603.352 355.604 602.234 356.267C601.291 356.826 600.138 357.001 598.636 357.036C598.182 357.036 597.833 356.721 597.728 356.267C597.588 355.639 597.344 354.905 597.064 354.207C596.785 353.473 597.064 353.019 597.868 353.054H599.23C599.579 353.054 599.719 352.914 599.719 352.53V349.246C599.719 348.723 599.37 348.373 598.846 348.373H594.619C594.165 348.373 593.816 348.688 593.746 349.142C593.432 351.692 592.838 354.241 591.72 356.267C591.441 356.826 590.882 356.861 590.393 356.512C589.904 356.163 589.31 355.778 588.786 355.499C588.262 355.185 588.122 354.661 588.402 354.137C590.183 350.783 590.288 346.347 590.288 342.924V338.139C590.288 337.894 590.183 337.65 590.008 337.51C589.955 337.464 589.9 337.417 589.846 337.37C589.404 336.992 588.942 336.594 588.506 336.253C587.982 335.868 587.913 335.344 588.332 334.855C590.078 332.655 591.441 329.546 592.209 326.367C592.349 325.878 592.768 325.599 593.257 325.704L595.772 326.228C596.331 326.367 596.575 326.786 596.436 327.31L596.366 327.59C596.156 328.254 596.505 328.708 597.204 328.708H598.392L598.566 328.673H598.636L598.776 328.603H598.846C599.02 328.568 599.195 328.603 599.37 328.708L601.221 329.86C601.57 330.07 601.71 330.489 601.57 330.873C601.326 331.537 601.046 332.201 600.732 332.899C600.383 333.668 600.697 334.157 601.535 334.157H602.793C603.282 334.157 603.631 334.506 603.631 334.995C603.631 335.484 603.945 335.694 604.365 335.414C605.762 334.576 606.495 333.458 606.88 332.166C607.054 331.572 606.705 331.153 606.076 331.153H604.714C604.19 331.153 603.841 330.803 603.841 330.279V328.114C603.841 327.59 604.19 327.241 604.714 327.241H618.092C618.546 327.241 618.826 327.52 618.791 327.974V328.708ZM619.791 328.006V328.721L619.79 328.734C619.72 331.34 619.615 333.288 619.429 334.71C619.25 336.071 618.978 337.157 618.423 337.85C617.644 338.855 616.699 339.267 615.649 339.438C615.566 339.454 615.479 339.468 615.39 339.481V340.352H618.092C618.581 340.352 619.067 340.52 619.432 340.885C619.798 341.251 619.965 341.736 619.965 342.226V344.496C619.965 344.985 619.798 345.471 619.432 345.836C619.067 346.202 618.581 346.369 618.092 346.369H615.39V346.779H618.791C619.28 346.779 619.765 346.947 620.131 347.312C620.497 347.678 620.664 348.163 620.664 348.653V351.028C620.664 351.517 620.497 352.003 620.131 352.368C619.765 352.734 619.28 352.901 618.791 352.901H615.39V356.093C615.39 356.582 615.222 357.067 614.857 357.433C614.491 357.799 614.006 357.966 613.516 357.966H610.687C610.198 357.966 609.712 357.799 609.347 357.433C608.981 357.067 608.814 356.582 608.814 356.093V352.901H604.993C604.871 352.901 604.749 352.891 604.629 352.869C604.605 354.56 604.297 356.205 602.744 357.127C601.571 357.823 600.2 358 598.659 358.036L598.648 358.036H598.636C597.652 358.036 596.948 357.334 596.754 356.492L596.752 356.484C596.628 355.926 596.403 355.246 596.136 354.578L596.133 354.57L596.13 354.563C595.945 354.076 595.826 353.384 596.231 352.783C596.644 352.17 597.339 352.035 597.887 352.054H598.719V349.373H594.725C594.401 351.935 593.789 354.58 592.604 356.735C592.337 357.256 591.874 357.632 591.281 357.719C590.722 357.802 590.203 357.606 589.811 357.326C589.345 356.993 588.789 356.634 588.315 356.381L588.293 356.369L588.271 356.356C587.83 356.091 587.475 355.688 587.329 355.164C587.184 354.641 587.28 354.115 587.519 353.667C589.165 350.567 589.288 346.383 589.288 342.924V338.209C589.257 338.183 589.225 338.156 589.194 338.129C588.754 337.751 588.313 337.373 587.9 337.048C587.491 336.743 587.147 336.298 587.073 335.719C586.999 335.137 587.225 334.617 587.558 334.221C589.187 332.164 590.494 329.206 591.237 326.132L591.242 326.112L591.247 326.093C591.516 325.153 592.408 324.5 593.464 324.725C593.465 324.725 593.465 324.726 593.466 324.726L595.995 325.253L596.014 325.257C596.489 325.376 596.942 325.645 597.221 326.108C597.501 326.57 597.527 327.092 597.404 327.56C597.403 327.562 597.403 327.565 597.402 327.568L597.367 327.708H598.293L598.355 327.695L598.54 327.603H598.768C599.177 327.551 599.56 327.656 599.884 327.85L599.891 327.854L601.735 329.003C601.738 329.005 601.741 329.006 601.744 329.008C602.515 329.476 602.805 330.403 602.51 331.215L602.509 331.219C602.272 331.862 602.006 332.499 601.712 333.157H602.793C603.526 333.157 604.139 333.552 604.437 334.15C605.137 333.588 605.563 332.919 605.833 332.153H604.714C604.225 332.153 603.739 331.985 603.374 331.62C603.008 331.254 602.841 330.769 602.841 330.279V328.114C602.841 327.625 603.008 327.139 603.374 326.774C603.739 326.408 604.225 326.241 604.714 326.241H618.092C618.521 326.241 618.99 326.376 619.344 326.742C619.692 327.103 619.814 327.568 619.791 328.006ZM598.717 352.564C598.717 352.564 598.717 352.559 598.719 352.55C598.718 352.56 598.718 352.564 598.717 352.564ZM608.035 346.779H608.814V346.369H608.24C608.239 346.37 608.238 346.371 608.238 346.371C608.232 346.378 608.227 346.384 608.222 346.392C608.22 346.394 608.219 346.396 608.218 346.398L608.035 346.779ZM611.386 331.607C610.897 334.331 609.919 336.532 607.613 338.209C606.915 338.733 606.984 339.082 607.788 339.256L608.801 339.466C608.805 339.467 608.809 339.468 608.814 339.469C609.086 339.544 609.254 339.785 609.185 340.06C609.17 340.179 609.149 340.299 609.124 340.418C609.09 340.578 609.05 340.738 609.01 340.898C608.94 341.178 609.08 341.352 609.36 341.352C609.568 341.352 609.718 341.256 609.781 341.091C609.802 341.034 609.814 340.97 609.814 340.898V339.117C609.814 339.065 609.819 339.016 609.83 338.97C609.886 338.739 610.075 338.593 610.338 338.593H611.63C611.944 338.593 612.154 338.383 612.119 338.069C612.049 337.3 611.84 336.427 611.525 335.659C611.316 335.1 611.525 334.785 612.119 334.855C612.538 334.89 612.888 334.89 613.132 334.89C613.481 334.89 613.761 334.82 614.005 334.506C614.18 334.261 614.355 333.458 614.459 331.712C614.494 331.362 614.285 331.153 613.935 331.153H611.91C611.63 331.153 611.421 331.327 611.386 331.607ZM613.188 333.889C613.173 333.89 613.154 333.89 613.132 333.89C612.893 333.89 612.584 333.89 612.216 333.86C612.113 333.849 611.994 333.843 611.869 333.849C612.043 333.302 612.184 332.736 612.3 332.153H613.427C613.382 332.746 613.329 333.185 613.273 333.5C613.242 333.679 613.213 333.805 613.188 333.889ZM610.721 336.356C610.413 336.843 610.057 337.308 609.644 337.749C609.864 337.642 610.103 337.593 610.338 337.593H611.046C610.974 337.184 610.863 336.759 610.721 336.356ZM608.946 338.475C608.959 338.445 608.974 338.415 608.989 338.386C608.959 338.412 608.929 338.439 608.898 338.465L608.946 338.475ZM605.273 339.676C605.308 339.571 605.273 339.431 605.238 339.361C605.073 339.032 604.865 338.659 604.631 338.294C604.628 338.289 604.624 338.284 604.621 338.278C604.614 338.267 604.607 338.256 604.599 338.245C604.546 338.162 604.491 338.08 604.435 337.999C604.015 337.37 603.631 337.51 603.631 338.278V342.54C603.631 342.568 603.631 342.596 603.632 342.623C603.649 343.822 604.05 343.908 604.455 342.756C604.46 342.743 604.465 342.729 604.469 342.715C604.49 342.656 604.511 342.598 604.531 342.54C604.565 342.439 604.599 342.338 604.631 342.237C604.897 341.408 605.097 340.554 605.273 339.676ZM594.2 333.388C593.99 333.842 594.165 334.157 594.689 334.157H595.807C596.016 334.157 596.191 334.017 596.296 333.807C596.366 333.563 596.47 333.284 596.575 333.005C596.715 332.585 596.54 332.305 596.086 332.305H595.003C594.829 332.305 594.619 332.41 594.549 332.585C594.41 332.864 594.305 333.109 594.2 333.388ZM594.741 338.638C594.768 338.632 594.798 338.622 594.829 338.608C594.857 338.595 594.886 338.579 594.915 338.558C594.886 338.537 594.857 338.521 594.829 338.508C594.798 338.494 594.768 338.484 594.741 338.477C594.714 338.484 594.685 338.494 594.654 338.508C594.626 338.521 594.597 338.537 594.568 338.558C594.597 338.579 594.626 338.595 594.654 338.608C594.685 338.622 594.714 338.632 594.741 338.638ZM599.09 338.634C599.123 338.625 599.158 338.611 599.195 338.59C599.212 338.581 599.229 338.57 599.246 338.558C599.229 338.546 599.212 338.535 599.195 338.525C599.158 338.505 599.123 338.491 599.09 338.482C599.058 338.491 599.022 338.505 598.985 338.525C598.969 338.535 598.952 338.546 598.935 338.558C598.952 338.57 598.969 338.581 598.985 338.59C599.022 338.611 599.058 338.625 599.09 338.634ZM594.13 344.356C594.095 344.706 594.305 344.915 594.654 344.915H594.829C595.143 344.915 595.353 344.706 595.353 344.391V343.343C595.353 343.029 595.143 342.819 594.829 342.819H594.654C594.34 342.819 594.13 343.099 594.13 343.413V344.356ZM652.48 330.537H652.568C653.057 330.537 653.543 330.704 653.908 331.07C654.274 331.436 654.441 331.921 654.441 332.41V342.68C654.441 343.169 654.274 343.654 653.908 344.02C653.543 344.385 653.057 344.553 652.568 344.553H650.704V348.211C650.782 348.143 650.869 348.08 650.966 348.024C651.676 347.611 652.471 347.834 653.032 348.083C653.63 348.329 654.177 348.553 654.683 348.711L654.692 348.714L654.701 348.717C655.482 348.977 656.121 349.701 656.045 350.685L656.044 350.695C655.834 353.133 655.448 354.918 654.655 356.096C654.238 356.716 653.711 357.168 653.064 357.453C652.433 357.731 651.744 357.826 651.031 357.826H649.145C647.377 357.826 645.943 357.448 645.07 356.186C644.281 355.047 644.128 353.397 644.128 351.447V349.756C643.266 352.712 641.693 355.409 638.682 357.504C638.235 357.822 637.685 357.962 637.13 357.807C636.603 357.659 636.225 357.288 635.99 356.883C635.818 356.603 635.611 356.309 635.383 356.008C635.31 356.13 635.221 356.245 635.116 356.35C634.75 356.716 634.265 356.883 633.776 356.883H629.452C629.385 357.152 629.25 357.405 629.042 357.612C628.733 357.922 628.322 358.071 627.907 358.071H625.393C624.903 358.071 624.418 357.903 624.052 357.538C623.687 357.172 623.519 356.687 623.519 356.198V346.452C623.519 345.963 623.687 345.477 624.052 345.112C624.121 345.043 624.194 344.982 624.27 344.927C624.231 344.894 624.194 344.86 624.157 344.823C623.791 344.458 623.624 343.972 623.624 343.483V341.667C623.624 341.177 623.791 340.692 624.157 340.326C624.196 340.288 624.236 340.251 624.277 340.217C624.236 340.183 624.196 340.146 624.157 340.108C623.791 339.742 623.624 339.257 623.624 338.767V336.951C623.624 336.605 623.708 336.261 623.886 335.96C623.398 335.959 622.915 335.792 622.55 335.427C622.185 335.061 622.017 334.576 622.017 334.087V332.061C622.017 331.572 622.185 331.086 622.55 330.721C622.916 330.355 623.401 330.188 623.891 330.188H624.075C623.911 329.895 623.834 329.564 623.834 329.232V327.38C623.834 326.891 624.001 326.406 624.367 326.04C624.732 325.674 625.218 325.507 625.707 325.507H633.566C634.055 325.507 634.541 325.674 634.906 326.04C635.272 326.406 635.439 326.891 635.439 327.38V329.232C635.439 329.583 635.353 329.932 635.169 330.237C635.497 330.31 635.807 330.468 636.059 330.721C636.123 330.785 636.181 330.853 636.234 330.924C636.553 330.676 636.938 330.553 637.33 330.538C637.055 329.859 636.735 329.139 636.414 328.466C636.159 327.996 636.057 327.415 636.287 326.855C636.521 326.288 637.013 325.946 637.539 325.794L640.127 324.966C640.961 324.673 641.834 325 642.283 325.748L642.289 325.759C643.043 327.051 643.773 328.542 644.221 329.844C644.299 330.066 644.341 330.3 644.337 330.537H645.62C645.619 330.269 645.676 330.007 645.771 329.768L645.773 329.763C646.203 328.705 646.609 327.357 646.917 326.125L646.919 326.117L646.921 326.11C647.043 325.651 647.312 325.216 647.753 324.94C648.2 324.659 648.723 324.605 649.218 324.735C649.221 324.736 649.225 324.737 649.228 324.737L652.309 325.499C652.838 325.62 653.342 325.928 653.605 326.477C653.864 327.017 653.793 327.592 653.59 328.058C653.21 328.945 652.83 329.775 652.48 330.537ZM652.673 327.66C652.917 327.101 652.708 326.612 652.079 326.472L648.97 325.704C648.446 325.564 648.027 325.843 647.887 326.367C647.573 327.625 647.154 329.022 646.7 330.14C646.644 330.279 646.618 330.412 646.62 330.537C646.623 330.697 646.672 330.842 646.765 330.961C646.861 331.084 647.003 331.18 647.189 331.238C647.211 331.245 647.235 331.252 647.259 331.258C647.783 331.432 647.748 331.537 647.189 331.537H642.788C642.299 331.537 642.264 331.432 642.753 331.258C642.765 331.253 642.776 331.249 642.788 331.244C642.986 331.167 643.135 331.048 643.227 330.899C643.294 330.792 643.332 330.67 643.337 330.537C643.341 330.423 643.322 330.301 643.277 330.175C642.858 328.952 642.159 327.52 641.425 326.263C641.216 325.913 640.832 325.774 640.447 325.913L637.828 326.752C637.199 326.926 636.989 327.45 637.304 328.009C637.688 328.812 638.072 329.686 638.386 330.489C638.631 331.118 638.317 331.537 637.653 331.537H637.408C637.009 331.537 636.711 331.74 636.592 332.068C636.555 332.171 636.535 332.286 636.535 332.41V342.68C636.535 343.204 636.884 343.553 637.408 343.553H638.352C638.91 343.553 639.26 343.937 639.225 344.496C638.945 347.43 638.317 350.155 635.906 352.181C635.208 352.774 634.649 352.425 634.649 351.517V346.452C634.649 345.928 634.3 345.579 633.776 345.579H625.393C624.869 345.579 624.519 345.928 624.519 346.452V356.198C624.519 356.721 624.869 357.071 625.393 357.071H627.907C628.257 357.071 628.501 356.826 628.501 356.477C628.501 356.128 628.746 355.883 629.095 355.883H633.776C634.271 355.883 634.611 355.57 634.646 355.093C634.646 355.092 634.646 355.092 634.646 355.092C634.648 355.065 634.649 355.038 634.649 355.01V354.8C634.649 354.137 634.963 353.962 635.417 354.451C635.494 354.543 635.571 354.637 635.648 354.73C635.649 354.732 635.65 354.733 635.651 354.734C636.095 355.277 636.523 355.837 636.85 356.372C637.129 356.861 637.618 357.036 638.107 356.687C642.578 353.578 643.661 349.037 644.08 344.042C644.115 343.762 644.325 343.553 644.639 343.553C644.918 343.553 645.128 343.762 645.128 344.042V351.447C645.128 355.394 645.827 356.826 649.145 356.826H651.031C653.546 356.826 654.629 355.464 655.048 350.609C655.083 350.155 654.804 349.805 654.384 349.666C653.826 349.491 653.232 349.246 652.638 349.002C651.625 348.548 651.066 348.827 651.031 349.98C650.961 352.216 650.822 352.6 650.472 352.6H650.018C649.704 352.6 649.704 352.46 649.704 351.412V344.426C649.704 343.902 650.053 343.553 650.577 343.553H652.568C653.092 343.553 653.441 343.204 653.441 342.68V332.41C653.441 331.886 653.092 331.537 652.568 331.537H652.149C651.38 331.537 651.101 331.083 651.45 330.384L651.546 330.175C651.904 329.395 652.288 328.557 652.673 327.66ZM650.032 349.949C650.032 349.948 650.032 349.949 650.032 349.949L650.704 349.97ZM638.214 344.553H637.408C636.919 344.553 636.434 344.385 636.068 344.02C635.703 343.654 635.535 343.169 635.535 342.68V335.789C635.392 335.854 635.242 335.9 635.088 335.927C635.28 336.236 635.37 336.593 635.37 336.951V338.767C635.37 339.257 635.202 339.742 634.836 340.108C634.798 340.146 634.758 340.183 634.717 340.217C634.758 340.251 634.798 340.288 634.836 340.326C635.202 340.692 635.37 341.177 635.37 341.667V343.483C635.37 343.972 635.202 344.458 634.836 344.823C634.824 344.836 634.811 344.848 634.799 344.86C634.911 344.93 635.018 345.014 635.116 345.112C635.482 345.477 635.649 345.963 635.649 346.452V351.068C637.401 349.378 637.953 347.173 638.214 344.553ZM635.535 334.429C635.572 334.326 635.592 334.211 635.592 334.087V332.061C635.592 332.023 635.59 331.986 635.587 331.95C635.541 331.488 635.205 331.188 634.719 331.188H623.891C623.367 331.188 623.017 331.537 623.017 332.061V334.087C623.017 334.611 623.367 334.96 623.891 334.96H634.719C635.118 334.96 635.416 334.757 635.535 334.429ZM647.481 338.466V336.659H642.181V338.466H647.481ZM629.562 351.146V350.316H629.501V351.146H629.562ZM594.829 337.65H594.654C594.34 337.65 594.13 337.859 594.13 338.174V338.942C594.13 339.256 594.34 339.466 594.654 339.466H594.829C595.143 339.466 595.353 339.256 595.353 338.942V338.174C595.353 337.859 595.143 337.65 594.829 337.65ZM599.195 337.65H598.985C598.671 337.65 598.461 337.859 598.461 338.174V338.942C598.461 339.256 598.671 339.466 598.985 339.466H599.195C599.509 339.466 599.719 339.256 599.719 338.942V338.174C599.719 337.859 599.509 337.65 599.195 337.65ZM598.461 343.343V344.391C598.461 344.706 598.671 344.915 598.985 344.915H599.195C599.509 344.915 599.719 344.706 599.719 344.391V343.343C599.719 343.029 599.509 342.819 599.195 342.819H598.985C598.671 342.819 598.461 343.029 598.461 343.343ZM625.707 326.507H633.566C634.09 326.507 634.439 326.856 634.439 327.38V329.232C634.439 329.756 634.09 330.105 633.566 330.105H625.707C625.183 330.105 624.834 329.756 624.834 329.232V327.38C624.834 326.856 625.183 326.507 625.707 326.507ZM641.705 339.466H647.957C648.272 339.466 648.481 339.256 648.481 338.942V336.183C648.481 335.868 648.272 335.659 647.957 335.659H641.705C641.39 335.659 641.181 335.868 641.181 336.183V338.942C641.181 339.256 641.39 339.466 641.705 339.466ZM625.497 336.078H633.496C634.02 336.078 634.37 336.427 634.37 336.951V338.767C634.37 339.291 634.02 339.641 633.496 339.641H625.497C624.973 339.641 624.624 339.291 624.624 338.767V336.951C624.624 336.427 624.973 336.078 625.497 336.078ZM633.496 344.356H625.497C624.973 344.356 624.624 344.007 624.624 343.483V341.667C624.624 341.143 624.973 340.793 625.497 340.793H633.496C634.02 340.793 634.37 341.143 634.37 341.667V343.483C634.37 344.007 634.02 344.356 633.496 344.356ZM629.025 352.146H630.038C630.353 352.146 630.562 351.936 630.562 351.622V349.84C630.562 349.526 630.353 349.316 630.038 349.316H629.025C628.711 349.316 628.501 349.526 628.501 349.84V351.622C628.501 351.936 628.711 352.146 629.025 352.146Z" fill="#F39423"/>
<rect x="436.5" y="310.5" width="234.051" height="61.0708" rx="6.5" stroke="#F39423"/>
</g>
<g clip-path="url(#clip2_798_6410)">
<path d="M897 118C790.932 118 705.18 203.751 705.18 309.82C705.18 415.888 790.932 501.639 897 501.639C1003.07 501.639 1088.82 415.888 1088.82 309.82V118H897Z" fill="#686868"/>
<path d="M890.797 315.757V450.251C818.003 447.172 759.382 388.55 756.303 315.757H890.797Z" fill="white" stroke="#686868" stroke-width="4.10916"/>
<path d="M902.936 316.019H1037.43C1034.35 388.813 975.729 447.433 902.936 450.512V316.019Z" fill="white" stroke="#686868" stroke-width="4.10916"/>
<path d="M902.936 303.619V169.055H1037.5V303.619H902.936Z" fill="white" stroke="#686868" stroke-width="4.10916"/>
</g>
<path d="M987 503.5H1119.5V553.832H984.5V506C984.5 504.619 985.619 503.5 987 503.5Z" fill="#121212"/>
<path d="M995.478 535H997.768C997.949 535 998.1 534.879 998.13 534.699L998.733 531.896C998.884 531.127 998.989 530.389 999.125 529.5H999.2C999.336 530.389 999.471 531.127 999.622 531.896L1000.25 534.699C1000.29 534.879 1000.44 535 1000.62 535H1002.98C1003.16 535 1003.31 534.879 1003.36 534.714L1005.11 527.314C1005.17 527.028 1005.02 526.847 1004.73 526.847H1003.16C1002.97 526.847 1002.82 526.968 1002.79 527.149L1002.14 530.509C1001.99 531.308 1001.91 532.122 1001.79 532.935H1001.72C1001.54 532.122 1001.4 531.308 1001.22 530.509L1000.42 527.134C1000.38 526.968 1000.22 526.847 1000.04 526.847H998.432C998.251 526.847 998.1 526.968 998.07 527.134L997.301 530.509C997.105 531.293 996.97 532.122 996.834 532.935H996.759C996.638 532.122 996.548 531.308 996.412 530.509L995.749 527.149C995.719 526.968 995.568 526.847 995.372 526.847H993.654C993.368 526.847 993.217 527.028 993.293 527.314L995.101 534.714C995.146 534.879 995.297 535 995.478 535Z" fill="#E7E7E7"/>
<path d="M1007.54 535H1009.33C1009.56 535 1009.71 534.849 1009.71 534.623V530.389L1009.74 530.298V530.268C1010.18 529.258 1010.89 528.882 1011.46 528.882C1011.65 528.882 1011.81 528.897 1011.96 528.927C1012.2 528.972 1012.38 528.867 1012.42 528.626L1012.72 527.119C1012.75 526.953 1012.68 526.772 1012.51 526.727C1012.33 526.682 1012.11 526.651 1011.79 526.651C1011.14 526.651 1010.42 526.983 1009.85 527.676C1009.58 528.008 1009.41 527.978 1009.35 527.556L1009.29 527.164C1009.26 526.983 1009.11 526.847 1008.91 526.847H1007.54C1007.31 526.847 1007.16 526.998 1007.16 527.224V534.623C1007.16 534.849 1007.31 535 1007.54 535Z" fill="#E7E7E7"/>
<path d="M1015.37 525.717C1016.22 525.717 1016.82 525.175 1016.82 524.421C1016.82 523.652 1016.22 523.11 1015.37 523.11C1014.52 523.11 1013.91 523.652 1013.91 524.421C1013.91 525.175 1014.52 525.717 1015.37 525.717ZM1014.47 535H1016.26C1016.49 535 1016.64 534.849 1016.64 534.623V527.224C1016.64 526.998 1016.49 526.847 1016.26 526.847H1014.47C1014.24 526.847 1014.09 526.998 1014.09 527.224V534.623C1014.09 534.849 1014.24 535 1014.47 535Z" fill="#E7E7E7"/>
<path d="M1022.19 535.196C1022.82 535.196 1023.32 535.106 1023.71 534.985C1023.91 534.94 1024.01 534.759 1023.97 534.563L1023.71 533.433C1023.67 533.222 1023.5 533.116 1023.28 533.162C1023.16 533.192 1023.02 533.207 1022.9 533.207C1022.3 533.207 1021.86 532.845 1021.86 531.956V529.213C1021.86 528.987 1022.01 528.836 1022.24 528.836H1023.41C1023.64 528.836 1023.79 528.686 1023.79 528.46V527.224C1023.79 526.998 1023.64 526.847 1023.41 526.847H1022.24C1022.01 526.847 1021.86 526.697 1021.86 526.471V525.084C1021.86 524.858 1021.71 524.707 1021.48 524.707H1020.08C1019.89 524.707 1019.73 524.843 1019.7 525.039L1019.51 526.546C1019.48 526.727 1019.34 526.862 1019.16 526.877L1018.56 526.923C1018.35 526.938 1018.21 527.088 1018.21 527.299V528.46C1018.21 528.686 1018.36 528.836 1018.59 528.836H1018.94C1019.16 528.836 1019.31 528.987 1019.31 529.213V531.986C1019.31 533.915 1020.14 535.196 1022.19 535.196Z" fill="#E7E7E7"/>
<path d="M1028.9 535.196C1029.53 535.196 1030.03 535.106 1030.42 534.985C1030.62 534.94 1030.72 534.759 1030.68 534.563L1030.42 533.433C1030.38 533.222 1030.21 533.116 1029.99 533.162C1029.87 533.192 1029.73 533.207 1029.61 533.207C1029.01 533.207 1028.57 532.845 1028.57 531.956V529.213C1028.57 528.987 1028.72 528.836 1028.95 528.836H1030.12C1030.35 528.836 1030.5 528.686 1030.5 528.46V527.224C1030.5 526.998 1030.35 526.847 1030.12 526.847H1028.95C1028.72 526.847 1028.57 526.697 1028.57 526.471V525.084C1028.57 524.858 1028.42 524.707 1028.19 524.707H1026.79C1026.6 524.707 1026.45 524.843 1026.42 525.039L1026.22 526.546C1026.19 526.727 1026.05 526.862 1025.87 526.877L1025.27 526.923C1025.06 526.938 1024.92 527.088 1024.92 527.299V528.46C1024.92 528.686 1025.07 528.836 1025.3 528.836H1025.65C1025.87 528.836 1026.02 528.987 1026.02 529.213V531.986C1026.02 533.915 1026.85 535.196 1028.9 535.196Z" fill="#E7E7E7"/>
<path d="M1036.15 535.196C1037 535.196 1037.98 534.94 1038.78 534.458C1038.96 534.352 1039 534.156 1038.9 533.975L1038.4 533.086C1038.29 532.875 1038.08 532.815 1037.87 532.92C1037.42 533.146 1036.97 533.252 1036.5 533.252C1035.63 533.252 1034.93 532.92 1034.6 532.122C1034.5 531.866 1034.65 531.685 1034.93 531.685H1038.99C1039.15 531.685 1039.29 531.579 1039.32 531.413C1039.35 531.187 1039.36 530.886 1039.36 530.585C1039.36 528.354 1038.22 526.651 1035.88 526.651C1033.89 526.651 1032.01 528.279 1032.01 530.931C1032.01 533.629 1033.82 535.196 1036.15 535.196ZM1034.5 529.756C1034.72 528.972 1035.28 528.595 1035.91 528.595C1036.76 528.595 1037.13 529.093 1037.19 529.786C1037.21 529.922 1037.12 530.012 1036.98 530.012H1034.71C1034.54 530.012 1034.45 529.906 1034.5 529.756Z" fill="#E7E7E7"/>
<path d="M1041.83 535H1043.62C1043.85 535 1044 534.849 1044 534.623V529.726C1044 529.62 1044.05 529.515 1044.12 529.454C1044.56 529.047 1044.89 528.836 1045.42 528.836C1046.05 528.836 1046.35 529.153 1046.35 530.268V534.623C1046.35 534.849 1046.5 535 1046.73 535H1048.52C1048.75 535 1048.9 534.849 1048.9 534.623V529.967C1048.9 527.932 1048.15 526.651 1046.37 526.651C1045.46 526.651 1044.74 527.028 1044.12 527.525C1043.88 527.721 1043.7 527.661 1043.64 527.36L1043.59 527.149C1043.56 526.968 1043.41 526.847 1043.22 526.847H1041.83C1041.61 526.847 1041.45 526.998 1041.45 527.224V534.623C1041.45 534.849 1041.61 535 1041.83 535Z" fill="#E7E7E7"/>
<path d="M1059.17 535.196C1060.92 535.196 1062.59 533.599 1062.59 530.78C1062.59 528.279 1061.36 526.651 1059.4 526.651C1058.84 526.651 1058.28 526.832 1057.79 527.164C1057.48 527.36 1057.32 527.284 1057.33 526.908L1057.36 526.305V523.939C1057.36 523.713 1057.21 523.562 1056.99 523.562H1055.19C1054.97 523.562 1054.82 523.713 1054.82 523.939V534.623C1054.82 534.849 1054.97 535 1055.19 535H1056.52C1056.69 535 1056.84 534.895 1056.88 534.729L1056.93 534.563C1057 534.307 1057.17 534.262 1057.36 534.442C1057.94 534.955 1058.58 535.196 1059.17 535.196ZM1058.57 533.116C1058.22 533.116 1057.82 533.011 1057.44 532.694C1057.39 532.664 1057.36 532.589 1057.36 532.529V529.5C1057.36 529.439 1057.39 529.379 1057.42 529.349C1057.83 528.927 1058.21 528.731 1058.66 528.731C1059.56 528.731 1059.97 529.409 1059.97 530.841C1059.97 532.468 1059.35 533.116 1058.57 533.116Z" fill="#E7E7E7"/>
<path d="M1065.75 538.135C1067.68 538.135 1068.55 537.11 1069.35 535.015L1071.99 527.345C1072.08 527.043 1071.94 526.847 1071.62 526.847H1070.01C1069.85 526.847 1069.69 526.953 1069.65 527.119L1068.78 530.238C1068.59 531.007 1068.41 531.76 1068.25 532.544H1068.17C1067.96 531.73 1067.8 530.976 1067.55 530.238L1066.54 527.103C1066.48 526.953 1066.35 526.847 1066.18 526.847H1064.45C1064.12 526.847 1063.97 527.058 1064.09 527.36L1066.97 534.638C1067 534.714 1067 534.804 1066.98 534.879L1066.91 535.166C1066.71 535.738 1066.32 536.145 1065.57 536.145H1065.54L1065.26 536.1C1065.1 536.07 1064.96 536.145 1064.93 536.311L1064.63 537.622C1064.57 537.848 1064.68 538.029 1064.9 538.059C1065.13 538.104 1065.4 538.135 1065.75 538.135Z" fill="#E7E7E7"/>
<g clip-path="url(#clip3_798_6410)">
<path fill-rule="evenodd" clip-rule="evenodd" d="M1081.55 523.722C1081.6 525.483 1081.98 527.218 1082.7 528.829C1083.39 528.404 1083.9 528.185 1084.23 528.046C1084.34 528 1084.43 527.963 1084.49 527.93C1084.64 527.86 1084.71 527.762 1084.77 527.684C1084.83 527.615 1084.87 527.562 1084.93 527.562C1085.07 527.563 1086.51 527.097 1087.38 526.53C1087.7 526.323 1088.01 526.228 1088.32 526.129C1088.88 525.956 1089.47 525.772 1090.24 524.962C1090.48 524.71 1090.21 524.571 1090.04 524.488C1089.95 524.442 1089.9 524.414 1089.97 524.392C1090.15 524.342 1090.43 524.353 1090.78 524.365C1091.42 524.388 1092.27 524.418 1092.99 524.099C1093.63 523.815 1094.05 523.583 1094.43 523.366C1095.02 523.038 1095.54 522.746 1096.69 522.366C1097.7 522.342 1096.44 521.699 1095.72 521.331V521.331H1095.72C1095.47 521.206 1095.29 521.114 1095.28 521.088C1095.28 521.064 1095.46 521.126 1095.74 521.224C1096.62 521.529 1098.48 522.176 1098.64 521.567C1098.78 521.015 1098.41 520.841 1098.13 520.71C1098.01 520.65 1097.9 520.599 1097.87 520.526C1097.83 520.438 1098.08 520.496 1098.46 520.582C1099.09 520.727 1100.07 520.952 1100.62 520.701C1101.49 520.301 1107.25 517.991 1107.25 517.991C1106.53 516.38 1105.51 514.925 1104.24 513.709C1102.96 512.493 1101.46 511.54 1099.82 510.904C1098.17 510.268 1096.42 509.962 1094.66 510.003C1092.9 510.044 1091.16 510.432 1089.55 511.143C1087.94 511.855 1086.48 512.877 1085.26 514.151C1084.05 515.425 1083.09 516.926 1082.46 518.568C1081.82 520.21 1081.51 521.962 1081.55 523.722ZM1086.57 535.722C1086.36 535.546 1086.15 535.363 1085.95 535.174C1086.45 535.126 1086.87 533.835 1086.86 533.407C1086.85 532.898 1087.23 532.369 1087.23 532.369C1087.73 531.891 1087.87 532.346 1087.97 532.693C1088.04 532.904 1088.09 533.076 1088.2 532.975C1088.29 532.894 1088.43 532.643 1088.6 532.342C1088.98 531.644 1089.51 530.676 1089.95 530.935C1090.4 531.197 1090.35 532.158 1090.33 532.619C1090.32 532.809 1090.31 532.914 1090.35 532.847C1090.45 532.665 1090.55 532 1090.66 531.283C1090.8 530.355 1090.95 529.338 1091.13 529.162C1091.9 528.425 1092.35 530.754 1092.67 532.385C1092.81 533.122 1092.93 533.716 1093.03 533.821C1093.12 533.911 1093.16 533.655 1093.22 533.263C1093.37 532.195 1093.68 530.118 1095.59 531.28C1097.38 532.37 1097.48 530.581 1097.54 529.327C1097.57 528.752 1097.6 528.29 1097.78 528.27C1097.83 528.263 1097.91 528.208 1098 528.143C1098.38 527.877 1099.02 527.435 1099.22 529.346C1099.48 531.727 1100.79 528.278 1100.23 527.07C1099.68 525.861 1099.84 523.904 1099.94 523.817C1100.02 523.741 1100.17 523.607 1100.33 523.446L1100.34 523.446V523.446C1101 522.815 1102.09 521.779 1101.93 522.286C1101.83 522.607 1101.94 522.501 1102.13 522.335C1102.31 522.171 1102.55 521.948 1102.72 522.015C1102.88 522.081 1102.94 522.179 1103 522.274C1103.06 522.372 1103.12 522.467 1103.29 522.519C1103.42 522.477 1103.77 522.068 1104.13 521.654C1104.49 521.227 1104.86 520.794 1105 520.751C1105.46 520.616 1105.62 520.932 1105.7 521.096C1105.73 521.156 1105.75 521.195 1105.78 521.185C1105.86 521.145 1105.98 520.863 1106.14 520.515C1106.34 520.061 1106.59 519.497 1106.85 519.219L1107 519.138C1107.83 520.695 1108.33 522.399 1108.5 524.152C1108.66 525.906 1108.48 527.674 1107.96 529.357C1107.44 531.039 1106.59 532.603 1105.47 533.959C1104.34 535.314 1102.96 536.435 1101.4 537.257C1099.85 538.08 1098.14 538.587 1096.39 538.751C1094.63 538.915 1092.86 538.732 1091.18 538.212C1089.49 537.692 1087.93 536.846 1086.57 535.722ZM1106.98 519.11C1106.93 519.138 1106.89 519.175 1106.85 519.219L1095.14 525.399L1083.27 531.661C1083.96 532.974 1084.87 534.161 1085.95 535.174C1085.95 535.175 1085.94 535.175 1085.94 535.175C1085.93 535.176 1085.84 535.11 1085.77 535.041C1085.76 535.028 1085.75 535.017 1085.73 535.005C1085.71 534.982 1085.67 534.956 1085.64 534.906C1085.63 534.893 1085.62 534.885 1085.61 534.876C1085.58 534.862 1085.56 534.846 1085.54 534.805C1085.12 534.414 1084.98 536.447 1084.87 538.137C1084.79 539.25 1084.73 540.214 1084.6 540.24C1084.39 540.314 1084.42 539.767 1084.46 538.933C1084.49 538.267 1084.54 537.416 1084.47 536.552C1084.34 534.617 1083.65 532.409 1083.24 531.633L1095.11 525.372L1106.98 519.11ZM1081.6 531.292L1109.44 517.217L1109.53 517.397L1081.69 531.471L1081.6 531.292ZM1083.91 524.386C1084.03 524.459 1084.2 524.526 1084.4 524.546C1084.46 524.552 1084.51 524.607 1084.5 524.668C1084.49 524.715 1084.46 524.75 1084.41 524.756C1084.23 524.779 1083.96 524.84 1083.7 524.907C1083.42 524.975 1083.21 524.656 1083.39 524.438C1083.51 524.29 1083.74 524.29 1083.91 524.386ZM1087.62 523.121C1087.68 523.163 1087.77 523.111 1087.76 523.035C1087.75 523.007 1087.74 522.983 1087.71 522.969C1087.55 522.877 1086.93 522.496 1086.08 521.845C1085.39 521.306 1084.95 520.896 1084.76 520.706C1084.69 520.641 1084.59 520.631 1084.51 520.687C1084.41 520.759 1084.41 520.906 1084.51 520.98C1084.82 521.214 1085.43 521.674 1085.9 521.988C1086.41 522.327 1087.26 522.888 1087.62 523.121ZM1088.3 524.032C1088.32 524.064 1088.3 524.104 1088.26 524.097C1088.05 524.062 1087.56 523.978 1087.26 523.925C1087.11 523.899 1086.81 523.906 1086.5 523.924C1086.3 523.935 1086.22 523.653 1086.39 523.563C1086.45 523.533 1086.52 523.537 1086.58 523.567C1086.7 523.627 1086.93 523.729 1087.32 523.825C1087.82 523.952 1088.18 524 1088.27 524.011C1088.29 524.012 1088.3 524.02 1088.3 524.032ZM1087.35 535.643C1087.64 534.716 1087.96 533.559 1087.87 533.186C1087.86 533.161 1087.86 533.136 1087.86 533.111C1087.86 532.88 1087.96 532.872 1087.97 533.102C1088.01 534.031 1088.02 535.334 1088.02 535.765C1088.02 535.858 1087.98 535.946 1087.91 536.009C1087.65 536.242 1087.24 535.972 1087.35 535.643Z" fill="#EBEBEB"/>
<path d="M1078.99 550.455V548.797H1082.94C1083.13 548.797 1083.31 548.749 1083.46 548.652C1083.62 548.556 1083.75 548.429 1083.84 548.271C1083.94 548.104 1083.99 547.924 1083.99 547.731C1083.99 547.53 1083.94 547.35 1083.84 547.192C1083.75 547.026 1083.62 546.894 1083.46 546.798C1083.31 546.701 1083.13 546.653 1082.94 546.653H1081.4C1080.88 546.653 1080.41 546.548 1079.99 546.337C1079.57 546.127 1079.23 545.824 1078.98 545.429C1078.73 545.026 1078.61 544.544 1078.61 543.982C1078.61 543.43 1078.73 542.952 1078.96 542.549C1079.2 542.136 1079.52 541.816 1079.92 541.588C1080.33 541.36 1080.78 541.246 1081.27 541.246H1085.27V542.904H1081.45C1081.28 542.904 1081.11 542.952 1080.96 543.048C1080.81 543.136 1080.7 543.254 1080.61 543.404C1080.53 543.553 1080.49 543.719 1080.49 543.903C1080.49 544.088 1080.53 544.254 1080.61 544.403C1080.7 544.552 1080.81 544.671 1080.96 544.759C1081.11 544.846 1081.28 544.89 1081.45 544.89H1083.04C1083.61 544.89 1084.11 545 1084.53 545.219C1084.95 545.438 1085.27 545.745 1085.5 546.14C1085.74 546.534 1085.86 546.995 1085.86 547.521C1085.86 548.144 1085.73 548.674 1085.49 549.113C1085.25 549.551 1084.93 549.884 1084.52 550.112C1084.11 550.341 1083.67 550.455 1083.17 550.455H1078.99ZM1089.59 550.455C1089.08 550.455 1088.62 550.332 1088.2 550.086C1087.79 549.841 1087.46 549.512 1087.21 549.1C1086.97 548.679 1086.84 548.214 1086.84 547.705C1086.84 547.337 1086.92 546.99 1087.08 546.666C1087.24 546.341 1087.45 546.056 1087.73 545.811C1087.45 545.565 1087.24 545.28 1087.08 544.956C1086.92 544.631 1086.84 544.289 1086.84 543.93C1086.84 543.43 1086.96 542.978 1087.2 542.575C1087.44 542.171 1087.77 541.851 1088.17 541.615C1088.58 541.369 1089.04 541.246 1089.53 541.246H1093.32V542.904H1089.74C1089.55 542.904 1089.38 542.952 1089.22 543.048C1089.08 543.136 1088.95 543.259 1088.86 543.417C1088.77 543.566 1088.73 543.737 1088.73 543.93C1088.73 544.114 1088.77 544.285 1088.86 544.443C1088.95 544.592 1089.08 544.715 1089.22 544.811C1089.38 544.899 1089.55 544.943 1089.74 544.943H1092.87V546.6H1089.82C1089.62 546.6 1089.43 546.653 1089.26 546.758C1089.1 546.855 1088.97 546.986 1088.87 547.153C1088.77 547.319 1088.73 547.503 1088.73 547.705C1088.73 547.907 1088.77 548.091 1088.87 548.258C1088.97 548.424 1089.1 548.556 1089.26 548.652C1089.43 548.749 1089.62 548.797 1089.82 548.797H1093.32V550.455H1089.59ZM1094.37 547.902V546.258H1098.09V547.902H1094.37ZM1100.83 550.455C1100.48 550.455 1100.18 550.38 1099.91 550.231C1099.65 550.073 1099.44 549.867 1099.3 549.613C1099.16 549.358 1099.08 549.073 1099.08 548.758C1099.08 548.459 1099.16 548.17 1099.31 547.889C1099.47 547.609 1099.67 547.381 1099.91 547.205L1102.74 545.179C1102.93 545.039 1103.08 544.873 1103.18 544.68C1103.27 544.487 1103.32 544.285 1103.32 544.074C1103.32 543.829 1103.27 543.623 1103.16 543.456C1103.06 543.281 1102.91 543.145 1102.72 543.048C1102.52 542.952 1102.29 542.904 1102.02 542.904H1099.58V541.246H1102.24C1102.85 541.246 1103.37 541.373 1103.81 541.628C1104.25 541.882 1104.58 542.224 1104.82 542.654C1105.07 543.075 1105.19 543.548 1105.19 544.074C1105.19 544.601 1105.08 545.065 1104.87 545.469C1104.67 545.864 1104.34 546.219 1103.87 546.534L1101.05 548.455C1101.03 548.464 1101.01 548.486 1100.98 548.521C1100.95 548.547 1100.94 548.582 1100.94 548.626C1100.94 548.687 1100.96 548.731 1100.99 548.758C1101.03 548.784 1101.08 548.797 1101.14 548.797H1105.47V550.455H1100.83ZM1106.79 550.455L1110.64 543.311C1110.69 543.224 1110.71 543.149 1110.71 543.088C1110.71 543.035 1110.69 542.991 1110.66 542.956C1110.62 542.921 1110.57 542.904 1110.51 542.904H1106.31V541.246H1110.75C1111.09 541.246 1111.4 541.325 1111.67 541.483C1111.95 541.641 1112.17 541.851 1112.34 542.114C1112.51 542.369 1112.59 542.658 1112.59 542.983C1112.59 543.158 1112.57 543.333 1112.52 543.509C1112.48 543.675 1112.42 543.833 1112.35 543.982L1108.92 550.455H1106.79Z" fill="#EBEBEB"/>
</g>
<path d="M987 503.5H1119.5V553.832H984.5V506C984.5 504.619 985.619 503.5 987 503.5Z" stroke="#F39423"/>
</g>
<rect x="1" y="1" width="1118" height="552" rx="1" stroke="#F39423" stroke-width="2"/>
<defs>
<clipPath id="clip0_798_6410">
<rect width="1120" height="554" rx="2" fill="white"/>
</clipPath>
<clipPath id="clip1_798_6410">
<rect x="18" y="163" width="680" height="216" rx="6" fill="white"/>
</clipPath>
<clipPath id="clip2_798_6410">
<rect width="384" height="386.909" fill="white" transform="translate(706 117.061)"/>
</clipPath>
<clipPath id="clip3_798_6410">
<rect width="35" height="43.8196" fill="white" transform="translate(1078 510)"/>
</clipPath>
</defs>
</svg>
