<svg width="1120" height="554" viewBox="0 0 1120 554" fill="none" xmlns="http://www.w3.org/2000/svg">
<g clip-path="url(#clip0_650_8895)">
<rect width="1120" height="554" rx="6" fill="#6186D5"/>
<g clip-path="url(#clip1_650_8895)">
<path d="M48.8575 287.798C70.8457 287.798 80.9408 272.033 80.9408 252.949V191.686C80.9408 189.612 79.5579 188.229 77.4836 188.229H60.8888C58.8144 188.229 57.4315 189.612 57.4315 191.686V251.013C57.4315 263.735 53.2828 267.607 45.6769 267.607C41.8048 267.607 37.9326 265.671 34.6137 261.384C33.2308 259.448 31.2947 258.895 29.2204 260.278L18.9869 268.022C17.4657 269.129 17.0508 270.926 18.1572 272.448C25.21 282.819 34.752 287.798 48.8575 287.798ZM123.94 287.798C130.993 287.798 137.216 285.17 142.748 281.022C144.546 279.639 146.067 280.054 146.62 282.266L146.897 283.372C147.311 285.032 148.694 286 150.215 286H163.215C165.289 286 166.672 284.617 166.672 282.543V243.545C166.672 220.174 155.747 209.387 136.386 209.387C125.876 209.387 116.196 212.706 107.207 217.546C105.41 218.514 104.856 220.312 105.824 222.11L110.803 231.514C111.771 233.45 113.707 234.003 115.643 233.035C121.728 229.716 126.844 228.056 131.961 228.056C138.046 228.056 141.365 230.407 142.61 234.28C143.301 236.216 141.918 237.737 139.982 238.013C113.154 241.471 101.814 250.045 101.814 265.118C101.814 277.564 110.111 287.798 123.94 287.798ZM131.961 269.682C127.121 269.682 123.94 267.607 123.94 263.32C123.94 258.342 128.089 254.193 140.95 252.119C142.333 251.981 143.301 252.81 143.301 254.193V262.906C143.301 263.459 143.024 264.012 142.748 264.288C139.429 267.746 136.386 269.682 131.961 269.682ZM193.7 286H210.157C212.231 286 213.614 284.617 213.614 282.543V237.46C213.614 236.63 214.029 235.662 214.582 235.109C218.592 231.237 222.326 229.439 225.507 229.439C231.453 229.439 234.081 232.343 234.081 242.577V282.543C234.081 284.617 235.464 286 237.538 286H254.133C256.207 286 257.59 284.617 257.59 282.543V237.46C257.59 236.63 258.005 235.662 258.558 235.109C262.569 231.237 266.441 229.439 269.483 229.439C275.429 229.439 278.057 232.343 278.057 242.577V282.543C278.057 284.617 279.44 286 281.514 286H297.971C300.045 286 301.428 284.617 301.428 282.543V239.811C301.428 221.142 294.375 209.387 278.057 209.387C269.898 209.387 263.675 213.259 258.282 218.238C256.069 220.312 253.995 219.897 252.197 217.546C248.325 212.153 242.655 209.387 234.219 209.387C226.06 209.387 219.975 212.845 214.72 217.408C212.508 219.344 210.848 218.791 210.295 215.887L209.88 213.951C209.603 212.291 208.221 211.185 206.423 211.185H193.7C191.626 211.185 190.243 212.568 190.243 214.642V282.543C190.243 284.617 191.626 286 193.7 286ZM347.251 287.798C367.579 287.798 378.366 277.149 378.366 263.459C378.366 249.906 367.994 244.513 358.729 240.917C350.984 238.152 344.07 236.492 344.07 232.067C344.07 228.471 346.697 226.674 351.952 226.674C356.101 226.674 360.388 228.471 364.675 231.099C366.335 232.067 368.271 231.79 369.377 230.269L375.877 221.695C377.121 220.036 376.845 218.1 375.185 216.993C369.1 212.845 361.356 209.387 351.123 209.387C333.836 209.387 322.22 218.929 322.22 233.173C322.22 245.481 332.73 251.566 341.719 255.161C349.325 258.204 356.516 260.278 356.516 264.703C356.516 268.437 353.889 270.65 347.804 270.65C342.687 270.65 337.432 268.714 331.762 264.842C329.964 263.735 328.028 263.874 326.784 265.671L320.284 274.66C319.178 276.32 319.454 278.117 320.976 279.224C328.443 284.479 338.538 287.798 347.251 287.798ZM424.522 287.798C430.33 287.798 434.894 286.968 438.49 285.862C440.287 285.447 441.255 283.787 440.841 281.99L438.49 271.618C438.075 269.682 436.554 268.714 434.479 269.129C433.373 269.405 432.128 269.543 431.022 269.543C425.49 269.543 421.48 266.225 421.48 258.065V232.897C421.48 230.822 422.863 229.439 424.937 229.439H435.724C437.798 229.439 439.181 228.056 439.181 225.982V214.642C439.181 212.568 437.798 211.185 435.724 211.185H424.937C422.863 211.185 421.48 209.802 421.48 207.728V195.005C421.48 192.931 420.097 191.548 418.023 191.548H405.162C403.364 191.548 401.981 192.793 401.704 194.59L399.907 208.419C399.63 210.079 398.386 211.323 396.726 211.462L391.194 211.877C389.258 212.015 388.014 213.398 388.014 215.334V225.982C388.014 228.056 389.397 229.439 391.471 229.439H394.652C396.726 229.439 398.109 230.822 398.109 232.897V258.342C398.109 276.043 405.715 287.798 424.522 287.798ZM476.148 287.798C483.2 287.798 489.424 285.17 494.955 281.022C496.753 279.639 498.274 280.054 498.827 282.266L499.104 283.372C499.519 285.032 500.902 286 502.423 286H515.422C517.496 286 518.879 284.617 518.879 282.543V243.545C518.879 220.174 507.954 209.387 488.594 209.387C478.084 209.387 468.403 212.706 459.415 217.546C457.617 218.514 457.064 220.312 458.032 222.11L463.01 231.514C463.978 233.45 465.914 234.003 467.85 233.035C473.935 229.716 479.052 228.056 484.169 228.056C490.253 228.056 493.572 230.407 494.817 234.28C495.508 236.216 494.125 237.737 492.189 238.013C465.361 241.471 454.021 250.045 454.021 265.118C454.021 277.564 462.319 287.798 476.148 287.798ZM484.169 269.682C479.328 269.682 476.148 267.607 476.148 263.32C476.148 258.342 480.296 254.193 493.157 252.119C494.54 251.981 495.508 252.81 495.508 254.193V262.906C495.508 263.459 495.232 264.012 494.955 264.288C491.636 267.746 488.594 269.682 484.169 269.682ZM573.842 287.798C580.895 287.798 589.331 285.862 596.245 280.883C597.628 279.915 597.904 278.117 597.075 276.596L591.405 267.054C590.299 264.98 588.224 264.565 586.15 265.81C583.246 267.607 579.927 268.852 576.47 268.852C567.204 268.852 560.566 260.97 560.566 248.662C560.566 236.216 566.928 228.333 577.299 228.333C579.512 228.333 581.586 228.886 583.937 230.269C585.735 231.375 587.671 231.099 589.054 229.301L595.83 220.036C597.075 218.376 596.798 216.578 595.277 215.472C590.022 211.738 583.799 209.387 575.916 209.387C555.035 209.387 536.642 223.908 536.642 248.662C536.642 273.416 552.822 287.798 573.842 287.798ZM618.94 286H634.843C636.917 286 638.3 284.617 638.3 282.543V268.99C638.3 268.299 638.577 267.331 639.13 266.778L643.97 261.246C645.906 259.172 648.119 259.31 649.502 261.799L662.363 284.202C662.916 285.309 664.161 286 665.405 286H682.415C686.287 286 687.393 283.926 685.319 280.607L661.81 244.375C660.98 242.992 661.118 241.332 662.086 240.226L682 216.855C684.904 213.398 683.798 211.185 679.372 211.185H663.192C662.224 211.185 661.256 211.738 660.565 212.291L660.288 212.568L644.662 232.067C641.066 236.63 638.577 235.801 638.577 229.993L638.3 184.495C638.3 182.421 636.917 181.038 634.843 181.038H618.94C616.865 181.038 615.482 182.421 615.482 184.495V282.543C615.482 284.617 616.865 286 618.94 286Z" fill="#EDEDED"/>
<path d="M62.8121 317.662L60.1656 318.773C59.2657 319.144 59.054 319.938 59.5833 320.785C60.8007 322.425 61.5947 323.749 62.7591 325.919C63.1296 326.607 63.8177 326.819 64.5058 326.501L67.0994 325.337C67.8933 324.966 68.158 324.278 67.7345 323.484C66.7818 321.79 65.5644 319.779 64.347 318.191V318.085C63.9765 317.609 63.3943 317.45 62.8121 317.662ZM33.9123 319.673L30.9482 324.172C30.4718 324.913 30.6306 325.654 31.4246 326.078C34.3886 327.824 38.0937 330.153 40.7402 331.9C41.4283 332.323 42.1694 332.217 42.5928 331.529L45.6098 327.03C46.0332 326.342 45.9274 325.601 45.2922 325.178C42.5928 323.431 38.676 320.943 35.659 319.25C35.0238 318.879 34.3357 319.091 33.9123 319.673ZM55.6136 320.202L53.1259 321.208C52.2261 321.578 51.9614 322.372 52.5436 323.219C53.6552 324.966 54.3962 326.395 55.4548 328.565C55.7724 329.253 56.4605 329.518 57.1485 329.253L59.9009 328.036C60.6419 327.718 60.9066 326.977 60.5361 326.236C59.5833 324.49 58.3659 322.425 57.2015 320.679C56.8839 320.149 56.1958 319.938 55.6136 320.202ZM26.0786 331.265L23.1146 335.764C22.6382 336.505 22.8499 337.246 23.5909 337.669C26.6079 339.363 30.2601 341.745 32.9595 343.544C33.6476 344.021 34.3886 343.862 34.8121 343.174L37.8291 338.516C38.2525 337.881 38.0937 337.14 37.4586 336.716C34.8121 334.97 30.8953 332.535 27.8253 330.841C27.1902 330.471 26.5021 330.682 26.0786 331.265ZM25.2318 355.877L28.4076 361.488C28.7251 361.964 29.2544 362.229 29.7837 362.123C34.1769 361.17 40.952 358.735 45.7157 356.089C53.814 351.484 60.8007 345.45 65.6173 338.622C65.9349 338.199 65.9349 337.669 65.6703 337.246L62.5474 331.635C61.8593 330.418 60.9595 330.418 60.1656 331.635C56.037 338.146 49.4208 344.338 41.5342 348.679C36.5058 351.431 31.2658 352.913 26.1316 353.919C25.02 354.13 24.6495 354.871 25.2318 355.877ZM107.697 351.325C110.925 347.514 115.107 341.057 117.33 336.769C117.648 336.187 117.489 335.499 116.959 335.129L113.201 332.482H113.096C112.778 332.217 112.302 332.164 111.878 332.323C111.243 332.588 110.449 332.8 109.708 332.958C107.75 333.329 102.033 334.493 96.3697 335.605C95.6287 335.711 95.0464 335.34 94.8347 334.652L94.1466 332.059L93.5115 329.359C93.3527 328.512 92.6646 328.089 91.8706 328.248L86.8952 329.465C85.8895 329.677 85.572 330.418 85.9954 331.371C86.313 332.112 86.6306 332.906 86.8423 333.699L87.4245 335.817C87.6892 336.664 87.2657 337.352 86.3659 337.457C84.9897 337.722 83.9311 337.881 83.4018 337.987C82.2374 338.199 81.1258 338.304 80.0672 338.41C79.1674 338.516 78.6911 339.151 78.9028 340.051L80.1202 344.762C80.3319 345.556 80.9141 345.926 81.7081 345.767L88.4831 344.285C89.2241 344.127 89.8064 344.497 90.0181 345.238C91.606 351.219 93.2468 357.412 94.0408 360.164C94.3583 361.17 94.623 362.44 94.8347 363.552C94.9406 364.399 95.6287 364.822 96.4755 364.664L101.716 363.393C102.615 363.181 102.986 362.44 102.721 361.594L101.769 358.471C100.975 355.877 99.2279 349.843 97.4812 343.809C97.2695 342.962 97.6929 342.327 98.4869 342.168C100.657 341.692 102.615 341.321 104.15 341.004C105.791 340.686 106.321 341.427 105.368 342.75C104.256 344.127 102.933 345.662 101.663 346.985C100.922 347.726 100.975 348.573 101.874 349.102L106.003 351.59C106.585 351.96 107.273 351.854 107.697 351.325ZM173.383 356.724C171.001 351.166 166.82 342.962 163.538 337.669C163.22 337.087 162.532 336.875 161.95 337.14L156.869 339.204C155.916 339.575 155.704 340.369 156.234 341.268C157.239 342.803 158.245 344.656 159.251 346.667C159.78 347.673 159.356 348.467 158.245 348.573C154.54 348.996 150.252 349.473 146.124 349.896C144.906 350.002 144.324 349.314 144.748 348.149C147.13 341.321 150.305 331.476 151.893 326.977C152.475 325.337 153.005 323.749 153.587 322.372C153.958 321.42 153.587 320.732 152.581 320.52L145.965 319.144C145.118 318.985 144.536 319.461 144.377 320.255C144.165 321.684 143.848 323.219 143.266 325.231C141.784 330.471 137.973 342.75 135.114 350.319V350.425C135.009 350.584 134.797 350.743 134.638 350.743H134.532L134.162 350.796C132.944 350.849 131.251 350.849 129.716 350.849C128.816 350.849 128.286 351.484 128.445 352.384L129.398 358.471C129.504 359.212 130.139 359.688 130.88 359.582L134.638 359.106C140.513 358.471 154.01 357.095 162.426 356.089C163.061 356.036 163.591 356.353 163.802 356.883L165.179 360.217C165.443 361.011 166.184 361.329 166.978 360.958L172.748 358.418C173.436 358.1 173.7 357.412 173.383 356.724ZM215.568 321.155C214.298 321.473 212.339 321.737 210.222 321.737H193.443C192.332 321.737 190.215 321.631 188.521 321.473C187.568 321.42 186.986 321.949 186.986 322.849V328.565C186.986 329.412 187.568 329.941 188.415 329.888C189.897 329.73 191.802 329.571 193.443 329.571H207.258C208.317 329.571 208.846 330.259 208.422 331.265C207.152 334.229 204.77 337.828 202.018 340.951C197.942 345.556 190.85 351.166 183.387 354.342C182.275 354.819 182.063 355.665 182.91 356.565L187.145 360.958C187.568 361.382 188.203 361.488 188.68 361.223C194.608 358.206 200.483 353.76 205.3 348.89C205.882 348.308 206.623 348.308 207.205 348.89C211.016 352.595 214.562 356.618 217.421 360.482C217.95 361.223 218.691 361.329 219.379 360.747L224.301 356.459C224.884 355.93 224.937 355.189 224.46 354.607C221.655 351.325 216.733 346.191 212.498 342.38C211.969 341.904 211.863 341.216 212.286 340.58C215.25 336.346 217.632 331.794 219.167 328.301C219.538 327.507 220.12 326.554 220.543 325.76V325.654C220.967 325.072 220.808 324.331 220.226 323.907L216.785 321.42C216.468 321.155 216.044 321.102 215.674 321.155H215.568ZM270.192 323.537C268.921 323.907 267.228 324.066 265.904 324.066H259.235C257.965 324.066 257.489 323.272 258.124 322.161C258.388 321.631 258.653 321.102 258.971 320.573C259.447 319.726 259.129 318.932 258.23 318.667L252.09 316.762C251.296 316.497 250.661 316.868 250.396 317.715C249.973 319.197 249.443 320.573 248.808 321.896C247.167 325.125 242.615 332.535 235.152 338.146C234.305 338.834 234.252 339.681 235.152 340.369L239.704 343.703C240.18 344.074 240.816 344.074 241.292 343.703C245.526 340.527 249.602 335.87 252.619 331.529C252.884 331.159 253.307 330.947 253.731 330.947H264.158C265.216 330.947 265.746 331.635 265.428 332.588C264.687 334.705 263.628 337.193 262.305 339.469C261.935 340.21 261.194 340.316 260.506 339.892C258.494 338.622 256.271 337.246 253.995 335.923C253.413 335.605 252.778 335.711 252.354 336.187L248.967 340.104C248.332 340.792 248.438 341.586 249.232 342.115C251.349 343.439 253.307 344.762 255.107 346.032C255.848 346.561 255.954 347.355 255.266 347.991C252.143 350.902 248.279 353.707 243.145 355.824C241.874 356.353 241.715 357.2 242.721 358.1L247.432 362.282C247.802 362.652 248.385 362.705 248.861 362.493C254.63 359.847 261.352 354.819 266.487 347.832C270.192 342.75 272.68 337.669 274.744 331.476C275.061 330.471 275.591 329.306 276.067 328.354C276.438 327.718 276.279 327.03 275.644 326.607L271.462 323.749C271.092 323.484 270.615 323.431 270.192 323.537ZM309.095 328.989L304.385 330.524C303.538 330.788 303.22 331.529 303.591 332.376C304.702 334.917 305.972 338.516 306.713 340.898C306.978 341.745 307.666 342.062 308.46 341.798L313.224 340.157C313.965 339.892 314.282 339.257 314.018 338.516C313.171 336.081 311.636 332.059 310.683 329.73C310.419 329.042 309.731 328.777 309.095 328.989ZM320.211 331.688C319.523 337.457 317.247 343.439 314.23 347.25C310.577 351.802 304.596 355.295 299.621 357.042C298.298 357.465 298.033 358.312 298.986 359.318L303.167 363.605C303.538 363.975 304.12 364.134 304.596 363.922C310.419 361.541 316.347 357.253 320.846 351.431C324.127 347.091 326.245 341.957 327.568 337.14C327.833 336.24 328.097 335.287 328.521 334.07C328.785 333.276 328.468 332.588 327.674 332.323L321.957 330.524C321.005 330.206 320.317 330.682 320.211 331.688ZM297.451 331.741L292.687 333.435C291.787 333.752 291.523 334.493 291.893 335.393C293.058 337.828 294.54 341.798 295.386 344.338C295.651 345.132 296.339 345.45 297.133 345.185L302.056 343.333C302.797 343.068 303.114 342.433 302.85 341.692C301.844 338.992 300.256 335.023 299.039 332.376C298.774 331.741 298.139 331.476 297.451 331.741ZM376.052 323.907C374.781 324.225 373.141 324.384 371.764 324.384H365.201C363.825 324.384 363.349 323.59 363.984 322.372C364.301 321.843 364.619 321.261 364.989 320.679C365.466 319.779 365.201 318.985 364.195 318.667L358.056 316.762C357.262 316.497 356.627 316.868 356.362 317.715C355.833 319.408 355.039 321.314 354.403 322.478C352.392 326.183 348.634 332.429 341.912 337.457C341.012 338.146 340.959 338.992 341.859 339.681L346.464 343.068C346.94 343.439 347.575 343.439 348.052 343.068C351.757 340.104 355.356 336.028 358.267 331.9C358.532 331.529 358.955 331.318 359.379 331.318H369.594C370.653 331.318 371.182 332.006 370.812 332.958C369.7 336.134 367.636 340.58 364.989 343.597C361.39 347.938 356.732 352.225 348.899 355.612C347.681 356.142 347.523 357.042 348.528 357.888L353.292 362.07C353.662 362.388 354.245 362.44 354.668 362.282C361.655 359.053 367.795 353.654 372.029 348.096C376.316 342.486 378.91 336.081 380.445 331.9C380.816 330.788 381.345 329.73 381.821 328.83C382.139 328.195 382.033 327.507 381.451 327.083L377.269 324.119C376.952 323.907 376.528 323.854 376.158 323.907H376.052Z" fill="#EDEDED"/>
<rect x="410" y="310" width="240" height="63" rx="7" fill="#8E8E8E"/>
<path d="M453.783 328.069C454.342 328.977 454.935 330.025 455.39 330.968C455.634 331.387 456.088 331.562 456.542 331.387L458.044 330.759C458.568 330.514 458.743 330.025 458.463 329.536C457.939 328.593 457.276 327.405 456.682 326.462C456.472 326.113 456.018 325.973 455.634 326.148L454.202 326.707C453.573 326.951 453.433 327.475 453.783 328.069ZM449.626 329.571C449.94 330.095 450.29 330.654 450.569 331.248C450.849 331.772 450.639 332.261 450.08 332.435C449.416 332.645 448.718 332.819 448.019 332.994C447.565 333.099 447.181 332.889 447.006 332.47C446.447 331.108 445.923 329.815 445.539 328.593C445.4 328.139 444.98 327.894 444.526 327.964L440.928 328.663C440.16 328.802 439.95 329.326 440.335 329.99C440.719 330.724 440.998 331.317 441.418 332.261L441.837 333.099V333.169C442.046 333.693 441.837 334.077 441.243 334.112C440.265 334.147 439.217 334.182 437.925 334.182C435.864 334.182 433.663 333.867 431.777 333.518C431.113 333.378 430.694 333.728 430.729 334.426L430.904 337.78C430.939 338.234 431.218 338.548 431.672 338.583C433.488 338.792 436.318 338.967 438.134 338.967C440.055 338.967 441.941 338.862 443.653 338.723C444.037 338.688 444.387 338.862 444.526 339.212C444.98 340.19 445.469 341.098 445.889 341.971C446.308 342.74 445.958 343.229 445.085 343.159L443.932 343.054C443.443 343.019 443.059 343.333 443.024 343.822L442.78 346.233C442.71 346.722 443.024 347.106 443.513 347.176C445.749 347.49 448.264 347.944 450.045 348.259C450.36 348.328 450.674 348.224 450.849 348.014L452.875 345.813C453.119 345.534 453.154 345.15 452.979 344.8C451.897 342.879 450.744 340.749 449.766 338.723C449.451 338.129 449.696 337.64 450.325 337.5C451.547 337.186 452.665 336.836 453.643 336.487C454.027 336.347 454.272 335.963 454.202 335.544L453.748 332.994C453.678 332.645 453.853 332.295 454.202 332.156C454.551 332.016 454.656 331.702 454.481 331.387C453.957 330.374 453.189 329.012 452.56 327.964C452.351 327.615 451.897 327.475 451.512 327.65L450.045 328.209C449.451 328.453 449.277 328.977 449.626 329.571ZM430.973 345.709C430.729 347.176 430.554 348.608 430.554 349.865C430.554 354.686 434.222 357.096 441.068 357.096C444.072 357.096 446.727 356.886 448.508 356.642C448.927 356.572 449.207 356.257 449.242 355.838L449.382 352.415C449.382 351.786 448.997 351.402 448.334 351.542C446.447 351.856 444.701 352.066 441.068 352.066C436.562 352.066 435.759 350.599 435.759 348.468C435.759 347.839 435.899 347.071 436.038 346.407C436.178 345.778 435.899 345.324 435.235 345.289L431.917 345.01C431.428 344.975 431.043 345.255 430.973 345.709ZM466.253 341.482L467.51 344.766C467.72 345.255 468.174 345.464 468.698 345.255C471.911 343.822 477.081 341.587 480.644 341.587C483.264 341.587 484.94 343.089 484.94 345.22C484.94 349.656 480.295 351.158 473.693 351.647C472.924 351.682 472.645 352.171 472.959 352.869L474.322 355.978C474.461 356.327 474.811 356.537 475.16 356.502C485.953 355.734 490.145 350.878 490.145 345.324C490.145 340.469 486.966 336.906 480.958 336.906C477.151 336.906 471.387 339.002 469.536 339.561C468.872 339.805 467.86 340.085 466.916 340.26C466.253 340.399 466.008 340.888 466.253 341.482ZM515.574 328.104C514.91 328.872 514.072 329.711 513.269 330.479C511.033 332.61 506.841 336.068 504.222 338.199C500.729 341.063 500.519 343.054 503.872 345.953C506.876 348.503 511.557 352.555 513.408 354.441C514.247 355.314 515.155 356.257 516.028 357.201C516.377 357.62 516.866 357.62 517.251 357.27L520.604 354.162C520.988 353.777 520.988 353.288 520.604 352.904C517.146 349.795 511.382 345.255 509.356 343.508C507.75 342.111 507.68 341.831 509.321 340.434C511.382 338.653 515.504 335.474 517.53 333.937C518.229 333.413 519.032 332.785 519.94 332.121C520.464 331.702 520.499 331.178 519.975 330.724L516.901 327.999C516.447 327.615 515.958 327.685 515.574 328.104ZM537.894 328.872C537.859 329.746 537.789 330.794 537.65 331.737C537.126 335.544 536.776 339.177 536.776 342.216C536.776 344.032 536.951 345.778 537.091 347.036C537.161 347.525 537.51 347.804 537.999 347.769L541.213 347.56C541.771 347.525 542.086 347.141 542.016 346.582C541.946 345.604 541.911 344.87 541.911 344.346C541.911 340.05 545.125 334.252 548.862 334.252C551.168 334.252 552.844 336.592 552.844 341.552C552.844 348.852 548.548 351.193 541.876 352.415C541.073 352.59 540.863 353.114 541.282 353.777L543.273 356.781C543.448 357.061 543.832 357.236 544.147 357.166C552.844 355.384 558.293 350.739 558.293 341.552C558.293 334.112 554.486 329.606 549.805 329.606C547.5 329.606 545.614 330.514 544.077 331.737C542.784 332.785 542.295 332.575 542.645 330.933C542.784 330.339 542.924 329.746 543.029 329.222C543.204 328.593 542.889 328.174 542.226 328.139L538.802 327.999C538.243 327.964 537.894 328.313 537.894 328.872ZM597.345 348.852H593.817C593.293 348.852 592.944 348.503 592.944 347.979V347.315C592.944 346.791 593.293 346.442 593.817 346.442H596.646C597.17 346.442 597.52 346.093 597.52 345.569V343.298C597.52 342.774 597.17 342.425 596.646 342.425H593.817C593.293 342.425 592.944 342.076 592.944 341.552V339.875C592.944 339.771 592.839 339.666 592.734 339.666H592.699C593.223 339.631 593.677 339.596 594.027 339.526C594.9 339.386 595.599 339.072 596.192 338.303C596.926 337.395 597.205 334.985 597.345 329.781V329.047C597.38 328.593 597.101 328.313 596.646 328.313H583.268C582.744 328.313 582.395 328.663 582.395 329.187V331.352C582.395 331.876 582.744 332.226 583.268 332.226H584.631C585.259 332.226 585.609 332.645 585.434 333.239C585.05 334.531 584.316 335.649 582.919 336.487C582.5 336.767 582.185 336.557 582.185 336.068C582.185 335.579 581.836 335.23 581.347 335.23H580.09C579.251 335.23 578.937 334.741 579.286 333.972C579.601 333.274 579.88 332.61 580.125 331.946C580.264 331.562 580.125 331.143 579.775 330.933L577.924 329.781C577.749 329.676 577.575 329.641 577.4 329.676H577.33L577.19 329.746H577.121L576.946 329.781H575.758C575.06 329.781 574.71 329.326 574.92 328.663L574.99 328.383C575.13 327.859 574.885 327.44 574.326 327.301L571.811 326.777C571.322 326.672 570.903 326.951 570.763 327.44C569.995 330.619 568.633 333.728 566.886 335.928C566.467 336.417 566.537 336.941 567.061 337.325C567.55 337.71 568.074 338.164 568.563 338.583C568.737 338.723 568.842 338.967 568.842 339.212V343.997C568.842 347.42 568.737 351.856 566.956 355.21C566.676 355.734 566.816 356.257 567.34 356.572C567.864 356.851 568.458 357.236 568.947 357.585C569.436 357.934 569.995 357.899 570.274 357.34C571.392 355.314 571.986 352.764 572.3 350.215C572.37 349.76 572.719 349.446 573.173 349.446H577.4C577.924 349.446 578.273 349.795 578.273 350.319V353.603C578.273 353.987 578.134 354.127 577.784 354.127H576.422C575.619 354.092 575.339 354.546 575.619 355.279C575.898 355.978 576.143 356.712 576.282 357.34C576.387 357.794 576.736 358.109 577.19 358.109C578.692 358.074 579.845 357.899 580.788 357.34C581.906 356.677 582.185 355.454 582.185 353.708V348.468C582.185 347.665 582.674 347.35 583.373 347.7H583.443L584.176 348.154C584.7 348.433 585.224 348.328 585.504 347.804L585.888 347.001C586.063 346.687 586.377 346.442 586.726 346.442H587.495C588.019 346.442 588.368 346.791 588.368 347.315V347.979C588.368 348.503 588.019 348.852 587.495 348.852H583.548C583.024 348.852 582.674 349.202 582.674 349.726V352.101C582.674 352.625 583.024 352.974 583.548 352.974H587.495C588.019 352.974 588.368 353.323 588.368 353.847V357.166C588.368 357.69 588.717 358.039 589.241 358.039H592.071C592.595 358.039 592.944 357.69 592.944 357.166V353.847C592.944 353.323 593.293 352.974 593.817 352.974H597.345C597.869 352.974 598.218 352.625 598.218 352.101V349.726C598.218 349.202 597.869 348.852 597.345 348.852ZM587.565 341.971C587.634 341.692 587.704 341.412 587.739 341.133C587.809 340.853 587.634 340.609 587.355 340.539L586.342 340.329C585.539 340.155 585.469 339.805 586.167 339.281C588.473 337.605 589.451 335.404 589.94 332.68C589.975 332.4 590.184 332.226 590.464 332.226H592.49C592.839 332.226 593.049 332.435 593.014 332.785C592.909 334.531 592.734 335.334 592.56 335.579C592.315 335.893 592.036 335.963 591.686 335.963C591.442 335.963 591.093 335.963 590.673 335.928C590.08 335.858 589.87 336.173 590.08 336.732C590.394 337.5 590.604 338.373 590.673 339.142C590.708 339.456 590.499 339.666 590.184 339.666H588.892C588.578 339.666 588.368 339.875 588.368 340.19V341.971C588.368 342.251 588.193 342.425 587.914 342.425C587.634 342.425 587.495 342.251 587.565 341.971ZM575.13 334.077C575.025 334.356 574.92 334.636 574.85 334.88C574.745 335.09 574.571 335.23 574.361 335.23H573.243C572.719 335.23 572.545 334.915 572.754 334.461C572.859 334.182 572.964 333.937 573.104 333.658C573.173 333.483 573.383 333.378 573.558 333.378H574.641C575.095 333.378 575.269 333.658 575.13 334.077ZM582.989 339.072C583.303 339.526 583.583 340.015 583.792 340.434C583.827 340.504 583.862 340.644 583.827 340.749C583.618 341.796 583.373 342.809 583.024 343.787C582.605 345.01 582.185 344.905 582.185 343.613V339.351C582.185 338.583 582.57 338.443 582.989 339.072ZM573.208 338.723H573.383C573.697 338.723 573.907 338.932 573.907 339.247V340.015C573.907 340.329 573.697 340.539 573.383 340.539H573.208C572.894 340.539 572.684 340.329 572.684 340.015V339.247C572.684 338.932 572.894 338.723 573.208 338.723ZM577.54 338.723H577.749C578.064 338.723 578.273 338.932 578.273 339.247V340.015C578.273 340.329 578.064 340.539 577.749 340.539H577.54C577.225 340.539 577.016 340.329 577.016 340.015V339.247C577.016 338.932 577.225 338.723 577.54 338.723ZM573.208 343.892H573.383C573.697 343.892 573.907 344.102 573.907 344.416V345.464C573.907 345.778 573.697 345.988 573.383 345.988H573.208C572.859 345.988 572.65 345.778 572.684 345.429V344.486C572.684 344.172 572.894 343.892 573.208 343.892ZM577.016 345.464V344.416C577.016 344.102 577.225 343.892 577.54 343.892H577.749C578.064 343.892 578.273 344.102 578.273 344.416V345.464C578.273 345.778 578.064 345.988 577.749 345.988H577.54C577.225 345.988 577.016 345.778 577.016 345.464ZM628.572 353.673C628.258 353.673 628.258 353.533 628.258 352.485V345.499C628.258 344.975 628.607 344.626 629.131 344.626H631.122C631.646 344.626 631.996 344.276 631.996 343.753V333.483C631.996 332.959 631.646 332.61 631.122 332.61H630.703C629.935 332.61 629.655 332.156 630.005 331.457C630.389 330.619 630.808 329.711 631.227 328.733C631.472 328.174 631.262 327.685 630.633 327.545L627.525 326.777C627.001 326.637 626.581 326.916 626.442 327.44C626.127 328.698 625.708 330.095 625.254 331.213C625.045 331.737 625.254 332.191 625.813 332.33C626.337 332.505 626.302 332.61 625.743 332.61H621.342C620.853 332.61 620.818 332.505 621.307 332.33C621.796 332.156 622.006 331.737 621.831 331.248C621.412 330.025 620.713 328.593 619.98 327.335C619.77 326.986 619.386 326.846 619.002 326.986L616.382 327.824C615.753 327.999 615.544 328.523 615.858 329.082C616.242 329.885 616.626 330.759 616.941 331.562C617.185 332.191 616.871 332.61 616.207 332.61H615.963C615.439 332.61 615.089 332.959 615.089 333.483V343.753C615.089 344.276 615.439 344.626 615.963 344.626H616.906C617.465 344.626 617.814 345.01 617.779 345.569C617.5 348.503 616.871 351.228 614.461 353.253C613.762 353.847 613.203 353.498 613.203 352.59V347.525C613.203 347.001 612.854 346.652 612.33 346.652H603.947C603.423 346.652 603.074 347.001 603.074 347.525V357.27C603.074 357.794 603.423 358.144 603.947 358.144H606.462C606.811 358.144 607.056 357.899 607.056 357.55C607.056 357.201 607.3 356.956 607.649 356.956H612.33C612.854 356.956 613.203 356.607 613.203 356.083V355.873C613.203 355.21 613.518 355.035 613.972 355.524C614.496 356.153 615.02 356.816 615.404 357.445C615.683 357.934 616.172 358.109 616.661 357.759C621.132 354.651 622.215 350.11 622.634 345.115C622.669 344.835 622.879 344.626 623.193 344.626C623.473 344.626 623.682 344.835 623.682 345.115V352.52C623.682 356.467 624.381 357.899 627.699 357.899H629.585C632.1 357.899 633.183 356.537 633.602 351.682C633.637 351.228 633.358 350.878 632.939 350.739C632.38 350.564 631.786 350.319 631.192 350.075C630.179 349.621 629.62 349.9 629.585 351.053C629.516 353.288 629.376 353.673 629.027 353.673H628.572ZM612.12 327.58H604.261C603.737 327.58 603.388 327.929 603.388 328.453V330.304C603.388 330.828 603.737 331.178 604.261 331.178H612.12C612.644 331.178 612.994 330.828 612.994 330.304V328.453C612.994 327.929 612.644 327.58 612.12 327.58ZM613.273 332.261H602.445C601.921 332.261 601.572 332.61 601.572 333.134V335.16C601.572 335.684 601.921 336.033 602.445 336.033H613.273C613.797 336.033 614.146 335.684 614.146 335.16V333.134C614.146 332.61 613.797 332.261 613.273 332.261ZM626.512 340.539H620.259C619.945 340.539 619.735 340.329 619.735 340.015V337.256C619.735 336.941 619.945 336.732 620.259 336.732H626.512C626.826 336.732 627.036 336.941 627.036 337.256V340.015C627.036 340.329 626.826 340.539 626.512 340.539ZM612.051 337.151H604.052C603.528 337.151 603.178 337.5 603.178 338.024V339.84C603.178 340.364 603.528 340.714 604.052 340.714H612.051C612.575 340.714 612.924 340.364 612.924 339.84V338.024C612.924 337.5 612.575 337.151 612.051 337.151ZM604.052 345.429H612.051C612.575 345.429 612.924 345.08 612.924 344.556V342.74C612.924 342.216 612.575 341.866 612.051 341.866H604.052C603.528 341.866 603.178 342.216 603.178 342.74V344.556C603.178 345.08 603.528 345.429 604.052 345.429ZM608.592 353.219H607.58C607.265 353.219 607.056 353.009 607.056 352.695V350.913C607.056 350.599 607.265 350.389 607.58 350.389H608.592C608.907 350.389 609.116 350.599 609.116 350.913V352.695C609.116 353.009 608.907 353.219 608.592 353.219Z" fill="#EDEDED"/>
</g>
<g clip-path="url(#clip2_650_8895)">
<path d="M896.959 109.978C786.471 109.978 697.146 199.303 697.146 309.791C697.146 420.279 786.471 509.603 896.959 509.603C1007.45 509.603 1096.77 420.279 1096.77 309.791V109.978H896.959Z" fill="#686868"/>
<path d="M890.496 315.975V456.074C814.669 452.867 753.606 391.802 750.398 315.975H890.496Z" fill="white" stroke="#686868" stroke-width="4.28037"/>
<path d="M903.141 316.248H1043.24C1040.03 392.075 978.967 453.138 903.141 456.345V316.248Z" fill="white" stroke="#686868" stroke-width="4.28037"/>
<path d="M903.141 303.332V163.161H1043.31V303.332H903.141Z" fill="white" stroke="#686868" stroke-width="4.28037"/>
</g>
<path d="M984 506C984 504.343 985.343 503 987 503H1120V554.332H984V506Z" fill="#121212"/>
<path d="M995.478 535H997.769C997.95 535 998.1 534.879 998.131 534.699L998.733 531.896C998.884 531.127 998.989 530.389 999.125 529.5H999.2C999.336 530.389 999.472 531.127 999.622 531.896L1000.26 534.699C1000.29 534.879 1000.44 535 1000.62 535H1002.98C1003.16 535 1003.31 534.879 1003.36 534.714L1005.11 527.314C1005.17 527.028 1005.02 526.847 1004.73 526.847H1003.16C1002.97 526.847 1002.82 526.968 1002.79 527.149L1002.14 530.509C1001.99 531.308 1001.91 532.122 1001.79 532.935H1001.72C1001.54 532.122 1001.4 531.308 1001.22 530.509L1000.42 527.134C1000.38 526.968 1000.23 526.847 1000.04 526.847H998.432C998.251 526.847 998.1 526.968 998.07 527.134L997.302 530.509C997.106 531.293 996.97 532.122 996.835 532.935H996.759C996.639 532.122 996.548 531.308 996.413 530.509L995.749 527.149C995.719 526.968 995.569 526.847 995.373 526.847H993.655C993.368 526.847 993.218 527.028 993.293 527.314L995.101 534.714C995.147 534.879 995.297 535 995.478 535ZM1007.54 535H1009.33C1009.56 535 1009.71 534.849 1009.71 534.623V530.389L1009.74 530.298V530.268C1010.18 529.258 1010.89 528.882 1011.46 528.882C1011.66 528.882 1011.81 528.897 1011.96 528.927C1012.2 528.972 1012.38 528.867 1012.42 528.625L1012.72 527.119C1012.76 526.953 1012.68 526.772 1012.51 526.727C1012.33 526.681 1012.11 526.651 1011.79 526.651C1011.14 526.651 1010.42 526.983 1009.85 527.676C1009.58 528.008 1009.41 527.977 1009.35 527.556L1009.29 527.164C1009.26 526.983 1009.11 526.847 1008.91 526.847H1007.54C1007.31 526.847 1007.16 526.998 1007.16 527.224V534.623C1007.16 534.849 1007.31 535 1007.54 535ZM1015.38 525.717C1016.22 525.717 1016.82 525.175 1016.82 524.421C1016.82 523.652 1016.22 523.11 1015.38 523.11C1014.52 523.11 1013.91 523.652 1013.91 524.421C1013.91 525.175 1014.52 525.717 1015.38 525.717ZM1014.47 535H1016.26C1016.49 535 1016.64 534.849 1016.64 534.623V527.224C1016.64 526.998 1016.49 526.847 1016.26 526.847H1014.47C1014.25 526.847 1014.09 526.998 1014.09 527.224V534.623C1014.09 534.849 1014.25 535 1014.47 535ZM1022.19 535.196C1022.82 535.196 1023.32 535.105 1023.71 534.985C1023.91 534.94 1024.01 534.759 1023.97 534.563L1023.71 533.433C1023.67 533.222 1023.5 533.116 1023.28 533.161C1023.16 533.192 1023.02 533.207 1022.9 533.207C1022.3 533.207 1021.86 532.845 1021.86 531.956V529.213C1021.86 528.987 1022.01 528.836 1022.24 528.836H1023.41C1023.64 528.836 1023.79 528.686 1023.79 528.46V527.224C1023.79 526.998 1023.64 526.847 1023.41 526.847H1022.24C1022.01 526.847 1021.86 526.697 1021.86 526.471V525.084C1021.86 524.858 1021.71 524.707 1021.48 524.707H1020.08C1019.89 524.707 1019.73 524.843 1019.7 525.039L1019.51 526.546C1019.48 526.727 1019.34 526.862 1019.16 526.877L1018.56 526.923C1018.35 526.938 1018.21 527.088 1018.21 527.299V528.46C1018.21 528.686 1018.36 528.836 1018.59 528.836H1018.94C1019.16 528.836 1019.31 528.987 1019.31 529.213V531.986C1019.31 533.915 1020.14 535.196 1022.19 535.196ZM1028.9 535.196C1029.53 535.196 1030.03 535.105 1030.42 534.985C1030.62 534.94 1030.73 534.759 1030.68 534.563L1030.42 533.433C1030.38 533.222 1030.21 533.116 1029.99 533.161C1029.87 533.192 1029.73 533.207 1029.61 533.207C1029.01 533.207 1028.57 532.845 1028.57 531.956V529.213C1028.57 528.987 1028.72 528.836 1028.95 528.836H1030.12C1030.35 528.836 1030.5 528.686 1030.5 528.46V527.224C1030.5 526.998 1030.35 526.847 1030.12 526.847H1028.95C1028.72 526.847 1028.57 526.697 1028.57 526.471V525.084C1028.57 524.858 1028.42 524.707 1028.19 524.707H1026.79C1026.6 524.707 1026.45 524.843 1026.42 525.039L1026.22 526.546C1026.19 526.727 1026.05 526.862 1025.87 526.877L1025.27 526.923C1025.06 526.938 1024.92 527.088 1024.92 527.299V528.46C1024.92 528.686 1025.07 528.836 1025.3 528.836H1025.65C1025.87 528.836 1026.02 528.987 1026.02 529.213V531.986C1026.02 533.915 1026.85 535.196 1028.9 535.196ZM1036.16 535.196C1037 535.196 1037.98 534.94 1038.78 534.457C1038.96 534.352 1039 534.156 1038.9 533.975L1038.4 533.086C1038.3 532.875 1038.08 532.815 1037.87 532.92C1037.42 533.146 1036.97 533.252 1036.5 533.252C1035.63 533.252 1034.93 532.92 1034.6 532.122C1034.5 531.865 1034.65 531.685 1034.93 531.685H1038.99C1039.15 531.685 1039.29 531.579 1039.32 531.413C1039.35 531.187 1039.37 530.886 1039.37 530.585C1039.37 528.354 1038.22 526.651 1035.88 526.651C1033.89 526.651 1032.01 528.279 1032.01 530.931C1032.01 533.629 1033.82 535.196 1036.16 535.196ZM1034.5 529.756C1034.72 528.972 1035.28 528.595 1035.91 528.595C1036.76 528.595 1037.13 529.093 1037.19 529.786C1037.21 529.921 1037.12 530.012 1036.98 530.012H1034.71C1034.54 530.012 1034.45 529.906 1034.5 529.756ZM1041.83 535H1043.63C1043.85 535 1044 534.849 1044 534.623V529.726C1044 529.62 1044.05 529.515 1044.12 529.454C1044.56 529.047 1044.89 528.836 1045.42 528.836C1046.05 528.836 1046.35 529.153 1046.35 530.268V534.623C1046.35 534.849 1046.5 535 1046.73 535H1048.52C1048.75 535 1048.9 534.849 1048.9 534.623V529.967C1048.9 527.932 1048.15 526.651 1046.37 526.651C1045.46 526.651 1044.74 527.028 1044.12 527.525C1043.88 527.721 1043.7 527.661 1043.64 527.36L1043.6 527.149C1043.57 526.968 1043.41 526.847 1043.22 526.847H1041.83C1041.61 526.847 1041.46 526.998 1041.46 527.224V534.623C1041.46 534.849 1041.61 535 1041.83 535ZM1059.17 535.196C1060.92 535.196 1062.59 533.599 1062.59 530.78C1062.59 528.279 1061.36 526.651 1059.4 526.651C1058.84 526.651 1058.28 526.832 1057.79 527.164C1057.49 527.36 1057.32 527.284 1057.33 526.908L1057.36 526.305V523.939C1057.36 523.713 1057.21 523.562 1056.99 523.562H1055.19C1054.97 523.562 1054.82 523.713 1054.82 523.939V534.623C1054.82 534.849 1054.97 535 1055.19 535H1056.52C1056.69 535 1056.84 534.895 1056.88 534.729L1056.93 534.563C1057 534.307 1057.17 534.262 1057.36 534.442C1057.94 534.955 1058.59 535.196 1059.17 535.196ZM1058.57 533.116C1058.22 533.116 1057.82 533.011 1057.44 532.694C1057.39 532.664 1057.36 532.589 1057.36 532.529V529.5C1057.36 529.439 1057.39 529.379 1057.42 529.349C1057.83 528.927 1058.21 528.731 1058.66 528.731C1059.56 528.731 1059.97 529.409 1059.97 530.841C1059.97 532.468 1059.35 533.116 1058.57 533.116ZM1065.75 538.135C1067.68 538.135 1068.55 537.11 1069.35 535.015L1071.99 527.345C1072.08 527.043 1071.94 526.847 1071.62 526.847H1070.01C1069.85 526.847 1069.69 526.953 1069.65 527.119L1068.78 530.238C1068.59 531.007 1068.41 531.76 1068.25 532.544H1068.17C1067.96 531.73 1067.8 530.976 1067.55 530.238L1066.55 527.103C1066.48 526.953 1066.35 526.847 1066.18 526.847H1064.45C1064.12 526.847 1063.97 527.058 1064.09 527.36L1066.97 534.638C1067 534.714 1067 534.804 1066.98 534.879L1066.91 535.166C1066.71 535.738 1066.32 536.145 1065.57 536.145H1065.54L1065.26 536.1C1065.1 536.07 1064.96 536.145 1064.93 536.311L1064.63 537.622C1064.57 537.848 1064.68 538.029 1064.9 538.059C1065.13 538.104 1065.4 538.135 1065.75 538.135Z" fill="#E7E7E7"/>
<g clip-path="url(#clip3_650_8895)">
<path fill-rule="evenodd" clip-rule="evenodd" d="M1081.55 523.722C1081.6 525.483 1081.98 527.218 1082.7 528.829C1083.39 528.404 1083.9 528.185 1084.23 528.046C1084.34 528 1084.43 527.963 1084.49 527.93C1084.64 527.86 1084.71 527.762 1084.77 527.684C1084.83 527.615 1084.87 527.562 1084.93 527.562C1085.07 527.563 1086.51 527.097 1087.38 526.53C1087.7 526.323 1088.01 526.228 1088.32 526.129C1088.88 525.956 1089.47 525.772 1090.24 524.962C1090.48 524.71 1090.21 524.571 1090.04 524.488C1089.95 524.442 1089.9 524.414 1089.97 524.392C1090.15 524.342 1090.43 524.353 1090.78 524.365C1091.42 524.388 1092.27 524.418 1092.99 524.099C1093.63 523.815 1094.05 523.583 1094.43 523.366C1095.02 523.038 1095.54 522.746 1096.69 522.366C1097.7 522.342 1096.44 521.699 1095.72 521.331V521.331H1095.72C1095.47 521.206 1095.29 521.114 1095.28 521.088C1095.28 521.064 1095.46 521.126 1095.74 521.224C1096.62 521.529 1098.48 522.176 1098.64 521.567C1098.78 521.015 1098.41 520.841 1098.13 520.71C1098.01 520.65 1097.9 520.599 1097.87 520.526C1097.83 520.438 1098.08 520.496 1098.46 520.582C1099.09 520.727 1100.07 520.952 1100.62 520.701C1101.49 520.301 1107.25 517.991 1107.25 517.991C1106.53 516.38 1105.51 514.925 1104.24 513.709C1102.96 512.493 1101.46 511.54 1099.82 510.904C1098.17 510.268 1096.42 509.962 1094.66 510.003C1092.9 510.044 1091.16 510.432 1089.55 511.143C1087.94 511.855 1086.48 512.877 1085.26 514.151C1084.05 515.425 1083.09 516.926 1082.46 518.568C1081.82 520.21 1081.51 521.962 1081.55 523.722ZM1086.57 535.722C1086.36 535.546 1086.15 535.363 1085.95 535.174C1086.45 535.126 1086.87 533.835 1086.86 533.407C1086.85 532.898 1087.23 532.369 1087.23 532.369C1087.73 531.891 1087.87 532.346 1087.97 532.693C1088.04 532.904 1088.09 533.076 1088.2 532.975C1088.29 532.894 1088.43 532.643 1088.6 532.342C1088.98 531.644 1089.51 530.676 1089.95 530.935C1090.4 531.197 1090.35 532.158 1090.33 532.619C1090.32 532.809 1090.31 532.914 1090.35 532.847C1090.45 532.665 1090.55 532 1090.66 531.283C1090.8 530.355 1090.95 529.338 1091.13 529.162C1091.9 528.425 1092.35 530.754 1092.67 532.385C1092.81 533.122 1092.93 533.716 1093.03 533.821C1093.12 533.911 1093.16 533.655 1093.22 533.263C1093.37 532.195 1093.68 530.118 1095.59 531.28C1097.38 532.37 1097.48 530.581 1097.54 529.327C1097.57 528.752 1097.6 528.29 1097.78 528.27C1097.83 528.263 1097.91 528.208 1098 528.143C1098.38 527.877 1099.02 527.435 1099.22 529.346C1099.48 531.727 1100.79 528.278 1100.23 527.07C1099.68 525.861 1099.84 523.904 1099.94 523.817C1100.02 523.741 1100.17 523.607 1100.33 523.446L1100.34 523.446V523.446C1101 522.815 1102.09 521.779 1101.93 522.286C1101.83 522.607 1101.94 522.501 1102.13 522.335C1102.31 522.171 1102.55 521.948 1102.72 522.015C1102.88 522.081 1102.94 522.179 1103 522.274C1103.06 522.372 1103.12 522.467 1103.29 522.519C1103.42 522.477 1103.77 522.068 1104.13 521.654C1104.49 521.227 1104.86 520.794 1105 520.751C1105.46 520.616 1105.62 520.932 1105.7 521.096C1105.73 521.156 1105.75 521.195 1105.78 521.185C1105.86 521.145 1105.98 520.863 1106.14 520.515C1106.34 520.061 1106.59 519.497 1106.85 519.219L1107 519.138C1107.83 520.695 1108.33 522.399 1108.5 524.152C1108.66 525.906 1108.48 527.674 1107.96 529.357C1107.44 531.039 1106.59 532.603 1105.47 533.959C1104.34 535.314 1102.96 536.435 1101.4 537.257C1099.85 538.08 1098.14 538.587 1096.39 538.751C1094.63 538.915 1092.86 538.732 1091.18 538.212C1089.49 537.692 1087.93 536.846 1086.57 535.722ZM1106.98 519.11C1106.93 519.138 1106.89 519.175 1106.85 519.219L1095.14 525.399L1083.27 531.661C1083.96 532.974 1084.87 534.161 1085.95 535.174C1085.95 535.175 1085.94 535.175 1085.94 535.175C1085.93 535.176 1085.84 535.11 1085.77 535.041C1085.76 535.028 1085.75 535.017 1085.73 535.005C1085.71 534.982 1085.67 534.956 1085.64 534.906C1085.63 534.893 1085.62 534.885 1085.61 534.876C1085.58 534.862 1085.56 534.846 1085.54 534.805C1085.12 534.414 1084.98 536.447 1084.87 538.137C1084.79 539.25 1084.73 540.214 1084.6 540.24C1084.39 540.314 1084.42 539.767 1084.46 538.933C1084.49 538.267 1084.54 537.416 1084.47 536.552C1084.34 534.617 1083.65 532.409 1083.24 531.633L1095.11 525.372L1106.98 519.11ZM1081.6 531.292L1109.44 517.217L1109.53 517.397L1081.69 531.471L1081.6 531.292ZM1083.91 524.386C1084.03 524.459 1084.2 524.526 1084.4 524.546C1084.46 524.552 1084.51 524.607 1084.5 524.668C1084.49 524.715 1084.46 524.75 1084.41 524.756C1084.23 524.779 1083.96 524.84 1083.7 524.907C1083.42 524.975 1083.21 524.656 1083.39 524.438C1083.51 524.29 1083.74 524.29 1083.91 524.386ZM1087.62 523.121C1087.68 523.163 1087.77 523.111 1087.76 523.035C1087.75 523.007 1087.74 522.983 1087.71 522.969C1087.55 522.877 1086.93 522.496 1086.08 521.845C1085.39 521.306 1084.95 520.896 1084.76 520.706C1084.69 520.641 1084.59 520.631 1084.51 520.687C1084.41 520.759 1084.41 520.906 1084.51 520.98C1084.82 521.214 1085.43 521.674 1085.9 521.988C1086.41 522.327 1087.26 522.888 1087.62 523.121ZM1088.3 524.032C1088.32 524.064 1088.3 524.104 1088.26 524.097C1088.05 524.062 1087.56 523.978 1087.26 523.925C1087.11 523.899 1086.81 523.906 1086.5 523.924C1086.3 523.935 1086.22 523.653 1086.39 523.563C1086.45 523.533 1086.52 523.537 1086.58 523.567C1086.7 523.627 1086.93 523.729 1087.32 523.825C1087.82 523.952 1088.18 524 1088.27 524.011C1088.29 524.012 1088.3 524.02 1088.3 524.032ZM1087.35 535.643C1087.64 534.716 1087.96 533.559 1087.87 533.186C1087.86 533.161 1087.86 533.136 1087.86 533.111C1087.86 532.88 1087.96 532.872 1087.97 533.102C1088.01 534.031 1088.02 535.334 1088.02 535.765C1088.02 535.858 1087.98 535.946 1087.91 536.009C1087.65 536.242 1087.24 535.972 1087.35 535.643Z" fill="#EBEBEB"/>
<path d="M1078.99 550.455V548.797H1082.94C1083.13 548.797 1083.31 548.749 1083.46 548.652C1083.62 548.556 1083.75 548.429 1083.84 548.271C1083.94 548.104 1083.99 547.924 1083.99 547.731C1083.99 547.53 1083.94 547.35 1083.84 547.192C1083.75 547.026 1083.62 546.894 1083.46 546.798C1083.31 546.701 1083.13 546.653 1082.94 546.653H1081.4C1080.88 546.653 1080.41 546.548 1079.99 546.337C1079.57 546.127 1079.23 545.824 1078.98 545.429C1078.73 545.026 1078.61 544.544 1078.61 543.982C1078.61 543.43 1078.73 542.952 1078.96 542.549C1079.2 542.136 1079.52 541.816 1079.92 541.588C1080.33 541.36 1080.78 541.246 1081.27 541.246H1085.27V542.904H1081.45C1081.28 542.904 1081.11 542.952 1080.96 543.048C1080.81 543.136 1080.7 543.254 1080.61 543.404C1080.53 543.553 1080.49 543.719 1080.49 543.903C1080.49 544.088 1080.53 544.254 1080.61 544.403C1080.7 544.552 1080.81 544.671 1080.96 544.759C1081.11 544.846 1081.28 544.89 1081.45 544.89H1083.04C1083.61 544.89 1084.11 545 1084.53 545.219C1084.95 545.438 1085.27 545.745 1085.5 546.14C1085.74 546.534 1085.86 546.995 1085.86 547.521C1085.86 548.144 1085.73 548.674 1085.49 549.113C1085.25 549.551 1084.93 549.884 1084.52 550.112C1084.11 550.341 1083.67 550.455 1083.17 550.455H1078.99ZM1089.59 550.455C1089.08 550.455 1088.62 550.332 1088.2 550.086C1087.79 549.841 1087.46 549.512 1087.21 549.1C1086.97 548.679 1086.84 548.214 1086.84 547.705C1086.84 547.337 1086.92 546.99 1087.08 546.666C1087.24 546.341 1087.45 546.056 1087.73 545.811C1087.45 545.565 1087.24 545.28 1087.08 544.956C1086.92 544.631 1086.84 544.289 1086.84 543.93C1086.84 543.43 1086.96 542.978 1087.2 542.575C1087.44 542.171 1087.77 541.851 1088.17 541.615C1088.58 541.369 1089.04 541.246 1089.53 541.246H1093.32V542.904H1089.74C1089.55 542.904 1089.38 542.952 1089.22 543.048C1089.08 543.136 1088.95 543.259 1088.86 543.417C1088.77 543.566 1088.73 543.737 1088.73 543.93C1088.73 544.114 1088.77 544.285 1088.86 544.443C1088.95 544.592 1089.08 544.715 1089.22 544.811C1089.38 544.899 1089.55 544.943 1089.74 544.943H1092.87V546.6H1089.82C1089.62 546.6 1089.43 546.653 1089.26 546.758C1089.1 546.855 1088.97 546.986 1088.87 547.153C1088.77 547.319 1088.73 547.503 1088.73 547.705C1088.73 547.907 1088.77 548.091 1088.87 548.258C1088.97 548.424 1089.1 548.556 1089.26 548.652C1089.43 548.749 1089.62 548.797 1089.82 548.797H1093.32V550.455H1089.59ZM1094.37 547.902V546.258H1098.09V547.902H1094.37ZM1100.83 550.455C1100.48 550.455 1100.18 550.38 1099.91 550.231C1099.65 550.073 1099.44 549.867 1099.3 549.613C1099.16 549.358 1099.08 549.073 1099.08 548.758C1099.08 548.459 1099.16 548.17 1099.31 547.889C1099.47 547.609 1099.67 547.381 1099.91 547.205L1102.74 545.179C1102.93 545.039 1103.08 544.873 1103.18 544.68C1103.27 544.487 1103.32 544.285 1103.32 544.074C1103.32 543.829 1103.27 543.623 1103.16 543.456C1103.06 543.281 1102.91 543.145 1102.72 543.048C1102.52 542.952 1102.29 542.904 1102.02 542.904H1099.58V541.246H1102.24C1102.85 541.246 1103.37 541.373 1103.81 541.628C1104.25 541.882 1104.58 542.224 1104.82 542.654C1105.07 543.075 1105.19 543.548 1105.19 544.074C1105.19 544.601 1105.08 545.065 1104.87 545.469C1104.67 545.864 1104.34 546.219 1103.87 546.534L1101.05 548.455C1101.03 548.464 1101.01 548.486 1100.98 548.521C1100.95 548.547 1100.94 548.582 1100.94 548.626C1100.94 548.687 1100.96 548.731 1100.99 548.758C1101.03 548.784 1101.08 548.797 1101.14 548.797H1105.47V550.455H1100.83ZM1106.79 550.455L1110.64 543.311C1110.69 543.224 1110.71 543.149 1110.71 543.088C1110.71 543.035 1110.69 542.991 1110.66 542.956C1110.62 542.921 1110.57 542.904 1110.51 542.904H1106.31V541.246H1110.75C1111.09 541.246 1111.4 541.325 1111.67 541.483C1111.95 541.641 1112.17 541.851 1112.34 542.114C1112.51 542.369 1112.59 542.658 1112.59 542.983C1112.59 543.158 1112.57 543.333 1112.52 543.509C1112.48 543.675 1112.42 543.833 1112.35 543.982L1108.92 550.455H1106.79Z" fill="#EBEBEB"/>
</g>
</g>
<defs>
<clipPath id="clip0_650_8895">
<rect width="1120" height="554" rx="6" fill="white"/>
</clipPath>
<clipPath id="clip1_650_8895">
<rect x="18" y="163" width="680" height="216" rx="6" fill="white"/>
</clipPath>
<clipPath id="clip2_650_8895">
<rect width="400" height="403.03" fill="white" transform="translate(698 109)"/>
</clipPath>
<clipPath id="clip3_650_8895">
<rect width="35" height="43.8196" fill="white" transform="translate(1078 510)"/>
</clipPath>
</defs>
</svg>
