<svg width="383" height="129" viewBox="0 0 383 129" fill="none" xmlns="http://www.w3.org/2000/svg">
<g clip-path="url(#clip0_711_15912)">
<rect width="382.775" height="128.454" fill="#121212"/>
<g clip-path="url(#clip1_711_15912)">
<path d="M382.775 0H0V110H382.775V0Z" fill="white"/>
<path d="M125.133 56.8991V34.1615H115.519V59.2898C115.519 61.3754 115.367 64.0715 112.62 64.0715C110.178 64.0715 109.822 61.5788 109.72 59.6968H99.4961C99.4961 65.1905 101.734 69.6668 107.075 71.5998C108.652 72.2102 110.433 72.5154 112.162 72.5154C116.18 72.5154 120.25 70.735 122.793 67.5813C125.133 64.631 125.133 60.5106 125.133 56.8991ZM160.313 71.8032V43.5719H151.869V46.5731H151.767C150.088 43.7754 146.63 42.6054 143.527 42.6054C135.032 42.6054 129.335 49.4216 129.335 57.6621C129.335 66.0553 134.828 72.7697 143.527 72.7697C146.579 72.7697 150.241 71.6506 151.767 68.7512H151.869V71.8032H160.313ZM151.869 57.6621C151.869 61.7314 148.919 64.8853 144.798 64.8853C140.831 64.8853 137.779 61.6806 137.779 57.7638C137.779 53.7453 140.627 50.4898 144.747 50.4898C148.868 50.4898 151.869 53.5418 151.869 57.6621ZM209.811 71.8032V56.3904C209.811 52.0667 209.964 48.7095 206.759 45.454C204.776 43.4193 202.131 42.6054 199.333 42.6054C195.518 42.6054 192.415 44.4366 190.38 47.6413C188.651 44.4366 185.904 42.6054 182.242 42.6054C179.037 42.6054 176.087 43.6736 174.459 46.5731H174.357V43.5719H166.473V71.8032H174.917V56.7973C174.917 53.491 175.781 50.5407 179.698 50.5407C183.259 50.5407 183.92 53.5418 183.92 56.4413V71.8032H192.364V56.3904C192.364 53.1858 193.28 50.5407 197.044 50.5407C200.961 50.5407 201.368 53.6944 201.368 56.7973V71.8032H209.811ZM236.911 63.1557C236.911 53.1858 222.719 55.6783 222.719 51.2528C222.719 49.9812 223.991 49.3707 225.11 49.3707C226.585 49.3707 227.704 49.9303 227.755 51.5072H236.046C235.487 45.5049 230.858 42.6054 225.211 42.6054C219.769 42.6054 214.275 46.0135 214.275 51.9141C214.275 55.8817 217.632 58.069 220.99 59.2898C222.21 59.7476 223.431 60.1546 224.652 60.5615C226.178 61.1719 228.467 61.7823 228.467 63.8171C228.467 65.2923 226.788 66.0044 225.517 66.0044C223.838 66.0044 222.566 65.1397 222.312 63.4101H213.919C214.58 69.616 219.514 72.7697 225.415 72.7697C231.163 72.7697 236.911 69.5142 236.911 63.1557ZM255.326 49.9812V43.5719H251.257V34.1615H242.813V43.5719H238.642V49.9812H242.813V71.8032H251.257V49.9812H255.326ZM287.878 71.8032V43.5719H279.434V46.5731H279.332C277.654 43.7754 274.195 42.6054 271.092 42.6054C262.597 42.6054 256.9 49.4216 256.9 57.6621C256.9 66.0553 262.393 72.7697 271.092 72.7697C274.144 72.7697 277.806 71.6506 279.332 68.7512H279.434V71.8032H287.878ZM279.434 57.6621C279.434 61.7314 276.484 64.8853 272.363 64.8853C268.396 64.8853 265.344 61.6806 265.344 57.7638C265.344 53.7453 268.192 50.4898 272.312 50.4898C276.433 50.4898 279.434 53.5418 279.434 57.6621ZM322.574 61.0702H313.978C312.706 63.5118 310.671 64.8345 307.874 64.8345C303.753 64.8345 301.159 61.6297 301.159 57.6621C301.159 53.847 303.601 50.4898 307.67 50.4898C310.57 50.4898 312.757 51.8124 313.978 54.4575H322.523C321.048 47.2852 314.792 42.6054 307.568 42.6054C299.175 42.6054 292.664 49.269 292.664 57.6112C292.664 66.0553 299.328 72.7188 307.772 72.7188C314.893 72.7188 320.946 67.9882 322.574 61.0702ZM353.18 43.5719H343.159L335.326 53.7962H335.224V34.1615H326.78V71.8032H335.224V58.2216H335.326L343.312 71.8032H352.875L342.549 55.9835L353.18 43.5719Z" fill="#242424"/>
<path d="M51.948 24.3081C34.9064 24.3081 21.1289 38.0856 21.1289 55.1272C21.1289 72.1689 34.9064 85.9463 51.948 85.9463C68.9898 85.9463 82.7671 72.1689 82.7671 55.1272V24.3081H51.948Z" fill="#F0047F"/>
<path d="M50.9505 56.0811V77.6899C39.255 77.1952 29.8366 67.7765 29.3418 56.0811H50.9505Z" fill="white" stroke="#F0047F" stroke-width="0.635838"/>
<path d="M52.9004 56.1233H74.5093C74.014 67.8185 64.5959 77.2372 52.9004 77.7319V56.1233Z" fill="white" stroke="#F0047F" stroke-width="0.635838"/>
<path d="M52.9004 54.131V32.511H74.5207V54.131H52.9004Z" fill="white" stroke="#F0047F" stroke-width="0.635838"/>
</g>
<path d="M0 125.43V115.322H0.854V119.676C1.05 119.359 1.32533 119.093 1.68 118.878C2.044 118.663 2.45467 118.556 2.912 118.556C3.63067 118.556 4.20933 118.785 4.648 119.242C5.08667 119.699 5.306 120.353 5.306 121.202V125.43H4.466V121.328C4.466 120.675 4.30733 120.185 3.99 119.858C3.682 119.531 3.28067 119.368 2.786 119.368C2.41267 119.368 2.07667 119.452 1.778 119.62C1.48867 119.779 1.26 119.998 1.092 120.278C0.933334 120.549 0.854 120.852 0.854 121.188V125.43H0Z" fill="white"/>
<path d="M10.241 125.584C9.64371 125.584 9.19571 125.458 8.89705 125.206C8.59838 124.954 8.44905 124.501 8.44905 123.848V119.508H6.99305V118.724H8.44905V116.26H9.28905V118.724H11.333V119.508H9.28905V123.708C9.28905 124.128 9.37771 124.417 9.55505 124.576C9.73238 124.725 10.0077 124.8 10.381 124.8C10.5397 124.8 10.7077 124.777 10.885 124.73C11.0624 124.683 11.2117 124.632 11.333 124.576V125.402C11.2024 125.449 11.0344 125.491 10.829 125.528C10.6237 125.565 10.4277 125.584 10.241 125.584Z" fill="white"/>
<path d="M16.0184 125.584C15.4211 125.584 14.9731 125.458 14.6744 125.206C14.3757 124.954 14.2264 124.501 14.2264 123.848V119.508H12.7704V118.724H14.2264V116.26H15.0664V118.724H17.1104V119.508H15.0664V123.708C15.0664 124.128 15.1551 124.417 15.3324 124.576C15.5097 124.725 15.7851 124.8 16.1584 124.8C16.3171 124.8 16.4851 124.777 16.6624 124.73C16.8397 124.683 16.9891 124.632 17.1104 124.576V125.402C16.9797 125.449 16.8117 125.491 16.6064 125.528C16.4011 125.565 16.2051 125.584 16.0184 125.584Z" fill="white"/>
<path d="M19.1777 128.342V118.724H19.9617L19.9897 119.942C20.2324 119.503 20.5544 119.163 20.9557 118.92C21.3571 118.677 21.8144 118.556 22.3277 118.556C22.9251 118.556 23.4571 118.705 23.9237 119.004C24.3904 119.293 24.7544 119.704 25.0157 120.236C25.2864 120.759 25.4217 121.37 25.4217 122.07C25.4217 122.77 25.2864 123.386 25.0157 123.918C24.7544 124.441 24.3904 124.851 23.9237 125.15C23.4571 125.439 22.9251 125.584 22.3277 125.584C21.8237 125.584 21.3757 125.463 20.9837 125.22C20.5917 124.977 20.2744 124.651 20.0317 124.24V128.342H19.1777ZM22.3137 124.786C22.7524 124.786 23.1397 124.674 23.4757 124.45C23.8211 124.226 24.0917 123.913 24.2877 123.512C24.4837 123.101 24.5817 122.621 24.5817 122.07C24.5817 121.519 24.4837 121.043 24.2877 120.642C24.0917 120.231 23.8211 119.914 23.4757 119.69C23.1397 119.466 22.7524 119.354 22.3137 119.354C21.6511 119.354 21.1051 119.601 20.6757 120.096C20.2464 120.581 20.0317 121.239 20.0317 122.07C20.0317 122.891 20.2464 123.549 20.6757 124.044C21.1051 124.539 21.6511 124.786 22.3137 124.786Z" fill="white"/>
<path d="M29.9308 125.584C29.3334 125.584 28.7921 125.467 28.3068 125.234C27.8214 125.001 27.4294 124.669 27.1308 124.24L27.7468 123.722C27.9708 124.067 28.2741 124.333 28.6568 124.52C29.0488 124.707 29.4828 124.8 29.9588 124.8C30.4161 124.8 30.8034 124.702 31.1208 124.506C31.4474 124.301 31.6108 123.983 31.6108 123.554C31.6108 123.171 31.4568 122.905 31.1488 122.756C30.8408 122.607 30.3694 122.467 29.7348 122.336C29.3428 122.252 28.9694 122.149 28.6148 122.028C28.2694 121.907 27.9894 121.725 27.7748 121.482C27.5601 121.23 27.4528 120.885 27.4528 120.446C27.4528 120.045 27.5601 119.704 27.7748 119.424C27.9988 119.144 28.2928 118.929 28.6568 118.78C29.0208 118.631 29.4081 118.556 29.8188 118.556C30.9201 118.556 31.7274 118.948 32.2408 119.732L31.6668 120.25C31.2841 119.643 30.6728 119.34 29.8328 119.34C29.3474 119.34 28.9741 119.447 28.7128 119.662C28.4514 119.867 28.3208 120.124 28.3208 120.432C28.3208 120.777 28.4608 121.025 28.7408 121.174C29.0301 121.314 29.4734 121.449 30.0708 121.58C30.4908 121.673 30.8828 121.79 31.2468 121.93C31.6201 122.07 31.9188 122.266 32.1428 122.518C32.3668 122.77 32.4788 123.12 32.4788 123.568C32.4788 124.165 32.2454 124.651 31.7788 125.024C31.3214 125.397 30.7054 125.584 29.9308 125.584Z" fill="white"/>
<path d="M35.2189 120.11C34.9949 120.11 34.8082 120.035 34.6589 119.886C34.5095 119.727 34.4349 119.545 34.4349 119.34C34.4349 119.116 34.5095 118.929 34.6589 118.78C34.8082 118.631 34.9949 118.556 35.2189 118.556C35.4335 118.556 35.6155 118.631 35.7649 118.78C35.9142 118.929 35.9889 119.116 35.9889 119.34C35.9889 119.545 35.9142 119.727 35.7649 119.886C35.6155 120.035 35.4335 120.11 35.2189 120.11ZM35.2189 125.584C34.9949 125.584 34.8082 125.509 34.6589 125.36C34.5095 125.201 34.4349 125.019 34.4349 124.814C34.4349 124.599 34.5095 124.417 34.6589 124.268C34.8082 124.109 34.9949 124.03 35.2189 124.03C35.4335 124.03 35.6155 124.109 35.7649 124.268C35.9142 124.417 35.9889 124.599 35.9889 124.814C35.9889 125.019 35.9142 125.201 35.7649 125.36C35.6155 125.509 35.4335 125.584 35.2189 125.584Z" fill="white"/>
<path d="M38.7872 126.032L38.1992 125.724L43.6872 115L44.2752 115.308L38.7872 126.032Z" fill="white"/>
<path d="M46.9298 126.032L46.3418 125.724L51.8298 115L52.4178 115.308L46.9298 126.032Z" fill="white"/>
<path d="M53.7423 128.454C53.593 128.454 53.4343 128.44 53.2663 128.412C53.089 128.384 52.9397 128.351 52.8183 128.314V127.474C52.9303 127.511 53.0563 127.539 53.1963 127.558C53.3363 127.586 53.481 127.6 53.6303 127.6C54.097 127.6 54.419 127.488 54.5963 127.264C54.783 127.049 54.8763 126.662 54.8763 126.102V118.724H55.7303V126.102C55.7303 126.961 55.5623 127.567 55.2263 127.922C54.8997 128.277 54.405 128.454 53.7423 128.454ZM55.3103 117.268C55.133 117.268 54.979 117.207 54.8483 117.086C54.727 116.955 54.6663 116.801 54.6663 116.624C54.6663 116.437 54.727 116.283 54.8483 116.162C54.979 116.041 55.133 115.98 55.3103 115.98C55.4783 115.98 55.623 116.041 55.7443 116.162C55.875 116.283 55.9403 116.437 55.9403 116.624C55.9403 116.801 55.875 116.955 55.7443 117.086C55.623 117.207 55.4783 117.268 55.3103 117.268Z" fill="white"/>
<path d="M60.3232 125.556C59.6699 125.565 59.1379 125.416 58.7272 125.108C58.3259 124.8 58.1253 124.352 58.1253 123.764C58.1253 123.316 58.2746 122.924 58.5732 122.588C58.8812 122.252 59.2686 121.991 59.7353 121.804C60.2113 121.608 60.7012 121.51 61.2052 121.51C61.8959 121.51 62.4419 121.673 62.8433 122V120.852C62.8433 120.227 62.7126 119.821 62.4513 119.634C62.1899 119.438 61.7699 119.34 61.1912 119.34C60.8179 119.34 60.4026 119.41 59.9453 119.55C59.4879 119.681 59.1006 119.849 58.7833 120.054L58.3773 119.382C58.7412 119.149 59.1799 118.953 59.6933 118.794C60.2159 118.635 60.7152 118.556 61.1912 118.556C62.0406 118.556 62.6659 118.719 63.0672 119.046C63.4686 119.373 63.6693 119.975 63.6693 120.852V124.562C63.6693 124.739 63.7159 124.842 63.8093 124.87C63.9119 124.889 64.1312 124.865 64.4672 124.8V125.402C64.3739 125.439 64.2479 125.472 64.0892 125.5C63.9306 125.537 63.7813 125.556 63.6413 125.556C63.3239 125.556 63.1186 125.491 63.0252 125.36C62.9319 125.229 62.8759 124.982 62.8573 124.618C62.5679 124.935 62.1853 125.169 61.7093 125.318C61.2332 125.467 60.7712 125.547 60.3232 125.556ZM60.3652 124.786C60.8133 124.777 61.2286 124.707 61.6113 124.576C62.0033 124.445 62.3113 124.259 62.5353 124.016C62.7686 123.764 62.8759 123.461 62.8573 123.106C62.8293 122.817 62.6706 122.602 62.3813 122.462C62.0919 122.313 61.7186 122.243 61.2612 122.252C60.8786 122.252 60.5099 122.317 60.1553 122.448C59.8006 122.579 59.5112 122.761 59.2873 122.994C59.0726 123.218 58.9653 123.479 58.9653 123.778C58.9653 124.123 59.0959 124.38 59.3573 124.548C59.6186 124.707 59.9546 124.786 60.3652 124.786Z" fill="white"/>
<path d="M66.5234 125.43V118.724H67.3214L67.3634 119.774C67.5128 119.429 67.7601 119.139 68.1054 118.906C68.4508 118.673 68.8428 118.556 69.2814 118.556C69.8228 118.556 70.2661 118.682 70.6114 118.934C70.9661 119.186 71.2041 119.536 71.3254 119.984C71.4841 119.573 71.7361 119.233 72.0814 118.962C72.4268 118.691 72.8701 118.556 73.4114 118.556C74.1021 118.556 74.6434 118.775 75.0354 119.214C75.4274 119.643 75.6234 120.292 75.6234 121.16V125.43H74.7694V121.286C74.7694 120.577 74.6341 120.077 74.3634 119.788C74.0928 119.499 73.7288 119.354 73.2714 119.354C72.9168 119.354 72.6041 119.447 72.3334 119.634C72.0721 119.811 71.8668 120.049 71.7174 120.348C71.5774 120.637 71.5074 120.955 71.5074 121.3V125.43H70.6534V121.286C70.6534 120.577 70.5134 120.077 70.2334 119.788C69.9628 119.499 69.5988 119.354 69.1414 119.354C68.7868 119.354 68.4741 119.447 68.2034 119.634C67.9421 119.821 67.7368 120.063 67.5874 120.362C67.4474 120.651 67.3774 120.959 67.3774 121.286V125.43H66.5234Z" fill="white"/>
<path d="M80.503 125.584C79.9057 125.584 79.3644 125.467 78.879 125.234C78.3937 125.001 78.0017 124.669 77.703 124.24L78.319 123.722C78.543 124.067 78.8464 124.333 79.229 124.52C79.621 124.707 80.055 124.8 80.531 124.8C80.9884 124.8 81.3757 124.702 81.693 124.506C82.0197 124.301 82.183 123.983 82.183 123.554C82.183 123.171 82.029 122.905 81.721 122.756C81.413 122.607 80.9417 122.467 80.307 122.336C79.915 122.252 79.5417 122.149 79.187 122.028C78.8417 121.907 78.5617 121.725 78.347 121.482C78.1324 121.23 78.025 120.885 78.025 120.446C78.025 120.045 78.1324 119.704 78.347 119.424C78.571 119.144 78.865 118.929 79.229 118.78C79.593 118.631 79.9804 118.556 80.391 118.556C81.4924 118.556 82.2997 118.948 82.813 119.732L82.239 120.25C81.8564 119.643 81.245 119.34 80.405 119.34C79.9197 119.34 79.5464 119.447 79.285 119.662C79.0237 119.867 78.893 120.124 78.893 120.432C78.893 120.777 79.033 121.025 79.313 121.174C79.6024 121.314 80.0457 121.449 80.643 121.58C81.063 121.673 81.455 121.79 81.819 121.93C82.1924 122.07 82.491 122.266 82.715 122.518C82.939 122.77 83.051 123.12 83.051 123.568C83.051 124.165 82.8177 124.651 82.351 125.024C81.8937 125.397 81.2777 125.584 80.503 125.584Z" fill="white"/>
<path d="M87.7371 125.584C87.1398 125.584 86.6918 125.458 86.3931 125.206C86.0945 124.954 85.9451 124.501 85.9451 123.848V119.508H84.4891V118.724H85.9451V116.26H86.7851V118.724H88.8291V119.508H86.7851V123.708C86.7851 124.128 86.8738 124.417 87.0511 124.576C87.2285 124.725 87.5038 124.8 87.8771 124.8C88.0358 124.8 88.2038 124.777 88.3811 124.73C88.5585 124.683 88.7078 124.632 88.8291 124.576V125.402C88.6985 125.449 88.5305 125.491 88.3251 125.528C88.1198 125.565 87.9238 125.584 87.7371 125.584Z" fill="white"/>
<path d="M92.6885 125.556C92.0351 125.565 91.5032 125.416 91.0925 125.108C90.6911 124.8 90.4905 124.352 90.4905 123.764C90.4905 123.316 90.6398 122.924 90.9385 122.588C91.2465 122.252 91.6338 121.991 92.1005 121.804C92.5765 121.608 93.0665 121.51 93.5705 121.51C94.2611 121.51 94.8071 121.673 95.2085 122V120.852C95.2085 120.227 95.0778 119.821 94.8165 119.634C94.5552 119.438 94.1351 119.34 93.5565 119.34C93.1831 119.34 92.7678 119.41 92.3105 119.55C91.8531 119.681 91.4658 119.849 91.1485 120.054L90.7425 119.382C91.1065 119.149 91.5451 118.953 92.0585 118.794C92.5811 118.635 93.0805 118.556 93.5565 118.556C94.4058 118.556 95.0311 118.719 95.4325 119.046C95.8338 119.373 96.0345 119.975 96.0345 120.852V124.562C96.0345 124.739 96.0812 124.842 96.1745 124.87C96.2772 124.889 96.4965 124.865 96.8325 124.8V125.402C96.7392 125.439 96.6132 125.472 96.4545 125.5C96.2958 125.537 96.1465 125.556 96.0065 125.556C95.6892 125.556 95.4838 125.491 95.3905 125.36C95.2971 125.229 95.2411 124.982 95.2225 124.618C94.9332 124.935 94.5505 125.169 94.0745 125.318C93.5985 125.467 93.1365 125.547 92.6885 125.556ZM92.7305 124.786C93.1785 124.777 93.5938 124.707 93.9765 124.576C94.3685 124.445 94.6765 124.259 94.9005 124.016C95.1338 123.764 95.2411 123.461 95.2225 123.106C95.1945 122.817 95.0358 122.602 94.7465 122.462C94.4572 122.313 94.0838 122.243 93.6265 122.252C93.2438 122.252 92.8752 122.317 92.5205 122.448C92.1658 122.579 91.8765 122.761 91.6525 122.994C91.4378 123.218 91.3305 123.479 91.3305 123.778C91.3305 124.123 91.4612 124.38 91.7225 124.548C91.9838 124.707 92.3198 124.786 92.7305 124.786Z" fill="white"/>
<path d="M101.345 125.584C100.748 125.584 100.216 125.439 99.7492 125.15C99.2826 124.851 98.9139 124.436 98.6432 123.904C98.3726 123.372 98.2372 122.761 98.2372 122.07C98.2372 121.379 98.3726 120.773 98.6432 120.25C98.9139 119.718 99.2826 119.307 99.7492 119.018C100.216 118.719 100.748 118.57 101.345 118.57C101.821 118.57 102.26 118.668 102.661 118.864C103.072 119.051 103.422 119.331 103.711 119.704L103.039 120.208C102.619 119.648 102.055 119.368 101.345 119.368C100.692 119.368 100.151 119.615 99.7212 120.11C99.3012 120.595 99.0912 121.249 99.0912 122.07C99.0912 122.891 99.3012 123.549 99.7212 124.044C100.151 124.539 100.692 124.786 101.345 124.786C102.055 124.786 102.619 124.506 103.039 123.946L103.711 124.45C103.114 125.206 102.325 125.584 101.345 125.584Z" fill="white"/>
<path d="M105.91 125.43V115.322H106.764V121.468L109.83 118.724H111.006L107.534 121.762L111.146 125.43H110.04L106.764 122.056V125.43H105.91Z" fill="white"/>
<path d="M113.754 125.584C113.53 125.584 113.343 125.509 113.194 125.36C113.045 125.201 112.97 125.019 112.97 124.814C112.97 124.599 113.045 124.417 113.194 124.268C113.343 124.109 113.53 124.03 113.754 124.03C113.969 124.03 114.151 124.109 114.3 124.268C114.449 124.417 114.524 124.599 114.524 124.814C114.524 125.019 114.449 125.201 114.3 125.36C114.151 125.509 113.969 125.584 113.754 125.584Z" fill="white"/>
<path d="M119.716 125.584C119.119 125.584 118.587 125.435 118.12 125.136C117.654 124.837 117.285 124.427 117.014 123.904C116.744 123.372 116.608 122.761 116.608 122.07C116.608 121.379 116.744 120.773 117.014 120.25C117.285 119.718 117.654 119.303 118.12 119.004C118.587 118.705 119.119 118.556 119.716 118.556C120.323 118.556 120.86 118.705 121.326 119.004C121.793 119.303 122.162 119.718 122.432 120.25C122.703 120.773 122.838 121.379 122.838 122.07C122.838 122.761 122.703 123.372 122.432 123.904C122.162 124.427 121.793 124.837 121.326 125.136C120.86 125.435 120.323 125.584 119.716 125.584ZM119.716 124.786C120.155 124.786 120.542 124.674 120.878 124.45C121.224 124.226 121.494 123.913 121.69 123.512C121.886 123.101 121.984 122.621 121.984 122.07C121.984 121.519 121.886 121.043 121.69 120.642C121.494 120.231 121.224 119.914 120.878 119.69C120.542 119.466 120.155 119.354 119.716 119.354C119.063 119.354 118.522 119.601 118.092 120.096C117.672 120.581 117.462 121.239 117.462 122.07C117.462 122.891 117.672 123.549 118.092 124.044C118.522 124.539 119.063 124.786 119.716 124.786Z" fill="white"/>
<path d="M125.033 125.43V118.724H125.845L125.887 119.886C126.074 119.494 126.368 119.177 126.769 118.934C127.18 118.682 127.633 118.556 128.127 118.556C128.258 118.556 128.389 118.565 128.519 118.584C128.659 118.593 128.776 118.612 128.869 118.64V119.466C128.785 119.447 128.664 119.429 128.505 119.41C128.356 119.391 128.202 119.382 128.043 119.382C127.651 119.382 127.292 119.475 126.965 119.662C126.639 119.839 126.377 120.082 126.181 120.39C125.995 120.689 125.901 121.029 125.901 121.412V125.43H125.033Z" fill="white"/>
<path d="M133.429 128.454C132.188 128.454 131.254 127.969 130.629 126.998L131.329 126.536C131.796 127.273 132.496 127.642 133.429 127.642C134.12 127.642 134.647 127.413 135.011 126.956C135.375 126.508 135.557 125.831 135.557 124.926V123.722C135.324 124.086 135.02 124.375 134.647 124.59C134.274 124.795 133.849 124.898 133.373 124.898C132.804 124.898 132.295 124.767 131.847 124.506C131.408 124.245 131.058 123.876 130.797 123.4C130.545 122.924 130.419 122.364 130.419 121.72C130.419 121.076 130.545 120.521 130.797 120.054C131.058 119.578 131.408 119.209 131.847 118.948C132.295 118.687 132.804 118.556 133.373 118.556C133.858 118.556 134.292 118.668 134.675 118.892C135.058 119.107 135.366 119.405 135.599 119.788L135.613 118.724H136.397V124.926C136.397 126.139 136.122 127.031 135.571 127.6C135.03 128.169 134.316 128.454 133.429 128.454ZM133.415 124.114C133.835 124.114 134.208 124.016 134.535 123.82C134.862 123.615 135.118 123.335 135.305 122.98C135.492 122.616 135.585 122.196 135.585 121.72C135.585 121.244 135.492 120.829 135.305 120.474C135.118 120.119 134.862 119.844 134.535 119.648C134.208 119.443 133.835 119.34 133.415 119.34C133.004 119.34 132.636 119.443 132.309 119.648C131.992 119.844 131.74 120.119 131.553 120.474C131.366 120.829 131.273 121.244 131.273 121.72C131.273 122.196 131.366 122.616 131.553 122.98C131.74 123.335 131.992 123.615 132.309 123.82C132.636 124.016 133.004 124.114 133.415 124.114Z" fill="white"/>
<path d="M139.316 126.032L138.728 125.724L144.216 115L144.804 115.308L139.316 126.032Z" fill="white"/>
</g>
<defs>
<clipPath id="clip0_711_15912">
<rect width="382.775" height="128.454" fill="white"/>
</clipPath>
<clipPath id="clip1_711_15912">
<rect width="382.775" height="110" fill="white"/>
</clipPath>
</defs>
</svg>
