<svg width="456" height="497" viewBox="0 0 456 497" fill="none" xmlns="http://www.w3.org/2000/svg">
<rect x="0.632812" width="455" height="497" rx="4" fill="#E7E7E7"/>
<g clip-path="url(#clip0_711_15915)">
<path d="M238.274 269.006C237.6 269.006 236.94 269.227 236.379 269.641C235.819 270.054 235.381 270.643 235.123 271.331C234.865 272.019 234.798 272.776 234.929 273.506C235.061 274.236 235.386 274.907 235.863 275.434C236.34 275.96 236.947 276.319 237.609 276.464C238.27 276.61 238.956 276.535 239.579 276.25C240.202 275.965 240.735 275.482 241.11 274.863C241.485 274.244 241.685 273.516 241.685 272.771C241.685 271.773 241.325 270.815 240.686 270.109C240.046 269.403 239.179 269.006 238.274 269.006ZM217.811 269.006H207.58C206.675 269.006 205.808 269.403 205.168 270.109C204.528 270.815 204.169 271.773 204.169 272.771C204.169 273.77 204.528 274.728 205.168 275.434C205.808 276.14 206.675 276.537 207.58 276.537H217.811C218.716 276.537 219.583 276.14 220.223 275.434C220.862 274.728 221.222 273.77 221.222 272.771C221.222 271.773 220.862 270.815 220.223 270.109C219.583 269.403 218.716 269.006 217.811 269.006ZM248.506 269.006C247.831 269.006 247.172 269.227 246.611 269.641C246.05 270.054 245.613 270.643 245.355 271.331C245.097 272.019 245.029 272.776 245.161 273.506C245.292 274.236 245.617 274.907 246.094 275.434C246.571 275.96 247.179 276.319 247.84 276.464C248.502 276.61 249.188 276.535 249.811 276.25C250.434 275.965 250.967 275.482 251.341 274.863C251.716 274.244 251.916 273.516 251.916 272.771C251.916 271.773 251.557 270.815 250.917 270.109C250.278 269.403 249.41 269.006 248.506 269.006ZM238.274 246.415C237.6 246.415 236.94 246.636 236.379 247.05C235.819 247.463 235.381 248.051 235.123 248.739C234.865 249.427 234.798 250.184 234.929 250.915C235.061 251.645 235.386 252.316 235.863 252.843C236.34 253.369 236.947 253.728 237.609 253.873C238.27 254.018 238.956 253.944 239.579 253.659C240.202 253.374 240.735 252.891 241.11 252.272C241.485 251.653 241.685 250.925 241.685 250.18C241.685 249.182 241.325 248.224 240.686 247.518C240.046 246.812 239.179 246.415 238.274 246.415ZM217.811 246.415H207.58C206.675 246.415 205.808 246.812 205.168 247.518C204.528 248.224 204.169 249.182 204.169 250.18C204.169 251.179 204.528 252.137 205.168 252.843C205.808 253.549 206.675 253.945 207.58 253.945H217.811C218.716 253.945 219.583 253.549 220.223 252.843C220.862 252.137 221.222 251.179 221.222 250.18C221.222 249.182 220.862 248.224 220.223 247.518C219.583 246.812 218.716 246.415 217.811 246.415ZM248.506 223.824C247.831 223.824 247.172 224.045 246.611 224.459C246.05 224.872 245.613 225.46 245.355 226.148C245.097 226.836 245.029 227.593 245.161 228.324C245.292 229.054 245.617 229.725 246.094 230.252C246.571 230.778 247.179 231.137 247.84 231.282C248.502 231.427 249.188 231.353 249.811 231.068C250.434 230.783 250.967 230.3 251.341 229.681C251.716 229.062 251.916 228.334 251.916 227.589C251.916 226.591 251.557 225.633 250.917 224.927C250.278 224.221 249.41 223.824 248.506 223.824ZM248.506 246.415C247.831 246.415 247.172 246.636 246.611 247.05C246.05 247.463 245.613 248.051 245.355 248.739C245.097 249.427 245.029 250.184 245.161 250.915C245.292 251.645 245.617 252.316 246.094 252.843C246.571 253.369 247.179 253.728 247.84 253.873C248.502 254.018 249.188 253.944 249.811 253.659C250.434 253.374 250.967 252.891 251.341 252.272C251.716 251.653 251.916 250.925 251.916 250.18C251.916 249.182 251.557 248.224 250.917 247.518C250.278 246.812 249.41 246.415 248.506 246.415ZM262.148 223.824C262.148 220.828 261.07 217.955 259.151 215.837C257.232 213.718 254.63 212.528 251.916 212.528H204.169C201.455 212.528 198.853 213.718 196.934 215.837C195.015 217.955 193.938 220.828 193.938 223.824V231.354C193.953 234.141 194.9 236.823 196.598 238.885C194.9 240.947 193.953 243.629 193.938 246.415V253.945C193.953 256.732 194.9 259.414 196.598 261.476C194.9 263.538 193.953 266.22 193.938 269.006V276.537C193.938 279.532 195.015 282.405 196.934 284.524C198.853 286.642 201.455 287.832 204.169 287.832H251.916C254.63 287.832 257.232 286.642 259.151 284.524C261.07 282.405 262.148 279.532 262.148 276.537V269.006C262.133 266.22 261.185 263.538 259.488 261.476C261.185 259.414 262.133 256.732 262.148 253.945V246.415C262.133 243.629 261.185 240.947 259.488 238.885C261.185 236.823 262.133 234.141 262.148 231.354V223.824ZM255.327 276.537C255.327 277.535 254.967 278.493 254.328 279.199C253.688 279.905 252.821 280.302 251.916 280.302H204.169C203.265 280.302 202.397 279.905 201.757 279.199C201.118 278.493 200.759 277.535 200.759 276.537V269.006C200.759 268.008 201.118 267.05 201.757 266.344C202.397 265.638 203.265 265.241 204.169 265.241H251.916C252.821 265.241 253.688 265.638 254.328 266.344C254.967 267.05 255.327 268.008 255.327 269.006V276.537ZM255.327 253.945C255.327 254.944 254.967 255.902 254.328 256.608C253.688 257.314 252.821 257.711 251.916 257.711H204.169C203.265 257.711 202.397 257.314 201.757 256.608C201.118 255.902 200.759 254.944 200.759 253.945V246.415C200.759 245.417 201.118 244.459 201.757 243.753C202.397 243.047 203.265 242.65 204.169 242.65H251.916C252.821 242.65 253.688 243.047 254.328 243.753C254.967 244.459 255.327 245.417 255.327 246.415V253.945ZM255.327 231.354C255.327 232.353 254.967 233.311 254.328 234.017C253.688 234.723 252.821 235.12 251.916 235.12H204.169C203.265 235.12 202.397 234.723 201.757 234.017C201.118 233.311 200.759 232.353 200.759 231.354V223.824C200.759 222.825 201.118 221.868 201.757 221.162C202.397 220.455 203.265 220.059 204.169 220.059H251.916C252.821 220.059 253.688 220.455 254.328 221.162C254.967 221.868 255.327 222.825 255.327 223.824V231.354ZM238.274 223.824C237.6 223.824 236.94 224.045 236.379 224.459C235.819 224.872 235.381 225.46 235.123 226.148C234.865 226.836 234.798 227.593 234.929 228.324C235.061 229.054 235.386 229.725 235.863 230.252C236.34 230.778 236.947 231.137 237.609 231.282C238.27 231.427 238.956 231.353 239.579 231.068C240.202 230.783 240.735 230.3 241.11 229.681C241.485 229.062 241.685 228.334 241.685 227.589C241.685 226.591 241.325 225.633 240.686 224.927C240.046 224.221 239.179 223.824 238.274 223.824ZM217.811 223.824H207.58C206.675 223.824 205.808 224.221 205.168 224.927C204.528 225.633 204.169 226.591 204.169 227.589C204.169 228.588 204.528 229.545 205.168 230.252C205.808 230.958 206.675 231.354 207.58 231.354H217.811C218.716 231.354 219.583 230.958 220.223 230.252C220.862 229.545 221.222 228.588 221.222 227.589C221.222 226.591 220.862 225.633 220.223 224.927C219.583 224.221 218.716 223.824 217.811 223.824Z" fill="#121212"/>
<rect x="205.631" y="295.03" width="45.4962" height="21" rx="1.29924" fill="#121212"/>
<path d="M218.597 304.288V303.859H219.559C220.247 303.859 220.702 303.872 220.988 303.898V302.17C220.637 302.235 220.247 302.261 219.559 302.261H218.597V300.897C218.597 300.377 218.649 299.948 218.688 299.688H216.83C216.869 299.948 216.908 300.377 216.908 300.897V302.261H213.829V300.975C213.829 300.468 213.868 300.052 213.907 299.805H212.062C212.101 300.195 212.14 300.598 212.14 300.975V302.261H211.036C210.386 302.261 209.853 302.183 209.632 302.144V303.911C209.918 303.885 210.386 303.859 211.036 303.859H212.14V305.626C212.14 306.211 212.101 306.73 212.062 306.99H213.881C213.868 306.73 213.829 306.198 213.829 305.626V303.859H216.908V304.353C216.908 307.549 215.804 308.666 213.296 309.537L214.687 310.849C217.818 309.472 218.597 307.51 218.597 304.288ZM223.067 304.015V306.055C223.547 306.016 224.418 305.99 225.158 305.99H232.135C232.681 305.99 233.344 306.042 233.655 306.055V304.015C233.318 304.041 232.746 304.093 232.135 304.093H225.158C224.483 304.093 223.534 304.054 223.067 304.015ZM244.871 299.662L243.845 300.091C244.195 300.585 244.585 301.364 244.858 301.897L245.897 301.442C245.651 300.962 245.196 300.143 244.871 299.662ZM246.404 299.078L245.378 299.506C245.728 299.987 246.157 300.754 246.417 301.286L247.456 300.845C247.223 300.39 246.742 299.571 246.404 299.078ZM237.231 305.99C236.79 307.133 236.023 308.536 235.205 309.602L237.024 310.368C237.712 309.394 238.479 307.913 238.946 306.652C239.401 305.444 239.869 303.651 240.051 302.742C240.103 302.456 240.246 301.819 240.363 301.442L238.466 301.053C238.31 302.703 237.816 304.535 237.231 305.99ZM243.65 305.717C244.169 307.12 244.637 308.757 245.001 310.303L246.924 309.68C246.56 308.393 245.871 306.314 245.417 305.145C244.923 303.885 244.026 301.884 243.494 300.884L241.766 301.442C242.311 302.43 243.156 304.353 243.65 305.717Z" fill="#EDEDED"/>
<path d="M203.072 48.5761C203.072 46.8351 204.539 45.4106 206.331 45.4106H258.464C260.256 45.4106 261.722 43.9861 261.722 42.2451C261.722 40.504 260.256 39.0795 258.464 39.0795H203.072C199.488 39.0795 196.556 41.9285 196.556 45.4106V80.2314H194.927C192.222 80.2314 190.039 82.3523 190.039 84.9797C190.039 87.607 192.222 89.728 194.927 89.728H235.656V80.2314H203.072V48.5761ZM264.981 51.7416H245.431C243.639 51.7416 242.172 53.1661 242.172 54.9072V86.5624C242.172 88.3035 243.639 89.728 245.431 89.728H264.981C266.773 89.728 268.239 88.3035 268.239 86.5624V54.9072C268.239 53.1661 266.773 51.7416 264.981 51.7416ZM261.722 80.2314H248.689V58.0727H261.722V80.2314Z" fill="#121212"/>
<path d="M194.587 6.59848C189.248 6.60431 184.13 8.66745 180.354 12.3353C176.579 16.0031 174.455 20.976 174.449 26.1631C174.458 31.3492 176.583 36.3204 180.358 39.9876C184.132 43.6548 189.249 45.7189 194.587 45.7277C199.928 45.7277 205.051 43.6664 208.827 39.9973C212.604 36.3283 214.726 31.3519 214.726 26.1631C214.726 20.9742 212.604 15.9979 208.827 12.3288C205.051 8.65974 199.928 6.59848 194.587 6.59848ZM206.837 37.4524C205.705 35.2363 203.959 33.3713 201.795 32.068C199.631 30.7646 197.135 30.0747 194.589 30.076C192.043 30.0773 189.548 30.7699 187.386 32.0755C185.223 33.3812 183.479 35.248 182.35 37.4653C179.339 34.4313 177.661 30.3779 177.671 26.1631C177.671 21.8044 179.454 17.6243 182.626 14.5423C185.798 11.4603 190.101 9.72882 194.587 9.72882C199.074 9.72882 203.377 11.4603 206.549 14.5423C209.721 17.6243 211.504 21.8044 211.504 26.1631C211.514 30.3718 209.84 34.4196 206.837 37.4524ZM194.587 14.4243C193.154 14.4243 191.752 14.8374 190.56 15.6113C189.367 16.3852 188.438 17.4853 187.89 18.7722C187.341 20.0592 187.197 21.4754 187.477 22.8417C187.757 24.2079 188.447 25.4629 189.461 26.4479C190.475 27.4329 191.767 28.1037 193.173 28.3755C194.579 28.6473 196.037 28.5078 197.362 27.9747C198.687 27.4416 199.819 26.5389 200.615 25.3806C201.412 24.2223 201.837 22.8606 201.837 21.4676C201.837 20.5426 201.65 19.6268 201.285 18.7722C200.921 17.9177 200.387 17.1413 199.714 16.4872C199.041 15.8332 198.241 15.3144 197.362 14.9605C196.482 14.6065 195.54 14.4243 194.587 14.4243Z" fill="#121212"/>
<rect x="160.807" y="98.1951" width="136.496" height="21" rx="1.29924" fill="#121212"/>
<path d="M174.527 104.763L173.175 104.087C172.954 104.178 172.305 104.256 171.967 104.256H167.861C167.42 104.256 166.822 104.204 166.406 104.152V105.984C166.874 105.945 167.355 105.932 167.874 105.932H172.357C172.331 106.777 171.876 109.531 171.629 110.947H166.263C165.861 110.947 165.393 110.908 164.977 110.843V112.727C165.419 112.688 165.874 112.662 166.263 112.662H174.929C175.228 112.662 175.774 112.675 176.138 112.727V110.843C175.8 110.882 175.384 110.947 174.929 110.947H173.526C173.773 109.492 174.241 106.53 174.397 105.348C174.41 105.244 174.475 104.945 174.527 104.763ZM178.242 107.18V109.219C178.723 109.18 179.594 109.154 180.334 109.154H187.311C187.857 109.154 188.519 109.206 188.831 109.219V107.18C188.493 107.206 187.922 107.258 187.311 107.258H180.334C179.659 107.258 178.71 107.219 178.242 107.18ZM200.401 103.087L199.53 103.373C199.777 103.893 200.011 104.607 200.193 105.153L201.089 104.867C200.946 104.36 200.647 103.607 200.401 103.087ZM201.739 102.671L200.855 102.957C201.128 103.464 201.375 104.165 201.557 104.724L202.453 104.438C202.284 103.944 201.986 103.191 201.739 102.671ZM199.283 107.647V107.219H200.258C200.933 107.219 201.388 107.232 201.674 107.258V105.53C201.323 105.595 200.933 105.62 200.245 105.62H199.283V104.256C199.283 103.737 199.335 103.321 199.374 103.048H197.516C197.555 103.308 197.594 103.737 197.594 104.256V105.62H194.515V104.347C194.515 103.828 194.567 103.412 194.593 103.165H192.748C192.787 103.568 192.826 103.957 192.826 104.334V105.62H191.722C191.072 105.62 190.552 105.543 190.318 105.504V107.271C190.604 107.258 191.072 107.219 191.722 107.219H192.826V108.986C192.826 109.57 192.787 110.09 192.748 110.35H194.567C194.554 110.09 194.515 109.57 194.515 108.986V107.219H197.594V107.712C197.594 110.908 196.49 112.026 193.982 112.909L195.373 114.221C198.517 112.831 199.283 110.869 199.283 107.647ZM203.974 107.18V109.219C204.454 109.18 205.325 109.154 206.065 109.154H213.042C213.588 109.154 214.251 109.206 214.562 109.219V107.18C214.225 107.206 213.653 107.258 213.042 107.258H206.065C205.39 107.258 204.441 107.219 203.974 107.18ZM224.385 108.258C224.385 111.038 225.541 113.117 226.944 114.494L228.178 113.949C226.879 112.545 225.853 110.753 225.853 108.258C225.853 105.763 226.879 103.97 228.178 102.567L226.944 102.022C225.541 103.399 224.385 105.478 224.385 108.258ZM238.624 102.242L237.559 102.684C237.806 103.061 238.066 103.516 238.286 103.944C238.053 103.97 237.832 103.97 237.676 103.97H231.66C231.232 103.97 230.491 103.918 230.114 103.867V105.698C230.452 105.672 231.063 105.646 231.66 105.646H237.702C237.533 106.764 237.039 108.232 236.182 109.31C235.129 110.636 233.661 111.766 231.089 112.364L232.505 113.923C234.831 113.169 236.559 111.883 237.728 110.324C238.819 108.882 239.378 106.868 239.69 105.595C239.755 105.322 239.846 104.945 239.976 104.698L239.144 104.152L239.625 103.957C239.391 103.49 238.962 102.736 238.624 102.242ZM240.443 101.918L239.365 102.346C239.716 102.827 240.118 103.568 240.404 104.1L241.483 103.633C241.236 103.178 240.768 102.385 240.443 101.918ZM244.653 103.23V104.906C245.03 104.88 245.588 104.867 246.004 104.867H250.98C251.448 104.867 252.058 104.88 252.409 104.906V103.23C252.045 103.282 251.409 103.295 251.006 103.295H246.004C245.562 103.295 245.017 103.282 244.653 103.23ZM253.501 106.998L252.344 106.283C252.162 106.361 251.812 106.413 251.396 106.413H244.965C244.562 106.413 244.003 106.374 243.457 106.335V108.024C244.003 107.972 244.653 107.959 244.965 107.959H251.24C251.006 108.687 250.603 109.492 249.902 110.207C248.914 111.22 247.355 112.078 245.406 112.48L246.693 113.949C248.356 113.481 250.019 112.597 251.331 111.142C252.305 110.064 252.864 108.804 253.254 107.543C253.306 107.4 253.41 107.167 253.501 106.998ZM262.18 102.58H260.179C260.27 103.139 260.283 103.412 260.283 103.776V104.776H257.502C257.009 104.776 256.619 104.763 256.177 104.711C256.229 105.023 256.242 105.543 256.242 105.828V108.076C256.242 108.427 256.216 108.843 256.177 109.167H257.97C257.944 108.908 257.931 108.505 257.931 108.206V106.309H264.375C264.219 107.465 263.882 108.7 263.219 109.648C262.491 110.701 261.348 111.467 260.27 111.87C259.737 112.078 259.022 112.273 258.438 112.377L259.789 113.936C262.102 113.338 264.05 111.961 265.09 110.038C265.726 108.856 266.077 107.608 266.298 106.361C266.35 106.101 266.454 105.607 266.558 105.322L265.428 104.633C265.207 104.711 264.895 104.776 264.349 104.776H262.089V103.776C262.089 103.412 262.115 103.139 262.18 102.58ZM278.355 103.087L277.485 103.373C277.731 103.893 277.965 104.607 278.147 105.153L279.044 104.867C278.901 104.36 278.602 103.607 278.355 103.087ZM279.693 102.671L278.81 102.957C279.083 103.464 279.33 104.165 279.511 104.724L280.408 104.438C280.239 103.944 279.94 103.191 279.693 102.671ZM277.238 107.647V107.219H278.212C278.888 107.219 279.343 107.232 279.628 107.258V105.53C279.278 105.595 278.888 105.62 278.199 105.62H277.238V104.256C277.238 103.737 277.29 103.321 277.329 103.048H275.471C275.51 103.308 275.549 103.737 275.549 104.256V105.62H272.47V104.347C272.47 103.828 272.522 103.412 272.548 103.165H270.703C270.742 103.568 270.781 103.957 270.781 104.334V105.62H269.676C269.027 105.62 268.507 105.543 268.273 105.504V107.271C268.559 107.258 269.027 107.219 269.676 107.219H270.781V108.986C270.781 109.57 270.742 110.09 270.703 110.35H272.522C272.509 110.09 272.47 109.57 272.47 108.986V107.219H275.549V107.712C275.549 110.908 274.444 112.026 271.937 112.909L273.327 114.221C276.471 112.831 277.238 110.869 277.238 107.647ZM285.111 108.258C285.111 105.478 283.955 103.399 282.552 102.022L281.317 102.567C282.617 103.97 283.643 105.763 283.643 108.258C283.643 110.753 282.617 112.545 281.317 113.949L282.552 114.494C283.955 113.117 285.111 111.038 285.111 108.258Z" fill="#EDEDED"/>
<path d="M210.988 431.74C210.145 431.74 209.321 431.983 208.62 432.438C207.919 432.893 207.372 433.54 207.049 434.297C206.727 435.054 206.642 435.886 206.807 436.69C206.971 437.493 207.377 438.231 207.974 438.81C208.57 439.39 209.329 439.784 210.156 439.944C210.983 440.104 211.841 440.022 212.62 439.708C213.399 439.395 214.064 438.864 214.533 438.183C215.001 437.502 215.251 436.701 215.251 435.882C215.251 434.783 214.802 433.73 214.003 432.953C213.203 432.176 212.119 431.74 210.988 431.74ZM228.041 371.686C210.988 371.686 193.936 377.36 193.936 388.252V437.953C193.936 448.845 210.988 454.519 228.041 454.519C245.093 454.519 262.146 448.845 262.146 437.953V388.252C262.146 377.36 245.093 371.686 228.041 371.686ZM253.619 437.953C253.619 440.893 243.9 446.236 228.041 446.236C212.182 446.236 202.462 440.893 202.462 437.953V424.409C210.443 428.095 219.207 429.898 228.041 429.669C236.874 429.898 245.639 428.095 253.619 424.409V437.953ZM253.619 413.103C253.619 416.043 243.9 421.386 228.041 421.386C212.182 421.386 202.462 416.043 202.462 413.103V399.559C210.443 403.245 219.207 405.047 228.041 404.819C236.874 405.047 245.639 403.245 253.619 399.559V413.103ZM228.041 396.536C212.182 396.536 202.462 391.193 202.462 388.252C202.462 385.312 212.182 379.969 228.041 379.969C243.9 379.969 253.619 385.312 253.619 388.252C253.619 391.193 243.9 396.536 228.041 396.536ZM210.988 406.89C210.145 406.89 209.321 407.133 208.62 407.588C207.919 408.043 207.372 408.69 207.049 409.447C206.727 410.204 206.642 411.036 206.807 411.84C206.971 412.643 207.377 413.381 207.974 413.96C208.57 414.54 209.329 414.934 210.156 415.094C210.983 415.254 211.841 415.172 212.62 414.858C213.399 414.545 214.064 414.014 214.533 413.333C215.001 412.652 215.251 411.851 215.251 411.032C215.251 409.933 214.802 408.88 214.003 408.103C213.203 407.326 212.119 406.89 210.988 406.89Z" fill="#121212"/>
<rect x="172.498" y="463.282" width="112.496" height="21" rx="1.29924" fill="#121212"/>
<path d="M178.189 468.473V470.149C178.578 470.123 179.137 470.11 179.579 470.11H183.827C184.282 470.11 184.789 470.123 185.231 470.149V468.473C184.789 468.538 184.269 468.577 183.827 468.577H179.579C179.137 468.577 178.604 468.538 178.189 468.473ZM176.682 471.799V473.501C177.045 473.475 177.552 473.449 177.929 473.449H181.502C181.45 474.54 181.229 475.515 180.696 476.32C180.177 477.087 179.267 477.827 178.345 478.178L179.865 479.283C181.021 478.698 182.021 477.698 182.476 476.788C182.944 475.879 183.23 474.787 183.308 473.449H186.439C186.803 473.449 187.296 473.462 187.621 473.488V471.799C187.283 471.851 186.712 471.877 186.439 471.877H177.929C177.526 471.877 177.071 471.851 176.682 471.799ZM186.01 467.576L184.971 468.005C185.322 468.499 185.724 469.278 185.997 469.811L187.037 469.356C186.79 468.876 186.335 468.057 186.01 467.576ZM187.543 466.992L186.517 467.421C186.868 467.914 187.283 468.668 187.556 469.213L188.596 468.759C188.362 468.304 187.881 467.485 187.543 466.992ZM189.934 472.267V474.307C190.415 474.268 191.285 474.242 192.026 474.242H199.003C199.548 474.242 200.211 474.294 200.523 474.307V472.267C200.185 472.293 199.613 472.345 199.003 472.345H192.026C191.35 472.345 190.402 472.306 189.934 472.267ZM209.124 467.992L207.24 467.408C207.123 467.849 206.85 468.447 206.642 468.759C205.992 469.889 204.784 471.669 202.51 473.085L203.914 474.164C205.226 473.254 206.434 472.007 207.344 470.799H211.06C210.865 471.604 210.306 472.734 209.63 473.67C208.812 473.124 207.993 472.592 207.305 472.202L206.148 473.384C206.811 473.8 207.668 474.384 208.513 475.008C207.435 476.086 205.992 477.139 203.745 477.827L205.252 479.14C207.279 478.373 208.76 477.269 209.903 476.06C210.436 476.489 210.917 476.892 211.267 477.217L212.502 475.749C212.125 475.437 211.618 475.06 211.06 474.657C211.982 473.358 212.632 471.968 212.982 470.915C213.099 470.591 213.268 470.24 213.411 469.993L212.086 469.175C211.8 469.265 211.358 469.317 210.956 469.317H208.318C208.474 469.032 208.799 468.447 209.124 467.992ZM223.935 469.278L222.805 469.746C223.285 470.409 223.61 471.045 223.987 471.864L225.156 471.357C224.87 470.76 224.299 469.811 223.935 469.278ZM225.676 468.564L224.559 469.071C225.039 469.72 225.39 470.318 225.806 471.136L226.936 470.591C226.637 470.006 226.053 469.084 225.676 468.564ZM215.178 474.579L216.737 476.19C216.971 475.853 217.283 475.398 217.582 474.982C218.101 474.281 219.024 472.994 219.531 472.345C219.907 471.877 220.18 471.851 220.596 472.267C221.064 472.747 222.22 474.008 222.974 474.904C223.74 475.801 224.844 477.139 225.715 478.217L227.144 476.684C226.144 475.619 224.818 474.177 223.948 473.254C223.168 472.41 222.168 471.37 221.298 470.552C220.284 469.603 219.518 469.746 218.751 470.656C217.855 471.721 216.841 472.994 216.256 473.592C215.854 473.982 215.568 474.268 215.178 474.579ZM228.911 472.267V474.307C229.392 474.268 230.262 474.242 231.003 474.242H237.98C238.525 474.242 239.188 474.294 239.5 474.307V472.267C239.162 472.293 238.59 472.345 237.98 472.345H231.003C230.327 472.345 229.379 472.306 228.911 472.267ZM250.897 469.473L249.831 468.681C249.572 468.772 249.052 468.85 248.493 468.85H243.907C243.517 468.85 242.725 468.811 242.374 468.759V470.604C242.647 470.591 243.361 470.513 243.907 470.513H248.311C248.025 471.435 247.233 472.721 246.375 473.696C245.154 475.06 243.14 476.645 241.049 477.425L242.387 478.828C244.167 477.983 245.895 476.632 247.272 475.177C248.493 476.359 249.702 477.685 250.546 478.854L252.027 477.568C251.261 476.632 249.689 474.969 248.402 473.852C249.273 472.682 250 471.292 250.442 470.279C250.559 470.019 250.793 469.616 250.897 469.473ZM255.951 480.621C255.397 479.954 254.933 479.131 254.561 478.152C254.188 477.165 254.002 476.017 254.002 474.709C254.002 473.401 254.188 472.254 254.561 471.266C254.933 470.279 255.397 469.456 255.951 468.798H257.939C257.35 469.456 256.856 470.279 256.458 471.266C256.059 472.254 255.86 473.401 255.86 474.709C255.86 476.017 256.059 477.165 256.458 478.152C256.856 479.131 257.35 479.954 257.939 480.621H255.951ZM258.848 478.282V469.187H261.914C262.884 469.187 263.724 469.382 264.435 469.772C265.145 470.162 265.695 470.699 266.085 471.383C266.483 472.067 266.682 472.851 266.682 473.735C266.682 474.618 266.483 475.402 266.085 476.086C265.695 476.771 265.145 477.308 264.435 477.698C263.724 478.087 262.884 478.282 261.914 478.282H258.848ZM260.706 476.645H261.914C262.477 476.645 262.975 476.528 263.408 476.294C263.85 476.06 264.196 475.727 264.448 475.294C264.699 474.852 264.824 474.332 264.824 473.735C264.824 473.129 264.699 472.609 264.448 472.176C264.196 471.743 263.85 471.409 263.408 471.175C262.975 470.941 262.477 470.825 261.914 470.825H260.706V476.645ZM267.983 478.282V469.187H273.089C273.522 469.187 273.912 469.287 274.259 469.486C274.614 469.677 274.895 469.945 275.103 470.292C275.32 470.638 275.428 471.05 275.428 471.526C275.428 471.829 275.367 472.119 275.246 472.397C275.125 472.665 274.96 472.899 274.752 473.098C274.544 473.297 274.302 473.453 274.025 473.566C274.345 473.67 274.627 473.839 274.869 474.073C275.12 474.298 275.315 474.566 275.454 474.878C275.601 475.181 275.675 475.51 275.675 475.866C275.675 476.351 275.562 476.775 275.337 477.139C275.12 477.503 274.83 477.784 274.466 477.983C274.103 478.183 273.696 478.282 273.245 478.282H267.983ZM269.841 476.645H272.712C272.92 476.645 273.107 476.598 273.271 476.502C273.436 476.398 273.566 476.264 273.661 476.099C273.765 475.926 273.817 475.74 273.817 475.541C273.817 475.333 273.765 475.147 273.661 474.982C273.566 474.818 273.436 474.688 273.271 474.592C273.107 474.488 272.92 474.436 272.712 474.436H269.841V476.645ZM269.841 472.877H272.544C272.734 472.877 272.907 472.834 273.063 472.747C273.219 472.652 273.34 472.527 273.427 472.371C273.522 472.215 273.57 472.042 273.57 471.851C273.57 471.66 273.522 471.487 273.427 471.331C273.34 471.175 273.219 471.054 273.063 470.967C272.907 470.872 272.734 470.825 272.544 470.825H269.841V472.877ZM276.196 480.621C276.785 479.954 277.279 479.131 277.677 478.152C278.076 477.165 278.275 476.017 278.275 474.709C278.275 473.401 278.076 472.254 277.677 471.266C277.279 470.279 276.785 469.456 276.196 468.798H278.184C278.738 469.456 279.202 470.279 279.574 471.266C279.947 472.254 280.133 473.401 280.133 474.709C280.133 476.017 279.947 477.165 279.574 478.152C279.202 479.131 278.738 479.954 278.184 480.621H276.196Z" fill="#EDEDED"/>
<rect width="42.875" height="67.197" transform="translate(9.44531 162.508)" fill="#F39423"/>
<path d="M26.4077 210.106V204.298H18.8851C17.8977 204.298 16.9882 204.065 16.1567 203.597C15.3252 203.129 14.6626 202.505 14.1689 201.726C13.6752 200.946 13.4283 200.089 13.4283 199.153C13.4283 198.634 13.4933 198.114 13.6232 197.594C13.7531 197.075 13.922 196.607 14.1299 196.191L21.2238 182.822H27.4991L19.197 198.179C19.119 198.335 19.067 198.452 19.041 198.53C19.0151 198.608 19.0021 198.712 19.0021 198.842C19.0021 198.998 19.054 199.127 19.158 199.231C19.2619 199.335 19.4048 199.387 19.5867 199.387H26.4077V190.189H31.9815V199.387H35.4895V204.298H31.9815V210.106H26.4077ZM42.2142 210.574C41.2268 210.574 40.3693 210.223 39.6417 209.521C38.9402 208.794 38.5894 207.936 38.5894 206.949C38.5894 205.961 38.9402 205.117 39.6417 204.415C40.3693 203.688 41.2268 203.324 42.2142 203.324C43.2017 203.324 44.0462 203.688 44.7478 204.415C45.4753 205.117 45.8391 205.961 45.8391 206.949C45.8391 207.599 45.6702 208.209 45.3324 208.781C45.0206 209.327 44.5919 209.768 44.0462 210.106C43.5005 210.418 42.8899 210.574 42.2142 210.574Z" fill="#EDEDED"/>
<path d="M65.791 175.458V175.051H66.7044C67.3586 175.051 67.7906 175.063 68.0621 175.088V173.446C67.7289 173.508 67.3586 173.533 66.7044 173.533H65.791V172.237C65.791 171.743 65.8404 171.336 65.8774 171.089H64.1124C64.1494 171.336 64.1865 171.743 64.1865 172.237V173.533H61.2612V172.311C61.2612 171.829 61.2983 171.434 61.3353 171.2H59.5826C59.6196 171.57 59.6567 171.953 59.6567 172.311V173.533H58.6075C57.9904 173.533 57.4843 173.459 57.2745 173.421V175.1C57.546 175.075 57.9904 175.051 58.6075 175.051H59.6567V176.729C59.6567 177.285 59.6196 177.779 59.5826 178.025H61.3106C61.2983 177.779 61.2612 177.272 61.2612 176.729V175.051H64.1865V175.52C64.1865 178.556 63.1373 179.618 60.7552 180.445L62.0759 181.691C65.0505 180.383 65.791 178.519 65.791 175.458Z" fill="#F39423"/>
<path d="M70.037 175.199V177.137C70.4936 177.1 71.3206 177.075 72.0241 177.075H78.6522C79.1706 177.075 79.8001 177.124 80.0963 177.137V175.199C79.7754 175.224 79.2323 175.273 78.6522 175.273H72.0241C71.3823 175.273 70.4813 175.236 70.037 175.199Z" fill="#F39423"/>
<path d="M90.7511 171.064L89.776 171.471C90.1092 171.94 90.4795 172.681 90.7387 173.187L91.7262 172.755C91.4916 172.298 91.0596 171.521 90.7511 171.064ZM92.2075 170.509L91.2324 170.916C91.5657 171.373 91.973 172.101 92.2199 172.607L93.2073 172.187C92.9851 171.755 92.5284 170.978 92.2075 170.509ZM83.4935 177.075C83.0738 178.161 82.3456 179.494 81.568 180.506L83.296 181.234C83.9502 180.309 84.6784 178.902 85.1228 177.704C85.5548 176.557 85.9991 174.853 86.1719 173.989C86.2213 173.718 86.357 173.113 86.4681 172.755L84.6661 172.385C84.518 173.952 84.0489 175.693 83.4935 177.075ZM89.5908 176.816C90.0846 178.149 90.5289 179.704 90.8745 181.173L92.7012 180.58C92.3556 179.358 91.7015 177.384 91.2695 176.273C90.8004 175.075 89.9488 173.175 89.4427 172.224L87.8011 172.755C88.3195 173.693 89.1218 175.52 89.5908 176.816Z" fill="#F39423"/>
<path d="M94.602 175.199V177.137C95.0587 177.1 95.8857 177.075 96.5892 177.075H103.217C103.736 177.075 104.365 177.124 104.661 177.137V175.199C104.34 175.224 103.797 175.273 103.217 175.273H96.5892C95.9474 175.273 95.0464 175.236 94.602 175.199Z" fill="#F39423"/>
<path d="M111.425 171.249L109.586 171.064C109.611 171.842 109.5 172.743 109.327 173.668C108.698 173.73 108.117 173.767 107.735 173.779C107.278 173.792 106.871 173.816 106.414 173.779L106.562 175.458C106.945 175.396 107.587 175.31 107.945 175.248C108.167 175.224 108.562 175.174 109.006 175.125C108.549 176.816 107.698 179.309 106.5 180.926L108.105 181.568C109.241 179.753 110.154 176.828 110.623 174.952C110.981 174.927 111.289 174.903 111.487 174.903C112.252 174.903 112.684 175.038 112.684 176.026C112.684 177.248 112.511 178.741 112.178 179.445C111.981 179.852 111.672 179.976 111.252 179.976C110.932 179.976 110.216 179.852 109.747 179.716L110.006 181.346C110.425 181.432 111.018 181.518 111.487 181.518C112.425 181.518 113.104 181.247 113.511 180.383C114.042 179.309 114.215 177.309 114.215 175.853C114.215 174.076 113.289 173.496 111.981 173.496C111.721 173.496 111.364 173.52 110.944 173.545C111.03 173.101 111.129 172.644 111.203 172.274C111.265 171.965 111.351 171.57 111.425 171.249ZM116.918 170.225L115.93 170.62C116.276 171.089 116.671 171.817 116.93 172.323L117.905 171.903C117.695 171.471 117.239 170.694 116.918 170.225ZM115.449 170.78L114.474 171.187C114.758 171.582 115.066 172.175 115.313 172.644L114.202 173.125C115.079 174.211 115.955 176.384 116.276 177.754L117.844 177.038C117.498 175.939 116.572 173.878 115.832 172.73L116.436 172.471C116.202 172.014 115.758 171.237 115.449 170.78Z" fill="#F39423"/>
<path d="M61.4217 197.186C61.2242 196.84 60.3108 195.421 59.9652 194.94V194.36H61.1995V193.002H59.9652V190.459H58.6322V193.002H57.1511V194.36H58.5211C58.2126 195.816 57.5584 197.532 56.8672 198.494C57.077 198.828 57.3732 199.383 57.509 199.79C57.9287 199.173 58.3113 198.309 58.6322 197.359V201.975H59.9652V196.717C60.2368 197.272 60.5083 197.853 60.6688 198.235L61.4217 197.186ZM65.4578 198.976V198.383H66.5563V198.976H65.4578ZM63.088 198.383H64.1371V198.976H63.088V198.383ZM64.1371 196.902V197.433H63.088V196.902H64.1371ZM66.5563 196.902V197.433H65.4578V196.902H66.5563ZM64.1248 193.866H65.4825V194.384H64.1248V193.866ZM64.1248 192.372H65.4825V192.878H64.1248V192.372ZM68.5805 198.976H67.914V195.89H65.4578V195.421H68.4571V194.384H66.8525V193.866H68.0374V192.878H66.8525V192.372H68.2349V191.36H66.8525V190.459H65.4825V191.36H64.1248V190.459H62.767V191.36H61.4957V192.372H62.767V192.878H61.7549V193.866H62.767V194.384H61.2365V195.421H64.1371V195.89H61.7673V198.976H61.0144V200.05H61.7673V201.889H63.088V200.05H66.5563V200.568C66.5563 200.716 66.5069 200.753 66.3465 200.753C66.1983 200.753 65.6923 200.765 65.2356 200.741C65.3961 201.074 65.5565 201.555 65.6182 201.901C66.3958 201.901 66.9759 201.889 67.3833 201.704C67.7906 201.506 67.914 201.197 67.914 200.58V200.05H68.5805V198.976Z" fill="#F39423"/>
<path d="M71.6168 192.471C71.839 192.854 72.0612 193.286 72.1476 193.594L73.3325 193.249C73.2584 193.039 73.1103 192.755 72.9499 192.471H74.6779C74.5174 192.619 74.3569 192.755 74.1965 192.878C74.5421 193.027 75.1839 193.36 75.4801 193.582C75.8134 193.286 76.1466 192.903 76.4552 192.471H77.1341C77.418 192.841 77.6895 193.286 77.8129 193.582L79.0595 193.224C78.9608 193.014 78.788 192.743 78.5905 192.471H80.7505V191.323H77.1711C77.2822 191.113 77.3809 190.904 77.4673 190.694L76.0726 190.36C75.8134 191.039 75.3937 191.706 74.9 192.237V191.323H72.1476C72.2587 191.126 72.3574 190.928 72.4438 190.731L71.0738 190.36C70.7035 191.274 70.0123 192.187 69.2717 192.78C69.605 192.952 70.1851 193.347 70.4566 193.582C70.7775 193.286 71.1108 192.903 71.4194 192.471H71.6168ZM77.9117 194.619V195.865C77.5784 195.544 77.097 195.187 76.7021 194.903L76.0849 195.433C76.0973 195.261 76.1096 195.1 76.1096 194.927V194.619H77.9117ZM80.6641 199.112V197.964H75.7764V197.223H75.0728C75.6159 196.803 75.8998 196.285 76.0232 195.754C76.4799 196.125 76.9736 196.581 77.2205 196.902L77.924 196.273C77.9487 196.742 78.0351 196.939 78.1955 197.112C78.4054 197.322 78.7386 197.408 79.0472 197.408H79.652C79.8618 197.408 80.1334 197.371 80.3062 197.285C80.4913 197.186 80.6271 197.026 80.7135 196.803C80.7875 196.606 80.8369 196.1 80.8739 195.631C80.5777 195.52 80.1457 195.322 79.9235 195.125C79.9112 195.52 79.8989 195.841 79.8742 195.976C79.8495 196.125 79.8125 196.199 79.7754 196.223C79.7384 196.26 79.689 196.26 79.6273 196.26H79.4298C79.3805 196.26 79.3434 196.248 79.3187 196.199C79.2817 196.162 79.2941 196.038 79.2941 195.828V193.656H74.7766V194.89C74.7766 195.335 74.6902 195.779 74.2582 196.174L74.2212 195.569L72.6907 195.791V194.73H74.2335V193.718H69.8024V194.73H71.3576V195.976C70.6664 196.075 70.037 196.162 69.5186 196.223L69.679 197.384C70.6788 197.223 71.9377 197.038 73.2214 196.84C73.5053 197.05 73.962 197.507 74.1224 197.754C74.2088 197.717 74.2829 197.692 74.3569 197.655V197.964H69.5062V199.112H73.2831C72.2463 199.753 70.7158 200.259 69.2717 200.494C69.5679 200.79 69.9629 201.346 70.1727 201.691C71.6786 201.333 73.2337 200.63 74.3569 199.729V201.95H75.7764V199.753C76.9119 200.654 78.4547 201.333 79.9482 201.654C80.1581 201.296 80.5777 200.716 80.8863 200.408C79.3928 200.198 77.8129 199.729 76.7514 199.112H80.6641Z" fill="#F39423"/>
<path d="M85.8234 191.126L83.8362 191.101C83.9473 191.595 83.9967 192.187 83.9967 192.767C83.9967 193.829 83.8732 197.075 83.8732 198.729C83.8732 200.84 85.1816 201.728 87.2058 201.728C90.02 201.728 91.7726 200.074 92.5626 198.889L91.4394 197.532C90.5507 198.877 89.2547 200.05 87.2181 200.05C86.2554 200.05 85.5148 199.642 85.5148 198.396C85.5148 196.865 85.6136 194.1 85.6629 192.767C85.6876 192.274 85.7493 191.644 85.8234 191.126Z" fill="#F39423"/>
<path d="M100.832 197.902L99.3635 197.754C99.2647 198.248 99.1413 198.84 99.1413 199.408C99.1413 200.654 100.264 201.37 102.338 201.37C103.325 201.37 104.165 201.284 104.856 201.197L104.918 199.618C104.029 199.778 103.177 199.877 102.35 199.877C101.03 199.877 100.659 199.469 100.659 198.926C100.659 198.655 100.734 198.248 100.832 197.902ZM99.4375 191.064L97.5491 190.916C97.5861 191.2 97.5614 191.706 97.512 192.163C97.4873 192.36 97.4503 192.595 97.4009 192.866C97.0183 192.891 96.648 192.903 96.2901 192.903C95.784 192.903 95.3644 192.878 94.7349 192.804L94.7719 194.347C95.2039 194.372 95.673 194.397 96.2654 194.397C96.5246 194.397 96.7961 194.384 97.08 194.372C97.006 194.73 96.9072 195.075 96.8208 195.409C96.3642 197.137 95.4261 199.729 94.6855 200.963L96.4012 201.543C97.0924 200.074 97.9193 197.556 98.3637 195.828C98.4995 195.322 98.6229 194.779 98.734 194.248C99.5609 194.15 100.4 194.014 101.141 193.841V192.298C100.462 192.459 99.7708 192.595 99.0796 192.693C99.1166 192.52 99.1536 192.36 99.1783 192.224C99.2277 191.953 99.3388 191.397 99.4375 191.064ZM100.166 194.792V196.236C100.943 196.149 101.709 196.112 102.548 196.112C103.301 196.112 104.054 196.186 104.671 196.26L104.708 194.779C103.98 194.705 103.239 194.668 102.536 194.668C101.746 194.668 100.857 194.73 100.166 194.792Z" fill="#F39423"/>
<path d="M114.854 193.36C114.854 192.928 115.199 192.57 115.631 192.57C116.063 192.57 116.421 192.928 116.421 193.36C116.421 193.792 116.063 194.137 115.631 194.137C115.199 194.137 114.854 193.792 114.854 193.36ZM114.039 193.36C114.039 194.248 114.743 194.952 115.631 194.952C116.52 194.952 117.236 194.248 117.236 193.36C117.236 192.471 116.52 191.755 115.631 191.755C114.743 191.755 114.039 192.471 114.039 193.36ZM106.362 197.396L107.843 198.926C108.065 198.605 108.361 198.173 108.645 197.779C109.139 197.112 110.015 195.89 110.497 195.273C110.855 194.829 111.114 194.804 111.509 195.199C111.953 195.656 113.052 196.853 113.768 197.704C114.496 198.556 115.545 199.827 116.372 200.852L117.73 199.395C116.779 198.383 115.52 197.013 114.693 196.137C113.953 195.335 113.002 194.347 112.175 193.57C111.213 192.669 110.484 192.804 109.756 193.668C108.904 194.68 107.942 195.89 107.386 196.458C107.004 196.828 106.732 197.1 106.362 197.396Z" fill="#F39423"/>
<path d="M119.408 195.199V197.137C119.865 197.1 120.692 197.075 121.395 197.075H128.023C128.542 197.075 129.171 197.124 129.468 197.137V195.199C129.147 195.224 128.604 195.273 128.023 195.273H121.395C120.754 195.273 119.853 195.236 119.408 195.199Z" fill="#F39423"/>
<path d="M139.385 191.434L138.348 191.866C138.792 192.496 139.076 193.027 139.434 193.804L140.508 193.347C140.224 192.78 139.73 191.953 139.385 191.434ZM141.076 190.842L140.026 191.274C140.483 191.891 140.792 192.372 141.187 193.15L142.236 192.681C141.94 192.138 141.458 191.336 141.076 190.842ZM134.015 191.2L133.127 192.558C133.941 193.014 135.225 193.841 135.916 194.323L136.83 192.965C136.188 192.508 134.83 191.644 134.015 191.2ZM131.732 199.963L132.658 201.58C133.744 201.383 135.521 200.765 136.78 200.062C138.792 198.889 140.545 197.334 141.68 195.619L140.73 193.94C139.755 195.705 138.027 197.396 135.929 198.568C134.596 199.309 133.114 199.729 131.732 199.963ZM132.115 194.014L131.226 195.372C132.053 195.816 133.337 196.643 134.04 197.137L134.941 195.754C134.312 195.31 132.954 194.458 132.115 194.014Z" fill="#F39423"/>
<path d="M148.716 191.015L147.087 190.879C147.062 191.323 146.975 191.805 146.84 192.298C146.642 192.298 146.432 192.298 146.247 192.298C145.618 192.298 144.704 192.249 144.075 192.15V193.594C144.754 193.644 145.655 193.668 146.161 193.668C146.21 193.668 146.26 193.668 146.321 193.668C145.766 194.779 144.89 195.878 143.594 197.075L144.914 198.062C145.334 197.519 145.692 197.075 146.062 196.705C146.531 196.248 147.296 195.853 147.988 195.853C148.333 195.853 148.666 195.964 148.852 196.273C147.444 197.001 145.963 197.988 145.963 199.568C145.963 201.16 147.395 201.629 149.333 201.629C150.493 201.629 152.011 201.531 152.826 201.42L152.875 199.827C151.789 200.037 150.419 200.173 149.37 200.173C148.16 200.173 147.58 199.988 147.58 199.309C147.58 198.692 148.074 198.211 149 197.68C148.987 198.223 148.975 198.815 148.938 199.186H150.419C150.407 198.618 150.382 197.704 150.37 197.013C151.123 196.668 151.826 196.396 152.382 196.174C152.801 196.013 153.455 195.767 153.85 195.656L153.233 194.224C152.777 194.458 152.345 194.656 151.863 194.866C151.357 195.088 150.839 195.298 150.197 195.594C149.925 194.964 149.308 194.643 148.555 194.643C148.148 194.643 147.481 194.742 147.161 194.89C147.407 194.532 147.654 194.088 147.864 193.631C149.197 193.594 150.715 193.496 151.888 193.323L151.9 191.891C150.814 192.076 149.58 192.187 148.407 192.249C148.568 191.731 148.654 191.323 148.716 191.015Z" fill="#F39423"/>
<path d="M66.5069 212.903L65.2233 212.261C65.0134 212.348 64.3963 212.422 64.0754 212.422H60.1751C59.7554 212.422 59.1876 212.372 58.7927 212.323V214.063C59.237 214.026 59.6937 214.014 60.1874 214.014H64.4457C64.421 214.816 63.989 217.433 63.7545 218.778H58.6569C58.2743 218.778 57.8299 218.741 57.435 218.68V220.469C57.8546 220.432 58.2866 220.408 58.6569 220.408H66.8895C67.1734 220.408 67.6918 220.42 68.0374 220.469V218.68C67.7165 218.717 67.3215 218.778 66.8895 218.778H65.5565C65.791 217.396 66.2354 214.582 66.3835 213.459C66.3958 213.36 66.4575 213.076 66.5069 212.903Z" fill="#F39423"/>
<path d="M70.037 215.199V217.137C70.4936 217.1 71.3206 217.075 72.0241 217.075H78.6522C79.1706 217.075 79.8001 217.124 80.0963 217.137V215.199C79.7754 215.224 79.2323 215.273 78.6522 215.273H72.0241C71.3823 215.273 70.4813 215.236 70.037 215.199Z" fill="#F39423"/>
<path d="M91.0872 211.311L90.2603 211.582C90.4948 212.076 90.7169 212.755 90.8897 213.273L91.7414 213.002C91.6056 212.52 91.3217 211.805 91.0872 211.311ZM92.3585 210.916L91.5192 211.187C91.7784 211.669 92.0129 212.335 92.1857 212.866L93.0374 212.595C92.8769 212.126 92.593 211.41 92.3585 210.916ZM90.0257 215.643V215.236H90.9515C91.5933 215.236 92.0253 215.248 92.2968 215.273V213.631C91.9636 213.693 91.5933 213.718 90.9391 213.718H90.0257V212.422C90.0257 211.928 90.0751 211.533 90.1121 211.274H88.3471C88.3841 211.521 88.4212 211.928 88.4212 212.422V213.718H85.4959V212.508C85.4959 212.014 85.5453 211.619 85.57 211.385H83.8173C83.8543 211.768 83.8914 212.138 83.8914 212.496V213.718H82.8422C82.2251 213.718 81.7314 213.644 81.5092 213.607V215.285C81.7807 215.273 82.2251 215.236 82.8422 215.236H83.8914V216.915C83.8914 217.47 83.8543 217.964 83.8173 218.211H85.5453C85.533 217.964 85.4959 217.47 85.4959 216.915V215.236H88.4212V215.705C88.4212 218.741 87.372 219.803 84.9899 220.642L86.3106 221.889C89.2975 220.568 90.0257 218.704 90.0257 215.643Z" fill="#F39423"/>
<path d="M94.4815 215.199V217.137C94.9382 217.1 95.7651 217.075 96.4687 217.075H103.097C103.615 217.075 104.245 217.124 104.541 217.137V215.199C104.22 215.224 103.677 215.273 103.097 215.273H96.4687C95.8269 215.273 94.9258 215.236 94.4815 215.199Z" fill="#F39423"/>
<path d="M111.218 212.286V213.866C112.774 214.014 115.008 214.002 116.526 213.866V212.274C115.193 212.434 112.736 212.496 111.218 212.286ZM112.206 217.556L110.786 217.421C110.651 218.05 110.577 218.544 110.577 219.025C110.577 220.296 111.601 221.049 113.724 221.049C115.119 221.049 116.106 220.963 116.908 220.815L116.884 219.149C115.798 219.371 114.884 219.469 113.786 219.469C112.527 219.469 112.058 219.136 112.058 218.593C112.058 218.26 112.107 217.964 112.206 217.556ZM109.318 211.459L107.59 211.311C107.577 211.706 107.503 212.175 107.466 212.52C107.33 213.471 106.948 215.557 106.948 217.408C106.948 219.087 107.182 220.593 107.429 221.444L108.861 221.346C108.849 221.173 108.836 220.975 108.836 220.84C108.836 220.716 108.861 220.445 108.898 220.259C109.034 219.605 109.441 218.26 109.787 217.235L109.021 216.631C108.849 217.038 108.651 217.47 108.466 217.89C108.429 217.643 108.417 217.322 108.417 217.087C108.417 215.853 108.849 213.384 109.009 212.558C109.058 212.335 109.219 211.718 109.318 211.459Z" fill="#F39423"/>
<path d="M127.437 214.767C127.19 215.433 126.869 216.038 126.462 216.569C126.03 216.038 125.684 215.433 125.425 214.767H127.437ZM128.288 213.421L128.017 213.459H124.117V212.311H129.498V210.941H122.709V213.804C122.709 215.359 122.598 217.507 121.438 218.976C121.784 219.112 122.413 219.519 122.672 219.766C123.672 218.457 123.993 216.557 124.092 214.952C124.437 215.964 124.894 216.84 125.474 217.593C124.857 218.112 124.129 218.519 123.339 218.778C123.623 219.062 123.993 219.642 124.166 220.013C125.03 219.667 125.808 219.223 126.486 218.655C127.202 219.26 128.042 219.729 129.054 220.05C129.251 219.655 129.671 219.062 129.992 218.778C129.017 218.519 128.202 218.124 127.511 217.593C128.301 216.594 128.893 215.31 129.226 213.718L128.288 213.421ZM121.722 212.632C121.315 212.051 120.426 211.274 119.71 210.743L118.612 211.619C119.328 212.175 120.192 213.014 120.549 213.594L121.722 212.632ZM121.401 215.248H118.612V216.594H119.969V219.198C119.439 219.618 118.834 220.037 118.34 220.333L119.056 221.864C119.71 221.346 120.241 220.864 120.772 220.383C121.574 221.346 122.598 221.691 124.129 221.753C125.61 221.815 128.091 221.79 129.584 221.716C129.646 221.296 129.868 220.58 130.041 220.235C128.4 220.358 125.598 220.395 124.154 220.333C122.858 220.284 121.92 219.951 121.401 219.124V215.248Z" fill="#F39423"/>
<path d="M134.386 217.68C134.608 218.087 134.83 218.531 135.04 218.988L133.053 219.198C133.398 218.371 133.769 217.371 134.102 216.458H136.953V215.1H134.633V213.533H136.57V212.2H134.633V210.459H133.201V212.2H131.177V213.533H133.201V215.1H130.782V216.458H132.46C132.25 217.408 131.917 218.507 131.596 219.346L130.782 219.42L130.992 220.84L135.583 220.247C135.719 220.605 135.83 220.926 135.892 221.21L137.175 220.667C136.928 219.716 136.213 218.285 135.571 217.198L134.386 217.68ZM141.816 211.2H137.323V221.987H138.755V212.57H140.384V218.383C140.384 218.531 140.335 218.581 140.187 218.581C140.039 218.593 139.582 218.593 139.138 218.568C139.335 218.976 139.557 219.655 139.607 220.087C140.347 220.087 140.878 220.037 141.285 219.79C141.705 219.531 141.816 219.075 141.816 218.42V211.2Z" fill="#F39423"/>
<rect x="9.12015" y="162.183" width="163.705" height="67.8466" rx="2.27367" stroke="#F39423" stroke-width="3.24811"/>
<path d="M190.041 201.914L195.667 196.288L190.041 190.662L184.415 196.288L190.041 201.914ZM190.73 143.629C190.35 143.249 189.733 143.249 189.352 143.629L183.151 149.83C182.77 150.211 182.77 150.828 183.151 151.208C183.531 151.589 184.148 151.589 184.529 151.208L190.041 145.696L195.553 151.208C195.934 151.589 196.551 151.589 196.931 151.208C197.312 150.828 197.312 150.211 196.931 149.83L190.73 143.629ZM191.015 196.288V144.318H189.067V196.288H191.015Z" fill="#F39423"/>
<path d="M267.994 154.283L262.368 159.909L267.994 165.535L273.62 159.909L267.994 154.283ZM267.305 212.568C267.686 212.948 268.303 212.948 268.683 212.568L274.884 206.367C275.265 205.986 275.265 205.369 274.884 204.989C274.504 204.608 273.887 204.608 273.506 204.989L267.994 210.501L262.482 204.989C262.101 204.608 261.484 204.608 261.104 204.989C260.723 205.369 260.723 205.986 261.104 206.367L267.305 212.568ZM267.02 159.909V211.879H268.969V159.909H267.02Z" fill="#121212"/>
<rect width="42.875" height="67.197" transform="translate(283.584 126.129)" fill="#121212"/>
<path d="M292.121 173.727V168.816H297.266V151.354H292.549V146.443H302.917V168.816H307.517V173.727H292.121ZM315.263 174.195C314.276 174.195 313.418 173.844 312.691 173.143C311.989 172.415 311.638 171.558 311.638 170.57C311.638 169.583 311.989 168.738 312.691 168.037C313.418 167.309 314.276 166.945 315.263 166.945C316.251 166.945 317.095 167.309 317.797 168.037C318.524 168.738 318.888 169.583 318.888 170.57C318.888 171.22 318.719 171.83 318.381 172.402C318.07 172.948 317.641 173.389 317.095 173.727C316.549 174.039 315.939 174.195 315.263 174.195Z" fill="#EDEDED"/>
<path d="M334.598 164.578C333.898 164.578 333.277 164.434 332.734 164.146C332.199 163.858 331.775 163.451 331.463 162.924C331.158 162.389 331.006 161.756 331.006 161.023V155.79H332.771V161.134C332.771 161.48 332.845 161.797 332.993 162.085C333.141 162.365 333.351 162.591 333.623 162.764C333.902 162.936 334.231 163.023 334.61 163.023C334.98 163.023 335.301 162.936 335.573 162.764C335.844 162.591 336.054 162.365 336.202 162.085C336.35 161.797 336.424 161.48 336.424 161.134V155.79H338.189V161.023C338.189 161.756 338.033 162.389 337.72 162.924C337.416 163.451 336.992 163.858 336.449 164.146C335.914 164.434 335.297 164.578 334.598 164.578Z" fill="#121212"/>
<path d="M339.855 164.43V155.79H343.718C344.286 155.79 344.8 155.917 345.261 156.173C345.73 156.419 346.1 156.765 346.372 157.209C346.651 157.654 346.791 158.172 346.791 158.765C346.791 159.341 346.655 159.851 346.384 160.295C346.112 160.731 345.754 161.077 345.31 161.332L346.1 162.714C346.133 162.764 346.174 162.805 346.223 162.838C346.273 162.862 346.33 162.875 346.396 162.875H347.236V164.43H346.125C345.779 164.43 345.462 164.343 345.174 164.171C344.895 163.998 344.672 163.772 344.508 163.492L343.533 161.739C343.459 161.739 343.381 161.739 343.298 161.739C343.224 161.739 343.15 161.739 343.076 161.739H341.62V164.43H339.855ZM341.62 160.184H343.508C343.788 160.184 344.043 160.13 344.273 160.024C344.504 159.908 344.685 159.744 344.816 159.53C344.956 159.316 345.026 159.061 345.026 158.765C345.026 158.468 344.956 158.213 344.816 157.999C344.677 157.785 344.491 157.625 344.261 157.518C344.039 157.403 343.788 157.345 343.508 157.345H341.62V160.184Z" fill="#121212"/>
<path d="M350.699 164.43C350.189 164.43 349.741 164.315 349.354 164.084C348.967 163.846 348.667 163.533 348.453 163.146C348.239 162.751 348.132 162.319 348.132 161.85V155.79H349.897V162.06C349.897 162.282 349.975 162.476 350.131 162.64C350.288 162.797 350.477 162.875 350.699 162.875H352.983V164.43H350.699Z" fill="#121212"/>
<path d="M353.682 160.752L355.188 162.295C355.398 161.974 355.682 161.529 355.966 161.122C356.497 160.418 357.373 159.197 357.867 158.579C358.225 158.123 358.459 158.061 358.891 158.542C359.471 159.197 360.397 160.369 361.162 161.282C361.94 162.196 362.989 163.393 363.878 164.232L365.149 162.751C363.976 161.702 362.927 160.591 362.137 159.727C361.409 158.937 360.422 157.666 359.582 156.851C358.681 155.975 357.879 156.061 357.015 157.037C356.25 157.925 355.299 159.197 354.732 159.789C354.361 160.184 354.053 160.468 353.682 160.752Z" fill="#121212"/>
<path d="M377.356 156.074L376.381 155.16C376.146 155.235 375.468 155.272 375.122 155.272H368.469C367.951 155.272 367.432 155.222 366.963 155.148V156.864C367.543 156.814 367.951 156.777 368.469 156.777H374.9C374.579 157.382 373.616 158.468 372.629 159.073L373.912 160.098C375.122 159.234 376.294 157.678 376.875 156.716C376.986 156.53 377.22 156.234 377.356 156.074ZM372.32 157.74H370.53C370.592 158.135 370.617 158.468 370.617 158.851C370.617 160.875 370.321 162.184 368.753 163.27C368.296 163.603 367.852 163.813 367.457 163.949L368.901 165.121C372.258 163.319 372.32 160.801 372.32 157.74Z" fill="#121212"/>
<path d="M384.369 154.803L382.567 154.21C382.456 154.63 382.197 155.197 382.012 155.506C381.394 156.568 380.321 158.16 378.161 159.48L379.543 160.505C380.753 159.678 381.826 158.592 382.653 157.518H386.122C385.924 158.444 385.208 159.925 384.369 160.888C383.295 162.109 381.925 163.183 379.395 163.936L380.851 165.245C383.172 164.331 384.665 163.196 385.838 161.764C386.949 160.381 387.652 158.74 387.986 157.641C388.084 157.333 388.257 156.987 388.393 156.753L387.134 155.975C386.85 156.061 386.443 156.123 386.06 156.123H383.579C383.592 156.098 383.604 156.086 383.616 156.061C383.764 155.79 384.085 155.235 384.369 154.803Z" fill="#121212"/>
<path d="M393.12 162.788C393.12 164.245 393.527 164.924 396.342 164.924C397.662 164.924 399.143 164.8 400.168 164.652L400.217 162.973C398.995 163.22 397.625 163.393 396.329 163.393C394.972 163.393 394.749 163.122 394.749 162.356V159.085C396.502 158.728 398.168 158.407 398.551 158.32C398.205 158.974 397.391 160.098 396.576 160.826L397.934 161.628C398.823 160.752 399.946 159.061 400.489 158.036C400.6 157.814 400.785 157.53 400.896 157.357L399.711 156.444C399.477 156.568 399.18 156.654 398.835 156.728C398.279 156.864 396.551 157.209 394.749 157.555V156.098C394.749 155.679 394.811 155.062 394.86 154.679H393.021C393.083 155.062 393.12 155.691 393.12 156.098V157.864C391.898 158.086 390.812 158.271 390.232 158.345L390.528 159.962C391.047 159.838 392.022 159.641 393.12 159.419V162.788Z" fill="#121212"/>
<path d="M412.276 156.061L411.264 155.309C411.017 155.395 410.523 155.469 409.993 155.469H405.636C405.265 155.469 404.513 155.432 404.179 155.383V157.135C404.438 157.123 405.117 157.049 405.636 157.049H409.82C409.548 157.925 408.795 159.147 407.981 160.073C406.821 161.369 404.908 162.875 402.92 163.615L404.192 164.948C405.883 164.146 407.524 162.862 408.833 161.48C409.993 162.603 411.141 163.862 411.943 164.973L413.35 163.751C412.622 162.862 411.128 161.282 409.906 160.221C410.733 159.11 411.425 157.789 411.844 156.827C411.955 156.58 412.177 156.197 412.276 156.061Z" fill="#121212"/>
<rect x="283.259" y="125.804" width="163.705" height="67.8466" rx="2.27367" stroke="#121212" stroke-width="3.24811"/>
<g clip-path="url(#clip1_711_15915)">
<path d="M266.693 305.645L261.067 311.271L266.693 316.897L272.319 311.271L266.693 305.645ZM266.004 363.93C266.385 364.31 267.002 364.31 267.382 363.93L273.584 357.728C273.964 357.348 273.964 356.731 273.584 356.35C273.203 355.97 272.586 355.97 272.206 356.35L266.693 361.863L261.181 356.35C260.801 355.97 260.184 355.97 259.803 356.35C259.423 356.731 259.423 357.348 259.803 357.728L266.004 363.93ZM265.719 311.271V363.241H267.668V311.271H265.719Z" fill="#121212"/>
<rect width="42.875" height="67.197" transform="translate(283.584 277.491)" fill="#121212"/>
<path d="M295.72 325.089C294.681 325.089 293.771 324.868 292.992 324.426C292.212 323.959 291.601 323.348 291.16 322.594C290.744 321.841 290.536 320.996 290.536 320.061C290.536 319.177 290.757 318.32 291.199 317.488C291.666 316.657 292.264 315.981 292.992 315.462L301.372 309.459C301.943 309.043 302.372 308.55 302.658 307.978C302.944 307.406 303.087 306.809 303.087 306.185C303.087 305.457 302.931 304.847 302.619 304.353C302.307 303.833 301.865 303.431 301.294 303.145C300.722 302.859 300.034 302.716 299.228 302.716H292.017V297.805H299.891C301.684 297.805 303.23 298.182 304.529 298.935C305.828 299.689 306.829 300.702 307.53 301.975C308.258 303.223 308.622 304.626 308.622 306.185C308.622 307.744 308.31 309.121 307.686 310.317C307.088 311.486 306.101 312.538 304.724 313.474L296.344 319.164C296.292 319.19 296.227 319.255 296.149 319.359C296.071 319.437 296.032 319.541 296.032 319.671C296.032 319.853 296.084 319.983 296.188 320.061C296.292 320.139 296.435 320.178 296.617 320.178H309.44V325.089H295.72ZM316.166 325.557C315.179 325.557 314.321 325.206 313.594 324.504C312.892 323.777 312.541 322.919 312.541 321.932C312.541 320.944 312.892 320.1 313.594 319.398C314.321 318.671 315.179 318.307 316.166 318.307C317.154 318.307 317.998 318.671 318.7 319.398C319.427 320.1 319.791 320.944 319.791 321.932C319.791 322.581 319.622 323.192 319.285 323.764C318.973 324.309 318.544 324.751 317.998 325.089C317.453 325.401 316.842 325.557 316.166 325.557Z" fill="#EDEDED"/>
<path d="M339.498 288.404C339.498 287.972 339.843 287.615 340.275 287.615C340.707 287.615 341.065 287.972 341.065 288.404C341.065 288.836 340.707 289.182 340.275 289.182C339.843 289.182 339.498 288.836 339.498 288.404ZM338.683 288.404C338.683 289.293 339.387 289.997 340.275 289.997C341.164 289.997 341.88 289.293 341.88 288.404C341.88 287.516 341.164 286.8 340.275 286.8C339.387 286.8 338.683 287.516 338.683 288.404ZM331.006 292.441L332.487 293.971C332.709 293.65 333.005 293.218 333.289 292.823C333.783 292.157 334.659 290.935 335.141 290.318C335.499 289.873 335.758 289.849 336.153 290.244C336.597 290.7 337.696 291.897 338.412 292.749C339.14 293.601 340.189 294.872 341.016 295.897L342.374 294.44C341.423 293.428 340.164 292.058 339.337 291.182C338.597 290.379 337.646 289.392 336.819 288.614C335.857 287.713 335.128 287.849 334.4 288.713C333.548 289.725 332.586 290.935 332.03 291.502C331.648 291.873 331.376 292.144 331.006 292.441Z" fill="#121212"/>
<path d="M344.052 290.244V292.181C344.509 292.144 345.336 292.12 346.039 292.12H352.667C353.186 292.12 353.815 292.169 354.112 292.181V290.244C353.791 290.268 353.248 290.318 352.667 290.318H346.039C345.398 290.318 344.497 290.281 344.052 290.244Z" fill="#121212"/>
<path d="M364.029 286.479L362.992 286.911C363.436 287.54 363.72 288.071 364.078 288.849L365.152 288.392C364.868 287.824 364.374 286.997 364.029 286.479ZM365.72 285.887L364.67 286.319C365.127 286.936 365.436 287.417 365.831 288.195L366.88 287.726C366.584 287.183 366.102 286.38 365.72 285.887ZM358.66 286.244L357.771 287.602C358.585 288.059 359.869 288.886 360.56 289.367L361.474 288.009C360.832 287.553 359.474 286.689 358.66 286.244ZM356.376 295.008L357.302 296.625C358.388 296.427 360.165 295.81 361.424 295.107C363.436 293.934 365.189 292.379 366.324 290.663L365.374 288.985C364.399 290.75 362.671 292.441 360.573 293.613C359.24 294.354 357.758 294.773 356.376 295.008ZM356.759 289.059L355.87 290.416C356.697 290.861 357.981 291.688 358.684 292.181L359.585 290.799C358.956 290.355 357.598 289.503 356.759 289.059Z" fill="#121212"/>
<path d="M372.224 292.231C372.027 291.885 371.113 290.466 370.768 289.984V289.404H372.002V288.047H370.768V285.504H369.435V288.047H367.954V289.404H369.324C369.015 290.861 368.361 292.576 367.67 293.539C367.88 293.872 368.176 294.428 368.312 294.835C368.731 294.218 369.114 293.354 369.435 292.404V297.02H370.768V291.762C371.039 292.317 371.311 292.897 371.471 293.28L372.224 292.231ZM376.26 294.02V293.428H377.359V294.02H376.26ZM373.891 293.428H374.94V294.02H373.891V293.428ZM374.94 291.947V292.478H373.891V291.947H374.94ZM377.359 291.947V292.478H376.26V291.947H377.359ZM374.927 288.911H376.285V289.429H374.927V288.911ZM374.927 287.417H376.285V287.923H374.927V287.417ZM379.383 294.02H378.717V290.935H376.26V290.466H379.26V289.429H377.655V288.911H378.84V287.923H377.655V287.417H379.037V286.405H377.655V285.504H376.285V286.405H374.927V285.504H373.57V286.405H372.298V287.417H373.57V287.923H372.558V288.911H373.57V289.429H372.039V290.466H374.94V290.935H372.57V294.02H371.817V295.094H372.57V296.933H373.891V295.094H377.359V295.613C377.359 295.761 377.309 295.798 377.149 295.798C377.001 295.798 376.495 295.81 376.038 295.785C376.199 296.119 376.359 296.6 376.421 296.946C377.198 296.946 377.779 296.933 378.186 296.748C378.593 296.551 378.717 296.242 378.717 295.625V295.094H379.383V294.02Z" fill="#121212"/>
<path d="M382.419 287.516C382.642 287.898 382.864 288.33 382.95 288.639L384.135 288.293C384.061 288.084 383.913 287.8 383.752 287.516H385.48C385.32 287.664 385.16 287.8 384.999 287.923C385.345 288.071 385.986 288.404 386.283 288.627C386.616 288.33 386.949 287.948 387.258 287.516H387.937C388.221 287.886 388.492 288.33 388.616 288.627L389.862 288.269C389.763 288.059 389.591 287.787 389.393 287.516H391.553V286.368H387.974C388.085 286.158 388.184 285.948 388.27 285.738L386.875 285.405C386.616 286.084 386.196 286.751 385.703 287.281V286.368H382.95C383.061 286.17 383.16 285.973 383.246 285.775L381.876 285.405C381.506 286.319 380.815 287.232 380.074 287.824C380.408 287.997 380.988 288.392 381.259 288.627C381.58 288.33 381.913 287.948 382.222 287.516H382.419ZM388.714 289.663V290.91C388.381 290.589 387.9 290.231 387.505 289.947L386.888 290.478C386.9 290.305 386.912 290.145 386.912 289.972V289.663H388.714ZM391.467 294.156V293.008H386.579V292.268H385.875C386.418 291.848 386.702 291.33 386.826 290.799C387.282 291.169 387.776 291.626 388.023 291.947L388.727 291.317C388.751 291.786 388.838 291.984 388.998 292.157C389.208 292.366 389.541 292.453 389.85 292.453H390.455C390.664 292.453 390.936 292.416 391.109 292.329C391.294 292.231 391.43 292.07 391.516 291.848C391.59 291.651 391.639 291.145 391.677 290.676C391.38 290.564 390.948 290.367 390.726 290.169C390.714 290.564 390.701 290.885 390.677 291.021C390.652 291.169 390.615 291.243 390.578 291.268C390.541 291.305 390.492 291.305 390.43 291.305H390.232C390.183 291.305 390.146 291.293 390.121 291.243C390.084 291.206 390.097 291.083 390.097 290.873V288.701H385.579V289.935C385.579 290.379 385.493 290.824 385.061 291.219L385.024 290.614L383.493 290.836V289.775H385.036V288.762H380.605V289.775H382.16V291.021C381.469 291.12 380.84 291.206 380.321 291.268L380.482 292.428C381.481 292.268 382.74 292.083 384.024 291.885C384.308 292.095 384.765 292.552 384.925 292.798C385.011 292.761 385.085 292.737 385.16 292.7V293.008H380.309V294.156H384.086C383.049 294.798 381.518 295.304 380.074 295.539C380.371 295.835 380.765 296.39 380.975 296.736C382.481 296.378 384.036 295.674 385.16 294.773V296.995H386.579V294.798C387.714 295.699 389.257 296.378 390.751 296.699C390.961 296.341 391.38 295.761 391.689 295.452C390.195 295.242 388.616 294.773 387.554 294.156H391.467Z" fill="#121212"/>
<path d="M397.576 287.331V288.911C399.132 289.059 401.366 289.046 402.884 288.911V287.318C401.551 287.479 399.095 287.54 397.576 287.331ZM398.564 292.601L397.144 292.465C397.009 293.095 396.935 293.588 396.935 294.07C396.935 295.341 397.959 296.094 400.082 296.094C401.477 296.094 402.464 296.008 403.266 295.86L403.242 294.193C402.156 294.415 401.242 294.514 400.144 294.514C398.885 294.514 398.416 294.181 398.416 293.638C398.416 293.305 398.465 293.008 398.564 292.601ZM395.676 286.504L393.948 286.356C393.935 286.751 393.861 287.22 393.824 287.565C393.688 288.516 393.306 290.601 393.306 292.453C393.306 294.132 393.54 295.637 393.787 296.489L395.219 296.39C395.207 296.217 395.194 296.02 395.194 295.884C395.194 295.761 395.219 295.489 395.256 295.304C395.392 294.65 395.799 293.305 396.145 292.28L395.379 291.675C395.207 292.083 395.009 292.515 394.824 292.934C394.787 292.687 394.775 292.366 394.775 292.132C394.775 290.898 395.207 288.429 395.367 287.602C395.416 287.38 395.577 286.763 395.676 286.504Z" fill="#121212"/>
<path d="M412.005 287.59C411.302 287.047 410.055 286.133 409.055 285.492L408.105 286.565C409.068 287.232 410.326 288.195 411.042 288.787L412.005 287.59ZM405.994 288.836C405.772 290.281 405.303 291.848 404.698 292.91L406.118 293.44C406.735 292.379 407.13 290.651 407.389 289.194L405.994 288.836ZM410.252 295.428C409.623 295.428 409.524 295.341 409.524 294.712V293.959C412.005 291.934 413.943 289.392 415.288 286.812L413.807 286.232C412.869 288.207 411.388 290.256 409.524 292.009V288.281H407.957V293.329C406.957 294.094 405.871 294.761 404.723 295.279C405.019 295.563 405.463 296.106 405.686 296.44C406.476 296.057 407.253 295.613 407.969 295.119C408.055 296.477 408.574 296.896 410.092 296.896H412.252C413.77 296.896 414.202 296.168 414.4 293.946C413.968 293.848 413.313 293.588 412.956 293.329C412.869 295.07 412.758 295.428 412.129 295.428H410.252ZM413.227 290.293C413.955 291.453 414.721 293.033 415.004 294.057L416.411 293.342C416.103 292.329 415.325 290.824 414.548 289.663L413.227 290.293Z" fill="#121212"/>
<path d="M421.521 293.342H424.533C424.237 293.798 423.867 294.181 423.41 294.489C422.657 294.292 421.879 294.107 421.114 293.946L421.521 293.342ZM419.448 289.071H420.744V290.219H419.448V289.071ZM422.126 287.207H423.521V287.911H422.126V287.207ZM426.384 289.071V290.219H424.903V289.071H426.384ZM422.126 290.219V289.071H423.521V290.219H422.126ZM428.544 293.342V292.157H422.311C422.484 291.885 422.645 291.626 422.805 291.367H427.853V287.911H424.903V287.207H428.248V285.936H417.498V287.207H420.744V287.911H418.065V291.367H421.126C420.966 291.626 420.806 291.885 420.633 292.157H417.275V293.342H419.843C419.473 293.872 419.115 294.354 418.806 294.749L420.225 295.193L420.361 295.008C420.769 295.094 421.163 295.193 421.558 295.292C420.46 295.576 419.127 295.724 417.498 295.785C417.72 296.106 417.954 296.625 418.053 297.044C420.448 296.859 422.274 296.538 423.657 295.86C425.051 296.267 426.298 296.699 427.236 297.081L428.137 295.884C427.298 295.588 426.224 295.255 425.027 294.921C425.483 294.489 425.866 293.971 426.175 293.342H428.544Z" fill="#121212"/>
<path d="M434.901 286.022L433.198 285.849C433.173 286.491 433.037 287.232 432.864 287.911C432.482 287.948 432.112 287.96 431.741 287.96C431.285 287.96 430.63 287.935 430.1 287.874L430.211 289.305C430.741 289.343 431.248 289.355 431.754 289.355C431.963 289.355 432.173 289.355 432.395 289.343C431.852 290.676 430.853 292.49 429.877 293.7L431.371 294.465C432.371 293.07 433.42 290.91 434.012 289.182C434.839 289.059 435.605 288.898 436.172 288.75L436.123 287.318C435.642 287.466 435.061 287.602 434.457 287.713C434.642 287.047 434.802 286.417 434.901 286.022ZM434.259 294.564C434.259 294.132 434.716 293.811 435.432 293.811C435.777 293.811 436.111 293.86 436.432 293.934C436.432 294.033 436.432 294.107 436.432 294.181C436.432 294.86 436.172 295.329 435.321 295.329C434.642 295.329 434.259 295.02 434.259 294.564ZM437.789 289.861H436.246C436.271 290.614 436.333 291.712 436.382 292.626C436.098 292.601 435.827 292.576 435.53 292.576C433.815 292.576 432.803 293.502 432.803 294.712C432.803 296.069 434.012 296.748 435.543 296.748C437.296 296.748 437.925 295.86 437.925 294.712C437.925 294.675 437.925 294.625 437.925 294.588C438.604 294.996 439.159 295.514 439.591 295.909L440.418 294.588C439.789 294.02 438.925 293.403 437.863 293.008C437.839 292.391 437.802 291.799 437.789 291.441C437.777 290.898 437.752 290.379 437.789 289.861ZM439.912 290.515L440.789 289.219C440.159 288.762 438.629 287.923 437.74 287.54L436.95 288.762C437.789 289.145 439.196 289.947 439.912 290.515Z" fill="#121212"/>
<path d="M332.894 306.639V308.232C333.265 308.207 333.795 308.195 334.215 308.195H338.251C338.683 308.195 339.164 308.207 339.584 308.232V306.639C339.164 306.701 338.671 306.738 338.251 306.738H334.215C333.795 306.738 333.289 306.701 332.894 306.639ZM331.463 309.799V311.416C331.808 311.391 332.29 311.367 332.647 311.367H336.042C335.992 312.404 335.783 313.329 335.276 314.094C334.783 314.823 333.919 315.526 333.042 315.86L334.487 316.909C335.585 316.353 336.535 315.403 336.967 314.539C337.412 313.675 337.683 312.638 337.757 311.367H340.732C341.078 311.367 341.547 311.379 341.855 311.404V309.799C341.534 309.849 340.991 309.873 340.732 309.873H332.647C332.265 309.873 331.833 309.849 331.463 309.799ZM340.325 305.788L339.337 306.195C339.671 306.664 340.053 307.405 340.312 307.911L341.3 307.479C341.065 307.022 340.633 306.244 340.325 305.788ZM341.781 305.232L340.806 305.64C341.139 306.109 341.534 306.825 341.793 307.343L342.781 306.911C342.559 306.479 342.102 305.701 341.781 305.232Z" fill="#121212"/>
<path d="M344.052 310.244V312.181C344.509 312.144 345.336 312.12 346.039 312.12H352.667C353.186 312.12 353.815 312.169 354.112 312.181V310.244C353.791 310.268 353.248 310.318 352.667 310.318H346.039C345.398 310.318 344.497 310.281 344.052 310.244Z" fill="#121212"/>
<path d="M362.283 306.183L360.493 305.627C360.382 306.047 360.123 306.615 359.925 306.911C359.308 307.985 358.16 309.676 356 311.021L357.333 312.046C358.58 311.182 359.728 309.997 360.592 308.849H364.122C363.936 309.614 363.406 310.688 362.764 311.577C361.986 311.058 361.209 310.552 360.555 310.182L359.456 311.305C360.086 311.7 360.9 312.255 361.702 312.848C360.678 313.872 359.308 314.872 357.173 315.526L358.604 316.773C360.53 316.045 361.937 314.996 363.023 313.848C363.529 314.255 363.986 314.638 364.319 314.946L365.492 313.551C365.134 313.255 364.652 312.897 364.122 312.515C364.998 311.28 365.615 309.96 365.948 308.96C366.059 308.651 366.22 308.318 366.356 308.084L365.097 307.306C364.825 307.392 364.405 307.442 364.023 307.442H361.517C361.665 307.17 361.974 306.615 362.283 306.183Z" fill="#121212"/>
<path d="M373.601 306.059L371.972 305.924C371.947 306.368 371.861 306.849 371.725 307.343C371.527 307.343 371.317 307.343 371.132 307.343C370.503 307.343 369.589 307.294 368.96 307.195V308.639C369.639 308.688 370.54 308.713 371.046 308.713C371.095 308.713 371.145 308.713 371.206 308.713C370.651 309.824 369.775 310.922 368.479 312.12L369.799 313.107C370.219 312.564 370.577 312.12 370.947 311.749C371.416 311.293 372.181 310.898 372.873 310.898C373.218 310.898 373.551 311.009 373.737 311.317C372.33 312.046 370.848 313.033 370.848 314.613C370.848 316.205 372.28 316.674 374.218 316.674C375.378 316.674 376.896 316.575 377.711 316.464L377.76 314.872C376.674 315.082 375.304 315.218 374.255 315.218C373.045 315.218 372.465 315.033 372.465 314.354C372.465 313.737 372.959 313.255 373.885 312.724C373.872 313.268 373.86 313.86 373.823 314.23H375.304C375.292 313.662 375.267 312.749 375.255 312.058C376.008 311.712 376.711 311.441 377.267 311.219C377.686 311.058 378.341 310.811 378.735 310.7L378.118 309.268C377.662 309.503 377.23 309.7 376.748 309.91C376.242 310.132 375.724 310.342 375.082 310.639C374.81 310.009 374.193 309.688 373.44 309.688C373.033 309.688 372.367 309.787 372.046 309.935C372.293 309.577 372.539 309.133 372.749 308.676C374.082 308.639 375.6 308.54 376.773 308.367L376.785 306.936C375.699 307.121 374.465 307.232 373.292 307.294C373.453 306.775 373.539 306.368 373.601 306.059Z" fill="#121212"/>
<path d="M380.809 315.958V307.318H383.722C384.644 307.318 385.442 307.503 386.116 307.874C386.791 308.244 387.314 308.754 387.684 309.404C388.063 310.054 388.252 310.799 388.252 311.638C388.252 312.478 388.063 313.222 387.684 313.872C387.314 314.522 386.791 315.033 386.116 315.403C385.442 315.773 384.644 315.958 383.722 315.958H380.809ZM382.574 314.403H383.722C384.257 314.403 384.73 314.292 385.141 314.07C385.561 313.848 385.89 313.531 386.129 313.119C386.367 312.7 386.487 312.206 386.487 311.638C386.487 311.062 386.367 310.569 386.129 310.157C385.89 309.746 385.561 309.429 385.141 309.207C384.73 308.985 384.257 308.873 383.722 308.873H382.574V314.403Z" fill="#121212"/>
<path d="M389.488 315.958V307.318H394.338C394.75 307.318 395.12 307.413 395.449 307.602C395.787 307.783 396.054 308.038 396.251 308.367C396.457 308.697 396.56 309.087 396.56 309.54C396.56 309.828 396.502 310.104 396.387 310.367C396.272 310.622 396.116 310.844 395.918 311.033C395.721 311.223 395.49 311.371 395.227 311.478C395.531 311.577 395.799 311.737 396.029 311.959C396.268 312.173 396.453 312.428 396.585 312.724C396.725 313.012 396.795 313.325 396.795 313.662C396.795 314.123 396.688 314.526 396.474 314.872C396.268 315.218 395.992 315.485 395.647 315.674C395.301 315.864 394.914 315.958 394.486 315.958H389.488ZM391.253 314.403H393.98C394.178 314.403 394.355 314.358 394.511 314.267C394.667 314.169 394.791 314.041 394.881 313.885C394.98 313.72 395.03 313.543 395.03 313.354C395.03 313.156 394.98 312.98 394.881 312.823C394.791 312.667 394.667 312.543 394.511 312.453C394.355 312.354 394.178 312.305 393.98 312.305H391.253V314.403ZM391.253 310.824H393.82C394.001 310.824 394.166 310.782 394.314 310.7C394.462 310.61 394.577 310.49 394.659 310.342C394.75 310.194 394.795 310.03 394.795 309.849C394.795 309.668 394.75 309.503 394.659 309.355C394.577 309.207 394.462 309.092 394.314 309.009C394.166 308.919 394.001 308.873 393.82 308.873H391.253V310.824Z" fill="#121212"/>
<path d="M397.747 312.28L399.253 313.823C399.462 313.502 399.746 313.058 400.03 312.65C400.561 311.947 401.437 310.725 401.931 310.108C402.289 309.651 402.523 309.589 402.955 310.071C403.536 310.725 404.461 311.897 405.227 312.811C406.004 313.724 407.053 314.921 407.942 315.761L409.213 314.28C408.041 313.23 406.992 312.12 406.202 311.256C405.473 310.466 404.486 309.194 403.647 308.38C402.746 307.503 401.943 307.59 401.079 308.565C400.314 309.454 399.364 310.725 398.796 311.317C398.426 311.712 398.117 311.996 397.747 312.28Z" fill="#121212"/>
<path d="M340.485 326.38H338.621C338.671 326.726 338.695 327.121 338.695 327.615V329.96C338.695 331.885 338.535 332.811 337.683 333.737C336.943 334.539 335.943 335.008 334.721 335.292L336.005 336.649C336.906 336.366 338.189 335.761 339.004 334.872C339.917 333.86 340.436 332.712 340.436 330.058V327.615C340.436 327.121 340.46 326.726 340.485 326.38ZM334.758 326.479H332.981C333.018 326.763 333.03 327.195 333.03 327.429V331.589C333.03 331.959 332.981 332.441 332.968 332.675H334.758C334.733 332.391 334.721 331.91 334.721 331.601V327.429C334.721 327.034 334.733 326.763 334.758 326.479Z" fill="#121212"/>
<path d="M349.989 326.331L348.187 325.738C348.076 326.158 347.817 326.726 347.632 327.034C347.014 328.096 345.941 329.688 343.781 331.009L345.163 332.033C346.373 331.206 347.446 330.12 348.273 329.046H351.742C351.544 329.972 350.828 331.453 349.989 332.416C348.915 333.638 347.545 334.712 345.015 335.465L346.471 336.773C348.792 335.86 350.285 334.724 351.458 333.292C352.569 331.91 353.272 330.268 353.606 329.17C353.704 328.861 353.877 328.516 354.013 328.281L352.754 327.503C352.47 327.59 352.063 327.652 351.68 327.652H349.199C349.211 327.627 349.224 327.615 349.236 327.59C349.384 327.318 349.705 326.763 349.989 326.331Z" fill="#121212"/>
<path d="M356.975 327.343V329.034C357.284 329.009 357.814 328.985 358.148 328.985H360.53V334.02H357.395C357.012 334.02 356.568 333.983 356.185 333.922V335.711C356.592 335.662 357.024 335.65 357.395 335.65H365.529C365.813 335.65 366.331 335.662 366.689 335.711V333.922C366.368 333.971 365.973 334.02 365.529 334.02H362.258V328.985H364.862C365.22 328.985 365.652 329.009 366.022 329.034V327.343C365.664 327.38 365.232 327.417 364.862 327.417H358.148C357.802 327.417 357.296 327.38 356.975 327.343Z" fill="#121212"/>
<path d="M377.896 327.59L376.884 326.837C376.637 326.923 376.143 326.997 375.613 326.997H371.256C370.885 326.997 370.133 326.96 369.799 326.911V328.664C370.058 328.651 370.737 328.577 371.256 328.577H375.44C375.168 329.454 374.415 330.676 373.601 331.601C372.441 332.897 370.528 334.403 368.54 335.144L369.812 336.477C371.503 335.674 373.144 334.391 374.453 333.008C375.613 334.132 376.761 335.39 377.563 336.501L378.97 335.279C378.242 334.391 376.748 332.811 375.526 331.749C376.353 330.638 377.045 329.318 377.464 328.355C377.575 328.108 377.797 327.726 377.896 327.59Z" fill="#121212"/>
<path d="M383.821 334.773C383.821 335.267 383.771 336.008 383.697 336.501H385.623C385.573 335.995 385.512 335.131 385.512 334.773V331.28C386.845 331.737 388.696 332.453 389.967 333.119L390.671 331.416C389.535 330.861 387.166 329.984 385.512 329.503V327.676C385.512 327.17 385.573 326.627 385.623 326.195H383.697C383.784 326.627 383.821 327.244 383.821 327.676V334.773Z" fill="#121212"/>
<rect x="283.259" y="277.166" width="163.705" height="67.8466" rx="2.27367" stroke="#121212" stroke-width="3.24811"/>
</g>
<rect width="42.875" height="67.197" transform="translate(9.44531 326.862)" fill="#121212"/>
<path d="M15.3571 374.46V369.549H24.6726C25.2703 369.549 25.816 369.406 26.3097 369.12C26.8034 368.835 27.1932 368.445 27.479 367.951C27.7648 367.457 27.9077 366.912 27.9077 366.314C27.9077 365.716 27.7648 365.171 27.479 364.677C27.1932 364.183 26.8034 363.793 26.3097 363.508C25.816 363.196 25.2703 363.04 24.6726 363.04H16.6823V358.129H24.9065C25.4782 358.129 25.9849 357.999 26.4266 357.739C26.8684 357.453 27.2191 357.089 27.479 356.648C27.7648 356.18 27.9077 355.673 27.9077 355.127C27.9077 354.556 27.7648 354.049 27.479 353.607C27.2191 353.14 26.8684 352.776 26.4266 352.516C25.9849 352.23 25.4782 352.087 24.9065 352.087H15.3571V347.176H25.5301C27.0113 347.176 28.3495 347.54 29.5448 348.267C30.7401 348.969 31.6885 349.918 32.3901 351.113C33.1177 352.308 33.4815 353.646 33.4815 355.127C33.4815 356.193 33.2476 357.206 32.7799 358.168C32.3122 359.129 31.6756 359.974 30.87 360.701C31.4157 361.169 31.8834 361.702 32.2732 362.299C32.663 362.897 32.9618 363.534 33.1697 364.209C33.3776 364.885 33.4815 365.586 33.4815 366.314C33.4815 367.821 33.1177 369.198 32.3901 370.446C31.6626 371.667 30.6751 372.641 29.4279 373.369C28.2066 374.096 26.8424 374.46 25.3352 374.46H15.3571ZM40.8214 374.928C39.834 374.928 38.9765 374.577 38.2489 373.876C37.5473 373.148 37.1965 372.29 37.1965 371.303C37.1965 370.316 37.5473 369.471 38.2489 368.77C38.9765 368.042 39.834 367.678 40.8214 367.678C41.8088 367.678 42.6533 368.042 43.3549 368.77C44.0825 369.471 44.4463 370.316 44.4463 371.303C44.4463 371.953 44.2774 372.563 43.9396 373.135C43.6278 373.681 43.199 374.122 42.6533 374.46C42.1077 374.772 41.497 374.928 40.8214 374.928Z" fill="#EDEDED"/>
<path d="M65.3837 339.67V339.263H66.2971C66.9513 339.263 67.3833 339.275 67.6548 339.3V337.658C67.3215 337.72 66.9513 337.745 66.2971 337.745H65.3837V336.449C65.3837 335.955 65.4331 335.548 65.4701 335.301H63.7051C63.7421 335.548 63.7792 335.955 63.7792 336.449V337.745H60.8539V336.523C60.8539 336.042 60.8909 335.647 60.928 335.412H59.1753C59.2123 335.782 59.2493 336.165 59.2493 336.523V337.745H58.2002C57.5831 337.745 57.077 337.671 56.8672 337.634V339.312C57.1387 339.288 57.5831 339.263 58.2002 339.263H59.2493V340.942C59.2493 341.497 59.2123 341.991 59.1753 342.238H60.9033C60.8909 341.991 60.8539 341.485 60.8539 340.942V339.263H63.7792V339.732C63.7792 342.768 62.73 343.83 60.3479 344.657L61.6685 345.903C64.6432 344.595 65.3837 342.731 65.3837 339.67Z" fill="#121212"/>
<path d="M69.6296 339.411V341.349C70.0863 341.312 70.9133 341.287 71.6168 341.287H78.2449C78.7633 341.287 79.3928 341.337 79.689 341.349V339.411C79.3681 339.436 78.825 339.485 78.2449 339.485H71.6168C70.975 339.485 70.074 339.448 69.6296 339.411Z" fill="#121212"/>
<path d="M90.3438 335.276L89.3687 335.684C89.7019 336.153 90.0722 336.893 90.3314 337.399L91.3188 336.967C91.0843 336.511 90.6523 335.733 90.3438 335.276ZM91.8002 334.721L90.8251 335.128C91.1584 335.585 91.5657 336.313 91.8126 336.819L92.8 336.399C92.5778 335.967 92.1211 335.19 91.8002 334.721ZM83.0862 341.287C82.6665 342.373 81.9383 343.706 81.1607 344.718L82.8887 345.447C83.5429 344.521 84.2711 343.114 84.7154 341.917C85.1474 340.769 85.5918 339.065 85.7646 338.201C85.814 337.93 85.9497 337.325 86.0608 336.967L84.2588 336.597C84.1106 338.164 83.6416 339.905 83.0862 341.287ZM89.1835 341.028C89.6772 342.361 90.1216 343.916 90.4672 345.385L92.2939 344.793C91.9483 343.571 91.2942 341.596 90.8622 340.485C90.3931 339.288 89.5415 337.387 89.0354 336.436L87.3938 336.967C87.9122 337.905 88.7145 339.732 89.1835 341.028Z" fill="#121212"/>
<path d="M98.7616 335.375L96.9225 335.19C96.9348 335.967 96.8361 336.868 96.6633 337.807C96.0338 337.856 95.4537 337.893 95.0711 337.905C94.6144 337.918 94.1947 337.942 93.7504 337.905L93.8985 339.584C94.2688 339.522 94.9229 339.436 95.2685 339.374C95.5031 339.349 95.8857 339.3 96.33 339.251C95.8857 340.942 95.034 343.435 93.8368 345.052L95.4413 345.694C96.5769 343.879 97.4902 340.954 97.9593 339.078C98.3049 339.053 98.6134 339.028 98.8109 339.028C99.5885 339.028 100.008 339.164 100.008 340.152C100.008 341.374 99.8477 342.867 99.5145 343.571C99.317 343.978 98.9961 344.101 98.5888 344.101C98.2555 344.101 97.552 343.978 97.0706 343.842L97.3421 345.471C97.7618 345.558 98.3419 345.644 98.8233 345.644C99.749 345.644 100.44 345.373 100.847 344.509C101.378 343.435 101.551 341.435 101.551 339.979C101.551 338.201 100.625 337.621 99.317 337.621C99.0578 337.621 98.6875 337.646 98.2802 337.671C98.3666 337.226 98.453 336.77 98.5394 336.399C98.6011 336.091 98.6875 335.696 98.7616 335.375ZM103.007 336.535L101.539 337.165C102.415 338.251 103.291 340.485 103.612 341.855L105.18 341.127C104.81 339.954 103.773 337.597 103.007 336.535Z" fill="#121212"/>
<path d="M109.524 335.19L109.13 336.671C110.092 336.918 112.845 337.498 114.091 337.658L114.462 336.153C113.388 336.029 110.697 335.56 109.524 335.19ZM109.599 337.671L107.945 337.436C107.858 338.967 107.574 341.386 107.327 342.596L108.747 342.953C108.858 342.707 108.981 342.509 109.204 342.238C109.981 341.3 111.24 340.781 112.635 340.781C113.709 340.781 114.474 341.374 114.474 342.176C114.474 343.743 112.511 344.644 108.809 344.138L109.278 345.755C114.412 346.187 116.19 344.459 116.19 342.213C116.19 340.719 114.931 339.386 112.771 339.386C111.475 339.386 110.253 339.744 109.13 340.559C109.216 339.855 109.438 338.35 109.599 337.671Z" fill="#121212"/>
<path d="M66.0626 355.548H64.1988C64.2482 355.893 64.2729 356.288 64.2729 356.782V359.127C64.2729 361.053 64.1124 361.978 63.2608 362.904C62.5202 363.706 61.5204 364.175 60.2985 364.459L61.5821 365.817C62.4832 365.533 63.7668 364.928 64.5814 364.04C65.4948 363.028 66.0132 361.88 66.0132 359.226V356.782C66.0132 356.288 66.0379 355.893 66.0626 355.548ZM60.3355 355.647H58.5582C58.5952 355.93 58.6075 356.362 58.6075 356.597V360.756C58.6075 361.127 58.5582 361.608 58.5458 361.843H60.3355C60.3108 361.559 60.2985 361.077 60.2985 360.769V356.597C60.2985 356.202 60.3108 355.93 60.3355 355.647Z" fill="#121212"/>
<path d="M75.5665 355.498L73.7645 354.906C73.6534 355.326 73.3942 355.893 73.2091 356.202C72.5919 357.263 71.5181 358.856 69.3581 360.176L70.7405 361.201C71.9501 360.374 73.0239 359.288 73.8509 358.214H77.3192C77.1217 359.14 76.4058 360.621 75.5665 361.583C74.4927 362.805 73.1227 363.879 70.5924 364.632L72.0488 365.94C74.3693 365.027 75.8628 363.892 77.0353 362.46C78.1462 361.077 78.8497 359.436 79.183 358.337C79.2817 358.029 79.4545 357.683 79.5903 357.449L78.3313 356.671C78.0474 356.757 77.6401 356.819 77.2575 356.819H74.7766C74.7889 356.794 74.8013 356.782 74.8136 356.757C74.9617 356.486 75.2826 355.93 75.5665 355.498Z" fill="#121212"/>
<path d="M82.5526 356.511V358.201C82.8611 358.177 83.3919 358.152 83.7251 358.152H86.1073V363.188H82.9722C82.5896 363.188 82.1452 363.151 81.7626 363.089V364.879C82.1699 364.83 82.6019 364.817 82.9722 364.817H91.1061C91.39 364.817 91.9084 364.83 92.2663 364.879V363.089C91.9454 363.139 91.5505 363.188 91.1061 363.188H87.8353V358.152H90.4396C90.7976 358.152 91.2296 358.177 91.5998 358.201V356.511C91.2419 356.548 90.8099 356.585 90.4396 356.585H83.7251C83.3795 356.585 82.8735 356.548 82.5526 356.511Z" fill="#121212"/>
<path d="M103.474 356.757L102.461 356.004C102.215 356.091 101.721 356.165 101.19 356.165H96.8332C96.4629 356.165 95.71 356.128 95.3767 356.079V357.831C95.6359 357.819 96.3148 357.745 96.8332 357.745H101.017C100.746 358.621 99.9929 359.843 99.1783 360.769C98.0181 362.065 96.105 363.571 94.1178 364.311L95.3891 365.644C97.08 364.842 98.7216 363.558 100.03 362.176C101.19 363.299 102.338 364.558 103.14 365.669L104.547 364.447C103.819 363.558 102.326 361.978 101.104 360.917C101.931 359.806 102.622 358.485 103.042 357.523C103.153 357.276 103.375 356.893 103.474 356.757Z" fill="#121212"/>
<path d="M109.398 363.941C109.398 364.435 109.349 365.175 109.275 365.669H111.2C111.151 365.163 111.089 364.299 111.089 363.941V360.448C112.422 360.905 114.274 361.62 115.545 362.287L116.248 360.584C115.113 360.028 112.743 359.152 111.089 358.671V356.844C111.089 356.338 111.151 355.795 111.2 355.363H109.275C109.361 355.795 109.398 356.412 109.398 356.844V363.941Z" fill="#121212"/>
<path d="M129.307 360.781C129.307 358.09 127.382 355.967 124.321 355.967C121.124 355.967 118.655 358.399 118.655 361.25C118.655 363.336 119.791 364.842 121.161 364.842C122.506 364.842 123.568 363.311 124.308 360.818C124.666 359.658 124.876 358.522 125.049 357.473C126.715 357.757 127.641 359.028 127.641 360.732C127.641 362.534 126.407 363.669 124.827 364.04C124.493 364.114 124.148 364.188 123.679 364.237L124.604 365.706C127.715 365.225 129.307 363.385 129.307 360.781ZM120.235 361.09C120.235 359.732 121.334 357.93 123.37 357.51C123.234 358.535 123 359.584 122.716 360.497C122.21 362.164 121.729 362.941 121.21 362.941C120.729 362.941 120.235 362.336 120.235 361.09Z" fill="#121212"/>
<path d="M136.33 355.19L134.726 355.153C134.738 355.363 134.713 355.659 134.701 355.893C134.676 356.103 134.652 356.325 134.627 356.56C134.466 356.56 134.306 356.56 134.133 356.56C133.38 356.56 132.294 356.461 131.862 356.387L131.899 357.819C132.479 357.844 133.442 357.893 134.084 357.893C134.22 357.893 134.343 357.893 134.479 357.893C134.429 358.399 134.392 358.917 134.368 359.448C132.64 360.263 131.331 361.917 131.331 363.509C131.331 364.756 132.097 365.299 132.998 365.299C133.652 365.299 134.306 365.101 134.911 364.805C134.96 364.978 135.022 365.15 135.071 365.311L136.491 364.879C136.392 364.583 136.293 364.274 136.207 363.966C137.145 363.188 138.132 361.892 138.799 360.213C139.65 360.547 140.082 361.201 140.082 361.941C140.082 363.151 139.12 364.361 136.737 364.62L137.552 365.916C140.588 365.459 141.613 363.768 141.613 362.015C141.613 360.584 140.662 359.46 139.231 358.991C139.305 358.757 139.404 358.498 139.453 358.362L137.947 358.004C137.935 358.189 137.885 358.498 137.836 358.745C137.762 358.745 137.688 358.745 137.614 358.745C137.009 358.745 136.367 358.831 135.775 358.967C135.787 358.596 135.824 358.214 135.861 357.844C137.379 357.782 139.033 357.634 140.243 357.412L140.23 355.98C138.873 356.301 137.54 356.461 136.034 356.523C136.071 356.276 136.12 356.054 136.157 355.844C136.207 355.659 136.256 355.437 136.33 355.19ZM132.788 363.188C132.788 362.484 133.405 361.546 134.331 360.917C134.355 361.769 134.454 362.62 134.59 363.385C134.145 363.645 133.701 363.793 133.356 363.793C132.961 363.793 132.788 363.583 132.788 363.188ZM135.725 360.312V360.275C136.207 360.127 136.774 360.016 137.429 360.004C137.009 361.003 136.454 361.756 135.873 362.361C135.775 361.744 135.725 361.065 135.725 360.312Z" fill="#121212"/>
<path d="M144.316 359.905L144.958 361.509C146.007 361.065 148.475 360.041 149.907 360.041C150.981 360.041 151.672 360.682 151.672 361.608C151.672 363.287 149.599 364.04 146.772 364.114L147.426 365.632C151.351 365.385 153.314 363.867 153.314 361.633C153.314 359.769 152.006 358.609 150.055 358.609C148.562 358.609 146.464 359.312 145.624 359.572C145.254 359.683 144.686 359.831 144.316 359.905Z" fill="#121212"/>
<path d="M162.139 362.114L160.67 361.966C160.571 362.46 160.448 363.052 160.448 363.62C160.448 364.867 161.571 365.582 163.645 365.582C164.632 365.582 165.472 365.496 166.163 365.41L166.224 363.83C165.336 363.99 164.484 364.089 163.657 364.089C162.336 364.089 161.966 363.682 161.966 363.139C161.966 362.867 162.04 362.46 162.139 362.114ZM160.744 355.276L158.856 355.128C158.893 355.412 158.868 355.918 158.819 356.375C158.794 356.572 158.757 356.807 158.708 357.078C158.325 357.103 157.955 357.115 157.597 357.115C157.091 357.115 156.671 357.091 156.042 357.017L156.079 358.559C156.511 358.584 156.98 358.609 157.572 358.609C157.831 358.609 158.103 358.596 158.387 358.584C158.313 358.942 158.214 359.288 158.128 359.621C157.671 361.349 156.733 363.941 155.992 365.175L157.708 365.755C158.399 364.286 159.226 361.769 159.67 360.041C159.806 359.535 159.93 358.991 160.041 358.461C160.868 358.362 161.707 358.226 162.448 358.053V356.511C161.769 356.671 161.077 356.807 160.386 356.906C160.423 356.733 160.46 356.572 160.485 356.436C160.534 356.165 160.645 355.61 160.744 355.276ZM161.472 359.004V360.448C162.25 360.361 163.015 360.324 163.855 360.324C164.608 360.324 165.36 360.399 165.978 360.473L166.015 358.991C165.286 358.917 164.546 358.88 163.842 358.88C163.052 358.88 162.164 358.942 161.472 359.004Z" fill="#121212"/>
<path d="M58.4718 375.807V377.399C58.842 377.375 59.3728 377.362 59.7924 377.362H63.8285C64.2605 377.362 64.7419 377.375 65.1616 377.399V375.807C64.7419 375.869 64.2482 375.906 63.8285 375.906H59.7924C59.3728 375.906 58.8667 375.869 58.4718 375.807ZM57.04 378.967V380.584C57.3856 380.559 57.867 380.534 58.2249 380.534H61.6192C61.5698 381.571 61.36 382.497 60.8539 383.262C60.3602 383.99 59.4962 384.694 58.6199 385.027L60.064 386.076C61.1625 385.521 62.1129 384.57 62.5449 383.706C62.9892 382.842 63.2608 381.806 63.3348 380.534H66.3094C66.655 380.534 67.1241 380.547 67.4326 380.571V378.967C67.1117 379.016 66.5686 379.041 66.3094 379.041H58.2249C57.8423 379.041 57.4103 379.016 57.04 378.967ZM65.9021 374.955L64.9147 375.363C65.248 375.832 65.6306 376.572 65.8898 377.078L66.8772 376.646C66.6427 376.19 66.2107 375.412 65.9021 374.955ZM67.3586 374.4L66.3835 374.807C66.7167 375.276 67.1117 375.992 67.3709 376.511L68.3583 376.079C68.1362 375.647 67.6795 374.869 67.3586 374.4Z" fill="#121212"/>
<path d="M69.6296 379.411V381.349C70.0863 381.312 70.9133 381.287 71.6168 381.287H78.2449C78.7633 381.287 79.3928 381.337 79.689 381.349V379.411C79.3681 379.436 78.825 379.485 78.2449 379.485H71.6168C70.975 379.485 70.074 379.448 69.6296 379.411Z" fill="#121212"/>
<path d="M87.86 375.35L86.0703 374.795C85.9592 375.215 85.7 375.782 85.5025 376.079C84.8853 377.152 83.7375 378.843 81.5775 380.189L82.9105 381.213C84.1571 380.349 85.305 379.164 86.169 378.016H89.699C89.5139 378.782 88.9832 379.855 88.3413 380.744C87.5637 380.226 86.7861 379.72 86.132 379.349L85.0335 380.473C85.6629 380.868 86.4776 381.423 87.2799 382.015C86.2554 383.04 84.8853 384.04 82.75 384.694L84.1818 385.94C86.1073 385.212 87.5144 384.163 88.6005 383.015C89.1066 383.423 89.5633 383.805 89.8965 384.114L91.0691 382.719C90.7112 382.423 90.2298 382.065 89.699 381.682C90.5754 380.448 91.1925 379.127 91.5258 378.127C91.6369 377.819 91.7973 377.486 91.9331 377.251L90.6741 376.474C90.4026 376.56 89.9829 376.609 89.6003 376.609H87.0947C87.2428 376.338 87.5514 375.782 87.86 375.35Z" fill="#121212"/>
<path d="M99.1783 375.227L97.5491 375.091C97.5244 375.535 97.438 376.017 97.3022 376.511C97.1047 376.511 96.8949 376.511 96.7098 376.511C96.0803 376.511 95.1669 376.461 94.5374 376.362V377.807C95.2163 377.856 96.1173 377.881 96.6234 377.881C96.6727 377.881 96.7221 377.881 96.7838 377.881C96.2284 378.991 95.352 380.09 94.056 381.287L95.3767 382.275C95.7964 381.732 96.1543 381.287 96.5246 380.917C96.9936 380.46 97.7589 380.065 98.4501 380.065C98.7957 380.065 99.1289 380.176 99.3141 380.485C97.907 381.213 96.4259 382.201 96.4259 383.78C96.4259 385.373 97.8576 385.842 99.7955 385.842C100.956 385.842 102.474 385.743 103.288 385.632L103.338 384.04C102.252 384.249 100.882 384.385 99.8325 384.385C98.6229 384.385 98.0428 384.2 98.0428 383.521C98.0428 382.904 98.5365 382.423 99.4622 381.892C99.4499 382.435 99.4375 383.028 99.4005 383.398H100.882C100.869 382.83 100.845 381.917 100.832 381.225C101.585 380.88 102.289 380.608 102.844 380.386C103.264 380.226 103.918 379.979 104.313 379.868L103.696 378.436C103.239 378.671 102.807 378.868 102.326 379.078C101.82 379.3 101.301 379.51 100.659 379.806C100.388 379.177 99.7708 378.856 99.0179 378.856C98.6105 378.856 97.944 378.954 97.6231 379.103C97.87 378.745 98.1168 378.3 98.3267 377.844C99.6597 377.807 101.178 377.708 102.35 377.535L102.363 376.103C101.277 376.288 100.042 376.399 98.8697 376.461C99.0302 375.943 99.1166 375.535 99.1783 375.227Z" fill="#121212"/>
<path d="M114.928 378.979C114.681 379.646 114.36 380.25 113.953 380.781C113.521 380.25 113.175 379.646 112.916 378.979H114.928ZM115.779 377.634L115.508 377.671H111.608V376.523H116.989V375.153H110.2V378.016C110.2 379.572 110.089 381.719 108.929 383.188C109.275 383.324 109.904 383.731 110.163 383.978C111.163 382.67 111.484 380.769 111.583 379.164C111.928 380.176 112.385 381.053 112.965 381.806C112.348 382.324 111.62 382.731 110.83 382.991C111.114 383.274 111.484 383.855 111.657 384.225C112.521 383.879 113.298 383.435 113.977 382.867C114.693 383.472 115.533 383.941 116.545 384.262C116.742 383.867 117.162 383.274 117.483 382.991C116.508 382.731 115.693 382.336 115.002 381.806C115.792 380.806 116.384 379.522 116.717 377.93L115.779 377.634ZM109.213 376.844C108.806 376.264 107.917 375.486 107.201 374.955L106.103 375.832C106.819 376.387 107.683 377.226 108.04 377.807L109.213 376.844ZM108.892 379.46H106.103V380.806H107.46V383.41C106.93 383.83 106.325 384.249 105.831 384.546L106.547 386.076C107.201 385.558 107.732 385.076 108.263 384.595C109.065 385.558 110.089 385.903 111.62 385.965C113.101 386.027 115.582 386.002 117.075 385.928C117.137 385.508 117.359 384.793 117.532 384.447C115.89 384.57 113.089 384.607 111.645 384.546C110.349 384.496 109.41 384.163 108.892 383.336V379.46Z" fill="#121212"/>
<path d="M121.877 381.892C122.099 382.299 122.321 382.744 122.531 383.2L120.544 383.41C120.889 382.583 121.26 381.583 121.593 380.67H124.444V379.312H122.124V377.745H124.061V376.412H122.124V374.671H120.692V376.412H118.668V377.745H120.692V379.312H118.273V380.67H119.951C119.741 381.62 119.408 382.719 119.087 383.558L118.273 383.632L118.482 385.052L123.074 384.459C123.21 384.817 123.321 385.138 123.383 385.422L124.666 384.879C124.419 383.929 123.703 382.497 123.062 381.411L121.877 381.892ZM129.307 375.412H124.814V386.2H126.246V376.782H127.875V382.596C127.875 382.744 127.826 382.793 127.678 382.793C127.53 382.805 127.073 382.805 126.629 382.781C126.826 383.188 127.048 383.867 127.098 384.299C127.838 384.299 128.369 384.249 128.776 384.003C129.196 383.743 129.307 383.287 129.307 382.633V375.412Z" fill="#121212"/>
<rect x="9.12015" y="326.537" width="163.705" height="67.8466" rx="2.27367" stroke="#121212" stroke-width="3.24811"/>
<path d="M189.715 366.27L195.341 360.644L189.715 355.018L184.089 360.644L189.715 366.27ZM190.404 307.985C190.023 307.605 189.406 307.605 189.026 307.985L182.825 314.186C182.444 314.567 182.444 315.184 182.825 315.564C183.205 315.945 183.822 315.945 184.203 315.564L189.715 310.052L195.227 315.564C195.608 315.945 196.225 315.945 196.605 315.564C196.986 315.184 196.986 314.567 196.605 314.186L190.404 307.985ZM190.689 360.644V308.674H188.74V360.644H190.689Z" fill="#121212"/>
</g>
<defs>
<clipPath id="clip0_711_15915">
<rect width="454.735" height="489.814" fill="white" transform="translate(1 4)"/>
</clipPath>
<clipPath id="clip1_711_15915">
<rect width="202.032" height="109.136" fill="white" transform="translate(259.549 270.345)"/>
</clipPath>
</defs>
</svg>
