<svg width="455" height="497" viewBox="0 0 455 497" fill="none" xmlns="http://www.w3.org/2000/svg">
<rect width="455" height="497" rx="4" fill="#E7E7E7"/>
<g clip-path="url(#clip0_702_10799)">
<rect x="125.863" y="280.337" width="207.003" height="19" rx="1.20059" fill="#121212"/>
<path d="M133.536 294.337C132.879 294.321 132.287 294.205 131.759 293.989C131.23 293.764 130.778 293.464 130.402 293.088C130.026 292.704 129.734 292.26 129.526 291.755C129.325 291.251 129.225 290.711 129.225 290.135C129.225 289.558 129.325 289.018 129.526 288.514C129.734 288.01 130.026 287.569 130.402 287.193C130.778 286.809 131.23 286.505 131.759 286.281C132.287 286.057 132.879 285.941 133.536 285.933H134.844V287.445H133.572C133.187 287.453 132.835 287.525 132.515 287.661C132.195 287.798 131.915 287.986 131.675 288.226C131.442 288.466 131.262 288.75 131.134 289.078C131.006 289.398 130.942 289.75 130.942 290.135C130.942 290.519 131.006 290.875 131.134 291.203C131.262 291.523 131.442 291.803 131.675 292.044C131.915 292.284 132.195 292.472 132.515 292.608C132.835 292.744 133.187 292.816 133.572 292.824H134.844V294.337H133.536ZM136.766 294.337V285.933H139.6C140.496 285.933 141.272 286.113 141.929 286.473C142.585 286.833 143.093 287.329 143.453 287.962C143.822 288.594 144.006 289.318 144.006 290.135C144.006 290.951 143.822 291.675 143.453 292.308C143.093 292.94 142.585 293.436 141.929 293.796C141.272 294.157 140.496 294.337 139.6 294.337H136.766ZM138.483 292.824H139.6C140.12 292.824 140.58 292.716 140.98 292.5C141.388 292.284 141.709 291.976 141.941 291.575C142.173 291.167 142.289 290.687 142.289 290.135C142.289 289.574 142.173 289.094 141.941 288.694C141.709 288.294 141.388 287.986 140.98 287.77C140.58 287.553 140.12 287.445 139.6 287.445H138.483V292.824ZM151.475 294.481C150.979 294.481 150.542 294.369 150.166 294.145C149.79 293.913 149.498 293.608 149.29 293.232C149.082 292.848 148.978 292.428 148.978 291.972V288.094C148.978 287.95 148.942 287.818 148.87 287.697C148.797 287.577 148.701 287.481 148.581 287.409C148.461 287.337 148.329 287.301 148.185 287.301C148.041 287.301 147.909 287.337 147.789 287.409C147.677 287.481 147.585 287.577 147.513 287.697C147.441 287.818 147.405 287.95 147.405 288.094V294.337H145.688V288.298C145.688 287.834 145.792 287.413 146 287.037C146.208 286.661 146.5 286.361 146.877 286.137C147.253 285.905 147.689 285.789 148.185 285.789C148.689 285.789 149.13 285.905 149.506 286.137C149.882 286.361 150.174 286.661 150.382 287.037C150.59 287.413 150.694 287.834 150.694 288.298V292.176C150.694 292.32 150.73 292.452 150.802 292.572C150.875 292.692 150.967 292.788 151.079 292.86C151.199 292.932 151.331 292.968 151.475 292.968C151.619 292.968 151.751 292.932 151.871 292.86C151.991 292.788 152.087 292.692 152.159 292.572C152.231 292.452 152.267 292.32 152.267 292.176V285.933H153.984V291.972C153.984 292.428 153.88 292.848 153.672 293.232C153.464 293.608 153.172 293.913 152.795 294.145C152.419 294.369 151.979 294.481 151.475 294.481ZM157.977 296.498C157.464 295.881 157.036 295.121 156.692 294.217C156.348 293.304 156.176 292.244 156.176 291.035C156.176 289.827 156.348 288.766 156.692 287.854C157.036 286.941 157.464 286.181 157.977 285.572H159.813C159.269 286.181 158.813 286.941 158.445 287.854C158.077 288.766 157.892 289.827 157.892 291.035C157.892 292.244 158.077 293.304 158.445 294.217C158.813 295.121 159.269 295.881 159.813 296.498H157.977ZM164.72 294.337C164.064 294.321 163.472 294.205 162.943 293.989C162.415 293.764 161.963 293.464 161.587 293.088C161.211 292.704 160.918 292.26 160.71 291.755C160.51 291.251 160.41 290.711 160.41 290.135C160.41 289.558 160.51 289.018 160.71 288.514C160.918 288.01 161.211 287.569 161.587 287.193C161.963 286.809 162.415 286.505 162.943 286.281C163.472 286.057 164.064 285.941 164.72 285.933H166.029V287.445H164.756C164.372 287.453 164.02 287.525 163.7 287.661C163.38 287.798 163.099 287.986 162.859 288.226C162.627 288.466 162.447 288.75 162.319 289.078C162.191 289.398 162.127 289.75 162.127 290.135C162.127 290.519 162.191 290.875 162.319 291.203C162.447 291.523 162.627 291.803 162.859 292.044C163.099 292.284 163.38 292.472 163.7 292.608C164.02 292.744 164.372 292.816 164.756 292.824H166.029V294.337H164.72ZM170.832 294.481C170.2 294.481 169.636 294.341 169.139 294.061C168.643 293.772 168.251 293.388 167.963 292.908C167.675 292.42 167.531 291.876 167.531 291.275C167.531 290.675 167.675 290.135 167.963 289.654C168.251 289.166 168.643 288.782 169.139 288.502C169.636 288.214 170.2 288.07 170.832 288.07C171.465 288.07 172.029 288.214 172.525 288.502C173.021 288.782 173.414 289.166 173.702 289.654C173.99 290.135 174.134 290.675 174.134 291.275C174.134 291.876 173.99 292.42 173.702 292.908C173.414 293.388 173.021 293.772 172.525 294.061C172.029 294.341 171.465 294.481 170.832 294.481ZM170.832 293.076C171.168 293.076 171.457 292.996 171.697 292.836C171.945 292.676 172.133 292.46 172.261 292.188C172.397 291.916 172.465 291.611 172.465 291.275C172.465 290.939 172.397 290.635 172.261 290.363C172.133 290.091 171.945 289.875 171.697 289.714C171.457 289.554 171.168 289.474 170.832 289.474C170.496 289.474 170.204 289.554 169.956 289.714C169.716 289.875 169.528 290.091 169.392 290.363C169.264 290.635 169.199 290.939 169.199 291.275C169.199 291.611 169.264 291.916 169.392 292.188C169.528 292.46 169.716 292.676 169.956 292.836C170.204 292.996 170.496 293.076 170.832 293.076ZM175.936 294.337V290.819C175.936 290.315 176.052 289.855 176.284 289.438C176.524 289.022 176.869 288.69 177.317 288.442C177.765 288.194 178.301 288.07 178.926 288.07C179.558 288.07 180.094 288.194 180.534 288.442C180.983 288.69 181.323 289.022 181.555 289.438C181.795 289.855 181.915 290.315 181.915 290.819V294.337H180.27V290.819C180.27 290.571 180.21 290.347 180.09 290.147C179.97 289.939 179.806 289.775 179.598 289.654C179.398 289.534 179.174 289.474 178.926 289.474C178.678 289.474 178.449 289.534 178.241 289.654C178.041 289.775 177.881 289.939 177.761 290.147C177.641 290.347 177.581 290.571 177.581 290.819V294.337H175.936ZM186.2 294.337C185.656 294.337 185.228 294.181 184.916 293.869C184.612 293.556 184.459 293.132 184.459 292.596V286.677H186.104V292.548C186.104 292.652 186.14 292.744 186.212 292.824C186.292 292.896 186.384 292.932 186.488 292.932H187.821V294.337H186.2ZM183.415 289.618V288.214H187.821V289.618H183.415ZM192.533 294.337C191.837 294.337 191.228 294.205 190.708 293.941C190.196 293.668 189.796 293.3 189.507 292.836C189.227 292.372 189.087 291.852 189.087 291.275C189.087 290.627 189.219 290.063 189.483 289.582C189.748 289.102 190.108 288.73 190.564 288.466C191.02 288.202 191.536 288.07 192.113 288.07C192.801 288.07 193.357 288.214 193.782 288.502C194.214 288.79 194.53 289.178 194.73 289.666C194.93 290.147 195.03 290.683 195.03 291.275C195.03 291.355 195.026 291.451 195.018 291.563C195.01 291.667 194.998 291.747 194.982 291.803H190.84C190.904 292.052 191.012 292.26 191.164 292.428C191.324 292.596 191.52 292.724 191.753 292.812C191.993 292.892 192.261 292.932 192.557 292.932H194.262V294.337H192.533ZM190.828 290.699H193.385C193.369 290.547 193.341 290.407 193.301 290.279C193.261 290.143 193.205 290.023 193.133 289.919C193.061 289.815 192.977 289.726 192.881 289.654C192.785 289.582 192.673 289.526 192.545 289.486C192.417 289.446 192.277 289.426 192.125 289.426C191.925 289.426 191.745 289.462 191.584 289.534C191.432 289.606 191.304 289.702 191.2 289.823C191.096 289.943 191.012 290.079 190.948 290.231C190.892 290.383 190.852 290.539 190.828 290.699ZM196.789 294.337V290.819C196.789 290.315 196.905 289.855 197.137 289.438C197.378 289.022 197.722 288.69 198.17 288.442C198.618 288.194 199.154 288.07 199.779 288.07C200.411 288.07 200.947 288.194 201.388 288.442C201.836 288.69 202.176 289.022 202.408 289.438C202.648 289.855 202.768 290.315 202.768 290.819V294.337H201.123V290.819C201.123 290.571 201.063 290.347 200.943 290.147C200.823 289.939 200.659 289.775 200.451 289.654C200.251 289.534 200.027 289.474 199.779 289.474C199.531 289.474 199.303 289.534 199.094 289.654C198.894 289.775 198.734 289.939 198.614 290.147C198.494 290.347 198.434 290.571 198.434 290.819V294.337H196.789ZM207.053 294.337C206.509 294.337 206.081 294.181 205.769 293.869C205.465 293.556 205.313 293.132 205.313 292.596V286.677H206.957V292.548C206.957 292.652 206.993 292.744 207.065 292.824C207.146 292.896 207.238 292.932 207.342 292.932H208.674V294.337H207.053ZM204.268 289.618V288.214H208.674V289.618H204.268ZM214.373 294.337V285.933H217.206C218.103 285.933 218.879 286.113 219.535 286.473C220.192 286.833 220.7 287.329 221.06 287.962C221.428 288.594 221.612 289.318 221.612 290.135C221.612 290.951 221.428 291.675 221.06 292.308C220.7 292.94 220.192 293.436 219.535 293.796C218.879 294.157 218.103 294.337 217.206 294.337H214.373ZM216.09 292.824H217.206C217.726 292.824 218.187 292.716 218.587 292.5C218.995 292.284 219.315 291.976 219.547 291.575C219.779 291.167 219.895 290.687 219.895 290.135C219.895 289.574 219.779 289.094 219.547 288.694C219.315 288.294 218.995 287.986 218.587 287.77C218.187 287.553 217.726 287.445 217.206 287.445H216.09V292.824ZM226.44 294.337C225.744 294.337 225.135 294.205 224.615 293.941C224.103 293.668 223.703 293.3 223.415 292.836C223.135 292.372 222.994 291.852 222.994 291.275C222.994 290.627 223.127 290.063 223.391 289.582C223.655 289.102 224.015 288.73 224.471 288.466C224.927 288.202 225.444 288.07 226.02 288.07C226.708 288.07 227.265 288.214 227.689 288.502C228.121 288.79 228.437 289.178 228.637 289.666C228.837 290.147 228.937 290.683 228.937 291.275C228.937 291.355 228.933 291.451 228.925 291.563C228.917 291.667 228.905 291.747 228.889 291.803H224.747C224.811 292.052 224.919 292.26 225.071 292.428C225.232 292.596 225.428 292.724 225.66 292.812C225.9 292.892 226.168 292.932 226.464 292.932H228.169V294.337H226.44ZM224.735 290.699H227.293C227.277 290.547 227.249 290.407 227.208 290.279C227.168 290.143 227.112 290.023 227.04 289.919C226.968 289.815 226.884 289.726 226.788 289.654C226.692 289.582 226.58 289.526 226.452 289.486C226.324 289.446 226.184 289.426 226.032 289.426C225.832 289.426 225.652 289.462 225.492 289.534C225.34 289.606 225.212 289.702 225.107 289.823C225.003 289.943 224.919 290.079 224.855 290.231C224.799 290.383 224.759 290.539 224.735 290.699ZM230.696 294.337V285.572H232.341V294.337H230.696ZM234.498 294.337V288.214H236.154V294.337H234.498ZM235.326 287.481C235.046 287.481 234.802 287.381 234.594 287.181C234.394 286.973 234.293 286.729 234.293 286.449C234.293 286.169 234.394 285.929 234.594 285.729C234.802 285.52 235.046 285.416 235.326 285.416C235.606 285.416 235.846 285.52 236.046 285.729C236.254 285.929 236.358 286.169 236.358 286.449C236.358 286.729 236.254 286.973 236.046 287.181C235.846 287.381 235.606 287.481 235.326 287.481ZM240.976 294.481C240.616 294.481 240.288 294.385 239.991 294.193C239.703 294.001 239.503 293.748 239.391 293.436L237.638 288.214H239.427L240.844 292.764C240.86 292.796 240.88 292.82 240.904 292.836C240.928 292.852 240.956 292.86 240.988 292.86C241.02 292.86 241.048 292.852 241.072 292.836C241.104 292.82 241.124 292.796 241.132 292.764L242.561 288.214H244.314L242.561 293.424C242.449 293.736 242.245 293.993 241.948 294.193C241.66 294.385 241.336 294.481 240.976 294.481ZM248.667 294.337C247.971 294.337 247.363 294.205 246.842 293.941C246.33 293.668 245.93 293.3 245.642 292.836C245.362 292.372 245.222 291.852 245.222 291.275C245.222 290.627 245.354 290.063 245.618 289.582C245.882 289.102 246.242 288.73 246.698 288.466C247.155 288.202 247.671 288.07 248.247 288.07C248.936 288.07 249.492 288.214 249.916 288.502C250.348 288.79 250.664 289.178 250.864 289.666C251.065 290.147 251.165 290.683 251.165 291.275C251.165 291.355 251.161 291.451 251.153 291.563C251.145 291.667 251.133 291.747 251.117 291.803H246.975C247.039 292.052 247.147 292.26 247.299 292.428C247.459 292.596 247.655 292.724 247.887 292.812C248.127 292.892 248.395 292.932 248.691 292.932H250.396V294.337H248.667ZM246.963 290.699H249.52C249.504 290.547 249.476 290.407 249.436 290.279C249.396 290.143 249.34 290.023 249.268 289.919C249.196 289.815 249.112 289.726 249.016 289.654C248.919 289.582 248.807 289.526 248.679 289.486C248.551 289.446 248.411 289.426 248.259 289.426C248.059 289.426 247.879 289.462 247.719 289.534C247.567 289.606 247.439 289.702 247.335 289.823C247.231 289.943 247.147 290.079 247.083 290.231C247.027 290.383 246.987 290.539 246.963 290.699ZM252.864 294.337V289.955C252.864 289.41 253.016 288.986 253.32 288.682C253.632 288.37 254.06 288.214 254.605 288.214H256.297V289.618H254.893C254.789 289.618 254.697 289.654 254.617 289.726C254.545 289.799 254.509 289.891 254.509 290.003V294.337H252.864ZM259.989 296.774V294.397C259.524 294.301 259.128 294.125 258.8 293.869C258.48 293.612 258.232 293.3 258.056 292.932C257.887 292.556 257.803 292.156 257.803 291.731V288.214H259.448V291.731C259.448 291.98 259.508 292.208 259.628 292.416C259.748 292.616 259.908 292.776 260.109 292.896C260.317 293.016 260.545 293.076 260.793 293.076C261.041 293.076 261.265 293.016 261.465 292.896C261.673 292.776 261.837 292.616 261.957 292.416C262.078 292.208 262.138 291.98 262.138 291.731V288.214H263.782V291.731C263.782 292.156 263.698 292.552 263.53 292.92C263.362 293.28 263.118 293.592 262.798 293.856C262.478 294.113 262.09 294.289 261.633 294.385V296.774H259.989ZM275.447 294.481C274.951 294.481 274.515 294.369 274.138 294.145C273.762 293.913 273.47 293.608 273.262 293.232C273.054 292.848 272.95 292.428 272.95 291.972V288.094C272.95 287.95 272.914 287.818 272.842 287.697C272.77 287.577 272.674 287.481 272.554 287.409C272.434 287.337 272.301 287.301 272.157 287.301C272.013 287.301 271.881 287.337 271.761 287.409C271.649 287.481 271.557 287.577 271.485 287.697C271.413 287.818 271.377 287.95 271.377 288.094V294.337H269.66V288.298C269.66 287.834 269.764 287.413 269.972 287.037C270.18 286.661 270.473 286.361 270.849 286.137C271.225 285.905 271.661 285.789 272.157 285.789C272.662 285.789 273.102 285.905 273.478 286.137C273.854 286.361 274.146 286.661 274.354 287.037C274.563 287.413 274.667 287.834 274.667 288.298V292.176C274.667 292.32 274.703 292.452 274.775 292.572C274.847 292.692 274.939 292.788 275.051 292.86C275.171 292.932 275.303 292.968 275.447 292.968C275.591 292.968 275.723 292.932 275.843 292.86C275.963 292.788 276.059 292.692 276.131 292.572C276.203 292.452 276.239 292.32 276.239 292.176V285.933H277.956V291.972C277.956 292.428 277.852 292.848 277.644 293.232C277.436 293.608 277.144 293.913 276.768 294.145C276.391 294.369 275.951 294.481 275.447 294.481ZM283.137 294.337C282.441 294.337 281.833 294.205 281.312 293.941C280.8 293.668 280.4 293.3 280.112 292.836C279.832 292.372 279.692 291.852 279.692 291.275C279.692 290.627 279.824 290.063 280.088 289.582C280.352 289.102 280.712 288.73 281.168 288.466C281.625 288.202 282.141 288.07 282.717 288.07C283.405 288.07 283.962 288.214 284.386 288.502C284.818 288.79 285.134 289.178 285.334 289.666C285.534 290.147 285.635 290.683 285.635 291.275C285.635 291.355 285.631 291.451 285.623 291.563C285.615 291.667 285.603 291.747 285.587 291.803H281.444C281.509 292.052 281.617 292.26 281.769 292.428C281.929 292.596 282.125 292.724 282.357 292.812C282.597 292.892 282.865 292.932 283.161 292.932H284.866V294.337H283.137ZM281.432 290.699H283.99C283.974 290.547 283.946 290.407 283.906 290.279C283.866 290.143 283.81 290.023 283.738 289.919C283.666 289.815 283.582 289.726 283.485 289.654C283.389 289.582 283.277 289.526 283.149 289.486C283.021 289.446 282.881 289.426 282.729 289.426C282.529 289.426 282.349 289.462 282.189 289.534C282.037 289.606 281.909 289.702 281.805 289.823C281.701 289.943 281.617 290.079 281.553 290.231C281.497 290.383 281.456 290.539 281.432 290.699ZM289.519 294.337C288.974 294.337 288.546 294.181 288.234 293.869C287.93 293.556 287.778 293.132 287.778 292.596V286.677H289.423V292.548C289.423 292.652 289.459 292.744 289.531 292.824C289.611 292.896 289.703 292.932 289.807 292.932H291.139V294.337H289.519ZM286.733 289.618V288.214H291.139V289.618H286.733ZM295.269 294.481C294.853 294.481 294.473 294.401 294.129 294.241C293.785 294.073 293.509 293.82 293.3 293.484C293.1 293.148 293 292.724 293 292.212V288.214H294.645V292.452C294.645 292.564 294.673 292.668 294.729 292.764C294.785 292.86 294.861 292.936 294.957 292.992C295.053 293.048 295.157 293.076 295.269 293.076C295.381 293.076 295.486 293.048 295.582 292.992C295.678 292.936 295.754 292.86 295.81 292.764C295.866 292.668 295.894 292.564 295.894 292.452V290.339C295.894 289.859 295.986 289.45 296.17 289.114C296.362 288.778 296.626 288.522 296.962 288.346C297.306 288.162 297.707 288.07 298.163 288.07C298.619 288.07 299.015 288.162 299.351 288.346C299.696 288.522 299.96 288.778 300.144 289.114C300.336 289.45 300.432 289.859 300.432 290.339V292.452C300.432 292.564 300.46 292.668 300.516 292.764C300.572 292.86 300.648 292.936 300.744 292.992C300.84 293.048 300.944 293.076 301.056 293.076C301.176 293.076 301.28 293.048 301.368 292.992C301.464 292.936 301.54 292.86 301.596 292.764C301.653 292.668 301.681 292.564 301.681 292.452V288.214H303.325V292.212C303.325 292.724 303.221 293.148 303.013 293.484C302.813 293.82 302.541 294.073 302.197 294.241C301.853 294.401 301.472 294.481 301.056 294.481C300.648 294.481 300.272 294.401 299.928 294.241C299.584 294.073 299.307 293.82 299.099 293.484C298.891 293.148 298.787 292.724 298.787 292.212V290.099C298.787 289.979 298.759 289.875 298.703 289.787C298.647 289.69 298.571 289.614 298.475 289.558C298.387 289.502 298.283 289.474 298.163 289.474C298.051 289.474 297.947 289.502 297.851 289.558C297.755 289.614 297.679 289.69 297.623 289.787C297.567 289.875 297.539 289.979 297.539 290.099V292.212C297.539 292.724 297.434 293.148 297.226 293.484C297.018 293.82 296.742 294.073 296.398 294.241C296.062 294.401 295.686 294.481 295.269 294.481ZM308.431 294.481C307.798 294.481 307.234 294.341 306.738 294.061C306.242 293.772 305.849 293.388 305.561 292.908C305.273 292.42 305.129 291.876 305.129 291.275C305.129 290.675 305.273 290.135 305.561 289.654C305.849 289.166 306.242 288.782 306.738 288.502C307.234 288.214 307.798 288.07 308.431 288.07C309.063 288.07 309.627 288.214 310.123 288.502C310.62 288.782 311.012 289.166 311.3 289.654C311.588 290.135 311.732 290.675 311.732 291.275C311.732 291.876 311.588 292.42 311.3 292.908C311.012 293.388 310.62 293.772 310.123 294.061C309.627 294.341 309.063 294.481 308.431 294.481ZM308.431 293.076C308.767 293.076 309.055 292.996 309.295 292.836C309.543 292.676 309.731 292.46 309.859 292.188C309.995 291.916 310.063 291.611 310.063 291.275C310.063 290.939 309.995 290.635 309.859 290.363C309.731 290.091 309.543 289.875 309.295 289.714C309.055 289.554 308.767 289.474 308.431 289.474C308.094 289.474 307.802 289.554 307.554 289.714C307.314 289.875 307.126 290.091 306.99 290.363C306.862 290.635 306.798 290.939 306.798 291.275C306.798 291.611 306.862 291.916 306.99 292.188C307.126 292.46 307.314 292.676 307.554 292.836C307.802 292.996 308.094 293.076 308.431 293.076ZM313.475 294.337V289.955C313.475 289.41 313.627 288.986 313.931 288.682C314.243 288.37 314.671 288.214 315.215 288.214H316.908V289.618H315.504C315.399 289.618 315.307 289.654 315.227 289.726C315.155 289.799 315.119 289.891 315.119 290.003V294.337H313.475ZM318.414 294.337V285.572H320.059V290.555H321.032L322.508 288.214H324.309L322.628 290.807C323.149 291.023 323.553 291.355 323.841 291.803C324.129 292.252 324.273 292.752 324.273 293.304V294.337H322.628V293.304C322.628 293.056 322.564 292.832 322.436 292.632C322.316 292.424 322.156 292.26 321.956 292.14C321.756 292.02 321.532 291.96 321.284 291.96H320.059V294.337H318.414ZM325.046 296.498C325.59 295.881 326.047 295.121 326.415 294.217C326.783 293.304 326.967 292.244 326.967 291.035C326.967 289.827 326.783 288.766 326.415 287.854C326.047 286.941 325.59 286.181 325.046 285.572H326.883C327.395 286.181 327.823 286.941 328.168 287.854C328.512 288.766 328.684 289.827 328.684 291.035C328.684 292.244 328.512 293.304 328.168 294.217C327.823 295.121 327.395 295.881 326.883 296.498H325.046Z" fill="#EDEDED"/>
<path d="M184.174 235.833C184.174 233.725 185 231.703 186.47 230.212C187.941 228.721 189.935 227.884 192.014 227.884H215.532C217.611 227.884 219.605 228.721 221.076 230.212C222.546 231.703 223.372 233.725 223.372 235.833H235.131V223.909H225.998C222.592 223.915 219.295 222.691 216.696 220.458C214.098 218.224 212.369 215.126 211.817 211.718C211.266 208.309 211.928 204.813 213.686 201.855C215.444 198.896 218.182 196.668 221.412 195.57C223.204 191.78 226.136 188.664 229.785 186.669C233.434 184.675 237.612 183.905 241.72 184.471C245.828 185.036 249.653 186.907 252.645 189.816C255.638 192.724 257.644 196.52 258.375 200.657C261.03 201.542 263.287 203.356 264.742 205.775C266.197 208.194 266.756 211.059 266.317 213.857C265.878 216.656 264.471 219.204 262.348 221.046C260.225 222.888 257.524 223.903 254.73 223.909H242.971V255.706C242.971 256.76 242.558 257.771 241.823 258.517C241.087 259.262 240.09 259.681 239.051 259.681H223.372C223.372 261.789 222.546 263.811 221.076 265.302C219.605 266.793 217.611 267.63 215.532 267.63H192.014C189.935 267.63 187.941 266.793 186.47 265.302C185 263.811 184.174 261.789 184.174 259.681V251.732C184.189 250.332 184.567 248.961 185.272 247.757C184.567 246.553 184.189 245.182 184.174 243.782V235.833ZM254.73 215.96C255.77 215.96 256.767 215.541 257.502 214.796C258.237 214.05 258.65 213.039 258.65 211.985C258.65 210.931 258.237 209.92 257.502 209.175C256.767 208.429 255.77 208.011 254.73 208.011C253.69 208.011 252.693 207.592 251.958 206.846C251.223 206.101 250.81 205.09 250.81 204.036C250.842 201.199 249.875 198.444 248.084 196.266C246.292 194.087 243.794 192.627 241.036 192.148C238.279 191.669 235.444 192.203 233.039 193.654C230.635 195.104 228.82 197.376 227.919 200.061C227.689 200.737 227.283 201.337 226.745 201.799C226.207 202.26 225.556 202.566 224.861 202.685C223.322 202.943 221.926 203.757 220.932 204.977C219.938 206.197 219.412 207.74 219.452 209.322C219.452 211.083 220.142 212.771 221.369 214.016C222.597 215.261 224.262 215.96 225.998 215.96H254.73ZM223.372 251.732H235.131V243.782H223.372C223.357 245.182 222.979 246.553 222.274 247.757C222.979 248.961 223.357 250.332 223.372 251.732ZM215.532 259.681V251.732H192.014V259.681H215.532ZM215.532 243.782V235.833H192.014V243.782H215.532Z" fill="#121212"/>
<path d="M206.223 45.5603C206.223 43.9445 207.565 42.6226 209.206 42.6226H256.92C258.56 42.6226 259.902 41.3006 259.902 39.6848C259.902 38.069 258.56 36.747 256.92 36.747H206.223C202.943 36.747 200.259 39.391 200.259 42.6226V74.9379H198.768C196.293 74.9379 194.295 76.9062 194.295 79.3445C194.295 81.7829 196.293 83.7512 198.768 83.7512H236.045V74.9379H206.223V45.5603ZM262.884 48.4981H244.991C243.351 48.4981 242.009 49.8201 242.009 51.4358V80.8134C242.009 82.4292 243.351 83.7512 244.991 83.7512H262.884C264.524 83.7512 265.866 82.4292 265.866 80.8134V51.4358C265.866 49.8201 264.524 48.4981 262.884 48.4981ZM259.902 74.9379H247.973V54.3736H259.902V74.9379Z" fill="#121212"/>
<path d="M198.459 6.60315C193.572 6.60856 188.887 8.52325 185.432 11.9272C181.976 15.3311 180.033 19.9462 180.027 24.76C180.036 29.573 181.98 34.1865 185.435 37.5898C188.89 40.9931 193.573 42.9087 198.459 42.9169C203.347 42.9169 208.035 41.004 211.491 37.5989C214.948 34.1938 216.89 29.5755 216.89 24.76C216.89 19.9445 214.948 15.3263 211.491 11.9212C208.035 8.5161 203.347 6.60315 198.459 6.60315ZM209.669 35.237C208.634 33.1804 207.036 31.4496 205.055 30.24C203.075 29.0304 200.791 28.3902 198.46 28.3914C196.13 28.3926 193.846 29.0354 191.867 30.2471C189.888 31.4588 188.292 33.1912 187.259 35.249C184.503 32.4333 182.967 28.6716 182.976 24.76C182.976 20.715 184.607 16.8357 187.511 13.9754C190.414 11.1151 194.352 9.50825 198.459 9.50825C202.565 9.50825 206.503 11.1151 209.406 13.9754C212.31 16.8357 213.941 20.715 213.941 24.76C213.95 28.6659 212.418 32.4225 209.669 35.237ZM198.459 13.8659C197.146 13.8659 195.863 14.2493 194.772 14.9675C193.681 15.6857 192.831 16.7066 192.328 17.901C191.826 19.0954 191.695 20.4096 191.951 21.6776C192.207 22.9455 192.839 24.1102 193.767 25.0244C194.695 25.9385 195.877 26.561 197.164 26.8133C198.451 27.0655 199.785 26.936 200.998 26.4413C202.21 25.9466 203.246 25.1088 203.975 24.0338C204.705 22.9589 205.094 21.6952 205.094 20.4024C205.094 19.544 204.922 18.694 204.589 17.901C204.255 17.1079 203.766 16.3874 203.15 15.7804C202.534 15.1734 201.803 14.6919 200.998 14.3635C200.193 14.035 199.33 13.8659 198.459 13.8659Z" fill="#121212"/>
<rect x="170.885" y="93.6456" width="132.003" height="19" rx="1.20059" fill="#121212"/>
<path d="M183.563 99.8538L182.315 99.2295C182.111 99.3136 181.51 99.3856 181.198 99.3856H177.404C176.996 99.3856 176.444 99.3376 176.06 99.2896V100.982C176.492 100.946 176.936 100.934 177.416 100.934H181.558C181.534 101.715 181.114 104.26 180.886 105.569H175.928C175.556 105.569 175.123 105.533 174.739 105.473V107.213C175.147 107.177 175.568 107.153 175.928 107.153H183.936C184.212 107.153 184.716 107.165 185.052 107.213V105.473C184.74 105.509 184.356 105.569 183.936 105.569H182.639C182.867 104.224 183.299 101.487 183.443 100.394C183.455 100.298 183.515 100.022 183.563 99.8538ZM187.597 102.087V103.972C188.042 103.936 188.846 103.912 189.53 103.912H195.977C196.482 103.912 197.094 103.96 197.382 103.972V102.087C197.07 102.111 196.542 102.159 195.977 102.159H189.53C188.906 102.159 188.03 102.123 187.597 102.087ZM208.673 98.3051L207.869 98.5692C208.097 99.0494 208.313 99.7098 208.481 100.214L209.31 99.9499C209.178 99.4816 208.901 98.7853 208.673 98.3051ZM209.91 97.9209L209.094 98.185C209.346 98.6532 209.574 99.3016 209.742 99.8178L210.57 99.5537C210.414 99.0975 210.138 98.4011 209.91 97.9209ZM207.641 102.519V102.123H208.541C209.166 102.123 209.586 102.135 209.85 102.159V100.562C209.526 100.622 209.166 100.646 208.529 100.646H207.641V99.3856C207.641 98.9054 207.689 98.5212 207.725 98.2691H206.008C206.044 98.5092 206.08 98.9054 206.08 99.3856V100.646H203.235V99.4696C203.235 98.9894 203.283 98.6052 203.307 98.3771H201.602C201.638 98.7493 201.674 99.1095 201.674 99.4576V100.646H200.653C200.053 100.646 199.573 100.574 199.357 100.538V102.171C199.621 102.159 200.053 102.123 200.653 102.123H201.674V103.756C201.674 104.296 201.638 104.776 201.602 105.016H203.283C203.271 104.776 203.235 104.296 203.235 103.756V102.123H206.08V102.579C206.08 105.533 205.06 106.565 202.742 107.382L204.027 108.594C206.932 107.309 207.641 105.497 207.641 102.519ZM212.575 102.087V103.972C213.019 103.936 213.824 103.912 214.508 103.912H220.955C221.46 103.912 222.072 103.96 222.36 103.972V102.087C222.048 102.111 221.52 102.159 220.955 102.159H214.508C213.884 102.159 213.007 102.123 212.575 102.087ZM232.037 103.083C232.037 105.653 233.105 107.574 234.402 108.846L235.542 108.342C234.342 107.045 233.393 105.389 233.393 103.083C233.393 100.778 234.342 99.1215 235.542 97.8248L234.402 97.3206C233.105 98.5932 232.037 100.514 232.037 103.083ZM245.795 97.5247L244.811 97.9329C245.039 98.2811 245.279 98.7013 245.483 99.0975C245.267 99.1215 245.063 99.1215 244.919 99.1215H239.36C238.964 99.1215 238.28 99.0734 237.932 99.0254V100.718C238.244 100.694 238.808 100.67 239.36 100.67H244.943C244.787 101.703 244.331 103.059 243.538 104.056C242.566 105.28 241.209 106.325 238.832 106.877L240.141 108.318C242.29 107.622 243.886 106.433 244.967 104.992C245.976 103.66 246.492 101.799 246.78 100.622C246.84 100.37 246.924 100.022 247.044 99.7938L246.276 99.2896L246.72 99.1095C246.504 98.6773 246.108 97.9809 245.795 97.5247ZM247.476 97.2245L246.48 97.6207C246.804 98.065 247.176 98.7493 247.44 99.2415L248.437 98.8093C248.209 98.3891 247.776 97.6568 247.476 97.2245ZM251.966 98.4371V99.9859C252.315 99.9619 252.831 99.9499 253.215 99.9499H257.813C258.246 99.9499 258.81 99.9619 259.134 99.9859V98.4371C258.798 98.4852 258.209 98.4972 257.837 98.4972H253.215C252.807 98.4972 252.303 98.4852 251.966 98.4371ZM260.142 101.919L259.074 101.259C258.906 101.331 258.582 101.379 258.197 101.379H252.255C251.882 101.379 251.366 101.343 250.862 101.307V102.867C251.366 102.819 251.966 102.807 252.255 102.807H258.053C257.837 103.48 257.465 104.224 256.817 104.884C255.904 105.821 254.464 106.613 252.663 106.985L253.851 108.342C255.388 107.91 256.925 107.093 258.137 105.749C259.038 104.752 259.554 103.588 259.914 102.423C259.962 102.291 260.058 102.075 260.142 101.919ZM268.763 97.8368H266.914C266.998 98.3531 267.01 98.6052 267.01 98.9414V99.8658H264.441C263.984 99.8658 263.624 99.8538 263.216 99.8058C263.264 100.094 263.276 100.574 263.276 100.838V102.915C263.276 103.239 263.252 103.624 263.216 103.924H264.873C264.849 103.684 264.837 103.312 264.837 103.035V101.283H270.792C270.648 102.351 270.335 103.492 269.723 104.368C269.051 105.341 267.994 106.049 266.998 106.421C266.506 106.613 265.845 106.793 265.305 106.889L266.554 108.33C268.691 107.778 270.491 106.505 271.452 104.728C272.04 103.636 272.364 102.483 272.568 101.331C272.617 101.09 272.713 100.634 272.809 100.37L271.764 99.7338C271.56 99.8058 271.272 99.8658 270.768 99.8658H268.679V98.9414C268.679 98.6052 268.703 98.3531 268.763 97.8368ZM284.31 98.3051L283.506 98.5692C283.734 99.0494 283.95 99.7098 284.118 100.214L284.947 99.9499C284.814 99.4816 284.538 98.7853 284.31 98.3051ZM285.547 97.9209L284.73 98.185C284.983 98.6532 285.211 99.3016 285.379 99.8178L286.207 99.5537C286.051 99.0975 285.775 98.4011 285.547 97.9209ZM283.278 102.519V102.123H284.178C284.802 102.123 285.223 102.135 285.487 102.159V100.562C285.163 100.622 284.802 100.646 284.166 100.646H283.278V99.3856C283.278 98.9054 283.326 98.5212 283.362 98.2691H281.645C281.681 98.5092 281.717 98.9054 281.717 99.3856V100.646H278.872V99.4696C278.872 98.9894 278.92 98.6052 278.944 98.3771H277.239C277.275 98.7493 277.311 99.1095 277.311 99.4576V100.646H276.29C275.69 100.646 275.21 100.574 274.994 100.538V102.171C275.258 102.159 275.69 102.123 276.29 102.123H277.311V103.756C277.311 104.296 277.275 104.776 277.239 105.016H278.92C278.908 104.776 278.872 104.296 278.872 103.756V102.123H281.717V102.579C281.717 105.533 280.696 106.565 278.379 107.382L279.664 108.594C282.569 107.309 283.278 105.497 283.278 102.519ZM291.154 103.083C291.154 100.514 290.085 98.5932 288.788 97.3206L287.648 97.8248C288.848 99.1215 289.797 100.778 289.797 103.083C289.797 105.389 288.848 107.045 287.648 108.342L288.788 108.846C290.085 107.574 291.154 105.653 291.154 103.083Z" fill="#EDEDED"/>
<path d="M231.212 383.287C231.212 383.287 237.815 387.789 231.212 397.094C224.609 406.398 231.212 412.701 231.212 412.701" stroke="#2C9A2A" stroke-width="2.21508"/>
<g clip-path="url(#clip1_702_10799)">
<rect x="198" y="476" width="60" height="13.2323" rx="1.20059" fill="#121212"/>
<path d="M207.25 478.424V479.036H205.365V478.424H207.25ZM205.365 480.621V479.973H207.25V480.621H205.365ZM208.595 481.653V477.403H203.972V488.161H205.365V481.653H208.595ZM208.403 484.295V483.394H209.519V484.295H208.403ZM212.088 485.459V484.295H210.768V483.394H211.896V482.266H206.098V483.394H207.19V484.295H205.929V485.459H207.142C207.022 486.072 206.686 486.852 205.917 487.332C206.194 487.524 206.626 487.897 206.83 488.149C207.85 487.452 208.247 486.288 208.367 485.459H209.519V487.933H210.768V485.459H212.088ZM210.744 480.645V479.973H212.689V480.645H210.744ZM212.689 478.424V479.036H210.744V478.424H212.689ZM214.093 477.403H209.387V481.677H212.689V486.48C212.689 486.648 212.629 486.72 212.437 486.72C212.257 486.732 211.668 486.732 211.128 486.708C211.32 487.08 211.512 487.728 211.56 488.125C212.473 488.125 213.097 488.089 213.529 487.849C213.961 487.62 214.093 487.224 214.093 486.492V477.403ZM222.293 483.706H220.817V482.35H222.293V483.706ZM224.875 482.35V481.966C225.331 482.314 225.823 482.614 226.351 482.866C226.567 482.482 227 481.918 227.336 481.641C226.652 481.365 226.027 480.993 225.463 480.537C225.991 480.165 226.567 479.697 227.06 479.24L226.015 478.496C225.679 478.904 225.151 479.396 224.659 479.793C224.478 479.588 224.298 479.384 224.13 479.168C224.623 478.808 225.175 478.34 225.667 477.896L224.587 477.127C224.31 477.463 223.914 477.884 223.518 478.244C223.278 477.836 223.086 477.403 222.918 476.959L221.633 477.319C222.161 478.736 222.882 479.985 223.818 480.993H219.472C220.312 480.129 220.997 479.06 221.417 477.8L220.469 477.355L220.216 477.403H217.083V478.628H219.532C219.316 479.012 219.064 479.372 218.776 479.709C218.44 479.42 217.983 479.072 217.623 478.82L216.723 479.564C217.119 479.865 217.599 480.273 217.911 480.585C217.299 481.113 216.615 481.533 215.918 481.822C216.194 482.086 216.591 482.578 216.783 482.902C217.335 482.638 217.875 482.326 218.38 481.954V482.35H219.388V483.706H216.819V485.015H219.196C218.896 485.82 218.175 486.564 216.519 487.068C216.819 487.332 217.251 487.885 217.431 488.209C219.652 487.464 220.445 486.276 220.709 485.015H222.293V486.324C222.293 487.656 222.618 488.077 223.914 488.077H225.223C226.279 488.077 226.652 487.596 226.796 486.012C226.387 485.928 225.811 485.687 225.511 485.447C225.463 486.576 225.403 486.816 225.091 486.816H224.166C223.83 486.816 223.782 486.744 223.782 486.312V485.015H226.339V483.706H223.782V482.35H224.875ZM238.153 479.06H237.373V478.28H238.153V479.06ZM236.472 479.06H235.716V478.28H236.472V479.06ZM234.804 479.06H234.071V478.28H234.804V479.06ZM239.342 477.319H232.931V480.021H239.342V477.319ZM232.402 481.545H239.786V480.417H232.402V481.545ZM232.606 484.187L231.286 484.535V482.494H232.378V481.233H231.286V479.048H232.534V477.8H228.693V479.048H230.025V481.233H228.801V482.494H230.025V484.847C229.461 484.991 228.945 485.111 228.512 485.207L228.813 486.528C229.965 486.24 231.418 485.844 232.787 485.447L232.606 484.187ZM238.609 484.787C238.333 485.051 237.901 485.411 237.541 485.663C237.265 485.387 237.025 485.099 236.833 484.787H238.609ZM234.371 482.998H237.817V483.779H234.371V482.998ZM238.693 484.787H239.138V481.978H233.123V484.787H235.068C234.107 485.531 232.787 486.204 231.586 486.564C231.862 486.816 232.246 487.284 232.426 487.584C233.159 487.296 233.939 486.888 234.671 486.408V488.161H236.016V485.579C236.712 486.732 237.697 487.668 238.934 488.161C239.138 487.812 239.534 487.308 239.822 487.056C239.294 486.888 238.801 486.636 238.357 486.336C238.741 486.108 239.21 485.796 239.63 485.471L238.693 484.787ZM249.667 478.808C249.571 479.096 249.427 479.444 249.307 479.709L249.367 479.721H247.842L247.998 479.685C247.938 479.432 247.818 479.096 247.662 478.808H249.667ZM252.38 479.721H250.663C250.795 479.48 250.951 479.192 251.107 478.868L250.807 478.808H252.164V477.704H249.319V476.971H247.914V477.704H245.309V478.808H246.773L246.329 478.904C246.449 479.144 246.569 479.456 246.629 479.721H245.045V480.885H252.38V479.721ZM245.021 483.358C244.648 483.514 244.276 483.682 243.904 483.839V481.137H244.996V479.793H243.904V477.115H242.583V479.793H241.395V481.137H242.583V484.379C242.031 484.595 241.527 484.787 241.119 484.931L241.599 486.36C242.691 485.856 244.072 485.231 245.333 484.619L245.021 483.358ZM247.049 483.658H250.423V484.271H247.049V483.658ZM247.049 482.23H250.423V482.83H247.049V482.23ZM250.603 486.888C250.387 486.888 250.351 486.852 250.351 486.552V485.159H251.828V481.353H245.717V485.159H246.737C246.521 486.036 245.993 486.636 244.108 486.996C244.384 487.272 244.756 487.849 244.888 488.197C247.182 487.608 247.878 486.6 248.142 485.159H248.994V486.564C248.994 487.704 249.235 488.101 250.363 488.101H251.3C252.14 488.101 252.476 487.74 252.608 486.36C252.236 486.288 251.684 486.06 251.42 485.856C251.396 486.768 251.336 486.888 251.143 486.888H250.603Z" fill="#EDEDED"/>
</g>
<path d="M257.093 413.001H194.125C190.277 413.001 187.129 415.816 187.129 419.257V456.788C187.129 460.228 190.277 463.043 194.125 463.043H211.616V466.171C211.616 467.891 213.191 469.299 215.115 469.299H236.104C238.028 469.299 239.602 467.891 239.602 466.171V463.043H257.093C260.941 463.043 264.09 460.228 264.09 456.788V419.257C264.09 415.816 260.941 413.001 257.093 413.001ZM253.595 456.788H197.624C195.7 456.788 194.125 455.381 194.125 453.66V422.384C194.125 420.664 195.7 419.257 197.624 419.257H253.595C255.519 419.257 257.093 420.664 257.093 422.384V453.66C257.093 455.381 255.519 456.788 253.595 456.788ZM246.599 428.639H215.115C213.191 428.639 211.616 430.047 211.616 431.767C211.616 433.487 213.191 434.895 215.115 434.895H246.599C248.523 434.895 250.097 433.487 250.097 431.767C250.097 430.047 248.523 428.639 246.599 428.639ZM246.599 441.15H215.115C213.191 441.15 211.616 442.557 211.616 444.278C211.616 445.998 213.191 447.405 215.115 447.405H246.599C248.523 447.405 250.097 445.998 250.097 444.278C250.097 442.557 248.523 441.15 246.599 441.15ZM208.118 428.639H201.122V434.895H208.118V428.639ZM208.118 441.15H201.122V447.405H208.118V441.15Z" fill="#121212"/>
<rect width="39.6193" height="61.8023" transform="translate(16.1582 165.181)" fill="#F39423"/>
<path d="M26.1193 208.583C25.1588 208.583 24.3184 208.378 23.5981 207.97C22.8777 207.538 22.3135 206.974 21.9053 206.277C21.5211 205.581 21.329 204.801 21.329 203.936C21.329 203.12 21.5331 202.328 21.9413 201.559C22.3735 200.791 22.9258 200.166 23.5981 199.686L31.3419 194.14C31.8701 193.755 32.2663 193.299 32.5304 192.771C32.7946 192.243 32.9266 191.69 32.9266 191.114C32.9266 190.442 32.7826 189.877 32.4944 189.421C32.2063 188.941 31.7981 188.569 31.2698 188.305C30.7416 188.041 30.1053 187.908 29.3609 187.908H22.6976V183.37H29.9732C31.63 183.37 33.0587 183.718 34.2593 184.415C35.4599 185.111 36.3843 186.048 37.0326 187.224C37.705 188.377 38.0411 189.673 38.0411 191.114C38.0411 192.555 37.753 193.827 37.1767 194.932C36.6244 196.012 35.712 196.985 34.4394 197.849L26.6956 203.108C26.6476 203.132 26.5875 203.192 26.5155 203.288C26.4435 203.36 26.4075 203.456 26.4075 203.576C26.4075 203.744 26.4555 203.864 26.5515 203.936C26.6476 204.008 26.7796 204.044 26.9477 204.044H38.7975V208.583H26.1193ZM45.0131 209.015C44.1006 209.015 43.3082 208.691 42.6359 208.042C41.9876 207.37 41.6634 206.578 41.6634 205.665C41.6634 204.753 41.9876 203.972 42.6359 203.324C43.3082 202.652 44.1006 202.316 45.0131 202.316C45.9255 202.316 46.7059 202.652 47.3542 203.324C48.0265 203.972 48.3627 204.753 48.3627 205.665C48.3627 206.265 48.2066 206.83 47.8945 207.358C47.6063 207.862 47.2101 208.27 46.7059 208.583C46.2016 208.871 45.6374 209.015 45.0131 209.015Z" fill="#EDEDED"/>
<path d="M64.1321 182.177C63.5086 182.162 62.9459 182.052 62.4441 181.846C61.9422 181.633 61.5126 181.348 61.1552 180.991C60.7979 180.626 60.5203 180.204 60.3226 179.725C60.1325 179.246 60.0375 178.733 60.0375 178.185C60.0375 177.638 60.1325 177.124 60.3226 176.645C60.5203 176.166 60.7979 175.748 61.1552 175.391C61.5126 175.026 61.9422 174.737 62.4441 174.524C62.9459 174.311 63.5086 174.201 64.1321 174.193H65.3753V175.63H64.1663C63.8013 175.638 63.4668 175.706 63.1626 175.836C62.8585 175.965 62.5923 176.144 62.3642 176.372C62.1437 176.6 61.9726 176.87 61.851 177.182C61.7293 177.486 61.6685 177.82 61.6685 178.185C61.6685 178.55 61.7293 178.889 61.851 179.2C61.9726 179.504 62.1437 179.771 62.3642 179.999C62.5923 180.227 62.8585 180.405 63.1626 180.535C63.4668 180.664 63.8013 180.732 64.1663 180.74H65.3753V182.177H64.1321Z" fill="#F39423"/>
<path d="M66.6309 182.177V174.193H69.3226C70.1742 174.193 70.9118 174.364 71.5353 174.707C72.1588 175.049 72.6416 175.52 72.9838 176.121C73.3336 176.721 73.5084 177.41 73.5084 178.185C73.5084 178.961 73.3336 179.649 72.9838 180.25C72.6416 180.85 72.1588 181.322 71.5353 181.664C70.9118 182.006 70.1742 182.177 69.3226 182.177H66.6309ZM68.2619 180.74H69.3226C69.8168 180.74 70.2541 180.637 70.6342 180.432C71.022 180.227 71.3262 179.934 71.5467 179.554C71.7672 179.166 71.8775 178.71 71.8775 178.185C71.8775 177.653 71.7672 177.197 71.5467 176.817C71.3262 176.436 71.022 176.144 70.6342 175.938C70.2541 175.733 69.8168 175.63 69.3226 175.63H68.2619V180.74Z" fill="#F39423"/>
<path d="M80.0339 182.314C79.5624 182.314 79.148 182.208 78.7906 181.995C78.4333 181.774 78.1557 181.485 77.958 181.128C77.7603 180.763 77.6615 180.364 77.6615 179.93V176.246C77.6615 176.109 77.6273 175.984 77.5588 175.87C77.4904 175.756 77.3992 175.665 77.2851 175.596C77.1711 175.528 77.0456 175.493 76.9087 175.493C76.7719 175.493 76.6464 175.528 76.5323 175.596C76.4259 175.665 76.3385 175.756 76.27 175.87C76.2016 175.984 76.1674 176.109 76.1674 176.246V182.177H74.5364V176.44C74.5364 175.999 74.6352 175.6 74.8329 175.243C75.0306 174.885 75.3081 174.6 75.6655 174.387C76.0229 174.167 76.4373 174.056 76.9087 174.056C77.3878 174.056 77.806 174.167 78.1633 174.387C78.5207 174.6 78.7983 174.885 78.9959 175.243C79.1936 175.6 79.2925 175.999 79.2925 176.44V180.124C79.2925 180.261 79.3267 180.386 79.3951 180.501C79.4636 180.615 79.551 180.706 79.6575 180.774C79.7715 180.843 79.897 180.877 80.0339 180.877C80.1707 180.877 80.2962 180.843 80.4102 180.774C80.5243 180.706 80.6155 180.615 80.684 180.501C80.7524 180.386 80.7866 180.261 80.7866 180.124V174.193H82.4176V179.93C82.4176 180.364 82.3188 180.763 82.1211 181.128C81.9234 181.485 81.6458 181.774 81.2885 181.995C80.9311 182.208 80.5129 182.314 80.0339 182.314Z" fill="#F39423"/>
<path d="M88.3661 173.167L86.6667 172.996C86.6781 173.714 86.5869 174.547 86.4272 175.414C85.8455 175.459 85.3095 175.493 84.9559 175.505C84.5339 175.516 84.1461 175.539 83.7355 175.505L83.8724 177.056C84.2145 176.999 84.819 176.919 85.1384 176.862C85.3551 176.839 85.7087 176.794 86.1193 176.748C85.7087 178.311 84.9217 180.615 83.8153 182.109L85.2981 182.702C86.3474 181.025 87.1914 178.322 87.6248 176.588C87.9441 176.566 88.2293 176.543 88.4118 176.543C89.1303 176.543 89.5181 176.668 89.5181 177.581C89.5181 178.71 89.3698 180.09 89.0619 180.74C88.8794 181.116 88.5829 181.23 88.2065 181.23C87.8985 181.23 87.2484 181.116 86.8036 180.991L87.0545 182.497C87.4423 182.576 87.9784 182.656 88.4232 182.656C89.2786 182.656 89.9173 182.405 90.2937 181.607C90.7841 180.615 90.9438 178.767 90.9438 177.421C90.9438 175.779 90.0884 175.243 88.8794 175.243C88.6399 175.243 88.2977 175.265 87.9213 175.288C88.0012 174.878 88.081 174.456 88.1609 174.113C88.2179 173.828 88.2977 173.463 88.3661 173.167ZM92.2897 174.239L90.9324 174.821C91.7422 175.824 92.552 177.889 92.8485 179.155L94.297 178.482C93.9549 177.398 92.9968 175.22 92.2897 174.239Z" fill="#F39423"/>
<path d="M98.3118 172.996L97.9468 174.364C98.8365 174.592 101.38 175.129 102.532 175.277L102.874 173.885C101.882 173.771 99.3953 173.338 98.3118 172.996ZM98.3802 175.288L96.8519 175.071C96.7721 176.486 96.5097 178.721 96.2816 179.839L97.5933 180.17C97.6959 179.942 97.81 179.759 98.0153 179.508C98.7338 178.641 99.8972 178.162 101.186 178.162C102.178 178.162 102.885 178.71 102.885 179.451C102.885 180.9 101.072 181.732 97.6503 181.265L98.0837 182.759C102.828 183.158 104.471 181.561 104.471 179.485C104.471 178.105 103.307 176.874 101.311 176.874C100.114 176.874 98.9847 177.204 97.9468 177.957C98.0267 177.307 98.232 175.915 98.3802 175.288Z" fill="#F39423"/>
<path d="M64.1891 196.733C64.0066 196.413 63.1626 195.102 62.8433 194.657V194.121H63.9838V192.866H62.8433V190.517H61.6115V192.866H60.2428V194.121H61.5088C61.2237 195.467 60.6192 197.052 59.9805 197.942C60.1744 198.25 60.4481 198.763 60.5736 199.139C60.9613 198.569 61.3149 197.771 61.6115 196.892V201.158H62.8433V196.299C63.0942 196.813 63.3451 197.349 63.4934 197.702L64.1891 196.733ZM67.9187 198.386V197.839H68.9338V198.386H67.9187ZM65.7289 197.839H66.6983V198.386H65.7289V197.839ZM66.6983 196.47V196.961H65.7289V196.47H66.6983ZM68.9338 196.47V196.961H67.9187V196.47H68.9338ZM66.6869 193.665H67.9416V194.144H66.6869V193.665ZM66.6869 192.284H67.9416V192.752H66.6869V192.284ZM70.8043 198.386H70.1884V195.535H67.9187V195.102H70.6903V194.144H69.2076V193.665H70.3025V192.752H69.2076V192.284H70.485V191.349H69.2076V190.517H67.9416V191.349H66.6869V190.517H65.4323V191.349H64.2576V192.284H65.4323V192.752H64.4971V193.665H65.4323V194.144H64.018V195.102H66.6983V195.535H64.5085V198.386H63.8127V199.379H64.5085V201.078H65.7289V199.379H68.9338V199.858C68.9338 199.995 68.8882 200.029 68.7399 200.029C68.6031 200.029 68.1354 200.04 67.7134 200.017C67.8617 200.325 68.01 200.77 68.067 201.09C68.7856 201.09 69.3216 201.078 69.698 200.907C70.0744 200.725 70.1884 200.439 70.1884 199.869V199.379H70.8043V198.386Z" fill="#F39423"/>
<path d="M73.6101 192.376C73.8154 192.729 74.0207 193.129 74.1006 193.414L75.1955 193.094C75.1271 192.9 74.9902 192.638 74.8419 192.376H76.4387C76.2904 192.513 76.1422 192.638 75.9939 192.752C76.3132 192.889 76.9063 193.197 77.1801 193.402C77.488 193.129 77.796 192.775 78.0811 192.376H78.7084C78.9707 192.718 79.2217 193.129 79.3357 193.402L80.4877 193.071C80.3964 192.878 80.2367 192.627 80.0543 192.376H82.0502V191.315H78.7426C78.8453 191.121 78.9365 190.927 79.0164 190.733L77.7275 190.425C77.488 191.053 77.1002 191.669 76.644 192.159V191.315H74.1006C74.2032 191.133 74.2944 190.95 74.3743 190.768L73.1083 190.425C72.7661 191.269 72.1274 192.113 71.4431 192.661C71.751 192.821 72.2871 193.186 72.538 193.402C72.8345 193.129 73.1425 192.775 73.4276 192.376H73.6101ZM79.427 194.36V195.512C79.119 195.216 78.6742 194.885 78.3092 194.623L77.7389 195.113C77.7503 194.953 77.7617 194.805 77.7617 194.645V194.36H79.427ZM81.9704 198.512V197.451H77.4538V196.767H76.8037C77.3055 196.379 77.5678 195.9 77.6819 195.41C78.1039 195.752 78.5601 196.174 78.7882 196.47L79.4384 195.889C79.4612 196.322 79.541 196.505 79.6893 196.664C79.8832 196.858 80.1911 196.938 80.4763 196.938H81.0351C81.229 196.938 81.48 196.904 81.6396 196.824C81.8107 196.733 81.9362 196.584 82.016 196.379C82.0844 196.197 82.1301 195.729 82.1643 195.296C81.8906 195.193 81.4914 195.01 81.2861 194.828C81.2747 195.193 81.2632 195.489 81.2404 195.615C81.2176 195.752 81.1834 195.82 81.1492 195.843C81.115 195.877 81.0694 195.877 81.0123 195.877H80.8298C80.7842 195.877 80.75 195.866 80.7272 195.82C80.693 195.786 80.7044 195.672 80.7044 195.478V193.471H76.5299V194.611C76.5299 195.022 76.4501 195.432 76.0509 195.797L76.0167 195.239L74.6024 195.444V194.463H76.0281V193.528H71.9335V194.463H73.3706V195.615C72.7319 195.706 72.1502 195.786 71.6712 195.843L71.8194 196.915C72.7433 196.767 73.9067 196.596 75.0928 196.413C75.3552 196.607 75.7772 197.029 75.9254 197.257C76.0053 197.223 76.0737 197.2 76.1422 197.166V197.451H71.6598V198.512H75.1499C74.1918 199.105 72.7775 199.573 71.4431 199.789C71.7168 200.063 72.0818 200.576 72.2757 200.896C73.6671 200.565 75.1042 199.915 76.1422 199.082V201.135H77.4538V199.105C78.5031 199.938 79.9288 200.565 81.3089 200.861C81.5028 200.531 81.8906 199.995 82.1757 199.71C80.7956 199.516 79.3357 199.082 78.3548 198.512H81.9704Z" fill="#F39423"/>
<path d="M85.221 196.527C84.5709 197.862 83.7497 199.299 83.1794 200.166L84.3656 201.01C85.0043 199.892 85.6772 198.58 86.2475 197.371L85.221 196.527ZM85.6886 194.725C85.2324 194.337 84.2857 193.893 83.5786 193.642L82.86 194.657C83.5786 194.965 84.4796 195.467 84.913 195.854L85.6886 194.725ZM91.1975 195.718V196.185H88.4031V195.683H87.4451C88.2663 195.467 89.0418 195.204 89.749 194.874C90.5588 195.261 91.4484 195.512 92.3837 195.718H91.1975ZM88.3347 198.101C88.3803 197.828 88.3917 197.554 88.4031 197.314H91.1975V198.101H88.3347ZM90.8097 192.718C90.536 193.026 90.2052 193.3 89.8174 193.539C89.4182 193.322 89.0418 193.049 88.6769 192.718H90.8097ZM93.3988 192.718V191.543H90.4903V190.528H89.0875V191.543H86.2247V191.623C85.7456 191.258 84.9016 190.825 84.2515 190.574L83.5101 191.577C84.2287 191.885 85.1183 192.41 85.5289 192.809L86.2247 191.817V192.718H87.1143C87.5477 193.3 88.0267 193.756 88.54 194.144C87.7074 194.44 86.7493 194.645 85.757 194.782C85.9623 195.045 86.2817 195.615 86.3958 195.923C86.6353 195.877 86.8748 195.82 87.1029 195.763V197.006C87.1029 197.976 86.9546 199.561 85.6772 200.565C86.008 200.713 86.5212 201.078 86.7607 201.283C87.4679 200.713 87.8671 199.972 88.1066 199.219H91.1975V201.147H92.5319V195.752L92.9425 195.832C93.068 195.41 93.376 194.919 93.6725 194.611C92.7372 194.486 91.8704 194.326 91.0606 194.075C91.5625 193.687 91.9959 193.243 92.3381 192.718H93.3988Z" fill="#F39423"/>
<path d="M96.3528 191.543L96.4098 193.014C96.7064 192.969 97.1056 192.935 97.3337 192.923C97.8583 192.889 98.8392 192.855 99.2954 192.832C99.0331 193.368 98.7024 194.144 98.383 194.896C96.0905 194.999 94.4823 196.345 94.4823 198.113C94.4823 199.265 95.2351 199.96 96.2388 199.96C97.0143 199.96 97.5618 199.641 98.018 198.957C98.4172 198.329 98.8963 197.189 99.3069 196.219C100.288 196.356 101.2 196.698 102.01 197.143C101.634 198.181 100.835 199.265 99.113 200.006L100.322 200.998C101.85 200.2 102.717 199.196 103.219 197.907C103.573 198.17 103.903 198.432 104.2 198.706L104.861 197.12C104.531 196.892 104.12 196.63 103.641 196.356C103.755 195.718 103.812 195.01 103.858 194.246L102.364 194.075C102.398 194.417 102.398 194.874 102.364 195.318C102.352 195.444 102.341 195.569 102.329 195.706C101.588 195.387 100.744 195.113 99.8543 194.976C100.265 194.007 100.698 193.014 100.995 192.524C101.086 192.364 101.223 192.216 101.383 192.045L100.47 191.338C100.276 191.418 99.9798 191.486 99.6946 191.498C99.1586 191.543 97.9496 191.6 97.2995 191.6C97.0485 191.6 96.6608 191.577 96.3528 191.543ZM95.8167 197.896C95.8167 197.177 96.5353 196.402 97.8127 196.208C97.4934 196.927 97.1854 197.645 96.8889 198.067C96.6836 198.352 96.5239 198.466 96.2958 198.466C96.0335 198.466 95.8167 198.272 95.8167 197.896Z" fill="#F39423"/>
<path d="M115.891 196.162C115.891 193.676 114.111 191.714 111.283 191.714C108.329 191.714 106.048 193.961 106.048 196.596C106.048 198.523 107.097 199.915 108.363 199.915C109.606 199.915 110.587 198.501 111.271 196.197C111.602 195.124 111.796 194.075 111.956 193.106C113.495 193.368 114.351 194.543 114.351 196.117C114.351 197.782 113.21 198.831 111.75 199.173C111.442 199.242 111.123 199.31 110.69 199.356L111.545 200.713C114.419 200.268 115.891 198.569 115.891 196.162ZM107.507 196.448C107.507 195.193 108.523 193.528 110.404 193.14C110.279 194.087 110.062 195.056 109.8 195.9C109.332 197.44 108.888 198.158 108.408 198.158C107.964 198.158 107.507 197.599 107.507 196.448Z" fill="#F39423"/>
<path d="M124.969 193.197C124.969 192.798 125.289 192.467 125.688 192.467C126.087 192.467 126.418 192.798 126.418 193.197C126.418 193.596 126.087 193.915 125.688 193.915C125.289 193.915 124.969 193.596 124.969 193.197ZM124.217 193.197C124.217 194.018 124.867 194.668 125.688 194.668C126.509 194.668 127.171 194.018 127.171 193.197C127.171 192.376 126.509 191.714 125.688 191.714C124.867 191.714 124.217 192.376 124.217 193.197ZM117.122 196.927L118.491 198.341C118.696 198.044 118.97 197.645 119.232 197.28C119.689 196.664 120.498 195.535 120.943 194.965C121.274 194.554 121.513 194.531 121.878 194.896C122.289 195.318 123.304 196.425 123.966 197.212C124.639 197.999 125.608 199.173 126.372 200.12L127.627 198.774C126.749 197.839 125.585 196.573 124.821 195.763C124.137 195.022 123.259 194.109 122.494 193.391C121.605 192.558 120.932 192.684 120.259 193.482C119.472 194.417 118.582 195.535 118.069 196.06C117.715 196.402 117.465 196.653 117.122 196.927Z" fill="#F39423"/>
<path d="M129.178 194.896V196.687C129.6 196.653 130.364 196.63 131.014 196.63H137.139C137.618 196.63 138.2 196.676 138.474 196.687V194.896C138.177 194.919 137.675 194.965 137.139 194.965H131.014C130.421 194.965 129.589 194.931 129.178 194.896Z" fill="#F39423"/>
<path d="M147.638 191.418L146.679 191.817C147.09 192.399 147.352 192.889 147.683 193.608L148.675 193.186C148.413 192.661 147.957 191.897 147.638 191.418ZM149.2 190.87L148.231 191.269C148.653 191.84 148.938 192.284 149.303 193.003L150.272 192.57C149.999 192.068 149.554 191.326 149.2 190.87ZM142.676 191.201L141.855 192.456C142.608 192.878 143.794 193.642 144.433 194.087L145.277 192.832C144.684 192.41 143.429 191.612 142.676 191.201ZM140.566 199.299L141.422 200.793C142.425 200.611 144.068 200.04 145.231 199.39C147.09 198.307 148.71 196.87 149.759 195.284L148.881 193.733C147.98 195.364 146.383 196.927 144.444 198.01C143.212 198.694 141.844 199.082 140.566 199.299ZM140.92 193.801L140.098 195.056C140.863 195.467 142.049 196.231 142.699 196.687L143.532 195.41C142.95 194.999 141.695 194.212 140.92 193.801Z" fill="#F39423"/>
<path d="M156.26 191.03L154.755 190.904C154.732 191.315 154.652 191.76 154.527 192.216C154.344 192.216 154.15 192.216 153.979 192.216C153.397 192.216 152.553 192.17 151.972 192.079V193.414C152.599 193.459 153.432 193.482 153.899 193.482C153.945 193.482 153.99 193.482 154.047 193.482C153.534 194.509 152.724 195.524 151.527 196.63L152.747 197.542C153.135 197.041 153.466 196.63 153.808 196.288C154.241 195.866 154.949 195.501 155.587 195.501C155.907 195.501 156.215 195.604 156.386 195.889C155.085 196.562 153.717 197.474 153.717 198.934C153.717 200.405 155.04 200.839 156.83 200.839C157.903 200.839 159.305 200.747 160.058 200.645L160.104 199.173C159.1 199.367 157.834 199.493 156.865 199.493C155.747 199.493 155.211 199.322 155.211 198.694C155.211 198.124 155.667 197.679 156.522 197.189C156.511 197.691 156.5 198.238 156.465 198.58H157.834C157.823 198.056 157.8 197.212 157.789 196.573C158.484 196.254 159.134 196.003 159.648 195.797C160.035 195.649 160.64 195.421 161.005 195.318L160.435 193.995C160.013 194.212 159.613 194.395 159.169 194.588C158.701 194.794 158.222 194.988 157.629 195.261C157.378 194.68 156.808 194.383 156.112 194.383C155.736 194.383 155.12 194.474 154.823 194.611C155.051 194.28 155.279 193.87 155.473 193.448C156.705 193.414 158.108 193.322 159.191 193.163L159.203 191.84C158.199 192.011 157.059 192.113 155.975 192.17C156.123 191.691 156.203 191.315 156.26 191.03Z" fill="#F39423"/>
<path d="M68.8882 210.775L67.702 210.182C67.5081 210.262 66.9379 210.33 66.6413 210.33H63.0372C62.6494 210.33 62.1247 210.284 61.7597 210.239V211.847C62.1703 211.813 62.5923 211.801 63.0486 211.801H66.9835C66.9607 212.543 66.5615 214.961 66.3448 216.204H61.6343C61.2807 216.204 60.8701 216.17 60.5051 216.113V217.767C60.8929 217.732 61.2921 217.71 61.6343 217.71H69.2418C69.5041 217.71 69.9831 217.721 70.3025 217.767V216.113C70.006 216.147 69.641 216.204 69.2418 216.204H68.01C68.2267 214.927 68.6373 212.326 68.7742 211.288C68.7856 211.197 68.8426 210.935 68.8882 210.775Z" fill="#F39423"/>
<path d="M72.1502 212.896V214.687C72.5722 214.653 73.3364 214.63 73.9865 214.63H80.1113C80.5903 214.63 81.172 214.676 81.4457 214.687V212.896C81.1492 212.919 80.6473 212.965 80.1113 212.965H73.9865C73.3934 212.965 72.5608 212.931 72.1502 212.896Z" fill="#F39423"/>
<path d="M91.602 209.304L90.8379 209.555C91.0546 210.011 91.2599 210.638 91.4195 211.117L92.2065 210.866C92.0811 210.421 91.8187 209.76 91.602 209.304ZM92.7768 208.939L92.0012 209.19C92.2407 209.634 92.4575 210.25 92.6171 210.741L93.4041 210.49C93.2558 210.056 92.9935 209.395 92.7768 208.939ZM90.6212 213.307V212.931H91.4766C92.0697 212.931 92.4689 212.942 92.7198 212.965V211.448C92.4118 211.505 92.0697 211.528 91.4652 211.528H90.6212V210.33C90.6212 209.874 90.6668 209.509 90.701 209.269H89.07C89.1042 209.498 89.1384 209.874 89.1384 210.33V211.528H86.4353V210.41C86.4353 209.954 86.4809 209.589 86.5037 209.372H84.8842C84.9184 209.726 84.9526 210.068 84.9526 210.399V211.528H83.9831C83.4128 211.528 82.9566 211.459 82.7513 211.425V212.976C83.0022 212.965 83.4128 212.931 83.9831 212.931H84.9526V214.482C84.9526 214.995 84.9184 215.451 84.8842 215.679H86.4809C86.4695 215.451 86.4353 214.995 86.4353 214.482V212.931H89.1384V213.364C89.1384 216.17 88.169 217.151 85.9677 217.926L87.1881 219.078C89.9482 217.858 90.6212 216.136 90.6212 213.307Z" fill="#F39423"/>
<path d="M94.7386 212.896V214.687C95.1606 214.653 95.9247 214.63 96.5749 214.63H102.7C103.179 214.63 103.76 214.676 104.034 214.687V212.896C103.738 212.919 103.236 212.965 102.7 212.965H96.5749C95.9818 212.965 95.1492 212.931 94.7386 212.896Z" fill="#F39423"/>
<path d="M110.205 210.205V211.665C111.642 211.801 113.706 211.79 115.109 211.665V210.193C113.877 210.342 111.607 210.399 110.205 210.205ZM111.117 215.075L109.805 214.949C109.68 215.531 109.611 215.987 109.611 216.432C109.611 217.607 110.558 218.303 112.52 218.303C113.809 218.303 114.721 218.223 115.462 218.086L115.44 216.546C114.436 216.751 113.592 216.843 112.577 216.843C111.413 216.843 110.98 216.535 110.98 216.033C110.98 215.725 111.026 215.451 111.117 215.075ZM108.448 209.44L106.851 209.304C106.84 209.669 106.771 210.102 106.737 210.421C106.612 211.3 106.258 213.227 106.258 214.938C106.258 216.489 106.475 217.881 106.703 218.668L108.026 218.576C108.015 218.417 108.003 218.234 108.003 218.109C108.003 217.995 108.026 217.744 108.06 217.573C108.186 216.968 108.562 215.725 108.881 214.778L108.174 214.219C108.015 214.596 107.832 214.995 107.661 215.383C107.627 215.155 107.615 214.858 107.615 214.641C107.615 213.501 108.015 211.22 108.163 210.456C108.209 210.25 108.357 209.68 108.448 209.44Z" fill="#F39423"/>
<path d="M125.191 212.497C124.963 213.113 124.667 213.672 124.29 214.162C123.891 213.672 123.572 213.113 123.332 212.497H125.191ZM125.978 211.254L125.727 211.288H122.123V210.227H127.096V208.961H120.823V211.608C120.823 213.045 120.72 215.029 119.648 216.386C119.968 216.512 120.549 216.888 120.789 217.116C121.713 215.907 122.009 214.151 122.101 212.668C122.42 213.604 122.842 214.413 123.378 215.109C122.808 215.588 122.135 215.964 121.405 216.204C121.667 216.466 122.009 217.002 122.169 217.345C122.967 217.025 123.686 216.615 124.313 216.09C124.975 216.649 125.75 217.082 126.686 217.379C126.868 217.014 127.256 216.466 127.552 216.204C126.651 215.964 125.899 215.599 125.26 215.109C125.99 214.185 126.537 212.999 126.845 211.528L125.978 211.254ZM119.911 210.524C119.534 209.988 118.713 209.269 118.052 208.779L117.036 209.589C117.698 210.102 118.496 210.878 118.827 211.414L119.911 210.524ZM119.614 212.942H117.036V214.185H118.291V216.592C117.801 216.98 117.242 217.367 116.786 217.641L117.447 219.055C118.052 218.576 118.542 218.132 119.032 217.687C119.774 218.576 120.72 218.896 122.135 218.953C123.503 219.01 125.796 218.987 127.176 218.919C127.233 218.531 127.438 217.869 127.598 217.55C126.081 217.664 123.492 217.698 122.158 217.641C120.96 217.595 120.093 217.288 119.614 216.523V212.942Z" fill="#F39423"/>
<path d="M131.613 215.189C131.818 215.565 132.023 215.976 132.217 216.398L130.381 216.592C130.7 215.828 131.042 214.904 131.35 214.06H133.985V212.805H131.841V211.357H133.632V210.125H131.841V208.517H130.518V210.125H128.647V211.357H130.518V212.805H128.282V214.06H129.833C129.64 214.938 129.332 215.953 129.035 216.729L128.282 216.797L128.476 218.109L132.719 217.561C132.845 217.892 132.947 218.189 133.004 218.451L134.19 217.949C133.962 217.071 133.301 215.748 132.708 214.744L131.613 215.189ZM138.479 209.201H134.327V219.169H135.65V210.467H137.156V215.839C137.156 215.976 137.11 216.021 136.973 216.021C136.836 216.033 136.414 216.033 136.004 216.01C136.186 216.386 136.392 217.014 136.437 217.413C137.122 217.413 137.612 217.367 137.988 217.139C138.376 216.9 138.479 216.478 138.479 215.873V209.201Z" fill="#F39423"/>
<rect x="15.8582" y="164.881" width="151.274" height="62.4026" rx="2.10102" stroke="#F39423" stroke-width="3.00146"/>
<path d="M183.039 223.806L188.238 218.607L183.039 213.409L177.84 218.607L183.039 223.806ZM183.676 129.127C183.324 128.776 182.754 128.776 182.402 129.127L176.672 134.858C176.32 135.209 176.32 135.78 176.672 136.131C177.024 136.483 177.594 136.483 177.945 136.131L183.039 131.038L188.133 136.131C188.484 136.483 189.054 136.483 189.406 136.131C189.758 135.78 189.758 135.209 189.406 134.858L183.676 129.127ZM183.94 218.607V129.764H182.139V218.607H183.94Z" fill="#F39423"/>
<g clip-path="url(#clip2_702_10799)">
<path d="M259.723 126.652L254.524 131.851L259.723 137.05L264.921 131.851L259.723 126.652ZM259.086 169.505C259.438 169.856 260.008 169.856 260.359 169.505L266.09 163.774C266.441 163.423 266.441 162.852 266.09 162.501C265.738 162.149 265.168 162.149 264.816 162.501L259.723 167.594L254.629 162.501C254.277 162.149 253.707 162.149 253.356 162.501C253.004 162.852 253.004 163.423 253.356 163.774L259.086 169.505ZM258.822 131.851V168.868H260.623V131.851H258.822Z" fill="#121212"/>
<rect width="39.6193" height="61.8023" transform="translate(275.932 119.458)" fill="#121212"/>
<path d="M284.143 162.859V158.321H288.897V142.185H284.539V137.647H294.12V158.321H298.37V162.859H284.143ZM305.528 163.292C304.615 163.292 303.823 162.968 303.151 162.319C302.502 161.647 302.178 160.854 302.178 159.942C302.178 159.03 302.502 158.249 303.151 157.601C303.823 156.929 304.615 156.592 305.528 156.592C306.44 156.592 307.221 156.929 307.869 157.601C308.541 158.249 308.877 159.03 308.877 159.942C308.877 160.542 308.721 161.107 308.409 161.635C308.121 162.139 307.725 162.547 307.221 162.859C306.716 163.148 306.152 163.292 305.528 163.292Z" fill="#EDEDED"/>
<path d="M323.073 154.842C322.427 154.842 321.853 154.709 321.351 154.443C320.856 154.177 320.465 153.8 320.176 153.313C319.895 152.819 319.754 152.234 319.754 151.557V146.721H321.385V151.66C321.385 151.979 321.453 152.272 321.59 152.538C321.727 152.796 321.921 153.006 322.172 153.165C322.43 153.325 322.735 153.405 323.084 153.405C323.426 153.405 323.723 153.325 323.974 153.165C324.225 153.006 324.419 152.796 324.556 152.538C324.693 152.272 324.761 151.979 324.761 151.66V146.721H326.392V151.557C326.392 152.234 326.247 152.819 325.959 153.313C325.677 153.8 325.286 154.177 324.784 154.443C324.29 154.709 323.719 154.842 323.073 154.842Z" fill="#121212"/>
<path d="M327.931 154.705V146.721H331.501C332.025 146.721 332.501 146.839 332.926 147.075C333.36 147.303 333.702 147.622 333.953 148.033C334.211 148.443 334.341 148.922 334.341 149.47C334.341 150.002 334.215 150.474 333.964 150.884C333.713 151.287 333.383 151.606 332.972 151.842L333.702 153.12C333.732 153.165 333.77 153.203 333.816 153.234C333.862 153.256 333.915 153.268 333.976 153.268H334.751V154.705H333.725C333.405 154.705 333.113 154.625 332.847 154.465C332.588 154.306 332.383 154.097 332.231 153.838L331.33 152.219C331.261 152.219 331.189 152.219 331.113 152.219C331.044 152.219 330.976 152.219 330.908 152.219H329.562V154.705H327.931ZM329.562 150.781H331.307C331.565 150.781 331.801 150.732 332.014 150.633C332.227 150.527 332.394 150.375 332.516 150.177C332.645 149.979 332.71 149.744 332.71 149.47C332.71 149.196 332.645 148.96 332.516 148.763C332.386 148.565 332.215 148.417 332.003 148.318C331.797 148.211 331.565 148.158 331.307 148.158H329.562V150.781Z" fill="#121212"/>
<path d="M337.952 154.705C337.48 154.705 337.066 154.599 336.709 154.386C336.351 154.165 336.074 153.876 335.876 153.519C335.678 153.154 335.579 152.755 335.579 152.321V146.721H337.21V152.515C337.21 152.72 337.283 152.899 337.427 153.051C337.572 153.196 337.747 153.268 337.952 153.268H340.062V154.705H337.952Z" fill="#121212"/>
<path d="M340.709 151.306L342.1 152.732C342.294 152.435 342.556 152.025 342.819 151.648C343.309 150.998 344.119 149.869 344.575 149.299C344.906 148.877 345.123 148.82 345.522 149.265C346.058 149.869 346.913 150.953 347.62 151.797C348.339 152.641 349.308 153.747 350.13 154.522L351.304 153.154C350.221 152.184 349.251 151.158 348.521 150.359C347.848 149.63 346.936 148.455 346.16 147.702C345.328 146.892 344.586 146.972 343.788 147.873C343.081 148.694 342.203 149.869 341.678 150.416C341.336 150.781 341.051 151.044 340.709 151.306Z" fill="#121212"/>
<path d="M362.584 146.983L361.683 146.139C361.467 146.208 360.839 146.242 360.52 146.242H354.372C353.893 146.242 353.414 146.196 352.981 146.128V147.713C353.517 147.668 353.893 147.634 354.372 147.634H360.315C360.018 148.192 359.129 149.196 358.216 149.755L359.402 150.702C360.52 149.903 361.604 148.466 362.14 147.576C362.242 147.405 362.459 147.132 362.584 146.983ZM357.931 148.523H356.277C356.334 148.888 356.357 149.196 356.357 149.55C356.357 151.42 356.083 152.629 354.635 153.633C354.213 153.941 353.802 154.135 353.437 154.26L354.772 155.344C357.874 153.678 357.931 151.352 357.931 148.523Z" fill="#121212"/>
<path d="M369.065 145.809L367.4 145.261C367.297 145.649 367.058 146.174 366.887 146.459C366.316 147.44 365.324 148.911 363.328 150.131L364.605 151.078C365.723 150.314 366.716 149.31 367.48 148.318H370.685C370.502 149.173 369.841 150.542 369.065 151.432C368.073 152.561 366.807 153.553 364.469 154.249L365.814 155.458C367.959 154.614 369.339 153.564 370.422 152.241C371.449 150.964 372.099 149.447 372.407 148.432C372.498 148.147 372.658 147.827 372.783 147.611L371.62 146.892C371.358 146.972 370.981 147.029 370.628 147.029H368.335C368.347 147.006 368.358 146.995 368.369 146.972C368.506 146.721 368.803 146.208 369.065 145.809Z" fill="#121212"/>
<path d="M377.152 153.188C377.152 154.534 377.528 155.161 380.128 155.161C381.349 155.161 382.718 155.047 383.664 154.91L383.71 153.359C382.581 153.587 381.315 153.747 380.117 153.747C378.862 153.747 378.657 153.496 378.657 152.789V149.766C380.277 149.436 381.816 149.139 382.17 149.059C381.851 149.664 381.098 150.702 380.345 151.375L381.6 152.116C382.421 151.306 383.459 149.744 383.961 148.797C384.063 148.592 384.234 148.329 384.337 148.17L383.242 147.326C383.025 147.44 382.752 147.519 382.432 147.588C381.919 147.713 380.322 148.033 378.657 148.352V147.006C378.657 146.618 378.714 146.048 378.76 145.695H377.06C377.117 146.048 377.152 146.63 377.152 147.006V148.637C376.022 148.843 375.019 149.014 374.483 149.082L374.756 150.576C375.235 150.462 376.137 150.28 377.152 150.074V153.188Z" fill="#121212"/>
<path d="M394.853 146.972L393.918 146.276C393.69 146.356 393.233 146.425 392.743 146.425H388.717C388.375 146.425 387.679 146.39 387.371 146.345V147.964C387.61 147.953 388.238 147.884 388.717 147.884H392.583C392.332 148.694 391.637 149.823 390.884 150.679C389.812 151.876 388.044 153.268 386.208 153.952L387.382 155.184C388.945 154.443 390.462 153.256 391.671 151.979C392.743 153.017 393.804 154.18 394.545 155.207L395.845 154.078C395.172 153.256 393.792 151.797 392.663 150.816C393.427 149.789 394.066 148.569 394.454 147.679C394.556 147.451 394.762 147.097 394.853 146.972Z" fill="#121212"/>
<rect x="275.632" y="119.158" width="151.274" height="62.4026" rx="2.10102" stroke="#121212" stroke-width="3.00146"/>
</g>
<rect width="39.6193" height="61.8023" transform="translate(151.072 320.556)" fill="#2C9A2A"/>
<path d="M165.188 364.39C163.363 364.39 161.73 363.994 160.29 363.201C158.849 362.409 157.708 361.34 156.868 359.996C156.052 358.627 155.643 357.102 155.643 355.421V347.281C155.643 345.601 156.052 344.088 156.868 342.743C157.708 341.375 158.849 340.294 160.29 339.502C161.73 338.709 163.363 338.313 165.188 338.313C166.989 338.313 168.598 338.709 170.014 339.502C171.455 340.294 172.584 341.375 173.4 342.743C174.241 344.088 174.661 345.601 174.661 347.281V355.421C174.661 357.102 174.241 358.627 173.4 359.996C172.584 361.34 171.455 362.409 170.014 363.201C168.598 363.994 166.989 364.39 165.188 364.39ZM165.188 359.852C165.981 359.852 166.701 359.671 167.349 359.311C167.998 358.927 168.514 358.423 168.898 357.799C169.306 357.174 169.51 356.49 169.51 355.746V346.957C169.51 346.189 169.306 345.505 168.898 344.904C168.514 344.28 167.998 343.788 167.349 343.428C166.701 343.043 165.981 342.851 165.188 342.851C164.396 342.851 163.663 343.043 162.991 343.428C162.319 343.788 161.778 344.28 161.37 344.904C160.986 345.505 160.794 346.189 160.794 346.957V355.746C160.794 356.49 160.986 357.174 161.37 357.799C161.778 358.423 162.319 358.927 162.991 359.311C163.663 359.671 164.396 359.852 165.188 359.852ZM181.628 364.39C180.715 364.39 179.923 364.066 179.251 363.417C178.602 362.745 178.278 361.953 178.278 361.04C178.278 360.128 178.602 359.347 179.251 358.699C179.923 358.027 180.715 357.691 181.628 357.691C182.54 357.691 183.321 358.027 183.969 358.699C184.641 359.347 184.978 360.128 184.978 361.04C184.978 361.64 184.821 362.205 184.509 362.733C184.221 363.237 183.825 363.645 183.321 363.958C182.816 364.246 182.252 364.39 181.628 364.39Z" fill="#EDEDED"/>
<path d="M199.103 334.404C198.921 334.085 198.077 332.773 197.757 332.328V331.792H198.898V330.538H197.757V328.188H196.526V330.538H195.157V331.792H196.423C196.138 333.138 195.533 334.724 194.895 335.613C195.088 335.921 195.362 336.434 195.488 336.811C195.875 336.24 196.229 335.442 196.526 334.564V338.83H197.757V333.971C198.008 334.484 198.259 335.02 198.407 335.374L199.103 334.404ZM202.833 336.058V335.511H203.848V336.058H202.833ZM200.643 335.511H201.612V336.058H200.643V335.511ZM201.612 334.142V334.632H200.643V334.142H201.612ZM203.848 334.142V334.632H202.833V334.142H203.848ZM201.601 331.336H202.856V331.815H201.601V331.336ZM201.601 329.956H202.856V330.424H201.601V329.956ZM205.718 336.058H205.103V333.207H202.833V332.773H205.604V331.815H204.122V331.336H205.217V330.424H204.122V329.956H205.399V329.021H204.122V328.188H202.856V329.021H201.601V328.188H200.346V329.021H199.172V329.956H200.346V330.424H199.411V331.336H200.346V331.815H198.932V332.773H201.612V333.207H199.423V336.058H198.727V337.05H199.423V338.75H200.643V337.05H203.848V337.529C203.848 337.666 203.802 337.7 203.654 337.7C203.517 337.7 203.05 337.712 202.628 337.689C202.776 337.997 202.924 338.442 202.981 338.761C203.7 338.761 204.236 338.75 204.612 338.579C204.988 338.396 205.103 338.111 205.103 337.541V337.05H205.718V336.058Z" fill="#2C9A2A"/>
<path d="M208.524 330.047C208.729 330.401 208.935 330.8 209.015 331.085L210.11 330.766C210.041 330.572 209.904 330.31 209.756 330.047H211.353C211.204 330.184 211.056 330.31 210.908 330.424C211.227 330.561 211.82 330.868 212.094 331.074C212.402 330.8 212.71 330.446 212.995 330.047H213.622C213.885 330.389 214.136 330.8 214.25 331.074L215.402 330.743C215.31 330.549 215.151 330.298 214.968 330.047H216.964V328.987H213.657C213.759 328.793 213.851 328.599 213.93 328.405L212.642 328.097C212.402 328.724 212.014 329.34 211.558 329.831V328.987H209.015C209.117 328.804 209.209 328.622 209.288 328.439L208.022 328.097C207.68 328.941 207.041 329.785 206.357 330.332C206.665 330.492 207.201 330.857 207.452 331.074C207.749 330.8 208.057 330.446 208.342 330.047H208.524ZM214.341 332.032V333.184C214.033 332.887 213.588 332.556 213.223 332.294L212.653 332.785C212.664 332.625 212.676 332.477 212.676 332.317V332.032H214.341ZM216.884 336.183V335.123H212.368V334.438H211.718C212.22 334.051 212.482 333.572 212.596 333.081C213.018 333.423 213.474 333.845 213.702 334.142L214.352 333.56C214.375 333.994 214.455 334.176 214.603 334.336C214.797 334.53 215.105 334.609 215.39 334.609H215.949C216.143 334.609 216.394 334.575 216.554 334.495C216.725 334.404 216.85 334.256 216.93 334.051C216.999 333.868 217.044 333.401 217.078 332.967C216.805 332.864 216.405 332.682 216.2 332.499C216.189 332.864 216.177 333.161 216.155 333.286C216.132 333.423 216.097 333.492 216.063 333.515C216.029 333.549 215.983 333.549 215.926 333.549H215.744C215.698 333.549 215.664 333.537 215.641 333.492C215.607 333.458 215.618 333.343 215.618 333.15V331.142H211.444V332.283C211.444 332.693 211.364 333.104 210.965 333.469L210.931 332.91L209.516 333.115V332.134H210.942V331.199H206.848V332.134H208.285V333.286C207.646 333.378 207.064 333.458 206.585 333.515L206.734 334.587C207.657 334.438 208.821 334.267 210.007 334.085C210.269 334.279 210.691 334.701 210.84 334.929C210.919 334.895 210.988 334.872 211.056 334.838V335.123H206.574V336.183H210.064C209.106 336.777 207.692 337.244 206.357 337.461C206.631 337.735 206.996 338.248 207.19 338.567C208.581 338.236 210.018 337.586 211.056 336.754V338.807H212.368V336.777C213.417 337.609 214.843 338.236 216.223 338.533C216.417 338.202 216.805 337.666 217.09 337.381C215.71 337.187 214.25 336.754 213.269 336.183H216.884Z" fill="#2C9A2A"/>
<path d="M223.203 329.751C223.272 329.945 223.34 330.184 223.431 330.446C222.222 330.526 220.762 330.492 219.052 330.287L219.074 331.747C221.025 331.906 222.587 331.895 223.944 331.792C224.264 332.556 224.674 333.309 225.017 333.857C224.663 333.834 223.91 333.765 223.351 333.72L223.237 334.929C224.195 335.009 225.633 335.157 226.271 335.282L226.978 334.256C226.773 334.028 226.556 333.777 226.362 333.492C226.077 333.081 225.678 332.374 225.347 331.633C226.066 331.53 226.796 331.393 227.378 331.222L227.195 329.785C226.477 330.002 225.678 330.184 224.857 330.31C224.663 329.739 224.492 329.123 224.378 328.519L222.838 328.701C222.986 329.078 223.112 329.488 223.203 329.751ZM221.333 334.176L219.907 333.845C219.519 334.621 219.302 335.271 219.302 335.967C219.302 337.609 220.774 338.51 223.1 338.522C224.492 338.522 225.518 338.373 226.169 338.248L226.248 336.811C225.439 336.97 224.435 337.085 223.192 337.085C221.629 337.085 220.774 336.674 220.774 335.716C220.774 335.214 220.968 334.712 221.333 334.176Z" fill="#2C9A2A"/>
<path d="M231.928 329.625C231.928 329.751 231.906 330.07 231.883 330.503C231.392 330.572 230.89 330.629 230.56 330.652C230.161 330.675 229.898 330.675 229.567 330.663L229.716 332.123C230.354 332.032 231.233 331.918 231.792 331.849C231.78 332.123 231.757 332.397 231.735 332.659C231.084 333.617 229.944 335.123 229.294 335.921L230.195 337.164C230.594 336.628 231.153 335.796 231.632 335.077C231.62 336.035 231.609 336.697 231.586 337.586C231.586 337.769 231.575 338.168 231.552 338.43H233.126C233.092 338.168 233.058 337.757 233.046 337.552C232.978 336.48 232.978 335.522 232.978 334.587C232.978 334.29 232.989 333.982 233.001 333.663C233.936 332.636 235.168 331.587 236.012 331.587C236.491 331.587 236.787 331.872 236.787 332.431C236.787 333.469 236.377 335.146 236.377 336.377C236.377 337.484 236.947 338.1 237.802 338.1C238.726 338.1 239.422 337.746 239.947 337.256L239.764 335.647C239.239 336.172 238.703 336.469 238.281 336.469C237.996 336.469 237.848 336.252 237.848 335.955C237.848 334.781 238.224 333.104 238.224 331.918C238.224 330.96 237.665 330.23 236.434 330.23C235.327 330.23 234.016 331.154 233.115 331.941C233.126 331.849 233.126 331.77 233.137 331.69C233.331 331.393 233.559 331.017 233.719 330.811L233.297 330.264C233.377 329.557 233.48 328.975 233.548 328.656L231.883 328.599C231.94 328.952 231.928 329.295 231.928 329.625Z" fill="#2C9A2A"/>
<path d="M246.927 335.066L245.569 334.929C245.478 335.385 245.364 335.933 245.364 336.457C245.364 337.609 246.402 338.271 248.318 338.271C249.231 338.271 250.006 338.191 250.645 338.111L250.702 336.651C249.881 336.799 249.094 336.891 248.33 336.891C247.109 336.891 246.767 336.514 246.767 336.012C246.767 335.761 246.835 335.385 246.927 335.066ZM245.638 328.747L243.893 328.61C243.927 328.873 243.904 329.34 243.859 329.762C243.836 329.945 243.802 330.161 243.756 330.412C243.402 330.435 243.06 330.446 242.729 330.446C242.262 330.446 241.874 330.424 241.292 330.355L241.327 331.781C241.726 331.804 242.159 331.827 242.707 331.827C242.946 331.827 243.197 331.815 243.459 331.804C243.391 332.134 243.3 332.454 243.22 332.762C242.798 334.359 241.931 336.754 241.247 337.894L242.832 338.43C243.471 337.073 244.235 334.746 244.646 333.15C244.771 332.682 244.885 332.18 244.988 331.69C245.752 331.598 246.528 331.473 247.212 331.313V329.888C246.585 330.036 245.946 330.161 245.307 330.253C245.341 330.093 245.376 329.945 245.398 329.819C245.444 329.568 245.547 329.055 245.638 328.747ZM246.311 332.192V333.526C247.029 333.446 247.737 333.412 248.512 333.412C249.208 333.412 249.904 333.48 250.474 333.549L250.508 332.18C249.835 332.112 249.151 332.077 248.501 332.077C247.771 332.077 246.95 332.134 246.311 332.192Z" fill="#2C9A2A"/>
<path d="M262.324 330.378C262.073 329.842 261.503 329.032 261.047 328.439L260.032 328.998C260.465 329.648 261.001 330.492 261.218 331.028L262.324 330.378ZM262.507 332.693V331.348H259.496V331.108V328.211H258.15V331.108V331.348H255.834V332.693H258.07C257.887 334.359 257.306 336.229 255.549 337.814V328.177H254.203V331.302C253.907 330.777 253.485 330.127 253.12 329.637L252.059 330.253C252.515 330.937 253.074 331.884 253.291 332.465L254.203 331.906V333.526C253.382 334.233 252.538 334.895 251.991 335.294L252.675 336.457C253.154 336.069 253.679 335.602 254.203 335.134V338.818H255.549V338.077C255.891 338.305 256.245 338.59 256.473 338.83C257.876 337.609 258.663 336.172 259.062 334.724C259.69 336.446 260.568 337.883 261.845 338.807C262.062 338.43 262.507 337.917 262.826 337.666C261.252 336.697 260.226 334.826 259.678 332.693H262.507Z" fill="#2C9A2A"/>
<path d="M272.407 331.884C273.353 331.884 273.707 331.587 273.832 330.469C273.49 330.412 272.988 330.23 272.737 330.059C272.703 330.709 272.623 330.811 272.281 330.811H270.935C270.479 330.811 270.422 330.766 270.422 330.458V330.139C271.414 329.933 272.544 329.637 273.399 329.272L272.464 328.462C271.973 328.724 271.198 328.987 270.422 329.192V328.268H269.168V330.458C269.168 331.553 269.475 331.884 270.776 331.884H272.407ZM272.464 335.739C273.422 335.739 273.775 335.419 273.901 334.256C273.57 334.199 273.057 334.016 272.806 333.834C272.76 334.541 272.692 334.655 272.338 334.655H270.947C270.479 334.655 270.422 334.621 270.422 334.279V333.982C271.471 333.777 272.646 333.458 273.524 333.058L272.589 332.249C272.065 332.534 271.243 332.807 270.422 333.024V331.986H269.168V334.29C269.168 335.396 269.476 335.739 270.787 335.739H272.464ZM263.659 330.72C264.799 330.675 266.339 330.629 267.856 330.549C267.947 330.72 268.038 330.88 268.095 331.028L269.111 330.458C268.86 329.91 268.232 329.123 267.662 328.565L266.715 329.066C266.864 329.226 267.023 329.409 267.172 329.591L265.769 329.625C266.031 329.26 266.305 328.85 266.556 328.45L265.221 328.131C265.05 328.576 264.765 329.158 264.48 329.659L263.602 329.671L263.659 330.72ZM264.48 338.636C265.312 338.134 265.814 337.324 266.122 336.48L264.97 336.047C264.708 336.777 264.149 337.472 263.419 337.894L264.48 338.636ZM265.392 333.549V333.127H267.24V333.549H265.392ZM267.24 331.998V332.397H265.392V331.998H267.24ZM267.537 335.967C268.152 336.275 268.871 336.799 269.19 337.187L270.069 336.366C269.704 335.978 268.974 335.511 268.381 335.225C268.438 335.077 268.46 334.895 268.46 334.644V331.119H264.183V335.739H265.392V334.302H267.24V334.644C267.24 334.758 267.194 334.792 267.069 334.803C266.978 334.803 266.59 334.803 266.248 334.792C266.385 335.032 266.544 335.419 266.601 335.716C267.183 335.716 267.639 335.704 267.97 335.568L267.537 335.967ZM268.369 337.643C267.867 337.643 267.765 337.609 267.765 337.313V336.172H266.442V337.324C266.442 338.396 266.795 338.727 268.209 338.727H270.08C271.106 338.727 271.471 338.419 271.608 337.21C271.266 337.142 270.73 336.97 270.468 336.777C270.422 337.529 270.342 337.643 269.932 337.643H268.369ZM271.084 336.537C271.825 337.153 272.612 338.043 272.897 338.658L274.072 337.997C273.73 337.335 272.909 336.514 272.156 335.944L271.084 336.537Z" fill="#2C9A2A"/>
<path d="M285.021 333.834C285.021 331.348 283.242 329.386 280.413 329.386C277.459 329.386 275.178 331.633 275.178 334.267C275.178 336.195 276.228 337.586 277.494 337.586C278.737 337.586 279.718 336.172 280.402 333.868C280.733 332.796 280.927 331.747 281.086 330.777C282.626 331.04 283.482 332.214 283.482 333.788C283.482 335.454 282.341 336.503 280.881 336.845C280.573 336.913 280.254 336.982 279.82 337.027L280.676 338.385C283.55 337.94 285.021 336.24 285.021 333.834ZM276.638 334.119C276.638 332.864 277.653 331.199 279.535 330.811C279.41 331.758 279.193 332.728 278.931 333.572C278.463 335.111 278.018 335.83 277.539 335.83C277.094 335.83 276.638 335.271 276.638 334.119Z" fill="#2C9A2A"/>
<path d="M201.133 346.53H199.377C199.457 347.021 199.468 347.26 199.468 347.58V348.458H197.027C196.594 348.458 196.252 348.446 195.864 348.401C195.91 348.675 195.921 349.131 195.921 349.382V351.355C195.921 351.663 195.898 352.028 195.864 352.313H197.438C197.415 352.085 197.404 351.731 197.404 351.469V349.804H203.061C202.924 350.819 202.628 351.902 202.046 352.735C201.407 353.659 200.403 354.332 199.457 354.685C198.989 354.868 198.362 355.039 197.849 355.13L199.035 356.499C201.065 355.974 202.776 354.765 203.688 353.077C204.247 352.039 204.555 350.944 204.749 349.849C204.795 349.621 204.886 349.188 204.977 348.937L203.985 348.332C203.791 348.401 203.517 348.458 203.038 348.458H201.054V347.58C201.054 347.26 201.076 347.021 201.133 346.53Z" fill="#2C9A2A"/>
<path d="M208.262 349.667V351.104C208.513 351.081 208.923 351.058 209.163 351.058H210.942V354.731H208.615C208.33 354.731 207.977 354.697 207.68 354.663V356.157C207.988 356.111 208.342 356.1 208.615 356.1H214.923C215.117 356.1 215.539 356.111 215.79 356.157V354.663C215.55 354.685 215.231 354.731 214.923 354.731H212.436V351.058H214.387C214.649 351.058 214.991 351.081 215.276 351.104V349.667C215.003 349.701 214.66 349.724 214.387 349.724H209.163C208.912 349.724 208.513 349.712 208.262 349.667Z" fill="#2C9A2A"/>
<path d="M226.077 346.234L225.142 346.622C225.359 346.952 225.587 347.352 225.781 347.728C225.575 347.751 225.382 347.751 225.245 347.751H219.964C219.588 347.751 218.937 347.705 218.607 347.659V349.268C218.903 349.245 219.439 349.222 219.964 349.222H225.268C225.119 350.203 224.686 351.492 223.933 352.438C223.009 353.602 221.72 354.594 219.462 355.119L220.705 356.487C222.747 355.826 224.264 354.697 225.29 353.328C226.248 352.062 226.739 350.294 227.013 349.176C227.07 348.937 227.149 348.606 227.264 348.389L226.534 347.91L226.956 347.739C226.75 347.329 226.374 346.667 226.077 346.234ZM227.674 345.949L226.727 346.325C227.035 346.747 227.389 347.397 227.64 347.865L228.587 347.454C228.37 347.055 227.959 346.359 227.674 345.949Z" fill="#2C9A2A"/>
<path d="M237.072 348.868C237.072 348.469 237.392 348.139 237.791 348.139C238.19 348.139 238.521 348.469 238.521 348.868C238.521 349.268 238.19 349.587 237.791 349.587C237.392 349.587 237.072 349.268 237.072 348.868ZM236.32 348.868C236.32 349.69 236.97 350.34 237.791 350.34C238.612 350.34 239.274 349.69 239.274 348.868C239.274 348.047 238.612 347.386 237.791 347.386C236.97 347.386 236.32 348.047 236.32 348.868ZM229.225 352.598L230.594 354.012C230.799 353.716 231.073 353.317 231.335 352.952C231.792 352.336 232.601 351.207 233.046 350.636C233.377 350.226 233.616 350.203 233.981 350.568C234.392 350.99 235.407 352.096 236.069 352.883C236.742 353.67 237.711 354.845 238.475 355.792L239.73 354.446C238.852 353.511 237.688 352.245 236.924 351.435C236.24 350.693 235.361 349.781 234.597 349.062C233.708 348.23 233.035 348.355 232.362 349.154C231.575 350.089 230.685 351.207 230.172 351.731C229.818 352.073 229.567 352.324 229.225 352.598Z" fill="#2C9A2A"/>
<path d="M241.281 350.568V352.359C241.703 352.324 242.467 352.302 243.117 352.302H249.242C249.721 352.302 250.303 352.347 250.576 352.359V350.568C250.28 350.591 249.778 350.636 249.242 350.636H243.117C242.524 350.636 241.692 350.602 241.281 350.568Z" fill="#2C9A2A"/>
<path d="M259.74 347.089L258.782 347.488C259.193 348.07 259.455 348.561 259.786 349.279L260.778 348.857C260.516 348.332 260.06 347.568 259.74 347.089ZM261.303 346.542L260.334 346.941C260.756 347.511 261.041 347.956 261.406 348.675L262.375 348.241C262.101 347.739 261.657 346.998 261.303 346.542ZM254.779 346.873L253.958 348.127C254.711 348.549 255.897 349.313 256.536 349.758L257.38 348.503C256.786 348.081 255.532 347.283 254.779 346.873ZM252.669 354.97L253.524 356.465C254.528 356.282 256.171 355.712 257.334 355.062C259.193 353.978 260.813 352.541 261.862 350.956L260.984 349.405C260.083 351.036 258.486 352.598 256.547 353.682C255.315 354.366 253.946 354.754 252.669 354.97ZM253.023 349.473L252.201 350.728C252.966 351.138 254.152 351.902 254.802 352.359L255.634 351.081C255.053 350.671 253.798 349.884 253.023 349.473Z" fill="#2C9A2A"/>
<path d="M268.363 346.701L266.858 346.576C266.835 346.987 266.755 347.431 266.629 347.888C266.447 347.888 266.253 347.888 266.082 347.888C265.5 347.888 264.656 347.842 264.075 347.751V349.085C264.702 349.131 265.535 349.154 266.002 349.154C266.048 349.154 266.093 349.154 266.15 349.154C265.637 350.18 264.827 351.195 263.63 352.302L264.85 353.214C265.238 352.712 265.569 352.302 265.911 351.959C266.344 351.537 267.051 351.172 267.69 351.172C268.01 351.172 268.317 351.275 268.489 351.56C267.188 352.233 265.82 353.146 265.82 354.605C265.82 356.077 267.143 356.51 268.933 356.51C270.006 356.51 271.408 356.419 272.161 356.316L272.207 354.845C271.203 355.039 269.937 355.164 268.968 355.164C267.85 355.164 267.314 354.993 267.314 354.366C267.314 353.796 267.77 353.351 268.625 352.86C268.614 353.362 268.603 353.91 268.568 354.252H269.937C269.926 353.727 269.903 352.883 269.891 352.245C270.587 351.925 271.237 351.674 271.751 351.469C272.138 351.321 272.743 351.093 273.108 350.99L272.538 349.667C272.116 349.884 271.716 350.066 271.272 350.26C270.804 350.465 270.325 350.659 269.732 350.933C269.481 350.351 268.911 350.055 268.215 350.055C267.838 350.055 267.223 350.146 266.926 350.283C267.154 349.952 267.382 349.541 267.576 349.119C268.808 349.085 270.211 348.994 271.294 348.834L271.306 347.511C270.302 347.682 269.161 347.785 268.078 347.842C268.226 347.363 268.306 346.987 268.363 346.701Z" fill="#2C9A2A"/>
<path d="M199.046 373.849C198.423 373.833 197.86 373.723 197.358 373.518C196.856 373.305 196.427 373.02 196.069 372.662C195.712 372.298 195.434 371.876 195.237 371.396C195.047 370.917 194.952 370.404 194.952 369.857C194.952 369.309 195.047 368.796 195.237 368.317C195.434 367.838 195.712 367.42 196.069 367.062C196.427 366.697 196.856 366.408 197.358 366.196C197.86 365.983 198.423 365.872 199.046 365.865H200.289V367.302H199.08C198.715 367.309 198.381 367.378 198.077 367.507C197.773 367.636 197.506 367.815 197.278 368.043C197.058 368.271 196.887 368.541 196.765 368.853C196.643 369.157 196.583 369.492 196.583 369.857C196.583 370.222 196.643 370.56 196.765 370.872C196.887 371.176 197.058 371.442 197.278 371.67C197.506 371.898 197.773 372.077 198.077 372.206C198.381 372.336 198.715 372.404 199.08 372.412H200.289V373.849H199.046Z" fill="#2C9A2A"/>
<path d="M201.545 373.849V365.865H204.237C205.088 365.865 205.826 366.036 206.449 366.378C207.073 366.72 207.556 367.192 207.898 367.792C208.248 368.393 208.423 369.081 208.423 369.857C208.423 370.632 208.248 371.32 207.898 371.921C207.556 372.522 207.073 372.993 206.449 373.335C205.826 373.678 205.088 373.849 204.237 373.849H201.545ZM203.176 372.412H204.237C204.731 372.412 205.168 372.309 205.548 372.104C205.936 371.898 206.24 371.606 206.461 371.225C206.681 370.838 206.792 370.381 206.792 369.857C206.792 369.324 206.681 368.868 206.461 368.488C206.24 368.108 205.936 367.815 205.548 367.61C205.168 367.405 204.731 367.302 204.237 367.302H203.176V372.412Z" fill="#2C9A2A"/>
<path d="M214.948 373.986C214.476 373.986 214.062 373.879 213.705 373.666C213.347 373.446 213.07 373.157 212.872 372.799C212.674 372.434 212.576 372.035 212.576 371.602V367.918C212.576 367.781 212.541 367.655 212.473 367.541C212.404 367.427 212.313 367.336 212.199 367.268C212.085 367.199 211.96 367.165 211.823 367.165C211.686 367.165 211.56 367.199 211.446 367.268C211.34 367.336 211.253 367.427 211.184 367.541C211.116 367.655 211.081 367.781 211.081 367.918V373.849H209.45V368.112C209.45 367.671 209.549 367.271 209.747 366.914C209.945 366.557 210.222 366.272 210.58 366.059C210.937 365.838 211.351 365.728 211.823 365.728C212.302 365.728 212.72 365.838 213.077 366.059C213.435 366.272 213.712 366.557 213.91 366.914C214.108 367.271 214.207 367.671 214.207 368.112V371.796C214.207 371.933 214.241 372.058 214.309 372.172C214.378 372.286 214.465 372.377 214.572 372.446C214.686 372.514 214.811 372.548 214.948 372.548C215.085 372.548 215.21 372.514 215.324 372.446C215.438 372.377 215.53 372.286 215.598 372.172C215.666 372.058 215.701 371.933 215.701 371.796V365.865H217.332V371.602C217.332 372.035 217.233 372.434 217.035 372.799C216.837 373.157 216.56 373.446 216.203 373.666C215.845 373.879 215.427 373.986 214.948 373.986Z" fill="#2C9A2A"/>
<path d="M223.121 365.876V367.336C224.558 367.473 226.622 367.462 228.025 367.336V365.865C226.793 366.013 224.523 366.07 223.121 365.876ZM224.033 370.746L222.721 370.621C222.596 371.203 222.527 371.659 222.527 372.104C222.527 373.278 223.474 373.974 225.436 373.974C226.725 373.974 227.637 373.894 228.379 373.757L228.356 372.218C227.352 372.423 226.508 372.514 225.493 372.514C224.33 372.514 223.896 372.206 223.896 371.704C223.896 371.396 223.942 371.123 224.033 370.746ZM221.364 365.112L219.767 364.975C219.756 365.34 219.687 365.774 219.653 366.093C219.528 366.971 219.174 368.899 219.174 370.609C219.174 372.161 219.391 373.552 219.619 374.339L220.942 374.248C220.931 374.088 220.919 373.906 220.919 373.78C220.919 373.666 220.942 373.415 220.976 373.244C221.102 372.64 221.478 371.396 221.797 370.45L221.09 369.891C220.931 370.267 220.748 370.667 220.577 371.054C220.543 370.826 220.531 370.53 220.531 370.313C220.531 369.172 220.931 366.891 221.079 366.127C221.125 365.922 221.273 365.352 221.364 365.112Z" fill="#2C9A2A"/>
<path d="M239.294 368.431L239.043 368.522H237.241L237.514 368.077C237.252 367.952 236.91 367.827 236.533 367.678C237.492 367.028 238.438 366.241 239.168 365.511L238.199 364.747L237.891 364.827H231.07V366.07H236.579C236.134 366.458 235.621 366.834 235.131 367.142C234.492 366.903 233.853 366.686 233.34 366.503L232.667 367.53C233.397 367.804 234.321 368.169 235.165 368.522H229.975V369.811H234.48V373.313C234.48 373.484 234.412 373.529 234.195 373.541C233.967 373.541 233.123 373.541 232.45 373.518C232.656 373.871 232.872 374.43 232.941 374.818C233.922 374.818 234.663 374.807 235.188 374.613C235.735 374.419 235.895 374.077 235.895 373.358V369.811H238.301C238.016 370.324 237.685 370.838 237.412 371.214L238.575 371.887C239.214 371.123 239.887 369.982 240.4 368.91L239.294 368.431Z" fill="#2C9A2A"/>
<path d="M248.794 364.907L247.22 364.758C247.22 365.021 247.186 365.511 247.129 365.842C247.106 366.013 247.072 366.196 247.027 366.389C246.148 366.424 245.304 366.64 244.438 367.074C244.358 366.834 244.289 366.595 244.232 366.378C244.141 366.036 244.05 365.659 243.981 365.283L242.487 365.751C242.692 366.161 242.818 366.526 242.943 366.937C243.046 367.245 243.137 367.553 243.251 367.861C242.213 368.773 241.563 370.165 241.563 371.465C241.563 372.936 242.43 373.735 243.377 373.735C244.221 373.735 244.86 373.358 245.624 372.526C245.738 372.674 245.875 372.822 246.012 372.97L247.163 372.058C246.947 371.853 246.741 371.613 246.536 371.374C247.186 370.381 247.688 369.07 248.087 367.747C249.228 368.055 249.935 369.001 249.935 370.267C249.935 371.693 248.943 372.982 246.445 373.187L247.312 374.51C249.684 374.145 251.406 372.765 251.406 370.347C251.406 368.351 250.22 366.903 248.429 366.492C248.464 366.344 248.498 366.207 248.532 366.059C248.601 365.774 248.703 365.215 248.794 364.907ZM242.898 371.351C242.898 370.644 243.206 369.834 243.742 369.207C244.073 370.062 244.438 370.838 244.803 371.396C244.381 371.91 243.959 372.263 243.548 372.263C243.137 372.263 242.898 371.91 242.898 371.351ZM244.848 368.317C245.384 367.998 245.989 367.758 246.684 367.678C246.422 368.522 246.08 369.412 245.669 370.142C245.396 369.686 245.11 369.024 244.848 368.317Z" fill="#2C9A2A"/>
<path d="M258.945 364.713H257.257C257.292 364.907 257.349 365.409 257.349 365.705V366.618H254.452C254.098 366.618 253.699 366.572 253.357 366.538V368.043C253.676 368.009 254.109 367.998 254.452 367.998H257.349V368.009C257.349 368.545 257.349 372.161 257.337 372.583C257.326 372.879 257.223 372.993 256.927 372.993C256.641 372.993 256.14 372.948 255.649 372.856L255.797 374.271C256.368 374.351 257.041 374.373 257.645 374.373C258.455 374.373 258.843 373.963 258.843 373.301V367.998H261.5C261.82 367.998 262.264 368.009 262.618 368.032V366.538C262.31 366.583 261.82 366.618 261.489 366.618H258.843V365.705C258.843 365.42 258.911 364.872 258.945 364.713ZM256.265 369.617L254.965 369.013C254.497 369.982 253.585 371.237 252.821 371.955L254.064 372.799C254.68 372.126 255.74 370.632 256.265 369.617ZM261.158 368.979L259.915 369.651C260.474 370.359 261.284 371.739 261.774 372.708L263.108 371.978C262.652 371.146 261.74 369.708 261.158 368.979Z" fill="#2C9A2A"/>
<path d="M273.145 366.116L272.21 365.42C271.982 365.5 271.526 365.568 271.035 365.568H267.009C266.667 365.568 265.971 365.534 265.663 365.488V367.108C265.903 367.097 266.53 367.028 267.009 367.028H270.876C270.625 367.838 269.929 368.967 269.176 369.823C268.104 371.02 266.336 372.412 264.5 373.096L265.675 374.328C267.237 373.586 268.754 372.4 269.963 371.123C271.035 372.161 272.096 373.324 272.837 374.351L274.138 373.221C273.465 372.4 272.085 370.94 270.955 369.959C271.72 368.933 272.358 367.712 272.746 366.823C272.849 366.595 273.054 366.241 273.145 366.116Z" fill="#2C9A2A"/>
<path d="M278.62 372.754C278.62 373.21 278.574 373.894 278.506 374.351H280.285C280.24 373.883 280.183 373.085 280.183 372.754V369.526C281.414 369.948 283.125 370.609 284.3 371.225L284.95 369.651C283.901 369.138 281.711 368.328 280.183 367.884V366.196C280.183 365.728 280.24 365.226 280.285 364.827H278.506C278.586 365.226 278.62 365.796 278.62 366.196V372.754Z" fill="#2C9A2A"/>
<rect x="150.772" y="320.256" width="151.274" height="62.4026" rx="2.10102" stroke="#2C9A2A" stroke-width="3.00146"/>
<path d="M317.953 374.979L323.152 369.78L317.953 364.582L312.754 369.78L317.953 374.979ZM318.59 315.718C318.238 315.366 317.668 315.366 317.316 315.718L311.586 321.448C311.234 321.8 311.234 322.37 311.586 322.721C311.938 323.073 312.508 323.073 312.859 322.721L317.953 317.628L323.047 322.721C323.398 323.073 323.969 323.073 324.32 322.721C324.672 322.37 324.672 321.8 324.32 321.448L318.59 315.718ZM318.854 369.78V316.354H317.053V369.78H318.854Z" fill="#2C9A2A"/>
</g>
<defs>
<clipPath id="clip0_702_10799">
<rect x="18.4082" width="424.557" height="495.242" rx="4" fill="white"/>
</clipPath>
<clipPath id="clip1_702_10799">
<rect x="198" y="476" width="60" height="13.2323" rx="1.20059" fill="white"/>
</clipPath>
<clipPath id="clip2_702_10799">
<rect width="186.691" height="73.8082" fill="white" transform="translate(253.721 112.855)"/>
</clipPath>
</defs>
</svg>
